<?xml version="1.0" standalone="no"?>
<!DOCTYPE svg PUBLIC "-//W3C//DTD SVG 1.1//EN" "http://www.w3.org/Graphics/SVG/1.1/DTD/svg11.dtd" >
<svg xmlns="http://www.w3.org/2000/svg" xmlns:xlink="http://www.w3.org/1999/xlink" version="1.1">
<metadata>
Created by FontForge 20170731 at Wed Apr 20 08:50:54 2022
 By Aleksey,,,
Copyright (c) 2016 by Grilli Type. All rights reserved.
</metadata>
<defs>
<font id="GTAmericaTrial-CmMdIt" horiz-adv-x="839" >
  <font-face 
    font-family="GT America Trial Cm Md It"
    font-weight="500"
    font-style="italic"
    font-stretch="ultra-condensed"
    units-per-em="2048"
    panose-1="0 0 6 8 0 0 0 0 0 0"
    ascent="1608"
    descent="-440"
    x-height="1024"
    cap-height="1454"
    bbox="-178 -440 1841 1608"
    underline-thickness="102"
    underline-position="-307"
    slope="-10"
    unicode-range="U+0020-1EF3"
  />
<missing-glyph horiz-adv-x="1024" 
d="M190 1608h650v-2048h-650v2048zM682 1403v67h-338v-67h133v-76h-135v-67h340v67h-135v76h135zM547 1063v143h-205v-213h340v70h-135zM410 1137h67v-74h-67v74zM682 870v68h-340v-68h135v-75h-135v-68h205v143h135zM682 610v205h-68v-135h-272v-70h340zM682 334v231h-205
v-114h70v47h67v-97h-204v164h-68v-231h340zM682 -20v231h-340v-231h340zM410 143h204v-96h-204v96zM682 -135v67h-340v-67h143l-143 -96v-68h340v68h-209l143 96h66z" />
    <glyph glyph-name=".notdef" horiz-adv-x="1024" 
d="M190 1608h650v-2048h-650v2048zM682 1403v67h-338v-67h133v-76h-135v-67h340v67h-135v76h135zM547 1063v143h-205v-213h340v70h-135zM410 1137h67v-74h-67v74zM682 870v68h-340v-68h135v-75h-135v-68h205v143h135zM682 610v205h-68v-135h-272v-70h340zM682 334v231h-205
v-114h70v47h67v-97h-204v164h-68v-231h340zM682 -20v231h-340v-231h340zM410 143h204v-96h-204v96zM682 -135v67h-340v-67h143l-143 -96v-68h340v68h-209l143 96h66z" />
    <glyph glyph-name=".null" horiz-adv-x="0" 
 />
    <glyph glyph-name=".null" horiz-adv-x="0" 
 />
    <glyph glyph-name="nonmarkingreturn" horiz-adv-x="682" 
 />
    <glyph glyph-name="space" unicode=" " horiz-adv-x="352" 
 />
    <glyph glyph-name="comma" unicode="," horiz-adv-x="407" 
d="M0 -297l-39 107q53 15 86.5 53.5t46.5 116.5l2 20h-102l47 274h235l-49 -276q-25 -140 -78 -202.5t-149 -92.5z" />
    <glyph glyph-name="hyphen" unicode="-" horiz-adv-x="585" 
d="M57 469l35 201h455l-33 -201h-457z" />
    <glyph glyph-name="period" unicode="." horiz-adv-x="409" 
d="M45 274h236l-48 -274h-235z" />
    <glyph glyph-name="zero" unicode="0" horiz-adv-x="917" 
d="M397 -31q-51 0 -96 8.5t-90 29t-76.5 54.5t-55 84.5t-25.5 119.5t12 159l100 582q13 73 28.5 129t47.5 119.5t74.5 104.5t112.5 68t159 27q44 0 83.5 -6t79.5 -20.5t71 -38.5t57.5 -59t39 -82.5t16 -109.5t-12.5 -139l-103 -581q-13 -74 -28.5 -130t-47.5 -119
t-74.5 -104t-112.5 -68.5t-159 -27.5zM401 141q40 0 72 15.5t53 39t37.5 59t25.5 69t17 75.5l111 623q25 143 -15 201.5t-118 58.5q-40 0 -72 -15.5t-53 -39t-37.5 -59t-25.5 -69t-17 -75.5l-109 -623q-11 -78 -7 -128.5t26.5 -80t49.5 -40.5t62 -11z" />
    <glyph glyph-name="one" unicode="1" horiz-adv-x="616" 
d="M375 0h-209l190 1092q-54 -66 -176 -66h-59l35 201h55q82 0 146.5 49.5t95.5 146.5h172z" />
    <glyph glyph-name="two" unicode="2" horiz-adv-x="811" 
d="M670 0h-719l29 168q287 287 456 500q79 100 126.5 187.5t66.5 186.5l10 64q16 90 -15.5 133t-97.5 43q-41 0 -70 -15t-46.5 -44.5t-27 -59t-17.5 -71.5q-16 -81 -21 -140l-209 31q5 50 19 113q16 84 42 145t69.5 111.5t111.5 76t160 25.5q83 0 146 -21.5t108.5 -68.5
t58.5 -122t-4 -183l-6 -33q-38 -201 -207 -414q-168 -213 -385 -430h454z" />
    <glyph glyph-name="three" unicode="3" horiz-adv-x="815" 
d="M350 -31q-80 0 -144.5 19.5t-115.5 62t-71.5 119.5t-2.5 182l11 70l215 29l-13 -89q-11 -56 -6 -95t14.5 -64t29.5 -38.5t39 -18.5t44 -5q35 0 60.5 10t41.5 24.5t28.5 43t19 53.5t14.5 68l18 109q39 202 -124 202h-58l33 180h55q82 0 126.5 47.5t64.5 168.5l10 55
q18 102 -13 142t-100 40q-38 0 -66.5 -13t-45 -31t-29 -51t-17.5 -57.5t-12 -66.5l-16 -88l-205 31l12 77q8 58 22.5 107t43 99t68.5 84.5t102 56.5t141 22q55 0 100 -6t96.5 -27.5t83 -57.5t46.5 -102t2 -155l-10 -68q-20 -131 -86.5 -207.5t-165.5 -91.5
q90 -19 132.5 -96.5t22.5 -193.5l-18 -117q-28 -176 -114.5 -269.5t-262.5 -93.5z" />
    <glyph glyph-name="four" unicode="4" horiz-adv-x="854" 
d="M815 492l-29 -168h-149l-57 -324h-205l57 324h-444l28 159l574 940h241l-165 -931h149zM463 492l108 528q4 19 19 92.5t24 114.5h-4q-29 -74 -102 -203l-234 -406q-46 -80 -84 -126h273z" />
    <glyph glyph-name="five" unicode="5" horiz-adv-x="819" 
d="M350 -31q-79 0 -142.5 18.5t-111.5 58.5t-66.5 110.5t-0.5 165.5l10 55l213 26l-10 -57q-37 -207 112 -207q37 0 65 11.5t46.5 30t32.5 51.5t22 65t17 82l32 174q21 120 -9 175.5t-97 55.5q-61 0 -105.5 -43.5t-66.5 -119.5l-191 18l176 784h607l-31 -182h-444l-99 -420
q75 135 238 135q62 0 111 -21.5t84.5 -69t45 -123t-7.5 -183.5l-28 -174q-14 -77 -33 -137t-50.5 -114t-74.5 -89t-104.5 -55.5t-139.5 -20.5z" />
    <glyph glyph-name="six" unicode="6" horiz-adv-x="854" 
d="M573 1454q69 0 125.5 -14t108 -48t74.5 -102t8 -164l-6 -39l-217 -34l10 53q18 97 -15 140.5t-102 43.5q-38 0 -67 -14t-47 -34.5t-32 -57.5t-21.5 -69.5t-16.5 -84.5l-29 -162q82 88 215 88q47 0 87.5 -11.5t77 -38.5t57 -72t29.5 -111t-7 -156l-33 -194
q-30 -200 -124 -302t-269 -102q-34 0 -66 4t-66 13.5t-62.5 27.5t-55 42.5t-44 61t-28 82t-10 107t13.5 133.5l101 576q10 57 19.5 97t25.5 89t36 83t50.5 68t69 54.5t92 33.5t118.5 13zM481 786q-106 0 -168 -106l-51 -289q-45 -252 133 -252q65 0 105.5 50.5t62.5 185.5
l31 194q34 217 -113 217z" />
    <glyph glyph-name="seven" unicode="7" horiz-adv-x="743" 
d="M324 0h-220l15 98q50 332 174.5 608t345.5 533h-485l32 184h693l-27 -147q-215 -239 -332.5 -505t-165.5 -581z" />
    <glyph glyph-name="eight" unicode="8" horiz-adv-x="858" 
d="M557 1454q44 0 84.5 -6.5t83 -21.5t73.5 -39.5t56 -62t30.5 -88.5t-3.5 -118l-17 -108q-33 -181 -213 -258q171 -104 135 -320l-18 -108q-10 -59 -25.5 -106t-45.5 -95.5t-71 -80.5t-105.5 -52.5t-145.5 -20.5q-41 0 -79 5.5t-77.5 18t-71 33t-59.5 51t-42.5 71.5t-20 95
t7.5 122l14 88q11 63 34.5 112t76.5 94.5t133 71.5q-154 96 -121 291l18 117q8 48 23 90.5t44 85t68.5 72.5t99.5 48.5t134 18.5zM655 1004l23 126q9 41 3 70t-17.5 48t-31.5 30t-39.5 15.5t-41.5 4.5q-42 0 -72.5 -14.5t-47 -42t-25 -53t-13.5 -60.5l-20 -112
q-3 -20 -3 -38.5t2 -32t8.5 -27t11 -22t16 -18.5t17.5 -15t20.5 -13t19.5 -11t20 -10l33 -14q67 30 96 75.5t41 113.5zM557 324l21 112q16 92 -17 142.5t-102 78.5l-37 15q-78 -29 -113 -78t-49 -133l-20 -119q-10 -51 -3 -87t19 -59t34.5 -36t44.5 -18t48 -5q45 0 77 14
t51 42t29 58t17 73z" />
    <glyph glyph-name="nine" unicode="9" horiz-adv-x="845" 
d="M532 1454q39 0 75 -5.5t75.5 -19t70 -36t58.5 -57t41 -82t17.5 -110.5t-11.5 -143l-104 -595q-10 -56 -18 -91.5t-24 -86.5t-34 -83.5t-48 -69t-67 -57.5t-89 -35t-116 -14q-38 0 -73 4.5t-73 15t-68 28t-57 43.5t-41.5 61.5t-20.5 82t6 105.5l8 45l215 43l-14 -75
q-5 -42 -5.5 -73t9.5 -52t20 -33.5t27.5 -19.5t31.5 -9t31 -2q39 0 67.5 12.5t46.5 31t32.5 56.5t22 71.5t18.5 94.5l37 209q-74 -86 -195 -86q-37 0 -71 7.5t-69.5 24.5t-61 45t-44.5 69.5t-22 97.5t8 129l33 180q7 41 14.5 73t22 73.5t32.5 72t47 62.5t64.5 52t85.5 33
t110 13zM612 805l43 237q24 133 -14.5 190.5t-112.5 57.5q-43 0 -73.5 -17t-48.5 -52t-27.5 -68.5t-18.5 -85.5l-28 -166q-40 -211 110 -211q54 0 95 26.5t75 88.5z" />
    <glyph glyph-name="A" unicode="A" horiz-adv-x="907" 
d="M758 1454l35 -1454h-209v387h-291l-133 -387h-228l549 1454h277zM522 1049l-172 -496h234v489q3 132 8 222h-6q-25 -103 -64 -215z" />
    <glyph glyph-name="B" unicode="B" horiz-adv-x="907" 
d="M281 1454h309q84 0 150 -21t112 -62.5t65 -109t5 -155.5l-7 -51q-20 -127 -77.5 -203.5t-167.5 -101.5q92 -22 135 -102.5t18 -223.5l-10 -62q-15 -89 -42.5 -152t-75 -112.5t-122.5 -73.5t-180 -24h-368zM692 1042l10 56q7 61 2 99.5t-29.5 60.5t-52.5 30t-67 8h-88
l-82 -471h109q95 0 138 56t60 161zM594 371l14 78q21 125 -11.5 175t-125.5 50h-113l-90 -512h125q97 0 139.5 51.5t61.5 157.5z" />
    <glyph glyph-name="C" unicode="C" horiz-adv-x="915" 
d="M401 -35q-72 0 -130.5 15.5t-107.5 49.5t-75.5 89.5t-36 136t11.5 188.5l113 648q11 64 28.5 117t50 106.5t77 90.5t112 60t152.5 23q417 0 344 -414l-18 -100l-230 -47l29 166q40 219 -127 219q-41 0 -73.5 -14t-52 -34.5t-34 -53t-22 -60t-13.5 -64.5l-118 -675
q-26 -144 12 -206.5t117 -62.5q85 0 123.5 52t58.5 155l37 205l211 -49l-31 -170q-14 -83 -40 -145.5t-72 -116t-120.5 -81.5t-175.5 -28z" />
    <glyph glyph-name="D" unicode="D" horiz-adv-x="966" 
d="M360 0h-335l256 1454h309q227 0 322.5 -135t41.5 -434l-59 -357q-27 -157 -72.5 -261t-114.5 -162.5t-151 -81.5t-197 -23zM467 1290l-199 -1124h109q64 0 106.5 14t79.5 51.5t62 106t45 176.5l63 363q38 219 -2 316t-162 97h-102z" />
    <glyph glyph-name="E" unicode="E" horiz-adv-x="774" 
d="M885 1454l-31 -176h-389l-78 -440h358l-32 -176h-357l-86 -486h404l-31 -176h-618l256 1454h604z" />
    <glyph glyph-name="F" unicode="F" horiz-adv-x="743" 
d="M885 1454l-31 -176h-389l-78 -442h358l-32 -177h-357l-116 -659h-215l256 1454h604z" />
    <glyph glyph-name="G" unicode="G" horiz-adv-x="933" 
d="M322 -35q-56 0 -101.5 15t-84.5 49.5t-59.5 91t-26.5 140.5t16 198l112 633q33 183 140.5 290t297.5 107q82 0 147 -21t115 -69.5t65.5 -127t-1.5 -192.5l-12 -69l-230 -43l21 129q19 117 -16.5 169t-108.5 52q-83 0 -130.5 -57t-62.5 -146l-118 -678q-13 -70 -13 -122.5
t9.5 -85t28.5 -52.5t41.5 -27.5t51.5 -7.5q95 0 145.5 71t74.5 202l32 192h-198l28 172h404l-137 -778h-156l20 190q-74 -225 -294 -225z" />
    <glyph glyph-name="H" unicode="H" horiz-adv-x="985" 
d="M821 1454h215l-256 -1454h-215l117 662h-326l-116 -662h-215l256 1454h215l-111 -625h328z" />
    <glyph glyph-name="I" unicode="I" horiz-adv-x="442" 
d="M496 1454l-256 -1454h-215l256 1454h215z" />
    <glyph glyph-name="J" unicode="J" horiz-adv-x="559" 
d="M621 1454l-207 -1184q-52 -295 -328 -295q-97 0 -162 25l35 193q52 -19 104 -19q64 0 97.5 35t44.5 108l201 1137h215z" />
    <glyph glyph-name="K" unicode="K" horiz-adv-x="923" 
d="M827 1454h228l-377 -565l131 -889h-221l-90 729l-176 -260l-82 -469h-215l256 1454h215l-127 -725z" />
    <glyph glyph-name="L" unicode="L" horiz-adv-x="722" 
d="M608 0h-583l256 1454h215l-224 -1259h369z" />
    <glyph glyph-name="M" unicode="M" horiz-adv-x="1228" 
d="M213 0h-188l256 1454h309l-4 -928q0 -122 -11 -213h9q17 81 65 213l322 928h309l-256 -1454h-190l147 834q45 258 76 397h-10q-50 -170 -76 -244l-350 -987h-193v987q-2 128 8 244h-8q-3 -20 -68 -397z" />
    <glyph glyph-name="N" unicode="N" horiz-adv-x="1009" 
d="M219 0h-194l256 1454h235l143 -848q22 -128 25 -239h4q17 170 47 352l131 735h195l-256 -1454h-217l-152 891q-23 138 -26 239h-7q-16 -191 -32 -282z" />
    <glyph glyph-name="O" unicode="O" horiz-adv-x="956" 
d="M412 -35q-75 0 -135.5 15t-111 48.5t-78.5 86.5t-38 129.5t10 177.5l115 651q18 98 48.5 170.5t81.5 129.5t130.5 86.5t186.5 29.5q74 0 134.5 -15t110.5 -48.5t78 -86.5t38 -129.5t-9 -177.5l-115 -651q-18 -98 -49 -170.5t-82 -129.5t-130 -86.5t-185 -29.5zM426 141
q51 0 89 18.5t61 54.5t36 75t23 92l123 692q22 125 -23 182.5t-131 57.5q-51 0 -88.5 -18.5t-60.5 -55t-35.5 -74.5t-22.5 -92l-123 -692q-23 -125 21.5 -182.5t130.5 -57.5z" />
    <glyph glyph-name="P" unicode="P" horiz-adv-x="860" 
d="M281 1454h313q61 0 112 -9t100 -34t80 -64.5t44.5 -106t1.5 -153.5l-21 -135q-9 -64 -25.5 -115t-48 -99t-75 -80t-110 -51t-150.5 -19h-160l-102 -588h-215zM690 971l21 110q11 52 5.5 89.5t-17 61.5t-35 37.5t-48 19t-55.5 5.5h-94l-96 -546h133q47 0 80.5 16
t53.5 49.5t31 68.5t21 89z" />
    <glyph glyph-name="Q" unicode="Q" horiz-adv-x="956" 
d="M621 1489q74 0 134.5 -15t110.5 -48.5t78 -86.5t38 -129.5t-9 -177.5l-115 -651q-26 -141 -81.5 -235.5t-153.5 -139.5q36 -45 141 -45q49 0 90 10l-33 -186q-43 -12 -88 -12q-100 0 -171 51.5t-91 142.5q-18 -2 -59 -2q-75 0 -135.5 15t-111 48.5t-78.5 86.5t-38 129.5
t10 177.5l115 651q18 98 48.5 170.5t81.5 129.5t130.5 86.5t186.5 29.5zM635 381l123 692q22 125 -23 182.5t-131 57.5q-51 0 -88.5 -18.5t-60.5 -55t-35.5 -74.5t-22.5 -92l-123 -692q-23 -125 21.5 -182.5t130.5 -57.5q51 0 89 18.5t61 54.5t36 75t23 92z" />
    <glyph glyph-name="R" unicode="R" horiz-adv-x="905" 
d="M281 1454h292q90 0 160.5 -20.5t122 -63t72 -116t4.5 -173.5l-19 -104q-20 -124 -75 -207t-160 -119l102 -651h-225l-82 610h-127l-106 -610h-215zM694 973l17 106q33 217 -148 217h-96l-94 -536h112q175 0 209 213z" />
    <glyph glyph-name="S" unicode="S" horiz-adv-x="831" 
d="M365 -35q-86 0 -154 23t-118 70t-69 128t-1 189l16 98l225 41l-24 -147q-22 -118 17 -173t112 -55q125 0 151 162l12 68q18 104 0 153t-83 96l-156 107q-97 68 -124.5 163.5t-2.5 221.5l16 82q9 48 24 87.5t43 80t66.5 68t97 44.5t132.5 17q399 0 336 -381l-15 -84
l-223 -41l21 109q39 225 -121 225q-37 0 -64 -11.5t-43 -34t-24.5 -45.5t-14.5 -55l-14 -73q-14 -74 5.5 -125t76.5 -92l162 -111q98 -69 127.5 -157t5.5 -226l-19 -104q-11 -69 -37 -124t-69.5 -100t-112 -69.5t-157.5 -24.5z" />
    <glyph glyph-name="T" unicode="T" horiz-adv-x="796" 
d="M174 1454h780l-34 -188h-283l-221 -1266h-213l223 1266h-285z" />
    <glyph glyph-name="U" unicode="U" horiz-adv-x="960" 
d="M78 358l192 1096h215l-196 -1104q-17 -100 19.5 -150t121.5 -50q87 0 127.5 52t56.5 144l195 1108h213l-199 -1126q-64 -363 -411 -363q-193 0 -280.5 101.5t-53.5 291.5z" />
    <glyph glyph-name="V" unicode="V" horiz-adv-x="866" 
d="M481 0h-274l-29 1454h225l-14 -1030q-2 -80 -10 -205h8q30 106 62 205l350 1030h221z" />
    <glyph glyph-name="W" unicode="W" horiz-adv-x="1263" 
d="M403 0h-278l86 1454h203l-78 -985q-9 -117 -29 -250h8q10 35 32.5 117t35.5 125l295 993h235l-55 -993q-2 -41 -9 -123t-9 -119h8q23 107 59 250l271 985h206l-426 -1454h-276l53 944q4 55 27 270h-10q-31 -142 -70 -270z" />
    <glyph glyph-name="X" unicode="X" horiz-adv-x="878" 
d="M170 0h-246l420 782l-143 672h225l72 -401q4 -22 8 -148h4q26 81 57 148l205 401h234l-375 -688l143 -766h-225l-70 506q-7 48 -4 147h-4q-38 -108 -57 -147z" />
    <glyph glyph-name="Y" unicode="Y" horiz-adv-x="841" 
d="M438 0h-215l103 582l-152 872h223l62 -514q6 -86 2 -158h6q24 80 59 158l242 514h231l-458 -872z" />
    <glyph glyph-name="Z" unicode="Z" horiz-adv-x="772" 
d="M-51 0l28 172l662 1096h-449l33 186h672l-29 -170l-659 -1098h481l-33 -186h-706z" />
    <glyph glyph-name="a" unicode="a" horiz-adv-x="790" 
d="M205 -25q-107 0 -162 70t-35 197l8 57q20 149 121 225q79 62 219 76l152 14l20 142q21 139 -79 139q-56 0 -82 -28t-37 -97l-15 -86h-204l12 88q21 143 104.5 210t229.5 67q48 0 87.5 -6.5t75 -22t59 -40.5t40 -61.5t17 -86t-8.5 -113.5l-82 -471q-27 -164 -27 -248h-192
q-2 43 12 160q-26 -90 -86 -137.5t-147 -47.5zM303 131q114 0 146 164l36 201l-84 -9q-143 -15 -165 -170l-11 -59q-20 -127 78 -127z" />
    <glyph glyph-name="b" unicode="b" horiz-adv-x="843" 
d="M436 -25q-82 0 -133 45.5t-63 129.5l-47 -150h-175l263 1485h204l-104 -594q42 76 95 117t130 41q21 0 41 -3t45 -13.5t44.5 -28t37 -49t26.5 -73t8.5 -103.5t-13.5 -138l-43 -246q-12 -63 -25 -113.5t-38.5 -111t-57.5 -100.5t-82.5 -67.5t-112.5 -27.5zM371 141
q48 0 82 33.5t50 78t27 109.5l54 304q39 217 -84 217q-125 0 -162 -221l-53 -304q-39 -217 86 -217z" />
    <glyph glyph-name="c" unicode="c" horiz-adv-x="763" 
d="M330 -25q-163 0 -244 92.5t-49 274.5l59 344q32 182 120.5 272.5t236.5 90.5q353 0 290 -334l-12 -58l-209 -26l15 78q19 104 -5 140t-81 36t-91 -47t-51 -146l-63 -362q-17 -104 9 -147.5t79 -43.5q55 0 83 36.5t44 117.5l20 110l201 -34l-18 -97q-29 -149 -116 -223
t-218 -74z" />
    <glyph glyph-name="d" unicode="d" horiz-adv-x="843" 
d="M242 -25q-50 0 -91 21t-73 68.5t-39 124.5t10 188l47 268q15 84 37.5 150t58.5 126.5t92.5 94t129.5 33.5q81 0 127 -42.5t55 -121.5l104 600h207l-262 -1485h-194l24 143q-91 -168 -233 -168zM350 141q61 0 99 58t59 172l51 286q23 120 -4 173t-84 53q-39 0 -68.5 -19.5
t-47 -56.5t-27 -70t-17.5 -80l-51 -290q-22 -126 7.5 -176t82.5 -50z" />
    <glyph glyph-name="e" unicode="e" horiz-adv-x="776" 
d="M463 1049q164 0 236 -94t42 -257q-15 -91 -39 -217h-432l-28 -155q-31 -187 94 -187q54 0 84.5 35t44.5 109l14 71l197 -30l-17 -74q-25 -123 -105 -199t-222 -76q-158 0 -242 94t-51 281l61 348q62 351 363 351zM539 735q29 174 -86 174q-63 0 -94.5 -48t-45.5 -128
l-22 -127h225q3 22 23 129z" />
    <glyph glyph-name="f" unicode="f" horiz-adv-x="540" 
d="M444 1024h164l-26 -150h-164l-154 -874h-205l154 874h-119l27 150h119l32 190q25 138 95 210.5t206 72.5q61 0 115 -16l-29 -166q-30 10 -63 10q-59 0 -85.5 -31t-37.5 -98z" />
    <glyph glyph-name="g" unicode="g" horiz-adv-x="741" 
d="M786 1192q44 0 66 -12l-29 -166q-38 14 -84 14q-70 0 -102 -43q100 -83 65 -256l-18 -98q-9 -51 -24 -92.5t-40.5 -81t-60.5 -66t-87 -43t-116 -16.5q-56 0 -106 12q-55 -16 -55 -61q0 -28 18 -42.5t61 -27.5l142 -43q113 -37 163.5 -103.5t41.5 -170.5l-5 -31
q-6 -57 -28.5 -106t-65 -91.5t-116 -67t-170.5 -24.5q-77 0 -139 15t-109 45.5t-68 83.5t-10 124l4 15q21 148 190 196q-88 47 -88 140q0 127 166 178q-135 74 -98 276l18 101q12 64 33 113.5t57.5 93.5t97 68t140.5 24q89 0 154 -29q48 172 202 172zM485 608l31 166
q7 43 0.5 73.5t-24 44t-33.5 18.5t-35 5q-100 0 -125 -143l-29 -166q-12 -80 16.5 -111.5t73.5 -31.5q104 0 125 145zM324 -12l-144 39q-30 -20 -45.5 -54.5t-23.5 -93.5l-2 -18q-9 -74 29.5 -109t115.5 -35q84 0 124.5 34.5t47.5 84.5l2 23q10 92 -104 129z" />
    <glyph glyph-name="h" unicode="h" horiz-adv-x="841" 
d="M223 0h-205l263 1485h204l-110 -629q35 91 91.5 142t145.5 51q37 0 68 -9.5t58.5 -30.5t43 -60t15.5 -93q0 -44 -15 -141l-129 -715h-207l123 705q13 67 13 96q0 84 -82 84q-70 0 -106 -65t-60 -202z" />
    <glyph glyph-name="i" unicode="i" horiz-adv-x="419" 
d="M426 1186h-215l43 244h215zM221 0h-203l181 1024h202z" />
    <glyph glyph-name="j" unicode="j" horiz-adv-x="421" 
d="M430 1186h-215l43 244h215zM-59 -414q-66 0 -119 17l33 174q30 -10 53 -10q42 0 61 21t27 65l203 1171h204l-210 -1210q-9 -50 -25.5 -88.5t-45 -71.5t-74 -50.5t-107.5 -17.5z" />
    <glyph glyph-name="k" unicode="k" horiz-adv-x="817" 
d="M659 1024h224l-310 -393l134 -631h-211l-82 500l-135 -189l-56 -311h-205l263 1485h204l-163 -928z" />
    <glyph glyph-name="l" unicode="l" horiz-adv-x="421" 
d="M281 1485h204l-262 -1485h-205z" />
    <glyph glyph-name="m" unicode="m" horiz-adv-x="1218" 
d="M223 0h-205l181 1024h194l-26 -154q38 89 89.5 134t135.5 45q66 0 115 -39t61 -129q71 168 217 168q35 0 65.5 -10t58.5 -34t44 -70t16 -110q0 -52 -12 -123l-127 -702h-207l125 707q8 36 8 73q0 105 -77 105q-27 0 -48 -13.5t-34.5 -33t-24.5 -51.5t-17 -58.5t-12 -64.5
l-116 -664h-205l123 700q8 39 8 74q0 111 -80 111q-54 0 -84 -56.5t-51 -181.5z" />
    <glyph glyph-name="n" unicode="n" 
d="M223 0h-205l181 1024h194l-28 -168q42 93 95 143t138 50q34 0 64 -9t61 -31t49.5 -69.5t18.5 -114.5q0 -33 -11 -112l-127 -713h-207l127 727q7 44 7 59q0 99 -84 99q-31 0 -55 -14t-40 -35.5t-29.5 -60t-21.5 -73.5t-18 -90z" />
    <glyph glyph-name="o" unicode="o" horiz-adv-x="794" 
d="M328 -25q-46 0 -86 7.5t-79 25.5t-65.5 48t-46 74t-20.5 104t10 139l53 301q12 65 28 116t45 101.5t68 83.5t98 53.5t134 20.5q46 0 85.5 -7.5t78.5 -25.5t65.5 -48t46 -74t20.5 -104t-11 -139l-54 -301q-11 -65 -27 -116t-44.5 -101.5t-67 -83.5t-97.5 -53.5t-134 -20.5
zM338 135q65 0 97.5 52.5t49.5 152.5l64 354q35 195 -92 195q-67 0 -100 -52.5t-50 -152.5l-61 -354q-35 -195 92 -195z" />
    <glyph glyph-name="p" unicode="p" horiz-adv-x="845" 
d="M154 -399h-205l252 1423h194l-30 -152q44 88 99.5 132.5t137.5 44.5q21 0 41 -3t45.5 -13.5t46 -27.5t38.5 -48.5t27.5 -73t9 -104t-14.5 -138.5l-43 -246q-11 -63 -24 -114t-38.5 -110.5t-57.5 -100t-83 -68t-113 -27.5q-77 0 -126 41t-62 117zM367 141q72 0 109 58.5
t54 162.5l54 304q22 120 -4 168.5t-78 48.5q-70 0 -107 -58.5t-57 -162.5l-53 -304q-20 -118 6 -167.5t76 -49.5z" />
    <glyph glyph-name="q" unicode="q" horiz-adv-x="845" 
d="M575 -399h-204l98 557q-86 -183 -227 -183q-50 0 -91 21t-73 68.5t-39 124.5t10 188l47 268q15 84 37.5 150t58.5 126.5t92.5 94t129.5 33.5q88 0 137.5 -46t60.5 -131l47 152h168zM350 141q61 0 99 58t59 172l51 286q23 120 -4 173t-84 53q-39 0 -68.5 -19.5t-47 -56.5
t-27 -70t-17.5 -80l-51 -290q-22 -126 7.5 -176t82.5 -50z" />
    <glyph glyph-name="r" unicode="r" horiz-adv-x="569" 
d="M389 1024l-41 -229q33 117 95.5 185.5t156.5 68.5q16 0 41 -5l-41 -227q-32 8 -57 8q-99 0 -152 -84q-53 -77 -78 -235l-90 -506h-205l181 1024h190z" />
    <glyph glyph-name="s" unicode="s" horiz-adv-x="737" 
d="M307 -25q-69 0 -126 16t-101.5 49t-63 91t-4.5 135l11 51l213 35l-13 -67q-13 -88 12 -124t84 -36q83 0 101 102l10 54q10 54 -4 88t-72 57l-106 35q-81 29 -119.5 104.5t-17.5 184.5l14 67q19 104 93.5 168t217.5 64q65 0 118 -13.5t97 -43.5t62 -86.5t4 -135.5l-8 -49
l-209 -29l10 74q11 74 -10 105.5t-70 31.5q-83 0 -102 -94l-13 -57q-19 -107 68 -144l106 -41q106 -41 138 -109t12 -177l-12 -64q-41 -242 -320 -242z" />
    <glyph glyph-name="t" unicode="t" horiz-adv-x="552" 
d="M201 874h-121l29 150h118l43 240l217 71l-53 -311h168l-27 -150h-167l-97 -550q-14 -79 9.5 -116.5t87.5 -37.5q35 0 51 2l-31 -182q-39 -8 -98 -8q-48 0 -86.5 10t-72.5 34t-52 63.5t-24.5 98t9.5 138.5z" />
    <glyph glyph-name="u" unicode="u" 
d="M242 -25q-197 0 -197 203q0 37 16 135l123 711h211l-129 -727q-6 -35 -6 -59q0 -95 82 -95q45 0 78 36.5t51.5 91t34.5 139.5l110 614h205l-180 -1024h-197l31 166q-42 -95 -93.5 -143t-139.5 -48z" />
    <glyph glyph-name="v" unicode="v" horiz-adv-x="722" 
d="M389 0h-233l-56 1024h211l-6 -651q-3 -101 -8 -168h8q6 20 16.5 52.5t19 60.5t17.5 55l224 651h221z" />
    <glyph glyph-name="w" unicode="w" horiz-adv-x="1105" 
d="M344 0h-223l-4 1024h202l-38 -711q0 -3 -11 -114h4q7 33 33 114l232 711h206l-20 -711q-4 -76 -8 -114h6q8 56 27 114l213 711h206l-362 -1024h-223l16 702q0 45 14 136h-6q-3 -12 -9.5 -39.5t-12.5 -51.5t-13 -45z" />
    <glyph glyph-name="x" unicode="x" horiz-adv-x="729" 
d="M150 0h-232l326 537l-123 487h213l41 -262q10 -58 10 -103h6q4 16 12 33t19 37.5t16 32.5l129 262h221l-292 -494l135 -530h-213l-51 289q-11 91 -11 102h-6q-6 -18 -47 -102z" />
    <glyph glyph-name="y" unicode="y" horiz-adv-x="741" 
d="M-6 -410q-59 0 -100 13l30 182q33 -10 74 -10q99 0 141 104l45 115l-84 1030h222l12 -653q0 -83 -15 -185h7q19 83 51 181l227 657h217l-481 -1176q-33 -80 -71 -133t-83 -79.5t-89 -36t-103 -9.5z" />
    <glyph glyph-name="z" unicode="z" horiz-adv-x="645" 
d="M-53 0l26 145l476 717h-332l26 162h543l-27 -143l-471 -717h367l-29 -164h-579z" />
    <glyph glyph-name="ordfeminine" unicode="&#xaa;" horiz-adv-x="790" 
d="M205 -25q-107 0 -162 70t-35 197l8 57q20 149 121 225q79 62 219 76l152 14l20 142q21 139 -79 139q-56 0 -82 -28t-37 -97l-15 -86h-204l12 88q21 143 104.5 210t229.5 67q48 0 87.5 -6.5t75 -22t59 -40.5t40 -61.5t17 -86t-8.5 -113.5l-82 -471q-27 -164 -27 -248h-192
q-2 43 12 160q-26 -90 -86 -137.5t-147 -47.5zM303 131q114 0 146 164l36 201l-84 -9q-143 -15 -165 -170l-11 -59q-20 -127 78 -127z" />
    <glyph glyph-name="ordmasculine" unicode="&#xba;" horiz-adv-x="794" 
d="M328 -25q-46 0 -86 7.5t-79 25.5t-65.5 48t-46 74t-20.5 104t10 139l53 301q12 65 28 116t45 101.5t68 83.5t98 53.5t134 20.5q46 0 85.5 -7.5t78.5 -25.5t65.5 -48t46 -74t20.5 -104t-11 -139l-54 -301q-11 -65 -27 -116t-44.5 -101.5t-67 -83.5t-97.5 -53.5t-134 -20.5
zM338 135q65 0 97.5 52.5t49.5 152.5l64 354q35 195 -92 195q-67 0 -100 -52.5t-50 -152.5l-61 -354q-35 -195 92 -195z" />
    <glyph glyph-name="Agrave" unicode="&#xc0;" horiz-adv-x="907" 
d="M758 1454l35 -1454h-209v387h-291l-133 -387h-228l549 1454h277zM522 1049l-172 -496h234v489q3 132 8 222h-6q-25 -103 -64 -215z" />
    <glyph glyph-name="Aacute" unicode="&#xc1;" horiz-adv-x="907" 
d="M758 1454l35 -1454h-209v387h-291l-133 -387h-228l549 1454h277zM522 1049l-172 -496h234v489q3 132 8 222h-6q-25 -103 -64 -215z" />
    <glyph glyph-name="Acircumflex" unicode="&#xc2;" horiz-adv-x="907" 
d="M758 1454l35 -1454h-209v387h-291l-133 -387h-228l549 1454h277zM522 1049l-172 -496h234v489q3 132 8 222h-6q-25 -103 -64 -215z" />
    <glyph glyph-name="Atilde" unicode="&#xc3;" horiz-adv-x="907" 
d="M758 1454l35 -1454h-209v387h-291l-133 -387h-228l549 1454h277zM522 1049l-172 -496h234v489q3 132 8 222h-6q-25 -103 -64 -215z" />
    <glyph glyph-name="Adieresis" unicode="&#xc4;" horiz-adv-x="907" 
d="M758 1454l35 -1454h-209v387h-291l-133 -387h-228l549 1454h277zM522 1049l-172 -496h234v489q3 132 8 222h-6q-25 -103 -64 -215z" />
    <glyph glyph-name="Aring" unicode="&#xc5;" horiz-adv-x="907" 
d="M758 1454l35 -1454h-209v387h-291l-133 -387h-228l549 1454h277zM522 1049l-172 -496h234v489q3 132 8 222h-6q-25 -103 -64 -215z" />
    <glyph glyph-name="AE" unicode="&#xc6;" horiz-adv-x="1681" 
d="M-68 0l549 1454h277l35 -1454h-209v387h-291l-133 -387h-228zM1792 1454l-31 -176h-389l-78 -440h359l-33 -176h-356l-86 -486h403l-31 -176h-618l256 1454h604zM522 1049l-172 -496h234v489q3 132 8 222h-6q-25 -103 -64 -215z" />
    <glyph glyph-name="Ccedilla" unicode="&#xc7;" horiz-adv-x="915" 
d="M401 -35q-72 0 -130.5 15.5t-107.5 49.5t-75.5 89.5t-36 136t11.5 188.5l113 648q11 64 28.5 117t50 106.5t77 90.5t112 60t152.5 23q417 0 344 -414l-18 -100l-230 -47l29 166q40 219 -127 219q-41 0 -73.5 -14t-52 -34.5t-34 -53t-22 -60t-13.5 -64.5l-118 -675
q-26 -144 12 -206.5t117 -62.5q85 0 123.5 52t58.5 155l37 205l211 -49l-31 -170q-14 -83 -40 -145.5t-72 -116t-120.5 -81.5t-175.5 -28z" />
    <glyph glyph-name="Egrave" unicode="&#xc8;" horiz-adv-x="774" 
d="M885 1454l-31 -176h-389l-78 -440h358l-32 -176h-357l-86 -486h404l-31 -176h-618l256 1454h604z" />
    <glyph glyph-name="Eacute" unicode="&#xc9;" horiz-adv-x="774" 
d="M885 1454l-31 -176h-389l-78 -440h358l-32 -176h-357l-86 -486h404l-31 -176h-618l256 1454h604z" />
    <glyph glyph-name="Ecircumflex" unicode="&#xca;" horiz-adv-x="774" 
d="M885 1454l-31 -176h-389l-78 -440h358l-32 -176h-357l-86 -486h404l-31 -176h-618l256 1454h604z" />
    <glyph glyph-name="Edieresis" unicode="&#xcb;" horiz-adv-x="774" 
d="M885 1454l-31 -176h-389l-78 -440h358l-32 -176h-357l-86 -486h404l-31 -176h-618l256 1454h604z" />
    <glyph glyph-name="Igrave" unicode="&#xcc;" horiz-adv-x="442" 
d="M496 1454l-256 -1454h-215l256 1454h215z" />
    <glyph glyph-name="Iacute" unicode="&#xcd;" horiz-adv-x="442" 
d="M496 1454l-256 -1454h-215l256 1454h215z" />
    <glyph glyph-name="Icircumflex" unicode="&#xce;" horiz-adv-x="442" 
d="M496 1454l-256 -1454h-215l256 1454h215z" />
    <glyph glyph-name="Idieresis" unicode="&#xcf;" horiz-adv-x="442" 
d="M496 1454l-256 -1454h-215l256 1454h215z" />
    <glyph glyph-name="Eth" unicode="&#xd0;" horiz-adv-x="966" 
d="M360 0h-335l256 1454h309q227 0 322.5 -135t41.5 -434l-59 -357q-27 -157 -72.5 -261t-114.5 -162.5t-151 -81.5t-197 -23zM467 1290l-199 -1124h109q64 0 106.5 14t79.5 51.5t62 106t45 176.5l63 363q38 219 -2 316t-162 97h-102z" />
    <glyph glyph-name="Ntilde" unicode="&#xd1;" horiz-adv-x="1009" 
d="M219 0h-194l256 1454h235l143 -848q22 -128 25 -239h4q17 170 47 352l131 735h195l-256 -1454h-217l-152 891q-23 138 -26 239h-7q-16 -191 -32 -282z" />
    <glyph glyph-name="Ograve" unicode="&#xd2;" horiz-adv-x="956" 
d="M412 -35q-75 0 -135.5 15t-111 48.5t-78.5 86.5t-38 129.5t10 177.5l115 651q18 98 48.5 170.5t81.5 129.5t130.5 86.5t186.5 29.5q74 0 134.5 -15t110.5 -48.5t78 -86.5t38 -129.5t-9 -177.5l-115 -651q-18 -98 -49 -170.5t-82 -129.5t-130 -86.5t-185 -29.5zM426 141
q51 0 89 18.5t61 54.5t36 75t23 92l123 692q22 125 -23 182.5t-131 57.5q-51 0 -88.5 -18.5t-60.5 -55t-35.5 -74.5t-22.5 -92l-123 -692q-23 -125 21.5 -182.5t130.5 -57.5z" />
    <glyph glyph-name="Oacute" unicode="&#xd3;" horiz-adv-x="956" 
d="M412 -35q-75 0 -135.5 15t-111 48.5t-78.5 86.5t-38 129.5t10 177.5l115 651q18 98 48.5 170.5t81.5 129.5t130.5 86.5t186.5 29.5q74 0 134.5 -15t110.5 -48.5t78 -86.5t38 -129.5t-9 -177.5l-115 -651q-18 -98 -49 -170.5t-82 -129.5t-130 -86.5t-185 -29.5zM426 141
q51 0 89 18.5t61 54.5t36 75t23 92l123 692q22 125 -23 182.5t-131 57.5q-51 0 -88.5 -18.5t-60.5 -55t-35.5 -74.5t-22.5 -92l-123 -692q-23 -125 21.5 -182.5t130.5 -57.5z" />
    <glyph glyph-name="Ocircumflex" unicode="&#xd4;" horiz-adv-x="956" 
d="M412 -35q-75 0 -135.5 15t-111 48.5t-78.5 86.5t-38 129.5t10 177.5l115 651q18 98 48.5 170.5t81.5 129.5t130.5 86.5t186.5 29.5q74 0 134.5 -15t110.5 -48.5t78 -86.5t38 -129.5t-9 -177.5l-115 -651q-18 -98 -49 -170.5t-82 -129.5t-130 -86.5t-185 -29.5zM426 141
q51 0 89 18.5t61 54.5t36 75t23 92l123 692q22 125 -23 182.5t-131 57.5q-51 0 -88.5 -18.5t-60.5 -55t-35.5 -74.5t-22.5 -92l-123 -692q-23 -125 21.5 -182.5t130.5 -57.5z" />
    <glyph glyph-name="Otilde" unicode="&#xd5;" horiz-adv-x="956" 
d="M412 -35q-75 0 -135.5 15t-111 48.5t-78.5 86.5t-38 129.5t10 177.5l115 651q18 98 48.5 170.5t81.5 129.5t130.5 86.5t186.5 29.5q74 0 134.5 -15t110.5 -48.5t78 -86.5t38 -129.5t-9 -177.5l-115 -651q-18 -98 -49 -170.5t-82 -129.5t-130 -86.5t-185 -29.5zM426 141
q51 0 89 18.5t61 54.5t36 75t23 92l123 692q22 125 -23 182.5t-131 57.5q-51 0 -88.5 -18.5t-60.5 -55t-35.5 -74.5t-22.5 -92l-123 -692q-23 -125 21.5 -182.5t130.5 -57.5z" />
    <glyph glyph-name="Odieresis" unicode="&#xd6;" horiz-adv-x="956" 
d="M412 -35q-75 0 -135.5 15t-111 48.5t-78.5 86.5t-38 129.5t10 177.5l115 651q18 98 48.5 170.5t81.5 129.5t130.5 86.5t186.5 29.5q74 0 134.5 -15t110.5 -48.5t78 -86.5t38 -129.5t-9 -177.5l-115 -651q-18 -98 -49 -170.5t-82 -129.5t-130 -86.5t-185 -29.5zM426 141
q51 0 89 18.5t61 54.5t36 75t23 92l123 692q22 125 -23 182.5t-131 57.5q-51 0 -88.5 -18.5t-60.5 -55t-35.5 -74.5t-22.5 -92l-123 -692q-23 -125 21.5 -182.5t130.5 -57.5z" />
    <glyph glyph-name="Oslash" unicode="&#xd8;" horiz-adv-x="956" 
d="M412 -35q-75 0 -135.5 15t-111 48.5t-78.5 86.5t-38 129.5t10 177.5l115 651q18 98 48.5 170.5t81.5 129.5t130.5 86.5t186.5 29.5q74 0 134.5 -15t110.5 -48.5t78 -86.5t38 -129.5t-9 -177.5l-115 -651q-18 -98 -49 -170.5t-82 -129.5t-130 -86.5t-185 -29.5zM426 141
q51 0 89 18.5t61 54.5t36 75t23 92l123 692q22 125 -23 182.5t-131 57.5q-51 0 -88.5 -18.5t-60.5 -55t-35.5 -74.5t-22.5 -92l-123 -692q-23 -125 21.5 -182.5t130.5 -57.5z" />
    <glyph glyph-name="Ugrave" unicode="&#xd9;" horiz-adv-x="960" 
d="M78 358l192 1096h215l-196 -1104q-17 -100 19.5 -150t121.5 -50q87 0 127.5 52t56.5 144l195 1108h213l-199 -1126q-64 -363 -411 -363q-193 0 -280.5 101.5t-53.5 291.5z" />
    <glyph glyph-name="Uacute" unicode="&#xda;" horiz-adv-x="960" 
d="M78 358l192 1096h215l-196 -1104q-17 -100 19.5 -150t121.5 -50q87 0 127.5 52t56.5 144l195 1108h213l-199 -1126q-64 -363 -411 -363q-193 0 -280.5 101.5t-53.5 291.5z" />
    <glyph glyph-name="Ucircumflex" unicode="&#xdb;" horiz-adv-x="960" 
d="M78 358l192 1096h215l-196 -1104q-17 -100 19.5 -150t121.5 -50q87 0 127.5 52t56.5 144l195 1108h213l-199 -1126q-64 -363 -411 -363q-193 0 -280.5 101.5t-53.5 291.5z" />
    <glyph glyph-name="Udieresis" unicode="&#xdc;" horiz-adv-x="960" 
d="M78 358l192 1096h215l-196 -1104q-17 -100 19.5 -150t121.5 -50q87 0 127.5 52t56.5 144l195 1108h213l-199 -1126q-64 -363 -411 -363q-193 0 -280.5 101.5t-53.5 291.5z" />
    <glyph glyph-name="Yacute" unicode="&#xdd;" horiz-adv-x="841" 
d="M438 0h-215l103 582l-152 872h223l62 -514q6 -86 2 -158h6q24 80 59 158l242 514h231l-458 -872z" />
    <glyph glyph-name="Thorn" unicode="&#xde;" horiz-adv-x="860" 
d="M281 1454h313q61 0 112 -9t100 -34t80 -64.5t44.5 -106t1.5 -153.5l-21 -135q-9 -64 -25.5 -115t-48 -99t-75 -80t-110 -51t-150.5 -19h-160l-102 -588h-215zM690 971l21 110q11 52 5.5 89.5t-17 61.5t-35 37.5t-48 19t-55.5 5.5h-94l-96 -546h133q47 0 80.5 16
t53.5 49.5t31 68.5t21 89z" />
    <glyph glyph-name="agrave" unicode="&#xe0;" horiz-adv-x="790" 
d="M205 -25q-107 0 -162 70t-35 197l8 57q20 149 121 225q79 62 219 76l152 14l20 142q21 139 -79 139q-56 0 -82 -28t-37 -97l-15 -86h-204l12 88q21 143 104.5 210t229.5 67q48 0 87.5 -6.5t75 -22t59 -40.5t40 -61.5t17 -86t-8.5 -113.5l-82 -471q-27 -164 -27 -248h-192
q-2 43 12 160q-26 -90 -86 -137.5t-147 -47.5zM303 131q114 0 146 164l36 201l-84 -9q-143 -15 -165 -170l-11 -59q-20 -127 78 -127z" />
    <glyph glyph-name="aacute" unicode="&#xe1;" horiz-adv-x="790" 
d="M205 -25q-107 0 -162 70t-35 197l8 57q20 149 121 225q79 62 219 76l152 14l20 142q21 139 -79 139q-56 0 -82 -28t-37 -97l-15 -86h-204l12 88q21 143 104.5 210t229.5 67q48 0 87.5 -6.5t75 -22t59 -40.5t40 -61.5t17 -86t-8.5 -113.5l-82 -471q-27 -164 -27 -248h-192
q-2 43 12 160q-26 -90 -86 -137.5t-147 -47.5zM303 131q114 0 146 164l36 201l-84 -9q-143 -15 -165 -170l-11 -59q-20 -127 78 -127z" />
    <glyph glyph-name="acircumflex" unicode="&#xe2;" horiz-adv-x="790" 
d="M205 -25q-107 0 -162 70t-35 197l8 57q20 149 121 225q79 62 219 76l152 14l20 142q21 139 -79 139q-56 0 -82 -28t-37 -97l-15 -86h-204l12 88q21 143 104.5 210t229.5 67q48 0 87.5 -6.5t75 -22t59 -40.5t40 -61.5t17 -86t-8.5 -113.5l-82 -471q-27 -164 -27 -248h-192
q-2 43 12 160q-26 -90 -86 -137.5t-147 -47.5zM303 131q114 0 146 164l36 201l-84 -9q-143 -15 -165 -170l-11 -59q-20 -127 78 -127z" />
    <glyph glyph-name="atilde" unicode="&#xe3;" horiz-adv-x="790" 
d="M205 -25q-107 0 -162 70t-35 197l8 57q20 149 121 225q79 62 219 76l152 14l20 142q21 139 -79 139q-56 0 -82 -28t-37 -97l-15 -86h-204l12 88q21 143 104.5 210t229.5 67q48 0 87.5 -6.5t75 -22t59 -40.5t40 -61.5t17 -86t-8.5 -113.5l-82 -471q-27 -164 -27 -248h-192
q-2 43 12 160q-26 -90 -86 -137.5t-147 -47.5zM303 131q114 0 146 164l36 201l-84 -9q-143 -15 -165 -170l-11 -59q-20 -127 78 -127z" />
    <glyph glyph-name="adieresis" unicode="&#xe4;" horiz-adv-x="790" 
d="M205 -25q-107 0 -162 70t-35 197l8 57q20 149 121 225q79 62 219 76l152 14l20 142q21 139 -79 139q-56 0 -82 -28t-37 -97l-15 -86h-204l12 88q21 143 104.5 210t229.5 67q48 0 87.5 -6.5t75 -22t59 -40.5t40 -61.5t17 -86t-8.5 -113.5l-82 -471q-27 -164 -27 -248h-192
q-2 43 12 160q-26 -90 -86 -137.5t-147 -47.5zM303 131q114 0 146 164l36 201l-84 -9q-143 -15 -165 -170l-11 -59q-20 -127 78 -127z" />
    <glyph glyph-name="aring" unicode="&#xe5;" horiz-adv-x="790" 
d="M205 -25q-107 0 -162 70t-35 197l8 57q20 149 121 225q79 62 219 76l152 14l20 142q21 139 -79 139q-56 0 -82 -28t-37 -97l-15 -86h-204l12 88q21 143 104.5 210t229.5 67q48 0 87.5 -6.5t75 -22t59 -40.5t40 -61.5t17 -86t-8.5 -113.5l-82 -471q-27 -164 -27 -248h-192
q-2 43 12 160q-26 -90 -86 -137.5t-147 -47.5zM303 131q114 0 146 164l36 201l-84 -9q-143 -15 -165 -170l-11 -59q-20 -127 78 -127z" />
    <glyph glyph-name="ae" unicode="&#xe6;" horiz-adv-x="1566" 
d="M205 -25q-107 0 -162 70t-35 197l8 57q20 149 121 225q79 62 219 76l152 14l20 142q21 139 -79 139q-56 0 -82 -28t-37 -97l-15 -86h-204l12 88q21 143 104.5 210t229.5 67q48 0 87.5 -6.5t75 -22t59 -40.5t40 -61.5t17 -86t-8.5 -113.5l-82 -471q-27 -164 -27 -248h-192
q-2 43 12 160q-26 -90 -86 -137.5t-147 -47.5zM1253 1049q164 0 236.5 -94t42.5 -257q-15 -91 -39 -217h-432l-29 -155q-31 -187 94 -187q54 0 84.5 35t44.5 109l15 71l196 -30l-16 -74q-25 -123 -105.5 -199t-222.5 -76q-158 0 -242 94t-51 281l62 348q62 351 362 351z
M1329 735q29 174 -86 174q-33 0 -58 -14t-40.5 -40.5t-24.5 -55t-16 -66.5l-23 -127h226q6 43 22 129zM303 131q114 0 146 164l36 201l-84 -9q-143 -15 -165 -170l-11 -59q-20 -127 78 -127z" />
    <glyph glyph-name="ccedilla" unicode="&#xe7;" horiz-adv-x="763" 
d="M330 -25q-163 0 -244 92.5t-49 274.5l59 344q32 182 120.5 272.5t236.5 90.5q353 0 290 -334l-12 -58l-209 -26l15 78q19 104 -5 140t-81 36t-91 -47t-51 -146l-63 -362q-17 -104 9 -147.5t79 -43.5q55 0 83 36.5t44 117.5l20 110l201 -34l-18 -97q-29 -149 -116 -223
t-218 -74z" />
    <glyph glyph-name="egrave" unicode="&#xe8;" horiz-adv-x="776" 
d="M463 1049q164 0 236 -94t42 -257q-15 -91 -39 -217h-432l-28 -155q-31 -187 94 -187q54 0 84.5 35t44.5 109l14 71l197 -30l-17 -74q-25 -123 -105 -199t-222 -76q-158 0 -242 94t-51 281l61 348q62 351 363 351zM539 735q29 174 -86 174q-63 0 -94.5 -48t-45.5 -128
l-22 -127h225q3 22 23 129z" />
    <glyph glyph-name="eacute" unicode="&#xe9;" horiz-adv-x="776" 
d="M463 1049q164 0 236 -94t42 -257q-15 -91 -39 -217h-432l-28 -155q-31 -187 94 -187q54 0 84.5 35t44.5 109l14 71l197 -30l-17 -74q-25 -123 -105 -199t-222 -76q-158 0 -242 94t-51 281l61 348q62 351 363 351zM539 735q29 174 -86 174q-63 0 -94.5 -48t-45.5 -128
l-22 -127h225q3 22 23 129z" />
    <glyph glyph-name="ecircumflex" unicode="&#xea;" horiz-adv-x="776" 
d="M463 1049q164 0 236 -94t42 -257q-15 -91 -39 -217h-432l-28 -155q-31 -187 94 -187q54 0 84.5 35t44.5 109l14 71l197 -30l-17 -74q-25 -123 -105 -199t-222 -76q-158 0 -242 94t-51 281l61 348q62 351 363 351zM539 735q29 174 -86 174q-63 0 -94.5 -48t-45.5 -128
l-22 -127h225q3 22 23 129z" />
    <glyph glyph-name="edieresis" unicode="&#xeb;" horiz-adv-x="776" 
d="M463 1049q164 0 236 -94t42 -257q-15 -91 -39 -217h-432l-28 -155q-31 -187 94 -187q54 0 84.5 35t44.5 109l14 71l197 -30l-17 -74q-25 -123 -105 -199t-222 -76q-158 0 -242 94t-51 281l61 348q62 351 363 351zM539 735q29 174 -86 174q-63 0 -94.5 -48t-45.5 -128
l-22 -127h225q3 22 23 129z" />
    <glyph glyph-name="igrave" unicode="&#xec;" horiz-adv-x="419" 
d="M426 1186h-215l43 244h215zM221 0h-203l181 1024h202z" />
    <glyph glyph-name="iacute" unicode="&#xed;" horiz-adv-x="419" 
d="M426 1186h-215l43 244h215zM221 0h-203l181 1024h202z" />
    <glyph glyph-name="icircumflex" unicode="&#xee;" horiz-adv-x="419" 
d="M426 1186h-215l43 244h215zM221 0h-203l181 1024h202z" />
    <glyph glyph-name="idieresis" unicode="&#xef;" horiz-adv-x="419" 
d="M426 1186h-215l43 244h215zM221 0h-203l181 1024h202z" />
    <glyph glyph-name="ntilde" unicode="&#xf1;" 
d="M223 0h-205l181 1024h194l-28 -168q42 93 95 143t138 50q34 0 64 -9t61 -31t49.5 -69.5t18.5 -114.5q0 -33 -11 -112l-127 -713h-207l127 727q7 44 7 59q0 99 -84 99q-31 0 -55 -14t-40 -35.5t-29.5 -60t-21.5 -73.5t-18 -90z" />
    <glyph glyph-name="ograve" unicode="&#xf2;" horiz-adv-x="794" 
d="M328 -25q-46 0 -86 7.5t-79 25.5t-65.5 48t-46 74t-20.5 104t10 139l53 301q12 65 28 116t45 101.5t68 83.5t98 53.5t134 20.5q46 0 85.5 -7.5t78.5 -25.5t65.5 -48t46 -74t20.5 -104t-11 -139l-54 -301q-11 -65 -27 -116t-44.5 -101.5t-67 -83.5t-97.5 -53.5t-134 -20.5
zM338 135q65 0 97.5 52.5t49.5 152.5l64 354q35 195 -92 195q-67 0 -100 -52.5t-50 -152.5l-61 -354q-35 -195 92 -195z" />
    <glyph glyph-name="oacute" unicode="&#xf3;" horiz-adv-x="794" 
d="M328 -25q-46 0 -86 7.5t-79 25.5t-65.5 48t-46 74t-20.5 104t10 139l53 301q12 65 28 116t45 101.5t68 83.5t98 53.5t134 20.5q46 0 85.5 -7.5t78.5 -25.5t65.5 -48t46 -74t20.5 -104t-11 -139l-54 -301q-11 -65 -27 -116t-44.5 -101.5t-67 -83.5t-97.5 -53.5t-134 -20.5
zM338 135q65 0 97.5 52.5t49.5 152.5l64 354q35 195 -92 195q-67 0 -100 -52.5t-50 -152.5l-61 -354q-35 -195 92 -195z" />
    <glyph glyph-name="ocircumflex" unicode="&#xf4;" horiz-adv-x="794" 
d="M328 -25q-46 0 -86 7.5t-79 25.5t-65.5 48t-46 74t-20.5 104t10 139l53 301q12 65 28 116t45 101.5t68 83.5t98 53.5t134 20.5q46 0 85.5 -7.5t78.5 -25.5t65.5 -48t46 -74t20.5 -104t-11 -139l-54 -301q-11 -65 -27 -116t-44.5 -101.5t-67 -83.5t-97.5 -53.5t-134 -20.5
zM338 135q65 0 97.5 52.5t49.5 152.5l64 354q35 195 -92 195q-67 0 -100 -52.5t-50 -152.5l-61 -354q-35 -195 92 -195z" />
    <glyph glyph-name="otilde" unicode="&#xf5;" horiz-adv-x="794" 
d="M328 -25q-46 0 -86 7.5t-79 25.5t-65.5 48t-46 74t-20.5 104t10 139l53 301q12 65 28 116t45 101.5t68 83.5t98 53.5t134 20.5q46 0 85.5 -7.5t78.5 -25.5t65.5 -48t46 -74t20.5 -104t-11 -139l-54 -301q-11 -65 -27 -116t-44.5 -101.5t-67 -83.5t-97.5 -53.5t-134 -20.5
zM338 135q65 0 97.5 52.5t49.5 152.5l64 354q35 195 -92 195q-67 0 -100 -52.5t-50 -152.5l-61 -354q-35 -195 92 -195z" />
    <glyph glyph-name="odieresis" unicode="&#xf6;" horiz-adv-x="794" 
d="M328 -25q-46 0 -86 7.5t-79 25.5t-65.5 48t-46 74t-20.5 104t10 139l53 301q12 65 28 116t45 101.5t68 83.5t98 53.5t134 20.5q46 0 85.5 -7.5t78.5 -25.5t65.5 -48t46 -74t20.5 -104t-11 -139l-54 -301q-11 -65 -27 -116t-44.5 -101.5t-67 -83.5t-97.5 -53.5t-134 -20.5
zM338 135q65 0 97.5 52.5t49.5 152.5l64 354q35 195 -92 195q-67 0 -100 -52.5t-50 -152.5l-61 -354q-35 -195 92 -195z" />
    <glyph glyph-name="oslash" unicode="&#xf8;" horiz-adv-x="794" 
d="M328 -25q-46 0 -86 7.5t-79 25.5t-65.5 48t-46 74t-20.5 104t10 139l53 301q12 65 28 116t45 101.5t68 83.5t98 53.5t134 20.5q46 0 85.5 -7.5t78.5 -25.5t65.5 -48t46 -74t20.5 -104t-11 -139l-54 -301q-11 -65 -27 -116t-44.5 -101.5t-67 -83.5t-97.5 -53.5t-134 -20.5
zM338 135q65 0 97.5 52.5t49.5 152.5l64 354q35 195 -92 195q-67 0 -100 -52.5t-50 -152.5l-61 -354q-35 -195 92 -195z" />
    <glyph glyph-name="ugrave" unicode="&#xf9;" 
d="M242 -25q-197 0 -197 203q0 37 16 135l123 711h211l-129 -727q-6 -35 -6 -59q0 -95 82 -95q45 0 78 36.5t51.5 91t34.5 139.5l110 614h205l-180 -1024h-197l31 166q-42 -95 -93.5 -143t-139.5 -48z" />
    <glyph glyph-name="uacute" unicode="&#xfa;" 
d="M242 -25q-197 0 -197 203q0 37 16 135l123 711h211l-129 -727q-6 -35 -6 -59q0 -95 82 -95q45 0 78 36.5t51.5 91t34.5 139.5l110 614h205l-180 -1024h-197l31 166q-42 -95 -93.5 -143t-139.5 -48z" />
    <glyph glyph-name="ucircumflex" unicode="&#xfb;" 
d="M242 -25q-197 0 -197 203q0 37 16 135l123 711h211l-129 -727q-6 -35 -6 -59q0 -95 82 -95q45 0 78 36.5t51.5 91t34.5 139.5l110 614h205l-180 -1024h-197l31 166q-42 -95 -93.5 -143t-139.5 -48z" />
    <glyph glyph-name="udieresis" unicode="&#xfc;" 
d="M242 -25q-197 0 -197 203q0 37 16 135l123 711h211l-129 -727q-6 -35 -6 -59q0 -95 82 -95q45 0 78 36.5t51.5 91t34.5 139.5l110 614h205l-180 -1024h-197l31 166q-42 -95 -93.5 -143t-139.5 -48z" />
    <glyph glyph-name="yacute" unicode="&#xfd;" horiz-adv-x="741" 
d="M-6 -410q-59 0 -100 13l30 182q33 -10 74 -10q99 0 141 104l45 115l-84 1030h222l12 -653q0 -83 -15 -185h7q19 83 51 181l227 657h217l-481 -1176q-33 -80 -71 -133t-83 -79.5t-89 -36t-103 -9.5z" />
    <glyph glyph-name="thorn" unicode="&#xfe;" horiz-adv-x="845" 
d="M154 -399h-205l252 1423h194l-30 -152q44 88 99.5 132.5t137.5 44.5q21 0 41 -3t45.5 -13.5t46 -27.5t38.5 -48.5t27.5 -73t9 -104t-14.5 -138.5l-43 -246q-11 -63 -24 -114t-38.5 -110.5t-57.5 -100t-83 -68t-113 -27.5q-77 0 -126 41t-62 117zM367 141q72 0 109 58.5
t54 162.5l54 304q22 120 -4 168.5t-78 48.5q-70 0 -107 -58.5t-57 -162.5l-53 -304q-20 -118 6 -167.5t76 -49.5z" />
    <glyph glyph-name="ydieresis" unicode="&#xff;" horiz-adv-x="741" 
d="M-6 -410q-59 0 -100 13l30 182q33 -10 74 -10q99 0 141 104l45 115l-84 1030h222l12 -653q0 -83 -15 -185h7q19 83 51 181l227 657h217l-481 -1176q-33 -80 -71 -133t-83 -79.5t-89 -36t-103 -9.5z" />
    <glyph glyph-name="Amacron" unicode="&#x100;" horiz-adv-x="907" 
d="M758 1454l35 -1454h-209v387h-291l-133 -387h-228l549 1454h277zM522 1049l-172 -496h234v489q3 132 8 222h-6q-25 -103 -64 -215z" />
    <glyph glyph-name="amacron" unicode="&#x101;" horiz-adv-x="790" 
d="M205 -25q-107 0 -162 70t-35 197l8 57q20 149 121 225q79 62 219 76l152 14l20 142q21 139 -79 139q-56 0 -82 -28t-37 -97l-15 -86h-204l12 88q21 143 104.5 210t229.5 67q48 0 87.5 -6.5t75 -22t59 -40.5t40 -61.5t17 -86t-8.5 -113.5l-82 -471q-27 -164 -27 -248h-192
q-2 43 12 160q-26 -90 -86 -137.5t-147 -47.5zM303 131q114 0 146 164l36 201l-84 -9q-143 -15 -165 -170l-11 -59q-20 -127 78 -127z" />
    <glyph glyph-name="Abreve" unicode="&#x102;" horiz-adv-x="907" 
d="M758 1454l35 -1454h-209v387h-291l-133 -387h-228l549 1454h277zM522 1049l-172 -496h234v489q3 132 8 222h-6q-25 -103 -64 -215z" />
    <glyph glyph-name="abreve" unicode="&#x103;" horiz-adv-x="790" 
d="M205 -25q-107 0 -162 70t-35 197l8 57q20 149 121 225q79 62 219 76l152 14l20 142q21 139 -79 139q-56 0 -82 -28t-37 -97l-15 -86h-204l12 88q21 143 104.5 210t229.5 67q48 0 87.5 -6.5t75 -22t59 -40.5t40 -61.5t17 -86t-8.5 -113.5l-82 -471q-27 -164 -27 -248h-192
q-2 43 12 160q-26 -90 -86 -137.5t-147 -47.5zM303 131q114 0 146 164l36 201l-84 -9q-143 -15 -165 -170l-11 -59q-20 -127 78 -127z" />
    <glyph glyph-name="Aogonek" unicode="&#x104;" horiz-adv-x="907" 
d="M758 1454l35 -1454h-209v387h-291l-133 -387h-228l549 1454h277zM522 1049l-172 -496h234v489q3 132 8 222h-6q-25 -103 -64 -215z" />
    <glyph glyph-name="aogonek" unicode="&#x105;" horiz-adv-x="790" 
d="M205 -25q-107 0 -162 70t-35 197l8 57q20 149 121 225q79 62 219 76l152 14l20 142q21 139 -79 139q-56 0 -82 -28t-37 -97l-15 -86h-204l12 88q21 143 104.5 210t229.5 67q48 0 87.5 -6.5t75 -22t59 -40.5t40 -61.5t17 -86t-8.5 -113.5l-82 -471q-27 -164 -27 -248h-192
q-2 43 12 160q-26 -90 -86 -137.5t-147 -47.5zM303 131q114 0 146 164l36 201l-84 -9q-143 -15 -165 -170l-11 -59q-20 -127 78 -127z" />
    <glyph glyph-name="Cacute" unicode="&#x106;" horiz-adv-x="915" 
d="M401 -35q-72 0 -130.5 15.5t-107.5 49.5t-75.5 89.5t-36 136t11.5 188.5l113 648q11 64 28.5 117t50 106.5t77 90.5t112 60t152.5 23q417 0 344 -414l-18 -100l-230 -47l29 166q40 219 -127 219q-41 0 -73.5 -14t-52 -34.5t-34 -53t-22 -60t-13.5 -64.5l-118 -675
q-26 -144 12 -206.5t117 -62.5q85 0 123.5 52t58.5 155l37 205l211 -49l-31 -170q-14 -83 -40 -145.5t-72 -116t-120.5 -81.5t-175.5 -28z" />
    <glyph glyph-name="cacute" unicode="&#x107;" horiz-adv-x="763" 
d="M330 -25q-163 0 -244 92.5t-49 274.5l59 344q32 182 120.5 272.5t236.5 90.5q353 0 290 -334l-12 -58l-209 -26l15 78q19 104 -5 140t-81 36t-91 -47t-51 -146l-63 -362q-17 -104 9 -147.5t79 -43.5q55 0 83 36.5t44 117.5l20 110l201 -34l-18 -97q-29 -149 -116 -223
t-218 -74z" />
    <glyph glyph-name="Ccircumflex" unicode="&#x108;" horiz-adv-x="915" 
d="M401 -35q-72 0 -130.5 15.5t-107.5 49.5t-75.5 89.5t-36 136t11.5 188.5l113 648q11 64 28.5 117t50 106.5t77 90.5t112 60t152.5 23q417 0 344 -414l-18 -100l-230 -47l29 166q40 219 -127 219q-41 0 -73.5 -14t-52 -34.5t-34 -53t-22 -60t-13.5 -64.5l-118 -675
q-26 -144 12 -206.5t117 -62.5q85 0 123.5 52t58.5 155l37 205l211 -49l-31 -170q-14 -83 -40 -145.5t-72 -116t-120.5 -81.5t-175.5 -28z" />
    <glyph glyph-name="ccircumflex" unicode="&#x109;" horiz-adv-x="763" 
d="M330 -25q-163 0 -244 92.5t-49 274.5l59 344q32 182 120.5 272.5t236.5 90.5q353 0 290 -334l-12 -58l-209 -26l15 78q19 104 -5 140t-81 36t-91 -47t-51 -146l-63 -362q-17 -104 9 -147.5t79 -43.5q55 0 83 36.5t44 117.5l20 110l201 -34l-18 -97q-29 -149 -116 -223
t-218 -74z" />
    <glyph glyph-name="Cdotaccent" unicode="&#x10a;" horiz-adv-x="915" 
d="M401 -35q-72 0 -130.5 15.5t-107.5 49.5t-75.5 89.5t-36 136t11.5 188.5l113 648q11 64 28.5 117t50 106.5t77 90.5t112 60t152.5 23q417 0 344 -414l-18 -100l-230 -47l29 166q40 219 -127 219q-41 0 -73.5 -14t-52 -34.5t-34 -53t-22 -60t-13.5 -64.5l-118 -675
q-26 -144 12 -206.5t117 -62.5q85 0 123.5 52t58.5 155l37 205l211 -49l-31 -170q-14 -83 -40 -145.5t-72 -116t-120.5 -81.5t-175.5 -28z" />
    <glyph glyph-name="cdotaccent" unicode="&#x10b;" horiz-adv-x="763" 
d="M330 -25q-163 0 -244 92.5t-49 274.5l59 344q32 182 120.5 272.5t236.5 90.5q353 0 290 -334l-12 -58l-209 -26l15 78q19 104 -5 140t-81 36t-91 -47t-51 -146l-63 -362q-17 -104 9 -147.5t79 -43.5q55 0 83 36.5t44 117.5l20 110l201 -34l-18 -97q-29 -149 -116 -223
t-218 -74z" />
    <glyph glyph-name="Ccaron" unicode="&#x10c;" horiz-adv-x="915" 
d="M401 -35q-72 0 -130.5 15.5t-107.5 49.5t-75.5 89.5t-36 136t11.5 188.5l113 648q11 64 28.5 117t50 106.5t77 90.5t112 60t152.5 23q417 0 344 -414l-18 -100l-230 -47l29 166q40 219 -127 219q-41 0 -73.5 -14t-52 -34.5t-34 -53t-22 -60t-13.5 -64.5l-118 -675
q-26 -144 12 -206.5t117 -62.5q85 0 123.5 52t58.5 155l37 205l211 -49l-31 -170q-14 -83 -40 -145.5t-72 -116t-120.5 -81.5t-175.5 -28z" />
    <glyph glyph-name="ccaron" unicode="&#x10d;" horiz-adv-x="763" 
d="M330 -25q-163 0 -244 92.5t-49 274.5l59 344q32 182 120.5 272.5t236.5 90.5q353 0 290 -334l-12 -58l-209 -26l15 78q19 104 -5 140t-81 36t-91 -47t-51 -146l-63 -362q-17 -104 9 -147.5t79 -43.5q55 0 83 36.5t44 117.5l20 110l201 -34l-18 -97q-29 -149 -116 -223
t-218 -74z" />
    <glyph glyph-name="Dcaron" unicode="&#x10e;" horiz-adv-x="966" 
d="M360 0h-335l256 1454h309q227 0 322.5 -135t41.5 -434l-59 -357q-27 -157 -72.5 -261t-114.5 -162.5t-151 -81.5t-197 -23zM467 1290l-199 -1124h109q64 0 106.5 14t79.5 51.5t62 106t45 176.5l63 363q38 219 -2 316t-162 97h-102z" />
    <glyph glyph-name="dcaron" unicode="&#x10f;" horiz-adv-x="843" 
d="M242 -25q-50 0 -91 21t-73 68.5t-39 124.5t10 188l47 268q15 84 37.5 150t58.5 126.5t92.5 94t129.5 33.5q81 0 127 -42.5t55 -121.5l104 600h207l-262 -1485h-194l24 143q-91 -168 -233 -168zM350 141q61 0 99 58t59 172l51 286q23 120 -4 173t-84 53q-39 0 -68.5 -19.5
t-47 -56.5t-27 -70t-17.5 -80l-51 -290q-22 -126 7.5 -176t82.5 -50z" />
    <glyph glyph-name="Dcroat" unicode="&#x110;" horiz-adv-x="966" 
d="M360 0h-335l256 1454h309q227 0 322.5 -135t41.5 -434l-59 -357q-27 -157 -72.5 -261t-114.5 -162.5t-151 -81.5t-197 -23zM467 1290l-199 -1124h109q64 0 106.5 14t79.5 51.5t62 106t45 176.5l63 363q38 219 -2 316t-162 97h-102z" />
    <glyph glyph-name="dcroat" unicode="&#x111;" horiz-adv-x="843" 
d="M242 -25q-50 0 -91 21t-73 68.5t-39 124.5t10 188l47 268q15 84 37.5 150t58.5 126.5t92.5 94t129.5 33.5q81 0 127 -42.5t55 -121.5l104 600h207l-262 -1485h-194l24 143q-91 -168 -233 -168zM350 141q61 0 99 58t59 172l51 286q23 120 -4 173t-84 53q-39 0 -68.5 -19.5
t-47 -56.5t-27 -70t-17.5 -80l-51 -290q-22 -126 7.5 -176t82.5 -50z" />
    <glyph glyph-name="Emacron" unicode="&#x112;" horiz-adv-x="774" 
d="M885 1454l-31 -176h-389l-78 -440h358l-32 -176h-357l-86 -486h404l-31 -176h-618l256 1454h604z" />
    <glyph glyph-name="emacron" unicode="&#x113;" horiz-adv-x="776" 
d="M463 1049q164 0 236 -94t42 -257q-15 -91 -39 -217h-432l-28 -155q-31 -187 94 -187q54 0 84.5 35t44.5 109l14 71l197 -30l-17 -74q-25 -123 -105 -199t-222 -76q-158 0 -242 94t-51 281l61 348q62 351 363 351zM539 735q29 174 -86 174q-63 0 -94.5 -48t-45.5 -128
l-22 -127h225q3 22 23 129z" />
    <glyph glyph-name="Ebreve" unicode="&#x114;" horiz-adv-x="774" 
d="M885 1454l-31 -176h-389l-78 -440h358l-32 -176h-357l-86 -486h404l-31 -176h-618l256 1454h604z" />
    <glyph glyph-name="ebreve" unicode="&#x115;" horiz-adv-x="776" 
d="M463 1049q164 0 236 -94t42 -257q-15 -91 -39 -217h-432l-28 -155q-31 -187 94 -187q54 0 84.5 35t44.5 109l14 71l197 -30l-17 -74q-25 -123 -105 -199t-222 -76q-158 0 -242 94t-51 281l61 348q62 351 363 351zM539 735q29 174 -86 174q-63 0 -94.5 -48t-45.5 -128
l-22 -127h225q3 22 23 129z" />
    <glyph glyph-name="Edotaccent" unicode="&#x116;" horiz-adv-x="774" 
d="M885 1454l-31 -176h-389l-78 -440h358l-32 -176h-357l-86 -486h404l-31 -176h-618l256 1454h604z" />
    <glyph glyph-name="edotaccent" unicode="&#x117;" horiz-adv-x="776" 
d="M463 1049q164 0 236 -94t42 -257q-15 -91 -39 -217h-432l-28 -155q-31 -187 94 -187q54 0 84.5 35t44.5 109l14 71l197 -30l-17 -74q-25 -123 -105 -199t-222 -76q-158 0 -242 94t-51 281l61 348q62 351 363 351zM539 735q29 174 -86 174q-63 0 -94.5 -48t-45.5 -128
l-22 -127h225q3 22 23 129z" />
    <glyph glyph-name="Eogonek" unicode="&#x118;" horiz-adv-x="774" 
d="M885 1454l-31 -176h-389l-78 -440h358l-32 -176h-357l-86 -486h404l-31 -176h-618l256 1454h604z" />
    <glyph glyph-name="eogonek" unicode="&#x119;" horiz-adv-x="776" 
d="M463 1049q164 0 236 -94t42 -257q-15 -91 -39 -217h-432l-28 -155q-31 -187 94 -187q54 0 84.5 35t44.5 109l14 71l197 -30l-17 -74q-25 -123 -105 -199t-222 -76q-158 0 -242 94t-51 281l61 348q62 351 363 351zM539 735q29 174 -86 174q-63 0 -94.5 -48t-45.5 -128
l-22 -127h225q3 22 23 129z" />
    <glyph glyph-name="Ecaron" unicode="&#x11a;" horiz-adv-x="774" 
d="M885 1454l-31 -176h-389l-78 -440h358l-32 -176h-357l-86 -486h404l-31 -176h-618l256 1454h604z" />
    <glyph glyph-name="ecaron" unicode="&#x11b;" horiz-adv-x="776" 
d="M463 1049q164 0 236 -94t42 -257q-15 -91 -39 -217h-432l-28 -155q-31 -187 94 -187q54 0 84.5 35t44.5 109l14 71l197 -30l-17 -74q-25 -123 -105 -199t-222 -76q-158 0 -242 94t-51 281l61 348q62 351 363 351zM539 735q29 174 -86 174q-63 0 -94.5 -48t-45.5 -128
l-22 -127h225q3 22 23 129z" />
    <glyph glyph-name="Gcircumflex" unicode="&#x11c;" horiz-adv-x="933" 
d="M322 -35q-56 0 -101.5 15t-84.5 49.5t-59.5 91t-26.5 140.5t16 198l112 633q33 183 140.5 290t297.5 107q82 0 147 -21t115 -69.5t65.5 -127t-1.5 -192.5l-12 -69l-230 -43l21 129q19 117 -16.5 169t-108.5 52q-83 0 -130.5 -57t-62.5 -146l-118 -678q-13 -70 -13 -122.5
t9.5 -85t28.5 -52.5t41.5 -27.5t51.5 -7.5q95 0 145.5 71t74.5 202l32 192h-198l28 172h404l-137 -778h-156l20 190q-74 -225 -294 -225z" />
    <glyph glyph-name="gcircumflex" unicode="&#x11d;" horiz-adv-x="741" 
d="M786 1192q44 0 66 -12l-29 -166q-38 14 -84 14q-70 0 -102 -43q100 -83 65 -256l-18 -98q-9 -51 -24 -92.5t-40.5 -81t-60.5 -66t-87 -43t-116 -16.5q-56 0 -106 12q-55 -16 -55 -61q0 -28 18 -42.5t61 -27.5l142 -43q113 -37 163.5 -103.5t41.5 -170.5l-5 -31
q-6 -57 -28.5 -106t-65 -91.5t-116 -67t-170.5 -24.5q-77 0 -139 15t-109 45.5t-68 83.5t-10 124l4 15q21 148 190 196q-88 47 -88 140q0 127 166 178q-135 74 -98 276l18 101q12 64 33 113.5t57.5 93.5t97 68t140.5 24q89 0 154 -29q48 172 202 172zM485 608l31 166
q7 43 0.5 73.5t-24 44t-33.5 18.5t-35 5q-100 0 -125 -143l-29 -166q-12 -80 16.5 -111.5t73.5 -31.5q104 0 125 145zM324 -12l-144 39q-30 -20 -45.5 -54.5t-23.5 -93.5l-2 -18q-9 -74 29.5 -109t115.5 -35q84 0 124.5 34.5t47.5 84.5l2 23q10 92 -104 129z" />
    <glyph glyph-name="Gbreve" unicode="&#x11e;" horiz-adv-x="933" 
d="M322 -35q-56 0 -101.5 15t-84.5 49.5t-59.5 91t-26.5 140.5t16 198l112 633q33 183 140.5 290t297.5 107q82 0 147 -21t115 -69.5t65.5 -127t-1.5 -192.5l-12 -69l-230 -43l21 129q19 117 -16.5 169t-108.5 52q-83 0 -130.5 -57t-62.5 -146l-118 -678q-13 -70 -13 -122.5
t9.5 -85t28.5 -52.5t41.5 -27.5t51.5 -7.5q95 0 145.5 71t74.5 202l32 192h-198l28 172h404l-137 -778h-156l20 190q-74 -225 -294 -225z" />
    <glyph glyph-name="gbreve" unicode="&#x11f;" horiz-adv-x="741" 
d="M786 1192q44 0 66 -12l-29 -166q-38 14 -84 14q-70 0 -102 -43q100 -83 65 -256l-18 -98q-9 -51 -24 -92.5t-40.5 -81t-60.5 -66t-87 -43t-116 -16.5q-56 0 -106 12q-55 -16 -55 -61q0 -28 18 -42.5t61 -27.5l142 -43q113 -37 163.5 -103.5t41.5 -170.5l-5 -31
q-6 -57 -28.5 -106t-65 -91.5t-116 -67t-170.5 -24.5q-77 0 -139 15t-109 45.5t-68 83.5t-10 124l4 15q21 148 190 196q-88 47 -88 140q0 127 166 178q-135 74 -98 276l18 101q12 64 33 113.5t57.5 93.5t97 68t140.5 24q89 0 154 -29q48 172 202 172zM485 608l31 166
q7 43 0.5 73.5t-24 44t-33.5 18.5t-35 5q-100 0 -125 -143l-29 -166q-12 -80 16.5 -111.5t73.5 -31.5q104 0 125 145zM324 -12l-144 39q-30 -20 -45.5 -54.5t-23.5 -93.5l-2 -18q-9 -74 29.5 -109t115.5 -35q84 0 124.5 34.5t47.5 84.5l2 23q10 92 -104 129z" />
    <glyph glyph-name="Gdotaccent" unicode="&#x120;" horiz-adv-x="933" 
d="M322 -35q-56 0 -101.5 15t-84.5 49.5t-59.5 91t-26.5 140.5t16 198l112 633q33 183 140.5 290t297.5 107q82 0 147 -21t115 -69.5t65.5 -127t-1.5 -192.5l-12 -69l-230 -43l21 129q19 117 -16.5 169t-108.5 52q-83 0 -130.5 -57t-62.5 -146l-118 -678q-13 -70 -13 -122.5
t9.5 -85t28.5 -52.5t41.5 -27.5t51.5 -7.5q95 0 145.5 71t74.5 202l32 192h-198l28 172h404l-137 -778h-156l20 190q-74 -225 -294 -225z" />
    <glyph glyph-name="gdotaccent" unicode="&#x121;" horiz-adv-x="741" 
d="M786 1192q44 0 66 -12l-29 -166q-38 14 -84 14q-70 0 -102 -43q100 -83 65 -256l-18 -98q-9 -51 -24 -92.5t-40.5 -81t-60.5 -66t-87 -43t-116 -16.5q-56 0 -106 12q-55 -16 -55 -61q0 -28 18 -42.5t61 -27.5l142 -43q113 -37 163.5 -103.5t41.5 -170.5l-5 -31
q-6 -57 -28.5 -106t-65 -91.5t-116 -67t-170.5 -24.5q-77 0 -139 15t-109 45.5t-68 83.5t-10 124l4 15q21 148 190 196q-88 47 -88 140q0 127 166 178q-135 74 -98 276l18 101q12 64 33 113.5t57.5 93.5t97 68t140.5 24q89 0 154 -29q48 172 202 172zM485 608l31 166
q7 43 0.5 73.5t-24 44t-33.5 18.5t-35 5q-100 0 -125 -143l-29 -166q-12 -80 16.5 -111.5t73.5 -31.5q104 0 125 145zM324 -12l-144 39q-30 -20 -45.5 -54.5t-23.5 -93.5l-2 -18q-9 -74 29.5 -109t115.5 -35q84 0 124.5 34.5t47.5 84.5l2 23q10 92 -104 129z" />
    <glyph glyph-name="uni0122" unicode="&#x122;" horiz-adv-x="933" 
d="M322 -35q-56 0 -101.5 15t-84.5 49.5t-59.5 91t-26.5 140.5t16 198l112 633q33 183 140.5 290t297.5 107q82 0 147 -21t115 -69.5t65.5 -127t-1.5 -192.5l-12 -69l-230 -43l21 129q19 117 -16.5 169t-108.5 52q-83 0 -130.5 -57t-62.5 -146l-118 -678q-13 -70 -13 -122.5
t9.5 -85t28.5 -52.5t41.5 -27.5t51.5 -7.5q95 0 145.5 71t74.5 202l32 192h-198l28 172h404l-137 -778h-156l20 190q-74 -225 -294 -225z" />
    <glyph glyph-name="uni0123" unicode="&#x123;" horiz-adv-x="741" 
d="M786 1192q44 0 66 -12l-29 -166q-38 14 -84 14q-70 0 -102 -43q100 -83 65 -256l-18 -98q-9 -51 -24 -92.5t-40.5 -81t-60.5 -66t-87 -43t-116 -16.5q-56 0 -106 12q-55 -16 -55 -61q0 -28 18 -42.5t61 -27.5l142 -43q113 -37 163.5 -103.5t41.5 -170.5l-5 -31
q-6 -57 -28.5 -106t-65 -91.5t-116 -67t-170.5 -24.5q-77 0 -139 15t-109 45.5t-68 83.5t-10 124l4 15q21 148 190 196q-88 47 -88 140q0 127 166 178q-135 74 -98 276l18 101q12 64 33 113.5t57.5 93.5t97 68t140.5 24q89 0 154 -29q48 172 202 172zM485 608l31 166
q7 43 0.5 73.5t-24 44t-33.5 18.5t-35 5q-100 0 -125 -143l-29 -166q-12 -80 16.5 -111.5t73.5 -31.5q104 0 125 145zM324 -12l-144 39q-30 -20 -45.5 -54.5t-23.5 -93.5l-2 -18q-9 -74 29.5 -109t115.5 -35q84 0 124.5 34.5t47.5 84.5l2 23q10 92 -104 129z" />
    <glyph glyph-name="Hcircumflex" unicode="&#x124;" horiz-adv-x="985" 
d="M821 1454h215l-256 -1454h-215l117 662h-326l-116 -662h-215l256 1454h215l-111 -625h328z" />
    <glyph glyph-name="hcircumflex" unicode="&#x125;" horiz-adv-x="841" 
d="M223 0h-205l263 1485h204l-110 -629q35 91 91.5 142t145.5 51q37 0 68 -9.5t58.5 -30.5t43 -60t15.5 -93q0 -44 -15 -141l-129 -715h-207l123 705q13 67 13 96q0 84 -82 84q-70 0 -106 -65t-60 -202z" />
    <glyph glyph-name="Hbar" unicode="&#x126;" horiz-adv-x="985" 
d="M821 1454h215l-256 -1454h-215l117 662h-326l-116 -662h-215l256 1454h215l-111 -625h328z" />
    <glyph glyph-name="hbar" unicode="&#x127;" horiz-adv-x="841" 
d="M223 0h-205l263 1485h204l-110 -629q35 91 91.5 142t145.5 51q37 0 68 -9.5t58.5 -30.5t43 -60t15.5 -93q0 -44 -15 -141l-129 -715h-207l123 705q13 67 13 96q0 84 -82 84q-70 0 -106 -65t-60 -202z" />
    <glyph glyph-name="Itilde" unicode="&#x128;" horiz-adv-x="442" 
d="M496 1454l-256 -1454h-215l256 1454h215z" />
    <glyph glyph-name="itilde" unicode="&#x129;" horiz-adv-x="419" 
d="M426 1186h-215l43 244h215zM221 0h-203l181 1024h202z" />
    <glyph glyph-name="Imacron" unicode="&#x12a;" horiz-adv-x="442" 
d="M496 1454l-256 -1454h-215l256 1454h215z" />
    <glyph glyph-name="imacron" unicode="&#x12b;" horiz-adv-x="419" 
d="M426 1186h-215l43 244h215zM221 0h-203l181 1024h202z" />
    <glyph glyph-name="Ibreve" unicode="&#x12c;" horiz-adv-x="442" 
d="M496 1454l-256 -1454h-215l256 1454h215z" />
    <glyph glyph-name="ibreve" unicode="&#x12d;" horiz-adv-x="419" 
d="M426 1186h-215l43 244h215zM221 0h-203l181 1024h202z" />
    <glyph glyph-name="Iogonek" unicode="&#x12e;" horiz-adv-x="442" 
d="M496 1454l-256 -1454h-215l256 1454h215z" />
    <glyph glyph-name="iogonek" unicode="&#x12f;" horiz-adv-x="419" 
d="M426 1186h-215l43 244h215zM221 0h-203l181 1024h202z" />
    <glyph glyph-name="Idotaccent" unicode="&#x130;" horiz-adv-x="442" 
d="M496 1454l-256 -1454h-215l256 1454h215z" />
    <glyph glyph-name="dotlessi" unicode="&#x131;" horiz-adv-x="419" 
d="M426 1186h-215l43 244h215zM221 0h-203l181 1024h202z" />
    <glyph glyph-name="IJ" unicode="&#x132;" horiz-adv-x="1001" 
d="M496 1454l-256 -1454h-215l256 1454h215zM1063 1454l-207 -1184q-52 -295 -328 -295q-96 0 -161 25l34 193q52 -19 105 -19q64 0 97 35t44 108l201 1137h215z" />
    <glyph glyph-name="ij" unicode="&#x133;" horiz-adv-x="847" 
d="M426 1186h-215l43 244h215zM856 1186h-215l43 244h215zM221 0h-203l181 1024h202zM367 -414q-66 0 -119 17l33 174q30 -10 53 -10q42 0 61 21t27 65l203 1171h204l-211 -1210q-9 -51 -25.5 -89t-44.5 -71t-73.5 -50.5t-107.5 -17.5z" />
    <glyph glyph-name="Jcircumflex" unicode="&#x134;" horiz-adv-x="559" 
d="M621 1454l-207 -1184q-52 -295 -328 -295q-97 0 -162 25l35 193q52 -19 104 -19q64 0 97.5 35t44.5 108l201 1137h215z" />
    <glyph glyph-name="jcircumflex" unicode="&#x135;" horiz-adv-x="421" 
d="M430 1186h-215l43 244h215zM-59 -414q-66 0 -119 17l33 174q30 -10 53 -10q42 0 61 21t27 65l203 1171h204l-210 -1210q-9 -50 -25.5 -88.5t-45 -71.5t-74 -50.5t-107.5 -17.5z" />
    <glyph glyph-name="uni0136" unicode="&#x136;" horiz-adv-x="923" 
d="M827 1454h228l-377 -565l131 -889h-221l-90 729l-176 -260l-82 -469h-215l256 1454h215l-127 -725z" />
    <glyph glyph-name="uni0137" unicode="&#x137;" horiz-adv-x="817" 
d="M659 1024h224l-310 -393l134 -631h-211l-82 500l-135 -189l-56 -311h-205l263 1485h204l-163 -928z" />
    <glyph glyph-name="kgreenlandic" unicode="&#x138;" horiz-adv-x="817" 
d="M659 1024h224l-310 -393l134 -631h-211l-82 500l-135 -189l-56 -311h-205l263 1485h204l-163 -928z" />
    <glyph glyph-name="Lacute" unicode="&#x139;" horiz-adv-x="722" 
d="M608 0h-583l256 1454h215l-224 -1259h369z" />
    <glyph glyph-name="lacute" unicode="&#x13a;" horiz-adv-x="421" 
d="M281 1485h204l-262 -1485h-205z" />
    <glyph glyph-name="uni013B" unicode="&#x13b;" horiz-adv-x="722" 
d="M608 0h-583l256 1454h215l-224 -1259h369z" />
    <glyph glyph-name="uni013C" unicode="&#x13c;" horiz-adv-x="421" 
d="M281 1485h204l-262 -1485h-205z" />
    <glyph glyph-name="Lcaron" unicode="&#x13d;" horiz-adv-x="722" 
d="M608 0h-583l256 1454h215l-224 -1259h369z" />
    <glyph glyph-name="lcaron" unicode="&#x13e;" horiz-adv-x="421" 
d="M281 1485h204l-262 -1485h-205z" />
    <glyph glyph-name="Ldot" unicode="&#x13f;" horiz-adv-x="722" 
d="M608 0h-583l256 1454h215l-224 -1259h369z" />
    <glyph glyph-name="ldot" unicode="&#x140;" horiz-adv-x="421" 
d="M281 1485h204l-262 -1485h-205z" />
    <glyph glyph-name="Lslash" unicode="&#x141;" horiz-adv-x="722" 
d="M608 0h-583l256 1454h215l-224 -1259h369z" />
    <glyph glyph-name="lslash" unicode="&#x142;" horiz-adv-x="421" 
d="M281 1485h204l-262 -1485h-205z" />
    <glyph glyph-name="Nacute" unicode="&#x143;" horiz-adv-x="1009" 
d="M219 0h-194l256 1454h235l143 -848q22 -128 25 -239h4q17 170 47 352l131 735h195l-256 -1454h-217l-152 891q-23 138 -26 239h-7q-16 -191 -32 -282z" />
    <glyph glyph-name="nacute" unicode="&#x144;" 
d="M223 0h-205l181 1024h194l-28 -168q42 93 95 143t138 50q34 0 64 -9t61 -31t49.5 -69.5t18.5 -114.5q0 -33 -11 -112l-127 -713h-207l127 727q7 44 7 59q0 99 -84 99q-31 0 -55 -14t-40 -35.5t-29.5 -60t-21.5 -73.5t-18 -90z" />
    <glyph glyph-name="uni0145" unicode="&#x145;" horiz-adv-x="1009" 
d="M219 0h-194l256 1454h235l143 -848q22 -128 25 -239h4q17 170 47 352l131 735h195l-256 -1454h-217l-152 891q-23 138 -26 239h-7q-16 -191 -32 -282z" />
    <glyph glyph-name="uni0146" unicode="&#x146;" 
d="M223 0h-205l181 1024h194l-28 -168q42 93 95 143t138 50q34 0 64 -9t61 -31t49.5 -69.5t18.5 -114.5q0 -33 -11 -112l-127 -713h-207l127 727q7 44 7 59q0 99 -84 99q-31 0 -55 -14t-40 -35.5t-29.5 -60t-21.5 -73.5t-18 -90z" />
    <glyph glyph-name="Ncaron" unicode="&#x147;" horiz-adv-x="1009" 
d="M219 0h-194l256 1454h235l143 -848q22 -128 25 -239h4q17 170 47 352l131 735h195l-256 -1454h-217l-152 891q-23 138 -26 239h-7q-16 -191 -32 -282z" />
    <glyph glyph-name="ncaron" unicode="&#x148;" 
d="M223 0h-205l181 1024h194l-28 -168q42 93 95 143t138 50q34 0 64 -9t61 -31t49.5 -69.5t18.5 -114.5q0 -33 -11 -112l-127 -713h-207l127 727q7 44 7 59q0 99 -84 99q-31 0 -55 -14t-40 -35.5t-29.5 -60t-21.5 -73.5t-18 -90z" />
    <glyph glyph-name="napostrophe" unicode="&#x149;" 
d="M223 0h-205l181 1024h194l-28 -168q42 93 95 143t138 50q34 0 64 -9t61 -31t49.5 -69.5t18.5 -114.5q0 -33 -11 -112l-127 -713h-207l127 727q7 44 7 59q0 99 -84 99q-31 0 -55 -14t-40 -35.5t-29.5 -60t-21.5 -73.5t-18 -90z" />
    <glyph glyph-name="Eng" unicode="&#x14a;" horiz-adv-x="1009" 
d="M219 0h-194l256 1454h235l143 -848q22 -128 25 -239h4q17 170 47 352l131 735h195l-256 -1454h-217l-152 891q-23 138 -26 239h-7q-16 -191 -32 -282z" />
    <glyph glyph-name="eng" unicode="&#x14b;" 
d="M223 0h-205l181 1024h194l-28 -168q42 93 95 143t138 50q34 0 64 -9t61 -31t49.5 -69.5t18.5 -114.5q0 -33 -11 -112l-127 -713h-207l127 727q7 44 7 59q0 99 -84 99q-31 0 -55 -14t-40 -35.5t-29.5 -60t-21.5 -73.5t-18 -90z" />
    <glyph glyph-name="Omacron" unicode="&#x14c;" horiz-adv-x="956" 
d="M412 -35q-75 0 -135.5 15t-111 48.5t-78.5 86.5t-38 129.5t10 177.5l115 651q18 98 48.5 170.5t81.5 129.5t130.5 86.5t186.5 29.5q74 0 134.5 -15t110.5 -48.5t78 -86.5t38 -129.5t-9 -177.5l-115 -651q-18 -98 -49 -170.5t-82 -129.5t-130 -86.5t-185 -29.5zM426 141
q51 0 89 18.5t61 54.5t36 75t23 92l123 692q22 125 -23 182.5t-131 57.5q-51 0 -88.5 -18.5t-60.5 -55t-35.5 -74.5t-22.5 -92l-123 -692q-23 -125 21.5 -182.5t130.5 -57.5z" />
    <glyph glyph-name="omacron" unicode="&#x14d;" horiz-adv-x="794" 
d="M328 -25q-46 0 -86 7.5t-79 25.5t-65.5 48t-46 74t-20.5 104t10 139l53 301q12 65 28 116t45 101.5t68 83.5t98 53.5t134 20.5q46 0 85.5 -7.5t78.5 -25.5t65.5 -48t46 -74t20.5 -104t-11 -139l-54 -301q-11 -65 -27 -116t-44.5 -101.5t-67 -83.5t-97.5 -53.5t-134 -20.5
zM338 135q65 0 97.5 52.5t49.5 152.5l64 354q35 195 -92 195q-67 0 -100 -52.5t-50 -152.5l-61 -354q-35 -195 92 -195z" />
    <glyph glyph-name="Obreve" unicode="&#x14e;" horiz-adv-x="956" 
d="M412 -35q-75 0 -135.5 15t-111 48.5t-78.5 86.5t-38 129.5t10 177.5l115 651q18 98 48.5 170.5t81.5 129.5t130.5 86.5t186.5 29.5q74 0 134.5 -15t110.5 -48.5t78 -86.5t38 -129.5t-9 -177.5l-115 -651q-18 -98 -49 -170.5t-82 -129.5t-130 -86.5t-185 -29.5zM426 141
q51 0 89 18.5t61 54.5t36 75t23 92l123 692q22 125 -23 182.5t-131 57.5q-51 0 -88.5 -18.5t-60.5 -55t-35.5 -74.5t-22.5 -92l-123 -692q-23 -125 21.5 -182.5t130.5 -57.5z" />
    <glyph glyph-name="obreve" unicode="&#x14f;" horiz-adv-x="794" 
d="M328 -25q-46 0 -86 7.5t-79 25.5t-65.5 48t-46 74t-20.5 104t10 139l53 301q12 65 28 116t45 101.5t68 83.5t98 53.5t134 20.5q46 0 85.5 -7.5t78.5 -25.5t65.5 -48t46 -74t20.5 -104t-11 -139l-54 -301q-11 -65 -27 -116t-44.5 -101.5t-67 -83.5t-97.5 -53.5t-134 -20.5
zM338 135q65 0 97.5 52.5t49.5 152.5l64 354q35 195 -92 195q-67 0 -100 -52.5t-50 -152.5l-61 -354q-35 -195 92 -195z" />
    <glyph glyph-name="Ohungarumlaut" unicode="&#x150;" horiz-adv-x="956" 
d="M412 -35q-75 0 -135.5 15t-111 48.5t-78.5 86.5t-38 129.5t10 177.5l115 651q18 98 48.5 170.5t81.5 129.5t130.5 86.5t186.5 29.5q74 0 134.5 -15t110.5 -48.5t78 -86.5t38 -129.5t-9 -177.5l-115 -651q-18 -98 -49 -170.5t-82 -129.5t-130 -86.5t-185 -29.5zM426 141
q51 0 89 18.5t61 54.5t36 75t23 92l123 692q22 125 -23 182.5t-131 57.5q-51 0 -88.5 -18.5t-60.5 -55t-35.5 -74.5t-22.5 -92l-123 -692q-23 -125 21.5 -182.5t130.5 -57.5z" />
    <glyph glyph-name="ohungarumlaut" unicode="&#x151;" horiz-adv-x="794" 
d="M328 -25q-46 0 -86 7.5t-79 25.5t-65.5 48t-46 74t-20.5 104t10 139l53 301q12 65 28 116t45 101.5t68 83.5t98 53.5t134 20.5q46 0 85.5 -7.5t78.5 -25.5t65.5 -48t46 -74t20.5 -104t-11 -139l-54 -301q-11 -65 -27 -116t-44.5 -101.5t-67 -83.5t-97.5 -53.5t-134 -20.5
zM338 135q65 0 97.5 52.5t49.5 152.5l64 354q35 195 -92 195q-67 0 -100 -52.5t-50 -152.5l-61 -354q-35 -195 92 -195z" />
    <glyph glyph-name="OE" unicode="&#x152;" horiz-adv-x="1730" 
d="M621 1489q74 0 134.5 -15t110.5 -48.5t78 -86.5t38 -129.5t-9 -177.5l-115 -651q-18 -98 -49 -170.5t-82 -129.5t-130 -86.5t-185 -29.5q-75 0 -135.5 15t-111 48.5t-78.5 86.5t-38 129.5t10 177.5l115 651q18 98 48.5 170.5t81.5 129.5t130.5 86.5t186.5 29.5z
M1841 1454l-31 -176h-389l-78 -440h359l-33 -176h-356l-86 -486h403l-31 -176h-618l256 1454h604zM635 381l123 692q22 125 -23 182.5t-131 57.5q-51 0 -88.5 -18.5t-60.5 -55t-35.5 -74.5t-22.5 -92l-123 -692q-23 -125 21.5 -182.5t130.5 -57.5q51 0 89 18.5t61 54.5
t36 75t23 92z" />
    <glyph glyph-name="oe" unicode="&#x153;" horiz-adv-x="1574" 
d="M328 -25q-46 0 -86 7.5t-79 25.5t-65.5 48t-46 74t-20.5 104t10 139l53 301q12 65 28 116t45 101.5t68 83.5t98 53.5t134 20.5q46 0 85.5 -7.5t78.5 -25.5t65.5 -48t46 -74t20.5 -104t-11 -139l-54 -301q-11 -65 -27 -116t-44.5 -101.5t-67 -83.5t-97.5 -53.5t-134 -20.5
zM1264 1049q164 0 236 -94t42 -257q-15 -91 -39 -217h-432l-29 -155q-31 -187 95 -187q54 0 84.5 35t44.5 109l14 71l197 -30l-17 -74q-25 -123 -105 -199t-222 -76q-158 0 -242 94t-51 281l61 348q62 351 363 351zM1339 735q29 174 -86 174q-33 0 -58 -14t-40.5 -40.5
t-24.5 -55t-16 -66.5l-22 -127h225q6 43 22 129zM338 135q65 0 97.5 52.5t49.5 152.5l64 354q35 195 -92 195q-67 0 -100 -52.5t-50 -152.5l-61 -354q-35 -195 92 -195z" />
    <glyph glyph-name="Racute" unicode="&#x154;" horiz-adv-x="905" 
d="M281 1454h292q90 0 160.5 -20.5t122 -63t72 -116t4.5 -173.5l-19 -104q-20 -124 -75 -207t-160 -119l102 -651h-225l-82 610h-127l-106 -610h-215zM694 973l17 106q33 217 -148 217h-96l-94 -536h112q175 0 209 213z" />
    <glyph glyph-name="racute" unicode="&#x155;" horiz-adv-x="569" 
d="M389 1024l-41 -229q33 117 95.5 185.5t156.5 68.5q16 0 41 -5l-41 -227q-32 8 -57 8q-99 0 -152 -84q-53 -77 -78 -235l-90 -506h-205l181 1024h190z" />
    <glyph glyph-name="uni0156" unicode="&#x156;" horiz-adv-x="905" 
d="M281 1454h292q90 0 160.5 -20.5t122 -63t72 -116t4.5 -173.5l-19 -104q-20 -124 -75 -207t-160 -119l102 -651h-225l-82 610h-127l-106 -610h-215zM694 973l17 106q33 217 -148 217h-96l-94 -536h112q175 0 209 213z" />
    <glyph glyph-name="uni0157" unicode="&#x157;" horiz-adv-x="569" 
d="M389 1024l-41 -229q33 117 95.5 185.5t156.5 68.5q16 0 41 -5l-41 -227q-32 8 -57 8q-99 0 -152 -84q-53 -77 -78 -235l-90 -506h-205l181 1024h190z" />
    <glyph glyph-name="Rcaron" unicode="&#x158;" horiz-adv-x="905" 
d="M281 1454h292q90 0 160.5 -20.5t122 -63t72 -116t4.5 -173.5l-19 -104q-20 -124 -75 -207t-160 -119l102 -651h-225l-82 610h-127l-106 -610h-215zM694 973l17 106q33 217 -148 217h-96l-94 -536h112q175 0 209 213z" />
    <glyph glyph-name="rcaron" unicode="&#x159;" horiz-adv-x="569" 
d="M389 1024l-41 -229q33 117 95.5 185.5t156.5 68.5q16 0 41 -5l-41 -227q-32 8 -57 8q-99 0 -152 -84q-53 -77 -78 -235l-90 -506h-205l181 1024h190z" />
    <glyph glyph-name="Sacute" unicode="&#x15a;" horiz-adv-x="831" 
d="M365 -35q-86 0 -154 23t-118 70t-69 128t-1 189l16 98l225 41l-24 -147q-22 -118 17 -173t112 -55q125 0 151 162l12 68q18 104 0 153t-83 96l-156 107q-97 68 -124.5 163.5t-2.5 221.5l16 82q9 48 24 87.5t43 80t66.5 68t97 44.5t132.5 17q399 0 336 -381l-15 -84
l-223 -41l21 109q39 225 -121 225q-37 0 -64 -11.5t-43 -34t-24.5 -45.5t-14.5 -55l-14 -73q-14 -74 5.5 -125t76.5 -92l162 -111q98 -69 127.5 -157t5.5 -226l-19 -104q-11 -69 -37 -124t-69.5 -100t-112 -69.5t-157.5 -24.5z" />
    <glyph glyph-name="sacute" unicode="&#x15b;" horiz-adv-x="737" 
d="M307 -25q-69 0 -126 16t-101.5 49t-63 91t-4.5 135l11 51l213 35l-13 -67q-13 -88 12 -124t84 -36q83 0 101 102l10 54q10 54 -4 88t-72 57l-106 35q-81 29 -119.5 104.5t-17.5 184.5l14 67q19 104 93.5 168t217.5 64q65 0 118 -13.5t97 -43.5t62 -86.5t4 -135.5l-8 -49
l-209 -29l10 74q11 74 -10 105.5t-70 31.5q-83 0 -102 -94l-13 -57q-19 -107 68 -144l106 -41q106 -41 138 -109t12 -177l-12 -64q-41 -242 -320 -242z" />
    <glyph glyph-name="Scircumflex" unicode="&#x15c;" horiz-adv-x="831" 
d="M365 -35q-86 0 -154 23t-118 70t-69 128t-1 189l16 98l225 41l-24 -147q-22 -118 17 -173t112 -55q125 0 151 162l12 68q18 104 0 153t-83 96l-156 107q-97 68 -124.5 163.5t-2.5 221.5l16 82q9 48 24 87.5t43 80t66.5 68t97 44.5t132.5 17q399 0 336 -381l-15 -84
l-223 -41l21 109q39 225 -121 225q-37 0 -64 -11.5t-43 -34t-24.5 -45.5t-14.5 -55l-14 -73q-14 -74 5.5 -125t76.5 -92l162 -111q98 -69 127.5 -157t5.5 -226l-19 -104q-11 -69 -37 -124t-69.5 -100t-112 -69.5t-157.5 -24.5z" />
    <glyph glyph-name="scircumflex" unicode="&#x15d;" horiz-adv-x="737" 
d="M307 -25q-69 0 -126 16t-101.5 49t-63 91t-4.5 135l11 51l213 35l-13 -67q-13 -88 12 -124t84 -36q83 0 101 102l10 54q10 54 -4 88t-72 57l-106 35q-81 29 -119.5 104.5t-17.5 184.5l14 67q19 104 93.5 168t217.5 64q65 0 118 -13.5t97 -43.5t62 -86.5t4 -135.5l-8 -49
l-209 -29l10 74q11 74 -10 105.5t-70 31.5q-83 0 -102 -94l-13 -57q-19 -107 68 -144l106 -41q106 -41 138 -109t12 -177l-12 -64q-41 -242 -320 -242z" />
    <glyph glyph-name="Scedilla" unicode="&#x15e;" horiz-adv-x="831" 
d="M365 -35q-86 0 -154 23t-118 70t-69 128t-1 189l16 98l225 41l-24 -147q-22 -118 17 -173t112 -55q125 0 151 162l12 68q18 104 0 153t-83 96l-156 107q-97 68 -124.5 163.5t-2.5 221.5l16 82q9 48 24 87.5t43 80t66.5 68t97 44.5t132.5 17q399 0 336 -381l-15 -84
l-223 -41l21 109q39 225 -121 225q-37 0 -64 -11.5t-43 -34t-24.5 -45.5t-14.5 -55l-14 -73q-14 -74 5.5 -125t76.5 -92l162 -111q98 -69 127.5 -157t5.5 -226l-19 -104q-11 -69 -37 -124t-69.5 -100t-112 -69.5t-157.5 -24.5z" />
    <glyph glyph-name="scedilla" unicode="&#x15f;" horiz-adv-x="737" 
d="M307 -25q-69 0 -126 16t-101.5 49t-63 91t-4.5 135l11 51l213 35l-13 -67q-13 -88 12 -124t84 -36q83 0 101 102l10 54q10 54 -4 88t-72 57l-106 35q-81 29 -119.5 104.5t-17.5 184.5l14 67q19 104 93.5 168t217.5 64q65 0 118 -13.5t97 -43.5t62 -86.5t4 -135.5l-8 -49
l-209 -29l10 74q11 74 -10 105.5t-70 31.5q-83 0 -102 -94l-13 -57q-19 -107 68 -144l106 -41q106 -41 138 -109t12 -177l-12 -64q-41 -242 -320 -242z" />
    <glyph glyph-name="Scaron" unicode="&#x160;" horiz-adv-x="831" 
d="M365 -35q-86 0 -154 23t-118 70t-69 128t-1 189l16 98l225 41l-24 -147q-22 -118 17 -173t112 -55q125 0 151 162l12 68q18 104 0 153t-83 96l-156 107q-97 68 -124.5 163.5t-2.5 221.5l16 82q9 48 24 87.5t43 80t66.5 68t97 44.5t132.5 17q399 0 336 -381l-15 -84
l-223 -41l21 109q39 225 -121 225q-37 0 -64 -11.5t-43 -34t-24.5 -45.5t-14.5 -55l-14 -73q-14 -74 5.5 -125t76.5 -92l162 -111q98 -69 127.5 -157t5.5 -226l-19 -104q-11 -69 -37 -124t-69.5 -100t-112 -69.5t-157.5 -24.5z" />
    <glyph glyph-name="scaron" unicode="&#x161;" horiz-adv-x="737" 
d="M307 -25q-69 0 -126 16t-101.5 49t-63 91t-4.5 135l11 51l213 35l-13 -67q-13 -88 12 -124t84 -36q83 0 101 102l10 54q10 54 -4 88t-72 57l-106 35q-81 29 -119.5 104.5t-17.5 184.5l14 67q19 104 93.5 168t217.5 64q65 0 118 -13.5t97 -43.5t62 -86.5t4 -135.5l-8 -49
l-209 -29l10 74q11 74 -10 105.5t-70 31.5q-83 0 -102 -94l-13 -57q-19 -107 68 -144l106 -41q106 -41 138 -109t12 -177l-12 -64q-41 -242 -320 -242z" />
    <glyph glyph-name="uni0162" unicode="&#x162;" horiz-adv-x="796" 
d="M174 1454h780l-34 -188h-283l-221 -1266h-213l223 1266h-285z" />
    <glyph glyph-name="uni0163" unicode="&#x163;" horiz-adv-x="552" 
d="M201 874h-121l29 150h118l43 240l217 71l-53 -311h168l-27 -150h-167l-97 -550q-14 -79 9.5 -116.5t87.5 -37.5q35 0 51 2l-31 -182q-39 -8 -98 -8q-48 0 -86.5 10t-72.5 34t-52 63.5t-24.5 98t9.5 138.5z" />
    <glyph glyph-name="Tcaron" unicode="&#x164;" horiz-adv-x="796" 
d="M174 1454h780l-34 -188h-283l-221 -1266h-213l223 1266h-285z" />
    <glyph glyph-name="tcaron" unicode="&#x165;" horiz-adv-x="552" 
d="M201 874h-121l29 150h118l43 240l217 71l-53 -311h168l-27 -150h-167l-97 -550q-14 -79 9.5 -116.5t87.5 -37.5q35 0 51 2l-31 -182q-39 -8 -98 -8q-48 0 -86.5 10t-72.5 34t-52 63.5t-24.5 98t9.5 138.5z" />
    <glyph glyph-name="Tbar" unicode="&#x166;" horiz-adv-x="796" 
d="M174 1454h780l-34 -188h-283l-221 -1266h-213l223 1266h-285z" />
    <glyph glyph-name="tbar" unicode="&#x167;" horiz-adv-x="552" 
d="M201 874h-121l29 150h118l43 240l217 71l-53 -311h168l-27 -150h-167l-97 -550q-14 -79 9.5 -116.5t87.5 -37.5q35 0 51 2l-31 -182q-39 -8 -98 -8q-48 0 -86.5 10t-72.5 34t-52 63.5t-24.5 98t9.5 138.5z" />
    <glyph glyph-name="Utilde" unicode="&#x168;" horiz-adv-x="960" 
d="M78 358l192 1096h215l-196 -1104q-17 -100 19.5 -150t121.5 -50q87 0 127.5 52t56.5 144l195 1108h213l-199 -1126q-64 -363 -411 -363q-193 0 -280.5 101.5t-53.5 291.5z" />
    <glyph glyph-name="utilde" unicode="&#x169;" 
d="M242 -25q-197 0 -197 203q0 37 16 135l123 711h211l-129 -727q-6 -35 -6 -59q0 -95 82 -95q45 0 78 36.5t51.5 91t34.5 139.5l110 614h205l-180 -1024h-197l31 166q-42 -95 -93.5 -143t-139.5 -48z" />
    <glyph glyph-name="Umacron" unicode="&#x16a;" horiz-adv-x="960" 
d="M78 358l192 1096h215l-196 -1104q-17 -100 19.5 -150t121.5 -50q87 0 127.5 52t56.5 144l195 1108h213l-199 -1126q-64 -363 -411 -363q-193 0 -280.5 101.5t-53.5 291.5z" />
    <glyph glyph-name="umacron" unicode="&#x16b;" 
d="M242 -25q-197 0 -197 203q0 37 16 135l123 711h211l-129 -727q-6 -35 -6 -59q0 -95 82 -95q45 0 78 36.5t51.5 91t34.5 139.5l110 614h205l-180 -1024h-197l31 166q-42 -95 -93.5 -143t-139.5 -48z" />
    <glyph glyph-name="Ubreve" unicode="&#x16c;" horiz-adv-x="960" 
d="M78 358l192 1096h215l-196 -1104q-17 -100 19.5 -150t121.5 -50q87 0 127.5 52t56.5 144l195 1108h213l-199 -1126q-64 -363 -411 -363q-193 0 -280.5 101.5t-53.5 291.5z" />
    <glyph glyph-name="ubreve" unicode="&#x16d;" 
d="M242 -25q-197 0 -197 203q0 37 16 135l123 711h211l-129 -727q-6 -35 -6 -59q0 -95 82 -95q45 0 78 36.5t51.5 91t34.5 139.5l110 614h205l-180 -1024h-197l31 166q-42 -95 -93.5 -143t-139.5 -48z" />
    <glyph glyph-name="Uring" unicode="&#x16e;" horiz-adv-x="960" 
d="M78 358l192 1096h215l-196 -1104q-17 -100 19.5 -150t121.5 -50q87 0 127.5 52t56.5 144l195 1108h213l-199 -1126q-64 -363 -411 -363q-193 0 -280.5 101.5t-53.5 291.5z" />
    <glyph glyph-name="uring" unicode="&#x16f;" 
d="M242 -25q-197 0 -197 203q0 37 16 135l123 711h211l-129 -727q-6 -35 -6 -59q0 -95 82 -95q45 0 78 36.5t51.5 91t34.5 139.5l110 614h205l-180 -1024h-197l31 166q-42 -95 -93.5 -143t-139.5 -48z" />
    <glyph glyph-name="Uhungarumlaut" unicode="&#x170;" horiz-adv-x="960" 
d="M78 358l192 1096h215l-196 -1104q-17 -100 19.5 -150t121.5 -50q87 0 127.5 52t56.5 144l195 1108h213l-199 -1126q-64 -363 -411 -363q-193 0 -280.5 101.5t-53.5 291.5z" />
    <glyph glyph-name="uhungarumlaut" unicode="&#x171;" 
d="M242 -25q-197 0 -197 203q0 37 16 135l123 711h211l-129 -727q-6 -35 -6 -59q0 -95 82 -95q45 0 78 36.5t51.5 91t34.5 139.5l110 614h205l-180 -1024h-197l31 166q-42 -95 -93.5 -143t-139.5 -48z" />
    <glyph glyph-name="Uogonek" unicode="&#x172;" horiz-adv-x="960" 
d="M78 358l192 1096h215l-196 -1104q-17 -100 19.5 -150t121.5 -50q87 0 127.5 52t56.5 144l195 1108h213l-199 -1126q-64 -363 -411 -363q-193 0 -280.5 101.5t-53.5 291.5z" />
    <glyph glyph-name="uogonek" unicode="&#x173;" 
d="M242 -25q-197 0 -197 203q0 37 16 135l123 711h211l-129 -727q-6 -35 -6 -59q0 -95 82 -95q45 0 78 36.5t51.5 91t34.5 139.5l110 614h205l-180 -1024h-197l31 166q-42 -95 -93.5 -143t-139.5 -48z" />
    <glyph glyph-name="Wcircumflex" unicode="&#x174;" horiz-adv-x="1263" 
d="M403 0h-278l86 1454h203l-78 -985q-9 -117 -29 -250h8q10 35 32.5 117t35.5 125l295 993h235l-55 -993q-2 -41 -9 -123t-9 -119h8q23 107 59 250l271 985h206l-426 -1454h-276l53 944q4 55 27 270h-10q-31 -142 -70 -270z" />
    <glyph glyph-name="wcircumflex" unicode="&#x175;" horiz-adv-x="1105" 
d="M344 0h-223l-4 1024h202l-38 -711q0 -3 -11 -114h4q7 33 33 114l232 711h206l-20 -711q-4 -76 -8 -114h6q8 56 27 114l213 711h206l-362 -1024h-223l16 702q0 45 14 136h-6q-3 -12 -9.5 -39.5t-12.5 -51.5t-13 -45z" />
    <glyph glyph-name="Ycircumflex" unicode="&#x176;" horiz-adv-x="841" 
d="M438 0h-215l103 582l-152 872h223l62 -514q6 -86 2 -158h6q24 80 59 158l242 514h231l-458 -872z" />
    <glyph glyph-name="ycircumflex" unicode="&#x177;" horiz-adv-x="741" 
d="M-6 -410q-59 0 -100 13l30 182q33 -10 74 -10q99 0 141 104l45 115l-84 1030h222l12 -653q0 -83 -15 -185h7q19 83 51 181l227 657h217l-481 -1176q-33 -80 -71 -133t-83 -79.5t-89 -36t-103 -9.5z" />
    <glyph glyph-name="Ydieresis" unicode="&#x178;" horiz-adv-x="841" 
d="M438 0h-215l103 582l-152 872h223l62 -514q6 -86 2 -158h6q24 80 59 158l242 514h231l-458 -872z" />
    <glyph glyph-name="Zacute" unicode="&#x179;" horiz-adv-x="772" 
d="M-51 0l28 172l662 1096h-449l33 186h672l-29 -170l-659 -1098h481l-33 -186h-706z" />
    <glyph glyph-name="zacute" unicode="&#x17a;" horiz-adv-x="645" 
d="M-53 0l26 145l476 717h-332l26 162h543l-27 -143l-471 -717h367l-29 -164h-579z" />
    <glyph glyph-name="Zdotaccent" unicode="&#x17b;" horiz-adv-x="772" 
d="M-51 0l28 172l662 1096h-449l33 186h672l-29 -170l-659 -1098h481l-33 -186h-706z" />
    <glyph glyph-name="zdotaccent" unicode="&#x17c;" horiz-adv-x="645" 
d="M-53 0l26 145l476 717h-332l26 162h543l-27 -143l-471 -717h367l-29 -164h-579z" />
    <glyph glyph-name="Zcaron" unicode="&#x17d;" horiz-adv-x="772" 
d="M-51 0l28 172l662 1096h-449l33 186h672l-29 -170l-659 -1098h481l-33 -186h-706z" />
    <glyph glyph-name="zcaron" unicode="&#x17e;" horiz-adv-x="645" 
d="M-53 0l26 145l476 717h-332l26 162h543l-27 -143l-471 -717h367l-29 -164h-579z" />
    <glyph glyph-name="AEacute" unicode="&#x1fc;" horiz-adv-x="1681" 
d="M-68 0l549 1454h277l35 -1454h-209v387h-291l-133 -387h-228zM1792 1454l-31 -176h-389l-78 -440h359l-33 -176h-356l-86 -486h403l-31 -176h-618l256 1454h604zM522 1049l-172 -496h234v489q3 132 8 222h-6q-25 -103 -64 -215z" />
    <glyph glyph-name="aeacute" unicode="&#x1fd;" horiz-adv-x="1566" 
d="M205 -25q-107 0 -162 70t-35 197l8 57q20 149 121 225q79 62 219 76l152 14l20 142q21 139 -79 139q-56 0 -82 -28t-37 -97l-15 -86h-204l12 88q21 143 104.5 210t229.5 67q48 0 87.5 -6.5t75 -22t59 -40.5t40 -61.5t17 -86t-8.5 -113.5l-82 -471q-27 -164 -27 -248h-192
q-2 43 12 160q-26 -90 -86 -137.5t-147 -47.5zM1253 1049q164 0 236.5 -94t42.5 -257q-15 -91 -39 -217h-432l-29 -155q-31 -187 94 -187q54 0 84.5 35t44.5 109l15 71l196 -30l-16 -74q-25 -123 -105.5 -199t-222.5 -76q-158 0 -242 94t-51 281l62 348q62 351 362 351z
M1329 735q29 174 -86 174q-33 0 -58 -14t-40.5 -40.5t-24.5 -55t-16 -66.5l-23 -127h226q6 43 22 129zM303 131q114 0 146 164l36 201l-84 -9q-143 -15 -165 -170l-11 -59q-20 -127 78 -127z" />
    <glyph glyph-name="Oslashacute" unicode="&#x1fe;" horiz-adv-x="956" 
d="M412 -35q-75 0 -135.5 15t-111 48.5t-78.5 86.5t-38 129.5t10 177.5l115 651q18 98 48.5 170.5t81.5 129.5t130.5 86.5t186.5 29.5q74 0 134.5 -15t110.5 -48.5t78 -86.5t38 -129.5t-9 -177.5l-115 -651q-18 -98 -49 -170.5t-82 -129.5t-130 -86.5t-185 -29.5zM426 141
q51 0 89 18.5t61 54.5t36 75t23 92l123 692q22 125 -23 182.5t-131 57.5q-51 0 -88.5 -18.5t-60.5 -55t-35.5 -74.5t-22.5 -92l-123 -692q-23 -125 21.5 -182.5t130.5 -57.5z" />
    <glyph glyph-name="oslashacute" unicode="&#x1ff;" horiz-adv-x="794" 
d="M328 -25q-46 0 -86 7.5t-79 25.5t-65.5 48t-46 74t-20.5 104t10 139l53 301q12 65 28 116t45 101.5t68 83.5t98 53.5t134 20.5q46 0 85.5 -7.5t78.5 -25.5t65.5 -48t46 -74t20.5 -104t-11 -139l-54 -301q-11 -65 -27 -116t-44.5 -101.5t-67 -83.5t-97.5 -53.5t-134 -20.5
zM338 135q65 0 97.5 52.5t49.5 152.5l64 354q35 195 -92 195q-67 0 -100 -52.5t-50 -152.5l-61 -354q-35 -195 92 -195z" />
    <glyph glyph-name="uni0218" unicode="&#x218;" horiz-adv-x="831" 
d="M365 -35q-86 0 -154 23t-118 70t-69 128t-1 189l16 98l225 41l-24 -147q-22 -118 17 -173t112 -55q125 0 151 162l12 68q18 104 0 153t-83 96l-156 107q-97 68 -124.5 163.5t-2.5 221.5l16 82q9 48 24 87.5t43 80t66.5 68t97 44.5t132.5 17q399 0 336 -381l-15 -84
l-223 -41l21 109q39 225 -121 225q-37 0 -64 -11.5t-43 -34t-24.5 -45.5t-14.5 -55l-14 -73q-14 -74 5.5 -125t76.5 -92l162 -111q98 -69 127.5 -157t5.5 -226l-19 -104q-11 -69 -37 -124t-69.5 -100t-112 -69.5t-157.5 -24.5z" />
    <glyph glyph-name="uni0219" unicode="&#x219;" horiz-adv-x="737" 
d="M307 -25q-69 0 -126 16t-101.5 49t-63 91t-4.5 135l11 51l213 35l-13 -67q-13 -88 12 -124t84 -36q83 0 101 102l10 54q10 54 -4 88t-72 57l-106 35q-81 29 -119.5 104.5t-17.5 184.5l14 67q19 104 93.5 168t217.5 64q65 0 118 -13.5t97 -43.5t62 -86.5t4 -135.5l-8 -49
l-209 -29l10 74q11 74 -10 105.5t-70 31.5q-83 0 -102 -94l-13 -57q-19 -107 68 -144l106 -41q106 -41 138 -109t12 -177l-12 -64q-41 -242 -320 -242z" />
    <glyph glyph-name="uni021A" unicode="&#x21a;" horiz-adv-x="796" 
d="M174 1454h780l-34 -188h-283l-221 -1266h-213l223 1266h-285z" />
    <glyph glyph-name="uni021B" unicode="&#x21b;" horiz-adv-x="552" 
d="M201 874h-121l29 150h118l43 240l217 71l-53 -311h168l-27 -150h-167l-97 -550q-14 -79 9.5 -116.5t87.5 -37.5q35 0 51 2l-31 -182q-39 -8 -98 -8q-48 0 -86.5 10t-72.5 34t-52 63.5t-24.5 98t9.5 138.5z" />
    <glyph glyph-name="uni0237" unicode="&#x237;" horiz-adv-x="421" 
d="M430 1186h-215l43 244h215zM-59 -414q-66 0 -119 17l33 174q30 -10 53 -10q42 0 61 21t27 65l203 1171h204l-210 -1210q-9 -50 -25.5 -88.5t-45 -71.5t-74 -50.5t-107.5 -17.5z" />
    <glyph glyph-name="Alphatonos" unicode="&#x386;" horiz-adv-x="907" 
d="M758 1454l35 -1454h-209v387h-291l-133 -387h-228l549 1454h277zM522 1049l-172 -496h234v489q3 132 8 222h-6q-25 -103 -64 -215z" />
    <glyph glyph-name="Epsilontonos" unicode="&#x388;" horiz-adv-x="774" 
d="M885 1454l-31 -176h-389l-78 -440h358l-32 -176h-357l-86 -486h404l-31 -176h-618l256 1454h604z" />
    <glyph glyph-name="Etatonos" unicode="&#x389;" horiz-adv-x="985" 
d="M821 1454h215l-256 -1454h-215l117 662h-326l-116 -662h-215l256 1454h215l-111 -625h328z" />
    <glyph glyph-name="Iotatonos" unicode="&#x38a;" horiz-adv-x="442" 
d="M496 1454l-256 -1454h-215l256 1454h215z" />
    <glyph glyph-name="Omicrontonos" unicode="&#x38c;" horiz-adv-x="956" 
d="M412 -35q-75 0 -135.5 15t-111 48.5t-78.5 86.5t-38 129.5t10 177.5l115 651q18 98 48.5 170.5t81.5 129.5t130.5 86.5t186.5 29.5q74 0 134.5 -15t110.5 -48.5t78 -86.5t38 -129.5t-9 -177.5l-115 -651q-18 -98 -49 -170.5t-82 -129.5t-130 -86.5t-185 -29.5zM426 141
q51 0 89 18.5t61 54.5t36 75t23 92l123 692q22 125 -23 182.5t-131 57.5q-51 0 -88.5 -18.5t-60.5 -55t-35.5 -74.5t-22.5 -92l-123 -692q-23 -125 21.5 -182.5t130.5 -57.5z" />
    <glyph glyph-name="Upsilontonos" unicode="&#x38e;" horiz-adv-x="841" 
d="M438 0h-215l103 582l-152 872h223l62 -514q6 -86 2 -158h6q24 80 59 158l242 514h231l-458 -872z" />
    <glyph glyph-name="Omegatonos" unicode="&#x38f;" horiz-adv-x="954" 
d="M604 1313q-51 0 -89 -18.5t-61 -54.5t-36 -75t-23 -92l-108 -614q-44 -252 73 -283l-28 -176h-350l30 176h168l2 6q-73 27 -101.5 110t-8.5 200l102 581q17 98 47 170.5t81 129.5t130.5 86.5t185.5 29.5q75 0 135.5 -15t111 -48.5t78.5 -86.5t38 -129.5t-10 -177.5
l-97 -540q-20 -115 -78 -199t-139 -111l-2 -6h166l-28 -176h-351l31 176q131 36 174 283l109 614q23 125 -21.5 182.5t-130.5 57.5z" />
    <glyph glyph-name="iotadieresistonos" unicode="&#x390;" horiz-adv-x="456" 
d="M184 1024h207l-133 -758q-9 -52 2.5 -72t48.5 -20q17 0 41 4l-35 -186q-52 -10 -90 -10q-224 0 -174 274z" />
    <glyph glyph-name="Alpha" unicode="&#x391;" horiz-adv-x="907" 
d="M758 1454l35 -1454h-209v387h-291l-133 -387h-228l549 1454h277zM522 1049l-172 -496h234v489q3 132 8 222h-6q-25 -103 -64 -215z" />
    <glyph glyph-name="Beta" unicode="&#x392;" horiz-adv-x="907" 
d="M281 1454h309q84 0 150 -21t112 -62.5t65 -109t5 -155.5l-7 -51q-20 -127 -77.5 -203.5t-167.5 -101.5q92 -22 135 -102.5t18 -223.5l-10 -62q-15 -89 -42.5 -152t-75 -112.5t-122.5 -73.5t-180 -24h-368zM692 1042l10 56q7 61 2 99.5t-29.5 60.5t-52.5 30t-67 8h-88
l-82 -471h109q95 0 138 56t60 161zM594 371l14 78q21 125 -11.5 175t-125.5 50h-113l-90 -512h125q97 0 139.5 51.5t61.5 157.5z" />
    <glyph glyph-name="Gamma" unicode="&#x393;" horiz-adv-x="708" 
d="M864 1454l-33 -188h-368l-223 -1266h-215l256 1454h583z" />
    <glyph glyph-name="uni0394" unicode="&#x394;" horiz-adv-x="845" 
d="M733 0h-801l519 1454h280zM522 158l33 1085l-362 -1085h329z" />
    <glyph glyph-name="Epsilon" unicode="&#x395;" horiz-adv-x="774" 
d="M885 1454l-31 -176h-389l-78 -440h358l-32 -176h-357l-86 -486h404l-31 -176h-618l256 1454h604z" />
    <glyph glyph-name="Zeta" unicode="&#x396;" horiz-adv-x="772" 
d="M-51 0l28 172l662 1096h-449l33 186h672l-29 -170l-659 -1098h481l-33 -186h-706z" />
    <glyph glyph-name="Eta" unicode="&#x397;" horiz-adv-x="985" 
d="M821 1454h215l-256 -1454h-215l117 662h-326l-116 -662h-215l256 1454h215l-111 -625h328z" />
    <glyph glyph-name="Theta" unicode="&#x398;" horiz-adv-x="956" 
d="M412 -35q-75 0 -135.5 15t-111 48.5t-78.5 86.5t-38 129.5t10 177.5l115 651q18 98 48.5 170.5t81.5 129.5t130.5 86.5t186.5 29.5q74 0 134.5 -15t110.5 -48.5t78 -86.5t38 -129.5t-9 -177.5l-115 -651q-18 -98 -49 -170.5t-82 -129.5t-130 -86.5t-185 -29.5zM426 141
q51 0 89 18.5t61 54.5t36 75t23 92l123 692q22 125 -23 182.5t-131 57.5q-51 0 -88.5 -18.5t-60.5 -55t-35.5 -74.5t-22.5 -92l-123 -692q-23 -125 21.5 -182.5t130.5 -57.5z" />
    <glyph glyph-name="Iota" unicode="&#x399;" horiz-adv-x="442" 
d="M496 1454l-256 -1454h-215l256 1454h215z" />
    <glyph glyph-name="Kappa" unicode="&#x39a;" horiz-adv-x="923" 
d="M827 1454h228l-377 -565l131 -889h-221l-90 729l-176 -260l-82 -469h-215l256 1454h215l-127 -725z" />
    <glyph glyph-name="Lambda" unicode="&#x39b;" horiz-adv-x="907" 
d="M-68 0l549 1454h277l35 -1454h-213l4 1040q2 93 8 222h-6q-21 -89 -68 -224l-358 -1038h-228z" />
    <glyph glyph-name="Mu" unicode="&#x39c;" horiz-adv-x="1228" 
d="M213 0h-188l256 1454h309l-4 -928q0 -122 -11 -213h9q17 81 65 213l322 928h309l-256 -1454h-190l147 834q45 258 76 397h-10q-50 -170 -76 -244l-350 -987h-193v987q-2 128 8 244h-8q-3 -20 -68 -397z" />
    <glyph glyph-name="Nu" unicode="&#x39d;" horiz-adv-x="1009" 
d="M219 0h-194l256 1454h235l143 -848q22 -128 25 -239h4q17 170 47 352l131 735h195l-256 -1454h-217l-152 891q-23 138 -26 239h-7q-16 -191 -32 -282z" />
    <glyph glyph-name="Xi" unicode="&#x39e;" horiz-adv-x="731" 
d="M184 1278l31 176h635l-31 -176h-635zM137 662l31 176h510l-31 -176h-510zM-49 0l31 174h649l-31 -174h-649z" />
    <glyph glyph-name="Omicron" unicode="&#x39f;" horiz-adv-x="956" 
d="M412 -35q-75 0 -135.5 15t-111 48.5t-78.5 86.5t-38 129.5t10 177.5l115 651q18 98 48.5 170.5t81.5 129.5t130.5 86.5t186.5 29.5q74 0 134.5 -15t110.5 -48.5t78 -86.5t38 -129.5t-9 -177.5l-115 -651q-18 -98 -49 -170.5t-82 -129.5t-130 -86.5t-185 -29.5zM426 141
q51 0 89 18.5t61 54.5t36 75t23 92l123 692q22 125 -23 182.5t-131 57.5q-51 0 -88.5 -18.5t-60.5 -55t-35.5 -74.5t-22.5 -92l-123 -692q-23 -125 21.5 -182.5t130.5 -57.5z" />
    <glyph glyph-name="Pi" unicode="&#x3a0;" horiz-adv-x="980" 
d="M25 0l256 1454h751l-256 -1454h-215l225 1274h-323l-223 -1274h-215z" />
    <glyph glyph-name="Rho" unicode="&#x3a1;" horiz-adv-x="860" 
d="M281 1454h313q61 0 112 -9t100 -34t80 -64.5t44.5 -106t1.5 -153.5l-21 -135q-9 -64 -25.5 -115t-48 -99t-75 -80t-110 -51t-150.5 -19h-160l-102 -588h-215zM690 971l21 110q11 52 5.5 89.5t-17 61.5t-35 37.5t-48 19t-55.5 5.5h-94l-96 -546h133q47 0 80.5 16
t53.5 49.5t31 68.5t21 89z" />
    <glyph glyph-name="Sigma" unicode="&#x3a3;" horiz-adv-x="763" 
d="M850 1268h-434l198 -504l-393 -580h443l-31 -184h-682l29 164l426 608l-209 520l28 162h660z" />
    <glyph glyph-name="Tau" unicode="&#x3a4;" horiz-adv-x="796" 
d="M174 1454h780l-34 -188h-283l-221 -1266h-213l223 1266h-285z" />
    <glyph glyph-name="Upsilon" unicode="&#x3a5;" horiz-adv-x="841" 
d="M438 0h-215l103 582l-152 872h223l62 -514q6 -86 2 -158h6q24 80 59 158l242 514h231l-458 -872z" />
    <glyph glyph-name="Phi" unicode="&#x3a6;" horiz-adv-x="1181" 
d="M885 1567l-21 -121q188 -27 274.5 -144t51.5 -319l-94 -530q-39 -215 -160.5 -322.5t-327.5 -126.5l-18 -106h-215l20 110q-182 27 -272.5 140.5t-56.5 304.5l94 530q39 226 157 337t332 130l21 117h215zM371 971l-88 -504q-23 -132 10.5 -200.5t130.5 -88.5l194 1100
q-108 -21 -165 -93.5t-82 -213.5zM883 467l90 504q23 136 -10 209.5t-129 95.5l-195 -1100q110 18 165 86t79 205z" />
    <glyph glyph-name="Chi" unicode="&#x3a7;" horiz-adv-x="878" 
d="M170 0h-246l420 782l-143 672h225l72 -401q4 -22 8 -148h4q26 81 57 148l205 401h234l-375 -688l143 -766h-225l-70 506q-7 48 -4 147h-4q-38 -108 -57 -147z" />
    <glyph glyph-name="Psi" unicode="&#x3a8;" horiz-adv-x="1239" 
d="M969 788l116 666h215l-116 -659q-41 -235 -163.5 -356t-330.5 -130l-55 -309h-215l55 309q-204 10 -283 131.5t-38 354.5l116 659h215l-118 -666q-25 -148 6.5 -220.5t132.5 -82.5l170 969h215l-170 -969q100 8 160.5 78t87.5 225z" />
    <glyph glyph-name="uni03A9" unicode="&#x3a9;" horiz-adv-x="954" 
d="M604 1313q-51 0 -89 -18.5t-61 -54.5t-36 -75t-23 -92l-108 -614q-44 -252 73 -283l-28 -176h-350l30 176h168l2 6q-73 27 -101.5 110t-8.5 200l102 581q17 98 47 170.5t81 129.5t130.5 86.5t185.5 29.5q75 0 135.5 -15t111 -48.5t78.5 -86.5t38 -129.5t-10 -177.5
l-97 -540q-20 -115 -78 -199t-139 -111l-2 -6h166l-28 -176h-351l31 176q131 36 174 283l109 614q23 125 -21.5 182.5t-130.5 57.5z" />
    <glyph glyph-name="Iotadieresis" unicode="&#x3aa;" horiz-adv-x="442" 
d="M496 1454l-256 -1454h-215l256 1454h215z" />
    <glyph glyph-name="Upsilondieresis" unicode="&#x3ab;" horiz-adv-x="841" 
d="M438 0h-215l103 582l-152 872h223l62 -514q6 -86 2 -158h6q24 80 59 158l242 514h231l-458 -872z" />
    <glyph glyph-name="alphatonos" unicode="&#x3ac;" horiz-adv-x="837" 
d="M653 1024h168l-133 -748q-30 -185 -22 -276h-207q4 84 12 152q-47 -87 -101.5 -132t-133.5 -45q-72 0 -123 42t-74 131.5t2 228.5l49 268q11 61 24 110.5t38.5 107t58 96t83.5 64.5t114 26q172 0 196 -175zM502 373l49 280q21 109 -1 169.5t-89 60.5q-63 0 -99.5 -57
t-56.5 -171l-49 -274q-23 -126 0.5 -183t89.5 -57q115 0 156 232z" />
    <glyph glyph-name="epsilontonos" unicode="&#x3ad;" horiz-adv-x="747" 
d="M315 -25q-164 0 -241 69t-51 212l8 47q34 202 264 232q-101 6 -146.5 67t-31.5 158l6 37q18 112 100 182t215 70q175 0 250 -86t57 -238l-215 -29q13 94 -5 141.5t-89 47.5q-101 0 -119 -121l-4 -33q-9 -62 23 -90.5t94 -28.5h78l-29 -157h-69q-49 0 -83.5 -13.5
t-52.5 -39.5t-25.5 -49t-12.5 -56l-5 -27q-13 -72 13 -101.5t82 -29.5q70 0 102.5 48.5t46.5 152.5l199 -33q-26 -162 -110.5 -247t-248.5 -85z" />
    <glyph glyph-name="etatonos" unicode="&#x3ae;" horiz-adv-x="845" 
d="M604 1049q115 0 162.5 -89t19.5 -239l-118 -672l-78 -448h-209l70 399l127 727q26 158 -78 158q-66 0 -102 -62t-60 -202l-109 -621h-206l118 678q40 236 25 346h209q9 -57 0 -152q46 91 99 134t130 43z" />
    <glyph glyph-name="iotatonos" unicode="&#x3af;" horiz-adv-x="456" 
d="M184 1024h207l-133 -758q-9 -52 2.5 -72t48.5 -20q17 0 41 4l-35 -186q-52 -10 -90 -10q-224 0 -174 274z" />
    <glyph glyph-name="upsilondieresistonos" unicode="&#x3b0;" 
d="M352 -25q-351 0 -282 394l114 655h209l-121 -684q-19 -91 -0.5 -145t84.5 -54q62 0 97.5 47.5t54.5 151.5l121 684h207l-117 -662q-7 -40 -14 -71.5t-21.5 -73.5t-32 -74t-45.5 -65t-63 -54.5t-84 -35t-107 -13.5z" />
    <glyph glyph-name="alpha" unicode="&#x3b1;" horiz-adv-x="837" 
d="M653 1024h168l-133 -748q-30 -185 -22 -276h-207q4 84 12 152q-47 -87 -101.5 -132t-133.5 -45q-72 0 -123 42t-74 131.5t2 228.5l49 268q11 61 24 110.5t38.5 107t58 96t83.5 64.5t114 26q172 0 196 -175zM502 373l49 280q21 109 -1 169.5t-89 60.5q-63 0 -99.5 -57
t-56.5 -171l-49 -274q-23 -126 0.5 -183t89.5 -57q115 0 156 232z" />
    <glyph glyph-name="beta" unicode="&#x3b2;" horiz-adv-x="835" 
d="M569 1489q74 0 131.5 -18t91 -48t55 -70t23 -84.5t-5.5 -90.5l-14 -80q-19 -107 -77.5 -177t-147.5 -92q99 -19 139.5 -103t17.5 -224l-24 -137q-10 -61 -21.5 -107t-35 -101.5t-54.5 -91.5t-81.5 -60.5t-114.5 -24.5q-169 0 -215 145l-93 -524h-204l274 1556
q10 54 24 97.5t41 89t64 76t95.5 50t131.5 19.5zM641 1090l14 88q15 75 -9.5 114t-82.5 39q-114 0 -143 -170l-168 -944q44 -72 133 -72q30 0 53.5 8.5t40 27t27.5 35.5t20 47t13 48.5t10 50.5l24 138q42 231 -135 231h-30l28 166h33q137 0 172 193z" />
    <glyph glyph-name="gamma" unicode="&#x3b3;" horiz-adv-x="724" 
d="M578 1024h210q-13 -82 -40.5 -162t-88.5 -219l-282 -635l-74 -407h-205l70 399l-68 1024h211l-8 -668q0 -26 -2 -77.5t-2 -73.5h6q16 54 51 149l127 342q74 198 95 328z" />
    <glyph glyph-name="delta" unicode="&#x3b4;" horiz-adv-x="794" 
d="M543 1321q-135 0 -135 -102q0 -55 77 -119l136 -101q89 -66 121 -147t8 -207l-50 -289q-11 -59 -24.5 -105.5t-41.5 -101t-66 -90.5t-99 -60t-139 -24q-63 0 -112.5 11t-92 37.5t-65 70t-31 108.5t9.5 154l45 262q52 289 336 310l-62 49q-46 36 -73.5 65t-48.5 78.5
t-21 110.5q0 47 18 91t54.5 82.5t101.5 61.5t150 23q162 0 284 -72l-30 -176q-127 80 -250 80zM459 854q-66 0 -103.5 -51t-56.5 -162l-53 -305q-17 -104 5 -152.5t85 -48.5q38 0 65 16t43 48t24.5 61.5t16.5 75.5l56 311q37 207 -82 207z" />
    <glyph glyph-name="epsilon" unicode="&#x3b5;" horiz-adv-x="747" 
d="M315 -25q-164 0 -241 69t-51 212l8 47q34 202 264 232q-101 6 -146.5 67t-31.5 158l6 37q18 112 100 182t215 70q175 0 250 -86t57 -238l-215 -29q13 94 -5 141.5t-89 47.5q-101 0 -119 -121l-4 -33q-9 -62 23 -90.5t94 -28.5h78l-29 -157h-69q-49 0 -83.5 -13.5
t-52.5 -39.5t-25.5 -49t-12.5 -56l-5 -27q-13 -72 13 -101.5t82 -29.5q70 0 102.5 48.5t46.5 152.5l199 -33q-26 -162 -110.5 -247t-248.5 -85z" />
    <glyph glyph-name="zeta" unicode="&#x3b6;" horiz-adv-x="655" 
d="M219 1288l29 166h579l-22 -133l-199 -264q-129 -171 -187.5 -255.5t-101 -169.5t-55.5 -163l-6 -39q-16 -100 4.5 -151t104.5 -93l34 -16q68 -36 106 -78.5t38 -107.5q0 -75 -40 -164.5t-97 -157.5h-189q56 65 88.5 134t32.5 122q0 41 -27 68t-82 53l-26 12
q-107 48 -145 127.5t-13 235.5l10 65q18 113 93 240t239 336l184 233h-352z" />
    <glyph glyph-name="eta" unicode="&#x3b7;" horiz-adv-x="845" 
d="M604 1049q115 0 162.5 -89t19.5 -239l-118 -672l-78 -448h-209l70 399l127 727q26 158 -78 158q-66 0 -102 -62t-60 -202l-109 -621h-206l118 678q40 236 25 346h209q9 -57 0 -152q46 91 99 134t130 43z" />
    <glyph glyph-name="theta" unicode="&#x3b8;" horiz-adv-x="823" 
d="M565 1489q60 0 108.5 -13t89 -41.5t63 -74t30 -112t-9.5 -154.5l-133 -744q-11 -62 -26 -112t-44 -101t-67.5 -85t-98.5 -55.5t-135 -21.5q-77 0 -135 19t-102 62.5t-56.5 115.5t2.5 178l131 744q9 46 16.5 78.5t22.5 77t33 75.5t47 64t65 53.5t87 33.5t112 13zM549 1329
q-68 0 -102.5 -55t-53.5 -166l-51 -283h250l49 281q21 112 -1 167.5t-91 55.5zM344 135q39 0 68 16t46.5 47t27.5 63.5t18 76.5l57 326h-248l-57 -324q-8 -55 -9.5 -100.5t22.5 -75t75 -29.5z" />
    <glyph glyph-name="iota" unicode="&#x3b9;" horiz-adv-x="456" 
d="M184 1024h207l-133 -758q-9 -52 2.5 -72t48.5 -20q17 0 41 4l-35 -186q-52 -10 -90 -10q-224 0 -174 274z" />
    <glyph glyph-name="kappa" unicode="&#x3ba;" horiz-adv-x="835" 
d="M817 1028q39 0 60 -6l-31 -178q-16 4 -31 4q-38 0 -65.5 -21t-73.5 -79l-98 -123l127 -625h-222l-84 461l-120 -150l-56 -311h-205l181 1024h204l-79 -451l262 318q61 74 114 105.5t117 31.5z" />
    <glyph glyph-name="lambda" unicode="&#x3bb;" horiz-adv-x="796" 
d="M-57 0l438 1044l-8 168q-4 65 -23 91t-59 26q-21 0 -49 -4l30 160q46 12 90 12q105 0 155.5 -55t57.5 -201l58 -983q3 -62 11.5 -83t37.5 -21q13 0 33 4l-31 -172q-46 -11 -76 -11q-88 0 -129.5 50.5t-42.5 169.5l-4 432q0 40 6 157h-8q-8 -32 -49 -157l-219 -627h-219z
" />
    <glyph glyph-name="uni03BC" unicode="&#x3bc;" horiz-adv-x="866" 
d="M629 1024h207l-121 -680q-42 -227 -27 -344h-201q-8 58 7 166q-81 -191 -222 -191q-39 0 -75 19l-68 -395h-182l252 1425h209l-132 -733l3 2q-13 -72 7.5 -111t65.5 -39q54 0 89.5 32t54.5 110z" />
    <glyph glyph-name="nu" unicode="&#x3bd;" horiz-adv-x="724" 
d="M311 205l170 491q4 11 18 52.5t18.5 55.5t15.5 49t16 57t11.5 53t10.5 61h217q-11 -75 -37.5 -149.5t-91.5 -231.5l-270 -643h-231l-58 1024h213l-10 -819h8z" />
    <glyph glyph-name="xi" unicode="&#x3be;" horiz-adv-x="679" 
d="M408 1079l-7 -26q-17 -91 23.5 -139t138.5 -48h101l-29 -168h-121q-60 0 -105 -16t-73.5 -46.5t-46 -68.5t-27.5 -88l-14 -80q-17 -83 7.5 -129t94.5 -75l78 -29q148 -64 139 -203q-3 -71 -39 -151t-94 -150h-186q112 137 117 242q3 44 -19 69t-74 45l-75 27
q-80 29 -122.5 78.5t-48.5 110.5t5 135l16 94q50 282 285 334q-84 22 -123.5 87.5t-20.5 155.5l7 35q17 83 70.5 135t148.5 78v2h-187l31 164h565l-30 -166h-146q-39 0 -74.5 -10.5t-69.5 -33.5t-59 -65t-36 -100z" />
    <glyph glyph-name="omicron" unicode="&#x3bf;" horiz-adv-x="794" 
d="M328 -25q-46 0 -86 7.5t-79 25.5t-65.5 48t-46 74t-20.5 104t10 139l53 301q12 65 28 116t45 101.5t68 83.5t98 53.5t134 20.5q46 0 85.5 -7.5t78.5 -25.5t65.5 -48t46 -74t20.5 -104t-11 -139l-54 -301q-11 -65 -27 -116t-44.5 -101.5t-67 -83.5t-97.5 -53.5t-134 -20.5
zM338 135q65 0 97.5 52.5t49.5 152.5l64 354q35 195 -92 195q-67 0 -100 -52.5t-50 -152.5l-61 -354q-35 -195 92 -195z" />
    <glyph glyph-name="pi" unicode="&#x3c0;" horiz-adv-x="950" 
d="M954 838h-131l-102 -578q-10 -60 4 -85t55 -25q14 0 32.5 2t21.5 2l-29 -158q-48 -12 -96 -12q-74 0 -121 22t-63.5 58.5t-20.5 84.5t8 99l104 590h-190l-147 -838h-207l147 838h-12q-47 0 -125 -19l33 180q63 25 139 25h735z" />
    <glyph glyph-name="rho" unicode="&#x3c1;" horiz-adv-x="817" 
d="M141 -399h-207l185 1046q12 69 28 123t44.5 108t67 89.5t96.5 57.5t132 22q173 0 248 -99.5t39 -302.5l-55 -315q-29 -165 -104 -260t-189 -95q-85 0 -135 41.5t-58 106.5zM358 135q68 0 101 49.5t49 151.5l63 352q35 199 -92 199q-35 0 -61.5 -15.5t-42.5 -45.5
t-25.5 -62t-17.5 -76l-64 -352q-36 -201 90 -201z" />
    <glyph glyph-name="uni03C2" unicode="&#x3c2;" horiz-adv-x="749" 
d="M346 197l64 -31q63 -31 99 -81t36 -110q0 -81 -38 -164t-97 -149h-185q115 149 115 246q0 40 -21.5 67t-68.5 48l-64 28q-101 44 -131 152t2 258l37 209q11 59 24.5 105t41 99.5t65 89t97.5 59.5t137 24q347 0 276 -367l-213 -27q25 119 9.5 176.5t-80.5 57.5
q-36 0 -62 -17.5t-42.5 -54t-26 -72.5t-19.5 -94l-31 -170q-11 -60 -14 -100t3.5 -77t27.5 -62t59 -43z" />
    <glyph glyph-name="sigma" unicode="&#x3c3;" horiz-adv-x="792" 
d="M524 1024h332l-33 -186h-80q-48 0 -92 12q62 -50 81.5 -119.5t0.5 -183.5l-33 -189q-32 -189 -121.5 -286t-250.5 -97q-59 0 -107.5 12.5t-89.5 41t-64.5 74t-32 111t8.5 153.5l45 268q16 91 43 157t75.5 121t128 83t189.5 28zM336 135q68 0 100.5 52.5t48.5 148.5
l43 242q17 94 18 158t-14 128h-83q-61 0 -95 -53.5t-55 -171.5l-53 -297q-34 -207 90 -207z" />
    <glyph glyph-name="tau" unicode="&#x3c4;" horiz-adv-x="667" 
d="M686 838h-201l-94 -533q-10 -68 4 -99.5t72 -31.5q16 0 74 4l-33 -180q-75 -16 -127 -16q-132 0 -180 68t-25 202l105 586h-84q-51 0 -115 -19l33 180q63 25 131 25h475z" />
    <glyph glyph-name="upsilon" unicode="&#x3c5;" 
d="M352 -25q-351 0 -282 394l114 655h209l-121 -684q-19 -91 -0.5 -145t84.5 -54q62 0 97.5 47.5t54.5 151.5l121 684h207l-117 -662q-7 -40 -14 -71.5t-21.5 -73.5t-32 -74t-45.5 -65t-63 -54.5t-84 -35t-107 -13.5z" />
    <glyph glyph-name="phi" unicode="&#x3c6;" horiz-adv-x="1060" 
d="M797 1454l-72 -410q70 -8 127.5 -33.5t102.5 -71.5t63 -121.5t2 -172.5l-47 -266q-11 -65 -29 -117.5t-51.5 -104t-80 -87.5t-116.5 -61t-159 -32l-66 -376h-199l64 376q-166 15 -244.5 118.5t-48.5 283.5l45 266q65 375 438 402l72 407h199zM770 393l43 238
q21 120 -5 182t-112 80l-133 -762q93 20 139.5 81.5t67.5 180.5zM293 631l-43 -238q-22 -125 3.5 -185t113.5 -77l133 762q-91 -18 -138.5 -80t-68.5 -182z" />
    <glyph glyph-name="chi" unicode="&#x3c7;" horiz-adv-x="743" 
d="M610 1026h221l-364 -688l76 -479q8 -51 19 -70.5t34 -19.5t35 2l-29 -170q-57 -11 -92 -11q-135 0 -156 181l-37 270q-10 85 -10 143h-4q-20 -62 -57 -143l-185 -440h-221l377 751l-55 418q-8 53 -19.5 71.5t-40.5 18.5q-18 0 -30 -2l30 170q63 10 91 10q71 0 106 -43
t45 -125l21 -211q13 -111 8 -161h4q27 78 67 164z" />
    <glyph glyph-name="psi" unicode="&#x3c8;" horiz-adv-x="1132" 
d="M805 371l117 653h206l-114 -647q-9 -50 -19 -89t-27.5 -82t-39.5 -75t-55.5 -62t-75.5 -49.5t-99.5 -31.5t-126.5 -13l-65 -374h-199l66 374q-179 6 -258.5 100.5t-42.5 301.5l112 647h209l-114 -653q-21 -119 4.5 -173t117.5 -57l232 1313h201l-232 -1313q99 3 140.5 57
t62.5 173z" />
    <glyph glyph-name="omega" unicode="&#x3c9;" horiz-adv-x="1179" 
d="M854 1024h213q74 -246 16 -559l-14 -82q-9 -52 -20 -95t-29 -92.5t-42.5 -86.5t-57.5 -69t-78.5 -48.5t-100.5 -16.5q-192 0 -206 224q-36 -101 -102 -162.5t-157 -61.5q-56 0 -98 17t-67 48t-40 69t-18.5 85.5t-1 93t11.5 95.5l13 72q64 346 217 569h213
q-86 -121 -141 -273.5t-78 -285.5l-13 -66q-10 -55 -13 -95.5t1 -77.5t22 -56.5t50 -19.5q25 0 44.5 11t31.5 27.5t22 45t15.5 54t11.5 64.5l67 389h205l-65 -389q-8 -48 -10.5 -81t2 -62.5t22.5 -44t49 -14.5q30 0 52.5 18t37.5 56t24.5 75.5t20.5 99.5l10 66q16 83 23 170
t-2 197t-41 192z" />
    <glyph glyph-name="iotadieresis" unicode="&#x3ca;" horiz-adv-x="456" 
d="M184 1024h207l-133 -758q-9 -52 2.5 -72t48.5 -20q17 0 41 4l-35 -186q-52 -10 -90 -10q-224 0 -174 274z" />
    <glyph glyph-name="upsilondieresis" unicode="&#x3cb;" 
d="M352 -25q-351 0 -282 394l114 655h209l-121 -684q-19 -91 -0.5 -145t84.5 -54q62 0 97.5 47.5t54.5 151.5l121 684h207l-117 -662q-7 -40 -14 -71.5t-21.5 -73.5t-32 -74t-45.5 -65t-63 -54.5t-84 -35t-107 -13.5z" />
    <glyph glyph-name="omicrontonos" unicode="&#x3cc;" horiz-adv-x="794" 
d="M328 -25q-46 0 -86 7.5t-79 25.5t-65.5 48t-46 74t-20.5 104t10 139l53 301q12 65 28 116t45 101.5t68 83.5t98 53.5t134 20.5q46 0 85.5 -7.5t78.5 -25.5t65.5 -48t46 -74t20.5 -104t-11 -139l-54 -301q-11 -65 -27 -116t-44.5 -101.5t-67 -83.5t-97.5 -53.5t-134 -20.5
zM338 135q65 0 97.5 52.5t49.5 152.5l64 354q35 195 -92 195q-67 0 -100 -52.5t-50 -152.5l-61 -354q-35 -195 92 -195z" />
    <glyph glyph-name="upsilontonos" unicode="&#x3cd;" 
d="M352 -25q-351 0 -282 394l114 655h209l-121 -684q-19 -91 -0.5 -145t84.5 -54q62 0 97.5 47.5t54.5 151.5l121 684h207l-117 -662q-7 -40 -14 -71.5t-21.5 -73.5t-32 -74t-45.5 -65t-63 -54.5t-84 -35t-107 -13.5z" />
    <glyph glyph-name="omegatonos" unicode="&#x3ce;" horiz-adv-x="1179" 
d="M854 1024h213q74 -246 16 -559l-14 -82q-9 -52 -20 -95t-29 -92.5t-42.5 -86.5t-57.5 -69t-78.5 -48.5t-100.5 -16.5q-192 0 -206 224q-36 -101 -102 -162.5t-157 -61.5q-56 0 -98 17t-67 48t-40 69t-18.5 85.5t-1 93t11.5 95.5l13 72q64 346 217 569h213
q-86 -121 -141 -273.5t-78 -285.5l-13 -66q-10 -55 -13 -95.5t1 -77.5t22 -56.5t50 -19.5q25 0 44.5 11t31.5 27.5t22 45t15.5 54t11.5 64.5l67 389h205l-65 -389q-8 -48 -10.5 -81t2 -62.5t22.5 -44t49 -14.5q30 0 52.5 18t37.5 56t24.5 75.5t20.5 99.5l10 66q16 83 23 170
t-2 197t-41 192z" />
    <glyph glyph-name="uni0401" unicode="&#x401;" horiz-adv-x="774" 
d="M885 1454l-31 -176h-389l-78 -440h358l-32 -176h-357l-86 -486h404l-31 -176h-618l256 1454h604z" />
    <glyph glyph-name="uni0404" unicode="&#x404;" horiz-adv-x="915" 
d="M606 1489q201 0 286 -101t52 -292l-16 -101l-234 -47l27 146q40 217 -127 217q-87 0 -131 -53t-66 -179l-45 -256h377l-29 -168h-376l-43 -241q-49 -271 129 -271q82 0 122 50t60 157l31 178l213 -45l-23 -131q-36 -199 -130.5 -293t-279.5 -94q-210 0 -295 122.5
t-47 342.5l109 627q39 223 139.5 327.5t296.5 104.5z" />
    <glyph glyph-name="uni0405" unicode="&#x405;" horiz-adv-x="831" 
d="M365 -35q-86 0 -154 23t-118 70t-69 128t-1 189l16 98l225 41l-24 -147q-22 -118 17 -173t112 -55q125 0 151 162l12 68q18 104 0 153t-83 96l-156 107q-97 68 -124.5 163.5t-2.5 221.5l16 82q9 48 24 87.5t43 80t66.5 68t97 44.5t132.5 17q399 0 336 -381l-15 -84
l-223 -41l21 109q39 225 -121 225q-37 0 -64 -11.5t-43 -34t-24.5 -45.5t-14.5 -55l-14 -73q-14 -74 5.5 -125t76.5 -92l162 -111q98 -69 127.5 -157t5.5 -226l-19 -104q-11 -69 -37 -124t-69.5 -100t-112 -69.5t-157.5 -24.5z" />
    <glyph glyph-name="uni0406" unicode="&#x406;" horiz-adv-x="442" 
d="M496 1454l-256 -1454h-215l256 1454h215z" />
    <glyph glyph-name="uni0408" unicode="&#x408;" horiz-adv-x="559" 
d="M621 1454l-207 -1184q-52 -295 -328 -295q-97 0 -162 25l35 193q52 -19 104 -19q64 0 97.5 35t44.5 108l201 1137h215z" />
    <glyph glyph-name="uni040F" unicode="&#x40f;" horiz-adv-x="980" 
d="M817 1454h215l-256 -1454h-276l-51 -287h-199l51 287h-276l256 1454h215l-226 -1274h324z" />
    <glyph glyph-name="uni0410" unicode="&#x410;" horiz-adv-x="907" 
d="M758 1454l35 -1454h-209v387h-291l-133 -387h-228l549 1454h277zM522 1049l-172 -496h234v489q3 132 8 222h-6q-25 -103 -64 -215z" />
    <glyph glyph-name="uni0411" unicode="&#x411;" horiz-adv-x="899" 
d="M928 1454l-35 -188h-430l-70 -392h115q181 0 267.5 -92.5t51.5 -296.5l-16 -90q-36 -218 -129.5 -306.5t-300.5 -88.5h-356l256 1454h647zM473 715h-108l-97 -555h117q106 0 145.5 50t61.5 177l18 109q21 117 -12 168t-125 51z" />
    <glyph glyph-name="uni0412" unicode="&#x412;" horiz-adv-x="907" 
d="M281 1454h309q84 0 150 -21t112 -62.5t65 -109t5 -155.5l-7 -51q-20 -127 -77.5 -203.5t-167.5 -101.5q92 -22 135 -102.5t18 -223.5l-10 -62q-15 -89 -42.5 -152t-75 -112.5t-122.5 -73.5t-180 -24h-368zM692 1042l10 56q7 61 2 99.5t-29.5 60.5t-52.5 30t-67 8h-88
l-82 -471h109q95 0 138 56t60 161zM594 371l14 78q21 125 -11.5 175t-125.5 50h-113l-90 -512h125q97 0 139.5 51.5t61.5 157.5z" />
    <glyph glyph-name="uni0413" unicode="&#x413;" horiz-adv-x="708" 
d="M864 1454l-33 -188h-368l-223 -1266h-215l256 1454h583z" />
    <glyph glyph-name="uni0414" unicode="&#x414;" horiz-adv-x="1087" 
d="M1090 1454l-226 -1274h123l-82 -467h-200l51 287h-631l-51 -287h-199l82 467h113q158 224 235 604q71 329 135 670h650zM500 768q-37 -183 -85.5 -323t-123.5 -265h358l193 1094h-242q-39 -215 -100 -506z" />
    <glyph glyph-name="uni0415" unicode="&#x415;" horiz-adv-x="774" 
d="M885 1454l-31 -176h-389l-78 -440h358l-32 -176h-357l-86 -486h404l-31 -176h-618l256 1454h604z" />
    <glyph glyph-name="uni0416" unicode="&#x416;" horiz-adv-x="1388" 
d="M1298 1454h215l-364 -651l133 -803h-223l-92 672h-140l-118 -672h-211l118 672h-131l-327 -672h-234l414 813l-135 641h219l100 -612h123l109 612h211l-109 -612h125z" />
    <glyph glyph-name="uni0417" unicode="&#x417;" horiz-adv-x="843" 
d="M342 -31q-40 0 -76.5 5t-74.5 16.5t-68 30.5t-57 48t-40 68.5t-19 92t7 118.5l11 60l215 28l-13 -71q-18 -115 8 -169.5t119 -54.5q42 0 72 12t47.5 28t30.5 48.5t18 55.5t13 67l12 76q21 115 -5.5 171t-117.5 56h-133l28 176h134q80 0 127 51.5t67 166.5l17 88
q33 182 -121 182q-48 0 -80.5 -16t-51.5 -50t-28 -65.5t-18 -83.5l-21 -103l-203 31l17 88q26 132 56 192q83 165 317 176q18 1 36 1q38 0 72 -4.5t70.5 -15t64.5 -28t53.5 -43.5t38.5 -61t18 -81.5t-7 -104.5l-19 -100q-25 -141 -80.5 -209.5t-167.5 -93.5
q101 -27 136 -104t14 -210l-12 -84q-9 -53 -19.5 -92t-29.5 -86.5t-48 -81t-70 -62.5t-102 -44t-137 -15z" />
    <glyph glyph-name="uni0418" unicode="&#x418;" horiz-adv-x="997" 
d="M1051 1454l-256 -1454h-199l156 887q35 195 59 321h-6q-47 -147 -125 -325l-385 -883h-270l256 1454h198l-153 -872q-17 -104 -60 -318h8q48 146 91 244l413 946h273z" />
    <glyph glyph-name="uni0419" unicode="&#x419;" horiz-adv-x="997" 
d="M1051 1454l-256 -1454h-199l156 887q35 195 59 321h-6q-47 -147 -125 -325l-385 -883h-270l256 1454h198l-153 -872q-17 -104 -60 -318h8q48 146 91 244l413 946h273z" />
    <glyph glyph-name="uni041A" unicode="&#x41a;" horiz-adv-x="925" 
d="M827 1454h217l-362 -663l129 -791h-223l-90 672h-140l-118 -672h-215l256 1454h215l-109 -612h123z" />
    <glyph glyph-name="uni041B" unicode="&#x41b;" horiz-adv-x="970" 
d="M360 1454h664l-256 -1454h-215l223 1274h-256q-115 -581 -194 -930q-16 -73 -34 -125.5t-45 -99t-62 -75t-84 -44.5t-113 -16q-46 0 -70 6l33 192q20 -4 39 -4q59 0 92 47t59 168q105 474 219 1061z" />
    <glyph glyph-name="uni041C" unicode="&#x41c;" horiz-adv-x="1228" 
d="M213 0h-188l256 1454h309l-4 -928q0 -122 -11 -213h9q17 81 65 213l322 928h309l-256 -1454h-190l147 834q45 258 76 397h-10q-50 -170 -76 -244l-350 -987h-193v987q-2 128 8 244h-8q-3 -20 -68 -397z" />
    <glyph glyph-name="uni041D" unicode="&#x41d;" horiz-adv-x="985" 
d="M821 1454h215l-256 -1454h-215l117 662h-326l-116 -662h-215l256 1454h215l-111 -625h328z" />
    <glyph glyph-name="uni041E" unicode="&#x41e;" horiz-adv-x="956" 
d="M412 -35q-75 0 -135.5 15t-111 48.5t-78.5 86.5t-38 129.5t10 177.5l115 651q18 98 48.5 170.5t81.5 129.5t130.5 86.5t186.5 29.5q74 0 134.5 -15t110.5 -48.5t78 -86.5t38 -129.5t-9 -177.5l-115 -651q-18 -98 -49 -170.5t-82 -129.5t-130 -86.5t-185 -29.5zM426 141
q51 0 89 18.5t61 54.5t36 75t23 92l123 692q22 125 -23 182.5t-131 57.5q-51 0 -88.5 -18.5t-60.5 -55t-35.5 -74.5t-22.5 -92l-123 -692q-23 -125 21.5 -182.5t130.5 -57.5z" />
    <glyph glyph-name="uni041F" unicode="&#x41f;" horiz-adv-x="980" 
d="M25 0l256 1454h751l-256 -1454h-215l225 1274h-323l-223 -1274h-215z" />
    <glyph glyph-name="uni0420" unicode="&#x420;" horiz-adv-x="860" 
d="M281 1454h313q61 0 112 -9t100 -34t80 -64.5t44.5 -106t1.5 -153.5l-21 -135q-9 -64 -25.5 -115t-48 -99t-75 -80t-110 -51t-150.5 -19h-160l-102 -588h-215zM690 971l21 110q11 52 5.5 89.5t-17 61.5t-35 37.5t-48 19t-55.5 5.5h-94l-96 -546h133q47 0 80.5 16
t53.5 49.5t31 68.5t21 89z" />
    <glyph glyph-name="uni0421" unicode="&#x421;" horiz-adv-x="915" 
d="M401 -35q-72 0 -130.5 15.5t-107.5 49.5t-75.5 89.5t-36 136t11.5 188.5l113 648q11 64 28.5 117t50 106.5t77 90.5t112 60t152.5 23q417 0 344 -414l-18 -100l-230 -47l29 166q40 219 -127 219q-41 0 -73.5 -14t-52 -34.5t-34 -53t-22 -60t-13.5 -64.5l-118 -675
q-26 -144 12 -206.5t117 -62.5q85 0 123.5 52t58.5 155l37 205l211 -49l-31 -170q-14 -83 -40 -145.5t-72 -116t-120.5 -81.5t-175.5 -28z" />
    <glyph glyph-name="uni0422" unicode="&#x422;" horiz-adv-x="796" 
d="M174 1454h780l-34 -188h-283l-221 -1266h-213l223 1266h-285z" />
    <glyph glyph-name="uni0423" unicode="&#x423;" horiz-adv-x="851" 
d="M309 260l10 21l-141 1173h217l47 -762q7 -107 7 -170h6q25 106 51 170l282 762h218l-459 -1110q-27 -64 -47 -105.5t-47.5 -88.5t-56 -75t-66 -53t-83.5 -36t-102 -11q-63 0 -106 19l31 180q44 -14 88 -14q58 0 92.5 23.5t58.5 76.5z" />
    <glyph glyph-name="uni0424" unicode="&#x424;" horiz-adv-x="1169" 
d="M862 1489l-16 -94q189 0 273.5 -129.5t43.5 -362.5l-59 -346q-44 -251 -158.5 -373.5t-329.5 -122.5h-6l-16 -96h-211l18 96q-196 2 -278.5 127.5t-40.5 368.5l63 354q44 242 161.5 363t324.5 121h6l16 94h209zM348 889l-59 -332q-12 -67 -13.5 -119.5t10 -102t48.5 -77
t98 -27.5h2l176 994h-4q-119 0 -172.5 -78.5t-85.5 -257.5zM897 563l59 330q13 71 14 126t-11.5 104t-49 75.5t-96.5 26.5l-178 -994h4q119 0 173.5 79t84.5 253z" />
    <glyph glyph-name="uni0425" unicode="&#x425;" horiz-adv-x="878" 
d="M170 0h-246l420 782l-143 672h225l72 -401q4 -22 8 -148h4q26 81 57 148l205 401h234l-375 -688l143 -766h-225l-70 506q-7 48 -4 147h-4q-38 -108 -57 -147z" />
    <glyph glyph-name="uni0426" unicode="&#x426;" horiz-adv-x="1032" 
d="M817 1454h215l-225 -1274h125l-82 -467h-203l51 287h-673l256 1454h215l-226 -1274h324z" />
    <glyph glyph-name="uni0427" unicode="&#x427;" horiz-adv-x="946" 
d="M666 791l116 663h215l-256 -1454h-215l107 600q-92 -29 -178 -29q-67 0 -121.5 15.5t-97.5 49t-67 92t-24 138.5q0 57 13 133l80 455h215l-78 -440q-8 -47 -8 -94q0 -81 38 -116.5t121 -35.5q67 0 140 23z" />
    <glyph glyph-name="uni0428" unicode="&#x428;" horiz-adv-x="1400" 
d="M1014 180l223 1274h215l-256 -1454h-1171l256 1454h215l-224 -1274h260l226 1274h215l-225 -1274h266z" />
    <glyph glyph-name="uni0429" unicode="&#x429;" horiz-adv-x="1452" 
d="M1237 1454h215l-225 -1274h125l-82 -467h-201l51 287h-1095l256 1454h215l-224 -1274h260l226 1274h215l-225 -1274h266z" />
    <glyph glyph-name="uni042A" unicode="&#x42a;" horiz-adv-x="1064" 
d="M571 915h105q390 0 321 -391l-24 -137q-36 -213 -130 -300t-300 -87h-348l223 1266h-275l31 188h492zM756 385l26 150q21 115 -14.5 166t-130.5 51h-94l-105 -586h105q57 0 94.5 13t60.5 44t35 66.5t23 95.5z" />
    <glyph glyph-name="uni042B" unicode="&#x42b;" horiz-adv-x="1267" 
d="M401 915h105q390 0 321 -391l-24 -137q-36 -213 -130 -300t-300 -87h-348l256 1454h215zM848 0l256 1454h215l-256 -1454h-215zM586 385l26 150q21 115 -14.5 166t-130.5 51h-94l-105 -586h105q57 0 94.5 13t60.5 44t35 66.5t23 95.5z" />
    <glyph glyph-name="uni042C" unicode="&#x42c;" horiz-adv-x="894" 
d="M401 915h105q390 0 321 -391l-24 -137q-36 -213 -130 -300t-300 -87h-348l256 1454h215zM586 385l26 150q21 115 -14.5 166t-130.5 51h-94l-105 -586h105q57 0 94.5 13t60.5 44t35 66.5t23 95.5z" />
    <glyph glyph-name="uni042D" unicode="&#x42d;" horiz-adv-x="913" 
d="M590 1489q46 0 86 -5.5t81.5 -18.5t72.5 -34.5t58.5 -54.5t40 -78.5t17 -105t-11.5 -135.5l-111 -637q-20 -114 -49 -192.5t-79 -140.5t-128 -92t-188 -30q-180 0 -273 96.5t-61 290.5l18 101l230 49l-27 -152q-35 -205 131 -205q86 0 132 63t69 189l45 258h-313l28 170
h314l45 254q42 232 -127 232q-85 0 -127.5 -55t-63.5 -162l-24 -129l-213 45l16 92q67 387 412 387z" />
    <glyph glyph-name="uni042E" unicode="&#x42e;" horiz-adv-x="1363" 
d="M1030 1489q74 0 134.5 -15t110 -48.5t77.5 -86.5t38 -129.5t-10 -177.5l-114 -651q-17 -98 -47.5 -170.5t-82 -129.5t-130.5 -86.5t-185 -29.5q-73 0 -132 15t-108.5 48.5t-77 86.5t-37 129.5t10.5 177.5l39 225h-162l-114 -647h-215l256 1454h215l-113 -639h164l45 258
q18 98 48 170.5t80.5 129.5t128 86.5t181.5 29.5zM1044 381l121 692q23 125 -21 182.5t-130 57.5q-51 0 -89 -18.5t-61 -54.5t-36 -75t-23 -92l-121 -692q-23 -125 21.5 -182.5t130.5 -57.5q42 0 74.5 13t54 34t37.5 54t25 65t17 74z" />
    <glyph glyph-name="uni042F" unicode="&#x42f;" horiz-adv-x="905" 
d="M614 1454h342l-256 -1454h-215l109 610h-123l-299 -610h-227l329 649q-164 87 -116 350l16 82q33 184 140 278.5t300 94.5zM506 760h115l94 536h-113q-87 0 -137 -48.5t-72 -170.5l-14 -84q-23 -118 7.5 -175.5t119.5 -57.5z" />
    <glyph glyph-name="uni0430" unicode="&#x430;" horiz-adv-x="790" 
d="M205 -25q-107 0 -162 70t-35 197l8 57q20 149 121 225q79 62 219 76l152 14l20 142q21 139 -79 139q-56 0 -82 -28t-37 -97l-15 -86h-204l12 88q21 143 104.5 210t229.5 67q48 0 87.5 -6.5t75 -22t59 -40.5t40 -61.5t17 -86t-8.5 -113.5l-82 -471q-27 -164 -27 -248h-192
q-2 43 12 160q-26 -90 -86 -137.5t-147 -47.5zM303 131q114 0 146 164l36 201l-84 -9q-143 -15 -165 -170l-11 -59q-20 -127 78 -127z" />
    <glyph glyph-name="uni0431" unicode="&#x431;" horiz-adv-x="794" 
d="M647 1243l-125 -33q-75 -20 -116.5 -70t-65.5 -143l-33 -123q80 175 252 175q114 0 174.5 -84t32.5 -238l-61 -342q-9 -50 -18 -87.5t-24 -83t-33 -78t-46.5 -65t-62.5 -53t-82 -33t-105 -12.5q-166 0 -246.5 97t-46.5 297q26 160 98 567q12 68 27.5 122.5t41 109
t59.5 94t83 70t111 44.5l106 25q61 15 86.5 36t34.5 62h176q-14 -110 -63.5 -170t-153.5 -84zM451 891q-44 0 -74 -29.5t-44.5 -71.5t-25.5 -108l-57 -322q-11 -69 -9.5 -118.5t26.5 -77t75 -27.5q32 0 56 13t38 30.5t26 50.5t17.5 59t12.5 70l57 330q18 102 -5 151.5
t-93 49.5z" />
    <glyph glyph-name="uni0432" unicode="&#x432;" horiz-adv-x="796" 
d="M199 1024h288q149 0 224 -60t53 -188l-6 -43q-11 -78 -61.5 -133.5t-139.5 -71.5q180 -39 145 -227l-8 -45q-23 -127 -100.5 -191.5t-243.5 -64.5h-332zM545 721l6 41q12 68 -12.5 97.5t-85.5 29.5h-74l-53 -303h77q70 0 100.5 36t41.5 99zM483 264l11 55
q12 73 -15.5 106.5t-95.5 33.5h-80l-55 -324h106q33 0 57.5 11t38.5 32t21 40t12 46z" />
    <glyph glyph-name="uni0433" unicode="&#x433;" horiz-adv-x="598" 
d="M199 1024h458l-28 -168h-256l-150 -856h-205z" />
    <glyph glyph-name="uni0434" unicode="&#x434;" horiz-adv-x="937" 
d="M324 1024h559l-150 -854h94l-73 -426h-195l45 256h-452l-46 -256h-192l76 426h86q85 130 149 362q37 131 99 492zM399 510q-61 -218 -133 -340h262l121 684h-176q-36 -187 -74 -344z" />
    <glyph glyph-name="uni0435" unicode="&#x435;" horiz-adv-x="776" 
d="M463 1049q164 0 236 -94t42 -257q-15 -91 -39 -217h-432l-28 -155q-31 -187 94 -187q54 0 84.5 35t44.5 109l14 71l197 -30l-17 -74q-25 -123 -105 -199t-222 -76q-158 0 -242 94t-51 281l61 348q62 351 363 351zM539 735q29 174 -86 174q-63 0 -94.5 -48t-45.5 -128
l-22 -127h225q3 22 23 129z" />
    <glyph glyph-name="uni0436" unicode="&#x436;" horiz-adv-x="1146" 
d="M1004 1024h219l-305 -471l131 -553h-224l-92 436h-80l-75 -436h-191l76 436h-72l-252 -436h-221l324 553l-136 471h220l88 -428h78l75 428h191l-76 -428h80z" />
    <glyph glyph-name="uni0437" unicode="&#x437;" horiz-adv-x="751" 
d="M299 -25q-65 0 -118.5 13.5t-98 44.5t-64 88.5t-6.5 136.5l8 57l209 19l-12 -66q-11 -70 10.5 -106.5t87.5 -36.5q60 0 89 33t40 108l7 39q10 74 -13.5 104.5t-87.5 30.5h-86l25 148h80q61 0 92.5 26.5t44.5 98.5l12 67q10 66 -13 94.5t-77 28.5q-62 0 -87 -36t-38 -105
l-14 -76l-199 14l10 58q10 56 23.5 97t39 79.5t61.5 62t91.5 38t128.5 14.5q145 0 224.5 -67t56.5 -202l-12 -59q-11 -70 -53.5 -124.5t-127.5 -68.5q82 -24 109.5 -79.5t13.5 -145.5l-14 -80q-8 -49 -28.5 -90.5t-58.5 -78.5t-103 -58t-152 -21z" />
    <glyph glyph-name="uni0438" unicode="&#x438;" horiz-adv-x="856" 
d="M252 0h-234l181 1024h180l-109 -608l-34 -199h8q33 108 65 178l295 629h234l-181 -1024h-180l111 629l30 178h-6q-44 -129 -67 -178z" />
    <glyph glyph-name="uni0439" unicode="&#x439;" horiz-adv-x="856" 
d="M252 0h-234l181 1024h180l-109 -608l-34 -199h8q33 108 65 178l295 629h234l-181 -1024h-180l111 629l30 178h-6q-44 -129 -67 -178z" />
    <glyph glyph-name="uni043A" unicode="&#x43a;" horiz-adv-x="796" 
d="M641 1024h217l-303 -471l131 -553h-223l-94 436h-70l-76 -436h-205l181 1024h204l-75 -428h71z" />
    <glyph glyph-name="uni043B" unicode="&#x43b;" horiz-adv-x="827" 
d="M246 1024h563l-180 -1024h-205l149 854h-176l-88 -442q-35 -168 -78 -261t-97.5 -129t-137.5 -36q-39 0 -66 8l33 172h21q47 0 78 50.5t59 186.5q57 268 125 621z" />
    <glyph glyph-name="uni043C" unicode="&#x43c;" horiz-adv-x="1130" 
d="M844 741l-291 -741h-172l-21 741q0 51 5 107h-9q-3 -18 -11.5 -64.5t-12.5 -76.5l-125 -707h-189l181 1024h309l8 -651q0 -67 -10 -142h6q19 77 43 142l248 651h309l-180 -1024h-191l125 707q5 30 13.5 78t11.5 63h-8q-11 -37 -39 -107z" />
    <glyph glyph-name="uni043D" unicode="&#x43d;" horiz-adv-x="837" 
d="M539 598l75 426h205l-180 -1024h-205l78 438h-211l-78 -438h-205l181 1024h204l-75 -426h211z" />
    <glyph glyph-name="uni043E" unicode="&#x43e;" horiz-adv-x="794" 
d="M328 -25q-46 0 -86 7.5t-79 25.5t-65.5 48t-46 74t-20.5 104t10 139l53 301q12 65 28 116t45 101.5t68 83.5t98 53.5t134 20.5q46 0 85.5 -7.5t78.5 -25.5t65.5 -48t46 -74t20.5 -104t-11 -139l-54 -301q-11 -65 -27 -116t-44.5 -101.5t-67 -83.5t-97.5 -53.5t-134 -20.5
zM338 135q65 0 97.5 52.5t49.5 152.5l64 354q35 195 -92 195q-67 0 -100 -52.5t-50 -152.5l-61 -354q-35 -195 92 -195z" />
    <glyph glyph-name="uni043F" unicode="&#x43f;" horiz-adv-x="833" 
d="M223 0h-205l181 1024h616l-180 -1024h-205l152 854h-207z" />
    <glyph glyph-name="uni0440" unicode="&#x440;" horiz-adv-x="845" 
d="M154 -399h-205l252 1423h194l-30 -152q44 88 99.5 132.5t137.5 44.5q21 0 41 -3t45.5 -13.5t46 -27.5t38.5 -48.5t27.5 -73t9 -104t-14.5 -138.5l-43 -246q-11 -63 -24 -114t-38.5 -110.5t-57.5 -100t-83 -68t-113 -27.5q-77 0 -126 41t-62 117zM367 141q72 0 109 58.5
t54 162.5l54 304q22 120 -4 168.5t-78 48.5q-70 0 -107 -58.5t-57 -162.5l-53 -304q-20 -118 6 -167.5t76 -49.5z" />
    <glyph glyph-name="uni0441" unicode="&#x441;" horiz-adv-x="763" 
d="M330 -25q-163 0 -244 92.5t-49 274.5l59 344q32 182 120.5 272.5t236.5 90.5q353 0 290 -334l-12 -58l-209 -26l15 78q19 104 -5 140t-81 36t-91 -47t-51 -146l-63 -362q-17 -104 9 -147.5t79 -43.5q55 0 83 36.5t44 117.5l20 110l201 -34l-18 -97q-29 -149 -116 -223
t-218 -74z" />
    <glyph glyph-name="uni0442" unicode="&#x442;" horiz-adv-x="636" 
d="M113 1024h592l-31 -168h-191l-151 -856h-205l152 856h-195z" />
    <glyph glyph-name="uni0443" unicode="&#x443;" horiz-adv-x="741" 
d="M-6 -410q-59 0 -100 13l30 182q33 -10 74 -10q99 0 141 104l45 115l-84 1030h222l12 -653q0 -83 -15 -185h7q19 83 51 181l227 657h217l-481 -1176q-33 -80 -71 -133t-83 -79.5t-89 -36t-103 -9.5z" />
    <glyph glyph-name="uni0444" unicode="&#x444;" horiz-adv-x="1218" 
d="M1001 1049q119 0 167 -87.5t16 -263.5l-64 -366q-7 -36 -12 -60.5t-14.5 -60.5t-20 -61t-25 -54.5t-33.5 -49t-42.5 -37t-54 -26t-66.5 -8.5q-83 0 -135.5 37t-71.5 123l-94 -536h-205l98 557q-89 -181 -231 -181q-240 0 -182 342l69 381q9 52 19.5 94t32 92.5t50 84
t73.5 57t102 23.5q76 0 124 -36.5t74 -113.5l103 584h205l-105 -592q84 158 223 158zM481 371l29 153l31 183q21 176 -92 176q-104 0 -136 -183l-61 -346q-21 -106 -3.5 -159.5t77.5 -53.5q115 0 155 230zM907 340l64 360q17 95 -3.5 139t-78.5 44q-107 0 -148 -205
l-59 -340q-27 -197 90 -197q61 0 89.5 50t45.5 149z" />
    <glyph glyph-name="uni0445" unicode="&#x445;" horiz-adv-x="729" 
d="M150 0h-232l326 537l-123 487h213l41 -262q10 -58 10 -103h6q4 16 12 33t19 37.5t16 32.5l129 262h221l-292 -494l135 -530h-213l-51 289q-11 91 -11 102h-6q-6 -18 -47 -102z" />
    <glyph glyph-name="uni0446" unicode="&#x446;" horiz-adv-x="858" 
d="M602 1024h205l-150 -854h91l-74 -426h-191l43 256h-508l181 1024h204l-151 -854h199z" />
    <glyph glyph-name="uni0447" unicode="&#x447;" horiz-adv-x="806" 
d="M500 539l86 485h205l-183 -1024h-205l68 377q-59 -21 -131 -21q-38 0 -71 6t-66 23t-56 43t-37 69t-14 99q0 55 10 104l58 324h205l-58 -309q-8 -39 -8 -97q0 -102 105 -102q50 0 92 23z" />
    <glyph glyph-name="uni0448" unicode="&#x448;" horiz-adv-x="1224" 
d="M852 170l149 854h205l-180 -1024h-1008l181 1024h204l-149 -854h197l149 854h205l-150 -854h197z" />
    <glyph glyph-name="uni0449" unicode="&#x449;" horiz-adv-x="1259" 
d="M1001 1024h205l-149 -854h94l-76 -426h-190l43 256h-910l181 1024h204l-149 -854h197l149 854h205l-150 -854h197z" />
    <glyph glyph-name="uni044A" unicode="&#x44a;" horiz-adv-x="874" 
d="M440 680h92q145 0 214.5 -68t48.5 -225l-13 -84q-7 -53 -21.5 -95.5t-42 -82.5t-66.5 -66.5t-98 -42.5t-134 -16h-303l151 856h-184l29 168h389zM578 307l10 72q14 86 -13 124t-106 38h-53l-70 -400h57q84 0 122 40.5t53 125.5z" />
    <glyph glyph-name="uni044B" unicode="&#x44b;" horiz-adv-x="776" 
d="M342 680h92q144 0 212.5 -68t47.5 -225l-10 -84q-7 -53 -21.5 -95.5t-42 -82.5t-66.5 -66.5t-98 -42.5t-134 -16h-304l181 1024h204zM477 307l12 72q14 86 -13 124t-105 38h-54l-69 -400h57q83 0 121 41t51 125z" />
    <glyph glyph-name="uni044C" unicode="&#x44c;" horiz-adv-x="776" 
d="M342 680h92q144 0 212.5 -68t47.5 -225l-10 -84q-7 -53 -21.5 -95.5t-42 -82.5t-66.5 -66.5t-98 -42.5t-134 -16h-304l181 1024h204zM477 307l12 72q14 86 -13 124t-105 38h-54l-69 -400h57q83 0 121 41t51 125z" />
    <glyph glyph-name="uni044D" unicode="&#x44d;" horiz-adv-x="761" 
d="M444 1049q347 0 281 -379l-59 -334q-12 -64 -24 -108.5t-39 -96t-64 -83t-98 -52.5t-142 -21q-64 0 -117.5 14t-98.5 46t-64.5 91.5t-6.5 141.5l11 58l213 18l-13 -61q-13 -76 5.5 -114t80.5 -38q32 0 55 10.5t36.5 24.5t24 43t15 51t11.5 64l22 125h-225l26 147h226
l16 88q23 107 5.5 160t-89.5 53q-57 0 -85.5 -39.5t-43.5 -116.5l-10 -55l-203 14l8 52q52 297 346 297z" />
    <glyph glyph-name="uni044E" unicode="&#x44e;" horiz-adv-x="1171" 
d="M254 1430h215l-43 -244h-215zM846 1049q45 0 84.5 -7.5t78 -25.5t65 -48t46 -74t20.5 -104t-10 -139l-55 -301q-11 -65 -27 -116t-44 -101.5t-66.5 -83.5t-97.5 -53.5t-133 -20.5q-44 0 -82 7.5t-75.5 25.5t-63 48t-44 74t-19.5 104t11 139l12 67h-147l-78 -440h-203
l181 1024h202l-73 -424h147l12 74q11 65 26.5 116t43.5 101.5t65.5 83.5t94.5 53.5t129 20.5zM866 340l64 354q33 195 -94 195q-66 0 -98.5 -52.5t-49.5 -152.5l-63 -354q-35 -195 92 -195q67 0 99.5 52t49.5 153z" />
    <glyph glyph-name="uni044F" unicode="&#x44f;" horiz-adv-x="792" 
d="M774 1024l-180 -1024h-205l66 377h-86l-191 -377h-213l225 410q-129 66 -94 272l6 37q53 305 371 305h301zM412 518h69l64 365h-80q-66 0 -103.5 -37.5t-54.5 -132.5l-6 -33q-13 -83 10 -122.5t101 -39.5z" />
    <glyph glyph-name="uni0451" unicode="&#x451;" horiz-adv-x="776" 
d="M463 1049q164 0 236 -94t42 -257q-15 -91 -39 -217h-432l-28 -155q-31 -187 94 -187q54 0 84.5 35t44.5 109l14 71l197 -30l-17 -74q-25 -123 -105 -199t-222 -76q-158 0 -242 94t-51 281l61 348q62 351 363 351zM539 735q29 174 -86 174q-63 0 -94.5 -48t-45.5 -128
l-22 -127h225q3 22 23 129z" />
    <glyph glyph-name="uni0454" unicode="&#x454;" horiz-adv-x="765" 
d="M463 1049q162 0 235.5 -90.5t46.5 -237.5v-4l-217 -31l11 49q27 160 -88 160q-34 0 -59 -13.5t-40.5 -38.5t-24 -51t-14.5 -59l-24 -137h227l-27 -147h-225l-22 -123q-31 -187 94 -187q54 0 84.5 35t44.5 109l12 61l197 -31l-15 -63q-25 -123 -105 -199t-222 -76
q-158 0 -242 94t-51 281l61 348q62 351 363 351z" />
    <glyph glyph-name="uni0455" unicode="&#x455;" horiz-adv-x="737" 
d="M307 -25q-69 0 -126 16t-101.5 49t-63 91t-4.5 135l11 51l213 35l-13 -67q-13 -88 12 -124t84 -36q83 0 101 102l10 54q10 54 -4 88t-72 57l-106 35q-81 29 -119.5 104.5t-17.5 184.5l14 67q19 104 93.5 168t217.5 64q65 0 118 -13.5t97 -43.5t62 -86.5t4 -135.5l-8 -49
l-209 -29l10 74q11 74 -10 105.5t-70 31.5q-83 0 -102 -94l-13 -57q-19 -107 68 -144l106 -41q106 -41 138 -109t12 -177l-12 -64q-41 -242 -320 -242z" />
    <glyph glyph-name="uni0458" unicode="&#x458;" horiz-adv-x="421" 
d="M430 1186h-215l43 244h215zM-59 -414q-66 0 -119 17l33 174q30 -10 53 -10q42 0 61 21t27 65l203 1171h204l-210 -1210q-9 -50 -25.5 -88.5t-45 -71.5t-74 -50.5t-107.5 -17.5z" />
    <glyph glyph-name="Wgrave" unicode="&#x1e80;" horiz-adv-x="1263" 
d="M403 0h-278l86 1454h203l-78 -985q-9 -117 -29 -250h8q10 35 32.5 117t35.5 125l295 993h235l-55 -993q-2 -41 -9 -123t-9 -119h8q23 107 59 250l271 985h206l-426 -1454h-276l53 944q4 55 27 270h-10q-31 -142 -70 -270z" />
    <glyph glyph-name="wgrave" unicode="&#x1e81;" horiz-adv-x="1105" 
d="M344 0h-223l-4 1024h202l-38 -711q0 -3 -11 -114h4q7 33 33 114l232 711h206l-20 -711q-4 -76 -8 -114h6q8 56 27 114l213 711h206l-362 -1024h-223l16 702q0 45 14 136h-6q-3 -12 -9.5 -39.5t-12.5 -51.5t-13 -45z" />
    <glyph glyph-name="Wacute" unicode="&#x1e82;" horiz-adv-x="1263" 
d="M403 0h-278l86 1454h203l-78 -985q-9 -117 -29 -250h8q10 35 32.5 117t35.5 125l295 993h235l-55 -993q-2 -41 -9 -123t-9 -119h8q23 107 59 250l271 985h206l-426 -1454h-276l53 944q4 55 27 270h-10q-31 -142 -70 -270z" />
    <glyph glyph-name="wacute" unicode="&#x1e83;" horiz-adv-x="1105" 
d="M344 0h-223l-4 1024h202l-38 -711q0 -3 -11 -114h4q7 33 33 114l232 711h206l-20 -711q-4 -76 -8 -114h6q8 56 27 114l213 711h206l-362 -1024h-223l16 702q0 45 14 136h-6q-3 -12 -9.5 -39.5t-12.5 -51.5t-13 -45z" />
    <glyph glyph-name="Wdieresis" unicode="&#x1e84;" horiz-adv-x="1263" 
d="M403 0h-278l86 1454h203l-78 -985q-9 -117 -29 -250h8q10 35 32.5 117t35.5 125l295 993h235l-55 -993q-2 -41 -9 -123t-9 -119h8q23 107 59 250l271 985h206l-426 -1454h-276l53 944q4 55 27 270h-10q-31 -142 -70 -270z" />
    <glyph glyph-name="wdieresis" unicode="&#x1e85;" horiz-adv-x="1105" 
d="M344 0h-223l-4 1024h202l-38 -711q0 -3 -11 -114h4q7 33 33 114l232 711h206l-20 -711q-4 -76 -8 -114h6q8 56 27 114l213 711h206l-362 -1024h-223l16 702q0 45 14 136h-6q-3 -12 -9.5 -39.5t-12.5 -51.5t-13 -45z" />
    <glyph glyph-name="Ygrave" unicode="&#x1ef2;" horiz-adv-x="841" 
d="M438 0h-215l103 582l-152 872h223l62 -514q6 -86 2 -158h6q24 80 59 158l242 514h231l-458 -872z" />
    <glyph glyph-name="ygrave" unicode="&#x1ef3;" horiz-adv-x="741" 
d="M-6 -410q-59 0 -100 13l30 182q33 -10 74 -10q99 0 141 104l45 115l-84 1030h222l12 -653q0 -83 -15 -185h7q19 83 51 181l227 657h217l-481 -1176q-33 -80 -71 -133t-83 -79.5t-89 -36t-103 -9.5z" />
    </font>
</defs>
</svg>
