<?xml version="1.0" standalone="no"?>
<!DOCTYPE svg PUBLIC "-//W3C//DTD SVG 1.1//EN" "http://www.w3.org/Graphics/SVG/1.1/DTD/svg11.dtd" >
<svg xmlns="http://www.w3.org/2000/svg" xmlns:xlink="http://www.w3.org/1999/xlink" version="1.1">
<metadata>
Created by FontForge 20170731 at Wed Apr 20 08:50:55 2022
 By Aleksey,,,
Copyright (c) 2016 by Grilli Type. All rights reserved.
</metadata>
<defs>
<font id="GTAmericaTrial-CmULtIt" horiz-adv-x="671" >
  <font-face 
    font-family="GT America Trial Cm U Lt It"
    font-weight="250"
    font-style="italic"
    font-stretch="ultra-condensed"
    units-per-em="2048"
    panose-1="0 0 3 8 0 0 0 0 0 0"
    ascent="1608"
    descent="-440"
    x-height="1024"
    cap-height="1454"
    bbox="-188 -440 1616 1608"
    underline-thickness="102"
    underline-position="-307"
    slope="-10"
    unicode-range="U+0020-1EF3"
  />
<missing-glyph horiz-adv-x="1024" 
d="M190 1608h650v-2048h-650v2048zM682 1403v67h-338v-67h133v-76h-135v-67h340v67h-135v76h135zM547 1063v143h-205v-213h340v70h-135zM410 1137h67v-74h-67v74zM682 870v68h-340v-68h135v-75h-135v-68h205v143h135zM682 610v205h-68v-135h-272v-70h340zM682 334v231h-205
v-114h70v47h67v-97h-204v164h-68v-231h340zM682 -20v231h-340v-231h340zM410 143h204v-96h-204v96zM682 -135v67h-340v-67h143l-143 -96v-68h340v68h-209l143 96h66z" />
    <glyph glyph-name=".notdef" horiz-adv-x="1024" 
d="M190 1608h650v-2048h-650v2048zM682 1403v67h-338v-67h133v-76h-135v-67h340v67h-135v76h135zM547 1063v143h-205v-213h340v70h-135zM410 1137h67v-74h-67v74zM682 870v68h-340v-68h135v-75h-135v-68h205v143h135zM682 610v205h-68v-135h-272v-70h340zM682 334v231h-205
v-114h70v47h67v-97h-204v164h-68v-231h340zM682 -20v231h-340v-231h340zM410 143h204v-96h-204v96zM682 -135v67h-340v-67h143l-143 -96v-68h340v68h-209l143 96h66z" />
    <glyph glyph-name=".null" horiz-adv-x="0" 
 />
    <glyph glyph-name=".null" horiz-adv-x="0" 
 />
    <glyph glyph-name="nonmarkingreturn" horiz-adv-x="682" 
 />
    <glyph glyph-name="space" unicode=" " horiz-adv-x="376" 
 />
    <glyph glyph-name="comma" unicode="," horiz-adv-x="290" 
d="M-20 -217l-17 29q35 21 54.5 55t31.5 100l6 33h-32l30 168h64l-35 -199q-25 -141 -102 -186z" />
    <glyph glyph-name="hyphen" unicode="-" horiz-adv-x="548" 
d="M80 545l8 49h401l-8 -49h-401z" />
    <glyph glyph-name="period" unicode="." horiz-adv-x="288" 
d="M51 168h64l-29 -168h-63z" />
    <glyph glyph-name="zero" unicode="0" horiz-adv-x="768" 
d="M311 -31q-43 0 -81 10.5t-74.5 36t-57.5 67.5t-30 106t8 151l131 743q8 47 15.5 78.5t20.5 74t28 70.5t39 58.5t53.5 48.5t71 29.5t91.5 11.5q43 0 81 -10.5t75 -36t58 -67.5t30 -106t-8 -151l-131 -743q-10 -55 -19 -92t-25 -84.5t-38.5 -78.5t-54.5 -59.5t-78.5 -42.5
t-104.5 -14zM319 14q54 0 95.5 19.5t67 48t45 75t29 85t19.5 94.5l132 749q13 62 10 109.5t-10.5 82t-26 58.5t-36.5 38.5t-43 22.5t-43.5 10.5t-39.5 2.5q-54 0 -95.5 -19.5t-67 -48t-45 -75t-29 -85t-19.5 -94.5l-131 -749q-9 -53 -10 -97.5t6 -76t18.5 -56.5t29 -41
t34.5 -27t38 -16.5t37.5 -7.5t34.5 -2z" />
    <glyph glyph-name="one" unicode="1" horiz-adv-x="516" 
d="M236 0h-54l226 1268q-20 -47 -78.5 -79t-124.5 -32h-43l8 51h33q86 0 146.5 57.5t92.5 157.5h45z" />
    <glyph glyph-name="two" unicode="2" horiz-adv-x="706" 
d="M541 0h-561l8 45q337 407 477 614q91 132 134 233.5t67 217.5l10 51q24 118 -17.5 183t-148.5 65q-60 0 -104 -20.5t-72 -60t-44 -83.5t-28 -104q-13 -67 -18 -119l-54 4q6 59 17 115q11 52 23 91t35.5 83t54 72.5t79.5 47.5t111 19q133 0 190.5 -78.5t28.5 -218.5
l-8 -39q-27 -130 -69.5 -234.5t-125.5 -226.5q-119 -175 -471 -608h494z" />
    <glyph glyph-name="three" unicode="3" horiz-adv-x="727" 
d="M291 -31q-43 0 -80 9t-73.5 31t-57 59t-30 93.5t6.5 133.5l19 102l53 4l-20 -110q-15 -69 -7.5 -117.5t23 -79.5t45 -49t58.5 -24.5t63 -6.5q60 0 103 18t70 55.5t43 83.5t28 114l22 129q54 307 -147 307h-76l8 47h72q91 0 151 60.5t88 209.5l23 125q44 246 -178 246
q-53 0 -93.5 -18.5t-62.5 -40t-39.5 -64.5t-22 -64t-12.5 -66l-1.5 -7.5t-1 -6.5t-1.5 -7l-16 -91l-51 5l14 84q6 34 10.5 56.5t15 59.5t23.5 62t35 54t49.5 47t67 30t86.5 12q279 0 229 -295l-20 -119q-13 -76 -35 -129.5t-53 -86t-62.5 -50t-75.5 -29.5q92 -22 122.5 -102
t4.5 -235l-20 -123q-26 -157 -95 -236.5t-202 -79.5z" />
    <glyph glyph-name="four" unicode="4" horiz-adv-x="708" 
d="M647 410l-8 -45h-154l-63 -365h-51l63 365h-438l6 38l608 1020h62l-178 -1013h153zM442 410l150 823q17 97 26 131h-4q-39 -87 -65 -129l-414 -690q-71 -120 -80 -135h387z" />
    <glyph glyph-name="five" unicode="5" horiz-adv-x="724" 
d="M301 -31q-57 0 -103.5 17t-83 54.5t-48 97t1.5 145.5l18 104l53 2l-20 -115q-10 -74 -0.5 -124t40.5 -80t67.5 -43t80.5 -13q50 0 89.5 19t64 46t43.5 70t28.5 79t18.5 85l49 275q9 66 10 114t-12.5 82t-29.5 55.5t-40 34t-45.5 17t-44.5 4.5q-89 0 -157 -65t-93 -187
l-49 6l168 774h461l-8 -47h-414l-135 -602q32 84 94.5 125t140.5 41q30 0 57 -6t56.5 -21t49.5 -40.5t36 -65t16 -94.5t-10 -129l-47 -269q-10 -56 -21.5 -99t-35 -92t-54.5 -80.5t-80 -53t-112 -21.5z" />
    <glyph glyph-name="six" unicode="6" horiz-adv-x="741" 
d="M514 1454q42 0 79 -8.5t72 -29t55 -54t29 -83.5t-6 -118l-14 -76l-53 -4l14 76q13 60 6 104t-22.5 73t-43 46t-56 24t-60.5 7q-59 0 -104 -25.5t-74.5 -73.5t-47 -102t-30.5 -125l-57 -321q38 79 102.5 127.5t151.5 48.5q28 0 54 -5.5t55.5 -19t50.5 -37t38 -60t18 -88
t-9 -120.5l-54 -303q-7 -41 -12 -65t-16.5 -64.5t-24.5 -65.5t-36 -55t-51 -47t-69 -29t-90 -12q-36 0 -67.5 6.5t-64.5 23.5t-55 46t-39 73t-17 105.5t12 143.5l125 706q15 85 35.5 147t55.5 118.5t90 86t130 29.5zM444 895q-88 0 -154.5 -63.5t-107.5 -176.5l-55 -313
q-10 -72 -10 -124t16.5 -88.5t35.5 -59t48 -35t52.5 -17t49.5 -4.5q39 0 71.5 10t55 27t40 40t28.5 48t18.5 52.5t12 52t8.5 47.5q1 9 2 14l55 311q8 59 7.5 102.5t-14 74.5t-30 51t-40.5 31t-45 15.5t-44 4.5z" />
    <glyph glyph-name="seven" unicode="7" horiz-adv-x="626" 
d="M199 0h-56l7 43q25 182 61.5 334t97.5 318.5t156 335.5t227 345h-504l11 47h557l-8 -41q-130 -170 -224 -334.5t-155 -329.5t-98 -318.5t-64 -342.5z" />
    <glyph glyph-name="eight" unicode="8" horiz-adv-x="737" 
d="M504 1454q56 0 102 -15t81.5 -46.5t49 -87.5t0.5 -131l-24 -142q-11 -62 -28.5 -107.5t-37 -73.5t-50 -48.5t-57 -31t-67.5 -21.5q37 -14 65.5 -35.5t55.5 -60.5t33 -93t-4 -131l-29 -162q-10 -54 -19.5 -90t-30 -79t-48.5 -69t-75.5 -43.5t-109.5 -17.5q-48 0 -89 10
t-78 32t-58.5 58.5t-31 89.5t4.5 124l31 168q27 148 82 210.5t176 92.5q-177 76 -137 301l20 119q9 48 19 84t30 75t48 63.5t73 41t103 16.5zM659 1030l25 150q11 66 -1 113.5t-42 71.5t-64.5 35t-76.5 11q-48 0 -84 -14.5t-57.5 -35t-37 -55.5t-22.5 -62.5t-14 -69.5
l-23 -127q-11 -51 -5 -92t18 -70.5t33.5 -51.5t42 -34.5t42.5 -20.5l25 -8q96 27 128 45q69 40 99 148q8 30 14 67zM541 268l28 168q38 220 -133 285l-37 14q-126 -29 -179 -84t-77 -196l-32 -191q-12 -70 2 -121t46.5 -78.5t71.5 -40t84 -12.5q42 0 75 10t56 29.5t39 41.5
t27 54.5t17 58.5t12 62z" />
    <glyph glyph-name="nine" unicode="9" horiz-adv-x="739" 
d="M498 1454q299 0 233 -383l-131 -752q-23 -130 -39 -175q-48 -137 -173 -166q-38 -9 -83 -9q-57 0 -102 14.5t-80.5 46t-49.5 89t-3 135.5l12 88l53 6l-14 -90q-11 -69 0.5 -119.5t41.5 -76.5t65.5 -38t78.5 -12q30 0 55.5 6t45 14t36.5 24.5t28.5 28.5t22 36.5t16.5 37.5
t12.5 41.5t8.5 39t7 40t6 35.5l67 377q-82 -157 -233 -157q-31 0 -60.5 6.5t-59.5 21.5t-52 39t-38 60t-18.5 84.5t7.5 111.5l47 264q10 56 22 99t34.5 89t52.5 75.5t77 49t107 19.5zM631 801l51 286q12 60 10 106t-9 80t-24 58t-35 39t-41.5 24t-44 12t-42.5 3
q-58 0 -101.5 -24t-69.5 -68t-41 -89t-26 -104l-49 -272q-8 -57 -6.5 -99.5t16.5 -73t33 -49.5t42.5 -30.5t45 -15.5t41.5 -4q171 0 250 221z" />
    <glyph glyph-name="A" unicode="A" horiz-adv-x="757" 
d="M616 0h-55l-10 434h-367l-164 -434h-59l555 1454h57zM444 1122l-241 -639h346l-17 639q-3 121 3 240h-9q-39 -128 -82 -240z" />
    <glyph glyph-name="B" unicode="B" horiz-adv-x="759" 
d="M309 1454h201q145 0 215.5 -80t44.5 -237l-14 -86q-22 -128 -89 -206t-163 -89q103 -18 142 -93.5t16 -234.5l-15 -98q-9 -65 -22.5 -112t-39.5 -90.5t-64.5 -70t-98 -42t-139.5 -15.5h-230zM700 1055l15 84q23 134 -37.5 201t-173.5 67h-148l-110 -623h172
q236 0 282 271zM592 332l14 98q24 164 -27 234.5t-188 70.5h-153l-121 -688h174q69 0 119.5 15t81 38t51.5 62.5t30.5 76.5t18.5 93z" />
    <glyph glyph-name="C" unicode="C" horiz-adv-x="821" 
d="M346 -35q-42 0 -78.5 7t-73.5 24.5t-61.5 47.5t-43.5 75.5t-19 108.5t12 147l125 710q35 202 121 303t243 101q68 0 119.5 -18.5t90.5 -62t49 -114.5t-5 -176l-24 -139l-58 -4l25 141q29 171 -25.5 248.5t-169.5 77.5q-129 0 -203 -89t-104 -263l-127 -719
q-17 -86 -11 -148t23 -102.5t49.5 -64.5t67.5 -34t78 -10q119 0 186 77.5t97 242.5l28 160l56 -5l-27 -155q-31 -181 -110.5 -274t-229.5 -93z" />
    <glyph glyph-name="D" unicode="D" horiz-adv-x="843" 
d="M301 0h-248l256 1454h189q199 0 281 -120t36 -384l-84 -477q-32 -183 -83.5 -284.5t-133 -145t-213.5 -43.5zM356 1407l-239 -1360h190q165 0 244 94t121 330l86 479q43 241 -27.5 349t-243.5 108h-131z" />
    <glyph glyph-name="E" unicode="E" 
d="M772 1454l-8 -49h-408l-110 -629h372l-8 -49h-372l-121 -678h422l-9 -49h-477l256 1454h463z" />
    <glyph glyph-name="F" unicode="F" horiz-adv-x="645" 
d="M772 1454l-8 -49h-408l-110 -629h372l-8 -49h-372l-129 -727h-56l256 1454h463z" />
    <glyph glyph-name="G" unicode="G" horiz-adv-x="825" 
d="M319 -35q-139 0 -205 108t-26 333l121 679q13 72 31 130t47 110.5t67 87.5t91.5 55.5t119.5 20.5q141 0 205 -93.5t29 -293.5l-19 -105l-53 -2l16 103q55 344 -180 344q-69 0 -121 -27t-86 -78.5t-55 -111.5t-35 -140l-121 -679q-17 -112 -13 -187.5t32.5 -121.5
t67 -65.5t90.5 -19.5q124 0 204 121t119 336l39 219h-285l9 47h337l-131 -735h-41l39 250q-52 -158 -121 -221.5t-172 -63.5z" />
    <glyph glyph-name="H" unicode="H" horiz-adv-x="866" 
d="M834 1454h55l-256 -1454h-55l127 725h-469l-127 -725h-56l256 1454h56l-119 -680h469z" />
    <glyph glyph-name="I" unicode="I" horiz-adv-x="342" 
d="M365 1454l-256 -1454h-56l256 1454h56z" />
    <glyph glyph-name="J" unicode="J" horiz-adv-x="464" 
d="M500 1454l-213 -1212q-24 -138 -78 -202.5t-158 -64.5q-69 0 -117 25l9 51q60 -24 114 -24q76 0 114.5 52t59.5 171l213 1204h56z" />
    <glyph glyph-name="K" unicode="K" horiz-adv-x="788" 
d="M834 1454h63l-403 -539l168 -915h-52l-157 862l-252 -336l-92 -526h-56l256 1454h56l-148 -833z" />
    <glyph glyph-name="L" unicode="L" horiz-adv-x="618" 
d="M487 0h-434l256 1454h56l-248 -1405h379z" />
    <glyph glyph-name="M" unicode="M" horiz-adv-x="1071" 
d="M109 0h-56l256 1454h92l58 -1270q3 -58 -4 -116h4q13 51 39 116l506 1270h90l-256 -1454h-56l213 1208q8 43 37 183h-8q-6 -17 -24.5 -69t-32.5 -87l-492 -1235h-59l-56 1235q-2 61 -2 156h-8q-16 -117 -28 -183z" />
    <glyph glyph-name="N" unicode="N" horiz-adv-x="890" 
d="M106 0h-53l256 1454h66l219 -1171q2 -10 8.5 -45.5t9 -51t6.5 -45.5t5 -59h4q7 93 39 274l194 1098h53l-256 -1454h-61l-221 1176q-2 14 -8.5 47t-9.5 50t-6.5 46.5t-4.5 58.5h-4q-10 -103 -41 -276z" />
    <glyph glyph-name="O" unicode="O" horiz-adv-x="843" 
d="M358 -35q-155 0 -232 101t-42 307l127 729q12 72 28.5 127t44.5 106t64.5 83.5t90.5 51.5t122 19q155 0 232.5 -101.5t42.5 -306.5l-127 -729q-16 -91 -39.5 -156.5t-63 -120.5t-101.5 -82.5t-147 -27.5zM360 12q59 0 105 18.5t75.5 47.5t52 75.5t35 91.5t23.5 107
l129 729q33 187 -31.5 274t-189.5 87q-59 0 -105 -18.5t-75.5 -47.5t-52 -75.5t-35 -91.5t-23.5 -107l-129 -729q-33 -187 31.5 -274t189.5 -87z" />
    <glyph glyph-name="P" unicode="P" horiz-adv-x="702" 
d="M309 1454h187q149 0 223 -85.5t47 -256.5l-16 -102q-14 -87 -38.5 -148.5t-67.5 -108t-108.5 -69t-156.5 -22.5h-154l-116 -662h-56zM694 1008l17 102q24 153 -33 225t-195 72h-127l-123 -698h152q148 0 216 74t93 225z" />
    <glyph glyph-name="Q" unicode="Q" horiz-adv-x="843" 
d="M561 1489q155 0 232.5 -101.5t42.5 -306.5l-127 -729q-26 -145 -74.5 -235.5t-140.5 -126.5q22 -63 55 -89t92 -26q37 0 68 8l-11 -53q-36 -8 -69 -8q-73 0 -118.5 40.5t-59.5 112.5q-45 -10 -93 -10q-155 0 -232 101t-42 307l127 729q12 72 28.5 127t44.5 106t64.5 83.5
t90.5 51.5t122 19zM651 352l129 729q33 187 -31.5 274t-189.5 87q-59 0 -105 -18.5t-75.5 -47.5t-52 -75.5t-35 -91.5t-23.5 -107l-129 -729q-33 -187 31.5 -274t189.5 -87q59 0 105 18.5t75.5 47.5t52 75.5t35 91.5t23.5 107z" />
    <glyph glyph-name="R" unicode="R" horiz-adv-x="757" 
d="M309 1454h180q336 0 287 -330l-18 -120q-23 -141 -85.5 -221.5t-178.5 -98.5l122 -684h-61l-117 678h-211l-118 -678h-56zM700 1004l19 120q43 283 -230 283h-133l-120 -682h188q129 0 192 72.5t84 206.5z" />
    <glyph glyph-name="S" unicode="S" horiz-adv-x="704" 
d="M293 -35q-148 0 -220 98t-40 293l20 123l56 4l-25 -147q-13 -87 -3.5 -148.5t41 -100.5t75.5 -57t100 -18q203 0 246 238l18 106q18 102 -12 184.5t-123 166.5l-111 100q-84 76 -110.5 160.5t-7.5 199.5l8 50q23 134 91.5 203t201.5 69q142 0 206.5 -81.5t34.5 -248.5
l-26 -149l-56 -4l27 149q26 145 -23.5 216t-164.5 71q-111 0 -165 -59.5t-71 -161.5l-12 -72q-17 -96 9.5 -169.5t102.5 -141.5l103 -93q107 -96 140 -185.5t11 -219.5l-14 -88q-21 -127 -95 -207t-212 -80z" />
    <glyph glyph-name="T" unicode="T" 
d="M178 1454h647l-8 -49h-293l-248 -1405h-53l248 1405h-301z" />
    <glyph glyph-name="U" unicode="U" horiz-adv-x="833" 
d="M96 307l201 1147h55l-207 -1169q-23 -127 34.5 -199t172.5 -72q207 0 254 271l207 1169h55l-206 -1171q-12 -67 -32.5 -119.5t-56 -100t-93 -73t-134.5 -25.5q-65 0 -115.5 18.5t-88.5 59t-49 105.5t3 159z" />
    <glyph glyph-name="V" unicode="V" horiz-adv-x="716" 
d="M299 0h-61l-37 1454h55l27 -1130q4 -173 0 -234h8q44 152 74 234l423 1130h60z" />
    <glyph glyph-name="W" unicode="W" horiz-adv-x="1107" 
d="M244 0h-70l51 1454h54l-41 -1149q-1 -44 -9 -126t-10 -103h4q13 66 70 229l393 1149h64l-11 -1149q0 -99 -10 -229h4q21 103 62 229l364 1149h55l-460 -1454h-72l16 1245q0 7 11 131h-7q-12 -66 -34 -131z" />
    <glyph glyph-name="X" unicode="X" horiz-adv-x="737" 
d="M14 0h-65l434 766l-145 688h55l108 -526q15 -74 17 -117h4q20 54 57 117l289 526h63l-382 -688l159 -766h-55l-121 606q-14 68 -18 115h-4q-15 -35 -62 -115z" />
    <glyph glyph-name="Y" unicode="Y" horiz-adv-x="688" 
d="M283 0h-56l115 649l-158 805h58l114 -633q16 -80 17 -112h4q25 58 55 112l338 633h66l-439 -805z" />
    <glyph glyph-name="Z" unicode="Z" horiz-adv-x="653" 
d="M-49 0l8 43l758 1362h-475l8 49h532l-8 -43l-758 -1362h535l-8 -49h-592z" />
    <glyph glyph-name="a" unicode="a" horiz-adv-x="632" 
d="M174 -25q-197 0 -162 230l8 55q23 150 99 223q70 64 221 84l147 21l31 180q23 129 -9.5 183.5t-119.5 54.5q-86 0 -132.5 -45.5t-66.5 -159.5l-18 -107h-51l18 107q25 141 86.5 194.5t163.5 53.5q42 0 74 -8t59.5 -27t40.5 -51.5t17.5 -81.5t-9.5 -117l-84 -463
q-32 -172 -38 -301h-52q8 76 27 205q-68 -230 -250 -230zM188 18q92 0 159.5 86t98.5 258l33 183l-137 -17q-73 -9 -123 -31t-79 -59t-43.5 -77.5t-24.5 -100.5l-9 -51q-15 -96 18.5 -143.5t106.5 -47.5z" />
    <glyph glyph-name="b" unicode="b" horiz-adv-x="700" 
d="M311 -25q-91 0 -140.5 57.5t-55.5 164.5l-41 -197h-39l262 1485h49l-110 -627q38 94 89 142.5t138 48.5q28 0 52.5 -5.5t51.5 -20.5t44 -40.5t30.5 -66t12 -97t-12.5 -133.5l-61 -354q-11 -62 -23.5 -110t-34 -96.5t-49 -80t-69 -51t-93.5 -19.5zM311 20q32 0 59 9.5
t46 23.5t35.5 39.5t26.5 48t20.5 60t16 64.5t13.5 71l64 356q56 312 -137 312q-195 0 -256 -351l-49 -280q-30 -170 13 -261.5t148 -91.5z" />
    <glyph glyph-name="c" unicode="c" horiz-adv-x="641" 
d="M246 -25q-47 0 -85.5 14.5t-72.5 51.5t-42.5 100t5.5 160l76 424q29 159 90.5 241.5t183.5 82.5q240 0 195 -293l-10 -68l-54 -4l13 74q7 54 7 93.5t-12 67t-26 44.5t-36 26.5t-40 13t-39 3.5q-53 0 -91.5 -19.5t-63 -59.5t-39.5 -86.5t-27 -113.5l-76 -424
q-15 -70 -8.5 -120t20 -82t38.5 -50.5t47.5 -25.5t46.5 -7q44 0 77.5 14.5t54.5 35.5t38.5 59t26.5 71t20 85l16 79l47 -4l-14 -77q-10 -56 -22 -97.5t-32.5 -83t-48 -67.5t-69 -42t-94.5 -16z" />
    <glyph glyph-name="d" unicode="d" horiz-adv-x="698" 
d="M233 -25q-28 0 -52.5 6t-51 21t-43.5 41.5t-30.5 67t-11.5 97.5t13 134l64 356q11 61 23.5 106.5t34.5 94t50.5 79.5t71.5 51t98 20q178 0 181 -215l114 651h51l-262 -1485h-47l37 199q-42 -110 -95.5 -167t-144.5 -57zM240 20q97 0 164 96.5t96 258.5l49 276
q14 70 12.5 133.5t-16 112.5t-52.5 78t-96 29q-46 0 -82 -18.5t-58.5 -46t-40.5 -72.5t-27.5 -84t-18.5 -93l-61 -352q-12 -67 -12 -120.5t10 -87t24 -56.5t35 -34t38 -15.5t36 -4.5z" />
    <glyph glyph-name="e" unicode="e" horiz-adv-x="636" 
d="M397 1049q122 0 171 -85.5t20 -244.5l-33 -180h-414l-35 -195q-58 -326 140 -326q80 0 132.5 56.5t80.5 199.5l14 76l47 -4l-12 -74q-28 -162 -94.5 -229.5t-167.5 -67.5q-255 0 -187 379l70 387q13 73 29.5 123.5t46.5 95.5t77.5 67t114.5 22zM539 731q47 277 -146 277
q-54 0 -92.5 -19t-62 -59t-37 -83t-25.5 -110l-29 -159h365q4 25 13.5 76t13.5 77z" />
    <glyph glyph-name="f" unicode="f" horiz-adv-x="442" 
d="M328 1024h174l-8 -43h-175l-172 -981h-51l172 981h-145l8 43h145l54 293q13 76 55.5 128t124.5 52q46 0 74 -12l-9 -43q-27 10 -67 10q-104 0 -127 -137z" />
    <glyph glyph-name="g" unicode="g" horiz-adv-x="641" 
d="M670 1143q22 0 37 -6l-9 -52q-14 7 -34 7q-52 0 -80 -27t-45 -72q57 -67 32 -223l-24 -145q-8 -45 -17.5 -80t-29 -75t-45.5 -65.5t-68 -43t-96 -17.5q-50 0 -88 14q-48 -19 -69 -60.5t-21 -78.5q0 -42 25.5 -62.5t70.5 -31.5l108 -25q102 -23 133.5 -89t14.5 -165
l-8 -47q-19 -106 -93.5 -164.5t-195.5 -58.5q-95 0 -152.5 36.5t-73.5 91t-3 122.5l8 43q21 100 66 150.5t128 74.5q-80 32 -80 119q0 49 29.5 93.5t87.5 66.5q-97 62 -63 250l24 145q8 45 17.5 80t29 75t45.5 65.5t68 43t96 17.5q77 0 123 -35q20 54 58.5 91.5t93.5 37.5z
M496 621l28 155q23 123 -15.5 177.5t-117.5 54.5q-42 0 -75.5 -15.5t-53.5 -37.5t-35.5 -56.5t-23 -62t-13.5 -64.5l-28 -156q-23 -123 15.5 -177t117.5 -54q42 0 75.5 15.5t53.5 37.5t35.5 56.5t23 62t13.5 64.5zM291 57l-107 23q-2 1 -7 2t-7 2q-74 -29 -114.5 -79
t-57.5 -144l-6 -35q-16 -95 26.5 -150t155.5 -55q109 0 163.5 51t70.5 146l6 35q8 34 6 67t-12.5 59.5t-40 47t-76.5 30.5z" />
    <glyph glyph-name="h" unicode="h" horiz-adv-x="706" 
d="M84 0h-49l262 1485h49l-117 -660q36 107 92.5 165.5t151.5 58.5q74 0 125 -44t51 -141q0 -39 -14 -125l-133 -739h-49l133 752q10 64 10 100q0 82 -38 117t-95 35q-203 0 -266 -361z" />
    <glyph glyph-name="i" unicode="i" horiz-adv-x="301" 
d="M289 1194h-56l39 225h56zM86 0h-51l180 1024h51z" />
    <glyph glyph-name="j" unicode="j" horiz-adv-x="301" 
d="M289 1194h-56l39 225h56zM-117 -414q-36 0 -71 13l8 45q29 -11 61 -11q51 0 74.5 28.5t32.5 78.5l227 1284h51l-227 -1286q-12 -73 -52 -112.5t-104 -39.5z" />
    <glyph glyph-name="k" unicode="k" horiz-adv-x="647" 
d="M629 1024h61l-303 -369l139 -655h-49l-127 610l-200 -239l-66 -371h-49l262 1485h49l-184 -1041z" />
    <glyph glyph-name="l" unicode="l" horiz-adv-x="299" 
d="M297 1485h49l-262 -1485h-49z" />
    <glyph glyph-name="m" unicode="m" horiz-adv-x="1050" 
d="M86 0h-51l180 1024h49l-31 -180q12 35 20.5 56t27.5 53t39 50t52.5 32t71.5 14q75 0 116 -47.5t40 -161.5q12 35 22 60t29 55.5t40 49t54 31.5t72 13q31 0 58 -8t54.5 -27.5t43.5 -62t16 -103.5q0 -39 -10 -107l-131 -741h-51l129 741q10 68 10 107q0 156 -119 156
q-54 0 -95 -29.5t-67.5 -84.5t-43 -110.5t-29.5 -130.5l-115 -649h-51l131 741q10 54 10 109q0 154 -113 154q-53 0 -95 -31.5t-71.5 -91t-49 -127t-35.5 -156.5z" />
    <glyph glyph-name="n" unicode="n" horiz-adv-x="704" 
d="M86 0h-49l178 1024h49l-37 -207q38 116 94 174t150 58q174 0 174 -193q0 -41 -8 -88l-135 -768h-49l137 778q6 44 6 74q0 152 -131 152q-57 0 -104 -31.5t-78 -85.5t-51 -114t-33 -130z" />
    <glyph glyph-name="o" unicode="o" horiz-adv-x="659" 
d="M252 -25q-54 0 -95.5 15.5t-73.5 52.5t-39.5 98t5.5 152l78 438q13 75 31.5 128.5t50 98.5t81.5 68t118 23q53 0 94.5 -15.5t73.5 -52.5t39.5 -98t-5.5 -152l-78 -438q-14 -75 -32 -128t-49.5 -98.5t-81 -68.5t-117.5 -23zM250 20q49 0 87 17.5t61 41.5t40.5 64t26 71.5
t16.5 76.5l78 442q47 271 -149 271q-49 0 -87 -17.5t-61.5 -42t-41 -64t-26 -71t-16.5 -76.5l-78 -442q-47 -271 150 -271z" />
    <glyph glyph-name="p" unicode="p" horiz-adv-x="700" 
d="M14 -399h-49l252 1423h47l-33 -180q38 102 91 153.5t141 51.5q28 0 52.5 -5.5t51.5 -20.5t44 -40.5t30.5 -66t12 -97t-12.5 -133.5l-61 -354q-11 -62 -23.5 -110t-34 -96.5t-49 -80t-69 -51t-93.5 -19.5q-89 0 -138.5 57t-55.5 156zM311 20q32 0 59 9.5t46 23.5
t35.5 39.5t26.5 48t20.5 60t16 64.5t13.5 71l64 356q12 66 13 118t-8.5 85t-24 55.5t-36 33.5t-41.5 15.5t-44 4.5q-97 0 -160 -92.5t-92 -258.5l-49 -280q-30 -170 13 -261.5t148 -91.5z" />
    <glyph glyph-name="q" unicode="q" horiz-adv-x="700" 
d="M414 -399h-52l103 579q-39 -101 -91 -153t-141 -52q-28 0 -52.5 6t-51 21t-43.5 41.5t-30.5 67t-11.5 97.5t13 134l64 356q11 61 23.5 106.5t34.5 94t50.5 79.5t71.5 51t98 20q182 0 185 -226l43 201h39zM240 20q97 0 164 96.5t96 258.5l49 276q14 70 12.5 133.5
t-16 112.5t-52.5 78t-96 29q-46 0 -82 -18.5t-58.5 -46t-40.5 -72.5t-27.5 -84t-18.5 -93l-61 -352q-12 -67 -12 -120.5t10 -87t24 -56.5t35 -34t38 -15.5t36 -4.5z" />
    <glyph glyph-name="r" unicode="r" horiz-adv-x="421" 
d="M264 1024l-43 -244q52 141 108.5 205t133.5 64q16 0 31 -5l-11 -49q-8 2 -30 2q-44 0 -72.5 -16.5t-56.5 -52.5q-46 -61 -81.5 -148.5t-47.5 -163.5l-109 -616h-51l180 1024h49z" />
    <glyph glyph-name="s" unicode="s" horiz-adv-x="571" 
d="M219 -25q-115 0 -172 68.5t-29 210.5l15 74l51 4l-16 -86q-22 -113 24 -171.5t133 -58.5q70 0 114 41.5t62 135.5l11 53q7 45 10.5 82.5t-20.5 78t-80 76.5l-99 64q-71 47 -90.5 107.5t-3.5 146.5l8 41q22 106 76 156.5t145 50.5q105 0 155.5 -59t31.5 -183l-15 -96
l-51 -4l15 102q26 199 -140 199q-66 0 -107 -38t-59 -128l-8 -41q-18 -73 -0.5 -127t80.5 -96l102 -68q58 -39 85 -79.5t27 -84t-11 -98.5l-10 -51q-23 -116 -79 -169t-155 -53z" />
    <glyph glyph-name="t" unicode="t" horiz-adv-x="417" 
d="M225 981h-119l7 43h118l45 250l54 18l-47 -268h178l-6 -43h-179l-139 -782q-18 -97 8.5 -134.5t94.5 -37.5q28 0 49 6l-8 -45q-24 -6 -68 -6q-165 0 -125 219z" />
    <glyph glyph-name="u" unicode="u" horiz-adv-x="708" 
d="M233 -25q-174 0 -174 193q0 36 9 88l135 768h51l-137 -778q-6 -44 -6 -74q0 -81 36 -116.5t93 -35.5q113 0 176.5 94t93.5 267l113 643h51l-180 -1024h-50l37 207q-37 -115 -95.5 -173.5t-152.5 -58.5z" />
    <glyph glyph-name="v" unicode="v" horiz-adv-x="583" 
d="M231 0h-57l-47 1024h51l33 -811q4 -107 0 -141h4q7 26 49 141l320 811h53z" />
    <glyph glyph-name="w" unicode="w" horiz-adv-x="897" 
d="M190 0h-57l8 1024h49l-14 -831q0 -80 -4 -117h4q5 20 37 117l293 831h61v-831q0 -80 -2 -117h4q1 5 35 117l279 831h53l-352 -1024h-58v860q0 33 4 103h-4q-10 -33 -32 -103z" />
    <glyph glyph-name="x" unicode="x" horiz-adv-x="563" 
d="M10 0h-57l305 541l-104 483h53l67 -352q15 -71 17 -92h4q3 7 51 94l186 350h56l-271 -487l113 -537h-51l-78 401q-15 70 -18 93h-4q-7 -17 -50 -95z" />
    <glyph glyph-name="y" unicode="y" horiz-adv-x="593" 
d="M-53 -410q-36 0 -62 11l9 45q22 -11 55 -11q58 0 96 38t74 137l63 172l-55 1042h51l37 -844q4 -123 4 -127h2q6 20 12.5 36.5t14 35t12.5 31.5l334 868h53l-477 -1214q-52 -131 -100.5 -175.5t-122.5 -44.5z" />
    <glyph glyph-name="z" unicode="z" horiz-adv-x="544" 
d="M-37 0l8 43l547 936h-362l8 45h414l-7 -41l-548 -938h397l-8 -45h-449z" />
    <glyph glyph-name="ordfeminine" unicode="&#xaa;" horiz-adv-x="632" 
d="M174 -25q-197 0 -162 230l8 55q23 150 99 223q70 64 221 84l147 21l31 180q23 129 -9.5 183.5t-119.5 54.5q-86 0 -132.5 -45.5t-66.5 -159.5l-18 -107h-51l18 107q25 141 86.5 194.5t163.5 53.5q42 0 74 -8t59.5 -27t40.5 -51.5t17.5 -81.5t-9.5 -117l-84 -463
q-32 -172 -38 -301h-52q8 76 27 205q-68 -230 -250 -230zM188 18q92 0 159.5 86t98.5 258l33 183l-137 -17q-73 -9 -123 -31t-79 -59t-43.5 -77.5t-24.5 -100.5l-9 -51q-15 -96 18.5 -143.5t106.5 -47.5z" />
    <glyph glyph-name="ordmasculine" unicode="&#xba;" horiz-adv-x="659" 
d="M252 -25q-54 0 -95.5 15.5t-73.5 52.5t-39.5 98t5.5 152l78 438q13 75 31.5 128.5t50 98.5t81.5 68t118 23q53 0 94.5 -15.5t73.5 -52.5t39.5 -98t-5.5 -152l-78 -438q-14 -75 -32 -128t-49.5 -98.5t-81 -68.5t-117.5 -23zM250 20q49 0 87 17.5t61 41.5t40.5 64t26 71.5
t16.5 76.5l78 442q47 271 -149 271q-49 0 -87 -17.5t-61.5 -42t-41 -64t-26 -71t-16.5 -76.5l-78 -442q-47 -271 150 -271z" />
    <glyph glyph-name="Agrave" unicode="&#xc0;" horiz-adv-x="757" 
d="M616 0h-55l-10 434h-367l-164 -434h-59l555 1454h57zM444 1122l-241 -639h346l-17 639q-3 121 3 240h-9q-39 -128 -82 -240z" />
    <glyph glyph-name="Aacute" unicode="&#xc1;" horiz-adv-x="757" 
d="M616 0h-55l-10 434h-367l-164 -434h-59l555 1454h57zM444 1122l-241 -639h346l-17 639q-3 121 3 240h-9q-39 -128 -82 -240z" />
    <glyph glyph-name="Acircumflex" unicode="&#xc2;" horiz-adv-x="757" 
d="M616 0h-55l-10 434h-367l-164 -434h-59l555 1454h57zM444 1122l-241 -639h346l-17 639q-3 121 3 240h-9q-39 -128 -82 -240z" />
    <glyph glyph-name="Atilde" unicode="&#xc3;" horiz-adv-x="757" 
d="M616 0h-55l-10 434h-367l-164 -434h-59l555 1454h57zM444 1122l-241 -639h346l-17 639q-3 121 3 240h-9q-39 -128 -82 -240z" />
    <glyph glyph-name="Adieresis" unicode="&#xc4;" horiz-adv-x="757" 
d="M616 0h-55l-10 434h-367l-164 -434h-59l555 1454h57zM444 1122l-241 -639h346l-17 639q-3 121 3 240h-9q-39 -128 -82 -240z" />
    <glyph glyph-name="Aring" unicode="&#xc5;" horiz-adv-x="757" 
d="M616 0h-55l-10 434h-367l-164 -434h-59l555 1454h57zM444 1122l-241 -639h346l-17 639q-3 121 3 240h-9q-39 -128 -82 -240z" />
    <glyph glyph-name="AE" unicode="&#xc6;" horiz-adv-x="1429" 
d="M-39 0l555 1454h57l43 -1454h-55l-10 434h-367l-164 -434h-59zM1530 1454l-8 -49h-408l-110 -629h372l-8 -49h-373l-121 -678h422l-8 -49h-477l256 1454h463zM444 1122l-241 -639h346l-17 639q-3 121 3 240h-9q-39 -128 -82 -240z" />
    <glyph glyph-name="Ccedilla" unicode="&#xc7;" horiz-adv-x="821" 
d="M346 -35q-42 0 -78.5 7t-73.5 24.5t-61.5 47.5t-43.5 75.5t-19 108.5t12 147l125 710q35 202 121 303t243 101q68 0 119.5 -18.5t90.5 -62t49 -114.5t-5 -176l-24 -139l-58 -4l25 141q29 171 -25.5 248.5t-169.5 77.5q-129 0 -203 -89t-104 -263l-127 -719
q-17 -86 -11 -148t23 -102.5t49.5 -64.5t67.5 -34t78 -10q119 0 186 77.5t97 242.5l28 160l56 -5l-27 -155q-31 -181 -110.5 -274t-229.5 -93z" />
    <glyph glyph-name="Egrave" unicode="&#xc8;" 
d="M772 1454l-8 -49h-408l-110 -629h372l-8 -49h-372l-121 -678h422l-9 -49h-477l256 1454h463z" />
    <glyph glyph-name="Eacute" unicode="&#xc9;" 
d="M772 1454l-8 -49h-408l-110 -629h372l-8 -49h-372l-121 -678h422l-9 -49h-477l256 1454h463z" />
    <glyph glyph-name="Ecircumflex" unicode="&#xca;" 
d="M772 1454l-8 -49h-408l-110 -629h372l-8 -49h-372l-121 -678h422l-9 -49h-477l256 1454h463z" />
    <glyph glyph-name="Edieresis" unicode="&#xcb;" 
d="M772 1454l-8 -49h-408l-110 -629h372l-8 -49h-372l-121 -678h422l-9 -49h-477l256 1454h463z" />
    <glyph glyph-name="Igrave" unicode="&#xcc;" horiz-adv-x="342" 
d="M365 1454l-256 -1454h-56l256 1454h56z" />
    <glyph glyph-name="Iacute" unicode="&#xcd;" horiz-adv-x="342" 
d="M365 1454l-256 -1454h-56l256 1454h56z" />
    <glyph glyph-name="Icircumflex" unicode="&#xce;" horiz-adv-x="342" 
d="M365 1454l-256 -1454h-56l256 1454h56z" />
    <glyph glyph-name="Idieresis" unicode="&#xcf;" horiz-adv-x="342" 
d="M365 1454l-256 -1454h-56l256 1454h56z" />
    <glyph glyph-name="Eth" unicode="&#xd0;" horiz-adv-x="843" 
d="M301 0h-248l256 1454h189q199 0 281 -120t36 -384l-84 -477q-32 -183 -83.5 -284.5t-133 -145t-213.5 -43.5zM356 1407l-239 -1360h190q165 0 244 94t121 330l86 479q43 241 -27.5 349t-243.5 108h-131z" />
    <glyph glyph-name="Ntilde" unicode="&#xd1;" horiz-adv-x="890" 
d="M106 0h-53l256 1454h66l219 -1171q2 -10 8.5 -45.5t9 -51t6.5 -45.5t5 -59h4q7 93 39 274l194 1098h53l-256 -1454h-61l-221 1176q-2 14 -8.5 47t-9.5 50t-6.5 46.5t-4.5 58.5h-4q-10 -103 -41 -276z" />
    <glyph glyph-name="Ograve" unicode="&#xd2;" horiz-adv-x="843" 
d="M358 -35q-155 0 -232 101t-42 307l127 729q12 72 28.5 127t44.5 106t64.5 83.5t90.5 51.5t122 19q155 0 232.5 -101.5t42.5 -306.5l-127 -729q-16 -91 -39.5 -156.5t-63 -120.5t-101.5 -82.5t-147 -27.5zM360 12q59 0 105 18.5t75.5 47.5t52 75.5t35 91.5t23.5 107
l129 729q33 187 -31.5 274t-189.5 87q-59 0 -105 -18.5t-75.5 -47.5t-52 -75.5t-35 -91.5t-23.5 -107l-129 -729q-33 -187 31.5 -274t189.5 -87z" />
    <glyph glyph-name="Oacute" unicode="&#xd3;" horiz-adv-x="843" 
d="M358 -35q-155 0 -232 101t-42 307l127 729q12 72 28.5 127t44.5 106t64.5 83.5t90.5 51.5t122 19q155 0 232.5 -101.5t42.5 -306.5l-127 -729q-16 -91 -39.5 -156.5t-63 -120.5t-101.5 -82.5t-147 -27.5zM360 12q59 0 105 18.5t75.5 47.5t52 75.5t35 91.5t23.5 107
l129 729q33 187 -31.5 274t-189.5 87q-59 0 -105 -18.5t-75.5 -47.5t-52 -75.5t-35 -91.5t-23.5 -107l-129 -729q-33 -187 31.5 -274t189.5 -87z" />
    <glyph glyph-name="Ocircumflex" unicode="&#xd4;" horiz-adv-x="843" 
d="M358 -35q-155 0 -232 101t-42 307l127 729q12 72 28.5 127t44.5 106t64.5 83.5t90.5 51.5t122 19q155 0 232.5 -101.5t42.5 -306.5l-127 -729q-16 -91 -39.5 -156.5t-63 -120.5t-101.5 -82.5t-147 -27.5zM360 12q59 0 105 18.5t75.5 47.5t52 75.5t35 91.5t23.5 107
l129 729q33 187 -31.5 274t-189.5 87q-59 0 -105 -18.5t-75.5 -47.5t-52 -75.5t-35 -91.5t-23.5 -107l-129 -729q-33 -187 31.5 -274t189.5 -87z" />
    <glyph glyph-name="Otilde" unicode="&#xd5;" horiz-adv-x="843" 
d="M358 -35q-155 0 -232 101t-42 307l127 729q12 72 28.5 127t44.5 106t64.5 83.5t90.5 51.5t122 19q155 0 232.5 -101.5t42.5 -306.5l-127 -729q-16 -91 -39.5 -156.5t-63 -120.5t-101.5 -82.5t-147 -27.5zM360 12q59 0 105 18.5t75.5 47.5t52 75.5t35 91.5t23.5 107
l129 729q33 187 -31.5 274t-189.5 87q-59 0 -105 -18.5t-75.5 -47.5t-52 -75.5t-35 -91.5t-23.5 -107l-129 -729q-33 -187 31.5 -274t189.5 -87z" />
    <glyph glyph-name="Odieresis" unicode="&#xd6;" horiz-adv-x="843" 
d="M358 -35q-155 0 -232 101t-42 307l127 729q12 72 28.5 127t44.5 106t64.5 83.5t90.5 51.5t122 19q155 0 232.5 -101.5t42.5 -306.5l-127 -729q-16 -91 -39.5 -156.5t-63 -120.5t-101.5 -82.5t-147 -27.5zM360 12q59 0 105 18.5t75.5 47.5t52 75.5t35 91.5t23.5 107
l129 729q33 187 -31.5 274t-189.5 87q-59 0 -105 -18.5t-75.5 -47.5t-52 -75.5t-35 -91.5t-23.5 -107l-129 -729q-33 -187 31.5 -274t189.5 -87z" />
    <glyph glyph-name="Oslash" unicode="&#xd8;" horiz-adv-x="843" 
d="M358 -35q-155 0 -232 101t-42 307l127 729q12 72 28.5 127t44.5 106t64.5 83.5t90.5 51.5t122 19q155 0 232.5 -101.5t42.5 -306.5l-127 -729q-16 -91 -39.5 -156.5t-63 -120.5t-101.5 -82.5t-147 -27.5zM360 12q59 0 105 18.5t75.5 47.5t52 75.5t35 91.5t23.5 107
l129 729q33 187 -31.5 274t-189.5 87q-59 0 -105 -18.5t-75.5 -47.5t-52 -75.5t-35 -91.5t-23.5 -107l-129 -729q-33 -187 31.5 -274t189.5 -87z" />
    <glyph glyph-name="Ugrave" unicode="&#xd9;" horiz-adv-x="833" 
d="M96 307l201 1147h55l-207 -1169q-23 -127 34.5 -199t172.5 -72q207 0 254 271l207 1169h55l-206 -1171q-12 -67 -32.5 -119.5t-56 -100t-93 -73t-134.5 -25.5q-65 0 -115.5 18.5t-88.5 59t-49 105.5t3 159z" />
    <glyph glyph-name="Uacute" unicode="&#xda;" horiz-adv-x="833" 
d="M96 307l201 1147h55l-207 -1169q-23 -127 34.5 -199t172.5 -72q207 0 254 271l207 1169h55l-206 -1171q-12 -67 -32.5 -119.5t-56 -100t-93 -73t-134.5 -25.5q-65 0 -115.5 18.5t-88.5 59t-49 105.5t3 159z" />
    <glyph glyph-name="Ucircumflex" unicode="&#xdb;" horiz-adv-x="833" 
d="M96 307l201 1147h55l-207 -1169q-23 -127 34.5 -199t172.5 -72q207 0 254 271l207 1169h55l-206 -1171q-12 -67 -32.5 -119.5t-56 -100t-93 -73t-134.5 -25.5q-65 0 -115.5 18.5t-88.5 59t-49 105.5t3 159z" />
    <glyph glyph-name="Udieresis" unicode="&#xdc;" horiz-adv-x="833" 
d="M96 307l201 1147h55l-207 -1169q-23 -127 34.5 -199t172.5 -72q207 0 254 271l207 1169h55l-206 -1171q-12 -67 -32.5 -119.5t-56 -100t-93 -73t-134.5 -25.5q-65 0 -115.5 18.5t-88.5 59t-49 105.5t3 159z" />
    <glyph glyph-name="Yacute" unicode="&#xdd;" horiz-adv-x="688" 
d="M283 0h-56l115 649l-158 805h58l114 -633q16 -80 17 -112h4q25 58 55 112l338 633h66l-439 -805z" />
    <glyph glyph-name="Thorn" unicode="&#xde;" horiz-adv-x="702" 
d="M309 1454h187q149 0 223 -85.5t47 -256.5l-16 -102q-14 -87 -38.5 -148.5t-67.5 -108t-108.5 -69t-156.5 -22.5h-154l-116 -662h-56zM694 1008l17 102q24 153 -33 225t-195 72h-127l-123 -698h152q148 0 216 74t93 225z" />
    <glyph glyph-name="agrave" unicode="&#xe0;" horiz-adv-x="632" 
d="M174 -25q-197 0 -162 230l8 55q23 150 99 223q70 64 221 84l147 21l31 180q23 129 -9.5 183.5t-119.5 54.5q-86 0 -132.5 -45.5t-66.5 -159.5l-18 -107h-51l18 107q25 141 86.5 194.5t163.5 53.5q42 0 74 -8t59.5 -27t40.5 -51.5t17.5 -81.5t-9.5 -117l-84 -463
q-32 -172 -38 -301h-52q8 76 27 205q-68 -230 -250 -230zM188 18q92 0 159.5 86t98.5 258l33 183l-137 -17q-73 -9 -123 -31t-79 -59t-43.5 -77.5t-24.5 -100.5l-9 -51q-15 -96 18.5 -143.5t106.5 -47.5z" />
    <glyph glyph-name="aacute" unicode="&#xe1;" horiz-adv-x="632" 
d="M174 -25q-197 0 -162 230l8 55q23 150 99 223q70 64 221 84l147 21l31 180q23 129 -9.5 183.5t-119.5 54.5q-86 0 -132.5 -45.5t-66.5 -159.5l-18 -107h-51l18 107q25 141 86.5 194.5t163.5 53.5q42 0 74 -8t59.5 -27t40.5 -51.5t17.5 -81.5t-9.5 -117l-84 -463
q-32 -172 -38 -301h-52q8 76 27 205q-68 -230 -250 -230zM188 18q92 0 159.5 86t98.5 258l33 183l-137 -17q-73 -9 -123 -31t-79 -59t-43.5 -77.5t-24.5 -100.5l-9 -51q-15 -96 18.5 -143.5t106.5 -47.5z" />
    <glyph glyph-name="acircumflex" unicode="&#xe2;" horiz-adv-x="632" 
d="M174 -25q-197 0 -162 230l8 55q23 150 99 223q70 64 221 84l147 21l31 180q23 129 -9.5 183.5t-119.5 54.5q-86 0 -132.5 -45.5t-66.5 -159.5l-18 -107h-51l18 107q25 141 86.5 194.5t163.5 53.5q42 0 74 -8t59.5 -27t40.5 -51.5t17.5 -81.5t-9.5 -117l-84 -463
q-32 -172 -38 -301h-52q8 76 27 205q-68 -230 -250 -230zM188 18q92 0 159.5 86t98.5 258l33 183l-137 -17q-73 -9 -123 -31t-79 -59t-43.5 -77.5t-24.5 -100.5l-9 -51q-15 -96 18.5 -143.5t106.5 -47.5z" />
    <glyph glyph-name="atilde" unicode="&#xe3;" horiz-adv-x="632" 
d="M174 -25q-197 0 -162 230l8 55q23 150 99 223q70 64 221 84l147 21l31 180q23 129 -9.5 183.5t-119.5 54.5q-86 0 -132.5 -45.5t-66.5 -159.5l-18 -107h-51l18 107q25 141 86.5 194.5t163.5 53.5q42 0 74 -8t59.5 -27t40.5 -51.5t17.5 -81.5t-9.5 -117l-84 -463
q-32 -172 -38 -301h-52q8 76 27 205q-68 -230 -250 -230zM188 18q92 0 159.5 86t98.5 258l33 183l-137 -17q-73 -9 -123 -31t-79 -59t-43.5 -77.5t-24.5 -100.5l-9 -51q-15 -96 18.5 -143.5t106.5 -47.5z" />
    <glyph glyph-name="adieresis" unicode="&#xe4;" horiz-adv-x="632" 
d="M174 -25q-197 0 -162 230l8 55q23 150 99 223q70 64 221 84l147 21l31 180q23 129 -9.5 183.5t-119.5 54.5q-86 0 -132.5 -45.5t-66.5 -159.5l-18 -107h-51l18 107q25 141 86.5 194.5t163.5 53.5q42 0 74 -8t59.5 -27t40.5 -51.5t17.5 -81.5t-9.5 -117l-84 -463
q-32 -172 -38 -301h-52q8 76 27 205q-68 -230 -250 -230zM188 18q92 0 159.5 86t98.5 258l33 183l-137 -17q-73 -9 -123 -31t-79 -59t-43.5 -77.5t-24.5 -100.5l-9 -51q-15 -96 18.5 -143.5t106.5 -47.5z" />
    <glyph glyph-name="aring" unicode="&#xe5;" horiz-adv-x="632" 
d="M174 -25q-197 0 -162 230l8 55q23 150 99 223q70 64 221 84l147 21l31 180q23 129 -9.5 183.5t-119.5 54.5q-86 0 -132.5 -45.5t-66.5 -159.5l-18 -107h-51l18 107q25 141 86.5 194.5t163.5 53.5q42 0 74 -8t59.5 -27t40.5 -51.5t17.5 -81.5t-9.5 -117l-84 -463
q-32 -172 -38 -301h-52q8 76 27 205q-68 -230 -250 -230zM188 18q92 0 159.5 86t98.5 258l33 183l-137 -17q-73 -9 -123 -31t-79 -59t-43.5 -77.5t-24.5 -100.5l-9 -51q-15 -96 18.5 -143.5t106.5 -47.5z" />
    <glyph glyph-name="ae" unicode="&#xe6;" horiz-adv-x="1269" 
d="M174 -25q-197 0 -162 230l8 55q23 150 99 223q70 64 221 84l147 21l31 180q23 129 -9.5 183.5t-119.5 54.5q-86 0 -132.5 -45.5t-66.5 -159.5l-18 -107h-51l18 107q25 141 86.5 194.5t163.5 53.5q42 0 74 -8t59.5 -27t40.5 -51.5t17.5 -81.5t-9.5 -117l-84 -463
q-32 -172 -38 -301h-52q8 76 27 205q-68 -230 -250 -230zM1030 1049q122 0 171 -85.5t20 -244.5l-33 -180h-414l-35 -195q-58 -326 140 -326q80 0 132.5 56.5t80.5 199.5l14 76l47 -4l-12 -74q-28 -162 -94.5 -229.5t-167.5 -67.5q-255 0 -187 379l70 387q13 73 29.5 123.5
t46.5 95.5t77.5 67t114.5 22zM1171 731q47 277 -145 277q-54 0 -92.5 -19t-62 -59t-37 -83t-25.5 -110l-29 -159h365q4 25 13 76t13 77zM188 18q92 0 159.5 86t98.5 258l33 183l-137 -17q-73 -9 -123 -31t-79 -59t-43.5 -77.5t-24.5 -100.5l-9 -51q-15 -96 18.5 -143.5
t106.5 -47.5z" />
    <glyph glyph-name="ccedilla" unicode="&#xe7;" horiz-adv-x="641" 
d="M246 -25q-47 0 -85.5 14.5t-72.5 51.5t-42.5 100t5.5 160l76 424q29 159 90.5 241.5t183.5 82.5q240 0 195 -293l-10 -68l-54 -4l13 74q7 54 7 93.5t-12 67t-26 44.5t-36 26.5t-40 13t-39 3.5q-53 0 -91.5 -19.5t-63 -59.5t-39.5 -86.5t-27 -113.5l-76 -424
q-15 -70 -8.5 -120t20 -82t38.5 -50.5t47.5 -25.5t46.5 -7q44 0 77.5 14.5t54.5 35.5t38.5 59t26.5 71t20 85l16 79l47 -4l-14 -77q-10 -56 -22 -97.5t-32.5 -83t-48 -67.5t-69 -42t-94.5 -16z" />
    <glyph glyph-name="egrave" unicode="&#xe8;" horiz-adv-x="636" 
d="M397 1049q122 0 171 -85.5t20 -244.5l-33 -180h-414l-35 -195q-58 -326 140 -326q80 0 132.5 56.5t80.5 199.5l14 76l47 -4l-12 -74q-28 -162 -94.5 -229.5t-167.5 -67.5q-255 0 -187 379l70 387q13 73 29.5 123.5t46.5 95.5t77.5 67t114.5 22zM539 731q47 277 -146 277
q-54 0 -92.5 -19t-62 -59t-37 -83t-25.5 -110l-29 -159h365q4 25 13.5 76t13.5 77z" />
    <glyph glyph-name="eacute" unicode="&#xe9;" horiz-adv-x="636" 
d="M397 1049q122 0 171 -85.5t20 -244.5l-33 -180h-414l-35 -195q-58 -326 140 -326q80 0 132.5 56.5t80.5 199.5l14 76l47 -4l-12 -74q-28 -162 -94.5 -229.5t-167.5 -67.5q-255 0 -187 379l70 387q13 73 29.5 123.5t46.5 95.5t77.5 67t114.5 22zM539 731q47 277 -146 277
q-54 0 -92.5 -19t-62 -59t-37 -83t-25.5 -110l-29 -159h365q4 25 13.5 76t13.5 77z" />
    <glyph glyph-name="ecircumflex" unicode="&#xea;" horiz-adv-x="636" 
d="M397 1049q122 0 171 -85.5t20 -244.5l-33 -180h-414l-35 -195q-58 -326 140 -326q80 0 132.5 56.5t80.5 199.5l14 76l47 -4l-12 -74q-28 -162 -94.5 -229.5t-167.5 -67.5q-255 0 -187 379l70 387q13 73 29.5 123.5t46.5 95.5t77.5 67t114.5 22zM539 731q47 277 -146 277
q-54 0 -92.5 -19t-62 -59t-37 -83t-25.5 -110l-29 -159h365q4 25 13.5 76t13.5 77z" />
    <glyph glyph-name="edieresis" unicode="&#xeb;" horiz-adv-x="636" 
d="M397 1049q122 0 171 -85.5t20 -244.5l-33 -180h-414l-35 -195q-58 -326 140 -326q80 0 132.5 56.5t80.5 199.5l14 76l47 -4l-12 -74q-28 -162 -94.5 -229.5t-167.5 -67.5q-255 0 -187 379l70 387q13 73 29.5 123.5t46.5 95.5t77.5 67t114.5 22zM539 731q47 277 -146 277
q-54 0 -92.5 -19t-62 -59t-37 -83t-25.5 -110l-29 -159h365q4 25 13.5 76t13.5 77z" />
    <glyph glyph-name="igrave" unicode="&#xec;" horiz-adv-x="301" 
d="M289 1194h-56l39 225h56zM86 0h-51l180 1024h51z" />
    <glyph glyph-name="iacute" unicode="&#xed;" horiz-adv-x="301" 
d="M289 1194h-56l39 225h56zM86 0h-51l180 1024h51z" />
    <glyph glyph-name="icircumflex" unicode="&#xee;" horiz-adv-x="301" 
d="M289 1194h-56l39 225h56zM86 0h-51l180 1024h51z" />
    <glyph glyph-name="idieresis" unicode="&#xef;" horiz-adv-x="301" 
d="M289 1194h-56l39 225h56zM86 0h-51l180 1024h51z" />
    <glyph glyph-name="ntilde" unicode="&#xf1;" horiz-adv-x="704" 
d="M86 0h-49l178 1024h49l-37 -207q38 116 94 174t150 58q174 0 174 -193q0 -41 -8 -88l-135 -768h-49l137 778q6 44 6 74q0 152 -131 152q-57 0 -104 -31.5t-78 -85.5t-51 -114t-33 -130z" />
    <glyph glyph-name="ograve" unicode="&#xf2;" horiz-adv-x="659" 
d="M252 -25q-54 0 -95.5 15.5t-73.5 52.5t-39.5 98t5.5 152l78 438q13 75 31.5 128.5t50 98.5t81.5 68t118 23q53 0 94.5 -15.5t73.5 -52.5t39.5 -98t-5.5 -152l-78 -438q-14 -75 -32 -128t-49.5 -98.5t-81 -68.5t-117.5 -23zM250 20q49 0 87 17.5t61 41.5t40.5 64t26 71.5
t16.5 76.5l78 442q47 271 -149 271q-49 0 -87 -17.5t-61.5 -42t-41 -64t-26 -71t-16.5 -76.5l-78 -442q-47 -271 150 -271z" />
    <glyph glyph-name="oacute" unicode="&#xf3;" horiz-adv-x="659" 
d="M252 -25q-54 0 -95.5 15.5t-73.5 52.5t-39.5 98t5.5 152l78 438q13 75 31.5 128.5t50 98.5t81.5 68t118 23q53 0 94.5 -15.5t73.5 -52.5t39.5 -98t-5.5 -152l-78 -438q-14 -75 -32 -128t-49.5 -98.5t-81 -68.5t-117.5 -23zM250 20q49 0 87 17.5t61 41.5t40.5 64t26 71.5
t16.5 76.5l78 442q47 271 -149 271q-49 0 -87 -17.5t-61.5 -42t-41 -64t-26 -71t-16.5 -76.5l-78 -442q-47 -271 150 -271z" />
    <glyph glyph-name="ocircumflex" unicode="&#xf4;" horiz-adv-x="659" 
d="M252 -25q-54 0 -95.5 15.5t-73.5 52.5t-39.5 98t5.5 152l78 438q13 75 31.5 128.5t50 98.5t81.5 68t118 23q53 0 94.5 -15.5t73.5 -52.5t39.5 -98t-5.5 -152l-78 -438q-14 -75 -32 -128t-49.5 -98.5t-81 -68.5t-117.5 -23zM250 20q49 0 87 17.5t61 41.5t40.5 64t26 71.5
t16.5 76.5l78 442q47 271 -149 271q-49 0 -87 -17.5t-61.5 -42t-41 -64t-26 -71t-16.5 -76.5l-78 -442q-47 -271 150 -271z" />
    <glyph glyph-name="otilde" unicode="&#xf5;" horiz-adv-x="659" 
d="M252 -25q-54 0 -95.5 15.5t-73.5 52.5t-39.5 98t5.5 152l78 438q13 75 31.5 128.5t50 98.5t81.5 68t118 23q53 0 94.5 -15.5t73.5 -52.5t39.5 -98t-5.5 -152l-78 -438q-14 -75 -32 -128t-49.5 -98.5t-81 -68.5t-117.5 -23zM250 20q49 0 87 17.5t61 41.5t40.5 64t26 71.5
t16.5 76.5l78 442q47 271 -149 271q-49 0 -87 -17.5t-61.5 -42t-41 -64t-26 -71t-16.5 -76.5l-78 -442q-47 -271 150 -271z" />
    <glyph glyph-name="odieresis" unicode="&#xf6;" horiz-adv-x="659" 
d="M252 -25q-54 0 -95.5 15.5t-73.5 52.5t-39.5 98t5.5 152l78 438q13 75 31.5 128.5t50 98.5t81.5 68t118 23q53 0 94.5 -15.5t73.5 -52.5t39.5 -98t-5.5 -152l-78 -438q-14 -75 -32 -128t-49.5 -98.5t-81 -68.5t-117.5 -23zM250 20q49 0 87 17.5t61 41.5t40.5 64t26 71.5
t16.5 76.5l78 442q47 271 -149 271q-49 0 -87 -17.5t-61.5 -42t-41 -64t-26 -71t-16.5 -76.5l-78 -442q-47 -271 150 -271z" />
    <glyph glyph-name="oslash" unicode="&#xf8;" horiz-adv-x="659" 
d="M252 -25q-54 0 -95.5 15.5t-73.5 52.5t-39.5 98t5.5 152l78 438q13 75 31.5 128.5t50 98.5t81.5 68t118 23q53 0 94.5 -15.5t73.5 -52.5t39.5 -98t-5.5 -152l-78 -438q-14 -75 -32 -128t-49.5 -98.5t-81 -68.5t-117.5 -23zM250 20q49 0 87 17.5t61 41.5t40.5 64t26 71.5
t16.5 76.5l78 442q47 271 -149 271q-49 0 -87 -17.5t-61.5 -42t-41 -64t-26 -71t-16.5 -76.5l-78 -442q-47 -271 150 -271z" />
    <glyph glyph-name="ugrave" unicode="&#xf9;" horiz-adv-x="708" 
d="M233 -25q-174 0 -174 193q0 36 9 88l135 768h51l-137 -778q-6 -44 -6 -74q0 -81 36 -116.5t93 -35.5q113 0 176.5 94t93.5 267l113 643h51l-180 -1024h-50l37 207q-37 -115 -95.5 -173.5t-152.5 -58.5z" />
    <glyph glyph-name="uacute" unicode="&#xfa;" horiz-adv-x="708" 
d="M233 -25q-174 0 -174 193q0 36 9 88l135 768h51l-137 -778q-6 -44 -6 -74q0 -81 36 -116.5t93 -35.5q113 0 176.5 94t93.5 267l113 643h51l-180 -1024h-50l37 207q-37 -115 -95.5 -173.5t-152.5 -58.5z" />
    <glyph glyph-name="ucircumflex" unicode="&#xfb;" horiz-adv-x="708" 
d="M233 -25q-174 0 -174 193q0 36 9 88l135 768h51l-137 -778q-6 -44 -6 -74q0 -81 36 -116.5t93 -35.5q113 0 176.5 94t93.5 267l113 643h51l-180 -1024h-50l37 207q-37 -115 -95.5 -173.5t-152.5 -58.5z" />
    <glyph glyph-name="udieresis" unicode="&#xfc;" horiz-adv-x="708" 
d="M233 -25q-174 0 -174 193q0 36 9 88l135 768h51l-137 -778q-6 -44 -6 -74q0 -81 36 -116.5t93 -35.5q113 0 176.5 94t93.5 267l113 643h51l-180 -1024h-50l37 207q-37 -115 -95.5 -173.5t-152.5 -58.5z" />
    <glyph glyph-name="yacute" unicode="&#xfd;" horiz-adv-x="593" 
d="M-53 -410q-36 0 -62 11l9 45q22 -11 55 -11q58 0 96 38t74 137l63 172l-55 1042h51l37 -844q4 -123 4 -127h2q6 20 12.5 36.5t14 35t12.5 31.5l334 868h53l-477 -1214q-52 -131 -100.5 -175.5t-122.5 -44.5z" />
    <glyph glyph-name="thorn" unicode="&#xfe;" horiz-adv-x="700" 
d="M14 -399h-49l252 1423h47l-33 -180q38 102 91 153.5t141 51.5q28 0 52.5 -5.5t51.5 -20.5t44 -40.5t30.5 -66t12 -97t-12.5 -133.5l-61 -354q-11 -62 -23.5 -110t-34 -96.5t-49 -80t-69 -51t-93.5 -19.5q-89 0 -138.5 57t-55.5 156zM311 20q32 0 59 9.5t46 23.5
t35.5 39.5t26.5 48t20.5 60t16 64.5t13.5 71l64 356q12 66 13 118t-8.5 85t-24 55.5t-36 33.5t-41.5 15.5t-44 4.5q-97 0 -160 -92.5t-92 -258.5l-49 -280q-30 -170 13 -261.5t148 -91.5z" />
    <glyph glyph-name="ydieresis" unicode="&#xff;" horiz-adv-x="593" 
d="M-53 -410q-36 0 -62 11l9 45q22 -11 55 -11q58 0 96 38t74 137l63 172l-55 1042h51l37 -844q4 -123 4 -127h2q6 20 12.5 36.5t14 35t12.5 31.5l334 868h53l-477 -1214q-52 -131 -100.5 -175.5t-122.5 -44.5z" />
    <glyph glyph-name="Amacron" unicode="&#x100;" horiz-adv-x="757" 
d="M616 0h-55l-10 434h-367l-164 -434h-59l555 1454h57zM444 1122l-241 -639h346l-17 639q-3 121 3 240h-9q-39 -128 -82 -240z" />
    <glyph glyph-name="amacron" unicode="&#x101;" horiz-adv-x="632" 
d="M174 -25q-197 0 -162 230l8 55q23 150 99 223q70 64 221 84l147 21l31 180q23 129 -9.5 183.5t-119.5 54.5q-86 0 -132.5 -45.5t-66.5 -159.5l-18 -107h-51l18 107q25 141 86.5 194.5t163.5 53.5q42 0 74 -8t59.5 -27t40.5 -51.5t17.5 -81.5t-9.5 -117l-84 -463
q-32 -172 -38 -301h-52q8 76 27 205q-68 -230 -250 -230zM188 18q92 0 159.5 86t98.5 258l33 183l-137 -17q-73 -9 -123 -31t-79 -59t-43.5 -77.5t-24.5 -100.5l-9 -51q-15 -96 18.5 -143.5t106.5 -47.5z" />
    <glyph glyph-name="Abreve" unicode="&#x102;" horiz-adv-x="757" 
d="M616 0h-55l-10 434h-367l-164 -434h-59l555 1454h57zM444 1122l-241 -639h346l-17 639q-3 121 3 240h-9q-39 -128 -82 -240z" />
    <glyph glyph-name="abreve" unicode="&#x103;" horiz-adv-x="632" 
d="M174 -25q-197 0 -162 230l8 55q23 150 99 223q70 64 221 84l147 21l31 180q23 129 -9.5 183.5t-119.5 54.5q-86 0 -132.5 -45.5t-66.5 -159.5l-18 -107h-51l18 107q25 141 86.5 194.5t163.5 53.5q42 0 74 -8t59.5 -27t40.5 -51.5t17.5 -81.5t-9.5 -117l-84 -463
q-32 -172 -38 -301h-52q8 76 27 205q-68 -230 -250 -230zM188 18q92 0 159.5 86t98.5 258l33 183l-137 -17q-73 -9 -123 -31t-79 -59t-43.5 -77.5t-24.5 -100.5l-9 -51q-15 -96 18.5 -143.5t106.5 -47.5z" />
    <glyph glyph-name="Aogonek" unicode="&#x104;" horiz-adv-x="757" 
d="M616 0h-55l-10 434h-367l-164 -434h-59l555 1454h57zM444 1122l-241 -639h346l-17 639q-3 121 3 240h-9q-39 -128 -82 -240z" />
    <glyph glyph-name="aogonek" unicode="&#x105;" horiz-adv-x="632" 
d="M174 -25q-197 0 -162 230l8 55q23 150 99 223q70 64 221 84l147 21l31 180q23 129 -9.5 183.5t-119.5 54.5q-86 0 -132.5 -45.5t-66.5 -159.5l-18 -107h-51l18 107q25 141 86.5 194.5t163.5 53.5q42 0 74 -8t59.5 -27t40.5 -51.5t17.5 -81.5t-9.5 -117l-84 -463
q-32 -172 -38 -301h-52q8 76 27 205q-68 -230 -250 -230zM188 18q92 0 159.5 86t98.5 258l33 183l-137 -17q-73 -9 -123 -31t-79 -59t-43.5 -77.5t-24.5 -100.5l-9 -51q-15 -96 18.5 -143.5t106.5 -47.5z" />
    <glyph glyph-name="Cacute" unicode="&#x106;" horiz-adv-x="821" 
d="M346 -35q-42 0 -78.5 7t-73.5 24.5t-61.5 47.5t-43.5 75.5t-19 108.5t12 147l125 710q35 202 121 303t243 101q68 0 119.5 -18.5t90.5 -62t49 -114.5t-5 -176l-24 -139l-58 -4l25 141q29 171 -25.5 248.5t-169.5 77.5q-129 0 -203 -89t-104 -263l-127 -719
q-17 -86 -11 -148t23 -102.5t49.5 -64.5t67.5 -34t78 -10q119 0 186 77.5t97 242.5l28 160l56 -5l-27 -155q-31 -181 -110.5 -274t-229.5 -93z" />
    <glyph glyph-name="cacute" unicode="&#x107;" horiz-adv-x="641" 
d="M246 -25q-47 0 -85.5 14.5t-72.5 51.5t-42.5 100t5.5 160l76 424q29 159 90.5 241.5t183.5 82.5q240 0 195 -293l-10 -68l-54 -4l13 74q7 54 7 93.5t-12 67t-26 44.5t-36 26.5t-40 13t-39 3.5q-53 0 -91.5 -19.5t-63 -59.5t-39.5 -86.5t-27 -113.5l-76 -424
q-15 -70 -8.5 -120t20 -82t38.5 -50.5t47.5 -25.5t46.5 -7q44 0 77.5 14.5t54.5 35.5t38.5 59t26.5 71t20 85l16 79l47 -4l-14 -77q-10 -56 -22 -97.5t-32.5 -83t-48 -67.5t-69 -42t-94.5 -16z" />
    <glyph glyph-name="Ccircumflex" unicode="&#x108;" horiz-adv-x="821" 
d="M346 -35q-42 0 -78.5 7t-73.5 24.5t-61.5 47.5t-43.5 75.5t-19 108.5t12 147l125 710q35 202 121 303t243 101q68 0 119.5 -18.5t90.5 -62t49 -114.5t-5 -176l-24 -139l-58 -4l25 141q29 171 -25.5 248.5t-169.5 77.5q-129 0 -203 -89t-104 -263l-127 -719
q-17 -86 -11 -148t23 -102.5t49.5 -64.5t67.5 -34t78 -10q119 0 186 77.5t97 242.5l28 160l56 -5l-27 -155q-31 -181 -110.5 -274t-229.5 -93z" />
    <glyph glyph-name="ccircumflex" unicode="&#x109;" horiz-adv-x="641" 
d="M246 -25q-47 0 -85.5 14.5t-72.5 51.5t-42.5 100t5.5 160l76 424q29 159 90.5 241.5t183.5 82.5q240 0 195 -293l-10 -68l-54 -4l13 74q7 54 7 93.5t-12 67t-26 44.5t-36 26.5t-40 13t-39 3.5q-53 0 -91.5 -19.5t-63 -59.5t-39.5 -86.5t-27 -113.5l-76 -424
q-15 -70 -8.5 -120t20 -82t38.5 -50.5t47.5 -25.5t46.5 -7q44 0 77.5 14.5t54.5 35.5t38.5 59t26.5 71t20 85l16 79l47 -4l-14 -77q-10 -56 -22 -97.5t-32.5 -83t-48 -67.5t-69 -42t-94.5 -16z" />
    <glyph glyph-name="Cdotaccent" unicode="&#x10a;" horiz-adv-x="821" 
d="M346 -35q-42 0 -78.5 7t-73.5 24.5t-61.5 47.5t-43.5 75.5t-19 108.5t12 147l125 710q35 202 121 303t243 101q68 0 119.5 -18.5t90.5 -62t49 -114.5t-5 -176l-24 -139l-58 -4l25 141q29 171 -25.5 248.5t-169.5 77.5q-129 0 -203 -89t-104 -263l-127 -719
q-17 -86 -11 -148t23 -102.5t49.5 -64.5t67.5 -34t78 -10q119 0 186 77.5t97 242.5l28 160l56 -5l-27 -155q-31 -181 -110.5 -274t-229.5 -93z" />
    <glyph glyph-name="cdotaccent" unicode="&#x10b;" horiz-adv-x="641" 
d="M246 -25q-47 0 -85.5 14.5t-72.5 51.5t-42.5 100t5.5 160l76 424q29 159 90.5 241.5t183.5 82.5q240 0 195 -293l-10 -68l-54 -4l13 74q7 54 7 93.5t-12 67t-26 44.5t-36 26.5t-40 13t-39 3.5q-53 0 -91.5 -19.5t-63 -59.5t-39.5 -86.5t-27 -113.5l-76 -424
q-15 -70 -8.5 -120t20 -82t38.5 -50.5t47.5 -25.5t46.5 -7q44 0 77.5 14.5t54.5 35.5t38.5 59t26.5 71t20 85l16 79l47 -4l-14 -77q-10 -56 -22 -97.5t-32.5 -83t-48 -67.5t-69 -42t-94.5 -16z" />
    <glyph glyph-name="Ccaron" unicode="&#x10c;" horiz-adv-x="821" 
d="M346 -35q-42 0 -78.5 7t-73.5 24.5t-61.5 47.5t-43.5 75.5t-19 108.5t12 147l125 710q35 202 121 303t243 101q68 0 119.5 -18.5t90.5 -62t49 -114.5t-5 -176l-24 -139l-58 -4l25 141q29 171 -25.5 248.5t-169.5 77.5q-129 0 -203 -89t-104 -263l-127 -719
q-17 -86 -11 -148t23 -102.5t49.5 -64.5t67.5 -34t78 -10q119 0 186 77.5t97 242.5l28 160l56 -5l-27 -155q-31 -181 -110.5 -274t-229.5 -93z" />
    <glyph glyph-name="ccaron" unicode="&#x10d;" horiz-adv-x="641" 
d="M246 -25q-47 0 -85.5 14.5t-72.5 51.5t-42.5 100t5.5 160l76 424q29 159 90.5 241.5t183.5 82.5q240 0 195 -293l-10 -68l-54 -4l13 74q7 54 7 93.5t-12 67t-26 44.5t-36 26.5t-40 13t-39 3.5q-53 0 -91.5 -19.5t-63 -59.5t-39.5 -86.5t-27 -113.5l-76 -424
q-15 -70 -8.5 -120t20 -82t38.5 -50.5t47.5 -25.5t46.5 -7q44 0 77.5 14.5t54.5 35.5t38.5 59t26.5 71t20 85l16 79l47 -4l-14 -77q-10 -56 -22 -97.5t-32.5 -83t-48 -67.5t-69 -42t-94.5 -16z" />
    <glyph glyph-name="Dcaron" unicode="&#x10e;" horiz-adv-x="843" 
d="M301 0h-248l256 1454h189q199 0 281 -120t36 -384l-84 -477q-32 -183 -83.5 -284.5t-133 -145t-213.5 -43.5zM356 1407l-239 -1360h190q165 0 244 94t121 330l86 479q43 241 -27.5 349t-243.5 108h-131z" />
    <glyph glyph-name="dcaron" unicode="&#x10f;" horiz-adv-x="698" 
d="M233 -25q-28 0 -52.5 6t-51 21t-43.5 41.5t-30.5 67t-11.5 97.5t13 134l64 356q11 61 23.5 106.5t34.5 94t50.5 79.5t71.5 51t98 20q178 0 181 -215l114 651h51l-262 -1485h-47l37 199q-42 -110 -95.5 -167t-144.5 -57zM240 20q97 0 164 96.5t96 258.5l49 276
q14 70 12.5 133.5t-16 112.5t-52.5 78t-96 29q-46 0 -82 -18.5t-58.5 -46t-40.5 -72.5t-27.5 -84t-18.5 -93l-61 -352q-12 -67 -12 -120.5t10 -87t24 -56.5t35 -34t38 -15.5t36 -4.5z" />
    <glyph glyph-name="Dcroat" unicode="&#x110;" horiz-adv-x="843" 
d="M301 0h-248l256 1454h189q199 0 281 -120t36 -384l-84 -477q-32 -183 -83.5 -284.5t-133 -145t-213.5 -43.5zM356 1407l-239 -1360h190q165 0 244 94t121 330l86 479q43 241 -27.5 349t-243.5 108h-131z" />
    <glyph glyph-name="dcroat" unicode="&#x111;" horiz-adv-x="698" 
d="M233 -25q-28 0 -52.5 6t-51 21t-43.5 41.5t-30.5 67t-11.5 97.5t13 134l64 356q11 61 23.5 106.5t34.5 94t50.5 79.5t71.5 51t98 20q178 0 181 -215l114 651h51l-262 -1485h-47l37 199q-42 -110 -95.5 -167t-144.5 -57zM240 20q97 0 164 96.5t96 258.5l49 276
q14 70 12.5 133.5t-16 112.5t-52.5 78t-96 29q-46 0 -82 -18.5t-58.5 -46t-40.5 -72.5t-27.5 -84t-18.5 -93l-61 -352q-12 -67 -12 -120.5t10 -87t24 -56.5t35 -34t38 -15.5t36 -4.5z" />
    <glyph glyph-name="Emacron" unicode="&#x112;" 
d="M772 1454l-8 -49h-408l-110 -629h372l-8 -49h-372l-121 -678h422l-9 -49h-477l256 1454h463z" />
    <glyph glyph-name="emacron" unicode="&#x113;" horiz-adv-x="636" 
d="M397 1049q122 0 171 -85.5t20 -244.5l-33 -180h-414l-35 -195q-58 -326 140 -326q80 0 132.5 56.5t80.5 199.5l14 76l47 -4l-12 -74q-28 -162 -94.5 -229.5t-167.5 -67.5q-255 0 -187 379l70 387q13 73 29.5 123.5t46.5 95.5t77.5 67t114.5 22zM539 731q47 277 -146 277
q-54 0 -92.5 -19t-62 -59t-37 -83t-25.5 -110l-29 -159h365q4 25 13.5 76t13.5 77z" />
    <glyph glyph-name="Ebreve" unicode="&#x114;" 
d="M772 1454l-8 -49h-408l-110 -629h372l-8 -49h-372l-121 -678h422l-9 -49h-477l256 1454h463z" />
    <glyph glyph-name="ebreve" unicode="&#x115;" horiz-adv-x="636" 
d="M397 1049q122 0 171 -85.5t20 -244.5l-33 -180h-414l-35 -195q-58 -326 140 -326q80 0 132.5 56.5t80.5 199.5l14 76l47 -4l-12 -74q-28 -162 -94.5 -229.5t-167.5 -67.5q-255 0 -187 379l70 387q13 73 29.5 123.5t46.5 95.5t77.5 67t114.5 22zM539 731q47 277 -146 277
q-54 0 -92.5 -19t-62 -59t-37 -83t-25.5 -110l-29 -159h365q4 25 13.5 76t13.5 77z" />
    <glyph glyph-name="Edotaccent" unicode="&#x116;" 
d="M772 1454l-8 -49h-408l-110 -629h372l-8 -49h-372l-121 -678h422l-9 -49h-477l256 1454h463z" />
    <glyph glyph-name="edotaccent" unicode="&#x117;" horiz-adv-x="636" 
d="M397 1049q122 0 171 -85.5t20 -244.5l-33 -180h-414l-35 -195q-58 -326 140 -326q80 0 132.5 56.5t80.5 199.5l14 76l47 -4l-12 -74q-28 -162 -94.5 -229.5t-167.5 -67.5q-255 0 -187 379l70 387q13 73 29.5 123.5t46.5 95.5t77.5 67t114.5 22zM539 731q47 277 -146 277
q-54 0 -92.5 -19t-62 -59t-37 -83t-25.5 -110l-29 -159h365q4 25 13.5 76t13.5 77z" />
    <glyph glyph-name="Eogonek" unicode="&#x118;" 
d="M772 1454l-8 -49h-408l-110 -629h372l-8 -49h-372l-121 -678h422l-9 -49h-477l256 1454h463z" />
    <glyph glyph-name="eogonek" unicode="&#x119;" horiz-adv-x="636" 
d="M397 1049q122 0 171 -85.5t20 -244.5l-33 -180h-414l-35 -195q-58 -326 140 -326q80 0 132.5 56.5t80.5 199.5l14 76l47 -4l-12 -74q-28 -162 -94.5 -229.5t-167.5 -67.5q-255 0 -187 379l70 387q13 73 29.5 123.5t46.5 95.5t77.5 67t114.5 22zM539 731q47 277 -146 277
q-54 0 -92.5 -19t-62 -59t-37 -83t-25.5 -110l-29 -159h365q4 25 13.5 76t13.5 77z" />
    <glyph glyph-name="Ecaron" unicode="&#x11a;" 
d="M772 1454l-8 -49h-408l-110 -629h372l-8 -49h-372l-121 -678h422l-9 -49h-477l256 1454h463z" />
    <glyph glyph-name="ecaron" unicode="&#x11b;" horiz-adv-x="636" 
d="M397 1049q122 0 171 -85.5t20 -244.5l-33 -180h-414l-35 -195q-58 -326 140 -326q80 0 132.5 56.5t80.5 199.5l14 76l47 -4l-12 -74q-28 -162 -94.5 -229.5t-167.5 -67.5q-255 0 -187 379l70 387q13 73 29.5 123.5t46.5 95.5t77.5 67t114.5 22zM539 731q47 277 -146 277
q-54 0 -92.5 -19t-62 -59t-37 -83t-25.5 -110l-29 -159h365q4 25 13.5 76t13.5 77z" />
    <glyph glyph-name="Gcircumflex" unicode="&#x11c;" horiz-adv-x="825" 
d="M319 -35q-139 0 -205 108t-26 333l121 679q13 72 31 130t47 110.5t67 87.5t91.5 55.5t119.5 20.5q141 0 205 -93.5t29 -293.5l-19 -105l-53 -2l16 103q55 344 -180 344q-69 0 -121 -27t-86 -78.5t-55 -111.5t-35 -140l-121 -679q-17 -112 -13 -187.5t32.5 -121.5
t67 -65.5t90.5 -19.5q124 0 204 121t119 336l39 219h-285l9 47h337l-131 -735h-41l39 250q-52 -158 -121 -221.5t-172 -63.5z" />
    <glyph glyph-name="gcircumflex" unicode="&#x11d;" horiz-adv-x="641" 
d="M670 1143q22 0 37 -6l-9 -52q-14 7 -34 7q-52 0 -80 -27t-45 -72q57 -67 32 -223l-24 -145q-8 -45 -17.5 -80t-29 -75t-45.5 -65.5t-68 -43t-96 -17.5q-50 0 -88 14q-48 -19 -69 -60.5t-21 -78.5q0 -42 25.5 -62.5t70.5 -31.5l108 -25q102 -23 133.5 -89t14.5 -165
l-8 -47q-19 -106 -93.5 -164.5t-195.5 -58.5q-95 0 -152.5 36.5t-73.5 91t-3 122.5l8 43q21 100 66 150.5t128 74.5q-80 32 -80 119q0 49 29.5 93.5t87.5 66.5q-97 62 -63 250l24 145q8 45 17.5 80t29 75t45.5 65.5t68 43t96 17.5q77 0 123 -35q20 54 58.5 91.5t93.5 37.5z
M496 621l28 155q23 123 -15.5 177.5t-117.5 54.5q-42 0 -75.5 -15.5t-53.5 -37.5t-35.5 -56.5t-23 -62t-13.5 -64.5l-28 -156q-23 -123 15.5 -177t117.5 -54q42 0 75.5 15.5t53.5 37.5t35.5 56.5t23 62t13.5 64.5zM291 57l-107 23q-2 1 -7 2t-7 2q-74 -29 -114.5 -79
t-57.5 -144l-6 -35q-16 -95 26.5 -150t155.5 -55q109 0 163.5 51t70.5 146l6 35q8 34 6 67t-12.5 59.5t-40 47t-76.5 30.5z" />
    <glyph glyph-name="Gbreve" unicode="&#x11e;" horiz-adv-x="825" 
d="M319 -35q-139 0 -205 108t-26 333l121 679q13 72 31 130t47 110.5t67 87.5t91.5 55.5t119.5 20.5q141 0 205 -93.5t29 -293.5l-19 -105l-53 -2l16 103q55 344 -180 344q-69 0 -121 -27t-86 -78.5t-55 -111.5t-35 -140l-121 -679q-17 -112 -13 -187.5t32.5 -121.5
t67 -65.5t90.5 -19.5q124 0 204 121t119 336l39 219h-285l9 47h337l-131 -735h-41l39 250q-52 -158 -121 -221.5t-172 -63.5z" />
    <glyph glyph-name="gbreve" unicode="&#x11f;" horiz-adv-x="641" 
d="M670 1143q22 0 37 -6l-9 -52q-14 7 -34 7q-52 0 -80 -27t-45 -72q57 -67 32 -223l-24 -145q-8 -45 -17.5 -80t-29 -75t-45.5 -65.5t-68 -43t-96 -17.5q-50 0 -88 14q-48 -19 -69 -60.5t-21 -78.5q0 -42 25.5 -62.5t70.5 -31.5l108 -25q102 -23 133.5 -89t14.5 -165
l-8 -47q-19 -106 -93.5 -164.5t-195.5 -58.5q-95 0 -152.5 36.5t-73.5 91t-3 122.5l8 43q21 100 66 150.5t128 74.5q-80 32 -80 119q0 49 29.5 93.5t87.5 66.5q-97 62 -63 250l24 145q8 45 17.5 80t29 75t45.5 65.5t68 43t96 17.5q77 0 123 -35q20 54 58.5 91.5t93.5 37.5z
M496 621l28 155q23 123 -15.5 177.5t-117.5 54.5q-42 0 -75.5 -15.5t-53.5 -37.5t-35.5 -56.5t-23 -62t-13.5 -64.5l-28 -156q-23 -123 15.5 -177t117.5 -54q42 0 75.5 15.5t53.5 37.5t35.5 56.5t23 62t13.5 64.5zM291 57l-107 23q-2 1 -7 2t-7 2q-74 -29 -114.5 -79
t-57.5 -144l-6 -35q-16 -95 26.5 -150t155.5 -55q109 0 163.5 51t70.5 146l6 35q8 34 6 67t-12.5 59.5t-40 47t-76.5 30.5z" />
    <glyph glyph-name="Gdotaccent" unicode="&#x120;" horiz-adv-x="825" 
d="M319 -35q-139 0 -205 108t-26 333l121 679q13 72 31 130t47 110.5t67 87.5t91.5 55.5t119.5 20.5q141 0 205 -93.5t29 -293.5l-19 -105l-53 -2l16 103q55 344 -180 344q-69 0 -121 -27t-86 -78.5t-55 -111.5t-35 -140l-121 -679q-17 -112 -13 -187.5t32.5 -121.5
t67 -65.5t90.5 -19.5q124 0 204 121t119 336l39 219h-285l9 47h337l-131 -735h-41l39 250q-52 -158 -121 -221.5t-172 -63.5z" />
    <glyph glyph-name="gdotaccent" unicode="&#x121;" horiz-adv-x="641" 
d="M670 1143q22 0 37 -6l-9 -52q-14 7 -34 7q-52 0 -80 -27t-45 -72q57 -67 32 -223l-24 -145q-8 -45 -17.5 -80t-29 -75t-45.5 -65.5t-68 -43t-96 -17.5q-50 0 -88 14q-48 -19 -69 -60.5t-21 -78.5q0 -42 25.5 -62.5t70.5 -31.5l108 -25q102 -23 133.5 -89t14.5 -165
l-8 -47q-19 -106 -93.5 -164.5t-195.5 -58.5q-95 0 -152.5 36.5t-73.5 91t-3 122.5l8 43q21 100 66 150.5t128 74.5q-80 32 -80 119q0 49 29.5 93.5t87.5 66.5q-97 62 -63 250l24 145q8 45 17.5 80t29 75t45.5 65.5t68 43t96 17.5q77 0 123 -35q20 54 58.5 91.5t93.5 37.5z
M496 621l28 155q23 123 -15.5 177.5t-117.5 54.5q-42 0 -75.5 -15.5t-53.5 -37.5t-35.5 -56.5t-23 -62t-13.5 -64.5l-28 -156q-23 -123 15.5 -177t117.5 -54q42 0 75.5 15.5t53.5 37.5t35.5 56.5t23 62t13.5 64.5zM291 57l-107 23q-2 1 -7 2t-7 2q-74 -29 -114.5 -79
t-57.5 -144l-6 -35q-16 -95 26.5 -150t155.5 -55q109 0 163.5 51t70.5 146l6 35q8 34 6 67t-12.5 59.5t-40 47t-76.5 30.5z" />
    <glyph glyph-name="uni0122" unicode="&#x122;" horiz-adv-x="825" 
d="M319 -35q-139 0 -205 108t-26 333l121 679q13 72 31 130t47 110.5t67 87.5t91.5 55.5t119.5 20.5q141 0 205 -93.5t29 -293.5l-19 -105l-53 -2l16 103q55 344 -180 344q-69 0 -121 -27t-86 -78.5t-55 -111.5t-35 -140l-121 -679q-17 -112 -13 -187.5t32.5 -121.5
t67 -65.5t90.5 -19.5q124 0 204 121t119 336l39 219h-285l9 47h337l-131 -735h-41l39 250q-52 -158 -121 -221.5t-172 -63.5z" />
    <glyph glyph-name="uni0123" unicode="&#x123;" horiz-adv-x="641" 
d="M670 1143q22 0 37 -6l-9 -52q-14 7 -34 7q-52 0 -80 -27t-45 -72q57 -67 32 -223l-24 -145q-8 -45 -17.5 -80t-29 -75t-45.5 -65.5t-68 -43t-96 -17.5q-50 0 -88 14q-48 -19 -69 -60.5t-21 -78.5q0 -42 25.5 -62.5t70.5 -31.5l108 -25q102 -23 133.5 -89t14.5 -165
l-8 -47q-19 -106 -93.5 -164.5t-195.5 -58.5q-95 0 -152.5 36.5t-73.5 91t-3 122.5l8 43q21 100 66 150.5t128 74.5q-80 32 -80 119q0 49 29.5 93.5t87.5 66.5q-97 62 -63 250l24 145q8 45 17.5 80t29 75t45.5 65.5t68 43t96 17.5q77 0 123 -35q20 54 58.5 91.5t93.5 37.5z
M496 621l28 155q23 123 -15.5 177.5t-117.5 54.5q-42 0 -75.5 -15.5t-53.5 -37.5t-35.5 -56.5t-23 -62t-13.5 -64.5l-28 -156q-23 -123 15.5 -177t117.5 -54q42 0 75.5 15.5t53.5 37.5t35.5 56.5t23 62t13.5 64.5zM291 57l-107 23q-2 1 -7 2t-7 2q-74 -29 -114.5 -79
t-57.5 -144l-6 -35q-16 -95 26.5 -150t155.5 -55q109 0 163.5 51t70.5 146l6 35q8 34 6 67t-12.5 59.5t-40 47t-76.5 30.5z" />
    <glyph glyph-name="Hcircumflex" unicode="&#x124;" horiz-adv-x="866" 
d="M834 1454h55l-256 -1454h-55l127 725h-469l-127 -725h-56l256 1454h56l-119 -680h469z" />
    <glyph glyph-name="hcircumflex" unicode="&#x125;" horiz-adv-x="706" 
d="M84 0h-49l262 1485h49l-117 -660q36 107 92.5 165.5t151.5 58.5q74 0 125 -44t51 -141q0 -39 -14 -125l-133 -739h-49l133 752q10 64 10 100q0 82 -38 117t-95 35q-203 0 -266 -361z" />
    <glyph glyph-name="Hbar" unicode="&#x126;" horiz-adv-x="866" 
d="M834 1454h55l-256 -1454h-55l127 725h-469l-127 -725h-56l256 1454h56l-119 -680h469z" />
    <glyph glyph-name="hbar" unicode="&#x127;" horiz-adv-x="706" 
d="M84 0h-49l262 1485h49l-117 -660q36 107 92.5 165.5t151.5 58.5q74 0 125 -44t51 -141q0 -39 -14 -125l-133 -739h-49l133 752q10 64 10 100q0 82 -38 117t-95 35q-203 0 -266 -361z" />
    <glyph glyph-name="Itilde" unicode="&#x128;" horiz-adv-x="342" 
d="M365 1454l-256 -1454h-56l256 1454h56z" />
    <glyph glyph-name="itilde" unicode="&#x129;" horiz-adv-x="301" 
d="M289 1194h-56l39 225h56zM86 0h-51l180 1024h51z" />
    <glyph glyph-name="Imacron" unicode="&#x12a;" horiz-adv-x="342" 
d="M365 1454l-256 -1454h-56l256 1454h56z" />
    <glyph glyph-name="imacron" unicode="&#x12b;" horiz-adv-x="301" 
d="M289 1194h-56l39 225h56zM86 0h-51l180 1024h51z" />
    <glyph glyph-name="Ibreve" unicode="&#x12c;" horiz-adv-x="342" 
d="M365 1454l-256 -1454h-56l256 1454h56z" />
    <glyph glyph-name="ibreve" unicode="&#x12d;" horiz-adv-x="301" 
d="M289 1194h-56l39 225h56zM86 0h-51l180 1024h51z" />
    <glyph glyph-name="Iogonek" unicode="&#x12e;" horiz-adv-x="342" 
d="M365 1454l-256 -1454h-56l256 1454h56z" />
    <glyph glyph-name="iogonek" unicode="&#x12f;" horiz-adv-x="301" 
d="M289 1194h-56l39 225h56zM86 0h-51l180 1024h51z" />
    <glyph glyph-name="Idotaccent" unicode="&#x130;" horiz-adv-x="342" 
d="M365 1454l-256 -1454h-56l256 1454h56z" />
    <glyph glyph-name="dotlessi" unicode="&#x131;" horiz-adv-x="301" 
d="M289 1194h-56l39 225h56zM86 0h-51l180 1024h51z" />
    <glyph glyph-name="IJ" unicode="&#x132;" horiz-adv-x="806" 
d="M365 1454l-256 -1454h-56l256 1454h56zM842 1454l-213 -1212q-24 -138 -78 -202.5t-158 -64.5q-69 0 -117 25l9 51q60 -24 114 -24q76 0 114.5 52t59.5 171l213 1204h56z" />
    <glyph glyph-name="ij" unicode="&#x133;" horiz-adv-x="602" 
d="M289 1194h-56l39 225h56zM590 1194h-55l38 225h56zM86 0h-51l180 1024h51zM184 -414q-36 0 -71 13l8 45q29 -11 61 -11q51 0 74.5 28.5t32.5 78.5l227 1284h51l-227 -1286q-12 -73 -52 -112.5t-104 -39.5z" />
    <glyph glyph-name="Jcircumflex" unicode="&#x134;" horiz-adv-x="464" 
d="M500 1454l-213 -1212q-24 -138 -78 -202.5t-158 -64.5q-69 0 -117 25l9 51q60 -24 114 -24q76 0 114.5 52t59.5 171l213 1204h56z" />
    <glyph glyph-name="jcircumflex" unicode="&#x135;" horiz-adv-x="301" 
d="M289 1194h-56l39 225h56zM-117 -414q-36 0 -71 13l8 45q29 -11 61 -11q51 0 74.5 28.5t32.5 78.5l227 1284h51l-227 -1286q-12 -73 -52 -112.5t-104 -39.5z" />
    <glyph glyph-name="uni0136" unicode="&#x136;" horiz-adv-x="788" 
d="M834 1454h63l-403 -539l168 -915h-52l-157 862l-252 -336l-92 -526h-56l256 1454h56l-148 -833z" />
    <glyph glyph-name="uni0137" unicode="&#x137;" horiz-adv-x="647" 
d="M629 1024h61l-303 -369l139 -655h-49l-127 610l-200 -239l-66 -371h-49l262 1485h49l-184 -1041z" />
    <glyph glyph-name="kgreenlandic" unicode="&#x138;" horiz-adv-x="647" 
d="M629 1024h61l-303 -369l139 -655h-49l-127 610l-200 -239l-66 -371h-49l262 1485h49l-184 -1041z" />
    <glyph glyph-name="Lacute" unicode="&#x139;" horiz-adv-x="618" 
d="M487 0h-434l256 1454h56l-248 -1405h379z" />
    <glyph glyph-name="lacute" unicode="&#x13a;" horiz-adv-x="299" 
d="M297 1485h49l-262 -1485h-49z" />
    <glyph glyph-name="uni013B" unicode="&#x13b;" horiz-adv-x="618" 
d="M487 0h-434l256 1454h56l-248 -1405h379z" />
    <glyph glyph-name="uni013C" unicode="&#x13c;" horiz-adv-x="299" 
d="M297 1485h49l-262 -1485h-49z" />
    <glyph glyph-name="Lcaron" unicode="&#x13d;" horiz-adv-x="618" 
d="M487 0h-434l256 1454h56l-248 -1405h379z" />
    <glyph glyph-name="lcaron" unicode="&#x13e;" horiz-adv-x="299" 
d="M297 1485h49l-262 -1485h-49z" />
    <glyph glyph-name="Ldot" unicode="&#x13f;" horiz-adv-x="618" 
d="M487 0h-434l256 1454h56l-248 -1405h379z" />
    <glyph glyph-name="ldot" unicode="&#x140;" horiz-adv-x="299" 
d="M297 1485h49l-262 -1485h-49z" />
    <glyph glyph-name="Lslash" unicode="&#x141;" horiz-adv-x="618" 
d="M487 0h-434l256 1454h56l-248 -1405h379z" />
    <glyph glyph-name="lslash" unicode="&#x142;" horiz-adv-x="299" 
d="M297 1485h49l-262 -1485h-49z" />
    <glyph glyph-name="Nacute" unicode="&#x143;" horiz-adv-x="890" 
d="M106 0h-53l256 1454h66l219 -1171q2 -10 8.5 -45.5t9 -51t6.5 -45.5t5 -59h4q7 93 39 274l194 1098h53l-256 -1454h-61l-221 1176q-2 14 -8.5 47t-9.5 50t-6.5 46.5t-4.5 58.5h-4q-10 -103 -41 -276z" />
    <glyph glyph-name="nacute" unicode="&#x144;" horiz-adv-x="704" 
d="M86 0h-49l178 1024h49l-37 -207q38 116 94 174t150 58q174 0 174 -193q0 -41 -8 -88l-135 -768h-49l137 778q6 44 6 74q0 152 -131 152q-57 0 -104 -31.5t-78 -85.5t-51 -114t-33 -130z" />
    <glyph glyph-name="uni0145" unicode="&#x145;" horiz-adv-x="890" 
d="M106 0h-53l256 1454h66l219 -1171q2 -10 8.5 -45.5t9 -51t6.5 -45.5t5 -59h4q7 93 39 274l194 1098h53l-256 -1454h-61l-221 1176q-2 14 -8.5 47t-9.5 50t-6.5 46.5t-4.5 58.5h-4q-10 -103 -41 -276z" />
    <glyph glyph-name="uni0146" unicode="&#x146;" horiz-adv-x="704" 
d="M86 0h-49l178 1024h49l-37 -207q38 116 94 174t150 58q174 0 174 -193q0 -41 -8 -88l-135 -768h-49l137 778q6 44 6 74q0 152 -131 152q-57 0 -104 -31.5t-78 -85.5t-51 -114t-33 -130z" />
    <glyph glyph-name="Ncaron" unicode="&#x147;" horiz-adv-x="890" 
d="M106 0h-53l256 1454h66l219 -1171q2 -10 8.5 -45.5t9 -51t6.5 -45.5t5 -59h4q7 93 39 274l194 1098h53l-256 -1454h-61l-221 1176q-2 14 -8.5 47t-9.5 50t-6.5 46.5t-4.5 58.5h-4q-10 -103 -41 -276z" />
    <glyph glyph-name="ncaron" unicode="&#x148;" horiz-adv-x="704" 
d="M86 0h-49l178 1024h49l-37 -207q38 116 94 174t150 58q174 0 174 -193q0 -41 -8 -88l-135 -768h-49l137 778q6 44 6 74q0 152 -131 152q-57 0 -104 -31.5t-78 -85.5t-51 -114t-33 -130z" />
    <glyph glyph-name="napostrophe" unicode="&#x149;" horiz-adv-x="704" 
d="M86 0h-49l178 1024h49l-37 -207q38 116 94 174t150 58q174 0 174 -193q0 -41 -8 -88l-135 -768h-49l137 778q6 44 6 74q0 152 -131 152q-57 0 -104 -31.5t-78 -85.5t-51 -114t-33 -130z" />
    <glyph glyph-name="Eng" unicode="&#x14a;" horiz-adv-x="890" 
d="M106 0h-53l256 1454h66l219 -1171q2 -10 8.5 -45.5t9 -51t6.5 -45.5t5 -59h4q7 93 39 274l194 1098h53l-256 -1454h-61l-221 1176q-2 14 -8.5 47t-9.5 50t-6.5 46.5t-4.5 58.5h-4q-10 -103 -41 -276z" />
    <glyph glyph-name="eng" unicode="&#x14b;" horiz-adv-x="704" 
d="M86 0h-49l178 1024h49l-37 -207q38 116 94 174t150 58q174 0 174 -193q0 -41 -8 -88l-135 -768h-49l137 778q6 44 6 74q0 152 -131 152q-57 0 -104 -31.5t-78 -85.5t-51 -114t-33 -130z" />
    <glyph glyph-name="Omacron" unicode="&#x14c;" horiz-adv-x="843" 
d="M358 -35q-155 0 -232 101t-42 307l127 729q12 72 28.5 127t44.5 106t64.5 83.5t90.5 51.5t122 19q155 0 232.5 -101.5t42.5 -306.5l-127 -729q-16 -91 -39.5 -156.5t-63 -120.5t-101.5 -82.5t-147 -27.5zM360 12q59 0 105 18.5t75.5 47.5t52 75.5t35 91.5t23.5 107
l129 729q33 187 -31.5 274t-189.5 87q-59 0 -105 -18.5t-75.5 -47.5t-52 -75.5t-35 -91.5t-23.5 -107l-129 -729q-33 -187 31.5 -274t189.5 -87z" />
    <glyph glyph-name="omacron" unicode="&#x14d;" horiz-adv-x="659" 
d="M252 -25q-54 0 -95.5 15.5t-73.5 52.5t-39.5 98t5.5 152l78 438q13 75 31.5 128.5t50 98.5t81.5 68t118 23q53 0 94.5 -15.5t73.5 -52.5t39.5 -98t-5.5 -152l-78 -438q-14 -75 -32 -128t-49.5 -98.5t-81 -68.5t-117.5 -23zM250 20q49 0 87 17.5t61 41.5t40.5 64t26 71.5
t16.5 76.5l78 442q47 271 -149 271q-49 0 -87 -17.5t-61.5 -42t-41 -64t-26 -71t-16.5 -76.5l-78 -442q-47 -271 150 -271z" />
    <glyph glyph-name="Obreve" unicode="&#x14e;" horiz-adv-x="843" 
d="M358 -35q-155 0 -232 101t-42 307l127 729q12 72 28.5 127t44.5 106t64.5 83.5t90.5 51.5t122 19q155 0 232.5 -101.5t42.5 -306.5l-127 -729q-16 -91 -39.5 -156.5t-63 -120.5t-101.5 -82.5t-147 -27.5zM360 12q59 0 105 18.5t75.5 47.5t52 75.5t35 91.5t23.5 107
l129 729q33 187 -31.5 274t-189.5 87q-59 0 -105 -18.5t-75.5 -47.5t-52 -75.5t-35 -91.5t-23.5 -107l-129 -729q-33 -187 31.5 -274t189.5 -87z" />
    <glyph glyph-name="obreve" unicode="&#x14f;" horiz-adv-x="659" 
d="M252 -25q-54 0 -95.5 15.5t-73.5 52.5t-39.5 98t5.5 152l78 438q13 75 31.5 128.5t50 98.5t81.5 68t118 23q53 0 94.5 -15.5t73.5 -52.5t39.5 -98t-5.5 -152l-78 -438q-14 -75 -32 -128t-49.5 -98.5t-81 -68.5t-117.5 -23zM250 20q49 0 87 17.5t61 41.5t40.5 64t26 71.5
t16.5 76.5l78 442q47 271 -149 271q-49 0 -87 -17.5t-61.5 -42t-41 -64t-26 -71t-16.5 -76.5l-78 -442q-47 -271 150 -271z" />
    <glyph glyph-name="Ohungarumlaut" unicode="&#x150;" horiz-adv-x="843" 
d="M358 -35q-155 0 -232 101t-42 307l127 729q12 72 28.5 127t44.5 106t64.5 83.5t90.5 51.5t122 19q155 0 232.5 -101.5t42.5 -306.5l-127 -729q-16 -91 -39.5 -156.5t-63 -120.5t-101.5 -82.5t-147 -27.5zM360 12q59 0 105 18.5t75.5 47.5t52 75.5t35 91.5t23.5 107
l129 729q33 187 -31.5 274t-189.5 87q-59 0 -105 -18.5t-75.5 -47.5t-52 -75.5t-35 -91.5t-23.5 -107l-129 -729q-33 -187 31.5 -274t189.5 -87z" />
    <glyph glyph-name="ohungarumlaut" unicode="&#x151;" horiz-adv-x="659" 
d="M252 -25q-54 0 -95.5 15.5t-73.5 52.5t-39.5 98t5.5 152l78 438q13 75 31.5 128.5t50 98.5t81.5 68t118 23q53 0 94.5 -15.5t73.5 -52.5t39.5 -98t-5.5 -152l-78 -438q-14 -75 -32 -128t-49.5 -98.5t-81 -68.5t-117.5 -23zM250 20q49 0 87 17.5t61 41.5t40.5 64t26 71.5
t16.5 76.5l78 442q47 271 -149 271q-49 0 -87 -17.5t-61.5 -42t-41 -64t-26 -71t-16.5 -76.5l-78 -442q-47 -271 150 -271z" />
    <glyph glyph-name="OE" unicode="&#x152;" horiz-adv-x="1515" 
d="M561 1489q155 0 232.5 -101.5t42.5 -306.5l-127 -729q-16 -91 -39.5 -156.5t-63 -120.5t-101.5 -82.5t-147 -27.5q-155 0 -232 101t-42 307l127 729q12 72 28.5 127t44.5 106t64.5 83.5t90.5 51.5t122 19zM1616 1454l-8 -49h-408l-110 -629h372l-8 -49h-373l-120 -678
h421l-8 -49h-477l256 1454h463zM651 352l129 729q33 187 -31.5 274t-189.5 87q-59 0 -105 -18.5t-75.5 -47.5t-52 -75.5t-35 -91.5t-23.5 -107l-129 -729q-33 -187 31.5 -274t189.5 -87q59 0 105 18.5t75.5 47.5t52 75.5t35 91.5t23.5 107z" />
    <glyph glyph-name="oe" unicode="&#x153;" horiz-adv-x="1296" 
d="M252 -25q-54 0 -95.5 15.5t-73.5 52.5t-39.5 98t5.5 152l78 438q13 75 31.5 128.5t50 98.5t81.5 68t118 23q53 0 94.5 -15.5t73.5 -52.5t39.5 -98t-5.5 -152l-78 -438q-14 -75 -32 -128t-49.5 -98.5t-81 -68.5t-117.5 -23zM1057 1049q122 0 170.5 -85.5t19.5 -244.5
l-33 -180h-413l-35 -195q-58 -326 139 -326q80 0 132.5 56.5t80.5 199.5l15 76l47 -4l-13 -74q-28 -162 -94.5 -229.5t-167.5 -67.5q-254 0 -186 379l69 387q10 58 22 100.5t33 83.5t49 67t69.5 41.5t95.5 15.5zM1198 731q47 277 -145 277q-54 0 -92.5 -19t-62 -59t-37 -83
t-25.5 -110l-29 -159h364q4 25 13.5 76t13.5 77zM250 20q49 0 87 17.5t61 41.5t40.5 64t26 71.5t16.5 76.5l78 442q47 271 -149 271q-49 0 -87 -17.5t-61.5 -42t-41 -64t-26 -71t-16.5 -76.5l-78 -442q-47 -271 150 -271z" />
    <glyph glyph-name="Racute" unicode="&#x154;" horiz-adv-x="757" 
d="M309 1454h180q336 0 287 -330l-18 -120q-23 -141 -85.5 -221.5t-178.5 -98.5l122 -684h-61l-117 678h-211l-118 -678h-56zM700 1004l19 120q43 283 -230 283h-133l-120 -682h188q129 0 192 72.5t84 206.5z" />
    <glyph glyph-name="racute" unicode="&#x155;" horiz-adv-x="421" 
d="M264 1024l-43 -244q52 141 108.5 205t133.5 64q16 0 31 -5l-11 -49q-8 2 -30 2q-44 0 -72.5 -16.5t-56.5 -52.5q-46 -61 -81.5 -148.5t-47.5 -163.5l-109 -616h-51l180 1024h49z" />
    <glyph glyph-name="uni0156" unicode="&#x156;" horiz-adv-x="757" 
d="M309 1454h180q336 0 287 -330l-18 -120q-23 -141 -85.5 -221.5t-178.5 -98.5l122 -684h-61l-117 678h-211l-118 -678h-56zM700 1004l19 120q43 283 -230 283h-133l-120 -682h188q129 0 192 72.5t84 206.5z" />
    <glyph glyph-name="uni0157" unicode="&#x157;" horiz-adv-x="421" 
d="M264 1024l-43 -244q52 141 108.5 205t133.5 64q16 0 31 -5l-11 -49q-8 2 -30 2q-44 0 -72.5 -16.5t-56.5 -52.5q-46 -61 -81.5 -148.5t-47.5 -163.5l-109 -616h-51l180 1024h49z" />
    <glyph glyph-name="Rcaron" unicode="&#x158;" horiz-adv-x="757" 
d="M309 1454h180q336 0 287 -330l-18 -120q-23 -141 -85.5 -221.5t-178.5 -98.5l122 -684h-61l-117 678h-211l-118 -678h-56zM700 1004l19 120q43 283 -230 283h-133l-120 -682h188q129 0 192 72.5t84 206.5z" />
    <glyph glyph-name="rcaron" unicode="&#x159;" horiz-adv-x="421" 
d="M264 1024l-43 -244q52 141 108.5 205t133.5 64q16 0 31 -5l-11 -49q-8 2 -30 2q-44 0 -72.5 -16.5t-56.5 -52.5q-46 -61 -81.5 -148.5t-47.5 -163.5l-109 -616h-51l180 1024h49z" />
    <glyph glyph-name="Sacute" unicode="&#x15a;" horiz-adv-x="704" 
d="M293 -35q-148 0 -220 98t-40 293l20 123l56 4l-25 -147q-13 -87 -3.5 -148.5t41 -100.5t75.5 -57t100 -18q203 0 246 238l18 106q18 102 -12 184.5t-123 166.5l-111 100q-84 76 -110.5 160.5t-7.5 199.5l8 50q23 134 91.5 203t201.5 69q142 0 206.5 -81.5t34.5 -248.5
l-26 -149l-56 -4l27 149q26 145 -23.5 216t-164.5 71q-111 0 -165 -59.5t-71 -161.5l-12 -72q-17 -96 9.5 -169.5t102.5 -141.5l103 -93q107 -96 140 -185.5t11 -219.5l-14 -88q-21 -127 -95 -207t-212 -80z" />
    <glyph glyph-name="sacute" unicode="&#x15b;" horiz-adv-x="571" 
d="M219 -25q-115 0 -172 68.5t-29 210.5l15 74l51 4l-16 -86q-22 -113 24 -171.5t133 -58.5q70 0 114 41.5t62 135.5l11 53q7 45 10.5 82.5t-20.5 78t-80 76.5l-99 64q-71 47 -90.5 107.5t-3.5 146.5l8 41q22 106 76 156.5t145 50.5q105 0 155.5 -59t31.5 -183l-15 -96
l-51 -4l15 102q26 199 -140 199q-66 0 -107 -38t-59 -128l-8 -41q-18 -73 -0.5 -127t80.5 -96l102 -68q58 -39 85 -79.5t27 -84t-11 -98.5l-10 -51q-23 -116 -79 -169t-155 -53z" />
    <glyph glyph-name="Scircumflex" unicode="&#x15c;" horiz-adv-x="704" 
d="M293 -35q-148 0 -220 98t-40 293l20 123l56 4l-25 -147q-13 -87 -3.5 -148.5t41 -100.5t75.5 -57t100 -18q203 0 246 238l18 106q18 102 -12 184.5t-123 166.5l-111 100q-84 76 -110.5 160.5t-7.5 199.5l8 50q23 134 91.5 203t201.5 69q142 0 206.5 -81.5t34.5 -248.5
l-26 -149l-56 -4l27 149q26 145 -23.5 216t-164.5 71q-111 0 -165 -59.5t-71 -161.5l-12 -72q-17 -96 9.5 -169.5t102.5 -141.5l103 -93q107 -96 140 -185.5t11 -219.5l-14 -88q-21 -127 -95 -207t-212 -80z" />
    <glyph glyph-name="scircumflex" unicode="&#x15d;" horiz-adv-x="571" 
d="M219 -25q-115 0 -172 68.5t-29 210.5l15 74l51 4l-16 -86q-22 -113 24 -171.5t133 -58.5q70 0 114 41.5t62 135.5l11 53q7 45 10.5 82.5t-20.5 78t-80 76.5l-99 64q-71 47 -90.5 107.5t-3.5 146.5l8 41q22 106 76 156.5t145 50.5q105 0 155.5 -59t31.5 -183l-15 -96
l-51 -4l15 102q26 199 -140 199q-66 0 -107 -38t-59 -128l-8 -41q-18 -73 -0.5 -127t80.5 -96l102 -68q58 -39 85 -79.5t27 -84t-11 -98.5l-10 -51q-23 -116 -79 -169t-155 -53z" />
    <glyph glyph-name="Scedilla" unicode="&#x15e;" horiz-adv-x="704" 
d="M293 -35q-148 0 -220 98t-40 293l20 123l56 4l-25 -147q-13 -87 -3.5 -148.5t41 -100.5t75.5 -57t100 -18q203 0 246 238l18 106q18 102 -12 184.5t-123 166.5l-111 100q-84 76 -110.5 160.5t-7.5 199.5l8 50q23 134 91.5 203t201.5 69q142 0 206.5 -81.5t34.5 -248.5
l-26 -149l-56 -4l27 149q26 145 -23.5 216t-164.5 71q-111 0 -165 -59.5t-71 -161.5l-12 -72q-17 -96 9.5 -169.5t102.5 -141.5l103 -93q107 -96 140 -185.5t11 -219.5l-14 -88q-21 -127 -95 -207t-212 -80z" />
    <glyph glyph-name="scedilla" unicode="&#x15f;" horiz-adv-x="571" 
d="M219 -25q-115 0 -172 68.5t-29 210.5l15 74l51 4l-16 -86q-22 -113 24 -171.5t133 -58.5q70 0 114 41.5t62 135.5l11 53q7 45 10.5 82.5t-20.5 78t-80 76.5l-99 64q-71 47 -90.5 107.5t-3.5 146.5l8 41q22 106 76 156.5t145 50.5q105 0 155.5 -59t31.5 -183l-15 -96
l-51 -4l15 102q26 199 -140 199q-66 0 -107 -38t-59 -128l-8 -41q-18 -73 -0.5 -127t80.5 -96l102 -68q58 -39 85 -79.5t27 -84t-11 -98.5l-10 -51q-23 -116 -79 -169t-155 -53z" />
    <glyph glyph-name="Scaron" unicode="&#x160;" horiz-adv-x="704" 
d="M293 -35q-148 0 -220 98t-40 293l20 123l56 4l-25 -147q-13 -87 -3.5 -148.5t41 -100.5t75.5 -57t100 -18q203 0 246 238l18 106q18 102 -12 184.5t-123 166.5l-111 100q-84 76 -110.5 160.5t-7.5 199.5l8 50q23 134 91.5 203t201.5 69q142 0 206.5 -81.5t34.5 -248.5
l-26 -149l-56 -4l27 149q26 145 -23.5 216t-164.5 71q-111 0 -165 -59.5t-71 -161.5l-12 -72q-17 -96 9.5 -169.5t102.5 -141.5l103 -93q107 -96 140 -185.5t11 -219.5l-14 -88q-21 -127 -95 -207t-212 -80z" />
    <glyph glyph-name="scaron" unicode="&#x161;" horiz-adv-x="571" 
d="M219 -25q-115 0 -172 68.5t-29 210.5l15 74l51 4l-16 -86q-22 -113 24 -171.5t133 -58.5q70 0 114 41.5t62 135.5l11 53q7 45 10.5 82.5t-20.5 78t-80 76.5l-99 64q-71 47 -90.5 107.5t-3.5 146.5l8 41q22 106 76 156.5t145 50.5q105 0 155.5 -59t31.5 -183l-15 -96
l-51 -4l15 102q26 199 -140 199q-66 0 -107 -38t-59 -128l-8 -41q-18 -73 -0.5 -127t80.5 -96l102 -68q58 -39 85 -79.5t27 -84t-11 -98.5l-10 -51q-23 -116 -79 -169t-155 -53z" />
    <glyph glyph-name="uni0162" unicode="&#x162;" 
d="M178 1454h647l-8 -49h-293l-248 -1405h-53l248 1405h-301z" />
    <glyph glyph-name="uni0163" unicode="&#x163;" horiz-adv-x="417" 
d="M225 981h-119l7 43h118l45 250l54 18l-47 -268h178l-6 -43h-179l-139 -782q-18 -97 8.5 -134.5t94.5 -37.5q28 0 49 6l-8 -45q-24 -6 -68 -6q-165 0 -125 219z" />
    <glyph glyph-name="Tcaron" unicode="&#x164;" 
d="M178 1454h647l-8 -49h-293l-248 -1405h-53l248 1405h-301z" />
    <glyph glyph-name="tcaron" unicode="&#x165;" horiz-adv-x="417" 
d="M225 981h-119l7 43h118l45 250l54 18l-47 -268h178l-6 -43h-179l-139 -782q-18 -97 8.5 -134.5t94.5 -37.5q28 0 49 6l-8 -45q-24 -6 -68 -6q-165 0 -125 219z" />
    <glyph glyph-name="Tbar" unicode="&#x166;" 
d="M178 1454h647l-8 -49h-293l-248 -1405h-53l248 1405h-301z" />
    <glyph glyph-name="tbar" unicode="&#x167;" horiz-adv-x="417" 
d="M225 981h-119l7 43h118l45 250l54 18l-47 -268h178l-6 -43h-179l-139 -782q-18 -97 8.5 -134.5t94.5 -37.5q28 0 49 6l-8 -45q-24 -6 -68 -6q-165 0 -125 219z" />
    <glyph glyph-name="Utilde" unicode="&#x168;" horiz-adv-x="833" 
d="M96 307l201 1147h55l-207 -1169q-23 -127 34.5 -199t172.5 -72q207 0 254 271l207 1169h55l-206 -1171q-12 -67 -32.5 -119.5t-56 -100t-93 -73t-134.5 -25.5q-65 0 -115.5 18.5t-88.5 59t-49 105.5t3 159z" />
    <glyph glyph-name="utilde" unicode="&#x169;" horiz-adv-x="708" 
d="M233 -25q-174 0 -174 193q0 36 9 88l135 768h51l-137 -778q-6 -44 -6 -74q0 -81 36 -116.5t93 -35.5q113 0 176.5 94t93.5 267l113 643h51l-180 -1024h-50l37 207q-37 -115 -95.5 -173.5t-152.5 -58.5z" />
    <glyph glyph-name="Umacron" unicode="&#x16a;" horiz-adv-x="833" 
d="M96 307l201 1147h55l-207 -1169q-23 -127 34.5 -199t172.5 -72q207 0 254 271l207 1169h55l-206 -1171q-12 -67 -32.5 -119.5t-56 -100t-93 -73t-134.5 -25.5q-65 0 -115.5 18.5t-88.5 59t-49 105.5t3 159z" />
    <glyph glyph-name="umacron" unicode="&#x16b;" horiz-adv-x="708" 
d="M233 -25q-174 0 -174 193q0 36 9 88l135 768h51l-137 -778q-6 -44 -6 -74q0 -81 36 -116.5t93 -35.5q113 0 176.5 94t93.5 267l113 643h51l-180 -1024h-50l37 207q-37 -115 -95.5 -173.5t-152.5 -58.5z" />
    <glyph glyph-name="Ubreve" unicode="&#x16c;" horiz-adv-x="833" 
d="M96 307l201 1147h55l-207 -1169q-23 -127 34.5 -199t172.5 -72q207 0 254 271l207 1169h55l-206 -1171q-12 -67 -32.5 -119.5t-56 -100t-93 -73t-134.5 -25.5q-65 0 -115.5 18.5t-88.5 59t-49 105.5t3 159z" />
    <glyph glyph-name="ubreve" unicode="&#x16d;" horiz-adv-x="708" 
d="M233 -25q-174 0 -174 193q0 36 9 88l135 768h51l-137 -778q-6 -44 -6 -74q0 -81 36 -116.5t93 -35.5q113 0 176.5 94t93.5 267l113 643h51l-180 -1024h-50l37 207q-37 -115 -95.5 -173.5t-152.5 -58.5z" />
    <glyph glyph-name="Uring" unicode="&#x16e;" horiz-adv-x="833" 
d="M96 307l201 1147h55l-207 -1169q-23 -127 34.5 -199t172.5 -72q207 0 254 271l207 1169h55l-206 -1171q-12 -67 -32.5 -119.5t-56 -100t-93 -73t-134.5 -25.5q-65 0 -115.5 18.5t-88.5 59t-49 105.5t3 159z" />
    <glyph glyph-name="uring" unicode="&#x16f;" horiz-adv-x="708" 
d="M233 -25q-174 0 -174 193q0 36 9 88l135 768h51l-137 -778q-6 -44 -6 -74q0 -81 36 -116.5t93 -35.5q113 0 176.5 94t93.5 267l113 643h51l-180 -1024h-50l37 207q-37 -115 -95.5 -173.5t-152.5 -58.5z" />
    <glyph glyph-name="Uhungarumlaut" unicode="&#x170;" horiz-adv-x="833" 
d="M96 307l201 1147h55l-207 -1169q-23 -127 34.5 -199t172.5 -72q207 0 254 271l207 1169h55l-206 -1171q-12 -67 -32.5 -119.5t-56 -100t-93 -73t-134.5 -25.5q-65 0 -115.5 18.5t-88.5 59t-49 105.5t3 159z" />
    <glyph glyph-name="uhungarumlaut" unicode="&#x171;" horiz-adv-x="708" 
d="M233 -25q-174 0 -174 193q0 36 9 88l135 768h51l-137 -778q-6 -44 -6 -74q0 -81 36 -116.5t93 -35.5q113 0 176.5 94t93.5 267l113 643h51l-180 -1024h-50l37 207q-37 -115 -95.5 -173.5t-152.5 -58.5z" />
    <glyph glyph-name="Uogonek" unicode="&#x172;" horiz-adv-x="833" 
d="M96 307l201 1147h55l-207 -1169q-23 -127 34.5 -199t172.5 -72q207 0 254 271l207 1169h55l-206 -1171q-12 -67 -32.5 -119.5t-56 -100t-93 -73t-134.5 -25.5q-65 0 -115.5 18.5t-88.5 59t-49 105.5t3 159z" />
    <glyph glyph-name="uogonek" unicode="&#x173;" horiz-adv-x="708" 
d="M233 -25q-174 0 -174 193q0 36 9 88l135 768h51l-137 -778q-6 -44 -6 -74q0 -81 36 -116.5t93 -35.5q113 0 176.5 94t93.5 267l113 643h51l-180 -1024h-50l37 207q-37 -115 -95.5 -173.5t-152.5 -58.5z" />
    <glyph glyph-name="Wcircumflex" unicode="&#x174;" horiz-adv-x="1107" 
d="M244 0h-70l51 1454h54l-41 -1149q-1 -44 -9 -126t-10 -103h4q13 66 70 229l393 1149h64l-11 -1149q0 -99 -10 -229h4q21 103 62 229l364 1149h55l-460 -1454h-72l16 1245q0 7 11 131h-7q-12 -66 -34 -131z" />
    <glyph glyph-name="wcircumflex" unicode="&#x175;" horiz-adv-x="897" 
d="M190 0h-57l8 1024h49l-14 -831q0 -80 -4 -117h4q5 20 37 117l293 831h61v-831q0 -80 -2 -117h4q1 5 35 117l279 831h53l-352 -1024h-58v860q0 33 4 103h-4q-10 -33 -32 -103z" />
    <glyph glyph-name="Ycircumflex" unicode="&#x176;" horiz-adv-x="688" 
d="M283 0h-56l115 649l-158 805h58l114 -633q16 -80 17 -112h4q25 58 55 112l338 633h66l-439 -805z" />
    <glyph glyph-name="ycircumflex" unicode="&#x177;" horiz-adv-x="593" 
d="M-53 -410q-36 0 -62 11l9 45q22 -11 55 -11q58 0 96 38t74 137l63 172l-55 1042h51l37 -844q4 -123 4 -127h2q6 20 12.5 36.5t14 35t12.5 31.5l334 868h53l-477 -1214q-52 -131 -100.5 -175.5t-122.5 -44.5z" />
    <glyph glyph-name="Ydieresis" unicode="&#x178;" horiz-adv-x="688" 
d="M283 0h-56l115 649l-158 805h58l114 -633q16 -80 17 -112h4q25 58 55 112l338 633h66l-439 -805z" />
    <glyph glyph-name="Zacute" unicode="&#x179;" horiz-adv-x="653" 
d="M-49 0l8 43l758 1362h-475l8 49h532l-8 -43l-758 -1362h535l-8 -49h-592z" />
    <glyph glyph-name="zacute" unicode="&#x17a;" horiz-adv-x="544" 
d="M-37 0l8 43l547 936h-362l8 45h414l-7 -41l-548 -938h397l-8 -45h-449z" />
    <glyph glyph-name="Zdotaccent" unicode="&#x17b;" horiz-adv-x="653" 
d="M-49 0l8 43l758 1362h-475l8 49h532l-8 -43l-758 -1362h535l-8 -49h-592z" />
    <glyph glyph-name="zdotaccent" unicode="&#x17c;" horiz-adv-x="544" 
d="M-37 0l8 43l547 936h-362l8 45h414l-7 -41l-548 -938h397l-8 -45h-449z" />
    <glyph glyph-name="Zcaron" unicode="&#x17d;" horiz-adv-x="653" 
d="M-49 0l8 43l758 1362h-475l8 49h532l-8 -43l-758 -1362h535l-8 -49h-592z" />
    <glyph glyph-name="zcaron" unicode="&#x17e;" horiz-adv-x="544" 
d="M-37 0l8 43l547 936h-362l8 45h414l-7 -41l-548 -938h397l-8 -45h-449z" />
    <glyph glyph-name="AEacute" unicode="&#x1fc;" horiz-adv-x="1429" 
d="M-39 0l555 1454h57l43 -1454h-55l-10 434h-367l-164 -434h-59zM1530 1454l-8 -49h-408l-110 -629h372l-8 -49h-373l-121 -678h422l-8 -49h-477l256 1454h463zM444 1122l-241 -639h346l-17 639q-3 121 3 240h-9q-39 -128 -82 -240z" />
    <glyph glyph-name="aeacute" unicode="&#x1fd;" horiz-adv-x="1269" 
d="M174 -25q-197 0 -162 230l8 55q23 150 99 223q70 64 221 84l147 21l31 180q23 129 -9.5 183.5t-119.5 54.5q-86 0 -132.5 -45.5t-66.5 -159.5l-18 -107h-51l18 107q25 141 86.5 194.5t163.5 53.5q42 0 74 -8t59.5 -27t40.5 -51.5t17.5 -81.5t-9.5 -117l-84 -463
q-32 -172 -38 -301h-52q8 76 27 205q-68 -230 -250 -230zM1030 1049q122 0 171 -85.5t20 -244.5l-33 -180h-414l-35 -195q-58 -326 140 -326q80 0 132.5 56.5t80.5 199.5l14 76l47 -4l-12 -74q-28 -162 -94.5 -229.5t-167.5 -67.5q-255 0 -187 379l70 387q13 73 29.5 123.5
t46.5 95.5t77.5 67t114.5 22zM1171 731q47 277 -145 277q-54 0 -92.5 -19t-62 -59t-37 -83t-25.5 -110l-29 -159h365q4 25 13 76t13 77zM188 18q92 0 159.5 86t98.5 258l33 183l-137 -17q-73 -9 -123 -31t-79 -59t-43.5 -77.5t-24.5 -100.5l-9 -51q-15 -96 18.5 -143.5
t106.5 -47.5z" />
    <glyph glyph-name="Oslashacute" unicode="&#x1fe;" horiz-adv-x="843" 
d="M358 -35q-155 0 -232 101t-42 307l127 729q12 72 28.5 127t44.5 106t64.5 83.5t90.5 51.5t122 19q155 0 232.5 -101.5t42.5 -306.5l-127 -729q-16 -91 -39.5 -156.5t-63 -120.5t-101.5 -82.5t-147 -27.5zM360 12q59 0 105 18.5t75.5 47.5t52 75.5t35 91.5t23.5 107
l129 729q33 187 -31.5 274t-189.5 87q-59 0 -105 -18.5t-75.5 -47.5t-52 -75.5t-35 -91.5t-23.5 -107l-129 -729q-33 -187 31.5 -274t189.5 -87z" />
    <glyph glyph-name="oslashacute" unicode="&#x1ff;" horiz-adv-x="659" 
d="M252 -25q-54 0 -95.5 15.5t-73.5 52.5t-39.5 98t5.5 152l78 438q13 75 31.5 128.5t50 98.5t81.5 68t118 23q53 0 94.5 -15.5t73.5 -52.5t39.5 -98t-5.5 -152l-78 -438q-14 -75 -32 -128t-49.5 -98.5t-81 -68.5t-117.5 -23zM250 20q49 0 87 17.5t61 41.5t40.5 64t26 71.5
t16.5 76.5l78 442q47 271 -149 271q-49 0 -87 -17.5t-61.5 -42t-41 -64t-26 -71t-16.5 -76.5l-78 -442q-47 -271 150 -271z" />
    <glyph glyph-name="uni0218" unicode="&#x218;" horiz-adv-x="704" 
d="M293 -35q-148 0 -220 98t-40 293l20 123l56 4l-25 -147q-13 -87 -3.5 -148.5t41 -100.5t75.5 -57t100 -18q203 0 246 238l18 106q18 102 -12 184.5t-123 166.5l-111 100q-84 76 -110.5 160.5t-7.5 199.5l8 50q23 134 91.5 203t201.5 69q142 0 206.5 -81.5t34.5 -248.5
l-26 -149l-56 -4l27 149q26 145 -23.5 216t-164.5 71q-111 0 -165 -59.5t-71 -161.5l-12 -72q-17 -96 9.5 -169.5t102.5 -141.5l103 -93q107 -96 140 -185.5t11 -219.5l-14 -88q-21 -127 -95 -207t-212 -80z" />
    <glyph glyph-name="uni0219" unicode="&#x219;" horiz-adv-x="571" 
d="M219 -25q-115 0 -172 68.5t-29 210.5l15 74l51 4l-16 -86q-22 -113 24 -171.5t133 -58.5q70 0 114 41.5t62 135.5l11 53q7 45 10.5 82.5t-20.5 78t-80 76.5l-99 64q-71 47 -90.5 107.5t-3.5 146.5l8 41q22 106 76 156.5t145 50.5q105 0 155.5 -59t31.5 -183l-15 -96
l-51 -4l15 102q26 199 -140 199q-66 0 -107 -38t-59 -128l-8 -41q-18 -73 -0.5 -127t80.5 -96l102 -68q58 -39 85 -79.5t27 -84t-11 -98.5l-10 -51q-23 -116 -79 -169t-155 -53z" />
    <glyph glyph-name="uni021A" unicode="&#x21a;" 
d="M178 1454h647l-8 -49h-293l-248 -1405h-53l248 1405h-301z" />
    <glyph glyph-name="uni021B" unicode="&#x21b;" horiz-adv-x="417" 
d="M225 981h-119l7 43h118l45 250l54 18l-47 -268h178l-6 -43h-179l-139 -782q-18 -97 8.5 -134.5t94.5 -37.5q28 0 49 6l-8 -45q-24 -6 -68 -6q-165 0 -125 219z" />
    <glyph glyph-name="uni0237" unicode="&#x237;" horiz-adv-x="301" 
d="M289 1194h-56l39 225h56zM-117 -414q-36 0 -71 13l8 45q29 -11 61 -11q51 0 74.5 28.5t32.5 78.5l227 1284h51l-227 -1286q-12 -73 -52 -112.5t-104 -39.5z" />
    <glyph glyph-name="Alphatonos" unicode="&#x386;" horiz-adv-x="757" 
d="M616 0h-55l-10 434h-367l-164 -434h-59l555 1454h57zM444 1122l-241 -639h346l-17 639q-3 121 3 240h-9q-39 -128 -82 -240z" />
    <glyph glyph-name="Epsilontonos" unicode="&#x388;" 
d="M772 1454l-8 -49h-408l-110 -629h372l-8 -49h-372l-121 -678h422l-9 -49h-477l256 1454h463z" />
    <glyph glyph-name="Etatonos" unicode="&#x389;" horiz-adv-x="866" 
d="M834 1454h55l-256 -1454h-55l127 725h-469l-127 -725h-56l256 1454h56l-119 -680h469z" />
    <glyph glyph-name="Iotatonos" unicode="&#x38a;" horiz-adv-x="342" 
d="M365 1454l-256 -1454h-56l256 1454h56z" />
    <glyph glyph-name="Omicrontonos" unicode="&#x38c;" horiz-adv-x="843" 
d="M358 -35q-155 0 -232 101t-42 307l127 729q12 72 28.5 127t44.5 106t64.5 83.5t90.5 51.5t122 19q155 0 232.5 -101.5t42.5 -306.5l-127 -729q-16 -91 -39.5 -156.5t-63 -120.5t-101.5 -82.5t-147 -27.5zM360 12q59 0 105 18.5t75.5 47.5t52 75.5t35 91.5t23.5 107
l129 729q33 187 -31.5 274t-189.5 87q-59 0 -105 -18.5t-75.5 -47.5t-52 -75.5t-35 -91.5t-23.5 -107l-129 -729q-33 -187 31.5 -274t189.5 -87z" />
    <glyph glyph-name="Upsilontonos" unicode="&#x38e;" horiz-adv-x="688" 
d="M283 0h-56l115 649l-158 805h58l114 -633q16 -80 17 -112h4q25 58 55 112l338 633h66l-439 -805z" />
    <glyph glyph-name="Omegatonos" unicode="&#x38f;" horiz-adv-x="841" 
d="M559 1442q-59 0 -105 -18.5t-75.5 -47.5t-52 -75.5t-35 -91.5t-23.5 -107l-129 -733q-11 -70 -10.5 -130t35 -111.5t104.5 -78.5l-8 -49h-244l9 49h168l2 4q-77 32 -105.5 120t-3.5 222l125 707q12 72 28.5 127t44.5 106t64.5 83.5t90.5 51.5t122 19q155 0 231.5 -101
t41.5 -307l-119 -686q-49 -273 -230 -342l-2 -4h168l-8 -49h-244l9 49q106 38 162.5 114t80.5 206l125 712q33 187 -29.5 274t-187.5 87z" />
    <glyph glyph-name="iotadieresistonos" unicode="&#x390;" horiz-adv-x="362" 
d="M203 1024h51l-150 -842q-15 -85 3.5 -117t74.5 -32q33 0 66 8l-8 -49q-31 -10 -72 -10q-83 0 -107 50.5t-8 147.5z" />
    <glyph glyph-name="Alpha" unicode="&#x391;" horiz-adv-x="757" 
d="M616 0h-55l-10 434h-367l-164 -434h-59l555 1454h57zM444 1122l-241 -639h346l-17 639q-3 121 3 240h-9q-39 -128 -82 -240z" />
    <glyph glyph-name="Beta" unicode="&#x392;" horiz-adv-x="759" 
d="M309 1454h201q145 0 215.5 -80t44.5 -237l-14 -86q-22 -128 -89 -206t-163 -89q103 -18 142 -93.5t16 -234.5l-15 -98q-9 -65 -22.5 -112t-39.5 -90.5t-64.5 -70t-98 -42t-139.5 -15.5h-230zM700 1055l15 84q23 134 -37.5 201t-173.5 67h-148l-110 -623h172
q236 0 282 271zM592 332l14 98q24 164 -27 234.5t-188 70.5h-153l-121 -688h174q69 0 119.5 15t81 38t51.5 62.5t30.5 76.5t18.5 93z" />
    <glyph glyph-name="Gamma" unicode="&#x393;" horiz-adv-x="604" 
d="M758 1454l-8 -49h-394l-247 -1405h-56l256 1454h449z" />
    <glyph glyph-name="uni0394" unicode="&#x394;" horiz-adv-x="759" 
d="M618 0h-657l553 1454h70zM563 45l-24 1335l-506 -1335h530z" />
    <glyph glyph-name="Epsilon" unicode="&#x395;" 
d="M772 1454l-8 -49h-408l-110 -629h372l-8 -49h-372l-121 -678h422l-9 -49h-477l256 1454h463z" />
    <glyph glyph-name="Zeta" unicode="&#x396;" horiz-adv-x="653" 
d="M-49 0l8 43l758 1362h-475l8 49h532l-8 -43l-758 -1362h535l-8 -49h-592z" />
    <glyph glyph-name="Eta" unicode="&#x397;" horiz-adv-x="866" 
d="M834 1454h55l-256 -1454h-55l127 725h-469l-127 -725h-56l256 1454h56l-119 -680h469z" />
    <glyph glyph-name="Theta" unicode="&#x398;" horiz-adv-x="843" 
d="M358 -35q-155 0 -232 101t-42 307l127 729q12 72 28.5 127t44.5 106t64.5 83.5t90.5 51.5t122 19q155 0 232.5 -101.5t42.5 -306.5l-127 -729q-16 -91 -39.5 -156.5t-63 -120.5t-101.5 -82.5t-147 -27.5zM360 12q59 0 105 18.5t75.5 47.5t52 75.5t35 91.5t23.5 107
l129 729q33 187 -31.5 274t-189.5 87q-59 0 -105 -18.5t-75.5 -47.5t-52 -75.5t-35 -91.5t-23.5 -107l-129 -729q-33 -187 31.5 -274t189.5 -87z" />
    <glyph glyph-name="Iota" unicode="&#x399;" horiz-adv-x="342" 
d="M365 1454l-256 -1454h-56l256 1454h56z" />
    <glyph glyph-name="Kappa" unicode="&#x39a;" horiz-adv-x="788" 
d="M834 1454h63l-403 -539l168 -915h-52l-157 862l-252 -336l-92 -526h-56l256 1454h56l-148 -833z" />
    <glyph glyph-name="Lambda" unicode="&#x39b;" horiz-adv-x="757" 
d="M-39 0l555 1454h57l43 -1454h-57l-27 1122q-3 111 3 240h-9q-38 -128 -82 -240l-424 -1122h-59z" />
    <glyph glyph-name="Mu" unicode="&#x39c;" horiz-adv-x="1071" 
d="M109 0h-56l256 1454h92l58 -1270q3 -58 -4 -116h4q13 51 39 116l506 1270h90l-256 -1454h-56l213 1208q8 43 37 183h-8q-6 -17 -24.5 -69t-32.5 -87l-492 -1235h-59l-56 1235q-2 61 -2 156h-8q-16 -117 -28 -183z" />
    <glyph glyph-name="Nu" unicode="&#x39d;" horiz-adv-x="890" 
d="M106 0h-53l256 1454h66l219 -1171q2 -10 8.5 -45.5t9 -51t6.5 -45.5t5 -59h4q7 93 39 274l194 1098h53l-256 -1454h-61l-221 1176q-2 14 -8.5 47t-9.5 50t-6.5 46.5t-4.5 58.5h-4q-10 -103 -41 -276z" />
    <glyph glyph-name="Xi" unicode="&#x39e;" horiz-adv-x="620" 
d="M209 1405l8 49h504l-8 -49h-504zM121 721l8 49h436l-8 -49h-436zM-39 0l8 49h518l-8 -49h-518z" />
    <glyph glyph-name="Omicron" unicode="&#x39f;" horiz-adv-x="843" 
d="M358 -35q-155 0 -232 101t-42 307l127 729q12 72 28.5 127t44.5 106t64.5 83.5t90.5 51.5t122 19q155 0 232.5 -101.5t42.5 -306.5l-127 -729q-16 -91 -39.5 -156.5t-63 -120.5t-101.5 -82.5t-147 -27.5zM360 12q59 0 105 18.5t75.5 47.5t52 75.5t35 91.5t23.5 107
l129 729q33 187 -31.5 274t-189.5 87q-59 0 -105 -18.5t-75.5 -47.5t-52 -75.5t-35 -91.5t-23.5 -107l-129 -729q-33 -187 31.5 -274t189.5 -87z" />
    <glyph glyph-name="Pi" unicode="&#x3a0;" horiz-adv-x="866" 
d="M53 0l256 1454h580l-256 -1454h-55l247 1405h-469l-247 -1405h-56z" />
    <glyph glyph-name="Rho" unicode="&#x3a1;" horiz-adv-x="702" 
d="M309 1454h187q149 0 223 -85.5t47 -256.5l-16 -102q-14 -87 -38.5 -148.5t-67.5 -108t-108.5 -69t-156.5 -22.5h-154l-116 -662h-56zM694 1008l17 102q24 153 -33 225t-195 72h-127l-123 -698h152q148 0 216 74t93 225z" />
    <glyph glyph-name="Sigma" unicode="&#x3a3;" horiz-adv-x="655" 
d="M762 1405h-496l213 -645l-446 -711h489l-8 -49h-553l8 45l453 719l-213 645l8 45h553z" />
    <glyph glyph-name="Tau" unicode="&#x3a4;" 
d="M178 1454h647l-8 -49h-293l-248 -1405h-53l248 1405h-301z" />
    <glyph glyph-name="Upsilon" unicode="&#x3a5;" horiz-adv-x="688" 
d="M283 0h-56l115 649l-158 805h58l114 -633q16 -80 17 -112h4q25 58 55 112l338 633h66l-439 -805z" />
    <glyph glyph-name="Phi" unicode="&#x3a6;" horiz-adv-x="1042" 
d="M735 1567l-20 -113q71 -4 127 -23t92 -51t59 -73t32 -91.5t8 -103t-11 -111.5l-100 -573q-19 -113 -50 -189t-84.5 -130.5t-133.5 -80.5t-195 -28l-19 -102h-55l18 102q-108 4 -179 37t-103 89t-40 133t11 169l101 573q19 106 50.5 184t85 139.5t136 94t194.5 35.5
l21 113h55zM242 963l-90 -514q-12 -71 -14.5 -124.5t9.5 -107t41.5 -88t85.5 -57t138 -25.5l239 1360q-103 -4 -176 -35.5t-118.5 -93.5t-71 -135t-43.5 -180zM870 449l91 514q13 72 16 130t-8.5 117t-40 99t-84.5 67t-137 31l-240 -1360q104 3 175.5 29t116 80.5t69 121.5
t42.5 171z" />
    <glyph glyph-name="Chi" unicode="&#x3a7;" horiz-adv-x="737" 
d="M14 0h-65l434 766l-145 688h55l108 -526q15 -74 17 -117h4q20 54 57 117l289 526h63l-382 -688l159 -766h-55l-121 606q-14 68 -18 115h-4q-15 -35 -62 -115z" />
    <glyph glyph-name="Psi" unicode="&#x3a8;" horiz-adv-x="1013" 
d="M866 727l127 727h56l-127 -723q-18 -101 -45.5 -172t-74.5 -127t-120 -83t-174 -27h-4l-58 -322h-55l58 322h-9q-185 0 -247 95.5t-23 313.5l127 723h55l-127 -727q-11 -65 -14 -113.5t7 -97t35.5 -79t74.5 -49.5t121 -19h8l190 1085h55l-190 -1085h4q71 0 126.5 18.5
t92 49.5t63.5 78.5t42 97t26 114.5z" />
    <glyph glyph-name="uni03A9" unicode="&#x3a9;" horiz-adv-x="841" 
d="M559 1442q-59 0 -105 -18.5t-75.5 -47.5t-52 -75.5t-35 -91.5t-23.5 -107l-129 -733q-11 -70 -10.5 -130t35 -111.5t104.5 -78.5l-8 -49h-244l9 49h168l2 4q-77 32 -105.5 120t-3.5 222l125 707q12 72 28.5 127t44.5 106t64.5 83.5t90.5 51.5t122 19q155 0 231.5 -101
t41.5 -307l-119 -686q-49 -273 -230 -342l-2 -4h168l-8 -49h-244l9 49q106 38 162.5 114t80.5 206l125 712q33 187 -29.5 274t-187.5 87z" />
    <glyph glyph-name="Iotadieresis" unicode="&#x3aa;" horiz-adv-x="342" 
d="M365 1454l-256 -1454h-56l256 1454h56z" />
    <glyph glyph-name="Upsilondieresis" unicode="&#x3ab;" horiz-adv-x="688" 
d="M283 0h-56l115 649l-158 805h58l114 -633q16 -80 17 -112h4q25 58 55 112l338 633h66l-439 -805z" />
    <glyph glyph-name="alphatonos" unicode="&#x3ac;" horiz-adv-x="686" 
d="M582 819l45 205h39l-117 -659q-37 -215 -47 -365h-45q16 171 24 229q-38 -129 -96.5 -191.5t-148.5 -62.5q-120 0 -165 95t-14 270l64 356q11 58 21 99t31.5 93t49 84t73 54.5t103.5 22.5q91 0 138.5 -58.5t44.5 -171.5zM500 379l51 291q28 155 -12 244.5t-140 89.5
q-46 0 -82.5 -18.5t-59 -45.5t-40 -71.5t-26.5 -81.5t-19 -91l-63 -356q-26 -145 5 -232.5t126 -87.5q100 0 166 98t94 261z" />
    <glyph glyph-name="epsilontonos" unicode="&#x3ad;" horiz-adv-x="634" 
d="M256 -31q-118 0 -177 63t-42 179l12 84q31 213 221 240q-146 35 -120 219l6 41q6 41 22 81t45.5 81t82 66.5t120.5 25.5q229 0 207 -273l-49 -8q10 126 -33 177.5t-127 51.5q-52 0 -93 -19t-65.5 -50.5t-38.5 -64t-20 -68.5l-8 -47q-31 -191 159 -191h78l-10 -51h-94
q-44 0 -76.5 -7.5t-65.5 -28.5t-55.5 -65t-32.5 -110l-12 -78q-16 -102 29 -149.5t135 -47.5q103 0 158.5 56t85.5 184l49 -10q-35 -145 -105.5 -213t-185.5 -68z" />
    <glyph glyph-name="etatonos" unicode="&#x3ae;" horiz-adv-x="718" 
d="M489 1049q59 0 97.5 -23.5t54 -63.5t18.5 -93t-10 -111l-80 -455l-123 -702h-49l70 399l133 754q8 52 8.5 92.5t-9.5 78.5t-40 58.5t-78 20.5q-56 0 -102.5 -29.5t-78.5 -82.5t-53.5 -116.5t-35.5 -140.5l-111 -635h-51l119 678q40 236 25 346h51q9 -80 -6 -223
q40 129 96.5 188.5t154.5 59.5z" />
    <glyph glyph-name="iotatonos" unicode="&#x3af;" horiz-adv-x="362" 
d="M203 1024h51l-150 -842q-15 -85 3.5 -117t74.5 -32q33 0 66 8l-8 -49q-31 -10 -72 -10q-83 0 -107 50.5t-8 147.5z" />
    <glyph glyph-name="upsilondieresistonos" unicode="&#x3b0;" horiz-adv-x="696" 
d="M268 -25q-119 0 -173 63t-29 206l137 780h51l-135 -770q-22 -128 18 -181t142 -53q95 0 141.5 61.5t66.5 172.5l136 770h51l-137 -780q-44 -269 -269 -269z" />
    <glyph glyph-name="alpha" unicode="&#x3b1;" horiz-adv-x="686" 
d="M582 819l45 205h39l-117 -659q-37 -215 -47 -365h-45q16 171 24 229q-38 -129 -96.5 -191.5t-148.5 -62.5q-120 0 -165 95t-14 270l64 356q11 58 21 99t31.5 93t49 84t73 54.5t103.5 22.5q91 0 138.5 -58.5t44.5 -171.5zM500 379l51 291q28 155 -12 244.5t-140 89.5
q-46 0 -82.5 -18.5t-59 -45.5t-40 -71.5t-26.5 -81.5t-19 -91l-63 -356q-26 -145 5 -232.5t126 -87.5q100 0 166 98t94 261z" />
    <glyph glyph-name="beta" unicode="&#x3b2;" horiz-adv-x="686" 
d="M504 1489q118 0 168.5 -76.5t23.5 -228.5l-18 -105q-21 -119 -67 -184t-130 -78q88 -22 118.5 -104.5t2.5 -235.5l-39 -217q-11 -61 -28.5 -108.5t-46.5 -89.5t-74.5 -64.5t-106.5 -22.5q-169 0 -196 170l-97 -544h-51l281 1587q12 66 30 116.5t47.5 94t75.5 67t107 23.5
zM627 1081l18 105q45 256 -141 256q-50 0 -87.5 -20t-61 -57.5t-38 -79.5t-24.5 -99l-172 -981q26 -185 184 -185q52 0 90 19.5t61 56t35.5 75t20.5 89.5l37 217q12 70 13.5 121.5t-10 98.5t-47 71.5t-95.5 24.5h-54l9 45h55q51 0 88 18.5t60 54t36 75.5t23 95z" />
    <glyph glyph-name="gamma" unicode="&#x3b3;" horiz-adv-x="593" 
d="M565 1024h58q-14 -78 -41 -156.5t-80 -205.5l-273 -660l-71 -401h-54l70 399l-47 1024h51l33 -811q3 -89 0 -141h4q10 46 49 141l199 483q25 61 37 91.5t32 97.5t33 139z" />
    <glyph glyph-name="delta" unicode="&#x3b4;" horiz-adv-x="661" 
d="M496 1438q-94 0 -148.5 -53.5t-54.5 -147.5q0 -118 110 -207l72 -57q29 -23 46 -39t36.5 -39.5t28.5 -46.5t15.5 -54.5t5 -70.5t-10.5 -88l-61 -342q-13 -75 -31.5 -128.5t-50 -98.5t-81.5 -68t-118 -23q-54 0 -95.5 15.5t-73.5 52.5t-39.5 98t5.5 152l60 342
q28 160 103 235t212 76l-57 47q-127 107 -127 240q0 117 73 186.5t195 69.5q56 0 113 -16.5t96 -40.5l-10 -56q-98 62 -213 62zM483 291l60 348q46 270 -133 270q-48 0 -84.5 -12t-69.5 -41t-57 -83.5t-37 -133.5l-60 -348q-45 -271 150 -271q49 0 87.5 17t61.5 42t40.5 64
t26 72t15.5 76z" />
    <glyph glyph-name="epsilon" unicode="&#x3b5;" horiz-adv-x="634" 
d="M256 -31q-118 0 -177 63t-42 179l12 84q31 213 221 240q-146 35 -120 219l6 41q6 41 22 81t45.5 81t82 66.5t120.5 25.5q229 0 207 -273l-49 -8q10 126 -33 177.5t-127 51.5q-52 0 -93 -19t-65.5 -50.5t-38.5 -64t-20 -68.5l-8 -47q-31 -191 159 -191h78l-10 -51h-94
q-44 0 -76.5 -7.5t-65.5 -28.5t-55.5 -65t-32.5 -110l-12 -78q-16 -102 29 -149.5t135 -47.5q103 0 158.5 56t85.5 184l49 -10q-35 -145 -105.5 -213t-185.5 -68z" />
    <glyph glyph-name="zeta" unicode="&#x3b6;" horiz-adv-x="559" 
d="M131 475l-18 -94q-11 -68 -13 -113.5t15.5 -78t45.5 -53t77 -38.5l65 -24q70 -27 102.5 -57.5t32.5 -92.5q0 -91 -137 -262h-55q139 173 139 260q0 37 -27 62.5t-84 46.5l-55 20q-43 16 -72.5 34t-52.5 44.5t-33 61.5t-10 83.5t12 112.5l9 45q20 103 75.5 214.5
t184.5 295.5l323 461h-430l8 51h492l-6 -37l-338 -489q-1 -2 -37 -54.5t-45.5 -67t-41 -62.5t-44.5 -73t-34 -64.5t-31.5 -71t-16.5 -60.5z" />
    <glyph glyph-name="eta" unicode="&#x3b7;" horiz-adv-x="718" 
d="M489 1049q59 0 97.5 -23.5t54 -63.5t18.5 -93t-10 -111l-80 -455l-123 -702h-49l70 399l133 754q8 52 8.5 92.5t-9.5 78.5t-40 58.5t-78 20.5q-56 0 -102.5 -29.5t-78.5 -82.5t-53.5 -116.5t-35.5 -140.5l-111 -635h-51l119 678q40 236 25 346h51q9 -80 -6 -223
q40 129 96.5 188.5t154.5 59.5z" />
    <glyph glyph-name="theta" unicode="&#x3b8;" horiz-adv-x="698" 
d="M498 1489q126 0 180.5 -90.5t21.5 -272.5l-139 -786q-8 -42 -13.5 -69t-17.5 -70t-25 -71.5t-35 -61.5t-48 -52.5t-63.5 -33t-82.5 -13.5q-264 0 -202 353l143 804q11 64 23 109.5t33.5 97t50 83t73 52.5t101.5 21zM582 756l65 372q55 316 -149 316q-34 0 -62.5 -9.5
t-49 -24t-38 -39.5t-28.5 -48.5t-21 -59.5t-16 -64t-13 -69l-65 -374h377zM508 338l65 367h-378l-68 -388q-11 -63 -12 -112t7.5 -81.5t22.5 -54.5t36 -34t44.5 -16.5t50.5 -4.5t52.5 6.5t43.5 15.5t35.5 27t27.5 32.5t21.5 42t17 45t14 51t10.5 51t10 53.5z" />
    <glyph glyph-name="iota" unicode="&#x3b9;" horiz-adv-x="362" 
d="M203 1024h51l-150 -842q-15 -85 3.5 -117t74.5 -32q33 0 66 8l-8 -49q-31 -10 -72 -10q-83 0 -107 50.5t-8 147.5z" />
    <glyph glyph-name="kappa" unicode="&#x3ba;" horiz-adv-x="677" 
d="M688 1028q11 0 39 -4l-8 -51q-28 4 -43 4q-36 0 -71.5 -26.5t-94.5 -106.5l-178 -240l209 -604h-58l-194 557l-137 -180l-66 -377h-51l180 1024h51l-98 -557l301 397q77 101 123 132.5t96 31.5z" />
    <glyph glyph-name="lambda" unicode="&#x3bb;" horiz-adv-x="632" 
d="M-49 0l416 1040l-15 267q-5 82 -16 110.5t-47 28.5q-16 0 -37 -6l8 49q19 8 43 8q37 0 58.5 -21t28.5 -47.5t9 -66.5l70 -1249q3 -50 12.5 -68t34.5 -18q22 0 43 6l-8 -49q-24 -9 -45 -9q-22 0 -37.5 7t-24.5 17t-14 29.5t-7 35t-3 42.5l-39 682q-4 104 -2 168h-4
q-10 -39 -60 -168l-313 -788h-51z" />
    <glyph glyph-name="uni03BC" unicode="&#x3bc;" horiz-adv-x="739" 
d="M522 373l115 651h53l-117 -659q-31 -176 -38 -365h-50q1 21 19 221q-39 -118 -109 -184t-149 -66q-75 0 -111.5 43.5t-30.5 104.5l-92 -520h-49l252 1425h49l-141 -803q-24 -201 125 -201q97 0 170.5 91.5t103.5 261.5zM125 244l2 10q0 -2 -1 -5t-1 -5z" />
    <glyph glyph-name="nu" unicode="&#x3bd;" horiz-adv-x="595" 
d="M219 72l248 624q77 185 102 328h56q-13 -74 -38.5 -151t-80.5 -211l-268 -662h-64l-47 1024h53l35 -952h4z" />
    <glyph glyph-name="xi" unicode="&#x3be;" horiz-adv-x="595" 
d="M244 1403l10 51h467l-10 -51h-86q-144 -2 -246.5 -83t-128.5 -224q-22 -116 30 -188t189 -72h90l-8 -52h-92q-140 0 -224.5 -86.5t-111.5 -240.5l-17 -95q-9 -51 -9.5 -88t5 -62.5t20 -44t32.5 -30.5t47 -24l80 -33q36 -15 51.5 -22t40 -21t34.5 -26.5t18.5 -32
t8.5 -44.5q0 -121 -145 -272h-53q141 162 141 260q0 40 -30 64.5t-97 50.5l-86 33q-79 31 -104 97t-5 185l21 123q22 132 93.5 218t188.5 116q-105 25 -143 101t-18 184q22 127 100 204t192 105h-245z" />
    <glyph glyph-name="omicron" unicode="&#x3bf;" horiz-adv-x="659" 
d="M252 -25q-54 0 -95.5 15.5t-73.5 52.5t-39.5 98t5.5 152l78 438q13 75 31.5 128.5t50 98.5t81.5 68t118 23q53 0 94.5 -15.5t73.5 -52.5t39.5 -98t-5.5 -152l-78 -438q-14 -75 -32 -128t-49.5 -98.5t-81 -68.5t-117.5 -23zM250 20q49 0 87 17.5t61 41.5t40.5 64t26 71.5
t16.5 76.5l78 442q47 271 -149 271q-49 0 -87 -17.5t-61.5 -42t-41 -64t-26 -71t-16.5 -76.5l-78 -442q-47 -271 150 -271z" />
    <glyph glyph-name="pi" unicode="&#x3c0;" horiz-adv-x="841" 
d="M868 981h-161l-146 -815q-23 -139 86 -139q29 0 53 8l-8 -45q-18 -6 -61 -6q-65 0 -100.5 42.5t-18.5 137.5l145 817h-333l-174 -981h-50l174 981h-20q-94 0 -150 -23l7 39q53 27 165 27h601z" />
    <glyph glyph-name="rho" unicode="&#x3c1;" horiz-adv-x="686" 
d="M2 -399h-49l192 1083q12 71 23 116.5t33 97.5t50.5 81.5t75.5 49.5t109 20q259 0 197 -344l-76 -418q-28 -156 -86.5 -234t-167.5 -78q-96 0 -146 53.5t-53 149.5zM297 20q98 0 141.5 65t69.5 208l72 399q29 161 -5.5 236.5t-138.5 75.5q-37 0 -67.5 -10t-52.5 -24.5
t-40.5 -42.5t-30 -53t-22.5 -67t-17.5 -73t-15.5 -83l-49 -276q-63 -355 156 -355z" />
    <glyph glyph-name="uni03C2" unicode="&#x3c2;" horiz-adv-x="598" 
d="M186 82l70 -27q59 -23 86 -54.5t27 -86.5q0 -106 -123 -252h-53q63 85 93.5 141.5t30.5 110.5q0 36 -23 58.5t-77 41.5l-43 17q-92 32 -117 103.5t2 217.5l68 381q28 161 93 238.5t177 77.5q116 0 158.5 -74.5t13.5 -237.5l-51 -6q26 150 -6 210t-119 60
q-168 0 -213 -258l-67 -381q-9 -50 -13.5 -81.5t-4 -67t9.5 -58t29 -42t52 -31.5z" />
    <glyph glyph-name="sigma" unicode="&#x3c3;" horiz-adv-x="649" 
d="M422 1024h276l-8 -47h-59q-30 0 -80 4q82 -121 53 -293l-69 -393q-13 -75 -32 -128.5t-51 -99.5t-82.5 -69t-119.5 -23q-53 0 -93.5 16t-72 53.5t-39 98.5t5.5 152l76 432q25 141 101.5 219t193.5 78zM250 20q49 0 87.5 17t61.5 42t41 64.5t26.5 72t16.5 77.5l68 377
q34 193 -37 311h-100q-91 0 -152.5 -66.5t-81.5 -185.5l-78 -436q-47 -273 148 -273z" />
    <glyph glyph-name="tau" unicode="&#x3c4;" horiz-adv-x="466" 
d="M526 981h-196l-142 -801q-6 -44 -5.5 -76t22 -50.5t67.5 -18.5q37 0 70 8l-10 -49q-38 -12 -76 -12q-154 0 -121 184l144 815h-37q-75 0 -140 -27l9 45q54 25 133 25h291z" />
    <glyph glyph-name="upsilon" unicode="&#x3c5;" horiz-adv-x="696" 
d="M268 -25q-119 0 -173 63t-29 206l137 780h51l-135 -770q-22 -128 18 -181t142 -53q95 0 141.5 61.5t66.5 172.5l136 770h51l-137 -780q-44 -269 -269 -269z" />
    <glyph glyph-name="phi" unicode="&#x3c6;" horiz-adv-x="864" 
d="M625 1454l-72 -405q316 -13 258 -338l-70 -396q-7 -43 -16.5 -77.5t-27 -75.5t-45 -71.5t-66 -57.5t-96 -42t-128.5 -16l-65 -374h-51l65 374q-160 5 -224 87t-34 253l70 396q32 175 123 255t256 83l71 405h52zM174 713l-70 -400q-27 -153 21.5 -221t196.5 -72l174 984
q-149 -6 -223.5 -78t-98.5 -213zM690 313l70 400q25 144 -24 214.5t-189 76.5l-174 -984q150 6 221 74.5t96 218.5z" />
    <glyph glyph-name="chi" unicode="&#x3c7;" horiz-adv-x="649" 
d="M635 1024h55l-360 -680l78 -614q6 -52 18 -71t41 -19q13 0 29 4l-9 -45q-25 -7 -38 -7q-38 0 -56.5 27.5t-27.5 99.5l-56 418q-11 82 -18 152h-4q-4 -8 -16.5 -37t-53.5 -111l-270 -540h-51l372 745l-90 549q-8 49 -19 68.5t-34 19.5t-33 -2l8 47q20 4 37 4q64 0 78 -88
l70 -412q18 -111 22 -131h4q3 9 66 127z" />
    <glyph glyph-name="psi" unicode="&#x3c8;" horiz-adv-x="841" 
d="M635 274l131 750h51l-129 -739q-14 -77 -31.5 -126.5t-52.5 -95t-95 -67t-149 -21.5h-8l-65 -374h-51l65 374q-156 6 -205.5 78.5t-21.5 231.5l129 739h51l-135 -768q-23 -129 22.5 -181.5t167.5 -54.5l252 1434h51l-252 -1434q138 0 193 52t82 202z" />
    <glyph glyph-name="omega" unicode="&#x3c9;" horiz-adv-x="1028" 
d="M809 1024h53q26 -66 41 -121t23 -121.5t4.5 -143t-19.5 -169.5l-18 -107q-34 -192 -92 -289.5t-166 -97.5q-158 0 -176 203q-36 -98 -96.5 -150.5t-131.5 -52.5q-82 0 -123 48.5t-43 134.5t17 204l18 107q32 178 87 296t159 259h51q-102 -141 -158.5 -262t-86.5 -293
l-19 -107q-18 -107 -18.5 -181.5t28 -114t90.5 -39.5q86 0 141 72.5t79 205.5l77 445h52l-78 -445q-23 -127 14.5 -202.5t116.5 -75.5q88 0 132.5 80.5t74.5 254.5l18 107q16 91 19.5 167.5t-5.5 143.5t-24 122.5t-41 121.5z" />
    <glyph glyph-name="iotadieresis" unicode="&#x3ca;" horiz-adv-x="362" 
d="M203 1024h51l-150 -842q-15 -85 3.5 -117t74.5 -32q33 0 66 8l-8 -49q-31 -10 -72 -10q-83 0 -107 50.5t-8 147.5z" />
    <glyph glyph-name="upsilondieresis" unicode="&#x3cb;" horiz-adv-x="696" 
d="M268 -25q-119 0 -173 63t-29 206l137 780h51l-135 -770q-22 -128 18 -181t142 -53q95 0 141.5 61.5t66.5 172.5l136 770h51l-137 -780q-44 -269 -269 -269z" />
    <glyph glyph-name="omicrontonos" unicode="&#x3cc;" horiz-adv-x="659" 
d="M252 -25q-54 0 -95.5 15.5t-73.5 52.5t-39.5 98t5.5 152l78 438q13 75 31.5 128.5t50 98.5t81.5 68t118 23q53 0 94.5 -15.5t73.5 -52.5t39.5 -98t-5.5 -152l-78 -438q-14 -75 -32 -128t-49.5 -98.5t-81 -68.5t-117.5 -23zM250 20q49 0 87 17.5t61 41.5t40.5 64t26 71.5
t16.5 76.5l78 442q47 271 -149 271q-49 0 -87 -17.5t-61.5 -42t-41 -64t-26 -71t-16.5 -76.5l-78 -442q-47 -271 150 -271z" />
    <glyph glyph-name="upsilontonos" unicode="&#x3cd;" horiz-adv-x="696" 
d="M268 -25q-119 0 -173 63t-29 206l137 780h51l-135 -770q-22 -128 18 -181t142 -53q95 0 141.5 61.5t66.5 172.5l136 770h51l-137 -780q-44 -269 -269 -269z" />
    <glyph glyph-name="omegatonos" unicode="&#x3ce;" horiz-adv-x="1028" 
d="M809 1024h53q26 -66 41 -121t23 -121.5t4.5 -143t-19.5 -169.5l-18 -107q-34 -192 -92 -289.5t-166 -97.5q-158 0 -176 203q-36 -98 -96.5 -150.5t-131.5 -52.5q-82 0 -123 48.5t-43 134.5t17 204l18 107q32 178 87 296t159 259h51q-102 -141 -158.5 -262t-86.5 -293
l-19 -107q-18 -107 -18.5 -181.5t28 -114t90.5 -39.5q86 0 141 72.5t79 205.5l77 445h52l-78 -445q-23 -127 14.5 -202.5t116.5 -75.5q88 0 132.5 80.5t74.5 254.5l18 107q16 91 19.5 167.5t-5.5 143.5t-24 122.5t-41 121.5z" />
    <glyph glyph-name="uni0401" unicode="&#x401;" 
d="M772 1454l-8 -49h-408l-110 -629h372l-8 -49h-372l-121 -678h422l-9 -49h-477l256 1454h463z" />
    <glyph glyph-name="uni0404" unicode="&#x404;" horiz-adv-x="821" 
d="M575 1489q145 0 213 -94t39 -265l-26 -155h-58l27 153q26 152 -26 233t-169 81q-132 0 -205.5 -88.5t-103.5 -263.5l-55 -314h373l-9 -49h-372l-64 -356q-62 -359 213 -359q117 0 182.5 80t94.5 240l28 160h58l-29 -160q-33 -189 -112 -278t-230 -89q-165 0 -231 105.5
t-31 304.5l125 710q35 203 121.5 303.5t246.5 100.5z" />
    <glyph glyph-name="uni0405" unicode="&#x405;" horiz-adv-x="704" 
d="M293 -35q-148 0 -220 98t-40 293l20 123l56 4l-25 -147q-13 -87 -3.5 -148.5t41 -100.5t75.5 -57t100 -18q203 0 246 238l18 106q18 102 -12 184.5t-123 166.5l-111 100q-84 76 -110.5 160.5t-7.5 199.5l8 50q23 134 91.5 203t201.5 69q142 0 206.5 -81.5t34.5 -248.5
l-26 -149l-56 -4l27 149q26 145 -23.5 216t-164.5 71q-111 0 -165 -59.5t-71 -161.5l-12 -72q-17 -96 9.5 -169.5t102.5 -141.5l103 -93q107 -96 140 -185.5t11 -219.5l-14 -88q-21 -127 -95 -207t-212 -80z" />
    <glyph glyph-name="uni0406" unicode="&#x406;" horiz-adv-x="342" 
d="M365 1454l-256 -1454h-56l256 1454h56z" />
    <glyph glyph-name="uni0408" unicode="&#x408;" horiz-adv-x="464" 
d="M500 1454l-213 -1212q-24 -138 -78 -202.5t-158 -64.5q-69 0 -117 25l9 51q60 -24 114 -24q76 0 114.5 52t59.5 171l213 1204h56z" />
    <glyph glyph-name="uni040F" unicode="&#x40f;" horiz-adv-x="866" 
d="M834 1454h55l-256 -1454h-266l-52 -287h-49l51 287h-264l256 1454h56l-248 -1405h469z" />
    <glyph glyph-name="uni0410" unicode="&#x410;" horiz-adv-x="757" 
d="M616 0h-55l-10 434h-367l-164 -434h-59l555 1454h57zM444 1122l-241 -639h346l-17 639q-3 121 3 240h-9q-39 -128 -82 -240z" />
    <glyph glyph-name="uni0411" unicode="&#x411;" horiz-adv-x="763" 
d="M778 1454l-8 -47h-414l-104 -588h129q357 0 293 -366l-17 -95q-9 -51 -18 -88.5t-24 -77t-34.5 -67t-48.5 -52.5t-67 -40t-89.5 -24t-115.5 -9h-207l256 1454h469zM383 770h-139l-127 -723h141q74 0 127.5 12t89.5 34t60.5 61.5t39 86.5t27.5 117l16 95q15 75 8 129.5
t-24.5 91t-52 57.5t-74.5 30t-92 9z" />
    <glyph glyph-name="uni0412" unicode="&#x412;" horiz-adv-x="759" 
d="M309 1454h201q145 0 215.5 -80t44.5 -237l-14 -86q-22 -128 -89 -206t-163 -89q103 -18 142 -93.5t16 -234.5l-15 -98q-9 -65 -22.5 -112t-39.5 -90.5t-64.5 -70t-98 -42t-139.5 -15.5h-230zM700 1055l15 84q23 134 -37.5 201t-173.5 67h-148l-110 -623h172
q236 0 282 271zM592 332l14 98q24 164 -27 234.5t-188 70.5h-153l-121 -688h174q69 0 119.5 15t81 38t51.5 62.5t30.5 76.5t18.5 93z" />
    <glyph glyph-name="uni0413" unicode="&#x413;" horiz-adv-x="604" 
d="M758 1454l-8 -49h-394l-247 -1405h-56l256 1454h449z" />
    <glyph glyph-name="uni0414" unicode="&#x414;" horiz-adv-x="933" 
d="M680 49h111l-60 -336h-51l53 287h-764l-51 -287h-49l59 336h109q88 133 140 283.5t97 357.5q69 320 154 764h502zM326 688q-45 -204 -98 -358.5t-136 -280.5h533l239 1350h-391q-16 -77 -45.5 -222t-54.5 -266.5t-47 -222.5z" />
    <glyph glyph-name="uni0415" unicode="&#x415;" 
d="M772 1454l-8 -49h-408l-110 -629h372l-8 -49h-372l-121 -678h422l-9 -49h-477l256 1454h463z" />
    <glyph glyph-name="uni0416" unicode="&#x416;" horiz-adv-x="1239" 
d="M1282 1454h59l-374 -676l143 -778h-51l-135 737h-238l-129 -737h-55l129 737h-228l-395 -737h-59l420 780l-140 674h54l129 -668h229l117 668h55l-117 -668h226z" />
    <glyph glyph-name="uni0417" unicode="&#x417;" horiz-adv-x="759" 
d="M313 -31q-43 0 -78 5.5t-70 19.5t-57.5 38t-40.5 60t-18.5 86.5t8.5 116.5l19 102l53 4l-20 -110q-9 -46 -10 -83.5t5.5 -65t17 -49t28 -35t35.5 -22.5t42.5 -14t46 -6.5t48.5 -1.5q58 0 102.5 17.5t70 41.5t45 64.5t27.5 71t17 76.5l30 172q8 43 8.5 79t-6 62t-16.5 46
t-26.5 33.5t-33 22.5t-37 13.5t-38.5 6t-39 1.5h-109l9 49h104q71 0 121.5 22t80 64t44.5 84t26 100l29 158q24 129 -26 187.5t-168 58.5q-125 0 -181 -63t-84 -212l-22 -125l-51 5l22 122q31 171 104 244.5t220 73.5q136 0 200.5 -73.5t38.5 -221.5l-26 -154
q-43 -260 -226 -295q47 -12 76.5 -30.5t49.5 -52.5t20.5 -84.5t-10.5 -126.5l-29 -166q-9 -52 -21 -92t-36 -84.5t-57.5 -73t-87.5 -47.5t-124 -19z" />
    <glyph glyph-name="uni0418" unicode="&#x418;" horiz-adv-x="890" 
d="M913 1454l-256 -1454h-53l197 1114q30 168 55 277h-4q-47 -116 -94 -203l-647 -1188h-58l256 1454h53l-194 -1108q-38 -205 -57 -274h4q50 125 92 200l647 1182h59z" />
    <glyph glyph-name="uni0419" unicode="&#x419;" horiz-adv-x="890" 
d="M913 1454l-256 -1454h-53l197 1114q30 168 55 277h-4q-47 -116 -94 -203l-647 -1188h-58l256 1454h53l-194 -1108q-38 -205 -57 -274h4q50 125 92 200l647 1182h59z" />
    <glyph glyph-name="uni041A" unicode="&#x41a;" horiz-adv-x="788" 
d="M834 1454h59l-375 -676l144 -778h-52l-135 737h-237l-129 -737h-56l256 1454h56l-117 -668h225z" />
    <glyph glyph-name="uni041B" unicode="&#x41b;" horiz-adv-x="882" 
d="M406 1454h499l-256 -1454h-55l246 1399h-394q-135 -649 -223 -1014q-15 -62 -24.5 -97.5t-26.5 -88t-35 -82.5t-43 -60.5t-57.5 -44.5t-71.5 -14q-17 0 -45 4l10 53q18 -2 39 -2q29 0 53 12t43.5 39t33.5 53t28.5 73.5t22.5 79t22 89.5q128 550 234 1055z" />
    <glyph glyph-name="uni041C" unicode="&#x41c;" horiz-adv-x="1071" 
d="M109 0h-56l256 1454h92l58 -1270q3 -58 -4 -116h4q13 51 39 116l506 1270h90l-256 -1454h-56l213 1208q8 43 37 183h-8q-6 -17 -24.5 -69t-32.5 -87l-492 -1235h-59l-56 1235q-2 61 -2 156h-8q-16 -117 -28 -183z" />
    <glyph glyph-name="uni041D" unicode="&#x41d;" horiz-adv-x="866" 
d="M834 1454h55l-256 -1454h-55l127 725h-469l-127 -725h-56l256 1454h56l-119 -680h469z" />
    <glyph glyph-name="uni041E" unicode="&#x41e;" horiz-adv-x="843" 
d="M358 -35q-155 0 -232 101t-42 307l127 729q12 72 28.5 127t44.5 106t64.5 83.5t90.5 51.5t122 19q155 0 232.5 -101.5t42.5 -306.5l-127 -729q-16 -91 -39.5 -156.5t-63 -120.5t-101.5 -82.5t-147 -27.5zM360 12q59 0 105 18.5t75.5 47.5t52 75.5t35 91.5t23.5 107
l129 729q33 187 -31.5 274t-189.5 87q-59 0 -105 -18.5t-75.5 -47.5t-52 -75.5t-35 -91.5t-23.5 -107l-129 -729q-33 -187 31.5 -274t189.5 -87z" />
    <glyph glyph-name="uni041F" unicode="&#x41f;" horiz-adv-x="866" 
d="M53 0l256 1454h580l-256 -1454h-55l247 1405h-469l-247 -1405h-56z" />
    <glyph glyph-name="uni0420" unicode="&#x420;" horiz-adv-x="702" 
d="M309 1454h187q149 0 223 -85.5t47 -256.5l-16 -102q-14 -87 -38.5 -148.5t-67.5 -108t-108.5 -69t-156.5 -22.5h-154l-116 -662h-56zM694 1008l17 102q24 153 -33 225t-195 72h-127l-123 -698h152q148 0 216 74t93 225z" />
    <glyph glyph-name="uni0421" unicode="&#x421;" horiz-adv-x="821" 
d="M346 -35q-42 0 -78.5 7t-73.5 24.5t-61.5 47.5t-43.5 75.5t-19 108.5t12 147l125 710q35 202 121 303t243 101q68 0 119.5 -18.5t90.5 -62t49 -114.5t-5 -176l-24 -139l-58 -4l25 141q29 171 -25.5 248.5t-169.5 77.5q-129 0 -203 -89t-104 -263l-127 -719
q-17 -86 -11 -148t23 -102.5t49.5 -64.5t67.5 -34t78 -10q119 0 186 77.5t97 242.5l28 160l56 -5l-27 -155q-31 -181 -110.5 -274t-229.5 -93z" />
    <glyph glyph-name="uni0422" unicode="&#x422;" 
d="M178 1454h647l-8 -49h-293l-248 -1405h-53l248 1405h-301z" />
    <glyph glyph-name="uni0423" unicode="&#x423;" horiz-adv-x="731" 
d="M289 240l30 75l-118 1139h51l96 -936q6 -70 6 -147h2q17 66 54 147l397 936h55l-510 -1194q-69 -163 -117 -220.5t-139 -57.5q-38 0 -84 12l8 51q44 -12 82 -12q35 0 62 14t49.5 45.5t38 63t37.5 84.5z" />
    <glyph glyph-name="uni0424" unicode="&#x424;" horiz-adv-x="1001" 
d="M700 1489l-18 -107q33 -1 64 -7.5t66.5 -21t63.5 -38t53.5 -59t37 -84.5t14.5 -113.5t-14 -145.5l-66 -348q-2 -10 -6 -31q-13 -68 -22.5 -109.5t-41 -114t-72.5 -114.5t-116.5 -76t-173.5 -34h-16l-23 -121h-55l22 121q-34 1 -65.5 8t-66.5 22.5t-62.5 39.5t-52 59
t-36 82.5t-14.5 109t13 138.5l65 368q14 78 25.5 125t44 121t75.5 116t120.5 74.5t179.5 32.5h4l18 107h55zM229 913l-65 -372q-12 -81 -13 -142t15 -105.5t37.5 -75t56 -49t69.5 -26.5t77 -10l4 23l206 1171l2 8h-4q-89 0 -156.5 -28.5t-104 -64.5t-64 -101t-36.5 -103.5
t-21 -107.5q-2 -12 -3 -17zM846 561l67 357q14 73 14.5 134t-10 103t-31 74.5t-44.5 52t-54.5 32t-57.5 17t-56 4.5l-2 -8l-211 -1194h14q49 0 91.5 9.5t74 24.5t59 38.5t45.5 47t34 55t25 56.5t17 58t11 53.5t7.5 48t6.5 37.5z" />
    <glyph glyph-name="uni0425" unicode="&#x425;" horiz-adv-x="737" 
d="M14 0h-65l434 766l-145 688h55l108 -526q15 -74 17 -117h4q20 54 57 117l289 526h63l-382 -688l159 -766h-55l-121 606q-14 68 -18 115h-4q-15 -35 -62 -115z" />
    <glyph glyph-name="uni0426" unicode="&#x426;" horiz-adv-x="892" 
d="M834 1454h55l-248 -1405h109l-60 -336h-49l49 287h-637l256 1454h56l-248 -1405h469z" />
    <glyph glyph-name="uni0427" unicode="&#x427;" horiz-adv-x="774" 
d="M612 717l129 737h56l-256 -1454h-56l117 664q-115 -35 -209 -35q-51 0 -90.5 9t-77.5 32t-59 71t-21 119q0 55 19 166l74 428h55l-76 -430q-16 -98 -16 -162q0 -50 13.5 -86t31.5 -54.5t46.5 -29t49 -12.5t47.5 -2q113 0 223 39z" />
    <glyph glyph-name="uni0428" unicode="&#x428;" horiz-adv-x="1196" 
d="M915 49l248 1405h56l-256 -1454h-910l256 1454h56l-248 -1405h370l248 1405h56l-248 -1405h372z" />
    <glyph glyph-name="uni0429" unicode="&#x429;" horiz-adv-x="1224" 
d="M1163 1454h56l-248 -1405h110l-59 -336h-49l51 287h-971l256 1454h56l-248 -1405h370l248 1405h56l-248 -1405h372z" />
    <glyph glyph-name="uni042A" unicode="&#x42a;" horiz-adv-x="907" 
d="M387 829h125q49 0 90.5 -7t81 -23.5t66 -44t46 -68.5t21 -96.5t-9.5 -128.5l-19 -103q-9 -52 -18.5 -88.5t-24.5 -76.5t-34.5 -67t-48.5 -53t-66.5 -40.5t-89 -23.5t-115.5 -9h-205l248 1405h-264l8 49h320l-9 -49zM733 358l19 103q16 76 8.5 131t-25 91t-53 57.5
t-75.5 30.5t-93 9h-135l-129 -733h139q93 0 152.5 15.5t97.5 56t57.5 94t36.5 145.5z" />
    <glyph glyph-name="uni042B" unicode="&#x42b;" horiz-adv-x="1001" 
d="M254 829h125q49 0 90.5 -7t81 -23.5t66 -44t46 -68.5t21 -96.5t-9.5 -128.5l-19 -103q-9 -52 -18.5 -88.5t-24.5 -76.5t-34.5 -67t-48.5 -53t-66.5 -40.5t-89 -23.5t-115.5 -9h-205l256 1454h56zM713 0l256 1454h55l-256 -1454h-55zM600 358l18 103q16 76 8.5 131t-25 91
t-52.5 57.5t-75 30.5t-93 9h-135l-129 -733h139q93 0 152.5 15.5t97.5 56t57.5 94t36.5 145.5z" />
    <glyph glyph-name="uni042C" unicode="&#x42c;" horiz-adv-x="774" 
d="M254 829h125q49 0 90.5 -7t81 -23.5t66 -44t46 -68.5t21 -96.5t-9.5 -128.5l-19 -103q-9 -52 -18.5 -88.5t-24.5 -76.5t-34.5 -67t-48.5 -53t-66.5 -40.5t-89 -23.5t-115.5 -9h-205l256 1454h56zM600 358l18 103q16 76 8.5 131t-25 91t-52.5 57.5t-75 30.5t-93 9h-135
l-129 -733h139q93 0 152.5 15.5t97.5 56t57.5 94t36.5 145.5z" />
    <glyph glyph-name="uni042D" unicode="&#x42d;" horiz-adv-x="823" 
d="M561 1489q165 0 227.5 -104t28.5 -300l-125 -710q-10 -56 -21 -99t-29 -93.5t-44 -86.5t-61.5 -67.5t-86 -47.5t-112.5 -16q-160 0 -228.5 93.5t-37.5 273.5l26 155l60 5l-29 -160q-28 -154 23 -237t186 -83q47 0 86.5 12.5t66.5 31t50 50t36 58.5t25 69t18 69t13 69
l63 356h-377l9 49h377l55 314q62 352 -199 352q-119 0 -192.5 -80t-98.5 -225l-28 -162l-56 4l29 160q64 350 346 350z" />
    <glyph glyph-name="uni042E" unicode="&#x42e;" horiz-adv-x="1191" 
d="M909 1489q155 0 232.5 -101.5t42.5 -306.5l-127 -729q-12 -72 -28.5 -127t-44.5 -106t-64.5 -83.5t-90.5 -51.5t-122 -19q-155 0 -232.5 101.5t-42.5 306.5l64 360h-258l-129 -733h-56l256 1454h56l-119 -672h258l55 320q12 72 28.5 127t44.5 106t64.5 83.5t90.5 51.5
t122 19zM999 352l129 729q33 187 -31.5 274t-189.5 87q-59 0 -105 -18.5t-75.5 -47.5t-52 -75.5t-35 -91.5t-23.5 -107l-129 -729q-15 -100 -6.5 -168.5t43 -111.5t80.5 -62t105 -19t105 18.5t75.5 47.5t51.5 75.5t34.5 91.5t23.5 107z" />
    <glyph glyph-name="uni042F" unicode="&#x42f;" horiz-adv-x="757" 
d="M567 1454h213l-256 -1454h-55l119 678h-197h-12l-356 -678h-62l367 684q-94 23 -133.5 108.5t-16.5 217.5l21 116q31 180 120 254t248 74zM408 725h188l121 682h-154q-44 0 -76.5 -4.5t-72 -21t-67.5 -45.5t-53 -82.5t-38 -127.5l-20 -116q-12 -83 -5 -138t35.5 -87.5
t63 -46t78.5 -13.5z" />
    <glyph glyph-name="uni0430" unicode="&#x430;" horiz-adv-x="632" 
d="M174 -25q-197 0 -162 230l8 55q23 150 99 223q70 64 221 84l147 21l31 180q23 129 -9.5 183.5t-119.5 54.5q-86 0 -132.5 -45.5t-66.5 -159.5l-18 -107h-51l18 107q25 141 86.5 194.5t163.5 53.5q42 0 74 -8t59.5 -27t40.5 -51.5t17.5 -81.5t-9.5 -117l-84 -463
q-32 -172 -38 -301h-52q8 76 27 205q-68 -230 -250 -230zM188 18q92 0 159.5 86t98.5 258l33 183l-137 -17q-73 -9 -123 -31t-79 -59t-43.5 -77.5t-24.5 -100.5l-9 -51q-15 -96 18.5 -143.5t106.5 -47.5z" />
    <glyph glyph-name="uni0431" unicode="&#x431;" horiz-adv-x="649" 
d="M549 1331l-78 -18q-195 -46 -244 -289l-37 -178q82 203 236 203q102 0 151.5 -77.5t24.5 -221.5l-82 -455q-7 -40 -11.5 -61t-16 -60.5t-23 -62t-32 -52t-45 -45.5t-60 -27.5t-78.5 -11.5q-54 0 -95 15.5t-73 52.5t-39 98.5t6 153.5q18 100 55.5 323.5t61.5 354.5
q29 161 94.5 255t188.5 126l96 24q57 13 86 40t37 71h45q-12 -65 -52.5 -102t-115.5 -56zM410 1004q-101 0 -157 -95t-87 -268l-62 -346q-49 -275 150 -275q101 0 147 68t70 211l76 440q47 265 -137 265z" />
    <glyph glyph-name="uni0432" unicode="&#x432;" horiz-adv-x="692" 
d="M215 1024h186q78 0 129 -16.5t74.5 -46.5t31.5 -71t-1 -89l-6 -41q-31 -204 -193 -238q158 -35 133 -235l-4 -31q-20 -142 -95 -199t-224 -57h-211zM578 760l6 41q14 99 -25.5 140.5t-157.5 41.5h-141l-78 -442h142q121 0 178.5 52t75.5 167zM514 256l4 29
q16 107 -29 161t-167 54h-148l-80 -459h154q132 0 190.5 48.5t75.5 166.5z" />
    <glyph glyph-name="uni0433" unicode="&#x433;" horiz-adv-x="491" 
d="M215 1024h346l-8 -49h-295l-172 -975h-51z" />
    <glyph glyph-name="uni0434" unicode="&#x434;" horiz-adv-x="792" 
d="M737 1024l-172 -973h94l-53 -307h-47l45 256h-596l-45 -256h-47l53 307h90q90 143 136 295q64 201 147 678h395zM244 348q-54 -174 -131 -297h403l162 922h-295q-45 -245 -74 -375.5t-65 -249.5z" />
    <glyph glyph-name="uni0435" unicode="&#x435;" horiz-adv-x="636" 
d="M397 1049q122 0 171 -85.5t20 -244.5l-33 -180h-414l-35 -195q-58 -326 140 -326q80 0 132.5 56.5t80.5 199.5l14 76l47 -4l-12 -74q-28 -162 -94.5 -229.5t-167.5 -67.5q-255 0 -187 379l70 387q13 73 29.5 123.5t46.5 95.5t77.5 67t114.5 22zM539 731q47 277 -146 277
q-54 0 -92.5 -19t-62 -59t-37 -83t-25.5 -110l-29 -159h365q4 25 13.5 76t13.5 77z" />
    <glyph glyph-name="uni0436" unicode="&#x436;" horiz-adv-x="989" 
d="M967 1024h53l-332 -498l168 -526h-57l-156 500h-125l-88 -500h-51l88 500h-125l-332 -500h-57l350 516l-153 508h53l145 -483h125l86 483h51l-86 -483h121z" />
    <glyph glyph-name="uni0437" unicode="&#x437;" horiz-adv-x="636" 
d="M244 -25q-75 0 -122.5 22t-66 60t-22 90.5t9.5 114.5l6 37l49 4l-6 -39q-21 -135 10 -191.5t144 -56.5q53 0 90 15t60 47.5t36.5 71t24.5 98.5l6 33q23 120 -5.5 176.5t-129.5 56.5h-82l8 41h76q180 0 209 209l6 43q16 110 -25 155.5t-125 45.5q-185 0 -213 -242l-4 -35
l-49 4l4 31q37 283 264 283q82 0 131.5 -33.5t64.5 -86t3 -118.5l-8 -47q-38 -204 -180 -229q67 -8 97 -72.5t9 -181.5l-6 -35q-10 -59 -26.5 -103t-45.5 -84.5t-77.5 -62t-114.5 -21.5z" />
    <glyph glyph-name="uni0438" unicode="&#x438;" horiz-adv-x="727" 
d="M111 0h-76l180 1024h47l-143 -815l-27 -152h4q7 15 70 131l450 836h76l-180 -1024h-47l147 836l23 131h-4l-72 -129z" />
    <glyph glyph-name="uni0439" unicode="&#x439;" horiz-adv-x="727" 
d="M111 0h-76l180 1024h47l-143 -815l-27 -152h4q7 15 70 131l450 836h76l-180 -1024h-47l147 836l23 131h-4l-72 -129z" />
    <glyph glyph-name="uni043A" unicode="&#x43a;" horiz-adv-x="632" 
d="M623 1024h53l-332 -498l168 -526h-53l-160 500h-125l-88 -500h-51l180 1024h51l-86 -483h121z" />
    <glyph glyph-name="uni043B" unicode="&#x43b;" horiz-adv-x="686" 
d="M256 1024h395l-180 -1024h-51l172 973h-299q-41 -194 -152 -694q-34 -149 -74.5 -217t-113.5 -68q-17 0 -33 4l8 45h17q62 0 90.5 52.5t60.5 193.5q86 381 160 735z" />
    <glyph glyph-name="uni043C" unicode="&#x43c;" horiz-adv-x="905" 
d="M623 549l-244 -549h-41l-45 553q-6 76 -18 210t-17 202h-4l-43 -242l-127 -723h-49l180 1024h78l74 -834q7 -63 4 -122q23 67 47 122l373 834h79l-180 -1024h-49l127 723q3 20 19 108t24 138h-4q-32 -77 -184 -420z" />
    <glyph glyph-name="uni043D" unicode="&#x43d;" horiz-adv-x="702" 
d="M530 541l86 483h52l-181 -1024h-51l88 500h-350l-88 -500h-51l180 1024h51l-86 -483h350z" />
    <glyph glyph-name="uni043E" unicode="&#x43e;" horiz-adv-x="659" 
d="M252 -25q-54 0 -95.5 15.5t-73.5 52.5t-39.5 98t5.5 152l78 438q13 75 31.5 128.5t50 98.5t81.5 68t118 23q53 0 94.5 -15.5t73.5 -52.5t39.5 -98t-5.5 -152l-78 -438q-14 -75 -32 -128t-49.5 -98.5t-81 -68.5t-117.5 -23zM250 20q49 0 87 17.5t61 41.5t40.5 64t26 71.5
t16.5 76.5l78 442q47 271 -149 271q-49 0 -87 -17.5t-61.5 -42t-41 -64t-26 -71t-16.5 -76.5l-78 -442q-47 -271 150 -271z" />
    <glyph glyph-name="uni043F" unicode="&#x43f;" horiz-adv-x="702" 
d="M86 0h-51l180 1024h453l-181 -1024h-51l172 973h-350z" />
    <glyph glyph-name="uni0440" unicode="&#x440;" horiz-adv-x="700" 
d="M14 -399h-49l252 1423h47l-33 -180q38 102 91 153.5t141 51.5q28 0 52.5 -5.5t51.5 -20.5t44 -40.5t30.5 -66t12 -97t-12.5 -133.5l-61 -354q-11 -62 -23.5 -110t-34 -96.5t-49 -80t-69 -51t-93.5 -19.5q-89 0 -138.5 57t-55.5 156zM311 20q32 0 59 9.5t46 23.5
t35.5 39.5t26.5 48t20.5 60t16 64.5t13.5 71l64 356q12 66 13 118t-8.5 85t-24 55.5t-36 33.5t-41.5 15.5t-44 4.5q-97 0 -160 -92.5t-92 -258.5l-49 -280q-30 -170 13 -261.5t148 -91.5z" />
    <glyph glyph-name="uni0441" unicode="&#x441;" horiz-adv-x="641" 
d="M246 -25q-47 0 -85.5 14.5t-72.5 51.5t-42.5 100t5.5 160l76 424q29 159 90.5 241.5t183.5 82.5q240 0 195 -293l-10 -68l-54 -4l13 74q7 54 7 93.5t-12 67t-26 44.5t-36 26.5t-40 13t-39 3.5q-53 0 -91.5 -19.5t-63 -59.5t-39.5 -86.5t-27 -113.5l-76 -424
q-15 -70 -8.5 -120t20 -82t38.5 -50.5t47.5 -25.5t46.5 -7q44 0 77.5 14.5t54.5 35.5t38.5 59t26.5 71t20 85l16 79l47 -4l-14 -77q-10 -56 -22 -97.5t-32.5 -83t-48 -67.5t-69 -42t-94.5 -16z" />
    <glyph glyph-name="uni0442" unicode="&#x442;" horiz-adv-x="520" 
d="M590 1024l-8 -49h-213l-172 -975h-52l172 975h-215l9 49h479z" />
    <glyph glyph-name="uni0443" unicode="&#x443;" horiz-adv-x="593" 
d="M-53 -410q-36 0 -62 11l9 45q22 -11 55 -11q58 0 96 38t74 137l63 172l-55 1042h51l37 -844q4 -123 4 -127h2q6 20 12.5 36.5t14 35t12.5 31.5l334 868h53l-477 -1214q-52 -131 -100.5 -175.5t-122.5 -44.5z" />
    <glyph glyph-name="uni0444" unicode="&#x444;" horiz-adv-x="1069" 
d="M860 1049q102 0 144 -86t10 -269l-66 -368q-11 -64 -24 -112.5t-34 -95.5t-47.5 -77t-65.5 -48t-87 -18q-164 0 -192 185l-99 -561h-51l98 561q-84 -185 -239 -185q-81 0 -122 48t-42.5 130.5t16.5 192.5l62 348q12 67 23.5 115.5t31.5 96.5t45.5 77.5t63 47.5t86.5 18
q89 0 140.5 -52.5t55.5 -152.5l113 641h51l-110 -635q78 199 239 199zM479 344l8 41l54 307q21 140 -23 226t-145 86q-34 0 -61 -10t-46.5 -32.5t-33.5 -46.5t-25.5 -64t-18.5 -72.5t-16 -84.5l-61 -346q-17 -100 -17.5 -172.5t30.5 -114t97 -41.5q102 0 167.5 91.5
t90.5 232.5zM897 328l66 366q22 116 10.5 185t-41.5 97t-82 28q-104 0 -169 -95t-93 -254l-56 -305l-6 -24q-12 -63 -7.5 -118.5t22 -97.5t57 -66t96.5 -24q45 0 79.5 22.5t57.5 66.5t38 95.5t28 123.5z" />
    <glyph glyph-name="uni0445" unicode="&#x445;" horiz-adv-x="563" 
d="M10 0h-57l305 541l-104 483h53l67 -352q15 -71 17 -92h4q3 7 51 94l186 350h56l-271 -487l113 -537h-51l-78 401q-15 70 -18 93h-4q-7 -17 -50 -95z" />
    <glyph glyph-name="uni0446" unicode="&#x446;" horiz-adv-x="712" 
d="M606 1024h51l-172 -973h95l-54 -307h-47l45 256h-489l180 1024h51l-170 -973h340z" />
    <glyph glyph-name="uni0447" unicode="&#x447;" horiz-adv-x="612" 
d="M436 516l90 508h52l-183 -1024h-51l82 465q-62 -33 -141 -33q-93 0 -143 55.5t-50 157.5q0 39 12 107l50 274h51l-49 -283q-9 -53 -9 -94q0 -170 150 -170q77 0 139 37z" />
    <glyph glyph-name="uni0448" unicode="&#x448;" horiz-adv-x="1064" 
d="M807 51l172 973h51l-180 -1024h-815l180 1024h51l-172 -973h328l172 973h51l-172 -973h334z" />
    <glyph glyph-name="uni0449" unicode="&#x449;" horiz-adv-x="1085" 
d="M979 1024h51l-172 -973h94l-53 -307h-47l45 256h-862l180 1024h51l-172 -973h328l172 973h51l-172 -973h334z" />
    <glyph glyph-name="uni044A" unicode="&#x44a;" horiz-adv-x="724" 
d="M309 606h94q34 0 61 -2.5t56.5 -9t49 -18.5t38.5 -31.5t25.5 -47.5t10 -66t-8.5 -87l-10 -55q-8 -43 -14.5 -70.5t-18 -61t-26 -54.5t-38 -42.5t-53 -33.5t-71.5 -19.5t-95 -7.5h-157l172 975h-222l9 49h272l-8 -49zM575 285l9 47q8 44 8.5 78.5t-5 59t-18.5 42
t-28.5 27.5t-39.5 16t-47.5 8t-56.5 2h-94l-92 -524h102q44 0 79.5 6.5t60.5 16t44 28t31 36t21.5 46.5t14.5 51.5t11 59.5z" />
    <glyph glyph-name="uni044B" unicode="&#x44b;" horiz-adv-x="608" 
d="M193 606h94q30 0 54 -2t50 -6.5t45.5 -13.5t37.5 -22.5t29 -33.5t17.5 -45.5t6 -61t-8.5 -77.5l-10 -55q-7 -37 -12.5 -61.5t-14.5 -55t-20.5 -50t-28 -41.5t-38.5 -35t-50.5 -24.5t-66.5 -16.5t-84 -5h-158l180 1024h51zM459 285l8 47q8 44 8.5 78.5t-4.5 59t-18 42
t-28.5 27.5t-39.5 16t-47.5 8t-56.5 2h-95l-92 -524h103q44 0 79.5 6.5t60.5 16t44 28t31 36t21.5 46.5t14.5 51.5t11 59.5z" />
    <glyph glyph-name="uni044C" unicode="&#x44c;" horiz-adv-x="608" 
d="M193 606h94q30 0 54 -2t50 -6.5t45.5 -13.5t37.5 -22.5t29 -33.5t17.5 -45.5t6 -61t-8.5 -77.5l-10 -55q-7 -37 -12.5 -61.5t-14.5 -55t-20.5 -50t-28 -41.5t-38.5 -35t-50.5 -24.5t-66.5 -16.5t-84 -5h-158l180 1024h51zM459 285l8 47q8 44 8.5 78.5t-4.5 59t-18 42
t-28.5 27.5t-39.5 16t-47.5 8t-56.5 2h-95l-92 -524h103q44 0 79.5 6.5t60.5 16t44 28t31 36t21.5 46.5t14.5 51.5t11 59.5z" />
    <glyph glyph-name="uni044D" unicode="&#x44d;" horiz-adv-x="638" 
d="M399 1049q129 0 173 -79.5t16 -242.5l-74 -426q-9 -53 -20.5 -94.5t-33 -87t-50.5 -75.5t-74.5 -49.5t-102.5 -19.5q-37 0 -68 7.5t-61 27.5t-45.5 54.5t-22.5 88t9 128.5l10 57l49 4l-10 -59q-13 -65 -8.5 -111t15.5 -76t34.5 -47.5t48 -24t56.5 -6.5q49 0 87 18.5
t60 46.5t37.5 67.5t23 72.5t14.5 72q1 5 1 8l35 197h-260l8 41h260l33 188q26 148 -7.5 212.5t-132.5 64.5q-95 0 -144.5 -56t-74.5 -190l-10 -55l-47 4l8 49q25 151 89.5 221t178.5 70z" />
    <glyph glyph-name="uni044E" unicode="&#x44e;" horiz-adv-x="913" 
d="M727 1477q42 0 77 -10t65 -32.5t47 -59t22.5 -90.5t-8.5 -126l-78 -438q-13 -75 -31.5 -128.5t-50 -98.5t-81.5 -68t-118 -23q-54 0 -95.5 15.5t-73 52.5t-39 98t5.5 152l37 207h-156l-164 -928h-51l180 1024h51l-10 -55h156l34 190q13 75 31.5 128.5t50 98.5t81.5 68
t118 23zM801 719l78 442q47 271 -150 271q-49 0 -87 -17.5t-61 -41.5t-40.5 -64t-26 -71.5t-16.5 -76.5l-78 -442q-47 -270 149 -270q49 0 87 17t61.5 41.5t41 64t26 71t16.5 76.5zM272 1419h56l-39 -225h-56z" />
    <glyph glyph-name="uni044F" unicode="&#x44f;" horiz-adv-x="634" 
d="M600 1024l-180 -1024h-51l80 455h-117h-31l-274 -455h-56l279 461q-83 16 -120.5 76.5t-16.5 183.5l6 39q22 142 91 203t216 61h174zM334 496h123l84 487h-127q-123 0 -174.5 -55t-71.5 -180l-4 -27q-20 -125 20 -175t150 -50z" />
    <glyph glyph-name="uni0451" unicode="&#x451;" horiz-adv-x="636" 
d="M397 1049q122 0 171 -85.5t20 -244.5l-33 -180h-414l-35 -195q-58 -326 140 -326q80 0 132.5 56.5t80.5 199.5l14 76l47 -4l-12 -74q-28 -162 -94.5 -229.5t-167.5 -67.5q-255 0 -187 379l70 387q13 73 29.5 123.5t46.5 95.5t77.5 67t114.5 22zM539 731q47 277 -146 277
q-54 0 -92.5 -19t-62 -59t-37 -83t-25.5 -110l-29 -159h365q4 25 13.5 76t13.5 77z" />
    <glyph glyph-name="uni0454" unicode="&#x454;" horiz-adv-x="636" 
d="M397 1049q122 0 171 -85.5t20 -244.5l-2 -10l-51 -4l4 26q47 277 -146 277q-54 0 -92.5 -19t-62 -59t-37 -83t-25.5 -110l-35 -196h260l-8 -41h-260l-27 -156q-58 -326 140 -326q80 0 132.5 56.5t80.5 199.5l12 68l47 -4l-10 -66q-28 -162 -94.5 -229.5t-167.5 -67.5
q-255 0 -187 379l70 387q13 73 29.5 123.5t46.5 95.5t77.5 67t114.5 22z" />
    <glyph glyph-name="uni0455" unicode="&#x455;" horiz-adv-x="571" 
d="M219 -25q-115 0 -172 68.5t-29 210.5l15 74l51 4l-16 -86q-22 -113 24 -171.5t133 -58.5q70 0 114 41.5t62 135.5l11 53q7 45 10.5 82.5t-20.5 78t-80 76.5l-99 64q-71 47 -90.5 107.5t-3.5 146.5l8 41q22 106 76 156.5t145 50.5q105 0 155.5 -59t31.5 -183l-15 -96
l-51 -4l15 102q26 199 -140 199q-66 0 -107 -38t-59 -128l-8 -41q-18 -73 -0.5 -127t80.5 -96l102 -68q58 -39 85 -79.5t27 -84t-11 -98.5l-10 -51q-23 -116 -79 -169t-155 -53z" />
    <glyph glyph-name="uni0458" unicode="&#x458;" horiz-adv-x="301" 
d="M289 1194h-56l39 225h56zM-117 -414q-36 0 -71 13l8 45q29 -11 61 -11q51 0 74.5 28.5t32.5 78.5l227 1284h51l-227 -1286q-12 -73 -52 -112.5t-104 -39.5z" />
    <glyph glyph-name="Wgrave" unicode="&#x1e80;" horiz-adv-x="1107" 
d="M244 0h-70l51 1454h54l-41 -1149q-1 -44 -9 -126t-10 -103h4q13 66 70 229l393 1149h64l-11 -1149q0 -99 -10 -229h4q21 103 62 229l364 1149h55l-460 -1454h-72l16 1245q0 7 11 131h-7q-12 -66 -34 -131z" />
    <glyph glyph-name="wgrave" unicode="&#x1e81;" horiz-adv-x="897" 
d="M190 0h-57l8 1024h49l-14 -831q0 -80 -4 -117h4q5 20 37 117l293 831h61v-831q0 -80 -2 -117h4q1 5 35 117l279 831h53l-352 -1024h-58v860q0 33 4 103h-4q-10 -33 -32 -103z" />
    <glyph glyph-name="Wacute" unicode="&#x1e82;" horiz-adv-x="1107" 
d="M244 0h-70l51 1454h54l-41 -1149q-1 -44 -9 -126t-10 -103h4q13 66 70 229l393 1149h64l-11 -1149q0 -99 -10 -229h4q21 103 62 229l364 1149h55l-460 -1454h-72l16 1245q0 7 11 131h-7q-12 -66 -34 -131z" />
    <glyph glyph-name="wacute" unicode="&#x1e83;" horiz-adv-x="897" 
d="M190 0h-57l8 1024h49l-14 -831q0 -80 -4 -117h4q5 20 37 117l293 831h61v-831q0 -80 -2 -117h4q1 5 35 117l279 831h53l-352 -1024h-58v860q0 33 4 103h-4q-10 -33 -32 -103z" />
    <glyph glyph-name="Wdieresis" unicode="&#x1e84;" horiz-adv-x="1107" 
d="M244 0h-70l51 1454h54l-41 -1149q-1 -44 -9 -126t-10 -103h4q13 66 70 229l393 1149h64l-11 -1149q0 -99 -10 -229h4q21 103 62 229l364 1149h55l-460 -1454h-72l16 1245q0 7 11 131h-7q-12 -66 -34 -131z" />
    <glyph glyph-name="wdieresis" unicode="&#x1e85;" horiz-adv-x="897" 
d="M190 0h-57l8 1024h49l-14 -831q0 -80 -4 -117h4q5 20 37 117l293 831h61v-831q0 -80 -2 -117h4q1 5 35 117l279 831h53l-352 -1024h-58v860q0 33 4 103h-4q-10 -33 -32 -103z" />
    <glyph glyph-name="Ygrave" unicode="&#x1ef2;" horiz-adv-x="688" 
d="M283 0h-56l115 649l-158 805h58l114 -633q16 -80 17 -112h4q25 58 55 112l338 633h66l-439 -805z" />
    <glyph glyph-name="ygrave" unicode="&#x1ef3;" horiz-adv-x="593" 
d="M-53 -410q-36 0 -62 11l9 45q22 -11 55 -11q58 0 96 38t74 137l63 172l-55 1042h51l37 -844q4 -123 4 -127h2q6 20 12.5 36.5t14 35t12.5 31.5l334 868h53l-477 -1214q-52 -131 -100.5 -175.5t-122.5 -44.5z" />
    </font>
</defs>
</svg>
