<?xml version="1.0" standalone="no"?>
<!DOCTYPE svg PUBLIC "-//W3C//DTD SVG 1.1//EN" "http://www.w3.org/Graphics/SVG/1.1/DTD/svg11.dtd" >
<svg xmlns="http://www.w3.org/2000/svg" xmlns:xlink="http://www.w3.org/1999/xlink" version="1.1">
<metadata>
Created by FontForge 20170731 at Wed Apr 20 08:50:55 2022
 By Aleksey,,,
Copyright (c) 2016 by Grilli Type. All rights reserved.
</metadata>
<defs>
<font id="GTAmericaTrial-CmThIt" horiz-adv-x="870" >
  <font-face 
    font-family="GT America Trial Cm Th It"
    font-weight="275"
    font-style="italic"
    font-stretch="ultra-condensed"
    units-per-em="2048"
    panose-1="0 0 3 8 0 0 0 0 0 0"
    ascent="1608"
    descent="-440"
    x-height="1024"
    cap-height="1454"
    bbox="-180 -440 1675 1608"
    underline-thickness="102"
    underline-position="-307"
    slope="-10"
    unicode-range="U+0020-1EF3"
  />
<missing-glyph horiz-adv-x="1024" 
d="M190 1608h650v-2048h-650v2048zM682 1403v67h-338v-67h133v-76h-135v-67h340v67h-135v76h135zM547 1063v143h-205v-213h340v70h-135zM410 1137h67v-74h-67v74zM682 870v68h-340v-68h135v-75h-135v-68h205v143h135zM682 610v205h-68v-135h-272v-70h340zM682 334v231h-205
v-114h70v47h67v-97h-204v164h-68v-231h340zM682 -20v231h-340v-231h340zM410 143h204v-96h-204v96zM682 -135v67h-340v-67h143l-143 -96v-68h340v68h-209l143 96h66z" />
    <glyph glyph-name=".notdef" horiz-adv-x="1024" 
d="M190 1608h650v-2048h-650v2048zM682 1403v67h-338v-67h133v-76h-135v-67h340v67h-135v76h135zM547 1063v143h-205v-213h340v70h-135zM410 1137h67v-74h-67v74zM682 870v68h-340v-68h135v-75h-135v-68h205v143h135zM682 610v205h-68v-135h-272v-70h340zM682 334v231h-205
v-114h70v47h67v-97h-204v164h-68v-231h340zM682 -20v231h-340v-231h340zM410 143h204v-96h-204v96zM682 -135v67h-340v-67h143l-143 -96v-68h340v68h-209l143 96h66z" />
    <glyph glyph-name=".null" horiz-adv-x="0" 
 />
    <glyph glyph-name=".null" horiz-adv-x="0" 
 />
    <glyph glyph-name="nonmarkingreturn" horiz-adv-x="682" 
 />
    <glyph glyph-name="space" unicode=" " horiz-adv-x="368" 
 />
    <glyph glyph-name="comma" unicode="," horiz-adv-x="331" 
d="M-12 -242l-23 49q41 20 65.5 56.5t37.5 107.5l6 29h-62l37 195h121l-39 -215q-19 -101 -53 -150t-90 -72z" />
    <glyph glyph-name="hyphen" unicode="-" horiz-adv-x="552" 
d="M72 522l16 94h414l-17 -94h-413z" />
    <glyph glyph-name="period" unicode="." horiz-adv-x="331" 
d="M49 195h121l-33 -195h-121z" />
    <glyph glyph-name="zero" unicode="0" horiz-adv-x="817" 
d="M338 -31q-42 0 -78.5 8t-72.5 26t-61 48t-43 74.5t-19.5 104.5t10.5 139l121 686q9 48 17 84.5t22.5 80.5t32 75.5t44.5 63t59.5 51t78 32t100.5 12.5q42 0 78.5 -7.5t72.5 -26t61 -48t43 -74t19.5 -104.5t-10.5 -139l-121 -686q-9 -48 -17 -84.5t-22.5 -80.5t-32 -75.5
t-44.5 -63.5t-59.5 -51.5t-78 -32t-100.5 -12.5zM344 53q51 0 91 19t65 47t45 72t30 82t19 89l121 697q9 67 10 115.5t-13 83t-31 56.5t-42.5 34.5t-48 17t-47.5 4.5q-51 0 -91 -19t-65 -47t-44.5 -71.5t-29 -82t-18.5 -89.5l-123 -696q-9 -66 -9.5 -115t13.5 -84t30.5 -57
t42 -34.5t48 -17t47.5 -4.5z" />
    <glyph glyph-name="one" unicode="1" horiz-adv-x="544" 
d="M274 0h-96l215 1217q-26 -45 -79.5 -70t-116.5 -25h-47l16 92h37q170 0 241 209h82z" />
    <glyph glyph-name="two" unicode="2" horiz-adv-x="731" 
d="M573 0h-604l15 84q281 320 467 573q86 120 132 217.5t66 204.5l13 62q22 112 -18 170.5t-134 58.5q-55 0 -94.5 -19t-64 -56t-38 -76.5t-24.5 -94.5q-18 -93 -21 -127l-96 15q6 55 16 116q12 58 27 103.5t41 88.5t60 71.5t84.5 45.5t113.5 17q146 0 211.5 -85t32.5 -247
l-8 -37q-22 -116 -67.5 -222.5t-133.5 -227.5q-166 -226 -440 -543h481z" />
    <glyph glyph-name="three" unicode="3" horiz-adv-x="747" 
d="M305 -31q-51 0 -94 11t-81.5 35.5t-61 65t-32 99t6.5 137.5l14 86l101 13l-19 -97q-46 -266 166 -266q56 0 95 16.5t62.5 52.5t37 76.5t24.5 104.5l23 125q51 272 -146 272h-65l16 91h62q92 0 148 55.5t81 197.5l19 99q12 57 5.5 97t-19 65t-38 39.5t-51 20t-57.5 5.5
q-36 0 -65.5 -9.5t-49 -21.5t-36.5 -36t-26 -40.5t-18 -48.5t-11.5 -46.5t-8.5 -46.5q-1 -2 -1 -3.5t-0.5 -3.5t-0.5 -4l-15 -88l-94 14l12 82q46 336 314 336q309 0 256 -315l-17 -101q-23 -139 -82.5 -205.5t-148.5 -87.5q181 -44 135 -321l-22 -125q-13 -79 -34.5 -135.5
t-57.5 -102.5t-92.5 -69t-133.5 -23z" />
    <glyph glyph-name="four" unicode="4" horiz-adv-x="751" 
d="M696 434l-14 -82h-154l-61 -352h-96l63 352h-440l12 74l596 997h115l-174 -989h153zM446 434l136 715q19 110 34 172h-4q-37 -88 -86 -170l-346 -582q-59 -102 -84 -135h350z" />
    <glyph glyph-name="five" unicode="5" horiz-adv-x="749" 
d="M313 -31q-66 0 -117.5 17.5t-90.5 56.5t-50.5 101.5t2.5 152.5l15 84l98 10l-16 -90q-12 -58 -6 -100.5t20.5 -71t39.5 -45.5t51.5 -24t57.5 -7q48 0 84.5 16t60 41t41.5 65.5t27.5 77.5t18.5 89l41 227q14 68 9.5 118t-17 83.5t-36 53t-48.5 28t-54 8.5
q-78 0 -139.5 -58.5t-87.5 -164.5l-88 10l170 776h500l-15 -90h-419l-125 -545q69 156 233 156q55 0 98 -18.5t78 -62t43.5 -115.5t-6.5 -179l-39 -225q-15 -84 -37.5 -146.5t-60 -117t-97 -83t-139.5 -28.5z" />
    <glyph glyph-name="six" unicode="6" horiz-adv-x="776" 
d="M532 1454q45 0 84 -8.5t78 -29t61.5 -55t34 -87t-3.5 -125.5l-12 -62l-100 -16l12 68q24 124 -24.5 179.5t-135.5 55.5q-45 0 -81 -17t-60 -43.5t-42.5 -68.5t-29 -82.5t-20.5 -95.5l-47 -262q83 139 239 139q30 0 58 -5.5t58.5 -20t52 -40t39 -64.5t18.5 -93.5
t-9 -128.5l-43 -260q-11 -65 -25 -115.5t-39.5 -98.5t-59.5 -79.5t-85 -50.5t-116 -19q-40 0 -74.5 7t-71 24.5t-61.5 48t-44.5 76.5t-20 109.5t11.5 148.5l121 680q12 70 25.5 120.5t39 105t59.5 88t88.5 55.5t124.5 22zM457 860q-152 0 -234 -188l-55 -310
q-9 -66 -9.5 -114.5t13.5 -83t31 -56t43 -34t49 -17t49 -4.5q44 0 78.5 15.5t56.5 39t38.5 62t26 75t17.5 87.5l45 264q12 65 6 111t-19 75.5t-37 47t-47.5 24t-51.5 6.5z" />
    <glyph glyph-name="seven" unicode="7" horiz-adv-x="665" 
d="M236 0h-103l10 70q37 239 95 433.5t168 407t274 422.5h-502l19 90h598l-15 -71q-122 -152 -212.5 -303t-150 -305.5t-97 -301.5t-64.5 -323z" />
    <glyph glyph-name="eight" unicode="8" horiz-adv-x="776" 
d="M520 1454q59 0 109 -15t91 -47.5t58.5 -93t3.5 -141.5l-22 -135q-20 -116 -74 -177t-156 -95q184 -90 144 -318l-25 -143q-7 -38 -13 -65.5t-18.5 -63t-27 -60.5t-39 -51.5t-54 -42.5t-72 -26.5t-93.5 -10.5q-33 0 -63.5 4.5t-63.5 14.5t-59 27.5t-49.5 44t-35 62.5
t-16 83.5t7.5 107.5l25 138q23 128 77 195.5t173 103.5q-165 85 -129 294l20 123q11 59 28.5 104t50 89.5t89 69t133.5 24.5zM659 1020l25 139q11 63 0 107.5t-39 66.5t-59.5 31.5t-69.5 9.5q-44 0 -78 -14t-54 -33t-35 -51t-21 -57t-13 -62l-20 -121q-33 -179 127 -241
l31 -13q99 31 144 80t62 158zM551 289l27 147q35 202 -132 266l-43 17q-111 -30 -158.5 -87t-68.5 -177l-29 -158q-11 -58 -2 -100.5t26 -70.5t46 -44.5t58.5 -23.5t62.5 -7q46 0 81.5 14t57.5 35t37.5 54.5t23 63.5t13.5 71z" />
    <glyph glyph-name="nine" unicode="9" horiz-adv-x="770" 
d="M504 1454q42 0 78.5 -7.5t72.5 -25t60.5 -47t43 -74t19 -105t-11.5 -140.5l-123 -711q-26 -140 -47 -193q-57 -149 -201 -176q-34 -6 -73 -6q-47 0 -87 8.5t-80 29t-63.5 55.5t-36 87.5t1.5 124.5l11 70l100 21l-14 -86q-11 -67 -0.5 -114.5t38 -71.5t58 -34t67.5 -10
q50 0 87.5 16.5t59.5 42.5t37.5 64.5t23.5 75t16 82.5q1 9 2 14l55 315q-77 -127 -215 -127q-41 0 -78 10t-73.5 34t-58.5 63.5t-32 98.5t6 139l43 233q9 55 21 98.5t36 92t56 80t84 52.5t117 21zM623 793l49 276q9 62 9.5 109t-12 80.5t-29 55t-41 34t-47.5 17.5t-50 5
q-43 0 -77.5 -15.5t-56.5 -39t-39 -60.5t-26 -71t-18 -80l-41 -232q-14 -64 -7 -109.5t21 -74.5t39 -45.5t48.5 -22.5t49.5 -6q153 0 228 179z" />
    <glyph glyph-name="A" unicode="A" horiz-adv-x="798" 
d="M668 0h-101l-8 430h-340l-160 -430h-108l555 1454h119zM467 1102l-217 -588h307l-10 588q-3 136 4 233h-8q-35 -124 -76 -233z" />
    <glyph glyph-name="B" unicode="B" horiz-adv-x="798" 
d="M301 1454h225q156 0 233 -83t52 -245l-12 -73q-21 -126 -83 -204t-161 -95q95 -20 135.5 -95.5t16.5 -226.5l-15 -88q-13 -87 -35.5 -146t-64.5 -106t-111 -69.5t-168 -22.5h-268zM696 1057l13 69q22 129 -34 187.5t-161 58.5h-127l-100 -573h151q116 0 176 66.5
t82 191.5zM592 346l12 86q24 154 -20.5 218.5t-167.5 64.5h-146l-110 -631h166q72 0 121.5 18.5t77.5 57t42 80t25 106.5z" />
    <glyph glyph-name="C" unicode="C" horiz-adv-x="839" 
d="M358 -35q-58 0 -105.5 12.5t-90 42.5t-65.5 80t-32 124.5t11 176.5l121 689q16 92 42.5 160.5t69.5 124.5t109 85t153 29q76 0 133 -19t99 -64t52.5 -118.5t-5.5 -181.5l-21 -119l-106 -18l25 141q49 293 -175 293q-121 0 -183.5 -83t-88.5 -233l-123 -700
q-16 -79 -11 -136.5t19.5 -96t43 -61.5t60 -32.5t70.5 -9.5q109 0 166.5 70t83.5 213l31 174l100 -21l-28 -161q-31 -177 -113 -269t-242 -92z" />
    <glyph glyph-name="D" unicode="D" horiz-adv-x="876" 
d="M315 0h-270l256 1454h229q101 0 171.5 -29.5t114.5 -95t51.5 -170.5t-17.5 -256l-70 -395q-35 -198 -94 -309t-146 -155t-225 -44zM387 1372l-227 -1288h162q107 0 172.5 37t108.5 127t73 256l72 399q43 249 -17 359t-219 110h-125z" />
    <glyph glyph-name="E" unicode="E" horiz-adv-x="700" 
d="M805 1454l-14 -88h-406l-100 -571h370l-16 -88h-371l-108 -619h418l-15 -88h-518l256 1454h504z" />
    <glyph glyph-name="F" unicode="F" horiz-adv-x="673" 
d="M805 1454l-14 -88h-406l-100 -571h370l-16 -88h-369l-125 -707h-100l256 1454h504z" />
    <glyph glyph-name="G" unicode="G" horiz-adv-x="849" 
d="M317 -35q-67 0 -118 24t-87.5 77t-44 139.5t12.5 210.5l119 676q70 397 379 397q150 0 222 -94.5t36 -294.5l-17 -94l-104 -17l18 115q48 299 -166 299q-60 0 -106.5 -23t-76.5 -66t-48.5 -94.5t-30.5 -117.5l-121 -686q-66 -365 158 -365q222 0 291 398l39 213h-262
l16 86h354l-131 -748h-74l29 221q-43 -136 -113 -196t-174 -60z" />
    <glyph glyph-name="H" unicode="H" horiz-adv-x="899" 
d="M829 1454h101l-256 -1454h-101l125 707h-428l-125 -707h-100l256 1454h100l-116 -663h430z" />
    <glyph glyph-name="I" unicode="I" horiz-adv-x="370" 
d="M401 1454l-256 -1454h-100l256 1454h100z" />
    <glyph glyph-name="J" unicode="J" horiz-adv-x="493" 
d="M535 1454l-211 -1208q-25 -140 -88.5 -205.5t-176.5 -65.5q-71 0 -129 25l17 94q58 -24 114 -24q73 0 110 46.5t56 151.5l209 1186h99z" />
    <glyph glyph-name="K" unicode="K" horiz-adv-x="825" 
d="M829 1454h111l-397 -549l157 -905h-100l-137 817l-230 -315l-88 -502h-100l256 1454h100l-141 -801z" />
    <glyph glyph-name="L" unicode="L" horiz-adv-x="649" 
d="M522 0h-477l256 1454h100l-241 -1362h379z" />
    <glyph glyph-name="M" unicode="M" horiz-adv-x="1124" 
d="M139 0h-94l256 1454h160l35 -1182q0 -105 -7 -155h7q14 57 51 155l450 1182h160l-256 -1454h-96l190 1085l54 271h-9q-1 -4 -24 -73.5t-45 -125.5l-443 -1157h-110l-35 1157q-1 54 -0.5 86.5t1.5 68t1 44.5h-8q-1 -6 -45 -271z" />
    <glyph glyph-name="N" unicode="N" horiz-adv-x="925" 
d="M141 0h-96l256 1454h115l198 -1081q23 -138 25 -223h4q11 130 43 315l174 989h96l-256 -1454h-108l-199 1096q-23 118 -28 221h-5q-16 -173 -36 -279z" />
    <glyph glyph-name="O" unicode="O" 
d="M369 -35q-166 0 -248.5 103t-46.5 319l123 703q17 95 43 163.5t69.5 124t110.5 83.5t158 28q80 0 140.5 -23.5t103 -74t54.5 -130.5t-6 -194l-122 -702q-16 -95 -42 -164t-69.5 -124.5t-110 -83.5t-157.5 -28zM377 51q54 0 95.5 17t69 43.5t48 69t32 84t21.5 97.5
l127 719q30 167 -28.5 244.5t-172.5 77.5q-54 0 -95.5 -17t-69 -43.5t-48 -69t-32 -84t-21.5 -97.5l-129 -719q-29 -167 29.5 -244.5t173.5 -77.5z" />
    <glyph glyph-name="P" unicode="P" horiz-adv-x="745" 
d="M301 1454h225q70 0 125.5 -18t98 -56.5t59 -107.5t2.5 -162l-18 -123q-13 -83 -37.5 -143t-67.5 -107.5t-111 -71.5t-161 -24h-158l-113 -641h-100zM690 995l19 107q24 146 -29 208t-174 62h-119l-115 -649h152q129 0 186.5 68t79.5 204z" />
    <glyph glyph-name="Q" unicode="Q" 
d="M578 1489q80 0 140.5 -23.5t103 -74t54.5 -130.5t-6 -194l-122 -702q-25 -145 -77.5 -238.5t-146.5 -132.5q21 -51 55 -70.5t91 -19.5q41 0 75 10l-16 -94q-40 -8 -74 -8q-79 0 -132 42t-70 117q-40 -6 -84 -6q-166 0 -248.5 103t-46.5 319l123 703q17 95 43 163.5
t69.5 124t110.5 83.5t158 28zM643 362l127 719q30 167 -28.5 244.5t-172.5 77.5q-54 0 -95.5 -17t-69 -43.5t-48 -69t-32 -84t-21.5 -97.5l-129 -719q-29 -167 29.5 -244.5t173.5 -77.5q54 0 95.5 17t69 43.5t48 69t32 84t21.5 97.5z" />
    <glyph glyph-name="R" unicode="R" horiz-adv-x="796" 
d="M301 1454h213q77 0 137 -18.5t103.5 -57.5t60 -106.5t2.5 -159.5l-18 -119q-44 -275 -256 -323l116 -670h-108l-109 655h-182l-115 -655h-100zM696 991l17 115q40 266 -203 266h-123l-113 -637h166q62 0 108.5 20t75.5 56.5t46 80t26 99.5z" />
    <glyph glyph-name="S" unicode="S" horiz-adv-x="733" 
d="M311 -35q-157 0 -235.5 99.5t-46.5 300.5l18 110l105 14l-25 -141q-26 -151 28.5 -224t157.5 -73q51 0 90 17.5t64 48.5t39.5 67t21.5 80l17 92q19 112 -7.5 183.5t-111.5 142.5l-119 98q-88 75 -115 162t-6 211l11 57q24 132 95 205.5t214 73.5q151 0 225 -83t41 -267
l-20 -119l-105 -16l23 126q50 273 -166 273q-98 0 -143.5 -53t-61.5 -144l-14 -78q-17 -91 7.5 -156t96.5 -124l117 -98q104 -87 134 -175.5t7 -230.5l-14 -88q-21 -129 -100 -210t-222 -81z" />
    <glyph glyph-name="T" unicode="T" horiz-adv-x="708" 
d="M178 1454h684l-16 -90h-289l-242 -1364h-96l240 1364h-297z" />
    <glyph glyph-name="U" unicode="U" 
d="M92 322l197 1132h100l-203 -1149q-21 -121 30.5 -186.5t158.5 -65.5q60 0 104 22t69.5 62t39 78.5t22.5 87.5l203 1151h98l-202 -1157q-60 -332 -344 -332q-152 0 -228.5 90t-44.5 267z" />
    <glyph glyph-name="V" unicode="V" horiz-adv-x="755" 
d="M350 0h-123l-37 1454h105l16 -1114q3 -131 -2 -209h8q26 90 68 209l408 1114h104z" />
    <glyph glyph-name="W" unicode="W" horiz-adv-x="1157" 
d="M295 0h-137l63 1454h98l-55 -1110q-3 -54 -20 -240h4q28 110 71 240l363 1110h123l-29 -1110q-2 -85 -14 -240h6q28 136 61 240l338 1110h101l-449 -1454h-139l33 1155q1 34 8 106t8 89h-6q-21 -102 -53 -195z" />
    <glyph glyph-name="X" unicode="X" horiz-adv-x="778" 
d="M59 0h-120l438 776l-154 678h105l102 -487q10 -48 16 -119h5q18 50 55 119l264 487h115l-387 -688l159 -766h-104l-107 578q-12 56 -14 118h-4q-25 -63 -59 -118z" />
    <glyph glyph-name="Y" unicode="Y" horiz-adv-x="731" 
d="M326 0h-99l113 639l-160 815h107l100 -592q12 -86 12 -121h4q23 61 58 121l309 592h113l-443 -815z" />
    <glyph glyph-name="Z" unicode="Z" horiz-adv-x="692" 
d="M-49 0l14 84l733 1280h-473l17 90h577l-16 -84l-731 -1280h522l-16 -90h-627z" />
    <glyph glyph-name="a" unicode="a" horiz-adv-x="677" 
d="M184 -25q-97 0 -143 61t-27 187l9 53q21 145 106 224q74 63 215 78l148 18l26 166q19 112 -11.5 159.5t-103.5 47.5q-76 0 -115.5 -40.5t-54.5 -137.5l-16 -97h-96l16 97q22 140 89 199t182 59q36 0 65.5 -5.5t58 -18.5t46 -35t31 -55t13 -79t-9.5 -106l-84 -467
q-29 -172 -32 -283h-93q2 24 5 53.5t8 69.5t8 65q-62 -213 -240 -213zM223 55q166 0 219 281l35 192l-119 -14q-63 -7 -106.5 -26t-69.5 -51.5t-39.5 -68.5t-21.5 -87l-8 -56q-26 -170 110 -170z" />
    <glyph glyph-name="b" unicode="b" horiz-adv-x="739" 
d="M344 -25q-87 0 -136 53t-58 152l-44 -180h-75l262 1485h94l-108 -613q39 85 91 131t132 46q22 0 42 -3.5t43.5 -13.5t42 -27t34 -46.5t23 -68.5t6.5 -96.5t-13 -127.5l-51 -306q-14 -80 -32.5 -140.5t-50.5 -120t-83 -92t-119 -32.5zM326 59q40 0 71 16.5t51 41t36 66.5
t25 77.5t19 89.5l58 328q51 287 -119 287q-92 0 -146.5 -81t-80.5 -231l-52 -284q-27 -156 11 -233t127 -77z" />
    <glyph glyph-name="c" unicode="c" horiz-adv-x="667" 
d="M268 -25q-44 0 -81.5 10.5t-71 34t-52 62.5t-25 96t8.5 133l70 400q30 168 100 253t195 85q274 0 219 -308l-10 -65l-99 -8l13 71q13 59 7.5 100t-15 66t-31.5 39t-41.5 18.5t-44.5 4.5q-86 0 -129.5 -63.5t-67.5 -190.5l-70 -402q-11 -78 -6 -127t28.5 -77.5t48.5 -39
t54 -10.5q45 0 77.5 16t53 49t33 69t23.5 92l18 90l92 -15l-18 -88q-25 -139 -90.5 -217t-188.5 -78z" />
    <glyph glyph-name="d" unicode="d" horiz-adv-x="737" 
d="M233 -25q-36 0 -67 11t-59.5 37.5t-43.5 70.5t-19.5 110t13.5 156l56 314q12 63 25.5 112.5t37 101t53.5 85t74.5 55t99.5 21.5q169 0 179 -195l110 631h96l-262 -1485h-90l33 176q-41 -96 -96 -148.5t-140 -52.5zM272 59q86 0 143.5 84t84.5 236l49 270q25 149 -7 232.5
t-124 83.5q-42 0 -75 -18t-54 -44t-37.5 -68t-25 -77t-17.5 -84l-57 -322q-15 -76 -10 -128.5t15.5 -85t32.5 -50t41 -23.5t41 -6z" />
    <glyph glyph-name="e" unicode="e" horiz-adv-x="669" 
d="M414 1049q131 0 185.5 -86t25.5 -246t-35 -199h-414l-33 -184q-25 -144 7.5 -209.5t117.5 -65.5q72 0 117 47.5t66 159.5l16 80l88 -14l-12 -74q-53 -283 -277 -283q-128 0 -188.5 91t-26.5 278l70 387q28 157 95.5 237.5t197.5 80.5zM532 735q39 238 -124 238
q-49 0 -83.5 -18t-56 -54.5t-33 -73.5t-22.5 -94l-25 -145h318q4 24 13 73t13 74z" />
    <glyph glyph-name="f" unicode="f" horiz-adv-x="471" 
d="M360 1024h172l-14 -76h-172l-166 -948h-96l168 948h-137l14 76h135l47 258q36 215 219 215q48 0 84 -12l-14 -82q-30 10 -68 10q-60 0 -88 -35.5t-38 -101.5z" />
    <glyph glyph-name="g" unicode="g" horiz-adv-x="661" 
d="M700 1161q31 0 50 -8l-17 -88q-28 8 -51 8q-48 0 -75 -21.5t-44 -60.5q70 -74 43 -231l-24 -135q-8 -48 -19.5 -86.5t-33 -77.5t-49.5 -65.5t-72 -43t-99 -16.5q-51 0 -92 14q-41 -16 -60.5 -48t-19.5 -62q0 -37 23.5 -55.5t68.5 -30.5l117 -35q56 -16 92.5 -43.5
t52 -60.5t20 -74t-4.5 -84l-6 -47q-18 -107 -96.5 -170.5t-215.5 -63.5q-145 0 -214 70.5t-46 193.5l9 35q17 86 63 136.5t125 74.5q-78 40 -78 123q0 49 31 92.5t98 67.5q-106 68 -72 256l25 135q11 60 27.5 106.5t46 90.5t80 68t118.5 24q81 0 131 -33q46 145 168 145z
M489 616l27 156q21 111 -17 156t-104 45q-44 0 -77 -18t-51.5 -51t-28.5 -63t-17 -71l-26 -158q-20 -110 16.5 -155t103.5 -45q44 0 77 18t51.5 51t28.5 63.5t17 71.5zM293 33l-113 33q-1 0 -3.5 1t-4.5 1q-60 -22 -92 -67.5t-47 -131.5l-6 -31q-14 -87 27.5 -134.5
t140.5 -47.5q186 0 211 166l6 33q10 68 -14.5 113t-104.5 65z" />
    <glyph glyph-name="h" unicode="h" horiz-adv-x="741" 
d="M125 0h-94l262 1485h94l-115 -649q34 101 90 157t148 56q75 0 125.5 -43.5t50.5 -141.5q0 -54 -14 -131l-131 -733h-95l129 733q13 80 13 105q0 70 -33.5 99.5t-83.5 29.5q-51 0 -90 -25t-66.5 -73t-46 -107.5t-32.5 -138.5z" />
    <glyph glyph-name="i" unicode="i" horiz-adv-x="337" 
d="M332 1194h-105l39 225h105zM127 0h-96l180 1024h96z" />
    <glyph glyph-name="j" unicode="j" horiz-adv-x="335" 
d="M332 1194h-105l39 225h105zM-98 -414q-43 0 -82 13l14 86q27 -9 57 -9q47 0 69 24.5t30 72.5l221 1251h94l-223 -1270q-13 -78 -57.5 -123t-122.5 -45z" />
    <glyph glyph-name="k" unicode="k" horiz-adv-x="694" 
d="M639 1024h109l-312 -377l142 -647h-97l-116 569l-179 -219l-61 -350h-94l262 1485h94l-176 -998z" />
    <glyph glyph-name="l" unicode="l" horiz-adv-x="335" 
d="M293 1485h94l-262 -1485h-94z" />
    <glyph glyph-name="m" unicode="m" horiz-adv-x="1089" 
d="M127 0h-96l180 1024h90l-29 -168q17 43 31.5 71.5t39 59.5t60 46.5t80.5 15.5q155 0 160 -191q34 89 82 140t133 51q32 0 59 -8.5t54 -29t43 -64t16 -105.5q0 -52 -12 -119l-129 -723h-96l129 729q8 49 8 96q0 142 -107 142q-47 0 -82 -26t-57.5 -75.5t-35.5 -96.5
t-25 -114l-115 -655h-96l129 727q10 46 10 98q0 142 -105 142q-44 0 -78 -25t-58.5 -74.5t-41.5 -109t-32 -142.5z" />
    <glyph glyph-name="n" unicode="n" horiz-adv-x="739" 
d="M127 0h-94l178 1024h90l-35 -190q38 105 93.5 160t144.5 55q35 0 64.5 -9t56.5 -30t43 -62t16 -98q0 -32 -10 -94l-133 -756h-95l134 766q6 40 6 65q0 136 -117 136q-51 0 -91.5 -27.5t-67 -79t-43.5 -107.5t-31 -130z" />
    <glyph glyph-name="o" unicode="o" horiz-adv-x="690" 
d="M268 -25q-47 0 -85 10.5t-71 34.5t-50.5 63.5t-24 97.5t9.5 136l70 390q13 80 33 137t54 106t88.5 74t129.5 25q46 0 84 -10.5t71 -34.5t51 -63.5t24.5 -97.5t-9.5 -136l-70 -390q-14 -80 -33.5 -136.5t-53.5 -106t-88.5 -74.5t-129.5 -25zM272 59q41 0 74 15t53.5 37
t36.5 57.5t24.5 67.5t16.5 75l72 402q44 252 -131 252q-41 0 -74 -15t-53.5 -37t-36.5 -57.5t-24.5 -67.5t-16.5 -75l-72 -402q-44 -252 131 -252z" />
    <glyph glyph-name="p" unicode="p" horiz-adv-x="739" 
d="M55 -399h-94l252 1423h88l-31 -170q39 97 92 146t138 49q22 0 42 -3.5t44 -13.5t42.5 -27t34.5 -46.5t23.5 -68.5t6.5 -96.5t-13 -127.5l-51 -306q-14 -80 -32.5 -140.5t-50.5 -120t-83 -92t-119 -32.5q-83 0 -131 51t-57 142zM322 59q40 0 72 16t52.5 40t36.5 65
t25.5 78.5t19.5 91.5l58 328q52 287 -121 287q-172 0 -225 -312l-52 -284q-27 -155 10.5 -232.5t123.5 -77.5z" />
    <glyph glyph-name="q" unicode="q" horiz-adv-x="739" 
d="M457 -399h-95l101 573q-40 -97 -93.5 -148t-136.5 -51q-36 0 -67 11t-59.5 37.5t-43.5 70.5t-19.5 110t13.5 156l56 314q12 63 25.5 112.5t37 101t53.5 85t74.5 55t99.5 21.5q176 0 189 -209l45 184h72zM272 59q86 0 143.5 84t84.5 236l49 270q25 149 -7 232.5t-124 83.5
q-42 0 -75 -18t-54 -44t-37.5 -68t-25 -77t-17.5 -84l-57 -322q-15 -76 -10 -128.5t15.5 -85t32.5 -50t41 -23.5t41 -6z" />
    <glyph glyph-name="r" unicode="r" horiz-adv-x="466" 
d="M301 1024l-41 -240q42 133 100.5 199t141.5 66q15 0 35 -5l-19 -104q-12 4 -37 4q-50 0 -83.5 -20.5t-63.5 -63.5q-38 -56 -66 -135t-41 -156l-100 -569h-96l180 1024h90z" />
    <glyph glyph-name="s" unicode="s" horiz-adv-x="620" 
d="M246 -25q-126 0 -191 70t-37 213l13 66l98 16l-12 -78q-21 -109 18 -160t119 -51q58 0 97 34t55 118l10 53q7 42 8.5 77t-22 69t-76.5 63l-95 53q-142 77 -104 266l10 50q43 215 246 215q54 0 96 -13.5t73.5 -42t43 -80t0.5 -122.5l-12 -76l-99 -15l13 93
q26 180 -119 180q-60 0 -97 -33t-51 -109l-10 -51q-14 -67 3 -113.5t75 -82.5l100 -58q65 -36 95 -78t30 -88.5t-12 -105.5l-10 -53q-22 -109 -80.5 -167.5t-175.5 -58.5z" />
    <glyph glyph-name="t" unicode="t" horiz-adv-x="456" 
d="M219 948h-121l15 76h118l45 248l101 35l-49 -283h174l-13 -76h-174l-127 -710q-17 -90 8 -128t93 -38q35 0 51 4l-16 -88q-27 -6 -72 -6q-205 0 -160 254z" />
    <glyph glyph-name="u" unicode="u" horiz-adv-x="739" 
d="M236 -25q-181 0 -181 199q0 26 11 94l133 756h96l-135 -764q-6 -40 -6 -67q0 -134 114 -134q49 0 88.5 24.5t67.5 71.5t47 106.5t33 137.5l110 625h95l-181 -1024h-90l35 190q-39 -106 -93 -160.5t-144 -54.5z" />
    <glyph glyph-name="v" unicode="v" horiz-adv-x="618" 
d="M272 0h-104l-51 1024h98l21 -762q3 -83 -3 -145h7q22 71 49 145l291 762h100z" />
    <glyph glyph-name="w" unicode="w" horiz-adv-x="964" 
d="M240 0h-107l2 1024h94l-20 -809q0 -5 -2 -44t-4 -60h4q2 8 33 104l276 809h109l-9 -809q0 -69 -2 -104h4q5 30 29 104l264 809h99l-359 -1024h-104l4 823q0 35 8 105h-4q-19 -66 -33 -105z" />
    <glyph glyph-name="x" unicode="x" horiz-adv-x="604" 
d="M49 0h-110l315 539l-113 485h101l61 -330q8 -43 14 -90h5q5 15 13 30t18.5 33.5t15.5 28.5l170 328h102l-279 -492l123 -532h-98l-72 367q-12 58 -14 92h-4q-5 -13 -47 -94z" />
    <glyph glyph-name="y" unicode="y" horiz-adv-x="634" 
d="M-41 -410q-35 0 -68 11l15 90q20 -10 61 -10q54 0 90 33t68 116l61 160l-69 1034h100l33 -788q4 -101 0 -132h4q2 10 41 117l301 803h102l-489 -1217q-51 -127 -108.5 -172t-141.5 -45z" />
    <glyph glyph-name="z" unicode="z" horiz-adv-x="571" 
d="M-41 0l14 78l523 864h-353l15 82h448l-14 -76l-520 -864h385l-15 -84h-483z" />
    <glyph glyph-name="ordfeminine" unicode="&#xaa;" horiz-adv-x="677" 
d="M184 -25q-97 0 -143 61t-27 187l9 53q21 145 106 224q74 63 215 78l148 18l26 166q19 112 -11.5 159.5t-103.5 47.5q-76 0 -115.5 -40.5t-54.5 -137.5l-16 -97h-96l16 97q22 140 89 199t182 59q36 0 65.5 -5.5t58 -18.5t46 -35t31 -55t13 -79t-9.5 -106l-84 -467
q-29 -172 -32 -283h-93q2 24 5 53.5t8 69.5t8 65q-62 -213 -240 -213zM223 55q166 0 219 281l35 192l-119 -14q-63 -7 -106.5 -26t-69.5 -51.5t-39.5 -68.5t-21.5 -87l-8 -56q-26 -170 110 -170z" />
    <glyph glyph-name="ordmasculine" unicode="&#xba;" horiz-adv-x="690" 
d="M268 -25q-47 0 -85 10.5t-71 34.5t-50.5 63.5t-24 97.5t9.5 136l70 390q13 80 33 137t54 106t88.5 74t129.5 25q46 0 84 -10.5t71 -34.5t51 -63.5t24.5 -97.5t-9.5 -136l-70 -390q-14 -80 -33.5 -136.5t-53.5 -106t-88.5 -74.5t-129.5 -25zM272 59q41 0 74 15t53.5 37
t36.5 57.5t24.5 67.5t16.5 75l72 402q44 252 -131 252q-41 0 -74 -15t-53.5 -37t-36.5 -57.5t-24.5 -67.5t-16.5 -75l-72 -402q-44 -252 131 -252z" />
    <glyph glyph-name="Agrave" unicode="&#xc0;" horiz-adv-x="798" 
d="M668 0h-101l-8 430h-340l-160 -430h-108l555 1454h119zM467 1102l-217 -588h307l-10 588q-3 136 4 233h-8q-35 -124 -76 -233z" />
    <glyph glyph-name="Aacute" unicode="&#xc1;" horiz-adv-x="798" 
d="M668 0h-101l-8 430h-340l-160 -430h-108l555 1454h119zM467 1102l-217 -588h307l-10 588q-3 136 4 233h-8q-35 -124 -76 -233z" />
    <glyph glyph-name="Acircumflex" unicode="&#xc2;" horiz-adv-x="798" 
d="M668 0h-101l-8 430h-340l-160 -430h-108l555 1454h119zM467 1102l-217 -588h307l-10 588q-3 136 4 233h-8q-35 -124 -76 -233z" />
    <glyph glyph-name="Atilde" unicode="&#xc3;" horiz-adv-x="798" 
d="M668 0h-101l-8 430h-340l-160 -430h-108l555 1454h119zM467 1102l-217 -588h307l-10 588q-3 136 4 233h-8q-35 -124 -76 -233z" />
    <glyph glyph-name="Adieresis" unicode="&#xc4;" horiz-adv-x="798" 
d="M668 0h-101l-8 430h-340l-160 -430h-108l555 1454h119zM467 1102l-217 -588h307l-10 588q-3 136 4 233h-8q-35 -124 -76 -233z" />
    <glyph glyph-name="Aring" unicode="&#xc5;" horiz-adv-x="798" 
d="M668 0h-101l-8 430h-340l-160 -430h-108l555 1454h119zM467 1102l-217 -588h307l-10 588q-3 136 4 233h-8q-35 -124 -76 -233z" />
    <glyph glyph-name="AE" unicode="&#xc6;" horiz-adv-x="1499" 
d="M-49 0l555 1454h119l43 -1454h-101l-8 430h-340l-160 -430h-108zM1604 1454l-15 -88h-405l-101 -571h371l-16 -88h-371l-109 -619h418l-14 -88h-518l256 1454h504zM467 1102l-217 -588h307l-10 588q-3 136 4 233h-8q-35 -124 -76 -233z" />
    <glyph glyph-name="Ccedilla" unicode="&#xc7;" horiz-adv-x="839" 
d="M358 -35q-58 0 -105.5 12.5t-90 42.5t-65.5 80t-32 124.5t11 176.5l121 689q16 92 42.5 160.5t69.5 124.5t109 85t153 29q76 0 133 -19t99 -64t52.5 -118.5t-5.5 -181.5l-21 -119l-106 -18l25 141q49 293 -175 293q-121 0 -183.5 -83t-88.5 -233l-123 -700
q-16 -79 -11 -136.5t19.5 -96t43 -61.5t60 -32.5t70.5 -9.5q109 0 166.5 70t83.5 213l31 174l100 -21l-28 -161q-31 -177 -113 -269t-242 -92z" />
    <glyph glyph-name="Egrave" unicode="&#xc8;" horiz-adv-x="700" 
d="M805 1454l-14 -88h-406l-100 -571h370l-16 -88h-371l-108 -619h418l-15 -88h-518l256 1454h504z" />
    <glyph glyph-name="Eacute" unicode="&#xc9;" horiz-adv-x="700" 
d="M805 1454l-14 -88h-406l-100 -571h370l-16 -88h-371l-108 -619h418l-15 -88h-518l256 1454h504z" />
    <glyph glyph-name="Ecircumflex" unicode="&#xca;" horiz-adv-x="700" 
d="M805 1454l-14 -88h-406l-100 -571h370l-16 -88h-371l-108 -619h418l-15 -88h-518l256 1454h504z" />
    <glyph glyph-name="Edieresis" unicode="&#xcb;" horiz-adv-x="700" 
d="M805 1454l-14 -88h-406l-100 -571h370l-16 -88h-371l-108 -619h418l-15 -88h-518l256 1454h504z" />
    <glyph glyph-name="Igrave" unicode="&#xcc;" horiz-adv-x="370" 
d="M401 1454l-256 -1454h-100l256 1454h100z" />
    <glyph glyph-name="Iacute" unicode="&#xcd;" horiz-adv-x="370" 
d="M401 1454l-256 -1454h-100l256 1454h100z" />
    <glyph glyph-name="Icircumflex" unicode="&#xce;" horiz-adv-x="370" 
d="M401 1454l-256 -1454h-100l256 1454h100z" />
    <glyph glyph-name="Idieresis" unicode="&#xcf;" horiz-adv-x="370" 
d="M401 1454l-256 -1454h-100l256 1454h100z" />
    <glyph glyph-name="Eth" unicode="&#xd0;" horiz-adv-x="876" 
d="M315 0h-270l256 1454h229q101 0 171.5 -29.5t114.5 -95t51.5 -170.5t-17.5 -256l-70 -395q-35 -198 -94 -309t-146 -155t-225 -44zM387 1372l-227 -1288h162q107 0 172.5 37t108.5 127t73 256l72 399q43 249 -17 359t-219 110h-125z" />
    <glyph glyph-name="Ntilde" unicode="&#xd1;" horiz-adv-x="925" 
d="M141 0h-96l256 1454h115l198 -1081q23 -138 25 -223h4q11 130 43 315l174 989h96l-256 -1454h-108l-199 1096q-23 118 -28 221h-5q-16 -173 -36 -279z" />
    <glyph glyph-name="Ograve" unicode="&#xd2;" 
d="M369 -35q-166 0 -248.5 103t-46.5 319l123 703q17 95 43 163.5t69.5 124t110.5 83.5t158 28q80 0 140.5 -23.5t103 -74t54.5 -130.5t-6 -194l-122 -702q-16 -95 -42 -164t-69.5 -124.5t-110 -83.5t-157.5 -28zM377 51q54 0 95.5 17t69 43.5t48 69t32 84t21.5 97.5
l127 719q30 167 -28.5 244.5t-172.5 77.5q-54 0 -95.5 -17t-69 -43.5t-48 -69t-32 -84t-21.5 -97.5l-129 -719q-29 -167 29.5 -244.5t173.5 -77.5z" />
    <glyph glyph-name="Oacute" unicode="&#xd3;" 
d="M369 -35q-166 0 -248.5 103t-46.5 319l123 703q17 95 43 163.5t69.5 124t110.5 83.5t158 28q80 0 140.5 -23.5t103 -74t54.5 -130.5t-6 -194l-122 -702q-16 -95 -42 -164t-69.5 -124.5t-110 -83.5t-157.5 -28zM377 51q54 0 95.5 17t69 43.5t48 69t32 84t21.5 97.5
l127 719q30 167 -28.5 244.5t-172.5 77.5q-54 0 -95.5 -17t-69 -43.5t-48 -69t-32 -84t-21.5 -97.5l-129 -719q-29 -167 29.5 -244.5t173.5 -77.5z" />
    <glyph glyph-name="Ocircumflex" unicode="&#xd4;" 
d="M369 -35q-166 0 -248.5 103t-46.5 319l123 703q17 95 43 163.5t69.5 124t110.5 83.5t158 28q80 0 140.5 -23.5t103 -74t54.5 -130.5t-6 -194l-122 -702q-16 -95 -42 -164t-69.5 -124.5t-110 -83.5t-157.5 -28zM377 51q54 0 95.5 17t69 43.5t48 69t32 84t21.5 97.5
l127 719q30 167 -28.5 244.5t-172.5 77.5q-54 0 -95.5 -17t-69 -43.5t-48 -69t-32 -84t-21.5 -97.5l-129 -719q-29 -167 29.5 -244.5t173.5 -77.5z" />
    <glyph glyph-name="Otilde" unicode="&#xd5;" 
d="M369 -35q-166 0 -248.5 103t-46.5 319l123 703q17 95 43 163.5t69.5 124t110.5 83.5t158 28q80 0 140.5 -23.5t103 -74t54.5 -130.5t-6 -194l-122 -702q-16 -95 -42 -164t-69.5 -124.5t-110 -83.5t-157.5 -28zM377 51q54 0 95.5 17t69 43.5t48 69t32 84t21.5 97.5
l127 719q30 167 -28.5 244.5t-172.5 77.5q-54 0 -95.5 -17t-69 -43.5t-48 -69t-32 -84t-21.5 -97.5l-129 -719q-29 -167 29.5 -244.5t173.5 -77.5z" />
    <glyph glyph-name="Odieresis" unicode="&#xd6;" 
d="M369 -35q-166 0 -248.5 103t-46.5 319l123 703q17 95 43 163.5t69.5 124t110.5 83.5t158 28q80 0 140.5 -23.5t103 -74t54.5 -130.5t-6 -194l-122 -702q-16 -95 -42 -164t-69.5 -124.5t-110 -83.5t-157.5 -28zM377 51q54 0 95.5 17t69 43.5t48 69t32 84t21.5 97.5
l127 719q30 167 -28.5 244.5t-172.5 77.5q-54 0 -95.5 -17t-69 -43.5t-48 -69t-32 -84t-21.5 -97.5l-129 -719q-29 -167 29.5 -244.5t173.5 -77.5z" />
    <glyph glyph-name="Oslash" unicode="&#xd8;" 
d="M369 -35q-166 0 -248.5 103t-46.5 319l123 703q17 95 43 163.5t69.5 124t110.5 83.5t158 28q80 0 140.5 -23.5t103 -74t54.5 -130.5t-6 -194l-122 -702q-16 -95 -42 -164t-69.5 -124.5t-110 -83.5t-157.5 -28zM377 51q54 0 95.5 17t69 43.5t48 69t32 84t21.5 97.5
l127 719q30 167 -28.5 244.5t-172.5 77.5q-54 0 -95.5 -17t-69 -43.5t-48 -69t-32 -84t-21.5 -97.5l-129 -719q-29 -167 29.5 -244.5t173.5 -77.5z" />
    <glyph glyph-name="Ugrave" unicode="&#xd9;" 
d="M92 322l197 1132h100l-203 -1149q-21 -121 30.5 -186.5t158.5 -65.5q60 0 104 22t69.5 62t39 78.5t22.5 87.5l203 1151h98l-202 -1157q-60 -332 -344 -332q-152 0 -228.5 90t-44.5 267z" />
    <glyph glyph-name="Uacute" unicode="&#xda;" 
d="M92 322l197 1132h100l-203 -1149q-21 -121 30.5 -186.5t158.5 -65.5q60 0 104 22t69.5 62t39 78.5t22.5 87.5l203 1151h98l-202 -1157q-60 -332 -344 -332q-152 0 -228.5 90t-44.5 267z" />
    <glyph glyph-name="Ucircumflex" unicode="&#xdb;" 
d="M92 322l197 1132h100l-203 -1149q-21 -121 30.5 -186.5t158.5 -65.5q60 0 104 22t69.5 62t39 78.5t22.5 87.5l203 1151h98l-202 -1157q-60 -332 -344 -332q-152 0 -228.5 90t-44.5 267z" />
    <glyph glyph-name="Udieresis" unicode="&#xdc;" 
d="M92 322l197 1132h100l-203 -1149q-21 -121 30.5 -186.5t158.5 -65.5q60 0 104 22t69.5 62t39 78.5t22.5 87.5l203 1151h98l-202 -1157q-60 -332 -344 -332q-152 0 -228.5 90t-44.5 267z" />
    <glyph glyph-name="Yacute" unicode="&#xdd;" horiz-adv-x="731" 
d="M326 0h-99l113 639l-160 815h107l100 -592q12 -86 12 -121h4q23 61 58 121l309 592h113l-443 -815z" />
    <glyph glyph-name="Thorn" unicode="&#xde;" horiz-adv-x="745" 
d="M301 1454h225q70 0 125.5 -18t98 -56.5t59 -107.5t2.5 -162l-18 -123q-13 -83 -37.5 -143t-67.5 -107.5t-111 -71.5t-161 -24h-158l-113 -641h-100zM690 995l19 107q24 146 -29 208t-174 62h-119l-115 -649h152q129 0 186.5 68t79.5 204z" />
    <glyph glyph-name="agrave" unicode="&#xe0;" horiz-adv-x="677" 
d="M184 -25q-97 0 -143 61t-27 187l9 53q21 145 106 224q74 63 215 78l148 18l26 166q19 112 -11.5 159.5t-103.5 47.5q-76 0 -115.5 -40.5t-54.5 -137.5l-16 -97h-96l16 97q22 140 89 199t182 59q36 0 65.5 -5.5t58 -18.5t46 -35t31 -55t13 -79t-9.5 -106l-84 -467
q-29 -172 -32 -283h-93q2 24 5 53.5t8 69.5t8 65q-62 -213 -240 -213zM223 55q166 0 219 281l35 192l-119 -14q-63 -7 -106.5 -26t-69.5 -51.5t-39.5 -68.5t-21.5 -87l-8 -56q-26 -170 110 -170z" />
    <glyph glyph-name="aacute" unicode="&#xe1;" horiz-adv-x="677" 
d="M184 -25q-97 0 -143 61t-27 187l9 53q21 145 106 224q74 63 215 78l148 18l26 166q19 112 -11.5 159.5t-103.5 47.5q-76 0 -115.5 -40.5t-54.5 -137.5l-16 -97h-96l16 97q22 140 89 199t182 59q36 0 65.5 -5.5t58 -18.5t46 -35t31 -55t13 -79t-9.5 -106l-84 -467
q-29 -172 -32 -283h-93q2 24 5 53.5t8 69.5t8 65q-62 -213 -240 -213zM223 55q166 0 219 281l35 192l-119 -14q-63 -7 -106.5 -26t-69.5 -51.5t-39.5 -68.5t-21.5 -87l-8 -56q-26 -170 110 -170z" />
    <glyph glyph-name="acircumflex" unicode="&#xe2;" horiz-adv-x="677" 
d="M184 -25q-97 0 -143 61t-27 187l9 53q21 145 106 224q74 63 215 78l148 18l26 166q19 112 -11.5 159.5t-103.5 47.5q-76 0 -115.5 -40.5t-54.5 -137.5l-16 -97h-96l16 97q22 140 89 199t182 59q36 0 65.5 -5.5t58 -18.5t46 -35t31 -55t13 -79t-9.5 -106l-84 -467
q-29 -172 -32 -283h-93q2 24 5 53.5t8 69.5t8 65q-62 -213 -240 -213zM223 55q166 0 219 281l35 192l-119 -14q-63 -7 -106.5 -26t-69.5 -51.5t-39.5 -68.5t-21.5 -87l-8 -56q-26 -170 110 -170z" />
    <glyph glyph-name="atilde" unicode="&#xe3;" horiz-adv-x="677" 
d="M184 -25q-97 0 -143 61t-27 187l9 53q21 145 106 224q74 63 215 78l148 18l26 166q19 112 -11.5 159.5t-103.5 47.5q-76 0 -115.5 -40.5t-54.5 -137.5l-16 -97h-96l16 97q22 140 89 199t182 59q36 0 65.5 -5.5t58 -18.5t46 -35t31 -55t13 -79t-9.5 -106l-84 -467
q-29 -172 -32 -283h-93q2 24 5 53.5t8 69.5t8 65q-62 -213 -240 -213zM223 55q166 0 219 281l35 192l-119 -14q-63 -7 -106.5 -26t-69.5 -51.5t-39.5 -68.5t-21.5 -87l-8 -56q-26 -170 110 -170z" />
    <glyph glyph-name="adieresis" unicode="&#xe4;" horiz-adv-x="677" 
d="M184 -25q-97 0 -143 61t-27 187l9 53q21 145 106 224q74 63 215 78l148 18l26 166q19 112 -11.5 159.5t-103.5 47.5q-76 0 -115.5 -40.5t-54.5 -137.5l-16 -97h-96l16 97q22 140 89 199t182 59q36 0 65.5 -5.5t58 -18.5t46 -35t31 -55t13 -79t-9.5 -106l-84 -467
q-29 -172 -32 -283h-93q2 24 5 53.5t8 69.5t8 65q-62 -213 -240 -213zM223 55q166 0 219 281l35 192l-119 -14q-63 -7 -106.5 -26t-69.5 -51.5t-39.5 -68.5t-21.5 -87l-8 -56q-26 -170 110 -170z" />
    <glyph glyph-name="aring" unicode="&#xe5;" horiz-adv-x="677" 
d="M184 -25q-97 0 -143 61t-27 187l9 53q21 145 106 224q74 63 215 78l148 18l26 166q19 112 -11.5 159.5t-103.5 47.5q-76 0 -115.5 -40.5t-54.5 -137.5l-16 -97h-96l16 97q22 140 89 199t182 59q36 0 65.5 -5.5t58 -18.5t46 -35t31 -55t13 -79t-9.5 -106l-84 -467
q-29 -172 -32 -283h-93q2 24 5 53.5t8 69.5t8 65q-62 -213 -240 -213zM223 55q166 0 219 281l35 192l-119 -14q-63 -7 -106.5 -26t-69.5 -51.5t-39.5 -68.5t-21.5 -87l-8 -56q-26 -170 110 -170z" />
    <glyph glyph-name="ae" unicode="&#xe6;" horiz-adv-x="1347" 
d="M184 -25q-97 0 -143 61t-27 187l9 53q21 145 106 224q74 63 215 78l148 18l26 166q19 112 -11.5 159.5t-103.5 47.5q-76 0 -115.5 -40.5t-54.5 -137.5l-16 -97h-96l16 97q22 140 89 199t182 59q36 0 65.5 -5.5t58 -18.5t46 -35t31 -55t13 -79t-9.5 -106l-84 -467
q-29 -172 -32 -283h-93q2 24 5 53.5t8 69.5t8 65q-62 -213 -240 -213zM1092 1049q131 0 185.5 -86t25.5 -246t-35 -199h-414l-33 -184q-25 -144 7.5 -209.5t117.5 -65.5q72 0 116.5 47.5t65.5 159.5l17 80l88 -14l-12 -74q-53 -283 -277 -283q-128 0 -188.5 91t-26.5 278
l70 387q28 157 95.5 237.5t197.5 80.5zM1210 735q39 238 -125 238q-49 0 -83.5 -18t-55.5 -54.5t-32.5 -73.5t-22.5 -94l-25 -145h318q4 24 13 73t13 74zM223 55q166 0 219 281l35 192l-119 -14q-63 -7 -106.5 -26t-69.5 -51.5t-39.5 -68.5t-21.5 -87l-8 -56
q-26 -170 110 -170z" />
    <glyph glyph-name="ccedilla" unicode="&#xe7;" horiz-adv-x="667" 
d="M268 -25q-44 0 -81.5 10.5t-71 34t-52 62.5t-25 96t8.5 133l70 400q30 168 100 253t195 85q274 0 219 -308l-10 -65l-99 -8l13 71q13 59 7.5 100t-15 66t-31.5 39t-41.5 18.5t-44.5 4.5q-86 0 -129.5 -63.5t-67.5 -190.5l-70 -402q-11 -78 -6 -127t28.5 -77.5t48.5 -39
t54 -10.5q45 0 77.5 16t53 49t33 69t23.5 92l18 90l92 -15l-18 -88q-25 -139 -90.5 -217t-188.5 -78z" />
    <glyph glyph-name="egrave" unicode="&#xe8;" horiz-adv-x="669" 
d="M414 1049q131 0 185.5 -86t25.5 -246t-35 -199h-414l-33 -184q-25 -144 7.5 -209.5t117.5 -65.5q72 0 117 47.5t66 159.5l16 80l88 -14l-12 -74q-53 -283 -277 -283q-128 0 -188.5 91t-26.5 278l70 387q28 157 95.5 237.5t197.5 80.5zM532 735q39 238 -124 238
q-49 0 -83.5 -18t-56 -54.5t-33 -73.5t-22.5 -94l-25 -145h318q4 24 13 73t13 74z" />
    <glyph glyph-name="eacute" unicode="&#xe9;" horiz-adv-x="669" 
d="M414 1049q131 0 185.5 -86t25.5 -246t-35 -199h-414l-33 -184q-25 -144 7.5 -209.5t117.5 -65.5q72 0 117 47.5t66 159.5l16 80l88 -14l-12 -74q-53 -283 -277 -283q-128 0 -188.5 91t-26.5 278l70 387q28 157 95.5 237.5t197.5 80.5zM532 735q39 238 -124 238
q-49 0 -83.5 -18t-56 -54.5t-33 -73.5t-22.5 -94l-25 -145h318q4 24 13 73t13 74z" />
    <glyph glyph-name="ecircumflex" unicode="&#xea;" horiz-adv-x="669" 
d="M414 1049q131 0 185.5 -86t25.5 -246t-35 -199h-414l-33 -184q-25 -144 7.5 -209.5t117.5 -65.5q72 0 117 47.5t66 159.5l16 80l88 -14l-12 -74q-53 -283 -277 -283q-128 0 -188.5 91t-26.5 278l70 387q28 157 95.5 237.5t197.5 80.5zM532 735q39 238 -124 238
q-49 0 -83.5 -18t-56 -54.5t-33 -73.5t-22.5 -94l-25 -145h318q4 24 13 73t13 74z" />
    <glyph glyph-name="edieresis" unicode="&#xeb;" horiz-adv-x="669" 
d="M414 1049q131 0 185.5 -86t25.5 -246t-35 -199h-414l-33 -184q-25 -144 7.5 -209.5t117.5 -65.5q72 0 117 47.5t66 159.5l16 80l88 -14l-12 -74q-53 -283 -277 -283q-128 0 -188.5 91t-26.5 278l70 387q28 157 95.5 237.5t197.5 80.5zM532 735q39 238 -124 238
q-49 0 -83.5 -18t-56 -54.5t-33 -73.5t-22.5 -94l-25 -145h318q4 24 13 73t13 74z" />
    <glyph glyph-name="igrave" unicode="&#xec;" horiz-adv-x="337" 
d="M332 1194h-105l39 225h105zM127 0h-96l180 1024h96z" />
    <glyph glyph-name="iacute" unicode="&#xed;" horiz-adv-x="337" 
d="M332 1194h-105l39 225h105zM127 0h-96l180 1024h96z" />
    <glyph glyph-name="icircumflex" unicode="&#xee;" horiz-adv-x="337" 
d="M332 1194h-105l39 225h105zM127 0h-96l180 1024h96z" />
    <glyph glyph-name="idieresis" unicode="&#xef;" horiz-adv-x="337" 
d="M332 1194h-105l39 225h105zM127 0h-96l180 1024h96z" />
    <glyph glyph-name="ntilde" unicode="&#xf1;" horiz-adv-x="739" 
d="M127 0h-94l178 1024h90l-35 -190q38 105 93.5 160t144.5 55q35 0 64.5 -9t56.5 -30t43 -62t16 -98q0 -32 -10 -94l-133 -756h-95l134 766q6 40 6 65q0 136 -117 136q-51 0 -91.5 -27.5t-67 -79t-43.5 -107.5t-31 -130z" />
    <glyph glyph-name="ograve" unicode="&#xf2;" horiz-adv-x="690" 
d="M268 -25q-47 0 -85 10.5t-71 34.5t-50.5 63.5t-24 97.5t9.5 136l70 390q13 80 33 137t54 106t88.5 74t129.5 25q46 0 84 -10.5t71 -34.5t51 -63.5t24.5 -97.5t-9.5 -136l-70 -390q-14 -80 -33.5 -136.5t-53.5 -106t-88.5 -74.5t-129.5 -25zM272 59q41 0 74 15t53.5 37
t36.5 57.5t24.5 67.5t16.5 75l72 402q44 252 -131 252q-41 0 -74 -15t-53.5 -37t-36.5 -57.5t-24.5 -67.5t-16.5 -75l-72 -402q-44 -252 131 -252z" />
    <glyph glyph-name="oacute" unicode="&#xf3;" horiz-adv-x="690" 
d="M268 -25q-47 0 -85 10.5t-71 34.5t-50.5 63.5t-24 97.5t9.5 136l70 390q13 80 33 137t54 106t88.5 74t129.5 25q46 0 84 -10.5t71 -34.5t51 -63.5t24.5 -97.5t-9.5 -136l-70 -390q-14 -80 -33.5 -136.5t-53.5 -106t-88.5 -74.5t-129.5 -25zM272 59q41 0 74 15t53.5 37
t36.5 57.5t24.5 67.5t16.5 75l72 402q44 252 -131 252q-41 0 -74 -15t-53.5 -37t-36.5 -57.5t-24.5 -67.5t-16.5 -75l-72 -402q-44 -252 131 -252z" />
    <glyph glyph-name="ocircumflex" unicode="&#xf4;" horiz-adv-x="690" 
d="M268 -25q-47 0 -85 10.5t-71 34.5t-50.5 63.5t-24 97.5t9.5 136l70 390q13 80 33 137t54 106t88.5 74t129.5 25q46 0 84 -10.5t71 -34.5t51 -63.5t24.5 -97.5t-9.5 -136l-70 -390q-14 -80 -33.5 -136.5t-53.5 -106t-88.5 -74.5t-129.5 -25zM272 59q41 0 74 15t53.5 37
t36.5 57.5t24.5 67.5t16.5 75l72 402q44 252 -131 252q-41 0 -74 -15t-53.5 -37t-36.5 -57.5t-24.5 -67.5t-16.5 -75l-72 -402q-44 -252 131 -252z" />
    <glyph glyph-name="otilde" unicode="&#xf5;" horiz-adv-x="690" 
d="M268 -25q-47 0 -85 10.5t-71 34.5t-50.5 63.5t-24 97.5t9.5 136l70 390q13 80 33 137t54 106t88.5 74t129.5 25q46 0 84 -10.5t71 -34.5t51 -63.5t24.5 -97.5t-9.5 -136l-70 -390q-14 -80 -33.5 -136.5t-53.5 -106t-88.5 -74.5t-129.5 -25zM272 59q41 0 74 15t53.5 37
t36.5 57.5t24.5 67.5t16.5 75l72 402q44 252 -131 252q-41 0 -74 -15t-53.5 -37t-36.5 -57.5t-24.5 -67.5t-16.5 -75l-72 -402q-44 -252 131 -252z" />
    <glyph glyph-name="odieresis" unicode="&#xf6;" horiz-adv-x="690" 
d="M268 -25q-47 0 -85 10.5t-71 34.5t-50.5 63.5t-24 97.5t9.5 136l70 390q13 80 33 137t54 106t88.5 74t129.5 25q46 0 84 -10.5t71 -34.5t51 -63.5t24.5 -97.5t-9.5 -136l-70 -390q-14 -80 -33.5 -136.5t-53.5 -106t-88.5 -74.5t-129.5 -25zM272 59q41 0 74 15t53.5 37
t36.5 57.5t24.5 67.5t16.5 75l72 402q44 252 -131 252q-41 0 -74 -15t-53.5 -37t-36.5 -57.5t-24.5 -67.5t-16.5 -75l-72 -402q-44 -252 131 -252z" />
    <glyph glyph-name="oslash" unicode="&#xf8;" horiz-adv-x="690" 
d="M268 -25q-47 0 -85 10.5t-71 34.5t-50.5 63.5t-24 97.5t9.5 136l70 390q13 80 33 137t54 106t88.5 74t129.5 25q46 0 84 -10.5t71 -34.5t51 -63.5t24.5 -97.5t-9.5 -136l-70 -390q-14 -80 -33.5 -136.5t-53.5 -106t-88.5 -74.5t-129.5 -25zM272 59q41 0 74 15t53.5 37
t36.5 57.5t24.5 67.5t16.5 75l72 402q44 252 -131 252q-41 0 -74 -15t-53.5 -37t-36.5 -57.5t-24.5 -67.5t-16.5 -75l-72 -402q-44 -252 131 -252z" />
    <glyph glyph-name="ugrave" unicode="&#xf9;" horiz-adv-x="739" 
d="M236 -25q-181 0 -181 199q0 26 11 94l133 756h96l-135 -764q-6 -40 -6 -67q0 -134 114 -134q49 0 88.5 24.5t67.5 71.5t47 106.5t33 137.5l110 625h95l-181 -1024h-90l35 190q-39 -106 -93 -160.5t-144 -54.5z" />
    <glyph glyph-name="uacute" unicode="&#xfa;" horiz-adv-x="739" 
d="M236 -25q-181 0 -181 199q0 26 11 94l133 756h96l-135 -764q-6 -40 -6 -67q0 -134 114 -134q49 0 88.5 24.5t67.5 71.5t47 106.5t33 137.5l110 625h95l-181 -1024h-90l35 190q-39 -106 -93 -160.5t-144 -54.5z" />
    <glyph glyph-name="ucircumflex" unicode="&#xfb;" horiz-adv-x="739" 
d="M236 -25q-181 0 -181 199q0 26 11 94l133 756h96l-135 -764q-6 -40 -6 -67q0 -134 114 -134q49 0 88.5 24.5t67.5 71.5t47 106.5t33 137.5l110 625h95l-181 -1024h-90l35 190q-39 -106 -93 -160.5t-144 -54.5z" />
    <glyph glyph-name="udieresis" unicode="&#xfc;" horiz-adv-x="739" 
d="M236 -25q-181 0 -181 199q0 26 11 94l133 756h96l-135 -764q-6 -40 -6 -67q0 -134 114 -134q49 0 88.5 24.5t67.5 71.5t47 106.5t33 137.5l110 625h95l-181 -1024h-90l35 190q-39 -106 -93 -160.5t-144 -54.5z" />
    <glyph glyph-name="yacute" unicode="&#xfd;" horiz-adv-x="634" 
d="M-41 -410q-35 0 -68 11l15 90q20 -10 61 -10q54 0 90 33t68 116l61 160l-69 1034h100l33 -788q4 -101 0 -132h4q2 10 41 117l301 803h102l-489 -1217q-51 -127 -108.5 -172t-141.5 -45z" />
    <glyph glyph-name="thorn" unicode="&#xfe;" horiz-adv-x="739" 
d="M55 -399h-94l252 1423h88l-31 -170q39 97 92 146t138 49q22 0 42 -3.5t44 -13.5t42.5 -27t34.5 -46.5t23.5 -68.5t6.5 -96.5t-13 -127.5l-51 -306q-14 -80 -32.5 -140.5t-50.5 -120t-83 -92t-119 -32.5q-83 0 -131 51t-57 142zM322 59q40 0 72 16t52.5 40t36.5 65
t25.5 78.5t19.5 91.5l58 328q52 287 -121 287q-172 0 -225 -312l-52 -284q-27 -155 10.5 -232.5t123.5 -77.5z" />
    <glyph glyph-name="ydieresis" unicode="&#xff;" horiz-adv-x="634" 
d="M-41 -410q-35 0 -68 11l15 90q20 -10 61 -10q54 0 90 33t68 116l61 160l-69 1034h100l33 -788q4 -101 0 -132h4q2 10 41 117l301 803h102l-489 -1217q-51 -127 -108.5 -172t-141.5 -45z" />
    <glyph glyph-name="Amacron" unicode="&#x100;" horiz-adv-x="798" 
d="M668 0h-101l-8 430h-340l-160 -430h-108l555 1454h119zM467 1102l-217 -588h307l-10 588q-3 136 4 233h-8q-35 -124 -76 -233z" />
    <glyph glyph-name="amacron" unicode="&#x101;" horiz-adv-x="677" 
d="M184 -25q-97 0 -143 61t-27 187l9 53q21 145 106 224q74 63 215 78l148 18l26 166q19 112 -11.5 159.5t-103.5 47.5q-76 0 -115.5 -40.5t-54.5 -137.5l-16 -97h-96l16 97q22 140 89 199t182 59q36 0 65.5 -5.5t58 -18.5t46 -35t31 -55t13 -79t-9.5 -106l-84 -467
q-29 -172 -32 -283h-93q2 24 5 53.5t8 69.5t8 65q-62 -213 -240 -213zM223 55q166 0 219 281l35 192l-119 -14q-63 -7 -106.5 -26t-69.5 -51.5t-39.5 -68.5t-21.5 -87l-8 -56q-26 -170 110 -170z" />
    <glyph glyph-name="Abreve" unicode="&#x102;" horiz-adv-x="798" 
d="M668 0h-101l-8 430h-340l-160 -430h-108l555 1454h119zM467 1102l-217 -588h307l-10 588q-3 136 4 233h-8q-35 -124 -76 -233z" />
    <glyph glyph-name="abreve" unicode="&#x103;" horiz-adv-x="677" 
d="M184 -25q-97 0 -143 61t-27 187l9 53q21 145 106 224q74 63 215 78l148 18l26 166q19 112 -11.5 159.5t-103.5 47.5q-76 0 -115.5 -40.5t-54.5 -137.5l-16 -97h-96l16 97q22 140 89 199t182 59q36 0 65.5 -5.5t58 -18.5t46 -35t31 -55t13 -79t-9.5 -106l-84 -467
q-29 -172 -32 -283h-93q2 24 5 53.5t8 69.5t8 65q-62 -213 -240 -213zM223 55q166 0 219 281l35 192l-119 -14q-63 -7 -106.5 -26t-69.5 -51.5t-39.5 -68.5t-21.5 -87l-8 -56q-26 -170 110 -170z" />
    <glyph glyph-name="Aogonek" unicode="&#x104;" horiz-adv-x="798" 
d="M668 0h-101l-8 430h-340l-160 -430h-108l555 1454h119zM467 1102l-217 -588h307l-10 588q-3 136 4 233h-8q-35 -124 -76 -233z" />
    <glyph glyph-name="aogonek" unicode="&#x105;" horiz-adv-x="677" 
d="M184 -25q-97 0 -143 61t-27 187l9 53q21 145 106 224q74 63 215 78l148 18l26 166q19 112 -11.5 159.5t-103.5 47.5q-76 0 -115.5 -40.5t-54.5 -137.5l-16 -97h-96l16 97q22 140 89 199t182 59q36 0 65.5 -5.5t58 -18.5t46 -35t31 -55t13 -79t-9.5 -106l-84 -467
q-29 -172 -32 -283h-93q2 24 5 53.5t8 69.5t8 65q-62 -213 -240 -213zM223 55q166 0 219 281l35 192l-119 -14q-63 -7 -106.5 -26t-69.5 -51.5t-39.5 -68.5t-21.5 -87l-8 -56q-26 -170 110 -170z" />
    <glyph glyph-name="Cacute" unicode="&#x106;" horiz-adv-x="839" 
d="M358 -35q-58 0 -105.5 12.5t-90 42.5t-65.5 80t-32 124.5t11 176.5l121 689q16 92 42.5 160.5t69.5 124.5t109 85t153 29q76 0 133 -19t99 -64t52.5 -118.5t-5.5 -181.5l-21 -119l-106 -18l25 141q49 293 -175 293q-121 0 -183.5 -83t-88.5 -233l-123 -700
q-16 -79 -11 -136.5t19.5 -96t43 -61.5t60 -32.5t70.5 -9.5q109 0 166.5 70t83.5 213l31 174l100 -21l-28 -161q-31 -177 -113 -269t-242 -92z" />
    <glyph glyph-name="cacute" unicode="&#x107;" horiz-adv-x="667" 
d="M268 -25q-44 0 -81.5 10.5t-71 34t-52 62.5t-25 96t8.5 133l70 400q30 168 100 253t195 85q274 0 219 -308l-10 -65l-99 -8l13 71q13 59 7.5 100t-15 66t-31.5 39t-41.5 18.5t-44.5 4.5q-86 0 -129.5 -63.5t-67.5 -190.5l-70 -402q-11 -78 -6 -127t28.5 -77.5t48.5 -39
t54 -10.5q45 0 77.5 16t53 49t33 69t23.5 92l18 90l92 -15l-18 -88q-25 -139 -90.5 -217t-188.5 -78z" />
    <glyph glyph-name="Ccircumflex" unicode="&#x108;" horiz-adv-x="839" 
d="M358 -35q-58 0 -105.5 12.5t-90 42.5t-65.5 80t-32 124.5t11 176.5l121 689q16 92 42.5 160.5t69.5 124.5t109 85t153 29q76 0 133 -19t99 -64t52.5 -118.5t-5.5 -181.5l-21 -119l-106 -18l25 141q49 293 -175 293q-121 0 -183.5 -83t-88.5 -233l-123 -700
q-16 -79 -11 -136.5t19.5 -96t43 -61.5t60 -32.5t70.5 -9.5q109 0 166.5 70t83.5 213l31 174l100 -21l-28 -161q-31 -177 -113 -269t-242 -92z" />
    <glyph glyph-name="ccircumflex" unicode="&#x109;" horiz-adv-x="667" 
d="M268 -25q-44 0 -81.5 10.5t-71 34t-52 62.5t-25 96t8.5 133l70 400q30 168 100 253t195 85q274 0 219 -308l-10 -65l-99 -8l13 71q13 59 7.5 100t-15 66t-31.5 39t-41.5 18.5t-44.5 4.5q-86 0 -129.5 -63.5t-67.5 -190.5l-70 -402q-11 -78 -6 -127t28.5 -77.5t48.5 -39
t54 -10.5q45 0 77.5 16t53 49t33 69t23.5 92l18 90l92 -15l-18 -88q-25 -139 -90.5 -217t-188.5 -78z" />
    <glyph glyph-name="Cdotaccent" unicode="&#x10a;" horiz-adv-x="839" 
d="M358 -35q-58 0 -105.5 12.5t-90 42.5t-65.5 80t-32 124.5t11 176.5l121 689q16 92 42.5 160.5t69.5 124.5t109 85t153 29q76 0 133 -19t99 -64t52.5 -118.5t-5.5 -181.5l-21 -119l-106 -18l25 141q49 293 -175 293q-121 0 -183.5 -83t-88.5 -233l-123 -700
q-16 -79 -11 -136.5t19.5 -96t43 -61.5t60 -32.5t70.5 -9.5q109 0 166.5 70t83.5 213l31 174l100 -21l-28 -161q-31 -177 -113 -269t-242 -92z" />
    <glyph glyph-name="cdotaccent" unicode="&#x10b;" horiz-adv-x="667" 
d="M268 -25q-44 0 -81.5 10.5t-71 34t-52 62.5t-25 96t8.5 133l70 400q30 168 100 253t195 85q274 0 219 -308l-10 -65l-99 -8l13 71q13 59 7.5 100t-15 66t-31.5 39t-41.5 18.5t-44.5 4.5q-86 0 -129.5 -63.5t-67.5 -190.5l-70 -402q-11 -78 -6 -127t28.5 -77.5t48.5 -39
t54 -10.5q45 0 77.5 16t53 49t33 69t23.5 92l18 90l92 -15l-18 -88q-25 -139 -90.5 -217t-188.5 -78z" />
    <glyph glyph-name="Ccaron" unicode="&#x10c;" horiz-adv-x="839" 
d="M358 -35q-58 0 -105.5 12.5t-90 42.5t-65.5 80t-32 124.5t11 176.5l121 689q16 92 42.5 160.5t69.5 124.5t109 85t153 29q76 0 133 -19t99 -64t52.5 -118.5t-5.5 -181.5l-21 -119l-106 -18l25 141q49 293 -175 293q-121 0 -183.5 -83t-88.5 -233l-123 -700
q-16 -79 -11 -136.5t19.5 -96t43 -61.5t60 -32.5t70.5 -9.5q109 0 166.5 70t83.5 213l31 174l100 -21l-28 -161q-31 -177 -113 -269t-242 -92z" />
    <glyph glyph-name="ccaron" unicode="&#x10d;" horiz-adv-x="667" 
d="M268 -25q-44 0 -81.5 10.5t-71 34t-52 62.5t-25 96t8.5 133l70 400q30 168 100 253t195 85q274 0 219 -308l-10 -65l-99 -8l13 71q13 59 7.5 100t-15 66t-31.5 39t-41.5 18.5t-44.5 4.5q-86 0 -129.5 -63.5t-67.5 -190.5l-70 -402q-11 -78 -6 -127t28.5 -77.5t48.5 -39
t54 -10.5q45 0 77.5 16t53 49t33 69t23.5 92l18 90l92 -15l-18 -88q-25 -139 -90.5 -217t-188.5 -78z" />
    <glyph glyph-name="Dcaron" unicode="&#x10e;" horiz-adv-x="876" 
d="M315 0h-270l256 1454h229q101 0 171.5 -29.5t114.5 -95t51.5 -170.5t-17.5 -256l-70 -395q-35 -198 -94 -309t-146 -155t-225 -44zM387 1372l-227 -1288h162q107 0 172.5 37t108.5 127t73 256l72 399q43 249 -17 359t-219 110h-125z" />
    <glyph glyph-name="dcaron" unicode="&#x10f;" horiz-adv-x="737" 
d="M233 -25q-36 0 -67 11t-59.5 37.5t-43.5 70.5t-19.5 110t13.5 156l56 314q12 63 25.5 112.5t37 101t53.5 85t74.5 55t99.5 21.5q169 0 179 -195l110 631h96l-262 -1485h-90l33 176q-41 -96 -96 -148.5t-140 -52.5zM272 59q86 0 143.5 84t84.5 236l49 270q25 149 -7 232.5
t-124 83.5q-42 0 -75 -18t-54 -44t-37.5 -68t-25 -77t-17.5 -84l-57 -322q-15 -76 -10 -128.5t15.5 -85t32.5 -50t41 -23.5t41 -6z" />
    <glyph glyph-name="Dcroat" unicode="&#x110;" horiz-adv-x="876" 
d="M315 0h-270l256 1454h229q101 0 171.5 -29.5t114.5 -95t51.5 -170.5t-17.5 -256l-70 -395q-35 -198 -94 -309t-146 -155t-225 -44zM387 1372l-227 -1288h162q107 0 172.5 37t108.5 127t73 256l72 399q43 249 -17 359t-219 110h-125z" />
    <glyph glyph-name="dcroat" unicode="&#x111;" horiz-adv-x="737" 
d="M233 -25q-36 0 -67 11t-59.5 37.5t-43.5 70.5t-19.5 110t13.5 156l56 314q12 63 25.5 112.5t37 101t53.5 85t74.5 55t99.5 21.5q169 0 179 -195l110 631h96l-262 -1485h-90l33 176q-41 -96 -96 -148.5t-140 -52.5zM272 59q86 0 143.5 84t84.5 236l49 270q25 149 -7 232.5
t-124 83.5q-42 0 -75 -18t-54 -44t-37.5 -68t-25 -77t-17.5 -84l-57 -322q-15 -76 -10 -128.5t15.5 -85t32.5 -50t41 -23.5t41 -6z" />
    <glyph glyph-name="Emacron" unicode="&#x112;" horiz-adv-x="700" 
d="M805 1454l-14 -88h-406l-100 -571h370l-16 -88h-371l-108 -619h418l-15 -88h-518l256 1454h504z" />
    <glyph glyph-name="emacron" unicode="&#x113;" horiz-adv-x="669" 
d="M414 1049q131 0 185.5 -86t25.5 -246t-35 -199h-414l-33 -184q-25 -144 7.5 -209.5t117.5 -65.5q72 0 117 47.5t66 159.5l16 80l88 -14l-12 -74q-53 -283 -277 -283q-128 0 -188.5 91t-26.5 278l70 387q28 157 95.5 237.5t197.5 80.5zM532 735q39 238 -124 238
q-49 0 -83.5 -18t-56 -54.5t-33 -73.5t-22.5 -94l-25 -145h318q4 24 13 73t13 74z" />
    <glyph glyph-name="Ebreve" unicode="&#x114;" horiz-adv-x="700" 
d="M805 1454l-14 -88h-406l-100 -571h370l-16 -88h-371l-108 -619h418l-15 -88h-518l256 1454h504z" />
    <glyph glyph-name="ebreve" unicode="&#x115;" horiz-adv-x="669" 
d="M414 1049q131 0 185.5 -86t25.5 -246t-35 -199h-414l-33 -184q-25 -144 7.5 -209.5t117.5 -65.5q72 0 117 47.5t66 159.5l16 80l88 -14l-12 -74q-53 -283 -277 -283q-128 0 -188.5 91t-26.5 278l70 387q28 157 95.5 237.5t197.5 80.5zM532 735q39 238 -124 238
q-49 0 -83.5 -18t-56 -54.5t-33 -73.5t-22.5 -94l-25 -145h318q4 24 13 73t13 74z" />
    <glyph glyph-name="Edotaccent" unicode="&#x116;" horiz-adv-x="700" 
d="M805 1454l-14 -88h-406l-100 -571h370l-16 -88h-371l-108 -619h418l-15 -88h-518l256 1454h504z" />
    <glyph glyph-name="edotaccent" unicode="&#x117;" horiz-adv-x="669" 
d="M414 1049q131 0 185.5 -86t25.5 -246t-35 -199h-414l-33 -184q-25 -144 7.5 -209.5t117.5 -65.5q72 0 117 47.5t66 159.5l16 80l88 -14l-12 -74q-53 -283 -277 -283q-128 0 -188.5 91t-26.5 278l70 387q28 157 95.5 237.5t197.5 80.5zM532 735q39 238 -124 238
q-49 0 -83.5 -18t-56 -54.5t-33 -73.5t-22.5 -94l-25 -145h318q4 24 13 73t13 74z" />
    <glyph glyph-name="Eogonek" unicode="&#x118;" horiz-adv-x="700" 
d="M805 1454l-14 -88h-406l-100 -571h370l-16 -88h-371l-108 -619h418l-15 -88h-518l256 1454h504z" />
    <glyph glyph-name="eogonek" unicode="&#x119;" horiz-adv-x="669" 
d="M414 1049q131 0 185.5 -86t25.5 -246t-35 -199h-414l-33 -184q-25 -144 7.5 -209.5t117.5 -65.5q72 0 117 47.5t66 159.5l16 80l88 -14l-12 -74q-53 -283 -277 -283q-128 0 -188.5 91t-26.5 278l70 387q28 157 95.5 237.5t197.5 80.5zM532 735q39 238 -124 238
q-49 0 -83.5 -18t-56 -54.5t-33 -73.5t-22.5 -94l-25 -145h318q4 24 13 73t13 74z" />
    <glyph glyph-name="Ecaron" unicode="&#x11a;" horiz-adv-x="700" 
d="M805 1454l-14 -88h-406l-100 -571h370l-16 -88h-371l-108 -619h418l-15 -88h-518l256 1454h504z" />
    <glyph glyph-name="ecaron" unicode="&#x11b;" horiz-adv-x="669" 
d="M414 1049q131 0 185.5 -86t25.5 -246t-35 -199h-414l-33 -184q-25 -144 7.5 -209.5t117.5 -65.5q72 0 117 47.5t66 159.5l16 80l88 -14l-12 -74q-53 -283 -277 -283q-128 0 -188.5 91t-26.5 278l70 387q28 157 95.5 237.5t197.5 80.5zM532 735q39 238 -124 238
q-49 0 -83.5 -18t-56 -54.5t-33 -73.5t-22.5 -94l-25 -145h318q4 24 13 73t13 74z" />
    <glyph glyph-name="Gcircumflex" unicode="&#x11c;" horiz-adv-x="849" 
d="M317 -35q-67 0 -118 24t-87.5 77t-44 139.5t12.5 210.5l119 676q70 397 379 397q150 0 222 -94.5t36 -294.5l-17 -94l-104 -17l18 115q48 299 -166 299q-60 0 -106.5 -23t-76.5 -66t-48.5 -94.5t-30.5 -117.5l-121 -686q-66 -365 158 -365q222 0 291 398l39 213h-262
l16 86h354l-131 -748h-74l29 221q-43 -136 -113 -196t-174 -60z" />
    <glyph glyph-name="gcircumflex" unicode="&#x11d;" horiz-adv-x="661" 
d="M700 1161q31 0 50 -8l-17 -88q-28 8 -51 8q-48 0 -75 -21.5t-44 -60.5q70 -74 43 -231l-24 -135q-8 -48 -19.5 -86.5t-33 -77.5t-49.5 -65.5t-72 -43t-99 -16.5q-51 0 -92 14q-41 -16 -60.5 -48t-19.5 -62q0 -37 23.5 -55.5t68.5 -30.5l117 -35q56 -16 92.5 -43.5
t52 -60.5t20 -74t-4.5 -84l-6 -47q-18 -107 -96.5 -170.5t-215.5 -63.5q-145 0 -214 70.5t-46 193.5l9 35q17 86 63 136.5t125 74.5q-78 40 -78 123q0 49 31 92.5t98 67.5q-106 68 -72 256l25 135q11 60 27.5 106.5t46 90.5t80 68t118.5 24q81 0 131 -33q46 145 168 145z
M489 616l27 156q21 111 -17 156t-104 45q-44 0 -77 -18t-51.5 -51t-28.5 -63t-17 -71l-26 -158q-20 -110 16.5 -155t103.5 -45q44 0 77 18t51.5 51t28.5 63.5t17 71.5zM293 33l-113 33q-1 0 -3.5 1t-4.5 1q-60 -22 -92 -67.5t-47 -131.5l-6 -31q-14 -87 27.5 -134.5
t140.5 -47.5q186 0 211 166l6 33q10 68 -14.5 113t-104.5 65z" />
    <glyph glyph-name="Gbreve" unicode="&#x11e;" horiz-adv-x="849" 
d="M317 -35q-67 0 -118 24t-87.5 77t-44 139.5t12.5 210.5l119 676q70 397 379 397q150 0 222 -94.5t36 -294.5l-17 -94l-104 -17l18 115q48 299 -166 299q-60 0 -106.5 -23t-76.5 -66t-48.5 -94.5t-30.5 -117.5l-121 -686q-66 -365 158 -365q222 0 291 398l39 213h-262
l16 86h354l-131 -748h-74l29 221q-43 -136 -113 -196t-174 -60z" />
    <glyph glyph-name="gbreve" unicode="&#x11f;" horiz-adv-x="661" 
d="M700 1161q31 0 50 -8l-17 -88q-28 8 -51 8q-48 0 -75 -21.5t-44 -60.5q70 -74 43 -231l-24 -135q-8 -48 -19.5 -86.5t-33 -77.5t-49.5 -65.5t-72 -43t-99 -16.5q-51 0 -92 14q-41 -16 -60.5 -48t-19.5 -62q0 -37 23.5 -55.5t68.5 -30.5l117 -35q56 -16 92.5 -43.5
t52 -60.5t20 -74t-4.5 -84l-6 -47q-18 -107 -96.5 -170.5t-215.5 -63.5q-145 0 -214 70.5t-46 193.5l9 35q17 86 63 136.5t125 74.5q-78 40 -78 123q0 49 31 92.5t98 67.5q-106 68 -72 256l25 135q11 60 27.5 106.5t46 90.5t80 68t118.5 24q81 0 131 -33q46 145 168 145z
M489 616l27 156q21 111 -17 156t-104 45q-44 0 -77 -18t-51.5 -51t-28.5 -63t-17 -71l-26 -158q-20 -110 16.5 -155t103.5 -45q44 0 77 18t51.5 51t28.5 63.5t17 71.5zM293 33l-113 33q-1 0 -3.5 1t-4.5 1q-60 -22 -92 -67.5t-47 -131.5l-6 -31q-14 -87 27.5 -134.5
t140.5 -47.5q186 0 211 166l6 33q10 68 -14.5 113t-104.5 65z" />
    <glyph glyph-name="Gdotaccent" unicode="&#x120;" horiz-adv-x="849" 
d="M317 -35q-67 0 -118 24t-87.5 77t-44 139.5t12.5 210.5l119 676q70 397 379 397q150 0 222 -94.5t36 -294.5l-17 -94l-104 -17l18 115q48 299 -166 299q-60 0 -106.5 -23t-76.5 -66t-48.5 -94.5t-30.5 -117.5l-121 -686q-66 -365 158 -365q222 0 291 398l39 213h-262
l16 86h354l-131 -748h-74l29 221q-43 -136 -113 -196t-174 -60z" />
    <glyph glyph-name="gdotaccent" unicode="&#x121;" horiz-adv-x="661" 
d="M700 1161q31 0 50 -8l-17 -88q-28 8 -51 8q-48 0 -75 -21.5t-44 -60.5q70 -74 43 -231l-24 -135q-8 -48 -19.5 -86.5t-33 -77.5t-49.5 -65.5t-72 -43t-99 -16.5q-51 0 -92 14q-41 -16 -60.5 -48t-19.5 -62q0 -37 23.5 -55.5t68.5 -30.5l117 -35q56 -16 92.5 -43.5
t52 -60.5t20 -74t-4.5 -84l-6 -47q-18 -107 -96.5 -170.5t-215.5 -63.5q-145 0 -214 70.5t-46 193.5l9 35q17 86 63 136.5t125 74.5q-78 40 -78 123q0 49 31 92.5t98 67.5q-106 68 -72 256l25 135q11 60 27.5 106.5t46 90.5t80 68t118.5 24q81 0 131 -33q46 145 168 145z
M489 616l27 156q21 111 -17 156t-104 45q-44 0 -77 -18t-51.5 -51t-28.5 -63t-17 -71l-26 -158q-20 -110 16.5 -155t103.5 -45q44 0 77 18t51.5 51t28.5 63.5t17 71.5zM293 33l-113 33q-1 0 -3.5 1t-4.5 1q-60 -22 -92 -67.5t-47 -131.5l-6 -31q-14 -87 27.5 -134.5
t140.5 -47.5q186 0 211 166l6 33q10 68 -14.5 113t-104.5 65z" />
    <glyph glyph-name="uni0122" unicode="&#x122;" horiz-adv-x="849" 
d="M317 -35q-67 0 -118 24t-87.5 77t-44 139.5t12.5 210.5l119 676q70 397 379 397q150 0 222 -94.5t36 -294.5l-17 -94l-104 -17l18 115q48 299 -166 299q-60 0 -106.5 -23t-76.5 -66t-48.5 -94.5t-30.5 -117.5l-121 -686q-66 -365 158 -365q222 0 291 398l39 213h-262
l16 86h354l-131 -748h-74l29 221q-43 -136 -113 -196t-174 -60z" />
    <glyph glyph-name="uni0123" unicode="&#x123;" horiz-adv-x="661" 
d="M700 1161q31 0 50 -8l-17 -88q-28 8 -51 8q-48 0 -75 -21.5t-44 -60.5q70 -74 43 -231l-24 -135q-8 -48 -19.5 -86.5t-33 -77.5t-49.5 -65.5t-72 -43t-99 -16.5q-51 0 -92 14q-41 -16 -60.5 -48t-19.5 -62q0 -37 23.5 -55.5t68.5 -30.5l117 -35q56 -16 92.5 -43.5
t52 -60.5t20 -74t-4.5 -84l-6 -47q-18 -107 -96.5 -170.5t-215.5 -63.5q-145 0 -214 70.5t-46 193.5l9 35q17 86 63 136.5t125 74.5q-78 40 -78 123q0 49 31 92.5t98 67.5q-106 68 -72 256l25 135q11 60 27.5 106.5t46 90.5t80 68t118.5 24q81 0 131 -33q46 145 168 145z
M489 616l27 156q21 111 -17 156t-104 45q-44 0 -77 -18t-51.5 -51t-28.5 -63t-17 -71l-26 -158q-20 -110 16.5 -155t103.5 -45q44 0 77 18t51.5 51t28.5 63.5t17 71.5zM293 33l-113 33q-1 0 -3.5 1t-4.5 1q-60 -22 -92 -67.5t-47 -131.5l-6 -31q-14 -87 27.5 -134.5
t140.5 -47.5q186 0 211 166l6 33q10 68 -14.5 113t-104.5 65z" />
    <glyph glyph-name="Hcircumflex" unicode="&#x124;" horiz-adv-x="899" 
d="M829 1454h101l-256 -1454h-101l125 707h-428l-125 -707h-100l256 1454h100l-116 -663h430z" />
    <glyph glyph-name="hcircumflex" unicode="&#x125;" horiz-adv-x="741" 
d="M125 0h-94l262 1485h94l-115 -649q34 101 90 157t148 56q75 0 125.5 -43.5t50.5 -141.5q0 -54 -14 -131l-131 -733h-95l129 733q13 80 13 105q0 70 -33.5 99.5t-83.5 29.5q-51 0 -90 -25t-66.5 -73t-46 -107.5t-32.5 -138.5z" />
    <glyph glyph-name="Hbar" unicode="&#x126;" horiz-adv-x="899" 
d="M829 1454h101l-256 -1454h-101l125 707h-428l-125 -707h-100l256 1454h100l-116 -663h430z" />
    <glyph glyph-name="hbar" unicode="&#x127;" horiz-adv-x="741" 
d="M125 0h-94l262 1485h94l-115 -649q34 101 90 157t148 56q75 0 125.5 -43.5t50.5 -141.5q0 -54 -14 -131l-131 -733h-95l129 733q13 80 13 105q0 70 -33.5 99.5t-83.5 29.5q-51 0 -90 -25t-66.5 -73t-46 -107.5t-32.5 -138.5z" />
    <glyph glyph-name="Itilde" unicode="&#x128;" horiz-adv-x="370" 
d="M401 1454l-256 -1454h-100l256 1454h100z" />
    <glyph glyph-name="itilde" unicode="&#x129;" horiz-adv-x="337" 
d="M332 1194h-105l39 225h105zM127 0h-96l180 1024h96z" />
    <glyph glyph-name="Imacron" unicode="&#x12a;" horiz-adv-x="370" 
d="M401 1454l-256 -1454h-100l256 1454h100z" />
    <glyph glyph-name="imacron" unicode="&#x12b;" horiz-adv-x="337" 
d="M332 1194h-105l39 225h105zM127 0h-96l180 1024h96z" />
    <glyph glyph-name="Ibreve" unicode="&#x12c;" horiz-adv-x="370" 
d="M401 1454l-256 -1454h-100l256 1454h100z" />
    <glyph glyph-name="ibreve" unicode="&#x12d;" horiz-adv-x="337" 
d="M332 1194h-105l39 225h105zM127 0h-96l180 1024h96z" />
    <glyph glyph-name="Iogonek" unicode="&#x12e;" horiz-adv-x="370" 
d="M401 1454l-256 -1454h-100l256 1454h100z" />
    <glyph glyph-name="iogonek" unicode="&#x12f;" horiz-adv-x="337" 
d="M332 1194h-105l39 225h105zM127 0h-96l180 1024h96z" />
    <glyph glyph-name="Idotaccent" unicode="&#x130;" horiz-adv-x="370" 
d="M401 1454l-256 -1454h-100l256 1454h100z" />
    <glyph glyph-name="dotlessi" unicode="&#x131;" horiz-adv-x="337" 
d="M332 1194h-105l39 225h105zM127 0h-96l180 1024h96z" />
    <glyph glyph-name="IJ" unicode="&#x132;" horiz-adv-x="864" 
d="M401 1454l-256 -1454h-100l256 1454h100zM905 1454l-211 -1208q-25 -140 -88 -205.5t-176 -65.5q-71 0 -129 25l16 94q58 -24 115 -24q73 0 110 46.5t56 151.5l209 1186h98z" />
    <glyph glyph-name="ij" unicode="&#x133;" horiz-adv-x="673" 
d="M332 1194h-105l39 225h105zM670 1194h-105l39 225h105zM127 0h-96l180 1024h96zM240 -414q-43 0 -82 13l14 86q27 -9 57 -9q47 0 69 24.5t30 72.5l221 1251h94l-223 -1270q-13 -78 -57.5 -123t-122.5 -45z" />
    <glyph glyph-name="Jcircumflex" unicode="&#x134;" horiz-adv-x="493" 
d="M535 1454l-211 -1208q-25 -140 -88.5 -205.5t-176.5 -65.5q-71 0 -129 25l17 94q58 -24 114 -24q73 0 110 46.5t56 151.5l209 1186h99z" />
    <glyph glyph-name="jcircumflex" unicode="&#x135;" horiz-adv-x="335" 
d="M332 1194h-105l39 225h105zM-98 -414q-43 0 -82 13l14 86q27 -9 57 -9q47 0 69 24.5t30 72.5l221 1251h94l-223 -1270q-13 -78 -57.5 -123t-122.5 -45z" />
    <glyph glyph-name="uni0136" unicode="&#x136;" horiz-adv-x="825" 
d="M829 1454h111l-397 -549l157 -905h-100l-137 817l-230 -315l-88 -502h-100l256 1454h100l-141 -801z" />
    <glyph glyph-name="uni0137" unicode="&#x137;" horiz-adv-x="694" 
d="M639 1024h109l-312 -377l142 -647h-97l-116 569l-179 -219l-61 -350h-94l262 1485h94l-176 -998z" />
    <glyph glyph-name="kgreenlandic" unicode="&#x138;" horiz-adv-x="694" 
d="M639 1024h109l-312 -377l142 -647h-97l-116 569l-179 -219l-61 -350h-94l262 1485h94l-176 -998z" />
    <glyph glyph-name="Lacute" unicode="&#x139;" horiz-adv-x="649" 
d="M522 0h-477l256 1454h100l-241 -1362h379z" />
    <glyph glyph-name="lacute" unicode="&#x13a;" horiz-adv-x="335" 
d="M293 1485h94l-262 -1485h-94z" />
    <glyph glyph-name="uni013B" unicode="&#x13b;" horiz-adv-x="649" 
d="M522 0h-477l256 1454h100l-241 -1362h379z" />
    <glyph glyph-name="uni013C" unicode="&#x13c;" horiz-adv-x="335" 
d="M293 1485h94l-262 -1485h-94z" />
    <glyph glyph-name="Lcaron" unicode="&#x13d;" horiz-adv-x="649" 
d="M522 0h-477l256 1454h100l-241 -1362h379z" />
    <glyph glyph-name="lcaron" unicode="&#x13e;" horiz-adv-x="335" 
d="M293 1485h94l-262 -1485h-94z" />
    <glyph glyph-name="Ldot" unicode="&#x13f;" horiz-adv-x="649" 
d="M522 0h-477l256 1454h100l-241 -1362h379z" />
    <glyph glyph-name="ldot" unicode="&#x140;" horiz-adv-x="335" 
d="M293 1485h94l-262 -1485h-94z" />
    <glyph glyph-name="Lslash" unicode="&#x141;" horiz-adv-x="649" 
d="M522 0h-477l256 1454h100l-241 -1362h379z" />
    <glyph glyph-name="lslash" unicode="&#x142;" horiz-adv-x="335" 
d="M293 1485h94l-262 -1485h-94z" />
    <glyph glyph-name="Nacute" unicode="&#x143;" horiz-adv-x="925" 
d="M141 0h-96l256 1454h115l198 -1081q23 -138 25 -223h4q11 130 43 315l174 989h96l-256 -1454h-108l-199 1096q-23 118 -28 221h-5q-16 -173 -36 -279z" />
    <glyph glyph-name="nacute" unicode="&#x144;" horiz-adv-x="739" 
d="M127 0h-94l178 1024h90l-35 -190q38 105 93.5 160t144.5 55q35 0 64.5 -9t56.5 -30t43 -62t16 -98q0 -32 -10 -94l-133 -756h-95l134 766q6 40 6 65q0 136 -117 136q-51 0 -91.5 -27.5t-67 -79t-43.5 -107.5t-31 -130z" />
    <glyph glyph-name="uni0145" unicode="&#x145;" horiz-adv-x="925" 
d="M141 0h-96l256 1454h115l198 -1081q23 -138 25 -223h4q11 130 43 315l174 989h96l-256 -1454h-108l-199 1096q-23 118 -28 221h-5q-16 -173 -36 -279z" />
    <glyph glyph-name="uni0146" unicode="&#x146;" horiz-adv-x="739" 
d="M127 0h-94l178 1024h90l-35 -190q38 105 93.5 160t144.5 55q35 0 64.5 -9t56.5 -30t43 -62t16 -98q0 -32 -10 -94l-133 -756h-95l134 766q6 40 6 65q0 136 -117 136q-51 0 -91.5 -27.5t-67 -79t-43.5 -107.5t-31 -130z" />
    <glyph glyph-name="Ncaron" unicode="&#x147;" horiz-adv-x="925" 
d="M141 0h-96l256 1454h115l198 -1081q23 -138 25 -223h4q11 130 43 315l174 989h96l-256 -1454h-108l-199 1096q-23 118 -28 221h-5q-16 -173 -36 -279z" />
    <glyph glyph-name="ncaron" unicode="&#x148;" horiz-adv-x="739" 
d="M127 0h-94l178 1024h90l-35 -190q38 105 93.5 160t144.5 55q35 0 64.5 -9t56.5 -30t43 -62t16 -98q0 -32 -10 -94l-133 -756h-95l134 766q6 40 6 65q0 136 -117 136q-51 0 -91.5 -27.5t-67 -79t-43.5 -107.5t-31 -130z" />
    <glyph glyph-name="napostrophe" unicode="&#x149;" horiz-adv-x="739" 
d="M127 0h-94l178 1024h90l-35 -190q38 105 93.5 160t144.5 55q35 0 64.5 -9t56.5 -30t43 -62t16 -98q0 -32 -10 -94l-133 -756h-95l134 766q6 40 6 65q0 136 -117 136q-51 0 -91.5 -27.5t-67 -79t-43.5 -107.5t-31 -130z" />
    <glyph glyph-name="Eng" unicode="&#x14a;" horiz-adv-x="925" 
d="M141 0h-96l256 1454h115l198 -1081q23 -138 25 -223h4q11 130 43 315l174 989h96l-256 -1454h-108l-199 1096q-23 118 -28 221h-5q-16 -173 -36 -279z" />
    <glyph glyph-name="eng" unicode="&#x14b;" horiz-adv-x="739" 
d="M127 0h-94l178 1024h90l-35 -190q38 105 93.5 160t144.5 55q35 0 64.5 -9t56.5 -30t43 -62t16 -98q0 -32 -10 -94l-133 -756h-95l134 766q6 40 6 65q0 136 -117 136q-51 0 -91.5 -27.5t-67 -79t-43.5 -107.5t-31 -130z" />
    <glyph glyph-name="Omacron" unicode="&#x14c;" 
d="M369 -35q-166 0 -248.5 103t-46.5 319l123 703q17 95 43 163.5t69.5 124t110.5 83.5t158 28q80 0 140.5 -23.5t103 -74t54.5 -130.5t-6 -194l-122 -702q-16 -95 -42 -164t-69.5 -124.5t-110 -83.5t-157.5 -28zM377 51q54 0 95.5 17t69 43.5t48 69t32 84t21.5 97.5
l127 719q30 167 -28.5 244.5t-172.5 77.5q-54 0 -95.5 -17t-69 -43.5t-48 -69t-32 -84t-21.5 -97.5l-129 -719q-29 -167 29.5 -244.5t173.5 -77.5z" />
    <glyph glyph-name="omacron" unicode="&#x14d;" horiz-adv-x="690" 
d="M268 -25q-47 0 -85 10.5t-71 34.5t-50.5 63.5t-24 97.5t9.5 136l70 390q13 80 33 137t54 106t88.5 74t129.5 25q46 0 84 -10.5t71 -34.5t51 -63.5t24.5 -97.5t-9.5 -136l-70 -390q-14 -80 -33.5 -136.5t-53.5 -106t-88.5 -74.5t-129.5 -25zM272 59q41 0 74 15t53.5 37
t36.5 57.5t24.5 67.5t16.5 75l72 402q44 252 -131 252q-41 0 -74 -15t-53.5 -37t-36.5 -57.5t-24.5 -67.5t-16.5 -75l-72 -402q-44 -252 131 -252z" />
    <glyph glyph-name="Obreve" unicode="&#x14e;" 
d="M369 -35q-166 0 -248.5 103t-46.5 319l123 703q17 95 43 163.5t69.5 124t110.5 83.5t158 28q80 0 140.5 -23.5t103 -74t54.5 -130.5t-6 -194l-122 -702q-16 -95 -42 -164t-69.5 -124.5t-110 -83.5t-157.5 -28zM377 51q54 0 95.5 17t69 43.5t48 69t32 84t21.5 97.5
l127 719q30 167 -28.5 244.5t-172.5 77.5q-54 0 -95.5 -17t-69 -43.5t-48 -69t-32 -84t-21.5 -97.5l-129 -719q-29 -167 29.5 -244.5t173.5 -77.5z" />
    <glyph glyph-name="obreve" unicode="&#x14f;" horiz-adv-x="690" 
d="M268 -25q-47 0 -85 10.5t-71 34.5t-50.5 63.5t-24 97.5t9.5 136l70 390q13 80 33 137t54 106t88.5 74t129.5 25q46 0 84 -10.5t71 -34.5t51 -63.5t24.5 -97.5t-9.5 -136l-70 -390q-14 -80 -33.5 -136.5t-53.5 -106t-88.5 -74.5t-129.5 -25zM272 59q41 0 74 15t53.5 37
t36.5 57.5t24.5 67.5t16.5 75l72 402q44 252 -131 252q-41 0 -74 -15t-53.5 -37t-36.5 -57.5t-24.5 -67.5t-16.5 -75l-72 -402q-44 -252 131 -252z" />
    <glyph glyph-name="Ohungarumlaut" unicode="&#x150;" 
d="M369 -35q-166 0 -248.5 103t-46.5 319l123 703q17 95 43 163.5t69.5 124t110.5 83.5t158 28q80 0 140.5 -23.5t103 -74t54.5 -130.5t-6 -194l-122 -702q-16 -95 -42 -164t-69.5 -124.5t-110 -83.5t-157.5 -28zM377 51q54 0 95.5 17t69 43.5t48 69t32 84t21.5 97.5
l127 719q30 167 -28.5 244.5t-172.5 77.5q-54 0 -95.5 -17t-69 -43.5t-48 -69t-32 -84t-21.5 -97.5l-129 -719q-29 -167 29.5 -244.5t173.5 -77.5z" />
    <glyph glyph-name="ohungarumlaut" unicode="&#x151;" horiz-adv-x="690" 
d="M268 -25q-47 0 -85 10.5t-71 34.5t-50.5 63.5t-24 97.5t9.5 136l70 390q13 80 33 137t54 106t88.5 74t129.5 25q46 0 84 -10.5t71 -34.5t51 -63.5t24.5 -97.5t-9.5 -136l-70 -390q-14 -80 -33.5 -136.5t-53.5 -106t-88.5 -74.5t-129.5 -25zM272 59q41 0 74 15t53.5 37
t36.5 57.5t24.5 67.5t16.5 75l72 402q44 252 -131 252q-41 0 -74 -15t-53.5 -37t-36.5 -57.5t-24.5 -67.5t-16.5 -75l-72 -402q-44 -252 131 -252z" />
    <glyph glyph-name="OE" unicode="&#x152;" horiz-adv-x="1570" 
d="M578 1489q80 0 140.5 -23.5t103 -74t54.5 -130.5t-6 -194l-122 -702q-16 -95 -42 -164t-69.5 -124.5t-110 -83.5t-157.5 -28q-166 0 -248.5 103t-46.5 319l123 703q17 95 43 163.5t69.5 124t110.5 83.5t158 28zM1675 1454l-14 -88h-406l-100 -571h371l-17 -88h-370
l-109 -619h418l-14 -88h-519l256 1454h504zM643 362l127 719q30 167 -28.5 244.5t-172.5 77.5q-54 0 -95.5 -17t-69 -43.5t-48 -69t-32 -84t-21.5 -97.5l-129 -719q-29 -167 29.5 -244.5t173.5 -77.5q54 0 95.5 17t69 43.5t48 69t32 84t21.5 97.5z" />
    <glyph glyph-name="oe" unicode="&#x153;" horiz-adv-x="1359" 
d="M268 -25q-47 0 -85 10.5t-71 34.5t-50.5 63.5t-24 97.5t9.5 136l70 390q13 80 33 137t54 106t88.5 74t129.5 25q46 0 84 -10.5t71 -34.5t51 -63.5t24.5 -97.5t-9.5 -136l-70 -390q-14 -80 -33.5 -136.5t-53.5 -106t-88.5 -74.5t-129.5 -25zM1104 1049q131 0 185.5 -86
t25.5 -246t-35 -199h-414l-32 -184q-25 -145 7 -210t117 -65q72 0 117 47.5t66 159.5l16 80l88 -14l-12 -74q-53 -283 -277 -283q-128 0 -188.5 91t-26.5 278l70 387q28 157 95.5 237.5t197.5 80.5zM1223 735q39 238 -125 238q-49 0 -83.5 -18t-56 -54.5t-33 -73.5
t-22.5 -94l-24 -145h317q4 24 13.5 73t13.5 74zM272 59q41 0 74 15t53.5 37t36.5 57.5t24.5 67.5t16.5 75l72 402q44 252 -131 252q-41 0 -74 -15t-53.5 -37t-36.5 -57.5t-24.5 -67.5t-16.5 -75l-72 -402q-44 -252 131 -252z" />
    <glyph glyph-name="Racute" unicode="&#x154;" horiz-adv-x="796" 
d="M301 1454h213q77 0 137 -18.5t103.5 -57.5t60 -106.5t2.5 -159.5l-18 -119q-44 -275 -256 -323l116 -670h-108l-109 655h-182l-115 -655h-100zM696 991l17 115q40 266 -203 266h-123l-113 -637h166q62 0 108.5 20t75.5 56.5t46 80t26 99.5z" />
    <glyph glyph-name="racute" unicode="&#x155;" horiz-adv-x="466" 
d="M301 1024l-41 -240q42 133 100.5 199t141.5 66q15 0 35 -5l-19 -104q-12 4 -37 4q-50 0 -83.5 -20.5t-63.5 -63.5q-38 -56 -66 -135t-41 -156l-100 -569h-96l180 1024h90z" />
    <glyph glyph-name="uni0156" unicode="&#x156;" horiz-adv-x="796" 
d="M301 1454h213q77 0 137 -18.5t103.5 -57.5t60 -106.5t2.5 -159.5l-18 -119q-44 -275 -256 -323l116 -670h-108l-109 655h-182l-115 -655h-100zM696 991l17 115q40 266 -203 266h-123l-113 -637h166q62 0 108.5 20t75.5 56.5t46 80t26 99.5z" />
    <glyph glyph-name="uni0157" unicode="&#x157;" horiz-adv-x="466" 
d="M301 1024l-41 -240q42 133 100.5 199t141.5 66q15 0 35 -5l-19 -104q-12 4 -37 4q-50 0 -83.5 -20.5t-63.5 -63.5q-38 -56 -66 -135t-41 -156l-100 -569h-96l180 1024h90z" />
    <glyph glyph-name="Rcaron" unicode="&#x158;" horiz-adv-x="796" 
d="M301 1454h213q77 0 137 -18.5t103.5 -57.5t60 -106.5t2.5 -159.5l-18 -119q-44 -275 -256 -323l116 -670h-108l-109 655h-182l-115 -655h-100zM696 991l17 115q40 266 -203 266h-123l-113 -637h166q62 0 108.5 20t75.5 56.5t46 80t26 99.5z" />
    <glyph glyph-name="rcaron" unicode="&#x159;" horiz-adv-x="466" 
d="M301 1024l-41 -240q42 133 100.5 199t141.5 66q15 0 35 -5l-19 -104q-12 4 -37 4q-50 0 -83.5 -20.5t-63.5 -63.5q-38 -56 -66 -135t-41 -156l-100 -569h-96l180 1024h90z" />
    <glyph glyph-name="Sacute" unicode="&#x15a;" horiz-adv-x="733" 
d="M311 -35q-157 0 -235.5 99.5t-46.5 300.5l18 110l105 14l-25 -141q-26 -151 28.5 -224t157.5 -73q51 0 90 17.5t64 48.5t39.5 67t21.5 80l17 92q19 112 -7.5 183.5t-111.5 142.5l-119 98q-88 75 -115 162t-6 211l11 57q24 132 95 205.5t214 73.5q151 0 225 -83t41 -267
l-20 -119l-105 -16l23 126q50 273 -166 273q-98 0 -143.5 -53t-61.5 -144l-14 -78q-17 -91 7.5 -156t96.5 -124l117 -98q104 -87 134 -175.5t7 -230.5l-14 -88q-21 -129 -100 -210t-222 -81z" />
    <glyph glyph-name="sacute" unicode="&#x15b;" horiz-adv-x="620" 
d="M246 -25q-126 0 -191 70t-37 213l13 66l98 16l-12 -78q-21 -109 18 -160t119 -51q58 0 97 34t55 118l10 53q7 42 8.5 77t-22 69t-76.5 63l-95 53q-142 77 -104 266l10 50q43 215 246 215q54 0 96 -13.5t73.5 -42t43 -80t0.5 -122.5l-12 -76l-99 -15l13 93
q26 180 -119 180q-60 0 -97 -33t-51 -109l-10 -51q-14 -67 3 -113.5t75 -82.5l100 -58q65 -36 95 -78t30 -88.5t-12 -105.5l-10 -53q-22 -109 -80.5 -167.5t-175.5 -58.5z" />
    <glyph glyph-name="Scircumflex" unicode="&#x15c;" horiz-adv-x="733" 
d="M311 -35q-157 0 -235.5 99.5t-46.5 300.5l18 110l105 14l-25 -141q-26 -151 28.5 -224t157.5 -73q51 0 90 17.5t64 48.5t39.5 67t21.5 80l17 92q19 112 -7.5 183.5t-111.5 142.5l-119 98q-88 75 -115 162t-6 211l11 57q24 132 95 205.5t214 73.5q151 0 225 -83t41 -267
l-20 -119l-105 -16l23 126q50 273 -166 273q-98 0 -143.5 -53t-61.5 -144l-14 -78q-17 -91 7.5 -156t96.5 -124l117 -98q104 -87 134 -175.5t7 -230.5l-14 -88q-21 -129 -100 -210t-222 -81z" />
    <glyph glyph-name="scircumflex" unicode="&#x15d;" horiz-adv-x="620" 
d="M246 -25q-126 0 -191 70t-37 213l13 66l98 16l-12 -78q-21 -109 18 -160t119 -51q58 0 97 34t55 118l10 53q7 42 8.5 77t-22 69t-76.5 63l-95 53q-142 77 -104 266l10 50q43 215 246 215q54 0 96 -13.5t73.5 -42t43 -80t0.5 -122.5l-12 -76l-99 -15l13 93
q26 180 -119 180q-60 0 -97 -33t-51 -109l-10 -51q-14 -67 3 -113.5t75 -82.5l100 -58q65 -36 95 -78t30 -88.5t-12 -105.5l-10 -53q-22 -109 -80.5 -167.5t-175.5 -58.5z" />
    <glyph glyph-name="Scedilla" unicode="&#x15e;" horiz-adv-x="733" 
d="M311 -35q-157 0 -235.5 99.5t-46.5 300.5l18 110l105 14l-25 -141q-26 -151 28.5 -224t157.5 -73q51 0 90 17.5t64 48.5t39.5 67t21.5 80l17 92q19 112 -7.5 183.5t-111.5 142.5l-119 98q-88 75 -115 162t-6 211l11 57q24 132 95 205.5t214 73.5q151 0 225 -83t41 -267
l-20 -119l-105 -16l23 126q50 273 -166 273q-98 0 -143.5 -53t-61.5 -144l-14 -78q-17 -91 7.5 -156t96.5 -124l117 -98q104 -87 134 -175.5t7 -230.5l-14 -88q-21 -129 -100 -210t-222 -81z" />
    <glyph glyph-name="scedilla" unicode="&#x15f;" horiz-adv-x="620" 
d="M246 -25q-126 0 -191 70t-37 213l13 66l98 16l-12 -78q-21 -109 18 -160t119 -51q58 0 97 34t55 118l10 53q7 42 8.5 77t-22 69t-76.5 63l-95 53q-142 77 -104 266l10 50q43 215 246 215q54 0 96 -13.5t73.5 -42t43 -80t0.5 -122.5l-12 -76l-99 -15l13 93
q26 180 -119 180q-60 0 -97 -33t-51 -109l-10 -51q-14 -67 3 -113.5t75 -82.5l100 -58q65 -36 95 -78t30 -88.5t-12 -105.5l-10 -53q-22 -109 -80.5 -167.5t-175.5 -58.5z" />
    <glyph glyph-name="Scaron" unicode="&#x160;" horiz-adv-x="733" 
d="M311 -35q-157 0 -235.5 99.5t-46.5 300.5l18 110l105 14l-25 -141q-26 -151 28.5 -224t157.5 -73q51 0 90 17.5t64 48.5t39.5 67t21.5 80l17 92q19 112 -7.5 183.5t-111.5 142.5l-119 98q-88 75 -115 162t-6 211l11 57q24 132 95 205.5t214 73.5q151 0 225 -83t41 -267
l-20 -119l-105 -16l23 126q50 273 -166 273q-98 0 -143.5 -53t-61.5 -144l-14 -78q-17 -91 7.5 -156t96.5 -124l117 -98q104 -87 134 -175.5t7 -230.5l-14 -88q-21 -129 -100 -210t-222 -81z" />
    <glyph glyph-name="scaron" unicode="&#x161;" horiz-adv-x="620" 
d="M246 -25q-126 0 -191 70t-37 213l13 66l98 16l-12 -78q-21 -109 18 -160t119 -51q58 0 97 34t55 118l10 53q7 42 8.5 77t-22 69t-76.5 63l-95 53q-142 77 -104 266l10 50q43 215 246 215q54 0 96 -13.5t73.5 -42t43 -80t0.5 -122.5l-12 -76l-99 -15l13 93
q26 180 -119 180q-60 0 -97 -33t-51 -109l-10 -51q-14 -67 3 -113.5t75 -82.5l100 -58q65 -36 95 -78t30 -88.5t-12 -105.5l-10 -53q-22 -109 -80.5 -167.5t-175.5 -58.5z" />
    <glyph glyph-name="uni0162" unicode="&#x162;" horiz-adv-x="708" 
d="M178 1454h684l-16 -90h-289l-242 -1364h-96l240 1364h-297z" />
    <glyph glyph-name="uni0163" unicode="&#x163;" horiz-adv-x="456" 
d="M219 948h-121l15 76h118l45 248l101 35l-49 -283h174l-13 -76h-174l-127 -710q-17 -90 8 -128t93 -38q35 0 51 4l-16 -88q-27 -6 -72 -6q-205 0 -160 254z" />
    <glyph glyph-name="Tcaron" unicode="&#x164;" horiz-adv-x="708" 
d="M178 1454h684l-16 -90h-289l-242 -1364h-96l240 1364h-297z" />
    <glyph glyph-name="tcaron" unicode="&#x165;" horiz-adv-x="456" 
d="M219 948h-121l15 76h118l45 248l101 35l-49 -283h174l-13 -76h-174l-127 -710q-17 -90 8 -128t93 -38q35 0 51 4l-16 -88q-27 -6 -72 -6q-205 0 -160 254z" />
    <glyph glyph-name="Tbar" unicode="&#x166;" horiz-adv-x="708" 
d="M178 1454h684l-16 -90h-289l-242 -1364h-96l240 1364h-297z" />
    <glyph glyph-name="tbar" unicode="&#x167;" horiz-adv-x="456" 
d="M219 948h-121l15 76h118l45 248l101 35l-49 -283h174l-13 -76h-174l-127 -710q-17 -90 8 -128t93 -38q35 0 51 4l-16 -88q-27 -6 -72 -6q-205 0 -160 254z" />
    <glyph glyph-name="Utilde" unicode="&#x168;" 
d="M92 322l197 1132h100l-203 -1149q-21 -121 30.5 -186.5t158.5 -65.5q60 0 104 22t69.5 62t39 78.5t22.5 87.5l203 1151h98l-202 -1157q-60 -332 -344 -332q-152 0 -228.5 90t-44.5 267z" />
    <glyph glyph-name="utilde" unicode="&#x169;" horiz-adv-x="739" 
d="M236 -25q-181 0 -181 199q0 26 11 94l133 756h96l-135 -764q-6 -40 -6 -67q0 -134 114 -134q49 0 88.5 24.5t67.5 71.5t47 106.5t33 137.5l110 625h95l-181 -1024h-90l35 190q-39 -106 -93 -160.5t-144 -54.5z" />
    <glyph glyph-name="Umacron" unicode="&#x16a;" 
d="M92 322l197 1132h100l-203 -1149q-21 -121 30.5 -186.5t158.5 -65.5q60 0 104 22t69.5 62t39 78.5t22.5 87.5l203 1151h98l-202 -1157q-60 -332 -344 -332q-152 0 -228.5 90t-44.5 267z" />
    <glyph glyph-name="umacron" unicode="&#x16b;" horiz-adv-x="739" 
d="M236 -25q-181 0 -181 199q0 26 11 94l133 756h96l-135 -764q-6 -40 -6 -67q0 -134 114 -134q49 0 88.5 24.5t67.5 71.5t47 106.5t33 137.5l110 625h95l-181 -1024h-90l35 190q-39 -106 -93 -160.5t-144 -54.5z" />
    <glyph glyph-name="Ubreve" unicode="&#x16c;" 
d="M92 322l197 1132h100l-203 -1149q-21 -121 30.5 -186.5t158.5 -65.5q60 0 104 22t69.5 62t39 78.5t22.5 87.5l203 1151h98l-202 -1157q-60 -332 -344 -332q-152 0 -228.5 90t-44.5 267z" />
    <glyph glyph-name="ubreve" unicode="&#x16d;" horiz-adv-x="739" 
d="M236 -25q-181 0 -181 199q0 26 11 94l133 756h96l-135 -764q-6 -40 -6 -67q0 -134 114 -134q49 0 88.5 24.5t67.5 71.5t47 106.5t33 137.5l110 625h95l-181 -1024h-90l35 190q-39 -106 -93 -160.5t-144 -54.5z" />
    <glyph glyph-name="Uring" unicode="&#x16e;" 
d="M92 322l197 1132h100l-203 -1149q-21 -121 30.5 -186.5t158.5 -65.5q60 0 104 22t69.5 62t39 78.5t22.5 87.5l203 1151h98l-202 -1157q-60 -332 -344 -332q-152 0 -228.5 90t-44.5 267z" />
    <glyph glyph-name="uring" unicode="&#x16f;" horiz-adv-x="739" 
d="M236 -25q-181 0 -181 199q0 26 11 94l133 756h96l-135 -764q-6 -40 -6 -67q0 -134 114 -134q49 0 88.5 24.5t67.5 71.5t47 106.5t33 137.5l110 625h95l-181 -1024h-90l35 190q-39 -106 -93 -160.5t-144 -54.5z" />
    <glyph glyph-name="Uhungarumlaut" unicode="&#x170;" 
d="M92 322l197 1132h100l-203 -1149q-21 -121 30.5 -186.5t158.5 -65.5q60 0 104 22t69.5 62t39 78.5t22.5 87.5l203 1151h98l-202 -1157q-60 -332 -344 -332q-152 0 -228.5 90t-44.5 267z" />
    <glyph glyph-name="uhungarumlaut" unicode="&#x171;" horiz-adv-x="739" 
d="M236 -25q-181 0 -181 199q0 26 11 94l133 756h96l-135 -764q-6 -40 -6 -67q0 -134 114 -134q49 0 88.5 24.5t67.5 71.5t47 106.5t33 137.5l110 625h95l-181 -1024h-90l35 190q-39 -106 -93 -160.5t-144 -54.5z" />
    <glyph glyph-name="Uogonek" unicode="&#x172;" 
d="M92 322l197 1132h100l-203 -1149q-21 -121 30.5 -186.5t158.5 -65.5q60 0 104 22t69.5 62t39 78.5t22.5 87.5l203 1151h98l-202 -1157q-60 -332 -344 -332q-152 0 -228.5 90t-44.5 267z" />
    <glyph glyph-name="uogonek" unicode="&#x173;" horiz-adv-x="739" 
d="M236 -25q-181 0 -181 199q0 26 11 94l133 756h96l-135 -764q-6 -40 -6 -67q0 -134 114 -134q49 0 88.5 24.5t67.5 71.5t47 106.5t33 137.5l110 625h95l-181 -1024h-90l35 190q-39 -106 -93 -160.5t-144 -54.5z" />
    <glyph glyph-name="Wcircumflex" unicode="&#x174;" horiz-adv-x="1157" 
d="M295 0h-137l63 1454h98l-55 -1110q-3 -54 -20 -240h4q28 110 71 240l363 1110h123l-29 -1110q-2 -85 -14 -240h6q28 136 61 240l338 1110h101l-449 -1454h-139l33 1155q1 34 8 106t8 89h-6q-21 -102 -53 -195z" />
    <glyph glyph-name="wcircumflex" unicode="&#x175;" horiz-adv-x="964" 
d="M240 0h-107l2 1024h94l-20 -809q0 -5 -2 -44t-4 -60h4q2 8 33 104l276 809h109l-9 -809q0 -69 -2 -104h4q5 30 29 104l264 809h99l-359 -1024h-104l4 823q0 35 8 105h-4q-19 -66 -33 -105z" />
    <glyph glyph-name="Ycircumflex" unicode="&#x176;" horiz-adv-x="731" 
d="M326 0h-99l113 639l-160 815h107l100 -592q12 -86 12 -121h4q23 61 58 121l309 592h113l-443 -815z" />
    <glyph glyph-name="ycircumflex" unicode="&#x177;" horiz-adv-x="634" 
d="M-41 -410q-35 0 -68 11l15 90q20 -10 61 -10q54 0 90 33t68 116l61 160l-69 1034h100l33 -788q4 -101 0 -132h4q2 10 41 117l301 803h102l-489 -1217q-51 -127 -108.5 -172t-141.5 -45z" />
    <glyph glyph-name="Ydieresis" unicode="&#x178;" horiz-adv-x="731" 
d="M326 0h-99l113 639l-160 815h107l100 -592q12 -86 12 -121h4q23 61 58 121l309 592h113l-443 -815z" />
    <glyph glyph-name="Zacute" unicode="&#x179;" horiz-adv-x="692" 
d="M-49 0l14 84l733 1280h-473l17 90h577l-16 -84l-731 -1280h522l-16 -90h-627z" />
    <glyph glyph-name="zacute" unicode="&#x17a;" horiz-adv-x="571" 
d="M-41 0l14 78l523 864h-353l15 82h448l-14 -76l-520 -864h385l-15 -84h-483z" />
    <glyph glyph-name="Zdotaccent" unicode="&#x17b;" horiz-adv-x="692" 
d="M-49 0l14 84l733 1280h-473l17 90h577l-16 -84l-731 -1280h522l-16 -90h-627z" />
    <glyph glyph-name="zdotaccent" unicode="&#x17c;" horiz-adv-x="571" 
d="M-41 0l14 78l523 864h-353l15 82h448l-14 -76l-520 -864h385l-15 -84h-483z" />
    <glyph glyph-name="Zcaron" unicode="&#x17d;" horiz-adv-x="692" 
d="M-49 0l14 84l733 1280h-473l17 90h577l-16 -84l-731 -1280h522l-16 -90h-627z" />
    <glyph glyph-name="zcaron" unicode="&#x17e;" horiz-adv-x="571" 
d="M-41 0l14 78l523 864h-353l15 82h448l-14 -76l-520 -864h385l-15 -84h-483z" />
    <glyph glyph-name="AEacute" unicode="&#x1fc;" horiz-adv-x="1499" 
d="M-49 0l555 1454h119l43 -1454h-101l-8 430h-340l-160 -430h-108zM1604 1454l-15 -88h-405l-101 -571h371l-16 -88h-371l-109 -619h418l-14 -88h-518l256 1454h504zM467 1102l-217 -588h307l-10 588q-3 136 4 233h-8q-35 -124 -76 -233z" />
    <glyph glyph-name="aeacute" unicode="&#x1fd;" horiz-adv-x="1347" 
d="M184 -25q-97 0 -143 61t-27 187l9 53q21 145 106 224q74 63 215 78l148 18l26 166q19 112 -11.5 159.5t-103.5 47.5q-76 0 -115.5 -40.5t-54.5 -137.5l-16 -97h-96l16 97q22 140 89 199t182 59q36 0 65.5 -5.5t58 -18.5t46 -35t31 -55t13 -79t-9.5 -106l-84 -467
q-29 -172 -32 -283h-93q2 24 5 53.5t8 69.5t8 65q-62 -213 -240 -213zM1092 1049q131 0 185.5 -86t25.5 -246t-35 -199h-414l-33 -184q-25 -144 7.5 -209.5t117.5 -65.5q72 0 116.5 47.5t65.5 159.5l17 80l88 -14l-12 -74q-53 -283 -277 -283q-128 0 -188.5 91t-26.5 278
l70 387q28 157 95.5 237.5t197.5 80.5zM1210 735q39 238 -125 238q-49 0 -83.5 -18t-55.5 -54.5t-32.5 -73.5t-22.5 -94l-25 -145h318q4 24 13 73t13 74zM223 55q166 0 219 281l35 192l-119 -14q-63 -7 -106.5 -26t-69.5 -51.5t-39.5 -68.5t-21.5 -87l-8 -56
q-26 -170 110 -170z" />
    <glyph glyph-name="Oslashacute" unicode="&#x1fe;" 
d="M369 -35q-166 0 -248.5 103t-46.5 319l123 703q17 95 43 163.5t69.5 124t110.5 83.5t158 28q80 0 140.5 -23.5t103 -74t54.5 -130.5t-6 -194l-122 -702q-16 -95 -42 -164t-69.5 -124.5t-110 -83.5t-157.5 -28zM377 51q54 0 95.5 17t69 43.5t48 69t32 84t21.5 97.5
l127 719q30 167 -28.5 244.5t-172.5 77.5q-54 0 -95.5 -17t-69 -43.5t-48 -69t-32 -84t-21.5 -97.5l-129 -719q-29 -167 29.5 -244.5t173.5 -77.5z" />
    <glyph glyph-name="oslashacute" unicode="&#x1ff;" horiz-adv-x="690" 
d="M268 -25q-47 0 -85 10.5t-71 34.5t-50.5 63.5t-24 97.5t9.5 136l70 390q13 80 33 137t54 106t88.5 74t129.5 25q46 0 84 -10.5t71 -34.5t51 -63.5t24.5 -97.5t-9.5 -136l-70 -390q-14 -80 -33.5 -136.5t-53.5 -106t-88.5 -74.5t-129.5 -25zM272 59q41 0 74 15t53.5 37
t36.5 57.5t24.5 67.5t16.5 75l72 402q44 252 -131 252q-41 0 -74 -15t-53.5 -37t-36.5 -57.5t-24.5 -67.5t-16.5 -75l-72 -402q-44 -252 131 -252z" />
    <glyph glyph-name="uni0218" unicode="&#x218;" horiz-adv-x="733" 
d="M311 -35q-157 0 -235.5 99.5t-46.5 300.5l18 110l105 14l-25 -141q-26 -151 28.5 -224t157.5 -73q51 0 90 17.5t64 48.5t39.5 67t21.5 80l17 92q19 112 -7.5 183.5t-111.5 142.5l-119 98q-88 75 -115 162t-6 211l11 57q24 132 95 205.5t214 73.5q151 0 225 -83t41 -267
l-20 -119l-105 -16l23 126q50 273 -166 273q-98 0 -143.5 -53t-61.5 -144l-14 -78q-17 -91 7.5 -156t96.5 -124l117 -98q104 -87 134 -175.5t7 -230.5l-14 -88q-21 -129 -100 -210t-222 -81z" />
    <glyph glyph-name="uni0219" unicode="&#x219;" horiz-adv-x="620" 
d="M246 -25q-126 0 -191 70t-37 213l13 66l98 16l-12 -78q-21 -109 18 -160t119 -51q58 0 97 34t55 118l10 53q7 42 8.5 77t-22 69t-76.5 63l-95 53q-142 77 -104 266l10 50q43 215 246 215q54 0 96 -13.5t73.5 -42t43 -80t0.5 -122.5l-12 -76l-99 -15l13 93
q26 180 -119 180q-60 0 -97 -33t-51 -109l-10 -51q-14 -67 3 -113.5t75 -82.5l100 -58q65 -36 95 -78t30 -88.5t-12 -105.5l-10 -53q-22 -109 -80.5 -167.5t-175.5 -58.5z" />
    <glyph glyph-name="uni021A" unicode="&#x21a;" horiz-adv-x="708" 
d="M178 1454h684l-16 -90h-289l-242 -1364h-96l240 1364h-297z" />
    <glyph glyph-name="uni021B" unicode="&#x21b;" horiz-adv-x="456" 
d="M219 948h-121l15 76h118l45 248l101 35l-49 -283h174l-13 -76h-174l-127 -710q-17 -90 8 -128t93 -38q35 0 51 4l-16 -88q-27 -6 -72 -6q-205 0 -160 254z" />
    <glyph glyph-name="uni0237" unicode="&#x237;" horiz-adv-x="335" 
d="M332 1194h-105l39 225h105zM-98 -414q-43 0 -82 13l14 86q27 -9 57 -9q47 0 69 24.5t30 72.5l221 1251h94l-223 -1270q-13 -78 -57.5 -123t-122.5 -45z" />
    <glyph glyph-name="Alphatonos" unicode="&#x386;" horiz-adv-x="798" 
d="M668 0h-101l-8 430h-340l-160 -430h-108l555 1454h119zM467 1102l-217 -588h307l-10 588q-3 136 4 233h-8q-35 -124 -76 -233z" />
    <glyph glyph-name="Epsilontonos" unicode="&#x388;" horiz-adv-x="700" 
d="M805 1454l-14 -88h-406l-100 -571h370l-16 -88h-371l-108 -619h418l-15 -88h-518l256 1454h504z" />
    <glyph glyph-name="Etatonos" unicode="&#x389;" horiz-adv-x="899" 
d="M829 1454h101l-256 -1454h-101l125 707h-428l-125 -707h-100l256 1454h100l-116 -663h430z" />
    <glyph glyph-name="Iotatonos" unicode="&#x38a;" horiz-adv-x="370" 
d="M401 1454l-256 -1454h-100l256 1454h100z" />
    <glyph glyph-name="Omicrontonos" unicode="&#x38c;" 
d="M369 -35q-166 0 -248.5 103t-46.5 319l123 703q17 95 43 163.5t69.5 124t110.5 83.5t158 28q80 0 140.5 -23.5t103 -74t54.5 -130.5t-6 -194l-122 -702q-16 -95 -42 -164t-69.5 -124.5t-110 -83.5t-157.5 -28zM377 51q54 0 95.5 17t69 43.5t48 69t32 84t21.5 97.5
l127 719q30 167 -28.5 244.5t-172.5 77.5q-54 0 -95.5 -17t-69 -43.5t-48 -69t-32 -84t-21.5 -97.5l-129 -719q-29 -167 29.5 -244.5t173.5 -77.5z" />
    <glyph glyph-name="Upsilontonos" unicode="&#x38e;" horiz-adv-x="731" 
d="M326 0h-99l113 639l-160 815h107l100 -592q12 -86 12 -121h4q23 61 58 121l309 592h113l-443 -815z" />
    <glyph glyph-name="Omegatonos" unicode="&#x38f;" horiz-adv-x="868" 
d="M569 1403q-54 0 -95.5 -17t-69 -43.5t-48 -69t-32 -84t-21.5 -97.5l-121 -682q-15 -83 -13 -147t32.5 -109t91.5 -66l-14 -88h-273l14 88h164l2 4q-74 31 -101.5 116.5t-4.5 211.5l117 670q17 95 43 163.5t69.5 124t110.5 83.5t158 28q166 0 247 -103t45 -319l-114 -647
q-22 -124 -79 -210t-142 -118l-3 -4h164l-14 -88h-274l14 88q95 31 148.5 107t78.5 215l119 671q30 167 -28 244.5t-171 77.5z" />
    <glyph glyph-name="iotadieresistonos" unicode="&#x390;" horiz-adv-x="385" 
d="M199 1024h94l-146 -821q-12 -71 4.5 -99t63.5 -28q28 0 55 8l-16 -92q-34 -10 -72 -10q-92 0 -120 57.5t-9 161.5z" />
    <glyph glyph-name="Alpha" unicode="&#x391;" horiz-adv-x="798" 
d="M668 0h-101l-8 430h-340l-160 -430h-108l555 1454h119zM467 1102l-217 -588h307l-10 588q-3 136 4 233h-8q-35 -124 -76 -233z" />
    <glyph glyph-name="Beta" unicode="&#x392;" horiz-adv-x="798" 
d="M301 1454h225q156 0 233 -83t52 -245l-12 -73q-21 -126 -83 -204t-161 -95q95 -20 135.5 -95.5t16.5 -226.5l-15 -88q-13 -87 -35.5 -146t-64.5 -106t-111 -69.5t-168 -22.5h-268zM696 1057l13 69q22 129 -34 187.5t-161 58.5h-127l-100 -573h151q116 0 176 66.5
t82 191.5zM592 346l12 86q24 154 -20.5 218.5t-167.5 64.5h-146l-110 -631h166q72 0 121.5 18.5t77.5 57t42 80t25 106.5z" />
    <glyph glyph-name="Gamma" unicode="&#x393;" horiz-adv-x="632" 
d="M786 1454l-14 -90h-387l-240 -1364h-100l256 1454h485z" />
    <glyph glyph-name="uni0394" unicode="&#x394;" horiz-adv-x="774" 
d="M641 0h-690l543 1454h124zM543 80l-6 1253l-459 -1253h465z" />
    <glyph glyph-name="Epsilon" unicode="&#x395;" horiz-adv-x="700" 
d="M805 1454l-14 -88h-406l-100 -571h370l-16 -88h-371l-108 -619h418l-15 -88h-518l256 1454h504z" />
    <glyph glyph-name="Zeta" unicode="&#x396;" horiz-adv-x="692" 
d="M-49 0l14 84l733 1280h-473l17 90h577l-16 -84l-731 -1280h522l-16 -90h-627z" />
    <glyph glyph-name="Eta" unicode="&#x397;" horiz-adv-x="899" 
d="M829 1454h101l-256 -1454h-101l125 707h-428l-125 -707h-100l256 1454h100l-116 -663h430z" />
    <glyph glyph-name="Theta" unicode="&#x398;" 
d="M369 -35q-166 0 -248.5 103t-46.5 319l123 703q17 95 43 163.5t69.5 124t110.5 83.5t158 28q80 0 140.5 -23.5t103 -74t54.5 -130.5t-6 -194l-122 -702q-16 -95 -42 -164t-69.5 -124.5t-110 -83.5t-157.5 -28zM377 51q54 0 95.5 17t69 43.5t48 69t32 84t21.5 97.5
l127 719q30 167 -28.5 244.5t-172.5 77.5q-54 0 -95.5 -17t-69 -43.5t-48 -69t-32 -84t-21.5 -97.5l-129 -719q-29 -167 29.5 -244.5t173.5 -77.5z" />
    <glyph glyph-name="Iota" unicode="&#x399;" horiz-adv-x="370" 
d="M401 1454l-256 -1454h-100l256 1454h100z" />
    <glyph glyph-name="Kappa" unicode="&#x39a;" horiz-adv-x="825" 
d="M829 1454h111l-397 -549l157 -905h-100l-137 817l-230 -315l-88 -502h-100l256 1454h100l-141 -801z" />
    <glyph glyph-name="Lambda" unicode="&#x39b;" horiz-adv-x="798" 
d="M-49 0l555 1454h119l43 -1454h-103l-18 1100q-3 125 4 235h-8q-25 -101 -78 -237l-406 -1098h-108z" />
    <glyph glyph-name="Mu" unicode="&#x39c;" horiz-adv-x="1124" 
d="M139 0h-94l256 1454h160l35 -1182q0 -105 -7 -155h7q14 57 51 155l450 1182h160l-256 -1454h-96l190 1085l54 271h-9q-1 -4 -24 -73.5t-45 -125.5l-443 -1157h-110l-35 1157q-1 54 -0.5 86.5t1.5 68t1 44.5h-8q-1 -6 -45 -271z" />
    <glyph glyph-name="Nu" unicode="&#x39d;" horiz-adv-x="925" 
d="M141 0h-96l256 1454h115l198 -1081q23 -138 25 -223h4q11 130 43 315l174 989h96l-256 -1454h-108l-199 1096q-23 118 -28 221h-5q-16 -173 -36 -279z" />
    <glyph glyph-name="Xi" unicode="&#x39e;" horiz-adv-x="653" 
d="M201 1366l16 88h545l-14 -88h-547zM131 702l14 89h451l-14 -89h-451zM-43 0l14 88h559l-14 -88h-559z" />
    <glyph glyph-name="Omicron" unicode="&#x39f;" 
d="M369 -35q-166 0 -248.5 103t-46.5 319l123 703q17 95 43 163.5t69.5 124t110.5 83.5t158 28q80 0 140.5 -23.5t103 -74t54.5 -130.5t-6 -194l-122 -702q-16 -95 -42 -164t-69.5 -124.5t-110 -83.5t-157.5 -28zM377 51q54 0 95.5 17t69 43.5t48 69t32 84t21.5 97.5
l127 719q30 167 -28.5 244.5t-172.5 77.5q-54 0 -95.5 -17t-69 -43.5t-48 -69t-32 -84t-21.5 -97.5l-129 -719q-29 -167 29.5 -244.5t173.5 -77.5z" />
    <glyph glyph-name="Pi" unicode="&#x3a0;" horiz-adv-x="897" 
d="M45 0l256 1454h627l-256 -1454h-99l240 1366h-426l-242 -1366h-100z" />
    <glyph glyph-name="Rho" unicode="&#x3a1;" horiz-adv-x="745" 
d="M301 1454h225q70 0 125.5 -18t98 -56.5t59 -107.5t2.5 -162l-18 -123q-13 -83 -37.5 -143t-67.5 -107.5t-111 -71.5t-161 -24h-158l-113 -641h-100zM690 995l19 107q24 146 -29 208t-174 62h-119l-115 -649h152q129 0 186.5 68t79.5 204z" />
    <glyph glyph-name="Sigma" unicode="&#x3a3;" horiz-adv-x="692" 
d="M797 1364h-484l213 -602l-440 -674h485l-16 -88h-598l14 78l455 690l-217 608l14 78h588z" />
    <glyph glyph-name="Tau" unicode="&#x3a4;" horiz-adv-x="708" 
d="M178 1454h684l-16 -90h-289l-242 -1364h-96l240 1364h-297z" />
    <glyph glyph-name="Upsilon" unicode="&#x3a5;" horiz-adv-x="731" 
d="M326 0h-99l113 639l-160 815h107l100 -592q12 -86 12 -121h4q23 61 58 121l309 592h113l-443 -815z" />
    <glyph glyph-name="Phi" unicode="&#x3a6;" horiz-adv-x="1054" 
d="M764 1567l-21 -115q187 -18 262.5 -138t41.5 -306l-105 -584q-37 -215 -143 -315t-312 -109l-18 -102h-100l18 104q-187 15 -263.5 124t-43.5 298l102 584q40 215 147.5 325.5t313.5 120.5l21 113h100zM279 977l-95 -533q-16 -104 -8 -180.5t63.5 -123t161.5 -54.5
l228 1282q-86 -6 -146.5 -33.5t-100 -80.5t-63 -117.5t-40.5 -159.5zM846 444l94 533q18 108 11.5 191.5t-62 136.5t-160.5 63l-227 -1282q86 5 146 29t98.5 71t61 107t38.5 151z" />
    <glyph glyph-name="Chi" unicode="&#x3a7;" horiz-adv-x="778" 
d="M59 0h-120l438 776l-154 678h105l102 -487q10 -48 16 -119h5q18 50 55 119l264 487h115l-387 -688l159 -766h-104l-107 578q-12 56 -14 118h-4q-25 -63 -59 -118z" />
    <glyph glyph-name="Psi" unicode="&#x3a8;" horiz-adv-x="1064" 
d="M883 750l125 704h100l-125 -709q-37 -211 -137 -317t-295 -106l-57 -322h-101l58 322h-2q-191 0 -256.5 102t-26.5 321l123 709h100l-123 -704q-16 -78 -14 -141.5t21 -108t66.5 -68.5t123.5 -24h2l184 1046h101l-185 -1046q144 0 216.5 84t101.5 258z" />
    <glyph glyph-name="uni03A9" unicode="&#x3a9;" horiz-adv-x="868" 
d="M569 1403q-54 0 -95.5 -17t-69 -43.5t-48 -69t-32 -84t-21.5 -97.5l-121 -682q-15 -83 -13 -147t32.5 -109t91.5 -66l-14 -88h-273l14 88h164l2 4q-74 31 -101.5 116.5t-4.5 211.5l117 670q17 95 43 163.5t69.5 124t110.5 83.5t158 28q166 0 247 -103t45 -319l-114 -647
q-22 -124 -79 -210t-142 -118l-3 -4h164l-14 -88h-274l14 88q95 31 148.5 107t78.5 215l119 671q30 167 -28 244.5t-171 77.5z" />
    <glyph glyph-name="Iotadieresis" unicode="&#x3aa;" horiz-adv-x="370" 
d="M401 1454l-256 -1454h-100l256 1454h100z" />
    <glyph glyph-name="Upsilondieresis" unicode="&#x3ab;" horiz-adv-x="731" 
d="M326 0h-99l113 639l-160 815h107l100 -592q12 -86 12 -121h4q23 61 58 121l309 592h113l-443 -815z" />
    <glyph glyph-name="alphatonos" unicode="&#x3ac;" horiz-adv-x="727" 
d="M588 836l45 188h74l-125 -707q-33 -181 -37 -317h-92q9 114 20 205q-40 -116 -96.5 -173t-143.5 -57q-119 0 -165.5 99.5t-14.5 285.5l58 312q10 59 21.5 104t34 99.5t52 89.5t76.5 59.5t106 24.5q87 0 135.5 -53.5t51.5 -159.5zM498 381l49 278q26 144 -8.5 225
t-124.5 81q-47 0 -83 -21.5t-59.5 -63.5t-38 -89.5t-26.5 -114.5l-55 -314q-53 -303 120 -303q85 0 142.5 86t83.5 236z" />
    <glyph glyph-name="epsilontonos" unicode="&#x3ad;" horiz-adv-x="657" 
d="M266 -29q-125 0 -189 64t-44 190l10 70q34 217 238 240q-86 10 -123 68.5t-23 152.5l6 41q7 45 25 86t50 80t84.5 62.5t119.5 23.5q140 0 193.5 -76t39.5 -219l-98 -13q12 114 -21.5 167t-113.5 53q-84 0 -127.5 -51t-56.5 -124l-9 -43q-11 -77 25 -121t123 -44h82
l-17 -86h-86q-96 0 -147 -48t-68 -153l-8 -55q-31 -177 137 -177q94 0 141.5 54.5t71.5 177.5l92 -17q-30 -154 -103.5 -228.5t-203.5 -74.5z" />
    <glyph glyph-name="etatonos" unicode="&#x3ae;" horiz-adv-x="749" 
d="M516 1049q109 0 151.5 -80t16.5 -215l-80 -453l-123 -700h-94l70 399l131 752q36 215 -107 215q-95 0 -150.5 -91.5t-84.5 -257.5l-109 -618h-96l119 678q40 233 24 346h99q10 -59 -4 -199q40 115 94.5 169.5t142.5 54.5z" />
    <glyph glyph-name="iotatonos" unicode="&#x3af;" horiz-adv-x="385" 
d="M199 1024h94l-146 -821q-12 -71 4.5 -99t63.5 -28q28 0 55 8l-16 -92q-34 -10 -72 -10q-92 0 -120 57.5t-9 161.5z" />
    <glyph glyph-name="upsilondieresistonos" unicode="&#x3b0;" horiz-adv-x="735" 
d="M291 -25q-129 0 -190 75t-33 237l131 737h94l-129 -735q-20 -122 11.5 -176t123.5 -54q84 0 128.5 58t64.5 172l131 735h94l-129 -737q-52 -312 -297 -312z" />
    <glyph glyph-name="alpha" unicode="&#x3b1;" horiz-adv-x="727" 
d="M588 836l45 188h74l-125 -707q-33 -181 -37 -317h-92q9 114 20 205q-40 -116 -96.5 -173t-143.5 -57q-119 0 -165.5 99.5t-14.5 285.5l58 312q10 59 21.5 104t34 99.5t52 89.5t76.5 59.5t106 24.5q87 0 135.5 -53.5t51.5 -159.5zM498 381l49 278q26 144 -8.5 225
t-124.5 81q-47 0 -83 -21.5t-59.5 -63.5t-38 -89.5t-26.5 -114.5l-55 -314q-53 -303 120 -303q85 0 142.5 86t83.5 236z" />
    <glyph glyph-name="beta" unicode="&#x3b2;" horiz-adv-x="727" 
d="M522 1489q72 0 122.5 -24t73.5 -65.5t30 -96.5t-7 -117l-16 -94q-42 -231 -203 -267q183 -42 131 -340l-30 -178q-10 -54 -22 -97.5t-34 -89t-50 -76t-71.5 -50t-97.5 -19.5q-80 0 -133 41.5t-70 120.5l-94 -536h-96l278 1577q12 67 31 118.5t51.5 97.5t84.5 70.5
t122 24.5zM629 1092l16 94q40 221 -127 221q-84 0 -126 -60.5t-62 -170.5l-172 -975q17 -68 61.5 -104t110.5 -36q41 0 73 15t51 36.5t34 57.5t22 64.5t14 70.5l31 176q12 82 10 147t-40.5 105.5t-114.5 40.5h-45l14 86h47q91 0 137 62t66 170z" />
    <glyph glyph-name="gamma" unicode="&#x3b3;" horiz-adv-x="622" 
d="M563 1024h101q-13 -75 -39 -150t-84 -212l-271 -652l-73 -409h-97l70 399l-53 1024h98l21 -762v-147h4q14 52 49 147l174 434q2 5 14.5 39t16 44t14.5 40t16 47.5t13 46t14 55.5t12 56z" />
    <glyph glyph-name="delta" unicode="&#x3b4;" horiz-adv-x="690" 
d="M504 1403q-89 0 -135.5 -44.5t-46.5 -121.5q0 -93 98 -176l96 -76q82 -67 111.5 -137.5t7.5 -198.5l-60 -332q-11 -58 -23 -101.5t-35.5 -91.5t-54 -78.5t-79.5 -50.5t-111 -20q-63 0 -109 17.5t-80 57.5t-42 105.5t6 161.5l57 322q26 149 101.5 226.5t218.5 80.5l-57 47
q-66 55 -101 112.5t-35 133.5q0 106 73.5 178t207.5 72q125 0 227 -62l-16 -90q-100 66 -219 66zM479 311l58 338q41 246 -117 246q-88 0 -141.5 -56t-77.5 -194l-58 -334q-12 -63 -7 -107.5t15.5 -72.5t32 -44t42.5 -22t46 -6q43 0 77 15.5t55 38.5t36.5 59t23.5 66.5
t15 72.5z" />
    <glyph glyph-name="epsilon" unicode="&#x3b5;" horiz-adv-x="657" 
d="M266 -29q-125 0 -189 64t-44 190l10 70q34 217 238 240q-86 10 -123 68.5t-23 152.5l6 41q7 45 25 86t50 80t84.5 62.5t119.5 23.5q140 0 193.5 -76t39.5 -219l-98 -13q12 114 -21.5 167t-113.5 53q-84 0 -127.5 -51t-56.5 -124l-9 -43q-11 -77 25 -121t123 -44h82
l-17 -86h-86q-96 0 -147 -48t-68 -153l-8 -55q-31 -177 137 -177q94 0 141.5 54.5t71.5 177.5l92 -17q-30 -154 -103.5 -228.5t-203.5 -74.5z" />
    <glyph glyph-name="zeta" unicode="&#x3b6;" horiz-adv-x="573" 
d="M225 1364l15 90h505l-12 -65l-274 -392q-140 -194 -207.5 -309t-87.5 -219l-14 -74q-24 -120 -1 -175.5t117 -94.5l51 -21q71 -29 106.5 -63t35.5 -96q0 -120 -135 -283h-93q131 162 131 260q0 39 -26.5 63t-83.5 46l-39 16q-44 18 -74 37.5t-52.5 47.5t-32.5 65
t-10 86.5t11 115.5l11 54q19 108 81.5 226t210.5 322l263 363h-396z" />
    <glyph glyph-name="eta" unicode="&#x3b7;" horiz-adv-x="749" 
d="M516 1049q109 0 151.5 -80t16.5 -215l-80 -453l-123 -700h-94l70 399l131 752q36 215 -107 215q-95 0 -150.5 -91.5t-84.5 -257.5l-109 -618h-96l119 678q40 233 24 346h99q10 -59 -4 -199q40 115 94.5 169.5t142.5 54.5z" />
    <glyph glyph-name="theta" unicode="&#x3b8;" horiz-adv-x="729" 
d="M516 1489q131 0 192.5 -91.5t26.5 -285.5l-137 -770q-10 -59 -21.5 -103.5t-35 -98t-54 -88t-80.5 -58t-114 -23.5q-287 0 -223 361l137 780q8 47 15.5 79t20.5 74.5t27.5 71.5t38 60t52 49.5t68 30.5t87.5 12zM580 782l59 336q50 287 -129 287q-41 0 -73 -16t-52 -39
t-36 -64t-25 -76.5t-19 -89.5l-59 -338h334zM291 55q32 0 58.5 9t45.5 22t35 37t25.5 44.5t19 54t14 56.5t11.5 60l63 354h-334l-63 -364q-25 -144 7.5 -208.5t117.5 -64.5z" />
    <glyph glyph-name="iota" unicode="&#x3b9;" horiz-adv-x="385" 
d="M199 1024h94l-146 -821q-12 -71 4.5 -99t63.5 -28q28 0 55 8l-16 -92q-34 -10 -72 -10q-92 0 -120 57.5t-9 161.5z" />
    <glyph glyph-name="kappa" unicode="&#x3ba;" horiz-adv-x="718" 
d="M723 1028q15 0 43 -4l-12 -86q-24 4 -37 4q-38 0 -71 -24.5t-87 -96.5l-156 -205l181 -616h-105l-155 530l-134 -176l-63 -354h-96l180 1024h96l-90 -516l283 366q69 91 118.5 122.5t104.5 31.5z" />
    <glyph glyph-name="lambda" unicode="&#x3bb;" horiz-adv-x="679" 
d="M-49 0l420 1038l-13 244q-5 74 -18.5 101.5t-50.5 27.5q-13 0 -41 -4l14 80q25 10 60 10q115 0 124 -166l68 -1171q3 -55 12.5 -76t36.5 -21q16 0 37 7l-14 -86q-30 -9 -51 -9q-59 0 -84.5 37t-28.5 119l-27 604q-2 47 -2 162h-4q-18 -61 -57 -162l-281 -735h-100z" />
    <glyph glyph-name="uni03BC" unicode="&#x3bc;" horiz-adv-x="770" 
d="M627 1024h98l-119 -668q-36 -201 -33 -356h-98q0 92 17 213q-35 -114 -100.5 -177t-143.5 -63q-93 0 -125 66l-76 -440h-88l252 1425h94l-139 -797q-7 -87 23 -127.5t87 -40.5q78 0 137 62.5t89 191.5z" />
    <glyph glyph-name="nu" unicode="&#x3bd;" horiz-adv-x="624" 
d="M244 115l219 581q81 204 100 328h103q-13 -72 -38.5 -147.5t-82.5 -214.5l-269 -662h-106l-53 1024h100l21 -909h6z" />
    <glyph glyph-name="xi" unicode="&#x3be;" horiz-adv-x="610" 
d="M240 1366l16 88h483l-18 -90h-115q-110 0 -198 -69.5t-113 -202.5l-2 -9q-21 -108 25.5 -170.5t166.5 -62.5h95l-15 -90h-102q-248 0 -301 -295l-17 -94q-19 -108 4 -157t93 -77l80 -33q76 -30 111.5 -63t35.5 -92q0 -124 -139 -287h-90q131 159 131 258q0 39 -26.5 62.5
t-80.5 44.5l-88 32q-65 23 -98.5 65.5t-38 100t7.5 131.5l19 117q50 285 276 338q-91 24 -127.5 97t-17.5 175l2 13q40 213 256 268h100l-174 2h-141z" />
    <glyph glyph-name="omicron" unicode="&#x3bf;" horiz-adv-x="690" 
d="M268 -25q-47 0 -85 10.5t-71 34.5t-50.5 63.5t-24 97.5t9.5 136l70 390q13 80 33 137t54 106t88.5 74t129.5 25q46 0 84 -10.5t71 -34.5t51 -63.5t24.5 -97.5t-9.5 -136l-70 -390q-14 -80 -33.5 -136.5t-53.5 -106t-88.5 -74.5t-129.5 -25zM272 59q41 0 74 15t53.5 37
t36.5 57.5t24.5 67.5t16.5 75l72 402q44 252 -131 252q-41 0 -74 -15t-53.5 -37t-36.5 -57.5t-24.5 -67.5t-16.5 -75l-72 -402q-44 -252 131 -252z" />
    <glyph glyph-name="pi" unicode="&#x3c0;" horiz-adv-x="866" 
d="M887 936h-154l-131 -737q-10 -68 9 -99.5t69 -31.5q21 0 53 8l-14 -82q-30 -10 -68 -10q-182 0 -143 213l131 739h-287l-164 -936h-96l166 936h-27q-69 0 -133 -21l15 84q56 25 149 25h641z" />
    <glyph glyph-name="rho" unicode="&#x3c1;" horiz-adv-x="716" 
d="M43 -399h-94l188 1067q8 49 15.5 82.5t20 76.5t27.5 72.5t38.5 60t52.5 48.5t69 29.5t89 11.5q282 0 219 -363l-70 -383q-59 -328 -262 -328q-93 0 -141.5 49t-53.5 136zM311 59q46 0 79 16.5t54.5 52t34.5 77.5t25 106l67 379q25 139 -6 207t-121 68q-45 0 -79 -17
t-54 -40.5t-37 -68.5t-24.5 -79.5t-18.5 -93.5l-55 -306q-51 -301 135 -301z" />
    <glyph glyph-name="uni03C2" unicode="&#x3c2;" horiz-adv-x="636" 
d="M229 119l70 -29q119 -46 119 -153q0 -127 -127 -275h-90q59 78 90 137.5t31 114.5q0 38 -21.5 61t-69.5 41l-49 21q-97 36 -124.5 125t3.5 237l56 310q13 77 34.5 136t55.5 106.5t85.5 72.5t119.5 25q138 0 184 -82.5t16 -247.5l-96 -10q24 135 -3 194.5t-107 59.5
q-47 0 -82 -21.5t-56.5 -61.5t-34 -79.5t-22.5 -93.5l-53 -299q-11 -64 -14.5 -104.5t1.5 -79.5t26 -64t58 -41z" />
    <glyph glyph-name="sigma" unicode="&#x3c3;" horiz-adv-x="679" 
d="M457 1024h276l-16 -90h-64q-39 0 -82 6q93 -110 62 -291l-58 -330q-14 -80 -34.5 -138t-55 -107t-89.5 -74t-130 -25q-57 0 -101 16.5t-78.5 56t-43 105t5.5 162.5l66 379q12 73 35 129t62 103.5t101 72.5t144 25zM272 59q51 0 88.5 20.5t60.5 59t35.5 78t22.5 94.5
l58 326q17 100 13 171.5t-32 135.5h-100q-163 0 -205 -237l-70 -396q-44 -252 129 -252z" />
    <glyph glyph-name="tau" unicode="&#x3c4;" horiz-adv-x="540" 
d="M584 936h-203l-125 -717q-12 -73 3 -107t79 -34q36 0 72 8l-17 -92q-49 -12 -94 -12q-182 0 -143 208l129 746h-62q-60 0 -125 -23l15 88q59 23 131 23h356z" />
    <glyph glyph-name="upsilon" unicode="&#x3c5;" horiz-adv-x="735" 
d="M291 -25q-129 0 -190 75t-33 237l131 737h94l-129 -735q-20 -122 11.5 -176t123.5 -54q84 0 128.5 58t64.5 172l131 735h94l-129 -737q-52 -312 -297 -312z" />
    <glyph glyph-name="phi" unicode="&#x3c6;" horiz-adv-x="907" 
d="M668 1454l-74 -407q68 -5 120.5 -27t92 -65t51.5 -107.5t-2 -155.5l-61 -358q-9 -55 -22.5 -99.5t-42.5 -92.5t-69 -81.5t-105.5 -57t-149.5 -28.5l-66 -374h-94l65 376q-157 9 -224.5 98t-37.5 259l64 358q29 163 120.5 255t266.5 102l73 405h95zM209 684l-62 -344
q-27 -142 12.5 -208t166.5 -75l161 910q-126 -9 -190 -78t-88 -205zM700 340l60 344q26 135 -14.5 204t-163.5 79l-162 -910q130 9 192 76t88 207z" />
    <glyph glyph-name="chi" unicode="&#x3c7;" horiz-adv-x="651" 
d="M608 1026h103l-355 -686l76 -576q6 -50 17.5 -68t37.5 -18q17 0 29 3l-14 -82q-35 -7 -51 -7q-43 0 -68 31.5t-35 110.5l-51 379q-6 46 -16 151h-2q-32 -79 -66 -149l-242 -514h-98l367 747l-74 512q-6 49 -17.5 68.5t-35.5 19.5q-21 0 -31 -2l16 82q18 6 49 6
q47 0 70 -30.5t29 -88.5l51 -344q14 -109 16 -145h2q7 18 68 143z" />
    <glyph glyph-name="psi" unicode="&#x3c8;" horiz-adv-x="925" 
d="M684 301l127 723h96l-125 -713q-11 -63 -22.5 -105.5t-37 -89.5t-61.5 -75.5t-95.5 -47t-139.5 -18.5h-10l-66 -374h-94l66 374q-165 4 -222 84.5t-26 251.5l125 713h94l-129 -733q-20 -126 18 -179t154 -53l246 1395h94l-246 -1395h6q66 0 109.5 13t70.5 45t41.5 73.5
t26.5 110.5z" />
    <glyph glyph-name="omega" unicode="&#x3c9;" horiz-adv-x="1050" 
d="M803 1024h98q47 -123 57 -252.5t-18 -306.5l-18 -103q-14 -85 -33.5 -148.5t-50.5 -120.5t-79.5 -87.5t-111.5 -30.5q-165 0 -178 203q-33 -94 -93 -148.5t-134 -54.5q-56 0 -94.5 21t-58 55.5t-26.5 86t-3 105t16 119.5l16 97q32 174 87.5 306t148.5 259h98
q-185 -247 -238 -563l-16 -92q-13 -73 -16 -124.5t4 -95t31.5 -65t66.5 -21.5q77 0 120.5 68t65.5 193l74 417h94l-71 -417q-22 -120 4.5 -190.5t99.5 -70.5q41 0 71 21t50.5 65.5t33.5 93.5t27 126l15 92q58 327 -39 563z" />
    <glyph glyph-name="iotadieresis" unicode="&#x3ca;" horiz-adv-x="385" 
d="M199 1024h94l-146 -821q-12 -71 4.5 -99t63.5 -28q28 0 55 8l-16 -92q-34 -10 -72 -10q-92 0 -120 57.5t-9 161.5z" />
    <glyph glyph-name="upsilondieresis" unicode="&#x3cb;" horiz-adv-x="735" 
d="M291 -25q-129 0 -190 75t-33 237l131 737h94l-129 -735q-20 -122 11.5 -176t123.5 -54q84 0 128.5 58t64.5 172l131 735h94l-129 -737q-52 -312 -297 -312z" />
    <glyph glyph-name="omicrontonos" unicode="&#x3cc;" horiz-adv-x="690" 
d="M268 -25q-47 0 -85 10.5t-71 34.5t-50.5 63.5t-24 97.5t9.5 136l70 390q13 80 33 137t54 106t88.5 74t129.5 25q46 0 84 -10.5t71 -34.5t51 -63.5t24.5 -97.5t-9.5 -136l-70 -390q-14 -80 -33.5 -136.5t-53.5 -106t-88.5 -74.5t-129.5 -25zM272 59q41 0 74 15t53.5 37
t36.5 57.5t24.5 67.5t16.5 75l72 402q44 252 -131 252q-41 0 -74 -15t-53.5 -37t-36.5 -57.5t-24.5 -67.5t-16.5 -75l-72 -402q-44 -252 131 -252z" />
    <glyph glyph-name="upsilontonos" unicode="&#x3cd;" horiz-adv-x="735" 
d="M291 -25q-129 0 -190 75t-33 237l131 737h94l-129 -735q-20 -122 11.5 -176t123.5 -54q84 0 128.5 58t64.5 172l131 735h94l-129 -737q-52 -312 -297 -312z" />
    <glyph glyph-name="omegatonos" unicode="&#x3ce;" horiz-adv-x="1050" 
d="M803 1024h98q47 -123 57 -252.5t-18 -306.5l-18 -103q-14 -85 -33.5 -148.5t-50.5 -120.5t-79.5 -87.5t-111.5 -30.5q-165 0 -178 203q-33 -94 -93 -148.5t-134 -54.5q-56 0 -94.5 21t-58 55.5t-26.5 86t-3 105t16 119.5l16 97q32 174 87.5 306t148.5 259h98
q-185 -247 -238 -563l-16 -92q-13 -73 -16 -124.5t4 -95t31.5 -65t66.5 -21.5q77 0 120.5 68t65.5 193l74 417h94l-71 -417q-22 -120 4.5 -190.5t99.5 -70.5q41 0 71 21t50.5 65.5t33.5 93.5t27 126l15 92q58 327 -39 563z" />
    <glyph glyph-name="uni0401" unicode="&#x401;" horiz-adv-x="700" 
d="M805 1454l-14 -88h-406l-100 -571h370l-16 -88h-371l-108 -619h418l-15 -88h-518l256 1454h504z" />
    <glyph glyph-name="uni0404" unicode="&#x404;" horiz-adv-x="839" 
d="M580 1489q160 0 230.5 -96t41.5 -273l-23 -135l-106 -16l25 147q25 138 -20.5 212.5t-154.5 74.5q-117 0 -180 -75.5t-92 -235.5l-53 -301h389l-14 -84h-390l-55 -318q-60 -338 187 -338q106 0 162.5 70t82.5 213l31 174l100 -19l-26 -155q-35 -191 -117 -280t-240 -89
q-180 0 -249 113t-33 317l119 684q37 210 125 310t260 100z" />
    <glyph glyph-name="uni0405" unicode="&#x405;" horiz-adv-x="733" 
d="M311 -35q-157 0 -235.5 99.5t-46.5 300.5l18 110l105 14l-25 -141q-26 -151 28.5 -224t157.5 -73q51 0 90 17.5t64 48.5t39.5 67t21.5 80l17 92q19 112 -7.5 183.5t-111.5 142.5l-119 98q-88 75 -115 162t-6 211l11 57q24 132 95 205.5t214 73.5q151 0 225 -83t41 -267
l-20 -119l-105 -16l23 126q50 273 -166 273q-98 0 -143.5 -53t-61.5 -144l-14 -78q-17 -91 7.5 -156t96.5 -124l117 -98q104 -87 134 -175.5t7 -230.5l-14 -88q-21 -129 -100 -210t-222 -81z" />
    <glyph glyph-name="uni0406" unicode="&#x406;" horiz-adv-x="370" 
d="M401 1454l-256 -1454h-100l256 1454h100z" />
    <glyph glyph-name="uni0408" unicode="&#x408;" horiz-adv-x="493" 
d="M535 1454l-211 -1208q-25 -140 -88.5 -205.5t-176.5 -65.5q-71 0 -129 25l17 94q58 -24 114 -24q73 0 110 46.5t56 151.5l209 1186h99z" />
    <glyph glyph-name="uni040F" unicode="&#x40f;" horiz-adv-x="897" 
d="M827 1454h101l-256 -1454h-271l-49 -287h-92l51 287h-266l256 1454h98l-239 -1366h426z" />
    <glyph glyph-name="uni0410" unicode="&#x410;" horiz-adv-x="798" 
d="M668 0h-101l-8 430h-340l-160 -430h-108l555 1454h119zM467 1102l-217 -588h307l-10 588q-3 136 4 233h-8q-35 -124 -76 -233z" />
    <glyph glyph-name="uni0411" unicode="&#x411;" horiz-adv-x="796" 
d="M821 1454l-16 -90h-420l-92 -528h127q357 0 293 -363l-17 -98q-17 -102 -40.5 -166t-68 -114.5t-115.5 -72.5t-177 -22h-250l256 1454h520zM410 754h-131l-119 -672h137q80 0 132 16t84.5 54.5t50 87.5t32.5 131l16 100q26 155 -26.5 219t-175.5 64z" />
    <glyph glyph-name="uni0412" unicode="&#x412;" horiz-adv-x="798" 
d="M301 1454h225q156 0 233 -83t52 -245l-12 -73q-21 -126 -83 -204t-161 -95q95 -20 135.5 -95.5t16.5 -226.5l-15 -88q-13 -87 -35.5 -146t-64.5 -106t-111 -69.5t-168 -22.5h-268zM696 1057l13 69q22 129 -34 187.5t-161 58.5h-127l-100 -573h151q116 0 176 66.5
t82 191.5zM592 346l12 86q24 154 -20.5 218.5t-167.5 64.5h-146l-110 -631h166q72 0 121.5 18.5t77.5 57t42 80t25 106.5z" />
    <glyph glyph-name="uni0413" unicode="&#x413;" horiz-adv-x="632" 
d="M786 1454l-14 -90h-387l-240 -1364h-100l256 1454h485z" />
    <glyph glyph-name="uni0414" unicode="&#x414;" horiz-adv-x="970" 
d="M729 88h115l-68 -375h-92l51 287h-725l-49 -287h-92l65 375h109q161 238 246 649q64 286 143 717h539zM381 727q-44 -202 -97.5 -355.5t-138.5 -283.5h484l225 1274h-344q-86 -443 -129 -635z" />
    <glyph glyph-name="uni0415" unicode="&#x415;" horiz-adv-x="700" 
d="M805 1454l-14 -88h-406l-100 -571h370l-16 -88h-371l-108 -619h418l-15 -88h-518l256 1454h504z" />
    <glyph glyph-name="uni0416" unicode="&#x416;" horiz-adv-x="1271" 
d="M1280 1454h104l-376 -661l145 -793h-102l-125 721h-203l-127 -721h-100l127 721h-193l-381 -721h-110l426 799l-146 655h103l122 -649h193l115 649h100l-115 -649h189z" />
    <glyph glyph-name="uni0417" unicode="&#x417;" horiz-adv-x="778" 
d="M317 -31q-334 0 -274 346l12 80l101 13l-17 -93q-26 -146 23 -204t164 -58q39 0 71 8.5t54.5 20.5t40.5 34t28.5 40.5t20 49.5t14 51t10.5 54l25 135q48 256 -166 256h-123l14 89h119q60 0 104.5 19t72.5 55.5t44.5 79.5t26.5 102l25 131q22 122 -24.5 174.5t-150.5 52.5
q-61 0 -103.5 -17t-68.5 -54t-40.5 -80t-26.5 -109l-21 -115l-94 14l21 109q14 82 34.5 137.5t58.5 103.5t101.5 71.5t153.5 23.5q65 0 116 -16t90.5 -52.5t52 -95.5t-0.5 -145l-23 -136q-22 -123 -76 -198.5t-155 -97.5q96 -27 128.5 -96.5t8.5 -209.5l-22 -133
q-10 -57 -22 -99.5t-38 -91t-61.5 -78.5t-93.5 -50.5t-134 -20.5z" />
    <glyph glyph-name="uni0418" unicode="&#x418;" horiz-adv-x="913" 
d="M944 1454l-256 -1454h-92l184 1044q26 142 62 318h-4q-53 -134 -113 -266l-545 -1096h-135l256 1454h92l-182 -1040q-49 -257 -64 -316h7q56 147 92 224l563 1132h135z" />
    <glyph glyph-name="uni0419" unicode="&#x419;" horiz-adv-x="913" 
d="M944 1454l-256 -1454h-92l184 1044q26 142 62 318h-4q-53 -134 -113 -266l-545 -1096h-135l256 1454h92l-182 -1040q-49 -257 -64 -316h7q56 147 92 224l563 1132h135z" />
    <glyph glyph-name="uni041A" unicode="&#x41a;" horiz-adv-x="825" 
d="M829 1454h105l-377 -670l143 -784h-100l-125 721h-203l-127 -721h-100l256 1454h100l-114 -649h188z" />
    <glyph glyph-name="uni041B" unicode="&#x41b;" horiz-adv-x="897" 
d="M385 1454h545l-256 -1454h-101l240 1362h-352q-118 -582 -217 -1008q-17 -69 -30 -113.5t-36 -96t-50 -81t-68 -49.5t-93 -20q-23 0 -47 4l17 94q28 -4 36 -4q30 0 54.5 14.5t42 37.5t32.5 61t25.5 75t22.5 89q92 396 235 1089z" />
    <glyph glyph-name="uni041C" unicode="&#x41c;" horiz-adv-x="1124" 
d="M139 0h-94l256 1454h160l35 -1182q0 -105 -7 -155h7q14 57 51 155l450 1182h160l-256 -1454h-96l190 1085l54 271h-9q-1 -4 -24 -73.5t-45 -125.5l-443 -1157h-110l-35 1157q-1 54 -0.5 86.5t1.5 68t1 44.5h-8q-1 -6 -45 -271z" />
    <glyph glyph-name="uni041D" unicode="&#x41d;" horiz-adv-x="899" 
d="M829 1454h101l-256 -1454h-101l125 707h-428l-125 -707h-100l256 1454h100l-116 -663h430z" />
    <glyph glyph-name="uni041E" unicode="&#x41e;" 
d="M369 -35q-166 0 -248.5 103t-46.5 319l123 703q17 95 43 163.5t69.5 124t110.5 83.5t158 28q80 0 140.5 -23.5t103 -74t54.5 -130.5t-6 -194l-122 -702q-16 -95 -42 -164t-69.5 -124.5t-110 -83.5t-157.5 -28zM377 51q54 0 95.5 17t69 43.5t48 69t32 84t21.5 97.5
l127 719q30 167 -28.5 244.5t-172.5 77.5q-54 0 -95.5 -17t-69 -43.5t-48 -69t-32 -84t-21.5 -97.5l-129 -719q-29 -167 29.5 -244.5t173.5 -77.5z" />
    <glyph glyph-name="uni041F" unicode="&#x41f;" horiz-adv-x="897" 
d="M45 0l256 1454h627l-256 -1454h-99l240 1366h-426l-242 -1366h-100z" />
    <glyph glyph-name="uni0420" unicode="&#x420;" horiz-adv-x="745" 
d="M301 1454h225q70 0 125.5 -18t98 -56.5t59 -107.5t2.5 -162l-18 -123q-13 -83 -37.5 -143t-67.5 -107.5t-111 -71.5t-161 -24h-158l-113 -641h-100zM690 995l19 107q24 146 -29 208t-174 62h-119l-115 -649h152q129 0 186.5 68t79.5 204z" />
    <glyph glyph-name="uni0421" unicode="&#x421;" horiz-adv-x="839" 
d="M358 -35q-58 0 -105.5 12.5t-90 42.5t-65.5 80t-32 124.5t11 176.5l121 689q16 92 42.5 160.5t69.5 124.5t109 85t153 29q76 0 133 -19t99 -64t52.5 -118.5t-5.5 -181.5l-21 -119l-106 -18l25 141q49 293 -175 293q-121 0 -183.5 -83t-88.5 -233l-123 -700
q-16 -79 -11 -136.5t19.5 -96t43 -61.5t60 -32.5t70.5 -9.5q109 0 166.5 70t83.5 213l31 174l100 -21l-28 -161q-31 -177 -113 -269t-242 -92z" />
    <glyph glyph-name="uni0422" unicode="&#x422;" horiz-adv-x="708" 
d="M178 1454h684l-16 -90h-289l-242 -1364h-96l240 1364h-297z" />
    <glyph glyph-name="uni0423" unicode="&#x423;" horiz-adv-x="755" 
d="M297 242l22 53l-129 1159h101l82 -887q4 -53 8 -159h2q21 82 53 159l361 887h100l-485 -1163q-30 -72 -48.5 -112t-46 -84t-55 -65.5t-66 -35.5t-87.5 -14q-51 0 -89 14l15 88q58 -12 84 -12q65 0 103 42t75 130z" />
    <glyph glyph-name="uni0424" unicode="&#x424;" horiz-adv-x="1021" 
d="M731 1489l-16 -98q71 -2 129.5 -28.5t103 -83t57 -145.5t-7.5 -216l-67 -365q-10 -54 -19.5 -95t-27.5 -93.5t-39.5 -91t-55 -78t-75 -64.5t-99.5 -41t-127 -16h-6l-18 -109h-98l18 109q-56 2 -103.5 18t-90 50t-66.5 87.5t-33 131t10 180.5l68 377q14 81 32.5 143
t53 127t81 107t118.5 69t163 27l17 98h98zM260 915l-65 -374q-33 -185 21 -280t183 -101l203 1145q-43 0 -80.5 -8t-66 -20t-53 -33t-41.5 -41t-32.5 -51t-24.5 -54.5t-18 -60t-14 -60.5t-12 -62zM836 551l67 367q17 104 9.5 177t-39.5 119.5t-75.5 68t-99.5 22.5
l-202 -1145h6q54 0 98.5 12.5t76 34t55.5 51t40 62.5t27.5 69t19 71t13.5 68q1 5 1.5 8t1 7.5t1.5 7.5z" />
    <glyph glyph-name="uni0425" unicode="&#x425;" horiz-adv-x="778" 
d="M59 0h-120l438 776l-154 678h105l102 -487q10 -48 16 -119h5q18 50 55 119l264 487h115l-387 -688l159 -766h-104l-107 578q-12 56 -14 118h-4q-25 -63 -59 -118z" />
    <glyph glyph-name="uni0426" unicode="&#x426;" horiz-adv-x="927" 
d="M829 1454h99l-240 -1366h113l-68 -375h-92l51 287h-647l256 1454h100l-241 -1366h428z" />
    <glyph glyph-name="uni0427" unicode="&#x427;" horiz-adv-x="825" 
d="M631 743l125 711h100l-256 -1454h-100l114 649q-112 -33 -200 -33q-269 0 -269 254q0 50 17 150l76 434h100l-76 -430q-14 -74 -14 -139q0 -55 15 -92.5t43 -55t57 -24t67 -6.5q108 0 201 36z" />
    <glyph glyph-name="uni0428" unicode="&#x428;" horiz-adv-x="1255" 
d="M946 88l240 1366h100l-256 -1454h-985l256 1454h100l-239 -1366h342l239 1366h101l-242 -1366h344z" />
    <glyph glyph-name="uni0429" unicode="&#x429;" horiz-adv-x="1288" 
d="M1186 1454h100l-239 -1366h112l-65 -375h-93l52 287h-1008l256 1454h100l-239 -1366h342l239 1366h101l-242 -1366h344z" />
    <glyph glyph-name="uni042A" unicode="&#x42a;" horiz-adv-x="950" 
d="M449 858h118q360 0 297 -369l-22 -118q-14 -80 -31 -134.5t-46.5 -102.5t-71.5 -75.5t-105 -43t-148 -15.5h-243l239 1364h-272l14 90h375zM741 367l23 120q28 159 -26.5 224t-178.5 65h-125l-123 -694h133q80 0 131.5 15t84 53t49.5 86.5t32 130.5z" />
    <glyph glyph-name="uni042B" unicode="&#x42b;" horiz-adv-x="1071" 
d="M297 858h119q360 0 297 -369l-23 -118q-17 -100 -40.5 -163.5t-68 -113.5t-115.5 -72t-177 -22h-244l256 1454h100zM748 0l256 1454h98l-256 -1454h-98zM590 367l22 120q28 159 -26 224t-178 65h-125l-123 -694h133q80 0 131.5 15t84 53t49.5 86.5t32 130.5z" />
    <glyph glyph-name="uni042C" unicode="&#x42c;" horiz-adv-x="798" 
d="M297 858h119q360 0 297 -369l-23 -118q-17 -100 -40.5 -163.5t-68 -113.5t-115.5 -72t-177 -22h-244l256 1454h100zM590 367l22 120q28 159 -26 224t-178 65h-125l-123 -694h133q80 0 131.5 15t84 53t49.5 86.5t32 130.5z" />
    <glyph glyph-name="uni042D" unicode="&#x42d;" horiz-adv-x="841" 
d="M565 1489q169 0 243.5 -100t37.5 -310l-121 -686q-14 -78 -31 -136.5t-46.5 -116t-68.5 -94t-99 -59t-136 -22.5q-165 0 -238.5 94.5t-42.5 274.5l23 137l109 21l-27 -158q-52 -281 184 -281q53 0 95 19t69 47.5t48 74t32 87t22 98.5l58 328h-352l14 84h352l53 301
q54 311 -176 311q-208 0 -260 -281l-26 -145l-101 18l25 131q14 79 38.5 140.5t65.5 114t106 80.5t150 28z" />
    <glyph glyph-name="uni042E" unicode="&#x42e;" horiz-adv-x="1230" 
d="M938 1489q79 0 139.5 -23.5t103.5 -74t55.5 -130.5t-5.5 -194l-123 -702q-16 -94 -42.5 -163.5t-70 -125t-110 -83.5t-156.5 -28q-80 0 -140.5 23.5t-103.5 74t-55 130.5t6 194l56 318h-222l-125 -705h-100l256 1454h100l-116 -668h221l53 304q16 95 42 164t69.5 124
t110 83t157.5 28zM1004 362l126 719q30 167 -28.5 244.5t-171.5 77.5q-54 0 -96 -17t-69 -43.5t-48 -69t-33 -84t-22 -97.5l-127 -719q-29 -168 29.5 -245t172.5 -77q54 0 96 17t69.5 43.5t48 69t32 84.5t21.5 97z" />
    <glyph glyph-name="uni042F" unicode="&#x42f;" horiz-adv-x="796" 
d="M578 1454h251l-256 -1454h-100l115 655h-170h-12l-340 -655h-109l354 670q-185 62 -137 338l19 104q32 179 125.5 260.5t259.5 81.5zM436 735h166l113 637h-146q-40 0 -71.5 -5.5t-65 -22.5t-58.5 -45.5t-46 -77t-33 -115.5l-19 -98q-26 -142 19.5 -207.5t140.5 -65.5z
" />
    <glyph glyph-name="uni0430" unicode="&#x430;" horiz-adv-x="677" 
d="M184 -25q-97 0 -143 61t-27 187l9 53q21 145 106 224q74 63 215 78l148 18l26 166q19 112 -11.5 159.5t-103.5 47.5q-76 0 -115.5 -40.5t-54.5 -137.5l-16 -97h-96l16 97q22 140 89 199t182 59q36 0 65.5 -5.5t58 -18.5t46 -35t31 -55t13 -79t-9.5 -106l-84 -467
q-29 -172 -32 -283h-93q2 24 5 53.5t8 69.5t8 65q-62 -213 -240 -213zM223 55q166 0 219 281l35 192l-119 -14q-63 -7 -106.5 -26t-69.5 -51.5t-39.5 -68.5t-21.5 -87l-8 -56q-26 -170 110 -170z" />
    <glyph glyph-name="uni0431" unicode="&#x431;" horiz-adv-x="684" 
d="M578 1307l-99 -25q-93 -23 -144 -90t-75 -170l-35 -156q77 183 234 183q104 0 157.5 -79.5t28.5 -224.5l-76 -421q-9 -50 -17.5 -84t-23.5 -79t-36 -74.5t-50.5 -57t-72 -41t-95.5 -13.5q-130 0 -193 81.5t-32 256.5q12 71 49 287.5t62 355.5q14 81 34 141.5t53 116
t84 92.5t120 54l102 26q58 13 84.5 37t34.5 66h82q-11 -75 -52 -117.5t-124 -64.5zM416 967q-47 0 -82.5 -23t-60 -67t-40 -95t-28.5 -120l-60 -343q-23 -134 9.5 -197t121.5 -63q40 0 70.5 13.5t50 34.5t35 57.5t24 71.5t17.5 88l70 395q21 121 -8 184.5t-119 63.5z" />
    <glyph glyph-name="uni0432" unicode="&#x432;" horiz-adv-x="712" 
d="M211 1024h209q144 0 203.5 -59t40.5 -174l-7 -46q-30 -189 -190 -219q163 -38 131 -233l-4 -39q-21 -133 -94.5 -193.5t-227.5 -60.5h-241zM559 745l8 43q12 89 -23 127.5t-132 38.5h-117l-70 -399h119q104 0 152 48t63 142zM494 252l8 45q15 95 -24.5 141.5t-143.5 46.5
h-121l-74 -415h142q106 0 153 45t60 137z" />
    <glyph glyph-name="uni0433" unicode="&#x433;" horiz-adv-x="518" 
d="M211 1024h375l-15 -84h-280l-166 -940h-94z" />
    <glyph glyph-name="uni0434" unicode="&#x434;" horiz-adv-x="827" 
d="M774 1024l-166 -938h92l-59 -342h-90l45 256h-547l-45 -256h-88l59 342h88q84 126 146 344q50 161 127 594h438zM295 422q-55 -202 -139 -336h358l150 852h-256q-58 -322 -113 -516z" />
    <glyph glyph-name="uni0435" unicode="&#x435;" horiz-adv-x="669" 
d="M414 1049q131 0 185.5 -86t25.5 -246t-35 -199h-414l-33 -184q-25 -144 7.5 -209.5t117.5 -65.5q72 0 117 47.5t66 159.5l16 80l88 -14l-12 -74q-53 -283 -277 -283q-128 0 -188.5 91t-26.5 278l70 387q28 157 95.5 237.5t197.5 80.5zM532 735q39 238 -124 238
q-49 0 -83.5 -18t-56 -54.5t-33 -73.5t-22.5 -94l-25 -145h318q4 24 13 73t13 74z" />
    <glyph glyph-name="uni0436" unicode="&#x436;" horiz-adv-x="1017" 
d="M967 1024h100l-328 -485l160 -539h-104l-140 483h-104l-86 -483h-90l86 483h-105l-311 -483h-106l348 530l-154 494h100l136 -467h104l82 467h90l-82 -467h101z" />
    <glyph glyph-name="uni0437" unicode="&#x437;" horiz-adv-x="661" 
d="M258 -25q-273 0 -225 283l6 47l96 8l-8 -47q-18 -113 11 -164t126 -51q87 0 126.5 49t58.5 156l6 31q18 106 -9 154t-114 48h-82l12 74h78q78 0 122.5 42.5t59.5 139.5l8 52q14 96 -21.5 136t-109.5 40q-82 0 -126 -53t-58 -158l-8 -47l-92 8l8 41q22 140 87 212.5
t196 72.5q129 0 185 -68.5t34 -181.5l-9 -49q-32 -191 -180 -218q72 -14 102.5 -74.5t10.5 -166.5l-10 -60q-9 -54 -26.5 -96t-49 -80t-83.5 -59t-122 -21z" />
    <glyph glyph-name="uni0438" unicode="&#x438;" horiz-adv-x="755" 
d="M154 0h-123l180 1024h82l-133 -756q-19 -101 -31 -176h6q31 85 68 154l401 778h123l-180 -1024h-82l137 778q14 88 27 154h-6q-50 -116 -70 -152z" />
    <glyph glyph-name="uni0439" unicode="&#x439;" horiz-adv-x="755" 
d="M154 0h-123l180 1024h82l-133 -756q-19 -101 -31 -176h6q31 85 68 154l401 778h123l-180 -1024h-82l137 778q14 88 27 154h-6q-50 -116 -70 -152z" />
    <glyph glyph-name="uni043A" unicode="&#x43a;" horiz-adv-x="673" 
d="M625 1024h100l-328 -487l160 -537h-102l-142 483h-100l-86 -483h-96l180 1024h96l-82 -467h97z" />
    <glyph glyph-name="uni043B" unicode="&#x43b;" horiz-adv-x="720" 
d="M250 1024h440l-180 -1024h-96l166 938h-261q-79 -384 -126 -600q-40 -192 -90.5 -269t-139.5 -77q-19 0 -39 4l15 84h18q55 0 84 52t61 194q100 459 148 698z" />
    <glyph glyph-name="uni043C" unicode="&#x43c;" horiz-adv-x="960" 
d="M696 643l-274 -643h-78l-35 645q-11 138 -20 285h-6q-14 -88 -33 -191l-131 -739h-88l180 1024h145l50 -774q4 -42 0 -129h2q19 65 45 129l333 774h144l-180 -1024h-88l131 739q3 24 32 195h-6q-71 -173 -123 -291z" />
    <glyph glyph-name="uni043D" unicode="&#x43d;" horiz-adv-x="733" 
d="M526 557l82 467h94l-180 -1024h-94l86 483h-303l-86 -483h-94l180 1024h94l-82 -467h303z" />
    <glyph glyph-name="uni043E" unicode="&#x43e;" horiz-adv-x="690" 
d="M268 -25q-47 0 -85 10.5t-71 34.5t-50.5 63.5t-24 97.5t9.5 136l70 390q13 80 33 137t54 106t88.5 74t129.5 25q46 0 84 -10.5t71 -34.5t51 -63.5t24.5 -97.5t-9.5 -136l-70 -390q-14 -80 -33.5 -136.5t-53.5 -106t-88.5 -74.5t-129.5 -25zM272 59q41 0 74 15t53.5 37
t36.5 57.5t24.5 67.5t16.5 75l72 402q44 252 -131 252q-41 0 -74 -15t-53.5 -37t-36.5 -57.5t-24.5 -67.5t-16.5 -75l-72 -402q-44 -252 131 -252z" />
    <glyph glyph-name="uni043F" unicode="&#x43f;" horiz-adv-x="731" 
d="M125 0h-94l180 1024h491l-180 -1024h-96l166 938h-299z" />
    <glyph glyph-name="uni0440" unicode="&#x440;" horiz-adv-x="739" 
d="M55 -399h-94l252 1423h88l-31 -170q39 97 92 146t138 49q22 0 42 -3.5t44 -13.5t42.5 -27t34.5 -46.5t23.5 -68.5t6.5 -96.5t-13 -127.5l-51 -306q-14 -80 -32.5 -140.5t-50.5 -120t-83 -92t-119 -32.5q-83 0 -131 51t-57 142zM322 59q40 0 72 16t52.5 40t36.5 65
t25.5 78.5t19.5 91.5l58 328q52 287 -121 287q-172 0 -225 -312l-52 -284q-27 -155 10.5 -232.5t123.5 -77.5z" />
    <glyph glyph-name="uni0441" unicode="&#x441;" horiz-adv-x="667" 
d="M268 -25q-44 0 -81.5 10.5t-71 34t-52 62.5t-25 96t8.5 133l70 400q30 168 100 253t195 85q274 0 219 -308l-10 -65l-99 -8l13 71q13 59 7.5 100t-15 66t-31.5 39t-41.5 18.5t-44.5 4.5q-86 0 -129.5 -63.5t-67.5 -190.5l-70 -402q-11 -78 -6 -127t28.5 -77.5t48.5 -39
t54 -10.5q45 0 77.5 16t53 49t33 69t23.5 92l18 90l92 -15l-18 -88q-25 -139 -90.5 -217t-188.5 -78z" />
    <glyph glyph-name="uni0442" unicode="&#x442;" horiz-adv-x="540" 
d="M113 1024h495l-16 -84h-199l-166 -940h-94l166 940h-201z" />
    <glyph glyph-name="uni0443" unicode="&#x443;" horiz-adv-x="634" 
d="M-41 -410q-35 0 -68 11l15 90q20 -10 61 -10q54 0 90 33t68 116l61 160l-69 1034h100l33 -788q4 -101 0 -132h4q2 10 41 117l301 803h102l-489 -1217q-51 -127 -108.5 -172t-141.5 -45z" />
    <glyph glyph-name="uni0444" unicode="&#x444;" horiz-adv-x="1099" 
d="M889 1049q224 0 164 -349l-68 -372q-10 -60 -22 -106t-32.5 -94.5t-46.5 -80t-66 -52t-89 -20.5q-169 0 -192 187l-101 -563h-94l98 557q-85 -181 -231 -181q-223 0 -160 357l68 368q10 59 21 104t31 93.5t46 79.5t66.5 51.5t91.5 20.5q85 0 133.5 -50.5t54.5 -148.5
l113 635h96l-108 -617q75 181 227 181zM475 360l55 306l2 18q21 124 -14 202.5t-125 78.5q-42 0 -73 -18.5t-51 -57.5t-32.5 -81.5t-23.5 -107.5l-63 -348q-29 -138 -6 -215.5t108 -77.5q47 0 86 25t65 68.5t43.5 95t28.5 112.5zM889 332l65 368q25 141 -3 203t-101 62
q-169 0 -227 -320l-52 -285q-14 -84 -10 -151t41 -108.5t105 -41.5q34 0 61 14t45.5 36.5t33.5 59.5t24 74.5t18 88.5z" />
    <glyph glyph-name="uni0445" unicode="&#x445;" horiz-adv-x="604" 
d="M49 0h-110l315 539l-113 485h101l61 -330q8 -43 14 -90h5q5 15 13 30t18.5 33.5t15.5 28.5l170 328h102l-279 -492l123 -532h-98l-72 367q-12 58 -14 92h-4q-5 -13 -47 -94z" />
    <glyph glyph-name="uni0446" unicode="&#x446;" horiz-adv-x="745" 
d="M596 1024h96l-166 -938h92l-59 -342h-90l45 256h-483l180 1024h94l-164 -938h291z" />
    <glyph glyph-name="uni0447" unicode="&#x447;" horiz-adv-x="671" 
d="M457 522l90 502h94l-182 -1024h-94l77 434q-62 -26 -137 -26q-94 0 -151.5 53t-57.5 164q0 33 13 100l53 301h94l-51 -295q-10 -55 -10 -98q0 -73 35 -109.5t100 -36.5q74 0 127 35z" />
    <glyph glyph-name="uni0448" unicode="&#x448;" horiz-adv-x="1099" 
d="M807 86l168 938h94l-180 -1024h-858l180 1024h94l-164 -938h285l164 938h96l-166 -938h287z" />
    <glyph glyph-name="uni0449" unicode="&#x449;" horiz-adv-x="1122" 
d="M975 1024h94l-166 -938h92l-59 -342h-88l45 256h-862l180 1024h94l-164 -938h285l164 938h96l-166 -938h287z" />
    <glyph glyph-name="uni044A" unicode="&#x44a;" horiz-adv-x="757" 
d="M342 635h86q42 0 75 -4.5t65.5 -16t53 -31t37 -50t17.5 -73.5t-6 -100l-13 -69q-9 -55 -20 -93t-34.5 -78.5t-57 -64.5t-88.5 -39.5t-129 -15.5h-193l166 940h-203l15 84h297l-15 -84zM563 293l10 61q21 121 -19 163t-146 42h-80l-84 -483h86q53 0 92 11t62 27.5t39.5 47
t24 58.5t15.5 73z" />
    <glyph glyph-name="uni044B" unicode="&#x44b;" horiz-adv-x="653" 
d="M238 635h86q42 0 75 -4.5t65.5 -16t52.5 -31t36.5 -50t17.5 -73.5t-6 -100l-12 -69q-9 -55 -20 -93t-34.5 -78.5t-57.5 -64.5t-89 -39.5t-129 -15.5h-192l180 1024h94zM459 293l10 61q21 121 -19.5 163t-146.5 42h-80l-84 -483h86q53 0 92 11t63 28t40.5 46.5t24 58.5
t14.5 73z" />
    <glyph glyph-name="uni044C" unicode="&#x44c;" horiz-adv-x="653" 
d="M238 635h86q42 0 75 -4.5t65.5 -16t52.5 -31t36.5 -50t17.5 -73.5t-6 -100l-12 -69q-9 -55 -20 -93t-34.5 -78.5t-57.5 -64.5t-89 -39.5t-129 -15.5h-192l180 1024h94zM459 293l10 61q21 121 -19.5 163t-146.5 42h-80l-84 -483h86q53 0 92 11t63 28t40.5 46.5t24 58.5
t14.5 73z" />
    <glyph glyph-name="uni044D" unicode="&#x44d;" horiz-adv-x="665" 
d="M406 1049q135 0 189.5 -82t22.5 -258l-69 -400q-9 -55 -20.5 -97.5t-34 -89.5t-53.5 -77t-80.5 -50t-112.5 -20q-41 0 -75.5 8t-67.5 28.5t-51 54t-26.5 85t5.5 121.5l10 58l96 8l-10 -59q-39 -226 127 -226q44 0 77.5 16.5t51.5 36t33 60.5t20 64t13 72q1 7 2 11l30 172
h-245l12 74h248l26 146q25 142 -2.5 204t-118.5 62q-83 0 -125 -50t-63 -165l-10 -56l-92 9l8 49q47 291 285 291z" />
    <glyph glyph-name="uni044E" unicode="&#x44e;" horiz-adv-x="983" 
d="M266 1419h105l-39 -225h-105zM715 1049q126 0 190 -79.5t33 -262.5l-70 -390q-14 -80 -34 -137t-54.5 -106t-89 -74t-129.5 -25q-46 0 -83.5 10.5t-70.5 34.5t-50.5 63.5t-24 97.5t9.5 136l29 166h-158l-86 -483h-96l180 1024h96l-82 -465h160l27 148q14 80 33.5 137
t53.5 106t88 74t128 25zM770 311l72 402q44 252 -131 252q-41 0 -74 -15t-53.5 -37t-36.5 -57.5t-24.5 -67.5t-16.5 -75l-70 -402q-44 -252 131 -252q51 0 88 20.5t59 60t34 78t22 93.5z" />
    <glyph glyph-name="uni044F" unicode="&#x44f;" horiz-adv-x="671" 
d="M641 1024l-180 -1024h-94l75 432h-110h-19l-241 -432h-101l256 444q-154 45 -118 265l6 39q23 145 100 210.5t221 65.5h205zM352 508h105l75 440h-112q-99 0 -146.5 -48t-66.5 -161l-4 -30q-18 -108 15 -154.5t134 -46.5z" />
    <glyph glyph-name="uni0451" unicode="&#x451;" horiz-adv-x="669" 
d="M414 1049q131 0 185.5 -86t25.5 -246t-35 -199h-414l-33 -184q-25 -144 7.5 -209.5t117.5 -65.5q72 0 117 47.5t66 159.5l16 80l88 -14l-12 -74q-53 -283 -277 -283q-128 0 -188.5 91t-26.5 278l70 387q28 157 95.5 237.5t197.5 80.5zM532 735q39 238 -124 238
q-49 0 -83.5 -18t-56 -54.5t-33 -73.5t-22.5 -94l-25 -145h318q4 24 13 73t13 74z" />
    <glyph glyph-name="uni0454" unicode="&#x454;" horiz-adv-x="665" 
d="M414 1049q130 0 185.5 -85t27.5 -241l-2 -8l-99 -15l6 35q39 238 -124 238q-49 0 -83.5 -18t-56 -54.5t-33 -73.5t-22.5 -94l-31 -174h248l-14 -74h-246l-27 -151q-25 -144 7.5 -209.5t117.5 -65.5q72 0 117 47.5t66 159.5l14 72l90 -14l-12 -66q-53 -283 -277 -283
q-128 0 -188.5 91t-26.5 278l70 387q28 157 95.5 237.5t197.5 80.5z" />
    <glyph glyph-name="uni0455" unicode="&#x455;" horiz-adv-x="620" 
d="M246 -25q-126 0 -191 70t-37 213l13 66l98 16l-12 -78q-21 -109 18 -160t119 -51q58 0 97 34t55 118l10 53q7 42 8.5 77t-22 69t-76.5 63l-95 53q-142 77 -104 266l10 50q43 215 246 215q54 0 96 -13.5t73.5 -42t43 -80t0.5 -122.5l-12 -76l-99 -15l13 93
q26 180 -119 180q-60 0 -97 -33t-51 -109l-10 -51q-14 -67 3 -113.5t75 -82.5l100 -58q65 -36 95 -78t30 -88.5t-12 -105.5l-10 -53q-22 -109 -80.5 -167.5t-175.5 -58.5z" />
    <glyph glyph-name="uni0458" unicode="&#x458;" horiz-adv-x="335" 
d="M332 1194h-105l39 225h105zM-98 -414q-43 0 -82 13l14 86q27 -9 57 -9q47 0 69 24.5t30 72.5l221 1251h94l-223 -1270q-13 -78 -57.5 -123t-122.5 -45z" />
    <glyph glyph-name="Wgrave" unicode="&#x1e80;" horiz-adv-x="1157" 
d="M295 0h-137l63 1454h98l-55 -1110q-3 -54 -20 -240h4q28 110 71 240l363 1110h123l-29 -1110q-2 -85 -14 -240h6q28 136 61 240l338 1110h101l-449 -1454h-139l33 1155q1 34 8 106t8 89h-6q-21 -102 -53 -195z" />
    <glyph glyph-name="wgrave" unicode="&#x1e81;" horiz-adv-x="964" 
d="M240 0h-107l2 1024h94l-20 -809q0 -5 -2 -44t-4 -60h4q2 8 33 104l276 809h109l-9 -809q0 -69 -2 -104h4q5 30 29 104l264 809h99l-359 -1024h-104l4 823q0 35 8 105h-4q-19 -66 -33 -105z" />
    <glyph glyph-name="Wacute" unicode="&#x1e82;" horiz-adv-x="1157" 
d="M295 0h-137l63 1454h98l-55 -1110q-3 -54 -20 -240h4q28 110 71 240l363 1110h123l-29 -1110q-2 -85 -14 -240h6q28 136 61 240l338 1110h101l-449 -1454h-139l33 1155q1 34 8 106t8 89h-6q-21 -102 -53 -195z" />
    <glyph glyph-name="wacute" unicode="&#x1e83;" horiz-adv-x="964" 
d="M240 0h-107l2 1024h94l-20 -809q0 -5 -2 -44t-4 -60h4q2 8 33 104l276 809h109l-9 -809q0 -69 -2 -104h4q5 30 29 104l264 809h99l-359 -1024h-104l4 823q0 35 8 105h-4q-19 -66 -33 -105z" />
    <glyph glyph-name="Wdieresis" unicode="&#x1e84;" horiz-adv-x="1157" 
d="M295 0h-137l63 1454h98l-55 -1110q-3 -54 -20 -240h4q28 110 71 240l363 1110h123l-29 -1110q-2 -85 -14 -240h6q28 136 61 240l338 1110h101l-449 -1454h-139l33 1155q1 34 8 106t8 89h-6q-21 -102 -53 -195z" />
    <glyph glyph-name="wdieresis" unicode="&#x1e85;" horiz-adv-x="964" 
d="M240 0h-107l2 1024h94l-20 -809q0 -5 -2 -44t-4 -60h4q2 8 33 104l276 809h109l-9 -809q0 -69 -2 -104h4q5 30 29 104l264 809h99l-359 -1024h-104l4 823q0 35 8 105h-4q-19 -66 -33 -105z" />
    <glyph glyph-name="Ygrave" unicode="&#x1ef2;" horiz-adv-x="731" 
d="M326 0h-99l113 639l-160 815h107l100 -592q12 -86 12 -121h4q23 61 58 121l309 592h113l-443 -815z" />
    <glyph glyph-name="ygrave" unicode="&#x1ef3;" horiz-adv-x="634" 
d="M-41 -410q-35 0 -68 11l15 90q20 -10 61 -10q54 0 90 33t68 116l61 160l-69 1034h100l33 -788q4 -101 0 -132h4q2 10 41 117l301 803h102l-489 -1217q-51 -127 -108.5 -172t-141.5 -45z" />
    </font>
</defs>
</svg>
