<?xml version="1.0" standalone="no"?>
<!DOCTYPE svg PUBLIC "-//W3C//DTD SVG 1.1//EN" "http://www.w3.org/Graphics/SVG/1.1/DTD/svg11.dtd" >
<svg xmlns="http://www.w3.org/2000/svg" xmlns:xlink="http://www.w3.org/1999/xlink" version="1.1">
<metadata>
Created by FontForge 20170731 at Wed Apr 20 08:50:55 2022
 By Aleksey,,,
Copyright (c) 2016 by Grilli Type. All rights reserved.
</metadata>
<defs>
<font id="GTAmericaTrial-CmBd" horiz-adv-x="854" >
  <font-face 
    font-family="GT America Trial Cm Bd"
    font-weight="700"
    font-stretch="ultra-condensed"
    units-per-em="2048"
    panose-1="0 0 8 8 0 0 0 0 0 0"
    ascent="1608"
    descent="-440"
    x-height="1024"
    cap-height="1454"
    bbox="-31 -424 1800 1567"
    underline-thickness="102"
    underline-position="-307"
    unicode-range="U+0020-1EF3"
  />
<missing-glyph horiz-adv-x="1126" 
d="M1024 0h-922v1434h922v-1434zM371 821v-4q0 -25 -18.5 -46t-55.5 -21q-41 0 -62.5 28t-21.5 80q0 51 21.5 82t60.5 31q49 0 63 -47l62 24q-29 80 -123 80q-72 0 -112 -47t-40 -121q0 -72 37.5 -119t100.5 -47q65 0 88 41l8 -35h47v179h-137v-58h82zM682 1024h-66v-59h66
v59zM711 700h59v324h-59v-324zM803 700h61v324h-61v-324zM963 1024h-66v-59h66v59zM604 872v56q-12 4 -22 4q-38 0 -64 -43v37h-55v-226h59v103q0 31 15 51t47 20q14 0 20 -2zM680 926h-62v-226h62v226zM961 926h-62v-226h62v226zM623 571v62h-66v-62h66zM874 633v-324h60
v324h-60zM424 629h-242v-60h90v-260h62v260h90v60zM545 479v58q-6 2 -21 2q-42 0 -61 -43v36h-57v-223h61v101q0 71 57 71q13 0 21 -2zM788 309h60q-6 30 -6 43v82q0 55 -20.5 80t-73.5 25q-50 0 -76.5 -20t-28.5 -56h59q3 31 43 31q22 0 29.5 -11t7.5 -34q-62 -5 -102 -17
q-43 -17 -43 -59q0 -32 22 -51t56 -19q51 0 71 39q0 -23 2 -33zM621 309v223h-62v-223h62zM745 408l37 4v-6q0 -27 -13.5 -42.5t-35.5 -15.5q-16 0 -25.5 8t-9.5 19q0 27 47 33z" />
    <glyph glyph-name=".notdef" horiz-adv-x="1126" 
d="M1024 0h-922v1434h922v-1434zM371 821v-4q0 -25 -18.5 -46t-55.5 -21q-41 0 -62.5 28t-21.5 80q0 51 21.5 82t60.5 31q49 0 63 -47l62 24q-29 80 -123 80q-72 0 -112 -47t-40 -121q0 -72 37.5 -119t100.5 -47q65 0 88 41l8 -35h47v179h-137v-58h82zM682 1024h-66v-59h66
v59zM711 700h59v324h-59v-324zM803 700h61v324h-61v-324zM963 1024h-66v-59h66v59zM604 872v56q-12 4 -22 4q-38 0 -64 -43v37h-55v-226h59v103q0 31 15 51t47 20q14 0 20 -2zM680 926h-62v-226h62v226zM961 926h-62v-226h62v226zM623 571v62h-66v-62h66zM874 633v-324h60
v324h-60zM424 629h-242v-60h90v-260h62v260h90v60zM545 479v58q-6 2 -21 2q-42 0 -61 -43v36h-57v-223h61v101q0 71 57 71q13 0 21 -2zM788 309h60q-6 30 -6 43v82q0 55 -20.5 80t-73.5 25q-50 0 -76.5 -20t-28.5 -56h59q3 31 43 31q22 0 29.5 -11t7.5 -34q-62 -5 -102 -17
q-43 -17 -43 -59q0 -32 22 -51t56 -19q51 0 71 39q0 -23 2 -33zM621 309v223h-62v-223h62zM745 408l37 4v-6q0 -27 -13.5 -42.5t-35.5 -15.5q-16 0 -25.5 8t-9.5 19q0 27 47 33z" />
    <glyph glyph-name=".null" horiz-adv-x="0" 
 />
    <glyph glyph-name=".null" horiz-adv-x="0" 
 />
    <glyph glyph-name="nonmarkingreturn" horiz-adv-x="682" 
 />
    <glyph glyph-name="space" unicode=" " horiz-adv-x="342" 
 />
    <glyph glyph-name="comma" unicode="," horiz-adv-x="430" 
d="M145 -319l-69 139q66 28 87 65t21 107v8h-110v332h280v-309q0 -135 -49.5 -218.5t-159.5 -123.5z" />
    <glyph glyph-name="hyphen" unicode="-" horiz-adv-x="618" 
d="M66 440v258h489v-258h-489z" />
    <glyph glyph-name="period" unicode="." horiz-adv-x="432" 
d="M76 332h280v-332h-280v332z" />
    <glyph glyph-name="zero" unicode="0" horiz-adv-x="956" 
d="M477 -31q-194 0 -301.5 118t-107.5 345v559q0 227 107.5 345t301.5 118q195 0 304.5 -118t109.5 -345v-559q0 -227 -109.5 -345t-304.5 -118zM477 184q133 0 133 211v631q0 213 -133 213q-63 0 -97 -53t-34 -158v-631q0 -107 34 -160t97 -53z" />
    <glyph glyph-name="one" unicode="1" horiz-adv-x="655" 
d="M524 0h-274v1020q-61 -55 -193 -55h-30v264h22q92 0 159.5 50t94.5 144h221v-1423z" />
    <glyph glyph-name="two" unicode="2" horiz-adv-x="870" 
d="M827 0h-788v205q270 316 375 479q63 97 92 184t29 183v43q0 143 -109 143t-109 -156v-143l-278 35v104q0 178 105.5 277.5t291.5 99.5q196 0 291.5 -84t95.5 -270v-56q0 -190 -147 -415q-54 -85 -123.5 -172t-198.5 -234h473v-223z" />
    <glyph glyph-name="three" unicode="3" horiz-adv-x="866" 
d="M434 -31q-202 0 -300.5 95t-98.5 305v65l276 33v-86q0 -106 28.5 -151.5t90.5 -45.5q57 0 85 44t28 137v63q0 104 -35 151.5t-111 47.5h-49v215h49q138 0 138 196v52q0 81 -27 116t-82 35q-58 0 -84.5 -41.5t-26.5 -138.5v-103l-278 37v72q0 194 101.5 290.5t291.5 96.5
q383 0 383 -350v-53q0 -118 -53 -201.5t-156 -108.5q110 -14 164.5 -94.5t54.5 -206.5v-78q0 -192 -100.5 -292.5t-288.5 -100.5z" />
    <glyph glyph-name="four" unicode="4" horiz-adv-x="907" 
d="M881 526v-215h-146v-311h-268v311h-447v205l392 907h323v-897h146zM469 526v424q0 96 6 176h-2q-14 -67 -57 -172l-125 -313q-23 -66 -55 -115h233z" />
    <glyph glyph-name="five" unicode="5" horiz-adv-x="868" 
d="M434 -31q-183 0 -287 94.5t-104 262.5v59l279 31v-62q0 -174 114 -174q60 0 88.5 48.5t28.5 154.5v164q0 108 -27 155.5t-86 47.5q-103 0 -125 -140l-252 23l41 790h672v-227h-454l-21 -358q33 61 93 94t141 33q147 0 221.5 -99t74.5 -291v-188q0 -207 -101 -312.5
t-296 -105.5z" />
    <glyph glyph-name="six" unicode="6" horiz-adv-x="890" 
d="M539 963q154 0 232.5 -96t78.5 -285v-193q0 -198 -99.5 -309t-289.5 -111q-212 0 -309 126t-97 390v486q0 483 408 483q377 0 377 -321v-50l-275 -36v53q0 151 -106 151q-69 0 -99 -58.5t-30 -195.5v-133q71 99 209 99zM573 383v186q0 183 -118 183q-87 0 -125 -103v-229
q0 -130 31 -186t96 -56q116 0 116 205z" />
    <glyph glyph-name="seven" unicode="7" horiz-adv-x="776" 
d="M463 0h-285v76q3 613 311 1116h-473v231h742v-188q-292 -430 -295 -1063v-172z" />
    <glyph glyph-name="eight" unicode="8" horiz-adv-x="890" 
d="M662 764q98 -48 143 -124t45 -200v-94q0 -173 -109 -275t-295 -102q-192 0 -298.5 98.5t-106.5 276.5v100q0 96 49.5 166t142.5 107q-88 47 -131 120.5t-43 188.5v80q0 159 104.5 253.5t278.5 94.5q178 0 279.5 -90.5t101.5 -251.5v-88q0 -91 -38.5 -153.5t-122.5 -106.5
zM328 1118v-112q0 -61 31 -96.5t98 -61.5l22 -8q41 25 59.5 62t18.5 95v119q0 148 -115 148q-114 0 -114 -146zM571 330v133q0 70 -29 105t-106 65l-24 10q-51 -26 -72 -65.5t-21 -106.5v-139q0 -156 130 -156q122 0 122 154z" />
    <glyph glyph-name="nine" unicode="9" horiz-adv-x="886" 
d="M434 1454q211 0 305.5 -116t94.5 -375v-512q0 -253 -99 -367.5t-303 -114.5q-181 0 -281 91t-100 251v54l273 43v-64q0 -80 30 -126t84 -46q67 0 93 56t28 196v168q-71 -80 -203 -80q-313 0 -313 373v159q0 197 99.5 303.5t291.5 106.5zM436 723q85 0 123 94v221
q0 111 -31 162t-94 51q-60 0 -89.5 -46t-29.5 -148v-158q0 -176 121 -176z" />
    <glyph glyph-name="A" unicode="A" horiz-adv-x="972" 
d="M956 0h-286l-54 340h-262l-53 -340h-285l283 1454h373zM457 1006l-72 -459h201l-72 459q-14 96 -25 206h-6q-9 -85 -26 -206z" />
    <glyph glyph-name="B" unicode="B" horiz-adv-x="980" 
d="M711 768q204 -67 204 -330v-43q0 -189 -101 -292t-300 -103h-410v1454h400q197 0 296 -95t99 -263v-49q0 -106 -50 -179.5t-138 -99.5zM469 1257h-82v-421h82q75 0 107 49t32 155v47q0 89 -32.5 129.5t-106.5 40.5zM625 399v52q0 108 -35 156t-111 48h-92v-458h98
q74 0 107 50t33 152z" />
    <glyph glyph-name="C" unicode="C" horiz-adv-x="978" 
d="M496 -35q-210 0 -319 114.5t-109 340.5v616q0 222 112 337.5t322 115.5q202 0 309 -100t107 -297v-148l-295 -55v194q0 183 -127 183q-136 0 -136 -205v-658q0 -104 35 -158.5t103 -54.5q62 0 94.5 47t32.5 136v217l290 -60v-157q0 -198 -110 -303t-309 -105z" />
    <glyph glyph-name="D" unicode="D" horiz-adv-x="1024" 
d="M485 0h-381v1454h385q227 0 347 -128.5t120 -373.5v-430q0 -256 -120 -389t-351 -133zM387 1247v-1040h88q189 0 189 295v463q0 147 -45 214.5t-144 67.5h-88z" />
    <glyph glyph-name="E" unicode="E" horiz-adv-x="821" 
d="M387 639v-420h393v-219h-676v1454h662v-219h-379v-377h350v-219h-350z" />
    <glyph glyph-name="F" unicode="F" horiz-adv-x="782" 
d="M766 1454v-221h-379v-377h350v-219h-350v-637h-283v1454h662z" />
    <glyph glyph-name="G" unicode="G" horiz-adv-x="999" 
d="M410 -35q-167 0 -254.5 119.5t-87.5 343.5v578q0 231 113.5 357t324.5 126q197 0 304.5 -99t107.5 -278v-113l-293 -53v158q0 172 -125 172q-140 0 -140 -227v-633q0 -110 37.5 -170t108.5 -60q72 0 106.5 56t34.5 153v185h-162v217h433v-797h-205l-13 207
q-26 -113 -99.5 -177.5t-190.5 -64.5z" />
    <glyph glyph-name="H" unicode="H" horiz-adv-x="1040" 
d="M653 1454h283v-1454h-283v633h-266v-633h-283v1454h283v-602h266v602z" />
    <glyph glyph-name="I" unicode="I" horiz-adv-x="491" 
d="M387 1454v-1454h-283v1454h283z" />
    <glyph glyph-name="J" unicode="J" horiz-adv-x="589" 
d="M498 1454v-1151q0 -328 -348 -328q-75 0 -138 13v250q52 -9 82 -9q53 0 87 32t34 106v1087h283z" />
    <glyph glyph-name="K" unicode="K" horiz-adv-x="989" 
d="M973 0h-303l-176 651l-107 -231v-420h-283v1454h283v-684l281 684h293l-261 -563z" />
    <glyph glyph-name="L" unicode="L" horiz-adv-x="763" 
d="M745 0h-641v1454h283v-1204h358v-250z" />
    <glyph glyph-name="M" unicode="M" horiz-adv-x="1267" 
d="M344 0h-240v1454h381l123 -756q23 -179 23 -213h8q2 47 23 213l122 756h381v-1454h-243v731q0 278 4 395h-8q-5 -56 -29 -215l-152 -911h-207l-155 911q-24 187 -27 215h-10q6 -117 6 -395v-731z" />
    <glyph glyph-name="N" unicode="N" horiz-adv-x="1058" 
d="M354 0h-250v1454h304l243 -706q38 -119 60 -218h6q-10 132 -10 322v602h249v-1454h-276l-266 766q-40 120 -64 229h-6q10 -157 10 -282v-713z" />
    <glyph glyph-name="O" unicode="O" horiz-adv-x="1019" 
d="M510 -35q-210 0 -326 119.5t-116 341.5v602q0 222 116 341.5t326 119.5t326 -119.5t116 -341.5v-602q0 -222 -116 -341.5t-326 -119.5zM510 188q71 0 110 52.5t39 150.5v672q0 98 -39 150.5t-110 52.5q-72 0 -111 -52.5t-39 -150.5v-672q0 -98 39 -150.5t111 -52.5z" />
    <glyph glyph-name="P" unicode="P" horiz-adv-x="929" 
d="M104 1454h398q202 0 305.5 -94t105.5 -279v-120q0 -195 -104.5 -299.5t-300.5 -104.5h-121v-557h-283v1454zM618 965v106q0 98 -34 142t-111 44h-86v-499h88q74 0 108.5 49.5t34.5 157.5z" />
    <glyph glyph-name="Q" unicode="Q" horiz-adv-x="1019" 
d="M952 1028v-602q0 -160 -61 -267t-176 -157q45 -22 121 -22q55 0 96 10v-234q-52 -12 -117 -12q-115 0 -196.5 57.5t-118.5 163.5q-205 3 -318.5 122.5t-113.5 338.5v602q0 222 116 341.5t326 119.5t326 -119.5t116 -341.5zM360 1063v-672q0 -98 39 -150.5t111 -52.5
q71 0 110 52.5t39 150.5v672q0 98 -39 150.5t-110 52.5q-72 0 -111 -52.5t-39 -150.5z" />
    <glyph glyph-name="R" unicode="R" horiz-adv-x="974" 
d="M946 0h-297l-160 592h-102v-592h-283v1454h388q219 0 320 -99.5t101 -289.5v-70q0 -251 -172 -338zM387 1257v-483h84q82 0 116 49.5t34 157.5v92q0 100 -34 142t-116 42h-84z" />
    <glyph glyph-name="S" unicode="S" horiz-adv-x="905" 
d="M453 -35q-194 0 -302 106.5t-108 290.5v117l289 56v-166q0 -185 123 -185q59 0 87.5 39t28.5 103v59q0 72 -20.5 112.5t-87.5 82.5l-207 127q-109 65 -154 148.5t-45 203.5v76q0 115 53.5 196.5t142 119.5t202.5 38q197 0 301 -87.5t104 -285.5v-106l-285 -54v156
q0 162 -120 162q-52 0 -81.5 -34.5t-29.5 -88.5v-66q0 -107 105 -172l206 -127q118 -72 162.5 -153.5t44.5 -202.5v-111q0 -161 -106.5 -257.5t-302.5 -96.5z" />
    <glyph glyph-name="T" unicode="T" horiz-adv-x="845" 
d="M4 1454h838v-242h-279v-1212h-280v1212h-279v242z" />
    <glyph glyph-name="U" unicode="U" horiz-adv-x="1013" 
d="M92 354v1100h285v-1087q0 -78 33.5 -120t97.5 -42q62 0 96.5 42t34.5 120v1087h283v-1100q0 -182 -108 -285.5t-306 -103.5q-199 0 -307.5 103.5t-108.5 285.5z" />
    <glyph glyph-name="V" unicode="V" horiz-adv-x="937" 
d="M651 0h-362l-279 1454h295l137 -948q18 -144 23 -246h10q6 112 25 246l135 948h293z" />
    <glyph glyph-name="W" unicode="W" horiz-adv-x="1314" 
d="M537 0h-332l-168 1454h262l76 -893q10 -180 10 -237h10q3 38 10.5 111t10.5 108l104 911h273l106 -911q9 -108 21 -219h8q0 57 10 237l76 893h262l-166 -1454h-334l-98 829q-4 38 -16 252h-11q-4 -141 -16 -252z" />
    <glyph glyph-name="X" unicode="X" horiz-adv-x="935" 
d="M311 0h-299l254 772l-235 682h299l104 -367q12 -47 31 -178h4q15 121 31 178l108 367h293l-229 -684l252 -770h-301l-127 469q-17 65 -29 176h-4q-8 -78 -29 -176z" />
    <glyph glyph-name="Y" unicode="Y" horiz-adv-x="905" 
d="M596 0h-283v522l-309 932h295l125 -485q20 -81 29 -193h6q14 128 28 193l119 485h295l-305 -932v-522z" />
    <glyph glyph-name="Z" unicode="Z" horiz-adv-x="806" 
d="M35 0v211l426 1003h-410v240h713v-207l-422 -1007h440v-240h-747z" />
    <glyph glyph-name="a" unicode="a" 
d="M287 -25q-111 0 -178.5 66.5t-67.5 183.5v76q0 62 22.5 116t63.5 89q69 60 221 94l150 35v125q0 56 -19.5 81t-60.5 25q-84 0 -84 -106v-86h-268v71q0 150 93 227t261 77q180 0 263 -74.5t83 -241.5v-500q0 -152 16 -233h-256q-12 110 -10 154q-14 -79 -76 -129t-153 -50
zM401 164q44 0 71.5 33.5t27.5 93.5v196l-80 -20q-96 -26 -96 -154v-39q0 -110 77 -110z" />
    <glyph glyph-name="b" unicode="b" horiz-adv-x="913" 
d="M578 -25q-80 0 -137 41.5t-83 122.5l-22 -139h-236v1485h269v-604q27 78 84.5 123t142.5 45q120 0 186 -93.5t66 -267.5v-303q0 -201 -68.5 -305.5t-201.5 -104.5zM465 176q51 0 75.5 44t24.5 138v316q0 174 -100 174q-98 0 -98 -170v-328q0 -90 23.5 -132t74.5 -42z" />
    <glyph glyph-name="c" unicode="c" horiz-adv-x="837" 
d="M434 -25q-177 0 -277 100.5t-100 278.5v303q0 195 96.5 293.5t280.5 98.5q175 0 266 -82.5t91 -247.5v-66l-271 -43v95q0 78 -21.5 112.5t-66.5 34.5q-48 0 -71 -38t-23 -126v-344q0 -90 23 -131t71 -41q88 0 88 156v102l271 -51v-68q0 -159 -95.5 -247.5t-261.5 -88.5z
" />
    <glyph glyph-name="d" unicode="d" horiz-adv-x="913" 
d="M330 -25q-123 0 -192.5 101t-69.5 278v303q0 192 69.5 292t198.5 100q162 0 211 -158v594h268v-1485h-256v150q-68 -175 -229 -175zM449 176q51 0 75.5 43t24.5 133v322q0 90 -24.5 132t-75.5 42q-101 0 -101 -180v-301q0 -191 101 -191z" />
    <glyph glyph-name="e" unicode="e" 
d="M797 662v-193h-461v-145q0 -152 100 -152q94 0 94 166v41l267 -37v-45q0 -152 -99.5 -237t-265.5 -85q-177 0 -276 97t-99 270v313q0 193 96 293.5t279 100.5q365 0 365 -387zM428 887q-92 0 -92 -152v-125h182v95q0 101 -21.5 141.5t-68.5 40.5z" />
    <glyph glyph-name="f" unicode="f" horiz-adv-x="577" 
d="M406 1024h157v-186h-157v-838h-269v838h-112v186h112v158q0 315 318 315q59 0 108 -8v-211q-10 1 -21 2t-18 1.5t-14 0.5q-54 0 -79 -29t-25 -92v-137z" />
    <glyph glyph-name="g" unicode="g" horiz-adv-x="796" 
d="M346 240l193 -41q254 -47 254 -262v-50q0 -145 -106.5 -228t-297.5 -83q-171 0 -267.5 63t-96.5 171v22q0 67 39.5 116.5t113.5 74.5q-123 54 -123 176q0 67 39.5 113t106.5 61q-158 73 -158 276v86q0 151 89 232.5t255 81.5q84 0 145 -21q19 82 71.5 126t135.5 44
q25 0 49 -6v-199q-50 11 -79 11q-42 0 -86 -21q106 -80 106 -248v-86q0 -151 -88 -231t-254 -80q-53 0 -111 10q-18 -12 -18 -43q0 -26 19 -40t69 -25zM297 778v-172q0 -59 23.5 -90t66.5 -31q88 0 88 121v172q0 60 -22.5 92.5t-65.5 32.5t-66.5 -32.5t-23.5 -92.5z
M553 -156v27q0 43 -25.5 66t-76.5 32l-177 29q-24 -30 -24 -88v-35q0 -143 151 -143q152 0 152 112z" />
    <glyph glyph-name="h" unicode="h" horiz-adv-x="911" 
d="M369 0h-269v1485h269v-623q28 91 88.5 139t148.5 48q111 0 164 -71t53 -220v-758h-274v719q0 66 -19.5 97.5t-62.5 31.5q-52 0 -75 -47t-23 -152v-649z" />
    <glyph glyph-name="i" unicode="i" horiz-adv-x="458" 
d="M367 1169h-275v277h275v-277zM360 0h-260v1024h260v-1024z" />
    <glyph glyph-name="j" unicode="j" horiz-adv-x="468" 
d="M367 1169h-275v277h275v-277zM84 -414q-65 0 -115 11v217q40 -4 56 -4q40 0 57.5 22.5t17.5 73.5v1118h269v-1137q0 -79 -13 -132.5t-45 -93t-87.5 -57.5t-139.5 -18z" />
    <glyph glyph-name="k" unicode="k" horiz-adv-x="892" 
d="M872 0h-286l-135 467l-82 -172v-295h-269v1485h269v-918l209 457h288l-211 -377z" />
    <glyph glyph-name="l" unicode="l" horiz-adv-x="466" 
d="M100 1485h269v-1485h-269v1485z" />
    <glyph glyph-name="m" unicode="m" horiz-adv-x="1318" 
d="M100 0v1024h258v-162q58 187 226 187q82 0 131 -44.5t71 -136.5q64 181 228 181q219 0 219 -291v-758h-270v721q0 127 -76 127q-88 0 -88 -170v-678h-269v721q0 127 -73 127q-46 0 -67 -40.5t-21 -127.5v-680h-269z" />
    <glyph glyph-name="n" unicode="n" horiz-adv-x="911" 
d="M369 0h-269v1024h258v-170q59 195 244 195q114 0 167.5 -70t53.5 -221v-758h-274v717q0 69 -19.5 100t-62.5 31q-51 0 -74.5 -46t-23.5 -147v-655z" />
    <glyph glyph-name="o" unicode="o" horiz-adv-x="874" 
d="M436 -25q-179 0 -279 99.5t-100 287.5v300q0 188 100 287.5t279 99.5q181 0 281 -99.5t100 -287.5v-300q0 -188 -100 -287.5t-281 -99.5zM436 164q52 0 76.5 40t24.5 130v356q0 90 -24.5 130t-76.5 40q-50 0 -74 -40t-24 -130v-356q0 -90 24 -130t74 -40z" />
    <glyph glyph-name="p" unicode="p" horiz-adv-x="913" 
d="M369 -399h-269v1423h258v-154q29 87 90 133t144 46q124 0 190 -92t66 -263v-327q0 -187 -69.5 -289.5t-194.5 -102.5q-161 0 -215 152v-526zM465 176q100 0 100 191v301q0 94 -23.5 137t-74.5 43q-52 0 -76 -42.5t-24 -135.5v-314q0 -96 23 -138t75 -42z" />
    <glyph glyph-name="q" unicode="q" horiz-adv-x="913" 
d="M815 -399h-270v540q-36 -84 -89 -125t-132 -41q-120 0 -188 96t-68 267v330q0 190 68 285.5t196 95.5q85 0 143.5 -42.5t83.5 -121.5l25 139h231v-1423zM449 176q51 0 75.5 42.5t24.5 135.5v322q0 172 -100 172q-52 0 -76.5 -43t-24.5 -137v-301q0 -99 24.5 -145
t76.5 -46z" />
    <glyph glyph-name="r" unicode="r" horiz-adv-x="620" 
d="M348 1024v-225q19 108 79 179t159 71q10 0 18 -2v-285q-36 4 -61 4q-82 0 -133 -66q-41 -54 -41 -188v-512h-269v1024h248z" />
    <glyph glyph-name="s" unicode="s" horiz-adv-x="796" 
d="M401 -25q-164 0 -259 68.5t-95 194.5v73l270 39v-82q0 -110 86 -110q76 0 76 82v51q0 44 -17.5 71t-62.5 41l-145 39q-199 58 -199 260v86q0 120 90 190.5t250 70.5q158 0 250 -67t92 -191v-58l-262 -35v78q0 98 -76 98q-33 0 -53 -19t-20 -60v-45q0 -47 15.5 -75.5
t66.5 -45.5l139 -43q108 -36 155.5 -93.5t47.5 -146.5v-96q0 -120 -94 -197.5t-255 -77.5z" />
    <glyph glyph-name="t" unicode="t" horiz-adv-x="606" 
d="M133 838h-119v186h119v233l268 91v-324h168v-186h-168v-496q0 -123 107 -123q27 0 67 4v-227q-65 -14 -151 -14q-152 0 -221.5 70t-69.5 218v568z" />
    <glyph glyph-name="u" unicode="u" horiz-adv-x="913" 
d="M319 -25q-125 0 -178 77t-53 224v748h274v-715q0 -129 84 -129q97 0 97 174v670h270v-1024h-258v160q-60 -185 -236 -185z" />
    <glyph glyph-name="v" unicode="v" horiz-adv-x="796" 
d="M559 0h-319l-236 1024h281l86 -596q21 -156 24 -188h8q3 36 11 95.5t12 92.5l88 596h279z" />
    <glyph glyph-name="w" unicode="w" horiz-adv-x="1171" 
d="M483 0h-295l-176 1024h264l64 -618q4 -58 8 -158h8q3 79 15 158l86 618h258l86 -618q12 -105 14 -158h6q4 100 8 158l64 618h266l-178 -1024h-293l-88 610q-3 21 -10 174h-8q-7 -141 -11 -174z" />
    <glyph glyph-name="x" unicode="x" horiz-adv-x="817" 
d="M291 0h-287l229 539l-208 485h282l70 -217q28 -85 31 -125h6q2 21 6.5 41.5t13 48.5t10.5 35l66 217h281l-207 -487l229 -537h-291l-82 252q-29 92 -30 119h-7q-5 -34 -32 -119z" />
    <glyph glyph-name="y" unicode="y" horiz-adv-x="804" 
d="M131 -410q-37 0 -84 7v221q30 -6 55 -6q65 0 102 29.5t52 92.5l12 52l-264 1038h293l92 -580q14 -102 21 -241h6q5 129 20 237l84 584h281l-248 -1085q-42 -187 -144.5 -268t-277.5 -81z" />
    <glyph glyph-name="z" unicode="z" horiz-adv-x="696" 
d="M29 0v174l333 653h-315v197h604v-170l-332 -655h353v-199h-643z" />
    <glyph glyph-name="ordfeminine" unicode="&#xaa;" 
d="M287 -25q-111 0 -178.5 66.5t-67.5 183.5v76q0 62 22.5 116t63.5 89q69 60 221 94l150 35v125q0 56 -19.5 81t-60.5 25q-84 0 -84 -106v-86h-268v71q0 150 93 227t261 77q180 0 263 -74.5t83 -241.5v-500q0 -152 16 -233h-256q-12 110 -10 154q-14 -79 -76 -129t-153 -50
zM401 164q44 0 71.5 33.5t27.5 93.5v196l-80 -20q-96 -26 -96 -154v-39q0 -110 77 -110z" />
    <glyph glyph-name="ordmasculine" unicode="&#xba;" horiz-adv-x="874" 
d="M436 -25q-179 0 -279 99.5t-100 287.5v300q0 188 100 287.5t279 99.5q181 0 281 -99.5t100 -287.5v-300q0 -188 -100 -287.5t-281 -99.5zM436 164q52 0 76.5 40t24.5 130v356q0 90 -24.5 130t-76.5 40q-50 0 -74 -40t-24 -130v-356q0 -90 24 -130t74 -40z" />
    <glyph glyph-name="Agrave" unicode="&#xc0;" horiz-adv-x="972" 
d="M956 0h-286l-54 340h-262l-53 -340h-285l283 1454h373zM457 1006l-72 -459h201l-72 459q-14 96 -25 206h-6q-9 -85 -26 -206z" />
    <glyph glyph-name="Aacute" unicode="&#xc1;" horiz-adv-x="972" 
d="M956 0h-286l-54 340h-262l-53 -340h-285l283 1454h373zM457 1006l-72 -459h201l-72 459q-14 96 -25 206h-6q-9 -85 -26 -206z" />
    <glyph glyph-name="Acircumflex" unicode="&#xc2;" horiz-adv-x="972" 
d="M956 0h-286l-54 340h-262l-53 -340h-285l283 1454h373zM457 1006l-72 -459h201l-72 459q-14 96 -25 206h-6q-9 -85 -26 -206z" />
    <glyph glyph-name="Atilde" unicode="&#xc3;" horiz-adv-x="972" 
d="M956 0h-286l-54 340h-262l-53 -340h-285l283 1454h373zM457 1006l-72 -459h201l-72 459q-14 96 -25 206h-6q-9 -85 -26 -206z" />
    <glyph glyph-name="Adieresis" unicode="&#xc4;" horiz-adv-x="972" 
d="M956 0h-286l-54 340h-262l-53 -340h-285l283 1454h373zM457 1006l-72 -459h201l-72 459q-14 96 -25 206h-6q-9 -85 -26 -206z" />
    <glyph glyph-name="Aring" unicode="&#xc5;" horiz-adv-x="972" 
d="M956 0h-286l-54 340h-262l-53 -340h-285l283 1454h373zM457 1006l-72 -459h201l-72 459q-14 96 -25 206h-6q-9 -85 -26 -206z" />
    <glyph glyph-name="AE" unicode="&#xc6;" horiz-adv-x="1794" 
d="M16 0l283 1454h373l284 -1454h-286l-54 340h-262l-53 -340h-285zM1360 639v-420h393v-219h-676v1454h662v-219h-379v-377h350v-219h-350zM457 1006l-72 -459h201l-72 459q-14 96 -25 206h-6q-9 -85 -26 -206z" />
    <glyph glyph-name="Ccedilla" unicode="&#xc7;" horiz-adv-x="978" 
d="M496 -35q-210 0 -319 114.5t-109 340.5v616q0 222 112 337.5t322 115.5q202 0 309 -100t107 -297v-148l-295 -55v194q0 183 -127 183q-136 0 -136 -205v-658q0 -104 35 -158.5t103 -54.5q62 0 94.5 47t32.5 136v217l290 -60v-157q0 -198 -110 -303t-309 -105z" />
    <glyph glyph-name="Egrave" unicode="&#xc8;" horiz-adv-x="821" 
d="M387 639v-420h393v-219h-676v1454h662v-219h-379v-377h350v-219h-350z" />
    <glyph glyph-name="Eacute" unicode="&#xc9;" horiz-adv-x="821" 
d="M387 639v-420h393v-219h-676v1454h662v-219h-379v-377h350v-219h-350z" />
    <glyph glyph-name="Ecircumflex" unicode="&#xca;" horiz-adv-x="821" 
d="M387 639v-420h393v-219h-676v1454h662v-219h-379v-377h350v-219h-350z" />
    <glyph glyph-name="Edieresis" unicode="&#xcb;" horiz-adv-x="821" 
d="M387 639v-420h393v-219h-676v1454h662v-219h-379v-377h350v-219h-350z" />
    <glyph glyph-name="Igrave" unicode="&#xcc;" horiz-adv-x="491" 
d="M387 1454v-1454h-283v1454h283z" />
    <glyph glyph-name="Iacute" unicode="&#xcd;" horiz-adv-x="491" 
d="M387 1454v-1454h-283v1454h283z" />
    <glyph glyph-name="Icircumflex" unicode="&#xce;" horiz-adv-x="491" 
d="M387 1454v-1454h-283v1454h283z" />
    <glyph glyph-name="Idieresis" unicode="&#xcf;" horiz-adv-x="491" 
d="M387 1454v-1454h-283v1454h283z" />
    <glyph glyph-name="Eth" unicode="&#xd0;" horiz-adv-x="1024" 
d="M485 0h-381v1454h385q227 0 347 -128.5t120 -373.5v-430q0 -256 -120 -389t-351 -133zM387 1247v-1040h88q189 0 189 295v463q0 147 -45 214.5t-144 67.5h-88z" />
    <glyph glyph-name="Ntilde" unicode="&#xd1;" horiz-adv-x="1058" 
d="M354 0h-250v1454h304l243 -706q38 -119 60 -218h6q-10 132 -10 322v602h249v-1454h-276l-266 766q-40 120 -64 229h-6q10 -157 10 -282v-713z" />
    <glyph glyph-name="Ograve" unicode="&#xd2;" horiz-adv-x="1019" 
d="M510 -35q-210 0 -326 119.5t-116 341.5v602q0 222 116 341.5t326 119.5t326 -119.5t116 -341.5v-602q0 -222 -116 -341.5t-326 -119.5zM510 188q71 0 110 52.5t39 150.5v672q0 98 -39 150.5t-110 52.5q-72 0 -111 -52.5t-39 -150.5v-672q0 -98 39 -150.5t111 -52.5z" />
    <glyph glyph-name="Oacute" unicode="&#xd3;" horiz-adv-x="1019" 
d="M510 -35q-210 0 -326 119.5t-116 341.5v602q0 222 116 341.5t326 119.5t326 -119.5t116 -341.5v-602q0 -222 -116 -341.5t-326 -119.5zM510 188q71 0 110 52.5t39 150.5v672q0 98 -39 150.5t-110 52.5q-72 0 -111 -52.5t-39 -150.5v-672q0 -98 39 -150.5t111 -52.5z" />
    <glyph glyph-name="Ocircumflex" unicode="&#xd4;" horiz-adv-x="1019" 
d="M510 -35q-210 0 -326 119.5t-116 341.5v602q0 222 116 341.5t326 119.5t326 -119.5t116 -341.5v-602q0 -222 -116 -341.5t-326 -119.5zM510 188q71 0 110 52.5t39 150.5v672q0 98 -39 150.5t-110 52.5q-72 0 -111 -52.5t-39 -150.5v-672q0 -98 39 -150.5t111 -52.5z" />
    <glyph glyph-name="Otilde" unicode="&#xd5;" horiz-adv-x="1019" 
d="M510 -35q-210 0 -326 119.5t-116 341.5v602q0 222 116 341.5t326 119.5t326 -119.5t116 -341.5v-602q0 -222 -116 -341.5t-326 -119.5zM510 188q71 0 110 52.5t39 150.5v672q0 98 -39 150.5t-110 52.5q-72 0 -111 -52.5t-39 -150.5v-672q0 -98 39 -150.5t111 -52.5z" />
    <glyph glyph-name="Odieresis" unicode="&#xd6;" horiz-adv-x="1019" 
d="M510 -35q-210 0 -326 119.5t-116 341.5v602q0 222 116 341.5t326 119.5t326 -119.5t116 -341.5v-602q0 -222 -116 -341.5t-326 -119.5zM510 188q71 0 110 52.5t39 150.5v672q0 98 -39 150.5t-110 52.5q-72 0 -111 -52.5t-39 -150.5v-672q0 -98 39 -150.5t111 -52.5z" />
    <glyph glyph-name="Oslash" unicode="&#xd8;" horiz-adv-x="1019" 
d="M510 -35q-210 0 -326 119.5t-116 341.5v602q0 222 116 341.5t326 119.5t326 -119.5t116 -341.5v-602q0 -222 -116 -341.5t-326 -119.5zM510 188q71 0 110 52.5t39 150.5v672q0 98 -39 150.5t-110 52.5q-72 0 -111 -52.5t-39 -150.5v-672q0 -98 39 -150.5t111 -52.5z" />
    <glyph glyph-name="Ugrave" unicode="&#xd9;" horiz-adv-x="1013" 
d="M92 354v1100h285v-1087q0 -78 33.5 -120t97.5 -42q62 0 96.5 42t34.5 120v1087h283v-1100q0 -182 -108 -285.5t-306 -103.5q-199 0 -307.5 103.5t-108.5 285.5z" />
    <glyph glyph-name="Uacute" unicode="&#xda;" horiz-adv-x="1013" 
d="M92 354v1100h285v-1087q0 -78 33.5 -120t97.5 -42q62 0 96.5 42t34.5 120v1087h283v-1100q0 -182 -108 -285.5t-306 -103.5q-199 0 -307.5 103.5t-108.5 285.5z" />
    <glyph glyph-name="Ucircumflex" unicode="&#xdb;" horiz-adv-x="1013" 
d="M92 354v1100h285v-1087q0 -78 33.5 -120t97.5 -42q62 0 96.5 42t34.5 120v1087h283v-1100q0 -182 -108 -285.5t-306 -103.5q-199 0 -307.5 103.5t-108.5 285.5z" />
    <glyph glyph-name="Udieresis" unicode="&#xdc;" horiz-adv-x="1013" 
d="M92 354v1100h285v-1087q0 -78 33.5 -120t97.5 -42q62 0 96.5 42t34.5 120v1087h283v-1100q0 -182 -108 -285.5t-306 -103.5q-199 0 -307.5 103.5t-108.5 285.5z" />
    <glyph glyph-name="Yacute" unicode="&#xdd;" horiz-adv-x="905" 
d="M596 0h-283v522l-309 932h295l125 -485q20 -81 29 -193h6q14 128 28 193l119 485h295l-305 -932v-522z" />
    <glyph glyph-name="Thorn" unicode="&#xde;" horiz-adv-x="929" 
d="M104 1454h398q202 0 305.5 -94t105.5 -279v-120q0 -195 -104.5 -299.5t-300.5 -104.5h-121v-557h-283v1454zM618 965v106q0 98 -34 142t-111 44h-86v-499h88q74 0 108.5 49.5t34.5 157.5z" />
    <glyph glyph-name="agrave" unicode="&#xe0;" 
d="M287 -25q-111 0 -178.5 66.5t-67.5 183.5v76q0 62 22.5 116t63.5 89q69 60 221 94l150 35v125q0 56 -19.5 81t-60.5 25q-84 0 -84 -106v-86h-268v71q0 150 93 227t261 77q180 0 263 -74.5t83 -241.5v-500q0 -152 16 -233h-256q-12 110 -10 154q-14 -79 -76 -129t-153 -50
zM401 164q44 0 71.5 33.5t27.5 93.5v196l-80 -20q-96 -26 -96 -154v-39q0 -110 77 -110z" />
    <glyph glyph-name="aacute" unicode="&#xe1;" 
d="M287 -25q-111 0 -178.5 66.5t-67.5 183.5v76q0 62 22.5 116t63.5 89q69 60 221 94l150 35v125q0 56 -19.5 81t-60.5 25q-84 0 -84 -106v-86h-268v71q0 150 93 227t261 77q180 0 263 -74.5t83 -241.5v-500q0 -152 16 -233h-256q-12 110 -10 154q-14 -79 -76 -129t-153 -50
zM401 164q44 0 71.5 33.5t27.5 93.5v196l-80 -20q-96 -26 -96 -154v-39q0 -110 77 -110z" />
    <glyph glyph-name="acircumflex" unicode="&#xe2;" 
d="M287 -25q-111 0 -178.5 66.5t-67.5 183.5v76q0 62 22.5 116t63.5 89q69 60 221 94l150 35v125q0 56 -19.5 81t-60.5 25q-84 0 -84 -106v-86h-268v71q0 150 93 227t261 77q180 0 263 -74.5t83 -241.5v-500q0 -152 16 -233h-256q-12 110 -10 154q-14 -79 -76 -129t-153 -50
zM401 164q44 0 71.5 33.5t27.5 93.5v196l-80 -20q-96 -26 -96 -154v-39q0 -110 77 -110z" />
    <glyph glyph-name="atilde" unicode="&#xe3;" 
d="M287 -25q-111 0 -178.5 66.5t-67.5 183.5v76q0 62 22.5 116t63.5 89q69 60 221 94l150 35v125q0 56 -19.5 81t-60.5 25q-84 0 -84 -106v-86h-268v71q0 150 93 227t261 77q180 0 263 -74.5t83 -241.5v-500q0 -152 16 -233h-256q-12 110 -10 154q-14 -79 -76 -129t-153 -50
zM401 164q44 0 71.5 33.5t27.5 93.5v196l-80 -20q-96 -26 -96 -154v-39q0 -110 77 -110z" />
    <glyph glyph-name="adieresis" unicode="&#xe4;" 
d="M287 -25q-111 0 -178.5 66.5t-67.5 183.5v76q0 62 22.5 116t63.5 89q69 60 221 94l150 35v125q0 56 -19.5 81t-60.5 25q-84 0 -84 -106v-86h-268v71q0 150 93 227t261 77q180 0 263 -74.5t83 -241.5v-500q0 -152 16 -233h-256q-12 110 -10 154q-14 -79 -76 -129t-153 -50
zM401 164q44 0 71.5 33.5t27.5 93.5v196l-80 -20q-96 -26 -96 -154v-39q0 -110 77 -110z" />
    <glyph glyph-name="aring" unicode="&#xe5;" 
d="M287 -25q-111 0 -178.5 66.5t-67.5 183.5v76q0 62 22.5 116t63.5 89q69 60 221 94l150 35v125q0 56 -19.5 81t-60.5 25q-84 0 -84 -106v-86h-268v71q0 150 93 227t261 77q180 0 263 -74.5t83 -241.5v-500q0 -152 16 -233h-256q-12 110 -10 154q-14 -79 -76 -129t-153 -50
zM401 164q44 0 71.5 33.5t27.5 93.5v196l-80 -20q-96 -26 -96 -154v-39q0 -110 77 -110z" />
    <glyph glyph-name="ae" unicode="&#xe6;" horiz-adv-x="1708" 
d="M766 733v-500q0 -152 16 -233h-256q-12 110 -10 154q-14 -79 -76 -129t-153 -50q-111 0 -178.5 66.5t-67.5 183.5v76q0 62 22.5 116t63.5 89q69 60 221 94l150 35v125q0 56 -19.5 81t-60.5 25q-84 0 -84 -106v-86h-268v71q0 150 93 227t261 77q180 0 263 -74.5t83 -241.5
zM1651 662v-193h-461v-145q0 -152 100 -152q94 0 94 166v41l267 -37v-45q0 -152 -99.5 -237t-265.5 -85q-177 0 -276 97t-99 270v313q0 193 96 293.5t279 100.5q365 0 365 -387zM1282 887q-92 0 -92 -152v-125h182v95q0 101 -21.5 141.5t-68.5 40.5zM500 291v196l-80 -20
q-96 -26 -96 -154v-39q0 -110 77 -110q44 0 71.5 33.5t27.5 93.5z" />
    <glyph glyph-name="ccedilla" unicode="&#xe7;" horiz-adv-x="837" 
d="M434 -25q-177 0 -277 100.5t-100 278.5v303q0 195 96.5 293.5t280.5 98.5q175 0 266 -82.5t91 -247.5v-66l-271 -43v95q0 78 -21.5 112.5t-66.5 34.5q-48 0 -71 -38t-23 -126v-344q0 -90 23 -131t71 -41q88 0 88 156v102l271 -51v-68q0 -159 -95.5 -247.5t-261.5 -88.5z
" />
    <glyph glyph-name="egrave" unicode="&#xe8;" 
d="M797 662v-193h-461v-145q0 -152 100 -152q94 0 94 166v41l267 -37v-45q0 -152 -99.5 -237t-265.5 -85q-177 0 -276 97t-99 270v313q0 193 96 293.5t279 100.5q365 0 365 -387zM428 887q-92 0 -92 -152v-125h182v95q0 101 -21.5 141.5t-68.5 40.5z" />
    <glyph glyph-name="eacute" unicode="&#xe9;" 
d="M797 662v-193h-461v-145q0 -152 100 -152q94 0 94 166v41l267 -37v-45q0 -152 -99.5 -237t-265.5 -85q-177 0 -276 97t-99 270v313q0 193 96 293.5t279 100.5q365 0 365 -387zM428 887q-92 0 -92 -152v-125h182v95q0 101 -21.5 141.5t-68.5 40.5z" />
    <glyph glyph-name="ecircumflex" unicode="&#xea;" 
d="M797 662v-193h-461v-145q0 -152 100 -152q94 0 94 166v41l267 -37v-45q0 -152 -99.5 -237t-265.5 -85q-177 0 -276 97t-99 270v313q0 193 96 293.5t279 100.5q365 0 365 -387zM428 887q-92 0 -92 -152v-125h182v95q0 101 -21.5 141.5t-68.5 40.5z" />
    <glyph glyph-name="edieresis" unicode="&#xeb;" 
d="M797 662v-193h-461v-145q0 -152 100 -152q94 0 94 166v41l267 -37v-45q0 -152 -99.5 -237t-265.5 -85q-177 0 -276 97t-99 270v313q0 193 96 293.5t279 100.5q365 0 365 -387zM428 887q-92 0 -92 -152v-125h182v95q0 101 -21.5 141.5t-68.5 40.5z" />
    <glyph glyph-name="igrave" unicode="&#xec;" horiz-adv-x="458" 
d="M367 1169h-275v277h275v-277zM360 0h-260v1024h260v-1024z" />
    <glyph glyph-name="iacute" unicode="&#xed;" horiz-adv-x="458" 
d="M367 1169h-275v277h275v-277zM360 0h-260v1024h260v-1024z" />
    <glyph glyph-name="icircumflex" unicode="&#xee;" horiz-adv-x="458" 
d="M367 1169h-275v277h275v-277zM360 0h-260v1024h260v-1024z" />
    <glyph glyph-name="idieresis" unicode="&#xef;" horiz-adv-x="458" 
d="M367 1169h-275v277h275v-277zM360 0h-260v1024h260v-1024z" />
    <glyph glyph-name="ntilde" unicode="&#xf1;" horiz-adv-x="911" 
d="M369 0h-269v1024h258v-170q59 195 244 195q114 0 167.5 -70t53.5 -221v-758h-274v717q0 69 -19.5 100t-62.5 31q-51 0 -74.5 -46t-23.5 -147v-655z" />
    <glyph glyph-name="ograve" unicode="&#xf2;" horiz-adv-x="874" 
d="M436 -25q-179 0 -279 99.5t-100 287.5v300q0 188 100 287.5t279 99.5q181 0 281 -99.5t100 -287.5v-300q0 -188 -100 -287.5t-281 -99.5zM436 164q52 0 76.5 40t24.5 130v356q0 90 -24.5 130t-76.5 40q-50 0 -74 -40t-24 -130v-356q0 -90 24 -130t74 -40z" />
    <glyph glyph-name="oacute" unicode="&#xf3;" horiz-adv-x="874" 
d="M436 -25q-179 0 -279 99.5t-100 287.5v300q0 188 100 287.5t279 99.5q181 0 281 -99.5t100 -287.5v-300q0 -188 -100 -287.5t-281 -99.5zM436 164q52 0 76.5 40t24.5 130v356q0 90 -24.5 130t-76.5 40q-50 0 -74 -40t-24 -130v-356q0 -90 24 -130t74 -40z" />
    <glyph glyph-name="ocircumflex" unicode="&#xf4;" horiz-adv-x="874" 
d="M436 -25q-179 0 -279 99.5t-100 287.5v300q0 188 100 287.5t279 99.5q181 0 281 -99.5t100 -287.5v-300q0 -188 -100 -287.5t-281 -99.5zM436 164q52 0 76.5 40t24.5 130v356q0 90 -24.5 130t-76.5 40q-50 0 -74 -40t-24 -130v-356q0 -90 24 -130t74 -40z" />
    <glyph glyph-name="otilde" unicode="&#xf5;" horiz-adv-x="874" 
d="M436 -25q-179 0 -279 99.5t-100 287.5v300q0 188 100 287.5t279 99.5q181 0 281 -99.5t100 -287.5v-300q0 -188 -100 -287.5t-281 -99.5zM436 164q52 0 76.5 40t24.5 130v356q0 90 -24.5 130t-76.5 40q-50 0 -74 -40t-24 -130v-356q0 -90 24 -130t74 -40z" />
    <glyph glyph-name="odieresis" unicode="&#xf6;" horiz-adv-x="874" 
d="M436 -25q-179 0 -279 99.5t-100 287.5v300q0 188 100 287.5t279 99.5q181 0 281 -99.5t100 -287.5v-300q0 -188 -100 -287.5t-281 -99.5zM436 164q52 0 76.5 40t24.5 130v356q0 90 -24.5 130t-76.5 40q-50 0 -74 -40t-24 -130v-356q0 -90 24 -130t74 -40z" />
    <glyph glyph-name="oslash" unicode="&#xf8;" horiz-adv-x="874" 
d="M436 -25q-179 0 -279 99.5t-100 287.5v300q0 188 100 287.5t279 99.5q181 0 281 -99.5t100 -287.5v-300q0 -188 -100 -287.5t-281 -99.5zM436 164q52 0 76.5 40t24.5 130v356q0 90 -24.5 130t-76.5 40q-50 0 -74 -40t-24 -130v-356q0 -90 24 -130t74 -40z" />
    <glyph glyph-name="ugrave" unicode="&#xf9;" horiz-adv-x="913" 
d="M319 -25q-125 0 -178 77t-53 224v748h274v-715q0 -129 84 -129q97 0 97 174v670h270v-1024h-258v160q-60 -185 -236 -185z" />
    <glyph glyph-name="uacute" unicode="&#xfa;" horiz-adv-x="913" 
d="M319 -25q-125 0 -178 77t-53 224v748h274v-715q0 -129 84 -129q97 0 97 174v670h270v-1024h-258v160q-60 -185 -236 -185z" />
    <glyph glyph-name="ucircumflex" unicode="&#xfb;" horiz-adv-x="913" 
d="M319 -25q-125 0 -178 77t-53 224v748h274v-715q0 -129 84 -129q97 0 97 174v670h270v-1024h-258v160q-60 -185 -236 -185z" />
    <glyph glyph-name="udieresis" unicode="&#xfc;" horiz-adv-x="913" 
d="M319 -25q-125 0 -178 77t-53 224v748h274v-715q0 -129 84 -129q97 0 97 174v670h270v-1024h-258v160q-60 -185 -236 -185z" />
    <glyph glyph-name="yacute" unicode="&#xfd;" horiz-adv-x="804" 
d="M131 -410q-37 0 -84 7v221q30 -6 55 -6q65 0 102 29.5t52 92.5l12 52l-264 1038h293l92 -580q14 -102 21 -241h6q5 129 20 237l84 584h281l-248 -1085q-42 -187 -144.5 -268t-277.5 -81z" />
    <glyph glyph-name="thorn" unicode="&#xfe;" horiz-adv-x="913" 
d="M369 -399h-269v1423h258v-154q29 87 90 133t144 46q124 0 190 -92t66 -263v-327q0 -187 -69.5 -289.5t-194.5 -102.5q-161 0 -215 152v-526zM465 176q100 0 100 191v301q0 94 -23.5 137t-74.5 43q-52 0 -76 -42.5t-24 -135.5v-314q0 -96 23 -138t75 -42z" />
    <glyph glyph-name="ydieresis" unicode="&#xff;" horiz-adv-x="804" 
d="M131 -410q-37 0 -84 7v221q30 -6 55 -6q65 0 102 29.5t52 92.5l12 52l-264 1038h293l92 -580q14 -102 21 -241h6q5 129 20 237l84 584h281l-248 -1085q-42 -187 -144.5 -268t-277.5 -81z" />
    <glyph glyph-name="Amacron" unicode="&#x100;" horiz-adv-x="972" 
d="M956 0h-286l-54 340h-262l-53 -340h-285l283 1454h373zM457 1006l-72 -459h201l-72 459q-14 96 -25 206h-6q-9 -85 -26 -206z" />
    <glyph glyph-name="amacron" unicode="&#x101;" 
d="M287 -25q-111 0 -178.5 66.5t-67.5 183.5v76q0 62 22.5 116t63.5 89q69 60 221 94l150 35v125q0 56 -19.5 81t-60.5 25q-84 0 -84 -106v-86h-268v71q0 150 93 227t261 77q180 0 263 -74.5t83 -241.5v-500q0 -152 16 -233h-256q-12 110 -10 154q-14 -79 -76 -129t-153 -50
zM401 164q44 0 71.5 33.5t27.5 93.5v196l-80 -20q-96 -26 -96 -154v-39q0 -110 77 -110z" />
    <glyph glyph-name="Abreve" unicode="&#x102;" horiz-adv-x="972" 
d="M956 0h-286l-54 340h-262l-53 -340h-285l283 1454h373zM457 1006l-72 -459h201l-72 459q-14 96 -25 206h-6q-9 -85 -26 -206z" />
    <glyph glyph-name="abreve" unicode="&#x103;" 
d="M287 -25q-111 0 -178.5 66.5t-67.5 183.5v76q0 62 22.5 116t63.5 89q69 60 221 94l150 35v125q0 56 -19.5 81t-60.5 25q-84 0 -84 -106v-86h-268v71q0 150 93 227t261 77q180 0 263 -74.5t83 -241.5v-500q0 -152 16 -233h-256q-12 110 -10 154q-14 -79 -76 -129t-153 -50
zM401 164q44 0 71.5 33.5t27.5 93.5v196l-80 -20q-96 -26 -96 -154v-39q0 -110 77 -110z" />
    <glyph glyph-name="Aogonek" unicode="&#x104;" horiz-adv-x="972" 
d="M956 0h-286l-54 340h-262l-53 -340h-285l283 1454h373zM457 1006l-72 -459h201l-72 459q-14 96 -25 206h-6q-9 -85 -26 -206z" />
    <glyph glyph-name="aogonek" unicode="&#x105;" 
d="M287 -25q-111 0 -178.5 66.5t-67.5 183.5v76q0 62 22.5 116t63.5 89q69 60 221 94l150 35v125q0 56 -19.5 81t-60.5 25q-84 0 -84 -106v-86h-268v71q0 150 93 227t261 77q180 0 263 -74.5t83 -241.5v-500q0 -152 16 -233h-256q-12 110 -10 154q-14 -79 -76 -129t-153 -50
zM401 164q44 0 71.5 33.5t27.5 93.5v196l-80 -20q-96 -26 -96 -154v-39q0 -110 77 -110z" />
    <glyph glyph-name="Cacute" unicode="&#x106;" horiz-adv-x="978" 
d="M496 -35q-210 0 -319 114.5t-109 340.5v616q0 222 112 337.5t322 115.5q202 0 309 -100t107 -297v-148l-295 -55v194q0 183 -127 183q-136 0 -136 -205v-658q0 -104 35 -158.5t103 -54.5q62 0 94.5 47t32.5 136v217l290 -60v-157q0 -198 -110 -303t-309 -105z" />
    <glyph glyph-name="cacute" unicode="&#x107;" horiz-adv-x="837" 
d="M434 -25q-177 0 -277 100.5t-100 278.5v303q0 195 96.5 293.5t280.5 98.5q175 0 266 -82.5t91 -247.5v-66l-271 -43v95q0 78 -21.5 112.5t-66.5 34.5q-48 0 -71 -38t-23 -126v-344q0 -90 23 -131t71 -41q88 0 88 156v102l271 -51v-68q0 -159 -95.5 -247.5t-261.5 -88.5z
" />
    <glyph glyph-name="Ccircumflex" unicode="&#x108;" horiz-adv-x="978" 
d="M496 -35q-210 0 -319 114.5t-109 340.5v616q0 222 112 337.5t322 115.5q202 0 309 -100t107 -297v-148l-295 -55v194q0 183 -127 183q-136 0 -136 -205v-658q0 -104 35 -158.5t103 -54.5q62 0 94.5 47t32.5 136v217l290 -60v-157q0 -198 -110 -303t-309 -105z" />
    <glyph glyph-name="ccircumflex" unicode="&#x109;" horiz-adv-x="837" 
d="M434 -25q-177 0 -277 100.5t-100 278.5v303q0 195 96.5 293.5t280.5 98.5q175 0 266 -82.5t91 -247.5v-66l-271 -43v95q0 78 -21.5 112.5t-66.5 34.5q-48 0 -71 -38t-23 -126v-344q0 -90 23 -131t71 -41q88 0 88 156v102l271 -51v-68q0 -159 -95.5 -247.5t-261.5 -88.5z
" />
    <glyph glyph-name="Cdotaccent" unicode="&#x10a;" horiz-adv-x="978" 
d="M496 -35q-210 0 -319 114.5t-109 340.5v616q0 222 112 337.5t322 115.5q202 0 309 -100t107 -297v-148l-295 -55v194q0 183 -127 183q-136 0 -136 -205v-658q0 -104 35 -158.5t103 -54.5q62 0 94.5 47t32.5 136v217l290 -60v-157q0 -198 -110 -303t-309 -105z" />
    <glyph glyph-name="cdotaccent" unicode="&#x10b;" horiz-adv-x="837" 
d="M434 -25q-177 0 -277 100.5t-100 278.5v303q0 195 96.5 293.5t280.5 98.5q175 0 266 -82.5t91 -247.5v-66l-271 -43v95q0 78 -21.5 112.5t-66.5 34.5q-48 0 -71 -38t-23 -126v-344q0 -90 23 -131t71 -41q88 0 88 156v102l271 -51v-68q0 -159 -95.5 -247.5t-261.5 -88.5z
" />
    <glyph glyph-name="Ccaron" unicode="&#x10c;" horiz-adv-x="978" 
d="M496 -35q-210 0 -319 114.5t-109 340.5v616q0 222 112 337.5t322 115.5q202 0 309 -100t107 -297v-148l-295 -55v194q0 183 -127 183q-136 0 -136 -205v-658q0 -104 35 -158.5t103 -54.5q62 0 94.5 47t32.5 136v217l290 -60v-157q0 -198 -110 -303t-309 -105z" />
    <glyph glyph-name="ccaron" unicode="&#x10d;" horiz-adv-x="837" 
d="M434 -25q-177 0 -277 100.5t-100 278.5v303q0 195 96.5 293.5t280.5 98.5q175 0 266 -82.5t91 -247.5v-66l-271 -43v95q0 78 -21.5 112.5t-66.5 34.5q-48 0 -71 -38t-23 -126v-344q0 -90 23 -131t71 -41q88 0 88 156v102l271 -51v-68q0 -159 -95.5 -247.5t-261.5 -88.5z
" />
    <glyph glyph-name="Dcaron" unicode="&#x10e;" horiz-adv-x="1024" 
d="M485 0h-381v1454h385q227 0 347 -128.5t120 -373.5v-430q0 -256 -120 -389t-351 -133zM387 1247v-1040h88q189 0 189 295v463q0 147 -45 214.5t-144 67.5h-88z" />
    <glyph glyph-name="dcaron" unicode="&#x10f;" horiz-adv-x="913" 
d="M330 -25q-123 0 -192.5 101t-69.5 278v303q0 192 69.5 292t198.5 100q162 0 211 -158v594h268v-1485h-256v150q-68 -175 -229 -175zM449 176q51 0 75.5 43t24.5 133v322q0 90 -24.5 132t-75.5 42q-101 0 -101 -180v-301q0 -191 101 -191z" />
    <glyph glyph-name="Dcroat" unicode="&#x110;" horiz-adv-x="1024" 
d="M485 0h-381v1454h385q227 0 347 -128.5t120 -373.5v-430q0 -256 -120 -389t-351 -133zM387 1247v-1040h88q189 0 189 295v463q0 147 -45 214.5t-144 67.5h-88z" />
    <glyph glyph-name="dcroat" unicode="&#x111;" horiz-adv-x="913" 
d="M330 -25q-123 0 -192.5 101t-69.5 278v303q0 192 69.5 292t198.5 100q162 0 211 -158v594h268v-1485h-256v150q-68 -175 -229 -175zM449 176q51 0 75.5 43t24.5 133v322q0 90 -24.5 132t-75.5 42q-101 0 -101 -180v-301q0 -191 101 -191z" />
    <glyph glyph-name="Emacron" unicode="&#x112;" horiz-adv-x="821" 
d="M387 639v-420h393v-219h-676v1454h662v-219h-379v-377h350v-219h-350z" />
    <glyph glyph-name="emacron" unicode="&#x113;" 
d="M797 662v-193h-461v-145q0 -152 100 -152q94 0 94 166v41l267 -37v-45q0 -152 -99.5 -237t-265.5 -85q-177 0 -276 97t-99 270v313q0 193 96 293.5t279 100.5q365 0 365 -387zM428 887q-92 0 -92 -152v-125h182v95q0 101 -21.5 141.5t-68.5 40.5z" />
    <glyph glyph-name="Ebreve" unicode="&#x114;" horiz-adv-x="821" 
d="M387 639v-420h393v-219h-676v1454h662v-219h-379v-377h350v-219h-350z" />
    <glyph glyph-name="ebreve" unicode="&#x115;" 
d="M797 662v-193h-461v-145q0 -152 100 -152q94 0 94 166v41l267 -37v-45q0 -152 -99.5 -237t-265.5 -85q-177 0 -276 97t-99 270v313q0 193 96 293.5t279 100.5q365 0 365 -387zM428 887q-92 0 -92 -152v-125h182v95q0 101 -21.5 141.5t-68.5 40.5z" />
    <glyph glyph-name="Edotaccent" unicode="&#x116;" horiz-adv-x="821" 
d="M387 639v-420h393v-219h-676v1454h662v-219h-379v-377h350v-219h-350z" />
    <glyph glyph-name="edotaccent" unicode="&#x117;" 
d="M797 662v-193h-461v-145q0 -152 100 -152q94 0 94 166v41l267 -37v-45q0 -152 -99.5 -237t-265.5 -85q-177 0 -276 97t-99 270v313q0 193 96 293.5t279 100.5q365 0 365 -387zM428 887q-92 0 -92 -152v-125h182v95q0 101 -21.5 141.5t-68.5 40.5z" />
    <glyph glyph-name="Eogonek" unicode="&#x118;" horiz-adv-x="821" 
d="M387 639v-420h393v-219h-676v1454h662v-219h-379v-377h350v-219h-350z" />
    <glyph glyph-name="eogonek" unicode="&#x119;" 
d="M797 662v-193h-461v-145q0 -152 100 -152q94 0 94 166v41l267 -37v-45q0 -152 -99.5 -237t-265.5 -85q-177 0 -276 97t-99 270v313q0 193 96 293.5t279 100.5q365 0 365 -387zM428 887q-92 0 -92 -152v-125h182v95q0 101 -21.5 141.5t-68.5 40.5z" />
    <glyph glyph-name="Ecaron" unicode="&#x11a;" horiz-adv-x="821" 
d="M387 639v-420h393v-219h-676v1454h662v-219h-379v-377h350v-219h-350z" />
    <glyph glyph-name="ecaron" unicode="&#x11b;" 
d="M797 662v-193h-461v-145q0 -152 100 -152q94 0 94 166v41l267 -37v-45q0 -152 -99.5 -237t-265.5 -85q-177 0 -276 97t-99 270v313q0 193 96 293.5t279 100.5q365 0 365 -387zM428 887q-92 0 -92 -152v-125h182v95q0 101 -21.5 141.5t-68.5 40.5z" />
    <glyph glyph-name="Gcircumflex" unicode="&#x11c;" horiz-adv-x="999" 
d="M410 -35q-167 0 -254.5 119.5t-87.5 343.5v578q0 231 113.5 357t324.5 126q197 0 304.5 -99t107.5 -278v-113l-293 -53v158q0 172 -125 172q-140 0 -140 -227v-633q0 -110 37.5 -170t108.5 -60q72 0 106.5 56t34.5 153v185h-162v217h433v-797h-205l-13 207
q-26 -113 -99.5 -177.5t-190.5 -64.5z" />
    <glyph glyph-name="gcircumflex" unicode="&#x11d;" horiz-adv-x="796" 
d="M346 240l193 -41q254 -47 254 -262v-50q0 -145 -106.5 -228t-297.5 -83q-171 0 -267.5 63t-96.5 171v22q0 67 39.5 116.5t113.5 74.5q-123 54 -123 176q0 67 39.5 113t106.5 61q-158 73 -158 276v86q0 151 89 232.5t255 81.5q84 0 145 -21q19 82 71.5 126t135.5 44
q25 0 49 -6v-199q-50 11 -79 11q-42 0 -86 -21q106 -80 106 -248v-86q0 -151 -88 -231t-254 -80q-53 0 -111 10q-18 -12 -18 -43q0 -26 19 -40t69 -25zM297 778v-172q0 -59 23.5 -90t66.5 -31q88 0 88 121v172q0 60 -22.5 92.5t-65.5 32.5t-66.5 -32.5t-23.5 -92.5z
M553 -156v27q0 43 -25.5 66t-76.5 32l-177 29q-24 -30 -24 -88v-35q0 -143 151 -143q152 0 152 112z" />
    <glyph glyph-name="Gbreve" unicode="&#x11e;" horiz-adv-x="999" 
d="M410 -35q-167 0 -254.5 119.5t-87.5 343.5v578q0 231 113.5 357t324.5 126q197 0 304.5 -99t107.5 -278v-113l-293 -53v158q0 172 -125 172q-140 0 -140 -227v-633q0 -110 37.5 -170t108.5 -60q72 0 106.5 56t34.5 153v185h-162v217h433v-797h-205l-13 207
q-26 -113 -99.5 -177.5t-190.5 -64.5z" />
    <glyph glyph-name="gbreve" unicode="&#x11f;" horiz-adv-x="796" 
d="M346 240l193 -41q254 -47 254 -262v-50q0 -145 -106.5 -228t-297.5 -83q-171 0 -267.5 63t-96.5 171v22q0 67 39.5 116.5t113.5 74.5q-123 54 -123 176q0 67 39.5 113t106.5 61q-158 73 -158 276v86q0 151 89 232.5t255 81.5q84 0 145 -21q19 82 71.5 126t135.5 44
q25 0 49 -6v-199q-50 11 -79 11q-42 0 -86 -21q106 -80 106 -248v-86q0 -151 -88 -231t-254 -80q-53 0 -111 10q-18 -12 -18 -43q0 -26 19 -40t69 -25zM297 778v-172q0 -59 23.5 -90t66.5 -31q88 0 88 121v172q0 60 -22.5 92.5t-65.5 32.5t-66.5 -32.5t-23.5 -92.5z
M553 -156v27q0 43 -25.5 66t-76.5 32l-177 29q-24 -30 -24 -88v-35q0 -143 151 -143q152 0 152 112z" />
    <glyph glyph-name="Gdotaccent" unicode="&#x120;" horiz-adv-x="999" 
d="M410 -35q-167 0 -254.5 119.5t-87.5 343.5v578q0 231 113.5 357t324.5 126q197 0 304.5 -99t107.5 -278v-113l-293 -53v158q0 172 -125 172q-140 0 -140 -227v-633q0 -110 37.5 -170t108.5 -60q72 0 106.5 56t34.5 153v185h-162v217h433v-797h-205l-13 207
q-26 -113 -99.5 -177.5t-190.5 -64.5z" />
    <glyph glyph-name="gdotaccent" unicode="&#x121;" horiz-adv-x="796" 
d="M346 240l193 -41q254 -47 254 -262v-50q0 -145 -106.5 -228t-297.5 -83q-171 0 -267.5 63t-96.5 171v22q0 67 39.5 116.5t113.5 74.5q-123 54 -123 176q0 67 39.5 113t106.5 61q-158 73 -158 276v86q0 151 89 232.5t255 81.5q84 0 145 -21q19 82 71.5 126t135.5 44
q25 0 49 -6v-199q-50 11 -79 11q-42 0 -86 -21q106 -80 106 -248v-86q0 -151 -88 -231t-254 -80q-53 0 -111 10q-18 -12 -18 -43q0 -26 19 -40t69 -25zM297 778v-172q0 -59 23.5 -90t66.5 -31q88 0 88 121v172q0 60 -22.5 92.5t-65.5 32.5t-66.5 -32.5t-23.5 -92.5z
M553 -156v27q0 43 -25.5 66t-76.5 32l-177 29q-24 -30 -24 -88v-35q0 -143 151 -143q152 0 152 112z" />
    <glyph glyph-name="uni0122" unicode="&#x122;" horiz-adv-x="999" 
d="M410 -35q-167 0 -254.5 119.5t-87.5 343.5v578q0 231 113.5 357t324.5 126q197 0 304.5 -99t107.5 -278v-113l-293 -53v158q0 172 -125 172q-140 0 -140 -227v-633q0 -110 37.5 -170t108.5 -60q72 0 106.5 56t34.5 153v185h-162v217h433v-797h-205l-13 207
q-26 -113 -99.5 -177.5t-190.5 -64.5z" />
    <glyph glyph-name="uni0123" unicode="&#x123;" horiz-adv-x="796" 
d="M346 240l193 -41q254 -47 254 -262v-50q0 -145 -106.5 -228t-297.5 -83q-171 0 -267.5 63t-96.5 171v22q0 67 39.5 116.5t113.5 74.5q-123 54 -123 176q0 67 39.5 113t106.5 61q-158 73 -158 276v86q0 151 89 232.5t255 81.5q84 0 145 -21q19 82 71.5 126t135.5 44
q25 0 49 -6v-199q-50 11 -79 11q-42 0 -86 -21q106 -80 106 -248v-86q0 -151 -88 -231t-254 -80q-53 0 -111 10q-18 -12 -18 -43q0 -26 19 -40t69 -25zM297 778v-172q0 -59 23.5 -90t66.5 -31q88 0 88 121v172q0 60 -22.5 92.5t-65.5 32.5t-66.5 -32.5t-23.5 -92.5z
M553 -156v27q0 43 -25.5 66t-76.5 32l-177 29q-24 -30 -24 -88v-35q0 -143 151 -143q152 0 152 112z" />
    <glyph glyph-name="Hcircumflex" unicode="&#x124;" horiz-adv-x="1040" 
d="M653 1454h283v-1454h-283v633h-266v-633h-283v1454h283v-602h266v602z" />
    <glyph glyph-name="hcircumflex" unicode="&#x125;" horiz-adv-x="911" 
d="M369 0h-269v1485h269v-623q28 91 88.5 139t148.5 48q111 0 164 -71t53 -220v-758h-274v719q0 66 -19.5 97.5t-62.5 31.5q-52 0 -75 -47t-23 -152v-649z" />
    <glyph glyph-name="Hbar" unicode="&#x126;" horiz-adv-x="1040" 
d="M653 1454h283v-1454h-283v633h-266v-633h-283v1454h283v-602h266v602z" />
    <glyph glyph-name="hbar" unicode="&#x127;" horiz-adv-x="911" 
d="M369 0h-269v1485h269v-623q28 91 88.5 139t148.5 48q111 0 164 -71t53 -220v-758h-274v719q0 66 -19.5 97.5t-62.5 31.5q-52 0 -75 -47t-23 -152v-649z" />
    <glyph glyph-name="Itilde" unicode="&#x128;" horiz-adv-x="491" 
d="M387 1454v-1454h-283v1454h283z" />
    <glyph glyph-name="itilde" unicode="&#x129;" horiz-adv-x="458" 
d="M367 1169h-275v277h275v-277zM360 0h-260v1024h260v-1024z" />
    <glyph glyph-name="Imacron" unicode="&#x12a;" horiz-adv-x="491" 
d="M387 1454v-1454h-283v1454h283z" />
    <glyph glyph-name="imacron" unicode="&#x12b;" horiz-adv-x="458" 
d="M367 1169h-275v277h275v-277zM360 0h-260v1024h260v-1024z" />
    <glyph glyph-name="Ibreve" unicode="&#x12c;" horiz-adv-x="491" 
d="M387 1454v-1454h-283v1454h283z" />
    <glyph glyph-name="ibreve" unicode="&#x12d;" horiz-adv-x="458" 
d="M367 1169h-275v277h275v-277zM360 0h-260v1024h260v-1024z" />
    <glyph glyph-name="Iogonek" unicode="&#x12e;" horiz-adv-x="491" 
d="M387 1454v-1454h-283v1454h283z" />
    <glyph glyph-name="iogonek" unicode="&#x12f;" horiz-adv-x="458" 
d="M367 1169h-275v277h275v-277zM360 0h-260v1024h260v-1024z" />
    <glyph glyph-name="Idotaccent" unicode="&#x130;" horiz-adv-x="491" 
d="M387 1454v-1454h-283v1454h283z" />
    <glyph glyph-name="dotlessi" unicode="&#x131;" horiz-adv-x="458" 
d="M367 1169h-275v277h275v-277zM360 0h-260v1024h260v-1024z" />
    <glyph glyph-name="IJ" unicode="&#x132;" horiz-adv-x="1081" 
d="M387 1454v-1454h-283v1454h283zM989 1454v-1151q0 -328 -348 -328q-74 0 -137 13v250q52 -9 82 -9q53 0 87 32t34 106v1087h282z" />
    <glyph glyph-name="ij" unicode="&#x133;" horiz-adv-x="942" 
d="M367 1169h-275v277h275v-277zM840 1169h-275v277h275v-277zM360 0h-260v1024h260v-1024zM557 -414q-65 0 -115 11v217q40 -4 56 -4q40 0 57.5 22.5t17.5 73.5v1118h269v-1137q0 -79 -13 -132.5t-45 -93t-87.5 -57.5t-139.5 -18z" />
    <glyph glyph-name="Jcircumflex" unicode="&#x134;" horiz-adv-x="589" 
d="M498 1454v-1151q0 -328 -348 -328q-75 0 -138 13v250q52 -9 82 -9q53 0 87 32t34 106v1087h283z" />
    <glyph glyph-name="jcircumflex" unicode="&#x135;" horiz-adv-x="468" 
d="M367 1169h-275v277h275v-277zM84 -414q-65 0 -115 11v217q40 -4 56 -4q40 0 57.5 22.5t17.5 73.5v1118h269v-1137q0 -79 -13 -132.5t-45 -93t-87.5 -57.5t-139.5 -18z" />
    <glyph glyph-name="uni0136" unicode="&#x136;" horiz-adv-x="989" 
d="M973 0h-303l-176 651l-107 -231v-420h-283v1454h283v-684l281 684h293l-261 -563z" />
    <glyph glyph-name="uni0137" unicode="&#x137;" horiz-adv-x="892" 
d="M872 0h-286l-135 467l-82 -172v-295h-269v1485h269v-918l209 457h288l-211 -377z" />
    <glyph glyph-name="kgreenlandic" unicode="&#x138;" horiz-adv-x="892" 
d="M872 0h-286l-135 467l-82 -172v-295h-269v1485h269v-918l209 457h288l-211 -377z" />
    <glyph glyph-name="Lacute" unicode="&#x139;" horiz-adv-x="763" 
d="M745 0h-641v1454h283v-1204h358v-250z" />
    <glyph glyph-name="lacute" unicode="&#x13a;" horiz-adv-x="466" 
d="M100 1485h269v-1485h-269v1485z" />
    <glyph glyph-name="uni013B" unicode="&#x13b;" horiz-adv-x="763" 
d="M745 0h-641v1454h283v-1204h358v-250z" />
    <glyph glyph-name="uni013C" unicode="&#x13c;" horiz-adv-x="466" 
d="M100 1485h269v-1485h-269v1485z" />
    <glyph glyph-name="Lcaron" unicode="&#x13d;" horiz-adv-x="763" 
d="M745 0h-641v1454h283v-1204h358v-250z" />
    <glyph glyph-name="lcaron" unicode="&#x13e;" horiz-adv-x="466" 
d="M100 1485h269v-1485h-269v1485z" />
    <glyph glyph-name="Ldot" unicode="&#x13f;" horiz-adv-x="763" 
d="M745 0h-641v1454h283v-1204h358v-250z" />
    <glyph glyph-name="ldot" unicode="&#x140;" horiz-adv-x="466" 
d="M100 1485h269v-1485h-269v1485z" />
    <glyph glyph-name="Lslash" unicode="&#x141;" horiz-adv-x="763" 
d="M745 0h-641v1454h283v-1204h358v-250z" />
    <glyph glyph-name="lslash" unicode="&#x142;" horiz-adv-x="466" 
d="M100 1485h269v-1485h-269v1485z" />
    <glyph glyph-name="Nacute" unicode="&#x143;" horiz-adv-x="1058" 
d="M354 0h-250v1454h304l243 -706q38 -119 60 -218h6q-10 132 -10 322v602h249v-1454h-276l-266 766q-40 120 -64 229h-6q10 -157 10 -282v-713z" />
    <glyph glyph-name="nacute" unicode="&#x144;" horiz-adv-x="911" 
d="M369 0h-269v1024h258v-170q59 195 244 195q114 0 167.5 -70t53.5 -221v-758h-274v717q0 69 -19.5 100t-62.5 31q-51 0 -74.5 -46t-23.5 -147v-655z" />
    <glyph glyph-name="uni0145" unicode="&#x145;" horiz-adv-x="1058" 
d="M354 0h-250v1454h304l243 -706q38 -119 60 -218h6q-10 132 -10 322v602h249v-1454h-276l-266 766q-40 120 -64 229h-6q10 -157 10 -282v-713z" />
    <glyph glyph-name="uni0146" unicode="&#x146;" horiz-adv-x="911" 
d="M369 0h-269v1024h258v-170q59 195 244 195q114 0 167.5 -70t53.5 -221v-758h-274v717q0 69 -19.5 100t-62.5 31q-51 0 -74.5 -46t-23.5 -147v-655z" />
    <glyph glyph-name="Ncaron" unicode="&#x147;" horiz-adv-x="1058" 
d="M354 0h-250v1454h304l243 -706q38 -119 60 -218h6q-10 132 -10 322v602h249v-1454h-276l-266 766q-40 120 -64 229h-6q10 -157 10 -282v-713z" />
    <glyph glyph-name="ncaron" unicode="&#x148;" horiz-adv-x="911" 
d="M369 0h-269v1024h258v-170q59 195 244 195q114 0 167.5 -70t53.5 -221v-758h-274v717q0 69 -19.5 100t-62.5 31q-51 0 -74.5 -46t-23.5 -147v-655z" />
    <glyph glyph-name="napostrophe" unicode="&#x149;" horiz-adv-x="911" 
d="M369 0h-269v1024h258v-170q59 195 244 195q114 0 167.5 -70t53.5 -221v-758h-274v717q0 69 -19.5 100t-62.5 31q-51 0 -74.5 -46t-23.5 -147v-655z" />
    <glyph glyph-name="Eng" unicode="&#x14a;" horiz-adv-x="1058" 
d="M354 0h-250v1454h304l243 -706q38 -119 60 -218h6q-10 132 -10 322v602h249v-1454h-276l-266 766q-40 120 -64 229h-6q10 -157 10 -282v-713z" />
    <glyph glyph-name="eng" unicode="&#x14b;" horiz-adv-x="911" 
d="M369 0h-269v1024h258v-170q59 195 244 195q114 0 167.5 -70t53.5 -221v-758h-274v717q0 69 -19.5 100t-62.5 31q-51 0 -74.5 -46t-23.5 -147v-655z" />
    <glyph glyph-name="Omacron" unicode="&#x14c;" horiz-adv-x="1019" 
d="M510 -35q-210 0 -326 119.5t-116 341.5v602q0 222 116 341.5t326 119.5t326 -119.5t116 -341.5v-602q0 -222 -116 -341.5t-326 -119.5zM510 188q71 0 110 52.5t39 150.5v672q0 98 -39 150.5t-110 52.5q-72 0 -111 -52.5t-39 -150.5v-672q0 -98 39 -150.5t111 -52.5z" />
    <glyph glyph-name="omacron" unicode="&#x14d;" horiz-adv-x="874" 
d="M436 -25q-179 0 -279 99.5t-100 287.5v300q0 188 100 287.5t279 99.5q181 0 281 -99.5t100 -287.5v-300q0 -188 -100 -287.5t-281 -99.5zM436 164q52 0 76.5 40t24.5 130v356q0 90 -24.5 130t-76.5 40q-50 0 -74 -40t-24 -130v-356q0 -90 24 -130t74 -40z" />
    <glyph glyph-name="Obreve" unicode="&#x14e;" horiz-adv-x="1019" 
d="M510 -35q-210 0 -326 119.5t-116 341.5v602q0 222 116 341.5t326 119.5t326 -119.5t116 -341.5v-602q0 -222 -116 -341.5t-326 -119.5zM510 188q71 0 110 52.5t39 150.5v672q0 98 -39 150.5t-110 52.5q-72 0 -111 -52.5t-39 -150.5v-672q0 -98 39 -150.5t111 -52.5z" />
    <glyph glyph-name="obreve" unicode="&#x14f;" horiz-adv-x="874" 
d="M436 -25q-179 0 -279 99.5t-100 287.5v300q0 188 100 287.5t279 99.5q181 0 281 -99.5t100 -287.5v-300q0 -188 -100 -287.5t-281 -99.5zM436 164q52 0 76.5 40t24.5 130v356q0 90 -24.5 130t-76.5 40q-50 0 -74 -40t-24 -130v-356q0 -90 24 -130t74 -40z" />
    <glyph glyph-name="Ohungarumlaut" unicode="&#x150;" horiz-adv-x="1019" 
d="M510 -35q-210 0 -326 119.5t-116 341.5v602q0 222 116 341.5t326 119.5t326 -119.5t116 -341.5v-602q0 -222 -116 -341.5t-326 -119.5zM510 188q71 0 110 52.5t39 150.5v672q0 98 -39 150.5t-110 52.5q-72 0 -111 -52.5t-39 -150.5v-672q0 -98 39 -150.5t111 -52.5z" />
    <glyph glyph-name="ohungarumlaut" unicode="&#x151;" horiz-adv-x="874" 
d="M436 -25q-179 0 -279 99.5t-100 287.5v300q0 188 100 287.5t279 99.5q181 0 281 -99.5t100 -287.5v-300q0 -188 -100 -287.5t-281 -99.5zM436 164q52 0 76.5 40t24.5 130v356q0 90 -24.5 130t-76.5 40q-50 0 -74 -40t-24 -130v-356q0 -90 24 -130t74 -40z" />
    <glyph glyph-name="OE" unicode="&#x152;" horiz-adv-x="1841" 
d="M510 1489q210 0 326 -119.5t116 -341.5v-602q0 -222 -116 -341.5t-326 -119.5t-326 119.5t-116 341.5v602q0 222 116 341.5t326 119.5zM1407 639v-420h393v-219h-676v1454h662v-219h-379v-377h350v-219h-350zM659 391v672q0 98 -39 150.5t-110 52.5q-72 0 -111 -52.5
t-39 -150.5v-672q0 -98 39 -150.5t111 -52.5q71 0 110 52.5t39 150.5z" />
    <glyph glyph-name="oe" unicode="&#x153;" horiz-adv-x="1742" 
d="M436 1049q181 0 281 -99.5t100 -287.5v-300q0 -188 -100 -287.5t-281 -99.5q-179 0 -279 99.5t-100 287.5v300q0 188 100 287.5t279 99.5zM1686 662v-193h-461v-145q0 -152 100 -152q94 0 94 166v41l267 -37v-45q0 -152 -99.5 -237t-265.5 -85q-177 0 -276 97t-99 270
v313q0 193 96 293.5t279 100.5q365 0 365 -387zM1317 887q-92 0 -92 -152v-125h182v95q0 101 -21.5 141.5t-68.5 40.5zM537 334v356q0 90 -24.5 130t-76.5 40q-50 0 -74 -40t-24 -130v-356q0 -90 24 -130t74 -40q52 0 76.5 40t24.5 130z" />
    <glyph glyph-name="Racute" unicode="&#x154;" horiz-adv-x="974" 
d="M946 0h-297l-160 592h-102v-592h-283v1454h388q219 0 320 -99.5t101 -289.5v-70q0 -251 -172 -338zM387 1257v-483h84q82 0 116 49.5t34 157.5v92q0 100 -34 142t-116 42h-84z" />
    <glyph glyph-name="racute" unicode="&#x155;" horiz-adv-x="620" 
d="M348 1024v-225q19 108 79 179t159 71q10 0 18 -2v-285q-36 4 -61 4q-82 0 -133 -66q-41 -54 -41 -188v-512h-269v1024h248z" />
    <glyph glyph-name="uni0156" unicode="&#x156;" horiz-adv-x="974" 
d="M946 0h-297l-160 592h-102v-592h-283v1454h388q219 0 320 -99.5t101 -289.5v-70q0 -251 -172 -338zM387 1257v-483h84q82 0 116 49.5t34 157.5v92q0 100 -34 142t-116 42h-84z" />
    <glyph glyph-name="uni0157" unicode="&#x157;" horiz-adv-x="620" 
d="M348 1024v-225q19 108 79 179t159 71q10 0 18 -2v-285q-36 4 -61 4q-82 0 -133 -66q-41 -54 -41 -188v-512h-269v1024h248z" />
    <glyph glyph-name="Rcaron" unicode="&#x158;" horiz-adv-x="974" 
d="M946 0h-297l-160 592h-102v-592h-283v1454h388q219 0 320 -99.5t101 -289.5v-70q0 -251 -172 -338zM387 1257v-483h84q82 0 116 49.5t34 157.5v92q0 100 -34 142t-116 42h-84z" />
    <glyph glyph-name="rcaron" unicode="&#x159;" horiz-adv-x="620" 
d="M348 1024v-225q19 108 79 179t159 71q10 0 18 -2v-285q-36 4 -61 4q-82 0 -133 -66q-41 -54 -41 -188v-512h-269v1024h248z" />
    <glyph glyph-name="Sacute" unicode="&#x15a;" horiz-adv-x="905" 
d="M453 -35q-194 0 -302 106.5t-108 290.5v117l289 56v-166q0 -185 123 -185q59 0 87.5 39t28.5 103v59q0 72 -20.5 112.5t-87.5 82.5l-207 127q-109 65 -154 148.5t-45 203.5v76q0 115 53.5 196.5t142 119.5t202.5 38q197 0 301 -87.5t104 -285.5v-106l-285 -54v156
q0 162 -120 162q-52 0 -81.5 -34.5t-29.5 -88.5v-66q0 -107 105 -172l206 -127q118 -72 162.5 -153.5t44.5 -202.5v-111q0 -161 -106.5 -257.5t-302.5 -96.5z" />
    <glyph glyph-name="sacute" unicode="&#x15b;" horiz-adv-x="796" 
d="M401 -25q-164 0 -259 68.5t-95 194.5v73l270 39v-82q0 -110 86 -110q76 0 76 82v51q0 44 -17.5 71t-62.5 41l-145 39q-199 58 -199 260v86q0 120 90 190.5t250 70.5q158 0 250 -67t92 -191v-58l-262 -35v78q0 98 -76 98q-33 0 -53 -19t-20 -60v-45q0 -47 15.5 -75.5
t66.5 -45.5l139 -43q108 -36 155.5 -93.5t47.5 -146.5v-96q0 -120 -94 -197.5t-255 -77.5z" />
    <glyph glyph-name="Scircumflex" unicode="&#x15c;" horiz-adv-x="905" 
d="M453 -35q-194 0 -302 106.5t-108 290.5v117l289 56v-166q0 -185 123 -185q59 0 87.5 39t28.5 103v59q0 72 -20.5 112.5t-87.5 82.5l-207 127q-109 65 -154 148.5t-45 203.5v76q0 115 53.5 196.5t142 119.5t202.5 38q197 0 301 -87.5t104 -285.5v-106l-285 -54v156
q0 162 -120 162q-52 0 -81.5 -34.5t-29.5 -88.5v-66q0 -107 105 -172l206 -127q118 -72 162.5 -153.5t44.5 -202.5v-111q0 -161 -106.5 -257.5t-302.5 -96.5z" />
    <glyph glyph-name="scircumflex" unicode="&#x15d;" horiz-adv-x="796" 
d="M401 -25q-164 0 -259 68.5t-95 194.5v73l270 39v-82q0 -110 86 -110q76 0 76 82v51q0 44 -17.5 71t-62.5 41l-145 39q-199 58 -199 260v86q0 120 90 190.5t250 70.5q158 0 250 -67t92 -191v-58l-262 -35v78q0 98 -76 98q-33 0 -53 -19t-20 -60v-45q0 -47 15.5 -75.5
t66.5 -45.5l139 -43q108 -36 155.5 -93.5t47.5 -146.5v-96q0 -120 -94 -197.5t-255 -77.5z" />
    <glyph glyph-name="Scedilla" unicode="&#x15e;" horiz-adv-x="905" 
d="M453 -35q-194 0 -302 106.5t-108 290.5v117l289 56v-166q0 -185 123 -185q59 0 87.5 39t28.5 103v59q0 72 -20.5 112.5t-87.5 82.5l-207 127q-109 65 -154 148.5t-45 203.5v76q0 115 53.5 196.5t142 119.5t202.5 38q197 0 301 -87.5t104 -285.5v-106l-285 -54v156
q0 162 -120 162q-52 0 -81.5 -34.5t-29.5 -88.5v-66q0 -107 105 -172l206 -127q118 -72 162.5 -153.5t44.5 -202.5v-111q0 -161 -106.5 -257.5t-302.5 -96.5z" />
    <glyph glyph-name="scedilla" unicode="&#x15f;" horiz-adv-x="796" 
d="M401 -25q-164 0 -259 68.5t-95 194.5v73l270 39v-82q0 -110 86 -110q76 0 76 82v51q0 44 -17.5 71t-62.5 41l-145 39q-199 58 -199 260v86q0 120 90 190.5t250 70.5q158 0 250 -67t92 -191v-58l-262 -35v78q0 98 -76 98q-33 0 -53 -19t-20 -60v-45q0 -47 15.5 -75.5
t66.5 -45.5l139 -43q108 -36 155.5 -93.5t47.5 -146.5v-96q0 -120 -94 -197.5t-255 -77.5z" />
    <glyph glyph-name="Scaron" unicode="&#x160;" horiz-adv-x="905" 
d="M453 -35q-194 0 -302 106.5t-108 290.5v117l289 56v-166q0 -185 123 -185q59 0 87.5 39t28.5 103v59q0 72 -20.5 112.5t-87.5 82.5l-207 127q-109 65 -154 148.5t-45 203.5v76q0 115 53.5 196.5t142 119.5t202.5 38q197 0 301 -87.5t104 -285.5v-106l-285 -54v156
q0 162 -120 162q-52 0 -81.5 -34.5t-29.5 -88.5v-66q0 -107 105 -172l206 -127q118 -72 162.5 -153.5t44.5 -202.5v-111q0 -161 -106.5 -257.5t-302.5 -96.5z" />
    <glyph glyph-name="scaron" unicode="&#x161;" horiz-adv-x="796" 
d="M401 -25q-164 0 -259 68.5t-95 194.5v73l270 39v-82q0 -110 86 -110q76 0 76 82v51q0 44 -17.5 71t-62.5 41l-145 39q-199 58 -199 260v86q0 120 90 190.5t250 70.5q158 0 250 -67t92 -191v-58l-262 -35v78q0 98 -76 98q-33 0 -53 -19t-20 -60v-45q0 -47 15.5 -75.5
t66.5 -45.5l139 -43q108 -36 155.5 -93.5t47.5 -146.5v-96q0 -120 -94 -197.5t-255 -77.5z" />
    <glyph glyph-name="uni0162" unicode="&#x162;" horiz-adv-x="845" 
d="M4 1454h838v-242h-279v-1212h-280v1212h-279v242z" />
    <glyph glyph-name="uni0163" unicode="&#x163;" horiz-adv-x="606" 
d="M133 838h-119v186h119v233l268 91v-324h168v-186h-168v-496q0 -123 107 -123q27 0 67 4v-227q-65 -14 -151 -14q-152 0 -221.5 70t-69.5 218v568z" />
    <glyph glyph-name="Tcaron" unicode="&#x164;" horiz-adv-x="845" 
d="M4 1454h838v-242h-279v-1212h-280v1212h-279v242z" />
    <glyph glyph-name="tcaron" unicode="&#x165;" horiz-adv-x="606" 
d="M133 838h-119v186h119v233l268 91v-324h168v-186h-168v-496q0 -123 107 -123q27 0 67 4v-227q-65 -14 -151 -14q-152 0 -221.5 70t-69.5 218v568z" />
    <glyph glyph-name="Tbar" unicode="&#x166;" horiz-adv-x="845" 
d="M4 1454h838v-242h-279v-1212h-280v1212h-279v242z" />
    <glyph glyph-name="tbar" unicode="&#x167;" horiz-adv-x="606" 
d="M133 838h-119v186h119v233l268 91v-324h168v-186h-168v-496q0 -123 107 -123q27 0 67 4v-227q-65 -14 -151 -14q-152 0 -221.5 70t-69.5 218v568z" />
    <glyph glyph-name="Utilde" unicode="&#x168;" horiz-adv-x="1013" 
d="M92 354v1100h285v-1087q0 -78 33.5 -120t97.5 -42q62 0 96.5 42t34.5 120v1087h283v-1100q0 -182 -108 -285.5t-306 -103.5q-199 0 -307.5 103.5t-108.5 285.5z" />
    <glyph glyph-name="utilde" unicode="&#x169;" horiz-adv-x="913" 
d="M319 -25q-125 0 -178 77t-53 224v748h274v-715q0 -129 84 -129q97 0 97 174v670h270v-1024h-258v160q-60 -185 -236 -185z" />
    <glyph glyph-name="Umacron" unicode="&#x16a;" horiz-adv-x="1013" 
d="M92 354v1100h285v-1087q0 -78 33.5 -120t97.5 -42q62 0 96.5 42t34.5 120v1087h283v-1100q0 -182 -108 -285.5t-306 -103.5q-199 0 -307.5 103.5t-108.5 285.5z" />
    <glyph glyph-name="umacron" unicode="&#x16b;" horiz-adv-x="913" 
d="M319 -25q-125 0 -178 77t-53 224v748h274v-715q0 -129 84 -129q97 0 97 174v670h270v-1024h-258v160q-60 -185 -236 -185z" />
    <glyph glyph-name="Ubreve" unicode="&#x16c;" horiz-adv-x="1013" 
d="M92 354v1100h285v-1087q0 -78 33.5 -120t97.5 -42q62 0 96.5 42t34.5 120v1087h283v-1100q0 -182 -108 -285.5t-306 -103.5q-199 0 -307.5 103.5t-108.5 285.5z" />
    <glyph glyph-name="ubreve" unicode="&#x16d;" horiz-adv-x="913" 
d="M319 -25q-125 0 -178 77t-53 224v748h274v-715q0 -129 84 -129q97 0 97 174v670h270v-1024h-258v160q-60 -185 -236 -185z" />
    <glyph glyph-name="Uring" unicode="&#x16e;" horiz-adv-x="1013" 
d="M92 354v1100h285v-1087q0 -78 33.5 -120t97.5 -42q62 0 96.5 42t34.5 120v1087h283v-1100q0 -182 -108 -285.5t-306 -103.5q-199 0 -307.5 103.5t-108.5 285.5z" />
    <glyph glyph-name="uring" unicode="&#x16f;" horiz-adv-x="913" 
d="M319 -25q-125 0 -178 77t-53 224v748h274v-715q0 -129 84 -129q97 0 97 174v670h270v-1024h-258v160q-60 -185 -236 -185z" />
    <glyph glyph-name="Uhungarumlaut" unicode="&#x170;" horiz-adv-x="1013" 
d="M92 354v1100h285v-1087q0 -78 33.5 -120t97.5 -42q62 0 96.5 42t34.5 120v1087h283v-1100q0 -182 -108 -285.5t-306 -103.5q-199 0 -307.5 103.5t-108.5 285.5z" />
    <glyph glyph-name="uhungarumlaut" unicode="&#x171;" horiz-adv-x="913" 
d="M319 -25q-125 0 -178 77t-53 224v748h274v-715q0 -129 84 -129q97 0 97 174v670h270v-1024h-258v160q-60 -185 -236 -185z" />
    <glyph glyph-name="Uogonek" unicode="&#x172;" horiz-adv-x="1013" 
d="M92 354v1100h285v-1087q0 -78 33.5 -120t97.5 -42q62 0 96.5 42t34.5 120v1087h283v-1100q0 -182 -108 -285.5t-306 -103.5q-199 0 -307.5 103.5t-108.5 285.5z" />
    <glyph glyph-name="uogonek" unicode="&#x173;" horiz-adv-x="913" 
d="M319 -25q-125 0 -178 77t-53 224v748h274v-715q0 -129 84 -129q97 0 97 174v670h270v-1024h-258v160q-60 -185 -236 -185z" />
    <glyph glyph-name="Wcircumflex" unicode="&#x174;" horiz-adv-x="1314" 
d="M537 0h-332l-168 1454h262l76 -893q10 -180 10 -237h10q3 38 10.5 111t10.5 108l104 911h273l106 -911q9 -108 21 -219h8q0 57 10 237l76 893h262l-166 -1454h-334l-98 829q-4 38 -16 252h-11q-4 -141 -16 -252z" />
    <glyph glyph-name="wcircumflex" unicode="&#x175;" horiz-adv-x="1171" 
d="M483 0h-295l-176 1024h264l64 -618q4 -58 8 -158h8q3 79 15 158l86 618h258l86 -618q12 -105 14 -158h6q4 100 8 158l64 618h266l-178 -1024h-293l-88 610q-3 21 -10 174h-8q-7 -141 -11 -174z" />
    <glyph glyph-name="Ycircumflex" unicode="&#x176;" horiz-adv-x="905" 
d="M596 0h-283v522l-309 932h295l125 -485q20 -81 29 -193h6q14 128 28 193l119 485h295l-305 -932v-522z" />
    <glyph glyph-name="ycircumflex" unicode="&#x177;" horiz-adv-x="804" 
d="M131 -410q-37 0 -84 7v221q30 -6 55 -6q65 0 102 29.5t52 92.5l12 52l-264 1038h293l92 -580q14 -102 21 -241h6q5 129 20 237l84 584h281l-248 -1085q-42 -187 -144.5 -268t-277.5 -81z" />
    <glyph glyph-name="Ydieresis" unicode="&#x178;" horiz-adv-x="905" 
d="M596 0h-283v522l-309 932h295l125 -485q20 -81 29 -193h6q14 128 28 193l119 485h295l-305 -932v-522z" />
    <glyph glyph-name="Zacute" unicode="&#x179;" horiz-adv-x="806" 
d="M35 0v211l426 1003h-410v240h713v-207l-422 -1007h440v-240h-747z" />
    <glyph glyph-name="zacute" unicode="&#x17a;" horiz-adv-x="696" 
d="M29 0v174l333 653h-315v197h604v-170l-332 -655h353v-199h-643z" />
    <glyph glyph-name="Zdotaccent" unicode="&#x17b;" horiz-adv-x="806" 
d="M35 0v211l426 1003h-410v240h713v-207l-422 -1007h440v-240h-747z" />
    <glyph glyph-name="zdotaccent" unicode="&#x17c;" horiz-adv-x="696" 
d="M29 0v174l333 653h-315v197h604v-170l-332 -655h353v-199h-643z" />
    <glyph glyph-name="Zcaron" unicode="&#x17d;" horiz-adv-x="806" 
d="M35 0v211l426 1003h-410v240h713v-207l-422 -1007h440v-240h-747z" />
    <glyph glyph-name="zcaron" unicode="&#x17e;" horiz-adv-x="696" 
d="M29 0v174l333 653h-315v197h604v-170l-332 -655h353v-199h-643z" />
    <glyph glyph-name="AEacute" unicode="&#x1fc;" horiz-adv-x="1794" 
d="M16 0l283 1454h373l284 -1454h-286l-54 340h-262l-53 -340h-285zM1360 639v-420h393v-219h-676v1454h662v-219h-379v-377h350v-219h-350zM457 1006l-72 -459h201l-72 459q-14 96 -25 206h-6q-9 -85 -26 -206z" />
    <glyph glyph-name="aeacute" unicode="&#x1fd;" horiz-adv-x="1708" 
d="M766 733v-500q0 -152 16 -233h-256q-12 110 -10 154q-14 -79 -76 -129t-153 -50q-111 0 -178.5 66.5t-67.5 183.5v76q0 62 22.5 116t63.5 89q69 60 221 94l150 35v125q0 56 -19.5 81t-60.5 25q-84 0 -84 -106v-86h-268v71q0 150 93 227t261 77q180 0 263 -74.5t83 -241.5
zM1651 662v-193h-461v-145q0 -152 100 -152q94 0 94 166v41l267 -37v-45q0 -152 -99.5 -237t-265.5 -85q-177 0 -276 97t-99 270v313q0 193 96 293.5t279 100.5q365 0 365 -387zM1282 887q-92 0 -92 -152v-125h182v95q0 101 -21.5 141.5t-68.5 40.5zM500 291v196l-80 -20
q-96 -26 -96 -154v-39q0 -110 77 -110q44 0 71.5 33.5t27.5 93.5z" />
    <glyph glyph-name="Oslashacute" unicode="&#x1fe;" horiz-adv-x="1019" 
d="M510 -35q-210 0 -326 119.5t-116 341.5v602q0 222 116 341.5t326 119.5t326 -119.5t116 -341.5v-602q0 -222 -116 -341.5t-326 -119.5zM510 188q71 0 110 52.5t39 150.5v672q0 98 -39 150.5t-110 52.5q-72 0 -111 -52.5t-39 -150.5v-672q0 -98 39 -150.5t111 -52.5z" />
    <glyph glyph-name="oslashacute" unicode="&#x1ff;" horiz-adv-x="874" 
d="M436 -25q-179 0 -279 99.5t-100 287.5v300q0 188 100 287.5t279 99.5q181 0 281 -99.5t100 -287.5v-300q0 -188 -100 -287.5t-281 -99.5zM436 164q52 0 76.5 40t24.5 130v356q0 90 -24.5 130t-76.5 40q-50 0 -74 -40t-24 -130v-356q0 -90 24 -130t74 -40z" />
    <glyph glyph-name="uni0218" unicode="&#x218;" horiz-adv-x="905" 
d="M453 -35q-194 0 -302 106.5t-108 290.5v117l289 56v-166q0 -185 123 -185q59 0 87.5 39t28.5 103v59q0 72 -20.5 112.5t-87.5 82.5l-207 127q-109 65 -154 148.5t-45 203.5v76q0 115 53.5 196.5t142 119.5t202.5 38q197 0 301 -87.5t104 -285.5v-106l-285 -54v156
q0 162 -120 162q-52 0 -81.5 -34.5t-29.5 -88.5v-66q0 -107 105 -172l206 -127q118 -72 162.5 -153.5t44.5 -202.5v-111q0 -161 -106.5 -257.5t-302.5 -96.5z" />
    <glyph glyph-name="uni0219" unicode="&#x219;" horiz-adv-x="796" 
d="M401 -25q-164 0 -259 68.5t-95 194.5v73l270 39v-82q0 -110 86 -110q76 0 76 82v51q0 44 -17.5 71t-62.5 41l-145 39q-199 58 -199 260v86q0 120 90 190.5t250 70.5q158 0 250 -67t92 -191v-58l-262 -35v78q0 98 -76 98q-33 0 -53 -19t-20 -60v-45q0 -47 15.5 -75.5
t66.5 -45.5l139 -43q108 -36 155.5 -93.5t47.5 -146.5v-96q0 -120 -94 -197.5t-255 -77.5z" />
    <glyph glyph-name="uni021A" unicode="&#x21a;" horiz-adv-x="845" 
d="M4 1454h838v-242h-279v-1212h-280v1212h-279v242z" />
    <glyph glyph-name="uni021B" unicode="&#x21b;" horiz-adv-x="606" 
d="M133 838h-119v186h119v233l268 91v-324h168v-186h-168v-496q0 -123 107 -123q27 0 67 4v-227q-65 -14 -151 -14q-152 0 -221.5 70t-69.5 218v568z" />
    <glyph glyph-name="uni0237" unicode="&#x237;" horiz-adv-x="468" 
d="M367 1169h-275v277h275v-277zM84 -414q-65 0 -115 11v217q40 -4 56 -4q40 0 57.5 22.5t17.5 73.5v1118h269v-1137q0 -79 -13 -132.5t-45 -93t-87.5 -57.5t-139.5 -18z" />
    <glyph glyph-name="Alphatonos" unicode="&#x386;" horiz-adv-x="972" 
d="M956 0h-286l-54 340h-262l-53 -340h-285l283 1454h373zM457 1006l-72 -459h201l-72 459q-14 96 -25 206h-6q-9 -85 -26 -206z" />
    <glyph glyph-name="Epsilontonos" unicode="&#x388;" horiz-adv-x="821" 
d="M387 639v-420h393v-219h-676v1454h662v-219h-379v-377h350v-219h-350z" />
    <glyph glyph-name="Etatonos" unicode="&#x389;" horiz-adv-x="1040" 
d="M653 1454h283v-1454h-283v633h-266v-633h-283v1454h283v-602h266v602z" />
    <glyph glyph-name="Iotatonos" unicode="&#x38a;" horiz-adv-x="491" 
d="M387 1454v-1454h-283v1454h283z" />
    <glyph glyph-name="Omicrontonos" unicode="&#x38c;" horiz-adv-x="1019" 
d="M510 -35q-210 0 -326 119.5t-116 341.5v602q0 222 116 341.5t326 119.5t326 -119.5t116 -341.5v-602q0 -222 -116 -341.5t-326 -119.5zM510 188q71 0 110 52.5t39 150.5v672q0 98 -39 150.5t-110 52.5q-72 0 -111 -52.5t-39 -150.5v-672q0 -98 39 -150.5t111 -52.5z" />
    <glyph glyph-name="Upsilontonos" unicode="&#x38e;" horiz-adv-x="905" 
d="M596 0h-283v522l-309 932h295l125 -485q20 -81 29 -193h6q14 128 28 193l119 485h295l-305 -932v-522z" />
    <glyph glyph-name="Omegatonos" unicode="&#x38f;" horiz-adv-x="1017" 
d="M510 1266q-72 0 -111 -52.5t-39 -150.5v-617q0 -199 97 -225v-221h-396v219h177v6q-80 31 -125 114t-45 200v489q0 222 116 341.5t326 119.5q208 0 324 -120t116 -341v-489q0 -117 -45 -200t-125 -114v-6h178v-219h-395v221q94 25 94 225v617q0 98 -38 150.5t-109 52.5z
" />
    <glyph glyph-name="iotadieresistonos" unicode="&#x390;" horiz-adv-x="509" 
d="M88 1024h268v-707q0 -53 16 -75.5t52 -22.5q21 0 41 4v-227q-46 -14 -117 -14q-137 0 -198.5 79t-61.5 230v733z" />
    <glyph glyph-name="Alpha" unicode="&#x391;" horiz-adv-x="972" 
d="M956 0h-286l-54 340h-262l-53 -340h-285l283 1454h373zM457 1006l-72 -459h201l-72 459q-14 96 -25 206h-6q-9 -85 -26 -206z" />
    <glyph glyph-name="Beta" unicode="&#x392;" horiz-adv-x="980" 
d="M711 768q204 -67 204 -330v-43q0 -189 -101 -292t-300 -103h-410v1454h400q197 0 296 -95t99 -263v-49q0 -106 -50 -179.5t-138 -99.5zM469 1257h-82v-421h82q75 0 107 49t32 155v47q0 89 -32.5 129.5t-106.5 40.5zM625 399v52q0 108 -35 156t-111 48h-92v-458h98
q74 0 107 50t33 152z" />
    <glyph glyph-name="Gamma" unicode="&#x393;" horiz-adv-x="753" 
d="M750 1454v-242h-363v-1212h-283v1454h646z" />
    <glyph glyph-name="uni0394" unicode="&#x394;" horiz-adv-x="917" 
d="M903 0h-887l252 1454h387zM592 201l-133 1007l-144 -1007h277z" />
    <glyph glyph-name="Epsilon" unicode="&#x395;" horiz-adv-x="821" 
d="M387 639v-420h393v-219h-676v1454h662v-219h-379v-377h350v-219h-350z" />
    <glyph glyph-name="Zeta" unicode="&#x396;" horiz-adv-x="806" 
d="M35 0v211l426 1003h-410v240h713v-207l-422 -1007h440v-240h-747z" />
    <glyph glyph-name="Eta" unicode="&#x397;" horiz-adv-x="1040" 
d="M653 1454h283v-1454h-283v633h-266v-633h-283v1454h283v-602h266v602z" />
    <glyph glyph-name="Theta" unicode="&#x398;" horiz-adv-x="1019" 
d="M510 -35q-210 0 -326 119.5t-116 341.5v602q0 222 116 341.5t326 119.5t326 -119.5t116 -341.5v-602q0 -222 -116 -341.5t-326 -119.5zM510 188q71 0 110 52.5t39 150.5v672q0 98 -39 150.5t-110 52.5q-72 0 -111 -52.5t-39 -150.5v-672q0 -98 39 -150.5t111 -52.5z" />
    <glyph glyph-name="Iota" unicode="&#x399;" horiz-adv-x="491" 
d="M387 1454v-1454h-283v1454h283z" />
    <glyph glyph-name="Kappa" unicode="&#x39a;" horiz-adv-x="989" 
d="M973 0h-303l-176 651l-107 -231v-420h-283v1454h283v-684l281 684h293l-261 -563z" />
    <glyph glyph-name="Lambda" unicode="&#x39b;" horiz-adv-x="972" 
d="M16 0l283 1454h373l284 -1454h-286l-154 1006q-21 146 -27 206h-6q-4 -35 -28 -206l-154 -1006h-285z" />
    <glyph glyph-name="Mu" unicode="&#x39c;" horiz-adv-x="1267" 
d="M344 0h-240v1454h381l123 -756q23 -179 23 -213h8q2 47 23 213l122 756h381v-1454h-243v731q0 278 4 395h-8q-5 -56 -29 -215l-152 -911h-207l-155 911q-24 187 -27 215h-10q6 -117 6 -395v-731z" />
    <glyph glyph-name="Nu" unicode="&#x39d;" horiz-adv-x="1058" 
d="M354 0h-250v1454h304l243 -706q38 -119 60 -218h6q-10 132 -10 322v602h249v-1454h-276l-266 766q-40 120 -64 229h-6q10 -157 10 -282v-713z" />
    <glyph glyph-name="Xi" unicode="&#x39e;" horiz-adv-x="772" 
d="M49 1235v219h676v-219h-676zM104 639v219h566v-219h-566zM41 0v217h690v-217h-690z" />
    <glyph glyph-name="Omicron" unicode="&#x39f;" horiz-adv-x="1019" 
d="M510 -35q-210 0 -326 119.5t-116 341.5v602q0 222 116 341.5t326 119.5t326 -119.5t116 -341.5v-602q0 -222 -116 -341.5t-326 -119.5zM510 188q71 0 110 52.5t39 150.5v672q0 98 -39 150.5t-110 52.5q-72 0 -111 -52.5t-39 -150.5v-672q0 -98 39 -150.5t111 -52.5z" />
    <glyph glyph-name="Pi" unicode="&#x3a0;" horiz-adv-x="1036" 
d="M104 0v1454h828v-1454h-283v1223h-262v-1223h-283z" />
    <glyph glyph-name="Rho" unicode="&#x3a1;" horiz-adv-x="929" 
d="M104 1454h398q202 0 305.5 -94t105.5 -279v-120q0 -195 -104.5 -299.5t-300.5 -104.5h-121v-557h-283v1454zM618 965v106q0 98 -34 142t-111 44h-86v-499h88q74 0 108.5 49.5t34.5 157.5z" />
    <glyph glyph-name="Sigma" unicode="&#x3a3;" horiz-adv-x="786" 
d="M737 1212h-375l256 -452l-274 -520h401v-240h-704v219l283 541l-275 479v215h688v-242z" />
    <glyph glyph-name="Tau" unicode="&#x3a4;" horiz-adv-x="845" 
d="M4 1454h838v-242h-279v-1212h-280v1212h-279v242z" />
    <glyph glyph-name="Upsilon" unicode="&#x3a5;" horiz-adv-x="905" 
d="M596 0h-283v522l-309 932h295l125 -485q20 -81 29 -193h6q14 128 28 193l119 485h295l-305 -932v-522z" />
    <glyph glyph-name="Phi" unicode="&#x3a6;" horiz-adv-x="1331" 
d="M807 1567v-121q457 -57 457 -508v-438q0 -211 -120 -336.5t-337 -155.5v-110h-285v110q-215 30 -334.5 155t-119.5 337v438q0 451 454 508v121h285zM979 506v430q0 123 -41 193t-131 96v-1002q91 25 131.5 91t40.5 192zM352 936v-430q0 -124 41 -191t129 -92v1002
q-88 -28 -129 -98t-41 -191z" />
    <glyph glyph-name="Chi" unicode="&#x3a7;" horiz-adv-x="935" 
d="M311 0h-299l254 772l-235 682h299l104 -367q12 -47 31 -178h4q15 121 31 178l108 367h293l-229 -684l252 -770h-301l-127 469q-17 65 -29 176h-4q-8 -78 -29 -176z" />
    <glyph glyph-name="Psi" unicode="&#x3a8;" horiz-adv-x="1376" 
d="M999 801v653h285v-623q0 -256 -115 -386t-340 -148v-297h-284v297q-225 19 -339 148.5t-114 385.5v623h285v-653q0 -126 40 -194t128 -87v934h284v-934q90 19 130 87t40 194z" />
    <glyph glyph-name="uni03A9" unicode="&#x3a9;" horiz-adv-x="1017" 
d="M510 1266q-72 0 -111 -52.5t-39 -150.5v-617q0 -199 97 -225v-221h-396v219h177v6q-80 31 -125 114t-45 200v489q0 222 116 341.5t326 119.5q208 0 324 -120t116 -341v-489q0 -117 -45 -200t-125 -114v-6h178v-219h-395v221q94 25 94 225v617q0 98 -38 150.5t-109 52.5z
" />
    <glyph glyph-name="Iotadieresis" unicode="&#x3aa;" horiz-adv-x="491" 
d="M387 1454v-1454h-283v1454h283z" />
    <glyph glyph-name="Upsilondieresis" unicode="&#x3ab;" horiz-adv-x="905" 
d="M596 0h-283v522l-309 932h295l125 -485q20 -81 29 -193h6q14 128 28 193l119 485h295l-305 -932v-522z" />
    <glyph glyph-name="alphatonos" unicode="&#x3ac;" horiz-adv-x="905" 
d="M836 0h-271q-13 94 -18 168q-64 -193 -215 -193q-140 0 -207.5 94.5t-67.5 290.5v291q0 195 67.5 296.5t199.5 101.5q168 0 225 -162l24 137h232v-709q0 -207 31 -315zM539 360v304q0 95 -24.5 139.5t-76.5 44.5q-50 0 -74 -44t-24 -138v-304q0 -98 23.5 -142t76.5 -44
t76 43t23 141z" />
    <glyph glyph-name="epsilontonos" unicode="&#x3ad;" horiz-adv-x="827" 
d="M410 -25q-159 0 -256 71.5t-97 191.5v59q0 95 62 156.5t172 76.5q-217 42 -217 226v30q0 87 49.5 148t126 88t172.5 27q173 0 270.5 -79t100.5 -243l-273 -39q-2 85 -21.5 124.5t-74.5 39.5q-47 0 -69.5 -28t-22.5 -74v-25q0 -53 30.5 -76.5t90.5 -23.5h67v-193h-63
q-68 0 -99.5 -30t-31.5 -97v-22q0 -53 25 -82t71 -29q59 0 80 42.5t26 133.5l267 -41q-15 -173 -110.5 -252.5t-274.5 -79.5z" />
    <glyph glyph-name="etatonos" unicode="&#x3ae;" horiz-adv-x="915" 
d="M608 1049q114 0 167.5 -70t53.5 -221v-1157h-276v1116q0 69 -18.5 100t-61.5 31q-52 0 -75 -45.5t-23 -147.5v-655h-271v678q0 231 -36 346h268q20 -66 26 -162q67 187 246 187z" />
    <glyph glyph-name="iotatonos" unicode="&#x3af;" horiz-adv-x="509" 
d="M88 1024h268v-707q0 -53 16 -75.5t52 -22.5q21 0 41 4v-227q-46 -14 -117 -14q-137 0 -198.5 79t-61.5 230v733z" />
    <glyph glyph-name="upsilondieresistonos" unicode="&#x3b0;" horiz-adv-x="907" 
d="M453 -25q-365 0 -365 406v643h274v-684q0 -81 22 -120.5t73 -39.5t71.5 39t20.5 121v684h270v-643q0 -406 -366 -406z" />
    <glyph glyph-name="alpha" unicode="&#x3b1;" horiz-adv-x="905" 
d="M836 0h-271q-13 94 -18 168q-64 -193 -215 -193q-140 0 -207.5 94.5t-67.5 290.5v291q0 195 67.5 296.5t199.5 101.5q168 0 225 -162l24 137h232v-709q0 -207 31 -315zM539 360v304q0 95 -24.5 139.5t-76.5 44.5q-50 0 -74 -44t-24 -138v-304q0 -98 23.5 -142t76.5 -44
t76 43t23 141z" />
    <glyph glyph-name="beta" unicode="&#x3b2;" horiz-adv-x="905" 
d="M631 819q227 -38 227 -311v-162q0 -170 -74 -270.5t-204 -100.5q-153 0 -222 131v-505h-268v1538q0 170 94.5 260t274.5 90q174 0 272 -80.5t98 -230.5v-95q0 -102 -51.5 -173t-146.5 -91zM584 348v166q0 99 -33 146t-109 47h-28v196h28q113 0 113 168v90q0 133 -96 133
q-51 0 -76 -34.5t-25 -110.5v-924q42 -45 109 -45q117 0 117 168z" />
    <glyph glyph-name="gamma" unicode="&#x3b3;" horiz-adv-x="811" 
d="M510 1024h276q3 -173 -63 -403l-176 -621v-399h-293v397l-250 1026h281l92 -637q12 -77 18 -147h8q2 27 12.5 79.5t12.5 67.5l55 309q32 180 27 328z" />
    <glyph glyph-name="delta" unicode="&#x3b4;" horiz-adv-x="876" 
d="M436 1100l162 -105q116 -73 167.5 -159t51.5 -224v-247q0 -189 -99.5 -289.5t-273.5 -100.5q-177 0 -282 97t-105 293v221q0 136 72 219t213 98l-84 53q-154 104 -154 273q0 133 87.5 200.5t232.5 67.5q81 0 167 -23.5t144 -58.5v-227q-167 96 -289 96q-98 0 -98 -72
q0 -24 15 -46.5t31 -35.5t42 -30zM539 334v291q0 98 -23.5 149t-77.5 51q-57 0 -77.5 -49.5t-20.5 -152.5v-287q0 -91 23 -131.5t75 -40.5t76.5 41t24.5 129z" />
    <glyph glyph-name="epsilon" unicode="&#x3b5;" horiz-adv-x="827" 
d="M410 -25q-159 0 -256 71.5t-97 191.5v59q0 95 62 156.5t172 76.5q-217 42 -217 226v30q0 87 49.5 148t126 88t172.5 27q173 0 270.5 -79t100.5 -243l-273 -39q-2 85 -21.5 124.5t-74.5 39.5q-47 0 -69.5 -28t-22.5 -74v-25q0 -53 30.5 -76.5t90.5 -23.5h67v-193h-63
q-68 0 -99.5 -30t-31.5 -97v-22q0 -53 25 -82t71 -29q59 0 80 42.5t26 133.5l267 -41q-15 -173 -110.5 -252.5t-274.5 -79.5z" />
    <glyph glyph-name="zeta" unicode="&#x3b6;" horiz-adv-x="731" 
d="M733 1286l-160 -268q-133 -221 -183 -333.5t-50 -225.5v-25q0 -82 33.5 -128t118.5 -83l38 -18q83 -37 131 -101.5t48 -154.5q0 -147 -86 -287h-248q76 103 76 217q0 57 -29 93.5t-103 66.5l-38 18q-110 42 -165 121.5t-55 208.5v55q0 133 64.5 271.5t198.5 341.5
l133 200h-377v199h653v-168z" />
    <glyph glyph-name="eta" unicode="&#x3b7;" horiz-adv-x="915" 
d="M608 1049q114 0 167.5 -70t53.5 -221v-1157h-276v1116q0 69 -18.5 100t-61.5 31q-52 0 -75 -45.5t-23 -147.5v-655h-271v678q0 231 -36 346h268q20 -66 26 -162q67 187 246 187z" />
    <glyph glyph-name="theta" unicode="&#x3b8;" horiz-adv-x="890" 
d="M446 1497q187 0 283 -104t96 -295v-742q0 -176 -96.5 -278.5t-284.5 -102.5q-185 0 -280.5 102.5t-95.5 278.5v742q0 192 94.5 295.5t283.5 103.5zM444 1309q-62 0 -85 -45.5t-23 -147.5v-285h221v285q0 103 -23.5 148t-89.5 45zM444 164q65 0 89 44t24 126v313h-221
v-311q0 -83 22.5 -127.5t85.5 -44.5z" />
    <glyph glyph-name="iota" unicode="&#x3b9;" horiz-adv-x="509" 
d="M88 1024h268v-707q0 -53 16 -75.5t52 -22.5q21 0 41 4v-227q-46 -14 -117 -14q-137 0 -198.5 79t-61.5 230v733z" />
    <glyph glyph-name="kappa" unicode="&#x3ba;" horiz-adv-x="913" 
d="M872 0h-286l-129 428l-88 -133v-295h-269v1024h269v-446l209 313q53 78 98 108.5t110 30.5q10 0 74 -8v-240q-16 4 -39 4q-31 0 -56.5 -19.5t-57.5 -74.5l-48 -74z" />
    <glyph glyph-name="lambda" unicode="&#x3bb;" horiz-adv-x="862" 
d="M20 0l263 1059l-33 135q-11 46 -32.5 67t-59.5 21q-28 0 -52 -6v209q59 12 123 12q65 0 110.5 -13t77.5 -36.5t56 -70.5t40.5 -99.5t35.5 -138.5l194 -842q13 -58 24 -76t40 -18q20 0 35 6v-219q-62 -15 -121 -15q-99 0 -147 56t-68 172l-64 381q-15 98 -18 164h-8
q0 -38 -19 -164l-86 -584h-291z" />
    <glyph glyph-name="uni03BC" unicode="&#x3bc;" horiz-adv-x="933" 
d="M856 0h-270q-15 104 -19 158q-63 -180 -231 -183v-374h-236v1423h275v-715q0 -129 84 -129q46 0 71 45t25 129v670h270v-709q0 -207 31 -315z" />
    <glyph glyph-name="nu" unicode="&#x3bd;" horiz-adv-x="811" 
d="M410 240l75 456q30 186 25 328h276q3 -86 -11.5 -174.5t-51.5 -228.5l-164 -621h-319l-236 1024h281l118 -784h7z" />
    <glyph glyph-name="xi" unicode="&#x3be;" horiz-adv-x="747" 
d="M737 1255h-131q-116 0 -173.5 -43.5t-57.5 -140.5v-33q0 -176 200 -176h103v-198h-127q-223 0 -223 -193v-72q0 -58 33 -99t108 -71l80 -30q186 -76 186 -262q0 -142 -88 -275h-246q80 110 80 213q0 59 -30.5 92.5t-108.5 61.5l-59 20q-122 45 -179 122t-57 204v69
q0 268 256 328q-209 46 -209 221v37q0 91 53 147.5t148 77.5v5h-203v194h645v-199z" />
    <glyph glyph-name="omicron" unicode="&#x3bf;" horiz-adv-x="874" 
d="M436 -25q-179 0 -279 99.5t-100 287.5v300q0 188 100 287.5t279 99.5q181 0 281 -99.5t100 -287.5v-300q0 -188 -100 -287.5t-281 -99.5zM436 164q52 0 76.5 40t24.5 130v356q0 90 -24.5 130t-76.5 40q-50 0 -74 -40t-24 -130v-356q0 -90 24 -130t74 -40z" />
    <glyph glyph-name="pi" unicode="&#x3c0;" horiz-adv-x="1024" 
d="M967 1024v-229h-123v-510q0 -58 17.5 -82.5t56.5 -24.5q12 0 28 2t19 2v-186q-48 -16 -121 -16q-80 0 -135 22t-83.5 62t-40.5 85t-12 103v543h-151v-795h-270v795h-7q-67 0 -118 -25v225q54 29 133 29h807z" />
    <glyph glyph-name="rho" unicode="&#x3c1;" horiz-adv-x="894" 
d="M358 -399h-270v1046q0 204 100 303t263 99q184 0 285.5 -101.5t101.5 -288.5v-284q0 -187 -72.5 -293.5t-216.5 -106.5q-77 0 -124 39t-67 97v-510zM455 166q54 0 78 40.5t24 127.5v356q0 87 -24.5 127.5t-77.5 40.5q-51 0 -76 -40.5t-25 -127.5v-356q0 -168 101 -168z
" />
    <glyph glyph-name="uni03C2" unicode="&#x3c2;" horiz-adv-x="829" 
d="M467 229l63 -28q84 -39 138.5 -108t54.5 -163q0 -131 -88 -268h-240q72 109 72 197q0 63 -29 99.5t-106 68.5l-70 28q-114 47 -159.5 146.5t-45.5 251.5v213q0 77 21.5 144t65 121.5t116.5 86t168 31.5q203 0 287.5 -98t75.5 -287l-271 -43q-2 134 -19.5 182.5
t-70.5 48.5q-54 0 -73 -55.5t-19 -167.5v-140q0 -107 24 -165t105 -95z" />
    <glyph glyph-name="sigma" unicode="&#x3c3;" horiz-adv-x="884" 
d="M455 1024h411v-229h-92q-59 0 -100 10q141 -87 141 -291v-149q0 -195 -103 -292.5t-276 -97.5q-180 0 -279.5 102t-99.5 277v262q0 206 98.5 307t299.5 101zM537 334v225q0 88 -9 148.5t-36 117.5h-60q-21 0 -37 -8.5t-26 -25.5t-16.5 -37t-9.5 -49.5t-4 -55t-1 -61.5
v-242q0 -94 21.5 -138t78.5 -44q99 0 99 170z" />
    <glyph glyph-name="tau" unicode="&#x3c4;" horiz-adv-x="720" 
d="M666 1024v-229h-187v-449q0 -67 18.5 -97t73.5 -30q18 0 68 4v-225q-75 -16 -137 -16q-155 0 -224 75t-69 228v510h-64q-67 0 -118 -25v225q54 29 133 29h506z" />
    <glyph glyph-name="upsilon" unicode="&#x3c5;" horiz-adv-x="907" 
d="M453 -25q-365 0 -365 406v643h274v-684q0 -81 22 -120.5t73 -39.5t71.5 39t20.5 121v684h270v-643q0 -406 -366 -406z" />
    <glyph glyph-name="phi" unicode="&#x3c6;" horiz-adv-x="1189" 
d="M725 1454v-407q190 -14 299 -126.5t109 -304.5v-208q0 -192 -109 -304.5t-299 -126.5v-376h-258v376q-190 12 -300 124.5t-110 306.5v208q0 191 111 305t299 126v407h258zM324 610v-196q0 -118 34 -175.5t113 -76.5v698q-79 -17 -113 -74.5t-34 -175.5zM866 414v196
q0 117 -34 174t-111 76v-698q78 19 111.5 76.5t33.5 175.5z" />
    <glyph glyph-name="chi" unicode="&#x3c7;" horiz-adv-x="860" 
d="M571 1026h291l-264 -688l147 -418q21 -59 38 -80.5t46 -21.5q9 0 37 4v-217q-58 -15 -116 -15q-96 0 -146.5 39.5t-83.5 147.5l-63 213q-23 88 -31 137h-6q-10 -65 -29 -137l-100 -389h-291l272 751l-127 357q-23 61 -39 81.5t-47 20.5q-10 0 -34 -4v217q51 14 114 14
q81 0 135 -40t82 -134l45 -159q32 -124 33 -152h6q15 77 37 154z" />
    <glyph glyph-name="psi" unicode="&#x3c8;" horiz-adv-x="1249" 
d="M889 416v608h272v-612q0 -206 -108.5 -315t-296.5 -120v-376h-260v376q-192 12 -300 120.5t-108 314.5v612h272v-608q0 -207 136 -232v1270h260v-1270q67 12 100 67t33 165z" />
    <glyph glyph-name="omega" unicode="&#x3c9;" horiz-adv-x="1310" 
d="M846 1024h276q108 -248 111 -549v-67q0 -85 -16.5 -159.5t-51 -137.5t-95 -99.5t-140.5 -36.5q-119 0 -184.5 58t-94.5 170q-57 -228 -272 -228q-81 0 -141.5 36.5t-94 99.5t-49.5 137t-16 160v63q0 290 108 553h279q-61 -131 -87 -274t-26 -263v-59q0 -114 19.5 -171.5
t66.5 -57.5q82 0 82 157v402h271v-402q0 -157 81 -157q47 0 66.5 57.5t19.5 171.5v59q0 122 -25.5 266.5t-86.5 270.5z" />
    <glyph glyph-name="iotadieresis" unicode="&#x3ca;" horiz-adv-x="509" 
d="M88 1024h268v-707q0 -53 16 -75.5t52 -22.5q21 0 41 4v-227q-46 -14 -117 -14q-137 0 -198.5 79t-61.5 230v733z" />
    <glyph glyph-name="upsilondieresis" unicode="&#x3cb;" horiz-adv-x="907" 
d="M453 -25q-365 0 -365 406v643h274v-684q0 -81 22 -120.5t73 -39.5t71.5 39t20.5 121v684h270v-643q0 -406 -366 -406z" />
    <glyph glyph-name="omicrontonos" unicode="&#x3cc;" horiz-adv-x="874" 
d="M436 -25q-179 0 -279 99.5t-100 287.5v300q0 188 100 287.5t279 99.5q181 0 281 -99.5t100 -287.5v-300q0 -188 -100 -287.5t-281 -99.5zM436 164q52 0 76.5 40t24.5 130v356q0 90 -24.5 130t-76.5 40q-50 0 -74 -40t-24 -130v-356q0 -90 24 -130t74 -40z" />
    <glyph glyph-name="upsilontonos" unicode="&#x3cd;" horiz-adv-x="907" 
d="M453 -25q-365 0 -365 406v643h274v-684q0 -81 22 -120.5t73 -39.5t71.5 39t20.5 121v684h270v-643q0 -406 -366 -406z" />
    <glyph glyph-name="omegatonos" unicode="&#x3ce;" horiz-adv-x="1310" 
d="M846 1024h276q108 -248 111 -549v-67q0 -85 -16.5 -159.5t-51 -137.5t-95 -99.5t-140.5 -36.5q-119 0 -184.5 58t-94.5 170q-57 -228 -272 -228q-81 0 -141.5 36.5t-94 99.5t-49.5 137t-16 160v63q0 290 108 553h279q-61 -131 -87 -274t-26 -263v-59q0 -114 19.5 -171.5
t66.5 -57.5q82 0 82 157v402h271v-402q0 -157 81 -157q47 0 66.5 57.5t19.5 171.5v59q0 122 -25.5 266.5t-86.5 270.5z" />
    <glyph glyph-name="uni0401" unicode="&#x401;" horiz-adv-x="821" 
d="M387 639v-420h393v-219h-676v1454h662v-219h-379v-377h350v-219h-350z" />
    <glyph glyph-name="uni0404" unicode="&#x404;" horiz-adv-x="976" 
d="M915 1087v-92l-292 -53v139q0 98 -29 141.5t-102 43.5t-102.5 -44.5t-29.5 -142.5v-235h320v-223h-320v-246q0 -98 29.5 -142.5t102.5 -44.5t102 43.5t29 141.5v139l292 -53v-92q0 -197 -109 -299.5t-308 -102.5q-207 0 -318.5 105t-111.5 311v692q0 206 111.5 311
t318.5 105q199 0 308 -102.5t109 -299.5z" />
    <glyph glyph-name="uni0405" unicode="&#x405;" horiz-adv-x="905" 
d="M453 -35q-194 0 -302 106.5t-108 290.5v117l289 56v-166q0 -185 123 -185q59 0 87.5 39t28.5 103v59q0 72 -20.5 112.5t-87.5 82.5l-207 127q-109 65 -154 148.5t-45 203.5v76q0 115 53.5 196.5t142 119.5t202.5 38q197 0 301 -87.5t104 -285.5v-106l-285 -54v156
q0 162 -120 162q-52 0 -81.5 -34.5t-29.5 -88.5v-66q0 -107 105 -172l206 -127q118 -72 162.5 -153.5t44.5 -202.5v-111q0 -161 -106.5 -257.5t-302.5 -96.5z" />
    <glyph glyph-name="uni0406" unicode="&#x406;" horiz-adv-x="491" 
d="M387 1454v-1454h-283v1454h283z" />
    <glyph glyph-name="uni0408" unicode="&#x408;" horiz-adv-x="589" 
d="M498 1454v-1151q0 -328 -348 -328q-75 0 -138 13v250q52 -9 82 -9q53 0 87 32t34 106v1087h283z" />
    <glyph glyph-name="uni040F" unicode="&#x40f;" horiz-adv-x="1036" 
d="M649 1454h283v-1454h-283v-287h-264v287h-281v1454h283v-1223h262v1223z" />
    <glyph glyph-name="uni0410" unicode="&#x410;" horiz-adv-x="972" 
d="M956 0h-286l-54 340h-262l-53 -340h-285l283 1454h373zM457 1006l-72 -459h201l-72 459q-14 96 -25 206h-6q-9 -85 -26 -206z" />
    <glyph glyph-name="uni0411" unicode="&#x411;" horiz-adv-x="976" 
d="M387 893h113q413 0 413 -404v-81q0 -408 -405 -408h-404v1454h725v-242h-442v-319zM621 410v75q0 113 -38 161t-130 48h-66v-497h74q87 0 123.5 49.5t36.5 163.5z" />
    <glyph glyph-name="uni0412" unicode="&#x412;" horiz-adv-x="980" 
d="M711 768q204 -67 204 -330v-43q0 -189 -101 -292t-300 -103h-410v1454h400q197 0 296 -95t99 -263v-49q0 -106 -50 -179.5t-138 -99.5zM469 1257h-82v-421h82q75 0 107 49t32 155v47q0 89 -32.5 129.5t-106.5 40.5zM625 399v52q0 108 -35 156t-111 48h-92v-458h98
q74 0 107 50t33 152z" />
    <glyph glyph-name="uni0413" unicode="&#x413;" horiz-adv-x="753" 
d="M750 1454v-242h-363v-1212h-283v1454h646z" />
    <glyph glyph-name="uni0414" unicode="&#x414;" horiz-adv-x="1175" 
d="M1004 231h131v-518h-267v287h-579v-287h-264v518h118q102 202 115 523q13 302 16 700h730v-1223zM719 1223h-191q-3 -242 -12 -473q-11 -305 -98 -519h301v992z" />
    <glyph glyph-name="uni0415" unicode="&#x415;" horiz-adv-x="821" 
d="M387 639v-420h393v-219h-676v1454h662v-219h-379v-377h350v-219h-350z" />
    <glyph glyph-name="uni0416" unicode="&#x416;" horiz-adv-x="1480" 
d="M1468 0h-303l-174 637h-117v-637h-268v637h-117l-174 -637h-303l254 795l-229 659h280l183 -598h106v598h268v-598h107l182 598h281l-230 -659z" />
    <glyph glyph-name="uni0417" unicode="&#x417;" horiz-adv-x="897" 
d="M438 -31q-205 0 -304 95t-99 305v59l276 31v-78q0 -107 29 -152t94 -45q60 0 88.5 43.5t28.5 137.5v63q0 105 -32.5 151t-110.5 46h-121v221h119q74 0 105.5 47t31.5 145v86q0 81 -27.5 116.5t-83.5 35.5q-62 0 -89.5 -41.5t-27.5 -138.5v-107l-278 37v76q0 195 102 291
t295 96q387 0 387 -350v-88q0 -118 -53.5 -201.5t-157.5 -108.5q111 -14 166 -94.5t55 -206.5v-78q0 -193 -101 -293t-292 -100z" />
    <glyph glyph-name="uni0418" unicode="&#x418;" horiz-adv-x="1071" 
d="M967 1454v-1454h-269v809q0 172 2 248h-6q-22 -147 -55 -273l-215 -784h-320v1454h269v-772q0 -168 -2 -244h8q19 112 47 217l219 799h322z" />
    <glyph glyph-name="uni0419" unicode="&#x419;" horiz-adv-x="1071" 
d="M967 1454v-1454h-269v809q0 172 2 248h-6q-22 -147 -55 -273l-215 -784h-320v1454h269v-772q0 -168 -2 -244h8q19 112 47 217l219 799h322z" />
    <glyph glyph-name="uni041A" unicode="&#x41a;" horiz-adv-x="991" 
d="M973 0h-303l-174 637h-109v-637h-283v1454h283v-598h98l183 598h282l-229 -659z" />
    <glyph glyph-name="uni041B" unicode="&#x41b;" horiz-adv-x="1044" 
d="M201 1454h739v-1454h-285v1225h-204q-5 -249 -31 -832q-9 -223 -77 -318t-232 -95q-67 0 -101 10v248q25 -7 43 -7q63 0 90 54.5t31 199.5q14 390 27 969z" />
    <glyph glyph-name="uni041C" unicode="&#x41c;" horiz-adv-x="1267" 
d="M344 0h-240v1454h381l123 -756q23 -179 23 -213h8q2 47 23 213l122 756h381v-1454h-243v731q0 278 4 395h-8q-5 -56 -29 -215l-152 -911h-207l-155 911q-24 187 -27 215h-10q6 -117 6 -395v-731z" />
    <glyph glyph-name="uni041D" unicode="&#x41d;" horiz-adv-x="1040" 
d="M653 1454h283v-1454h-283v633h-266v-633h-283v1454h283v-602h266v602z" />
    <glyph glyph-name="uni041E" unicode="&#x41e;" horiz-adv-x="1019" 
d="M510 -35q-210 0 -326 119.5t-116 341.5v602q0 222 116 341.5t326 119.5t326 -119.5t116 -341.5v-602q0 -222 -116 -341.5t-326 -119.5zM510 188q71 0 110 52.5t39 150.5v672q0 98 -39 150.5t-110 52.5q-72 0 -111 -52.5t-39 -150.5v-672q0 -98 39 -150.5t111 -52.5z" />
    <glyph glyph-name="uni041F" unicode="&#x41f;" horiz-adv-x="1036" 
d="M104 0v1454h828v-1454h-283v1223h-262v-1223h-283z" />
    <glyph glyph-name="uni0420" unicode="&#x420;" horiz-adv-x="929" 
d="M104 1454h398q202 0 305.5 -94t105.5 -279v-120q0 -195 -104.5 -299.5t-300.5 -104.5h-121v-557h-283v1454zM618 965v106q0 98 -34 142t-111 44h-86v-499h88q74 0 108.5 49.5t34.5 157.5z" />
    <glyph glyph-name="uni0421" unicode="&#x421;" horiz-adv-x="978" 
d="M496 -35q-210 0 -319 114.5t-109 340.5v616q0 222 112 337.5t322 115.5q202 0 309 -100t107 -297v-148l-295 -55v194q0 183 -127 183q-136 0 -136 -205v-658q0 -104 35 -158.5t103 -54.5q62 0 94.5 47t32.5 136v217l290 -60v-157q0 -198 -110 -303t-309 -105z" />
    <glyph glyph-name="uni0422" unicode="&#x422;" horiz-adv-x="845" 
d="M4 1454h838v-242h-279v-1212h-280v1212h-279v242z" />
    <glyph glyph-name="uni0423" unicode="&#x423;" horiz-adv-x="931" 
d="M354 289l4 12l-348 1153h289l156 -686q24 -107 28 -162h6q3 44 23 162l123 686h287l-281 -1087q-17 -69 -33 -117t-38.5 -96t-50.5 -78t-66.5 -54.5t-89 -35.5t-115.5 -11q-60 0 -109 9v231q40 -4 64 -4q125 0 151 78z" />
    <glyph glyph-name="uni0424" unicode="&#x424;" horiz-adv-x="1337" 
d="M807 1386h12q225 0 338 -134t113 -390v-274q0 -255 -113 -386.5t-338 -131.5h-12v-105h-277v105h-8q-227 0 -340.5 131.5t-113.5 386.5v274q0 256 113.5 390t338.5 134h10v103h277v-103zM346 860v-262q0 -164 39.5 -241t149.5 -78v901h-3q-56 0 -93.5 -21t-57.5 -65
t-27.5 -99t-7.5 -135zM991 598v262q0 64 -4 110t-16 88t-32.5 67.5t-54.5 40t-81 14.5v-901q47 0 81 14.5t54.5 39t32.5 66t16 87.5t4 112z" />
    <glyph glyph-name="uni0425" unicode="&#x425;" horiz-adv-x="935" 
d="M311 0h-299l254 772l-235 682h299l104 -367q12 -47 31 -178h4q15 121 31 178l108 367h293l-229 -684l252 -770h-301l-127 469q-17 65 -29 176h-4q-8 -78 -29 -176z" />
    <glyph glyph-name="uni0426" unicode="&#x426;" horiz-adv-x="1103" 
d="M932 1454v-1223h131v-518h-266v287h-693v1454h283v-1223h262v1223h283z" />
    <glyph glyph-name="uni0427" unicode="&#x427;" horiz-adv-x="1015" 
d="M629 809v645h284v-1454h-284v559q-77 -22 -154 -22q-198 0 -300.5 109.5t-102.5 328.5v479h284v-455q0 -108 40.5 -155t129.5 -47q48 0 103 12z" />
    <glyph glyph-name="uni0428" unicode="&#x428;" horiz-adv-x="1484" 
d="M1098 231v1223h282v-1454h-1276v1454h283v-1223h213v1223h285v-1223h213z" />
    <glyph glyph-name="uni0429" unicode="&#x429;" horiz-adv-x="1552" 
d="M1380 1454v-1223h131v-518h-266v287h-1141v1454h283v-1223h213v1223h285v-1223h213v1223h282z" />
    <glyph glyph-name="uni042A" unicode="&#x42a;" horiz-adv-x="1130" 
d="M543 940h125q195 0 296 -104t101 -312v-116q0 -200 -101.5 -304t-295.5 -104h-410v1212h-254v242h541v-242h-2v-272zM772 420v104q0 110 -33 157.5t-110 47.5h-86v-518h92q73 0 105 49.5t32 159.5z" />
    <glyph glyph-name="uni042B" unicode="&#x42b;" horiz-adv-x="1400" 
d="M387 940h125q397 0 397 -416v-116q0 -200 -101.5 -304t-295.5 -104h-408v1454h283v-514zM1014 0v1454h282v-1454h-282zM616 420v104q0 110 -32 157.5t-111 47.5h-86v-518h92q73 0 105 49.5t32 159.5z" />
    <glyph glyph-name="uni042C" unicode="&#x42c;" horiz-adv-x="974" 
d="M387 940h125q397 0 397 -416v-116q0 -200 -101.5 -304t-295.5 -104h-408v1454h283v-514zM616 420v104q0 110 -32 157.5t-111 47.5h-86v-518h92q73 0 105 49.5t32 159.5z" />
    <glyph glyph-name="uni042D" unicode="&#x42d;" horiz-adv-x="976" 
d="M479 1489q207 0 318.5 -105t111.5 -311v-692q0 -206 -111.5 -311t-318.5 -105q-199 0 -308.5 102.5t-109.5 299.5v92l293 53v-139q0 -98 29 -141.5t102 -43.5t102 44.5t29 142.5v246h-319v223h319v235q0 98 -29 142.5t-102 44.5t-102 -43.5t-29 -141.5v-139l-293 53v92
q0 197 109.5 299.5t308.5 102.5z" />
    <glyph glyph-name="uni042E" unicode="&#x42e;" horiz-adv-x="1488" 
d="M979 1489q210 0 326 -119.5t116 -341.5v-602q0 -222 -116 -341.5t-326 -119.5q-202 0 -314 120t-112 341v199h-166v-625h-283v1454h283v-610h166v184q0 221 112 341t314 120zM1128 391v672q0 98 -38.5 150.5t-110.5 52.5q-71 0 -110.5 -52.5t-39.5 -150.5v-672
q0 -98 39.5 -150.5t110.5 -52.5q72 0 110.5 52.5t38.5 150.5z" />
    <glyph glyph-name="uni042F" unicode="&#x42f;" horiz-adv-x="974" 
d="M483 1454h387v-1454h-284v592h-101l-159 -592h-299l200 643q-166 95 -166 352v70q0 178 103.5 283.5t318.5 105.5zM502 774h84v483h-82q-82 0 -116 -42t-34 -142v-92q0 -108 34 -157.5t114 -49.5z" />
    <glyph glyph-name="uni0430" unicode="&#x430;" 
d="M287 -25q-111 0 -178.5 66.5t-67.5 183.5v76q0 62 22.5 116t63.5 89q69 60 221 94l150 35v125q0 56 -19.5 81t-60.5 25q-84 0 -84 -106v-86h-268v71q0 150 93 227t261 77q180 0 263 -74.5t83 -241.5v-500q0 -152 16 -233h-256q-12 110 -10 154q-14 -79 -76 -129t-153 -50
zM401 164q44 0 71.5 33.5t27.5 93.5v196l-80 -20q-96 -26 -96 -154v-39q0 -110 77 -110z" />
    <glyph glyph-name="uni0431" unicode="&#x431;" horiz-adv-x="872" 
d="M549 1049q266 0 266 -342v-291q0 -235 -92.5 -340t-294.5 -105q-197 0 -284 105.5t-87 349.5v444q0 243 59 363t201 149l107 21q58 10 83 33.5t30 66.5h227q6 -147 -43 -214.5t-156 -90.5l-119 -24q-91 -20 -121 -72t-30 -184v-105q17 103 79 169.5t175 66.5zM537 367
v305q0 94 -20.5 141t-76.5 47q-60 0 -81 -45.5t-21 -142.5v-305q0 -97 20.5 -147t79.5 -50q56 0 77.5 49t21.5 148z" />
    <glyph glyph-name="uni0432" unicode="&#x432;" horiz-adv-x="874" 
d="M618 528q203 -31 203 -229v-25q0 -137 -83 -205.5t-255 -68.5h-383v1024h355q342 0 342 -246v-24q0 -192 -179 -226zM426 856h-57v-260h53q53 0 76.5 27.5t23.5 99.5v22q0 63 -22.5 87t-73.5 24zM547 297v22q0 67 -27 98.5t-84 31.5h-67v-281h67q57 0 84 31t27 98z" />
    <glyph glyph-name="uni0433" unicode="&#x433;" horiz-adv-x="638" 
d="M100 1024h516v-213h-247v-811h-269v1024z" />
    <glyph glyph-name="uni0434" unicode="&#x434;" horiz-adv-x="1021" 
d="M870 1024v-807h103v-473h-248v256h-426v-256h-250v473h90q57 129 76 297q18 132 18 510h637zM602 809h-137q-7 -221 -16 -320q-19 -164 -64 -272h217v592z" />
    <glyph glyph-name="uni0435" unicode="&#x435;" 
d="M797 662v-193h-461v-145q0 -152 100 -152q94 0 94 166v41l267 -37v-45q0 -152 -99.5 -237t-265.5 -85q-177 0 -276 97t-99 270v313q0 193 96 293.5t279 100.5q365 0 365 -387zM428 887q-92 0 -92 -152v-125h182v95q0 101 -21.5 141.5t-68.5 40.5z" />
    <glyph glyph-name="uni0436" unicode="&#x436;" horiz-adv-x="1261" 
d="M1257 0h-286l-137 408h-78v-408h-250v408h-78l-137 -408h-287l203 559l-195 465h287l125 -406h82v406h250v-406h82l125 406h286l-194 -465z" />
    <glyph glyph-name="uni0437" unicode="&#x437;" horiz-adv-x="821" 
d="M397 -25q-162 0 -256 77t-94 218v47l268 25v-78q0 -106 88 -106q95 0 95 106v53q0 59 -27.5 84t-89.5 25h-90v178h88q58 0 81 23.5t23 81.5v71q0 44 -21 69t-63 25q-84 0 -84 -108v-90l-268 18v45q0 149 91.5 229.5t267.5 80.5q164 0 256 -65.5t92 -201.5v-20
q0 -188 -150 -234q88 -25 125 -81.5t37 -147.5v-25q0 -154 -92 -226.5t-277 -72.5z" />
    <glyph glyph-name="uni0438" unicode="&#x438;" horiz-adv-x="931" 
d="M393 0h-293v1024h246v-522v-185h6q19 107 37 172l152 535h290v-1024h-245v532v175h-6q-19 -107 -37 -172z" />
    <glyph glyph-name="uni0439" unicode="&#x439;" horiz-adv-x="931" 
d="M393 0h-293v1024h246v-522v-185h6q19 107 37 172l152 535h290v-1024h-245v532v175h-6q-19 -107 -37 -172z" />
    <glyph glyph-name="uni043A" unicode="&#x43a;" horiz-adv-x="886" 
d="M866 0h-288l-138 408h-71v-408h-269v1024h269v-406h75l125 406h287l-192 -467z" />
    <glyph glyph-name="uni043B" unicode="&#x43b;" horiz-adv-x="907" 
d="M164 1024h643v-1024h-268v809h-142q-4 -298 -8 -436q-7 -214 -73.5 -301.5t-202.5 -87.5q-34 0 -86 8v223h26q46 0 68 49.5t26 173.5q12 273 17 586z" />
    <glyph glyph-name="uni043C" unicode="&#x43c;" horiz-adv-x="1251" 
d="M874 678l-137 -678h-229l-137 678q-13 62 -19 123h-6v-183v-618h-246v1024h406l98 -588q11 -67 14 -160h7q4 97 16 160l100 588h410v-1024h-252v618v183h-6q-3 -26 -6.5 -50t-7.5 -44.5t-5 -28.5z" />
    <glyph glyph-name="uni043D" unicode="&#x43d;" horiz-adv-x="917" 
d="M551 621v403h268v-1024h-268v410h-182v-410h-269v1024h269v-403h182z" />
    <glyph glyph-name="uni043E" unicode="&#x43e;" horiz-adv-x="874" 
d="M436 -25q-179 0 -279 99.5t-100 287.5v300q0 188 100 287.5t279 99.5q181 0 281 -99.5t100 -287.5v-300q0 -188 -100 -287.5t-281 -99.5zM436 164q52 0 76.5 40t24.5 130v356q0 90 -24.5 130t-76.5 40q-50 0 -74 -40t-24 -130v-356q0 -90 24 -130t74 -40z" />
    <glyph glyph-name="uni043F" unicode="&#x43f;" horiz-adv-x="913" 
d="M369 0h-269v1024h715v-1024h-268v809h-178v-809z" />
    <glyph glyph-name="uni0440" unicode="&#x440;" horiz-adv-x="913" 
d="M369 -399h-269v1423h258v-154q29 87 90 133t144 46q124 0 190 -92t66 -263v-327q0 -187 -69.5 -289.5t-194.5 -102.5q-161 0 -215 152v-526zM465 176q100 0 100 191v301q0 94 -23.5 137t-74.5 43q-52 0 -76 -42.5t-24 -135.5v-314q0 -96 23 -138t75 -42z" />
    <glyph glyph-name="uni0441" unicode="&#x441;" horiz-adv-x="837" 
d="M434 -25q-177 0 -277 100.5t-100 278.5v303q0 195 96.5 293.5t280.5 98.5q175 0 266 -82.5t91 -247.5v-66l-271 -43v95q0 78 -21.5 112.5t-66.5 34.5q-48 0 -71 -38t-23 -126v-344q0 -90 23 -131t71 -41q88 0 88 156v102l271 -51v-68q0 -159 -95.5 -247.5t-261.5 -88.5z
" />
    <glyph glyph-name="uni0442" unicode="&#x442;" horiz-adv-x="731" 
d="M23 1024h688v-213h-207v-811h-268v811h-213v213z" />
    <glyph glyph-name="uni0443" unicode="&#x443;" horiz-adv-x="804" 
d="M131 -410q-37 0 -84 7v221q30 -6 55 -6q65 0 102 29.5t52 92.5l12 52l-264 1038h293l92 -580q14 -102 21 -241h6q5 129 20 237l84 584h281l-248 -1085q-42 -187 -144.5 -268t-277.5 -81z" />
    <glyph glyph-name="uni0444" unicode="&#x444;" horiz-adv-x="1308" 
d="M1001 1049q133 0 190.5 -99t57.5 -288v-324q0 -363 -248 -363q-155 0 -219 156v-530h-258v528q-67 -154 -219 -154q-248 0 -248 363v324q0 189 58.5 288t189.5 99q140 0 219 -158v592h258v-596q40 83 93 122.5t126 39.5zM426 176q98 0 98 168v338q0 166 -92 166
q-49 0 -70.5 -38.5t-21.5 -127.5v-342q0 -85 20.5 -124.5t65.5 -39.5zM969 340v342q0 88 -22 127t-70 39q-95 0 -95 -166v-338q0 -168 99 -168q47 0 67.5 39t20.5 125z" />
    <glyph glyph-name="uni0445" unicode="&#x445;" horiz-adv-x="817" 
d="M291 0h-287l229 539l-208 485h282l70 -217q28 -85 31 -125h6q2 21 6.5 41.5t13 48.5t10.5 35l66 217h281l-207 -487l229 -537h-291l-82 252q-29 92 -30 119h-7q-5 -34 -32 -119z" />
    <glyph glyph-name="uni0446" unicode="&#x446;" horiz-adv-x="950" 
d="M803 1024v-807h98v-473h-248v256h-553v1024h269v-809h166v809h268z" />
    <glyph glyph-name="uni0447" unicode="&#x447;" horiz-adv-x="878" 
d="M510 553v471h268v-1024h-268v356q-74 -22 -145 -22q-304 0 -304 311v379h269v-350q0 -71 23.5 -102t84.5 -31q38 0 72 12z" />
    <glyph glyph-name="uni0448" unicode="&#x448;" horiz-adv-x="1329" 
d="M961 215v809h268v-1024h-1129v1024h269v-809h161v809h269v-809h162z" />
    <glyph glyph-name="uni0449" unicode="&#x449;" horiz-adv-x="1376" 
d="M1229 1024v-807h98v-473h-248v256h-979v1024h269v-809h161v809h269v-809h162v809h268z" />
    <glyph glyph-name="uni044A" unicode="&#x44a;" horiz-adv-x="968" 
d="M483 690h115q164 0 243 -74.5t79 -240.5v-43q0 -332 -318 -332h-387v811h-192v213h460v-334zM653 332v39q0 84 -24.5 118.5t-93.5 34.5h-52v-356h52q68 0 93 38t25 126z" />
    <glyph glyph-name="uni044B" unicode="&#x44b;" horiz-adv-x="851" 
d="M369 690h112q166 0 245 -74.5t79 -240.5v-43q0 -332 -320 -332h-385v1024h269v-334zM539 332v39q0 84 -26 118.5t-95 34.5h-49v-356h51q67 0 93 38t26 126z" />
    <glyph glyph-name="uni044C" unicode="&#x44c;" horiz-adv-x="851" 
d="M369 690h112q166 0 245 -74.5t79 -240.5v-43q0 -332 -320 -332h-385v1024h269v-334zM539 332v39q0 84 -26 118.5t-95 34.5h-49v-356h51q67 0 93 38t26 126z" />
    <glyph glyph-name="uni044D" unicode="&#x44d;" horiz-adv-x="837" 
d="M418 1049q193 0 277.5 -95t84.5 -292v-308q0 -187 -87 -283t-290 -96q-178 0 -267 85t-89 245v31l272 24v-59q0 -71 20 -102t69 -31q53 0 73.5 34t20.5 115v109h-223v180h223v105q0 76 -20.5 112.5t-73.5 36.5q-91 0 -91 -131v-57l-270 16v29q0 157 95 244.5t276 87.5z
" />
    <glyph glyph-name="uni044E" unicode="&#x44e;" horiz-adv-x="1282" 
d="M92 1446h275v-277h-275v277zM850 1049q176 0 274.5 -99.5t98.5 -287.5v-300q0 -188 -98.5 -287.5t-274.5 -99.5q-171 0 -267 99.5t-96 287.5v50h-127v-412h-260v1024h260v-403h127v41q0 188 96 287.5t267 99.5zM950 334v356q0 90 -24 130t-76 40q-50 0 -74 -40t-24 -130
v-356q0 -90 24 -130t74 -40q52 0 76 40t24 130z" />
    <glyph glyph-name="uni044F" unicode="&#x44f;" horiz-adv-x="882" 
d="M782 1024v-1024h-268v344h-74l-114 -344h-279l156 387q-140 72 -140 268v37q0 173 89 252.5t264 79.5h366zM461 510h53v346h-61q-59 0 -88 -38.5t-29 -127.5v-26q0 -154 125 -154z" />
    <glyph glyph-name="uni0451" unicode="&#x451;" 
d="M797 662v-193h-461v-145q0 -152 100 -152q94 0 94 166v41l267 -37v-45q0 -152 -99.5 -237t-265.5 -85q-177 0 -276 97t-99 270v313q0 193 96 293.5t279 100.5q365 0 365 -387zM428 887q-92 0 -92 -152v-125h182v95q0 101 -21.5 141.5t-68.5 40.5z" />
    <glyph glyph-name="uni0454" unicode="&#x454;" horiz-adv-x="837" 
d="M791 729v-41l-271 -16v43q0 78 -20 111.5t-70 33.5q-56 0 -75 -38.5t-19 -141.5v-72h223v-182h-223v-102q0 -84 21 -120t73 -36t71 34t19 113v45l271 -24v-29q0 -164 -94 -248t-263 -84q-192 0 -284.5 93.5t-92.5 285.5v301q0 201 88.5 297.5t274.5 96.5q371 0 371 -320z
" />
    <glyph glyph-name="uni0455" unicode="&#x455;" horiz-adv-x="796" 
d="M401 -25q-164 0 -259 68.5t-95 194.5v73l270 39v-82q0 -110 86 -110q76 0 76 82v51q0 44 -17.5 71t-62.5 41l-145 39q-199 58 -199 260v86q0 120 90 190.5t250 70.5q158 0 250 -67t92 -191v-58l-262 -35v78q0 98 -76 98q-33 0 -53 -19t-20 -60v-45q0 -47 15.5 -75.5
t66.5 -45.5l139 -43q108 -36 155.5 -93.5t47.5 -146.5v-96q0 -120 -94 -197.5t-255 -77.5z" />
    <glyph glyph-name="uni0458" unicode="&#x458;" horiz-adv-x="468" 
d="M367 1169h-275v277h275v-277zM84 -414q-65 0 -115 11v217q40 -4 56 -4q40 0 57.5 22.5t17.5 73.5v1118h269v-1137q0 -79 -13 -132.5t-45 -93t-87.5 -57.5t-139.5 -18z" />
    <glyph glyph-name="Wgrave" unicode="&#x1e80;" horiz-adv-x="1314" 
d="M537 0h-332l-168 1454h262l76 -893q10 -180 10 -237h10q3 38 10.5 111t10.5 108l104 911h273l106 -911q9 -108 21 -219h8q0 57 10 237l76 893h262l-166 -1454h-334l-98 829q-4 38 -16 252h-11q-4 -141 -16 -252z" />
    <glyph glyph-name="wgrave" unicode="&#x1e81;" horiz-adv-x="1171" 
d="M483 0h-295l-176 1024h264l64 -618q4 -58 8 -158h8q3 79 15 158l86 618h258l86 -618q12 -105 14 -158h6q4 100 8 158l64 618h266l-178 -1024h-293l-88 610q-3 21 -10 174h-8q-7 -141 -11 -174z" />
    <glyph glyph-name="Wacute" unicode="&#x1e82;" horiz-adv-x="1314" 
d="M537 0h-332l-168 1454h262l76 -893q10 -180 10 -237h10q3 38 10.5 111t10.5 108l104 911h273l106 -911q9 -108 21 -219h8q0 57 10 237l76 893h262l-166 -1454h-334l-98 829q-4 38 -16 252h-11q-4 -141 -16 -252z" />
    <glyph glyph-name="wacute" unicode="&#x1e83;" horiz-adv-x="1171" 
d="M483 0h-295l-176 1024h264l64 -618q4 -58 8 -158h8q3 79 15 158l86 618h258l86 -618q12 -105 14 -158h6q4 100 8 158l64 618h266l-178 -1024h-293l-88 610q-3 21 -10 174h-8q-7 -141 -11 -174z" />
    <glyph glyph-name="Wdieresis" unicode="&#x1e84;" horiz-adv-x="1314" 
d="M537 0h-332l-168 1454h262l76 -893q10 -180 10 -237h10q3 38 10.5 111t10.5 108l104 911h273l106 -911q9 -108 21 -219h8q0 57 10 237l76 893h262l-166 -1454h-334l-98 829q-4 38 -16 252h-11q-4 -141 -16 -252z" />
    <glyph glyph-name="wdieresis" unicode="&#x1e85;" horiz-adv-x="1171" 
d="M483 0h-295l-176 1024h264l64 -618q4 -58 8 -158h8q3 79 15 158l86 618h258l86 -618q12 -105 14 -158h6q4 100 8 158l64 618h266l-178 -1024h-293l-88 610q-3 21 -10 174h-8q-7 -141 -11 -174z" />
    <glyph glyph-name="Ygrave" unicode="&#x1ef2;" horiz-adv-x="905" 
d="M596 0h-283v522l-309 932h295l125 -485q20 -81 29 -193h6q14 128 28 193l119 485h295l-305 -932v-522z" />
    <glyph glyph-name="ygrave" unicode="&#x1ef3;" horiz-adv-x="804" 
d="M131 -410q-37 0 -84 7v221q30 -6 55 -6q65 0 102 29.5t52 92.5l12 52l-264 1038h293l92 -580q14 -102 21 -241h6q5 129 20 237l84 584h281l-248 -1085q-42 -187 -144.5 -268t-277.5 -81z" />
    </font>
</defs>
</svg>
