<?xml version="1.0" standalone="no"?>
<!DOCTYPE svg PUBLIC "-//W3C//DTD SVG 1.1//EN" "http://www.w3.org/Graphics/SVG/1.1/DTD/svg11.dtd" >
<svg xmlns="http://www.w3.org/2000/svg" xmlns:xlink="http://www.w3.org/1999/xlink" version="1.1">
<metadata>
Created by FontForge 20170731 at Wed Apr 20 08:50:54 2022
 By Aleksey,,,
Copyright (c) 2016 by Grilli Type. All rights reserved.
</metadata>
<defs>
<font id="GTAmericaTrial-CmRgIt" horiz-adv-x="741" >
  <font-face 
    font-family="GT America Trial Cm Rg It"
    font-weight="400"
    font-style="italic"
    font-stretch="ultra-condensed"
    units-per-em="2048"
    panose-1="0 0 5 8 0 0 0 0 0 0"
    ascent="1608"
    descent="-440"
    x-height="1024"
    cap-height="1454"
    bbox="-170 -440 1759 1608"
    underline-thickness="102"
    underline-position="-307"
    slope="-10"
    unicode-range="U+0020-1EF3"
  />
<missing-glyph horiz-adv-x="1024" 
d="M190 1608h650v-2048h-650v2048zM682 1403v67h-338v-67h133v-76h-135v-67h340v67h-135v76h135zM547 1063v143h-205v-213h340v70h-135zM410 1137h67v-74h-67v74zM682 870v68h-340v-68h135v-75h-135v-68h205v143h135zM682 610v205h-68v-135h-272v-70h340zM682 334v231h-205
v-114h70v47h67v-97h-204v164h-68v-231h340zM682 -20v231h-340v-231h340zM410 143h204v-96h-204v96zM682 -135v67h-340v-67h143l-143 -96v-68h340v68h-209l143 96h66z" />
    <glyph glyph-name=".notdef" horiz-adv-x="1024" 
d="M190 1608h650v-2048h-650v2048zM682 1403v67h-338v-67h133v-76h-135v-67h340v67h-135v76h135zM547 1063v143h-205v-213h340v70h-135zM410 1137h67v-74h-67v74zM682 870v68h-340v-68h135v-75h-135v-68h205v143h135zM682 610v205h-68v-135h-272v-70h340zM682 334v231h-205
v-114h70v47h67v-97h-204v164h-68v-231h340zM682 -20v231h-340v-231h340zM410 143h204v-96h-204v96zM682 -135v67h-340v-67h143l-143 -96v-68h340v68h-209l143 96h66z" />
    <glyph glyph-name=".null" horiz-adv-x="0" 
 />
    <glyph glyph-name=".null" horiz-adv-x="0" 
 />
    <glyph glyph-name="nonmarkingreturn" horiz-adv-x="682" 
 />
    <glyph glyph-name="space" unicode=" " horiz-adv-x="358" 
 />
    <glyph glyph-name="comma" unicode="," horiz-adv-x="389" 
d="M-2 -279l-31 82q49 15 81 54t46 120l4 23h-98l41 233h203l-43 -239q-23 -128 -70 -185.5t-133 -87.5z" />
    <glyph glyph-name="hyphen" unicode="-" horiz-adv-x="559" 
d="M61 492l27 155h430l-26 -155h-431z" />
    <glyph glyph-name="period" unicode="." horiz-adv-x="395" 
d="M47 233h203l-41 -233h-203z" />
    <glyph glyph-name="zero" unicode="0" horiz-adv-x="888" 
d="M377 -31q-50 0 -93 8.5t-84 28.5t-69.5 53.5t-49 82t-21.5 114.5t12 152l106 608q13 73 28 128t45.5 117t71.5 101.5t107.5 65.5t151.5 26q50 0 93 -8.5t84 -28.5t69.5 -53t49 -81.5t21.5 -114.5t-12 -152l-107 -608q-9 -51 -18.5 -91.5t-26 -88t-36.5 -83t-51 -70
t-68.5 -57t-89 -36t-113.5 -13.5zM381 111q57 0 100 25t69.5 70t41.5 90.5t26 104.5l109 619q13 87 8.5 143.5t-29.5 89.5t-56 46.5t-72 13.5q-46 0 -83.5 -17.5t-62 -45t-44 -67.5t-30 -77.5t-18.5 -83.5l-109 -619q-14 -69 -10 -119t16 -83.5t35.5 -53.5t50 -28t58.5 -8z
" />
    <glyph glyph-name="one" unicode="1" horiz-adv-x="587" 
d="M330 0h-160l201 1145q-54 -72 -185 -72h-55l27 152h45q174 0 243 198h134z" />
    <glyph glyph-name="two" unicode="2" horiz-adv-x="765" 
d="M621 0h-668l24 141q260 269 453 514q79 101 128.5 191t68.5 190l14 78q19 102 -18 151.5t-115 49.5q-37 0 -66.5 -12t-47.5 -30.5t-32 -48.5t-21.5 -58t-14.5 -66q-17 -97 -21 -137l-160 28q5 46 19 119q35 175 116.5 259.5t239.5 84.5q165 0 240.5 -93.5t38.5 -289.5
l-6 -33q-41 -214 -213 -434q-68 -86 -177.5 -212.5t-218.5 -239.5h463z" />
    <glyph glyph-name="three" unicode="3" horiz-adv-x="774" 
d="M326 -31q-165 0 -250.5 93.5t-52.5 287.5l10 64l164 24l-13 -80q-12 -64 -5.5 -108.5t17.5 -72t35 -42.5t45.5 -20.5t49.5 -5.5q41 0 70.5 11.5t47.5 28t32 49t20.5 58t15.5 72.5l23 121q43 221 -146 221h-51l27 153h49q92 0 142.5 49.5t74.5 182.5l10 57
q20 116 -16 159.5t-117 43.5q-44 0 -77 -15.5t-51.5 -35.5t-32.5 -57t-19.5 -62.5t-12.5 -69.5l-14 -84l-156 27l11 80q7 57 22 106.5t43 96.5t66 80t94 53t125 20q27 0 50.5 -2t51.5 -6.5t50.5 -13t47 -21.5t41 -31.5t33 -44t22 -58t8.5 -74t-7 -91.5l-12 -78
q-21 -130 -87.5 -203t-152.5 -86q84 -21 124.5 -101t20.5 -195l-22 -127q-11 -66 -26 -114.5t-41.5 -96t-62.5 -77t-91.5 -47.5t-126.5 -18z" />
    <glyph glyph-name="four" unicode="4" horiz-adv-x="815" 
d="M766 467l-23 -133h-153l-60 -334h-157l59 334h-442l22 125l578 964h192l-170 -956h154zM455 467l112 563q36 188 45 230h-4q-31 -80 -114 -224l-248 -432q-55 -95 -92 -137h301z" />
    <glyph glyph-name="five" unicode="5" horiz-adv-x="782" 
d="M330 -31q-161 0 -241.5 83t-47.5 263l10 56l164 22l-10 -55q-42 -229 125 -229q56 0 93 17.5t60.5 57.5t36 83.5t25.5 117.5l28 158q24 134 -8 201t-110 67q-65 0 -118 -48.5t-79 -133.5l-145 16l174 778h557l-25 -149h-430l-110 -465q76 141 233 141q134 0 195.5 -102
t27.5 -301l-28 -164q-35 -206 -123.5 -310t-253.5 -104z" />
    <glyph glyph-name="six" unicode="6" horiz-adv-x="823" 
d="M557 1454q34 0 65 -4t65 -13.5t60 -25.5t50 -41t36 -59t18 -79t-5 -102l-6 -40l-168 -33l10 57q19 105 -19 156t-118 51q-31 0 -56.5 -8t-43.5 -20.5t-33 -35t-25 -43t-19 -53t-14 -57.5t-12 -64l-33 -188q82 98 221 98q27 0 52.5 -4.5t54 -15.5t50.5 -30t42 -48
t29.5 -69.5t12.5 -94t-9 -121.5l-31 -198q-32 -210 -120 -305t-242 -95q-38 0 -72 5.5t-70.5 18.5t-64.5 35.5t-53 56t-36.5 79.5t-14.5 106.5t12 137.5l112 643q9 51 16.5 86.5t22.5 81t32.5 76t45.5 63.5t63 52t85 31.5t110 12.5zM475 813q-122 0 -196 -133l-52 -289
q-50 -282 154 -282q35 0 60.5 9.5t51 36t44.5 80t32 134.5l31 200q20 132 -16.5 188t-108.5 56z" />
    <glyph glyph-name="seven" unicode="7" horiz-adv-x="718" 
d="M289 0h-172l18 109q59 345 181.5 624t345.5 541h-496l27 149h657l-23 -116q-216 -243 -331.5 -509t-171.5 -593z" />
    <glyph glyph-name="eight" unicode="8" horiz-adv-x="831" 
d="M543 1454q49 0 94.5 -8.5t90 -31t74.5 -57.5t43 -92.5t1 -131.5l-21 -123q-29 -185 -217 -262q175 -106 140 -312l-21 -119q-6 -38 -12.5 -67t-20 -67t-30.5 -66t-45 -57.5t-62.5 -48t-84.5 -30.5t-110 -12q-29 0 -56 2.5t-60.5 10t-60.5 20t-56 33t-47 49.5t-33 68.5
t-14.5 90.5t8.5 115l16 93q18 103 71.5 176t174.5 114q-155 95 -123 289l21 127q10 56 30.5 104t58.5 94t102.5 72.5t148.5 26.5zM662 1008l22 125q11 48 3.5 81.5t-20.5 54.5t-36.5 33t-45 16.5t-46.5 4.5q-49 0 -83.5 -17t-53.5 -48.5t-28.5 -59t-15.5 -65.5l-18 -109
q-11 -63 6.5 -106t39.5 -58.5t69 -38.5q5 -3 8 -4l35 -16q84 33 118.5 85t45.5 122zM567 319l21 117q19 101 -16 155t-113 85l-43 16q-96 -31 -137 -87.5t-58 -149.5l-20 -113q-37 -233 168 -233q52 0 89 15.5t58 46.5t32 65t19 83z" />
    <glyph glyph-name="nine" unicode="9" horiz-adv-x="815" 
d="M514 1454q44 0 83.5 -8t81 -26.5t70.5 -49.5t52 -78t25.5 -111t-9.5 -149l-115 -655q-14 -74 -23 -114t-35.5 -105t-61 -99.5t-96 -62t-142.5 -27.5q-39 0 -76 5.5t-78 20t-70.5 39t-54 61.5t-29 88.5t4.5 119.5l8 45l166 41l-14 -84q-35 -203 133 -203q43 0 75 13t52 33
t35.5 60t24 76.5t20.5 100.5l43 236q-76 -91 -193 -91q-45 0 -85.5 10.5t-80 36t-63 68.5t-34 107t6.5 151l33 191q9 55 21.5 98.5t38.5 95t61 85.5t93 57.5t132 23.5zM614 801l45 243q26 145 -18 209t-129 64q-39 0 -69 -14t-48.5 -34t-33 -55t-22 -65t-15.5 -76l-31 -172
q-12 -58 -8.5 -99.5t12.5 -67.5t29 -41.5t41.5 -21t48.5 -5.5q126 0 198 135z" />
    <glyph glyph-name="A" unicode="A" horiz-adv-x="858" 
d="M739 0h-161l-5 422h-307l-151 -422h-176l553 1454h206zM500 1075l-187 -518h258l-6 518q0 120 8 221h-6q-27 -113 -67 -221z" />
    <glyph glyph-name="B" unicode="B" horiz-adv-x="854" 
d="M289 1454h262q170 0 257 -86t60 -258l-8 -53q-20 -125 -75 -202.5t-158 -102.5q83 -23 125 -99t18 -217l-12 -71q-16 -94 -42.5 -159t-72.5 -113t-116.5 -70.5t-170.5 -22.5h-323zM690 1059l8 49q11 53 4 90.5t-20 62t-38.5 38t-52.5 19t-61 5.5h-100l-88 -506h125
q56 0 96.5 18.5t65 54.5t38 75t23.5 94zM590 367l12 69q24 139 -11 195.5t-138 56.5h-136l-96 -553h152q104 0 150 58t67 174z" />
    <glyph glyph-name="C" unicode="C" horiz-adv-x="866" 
d="M375 -35q-86 0 -150 24.5t-109.5 80.5t-56.5 146.5t9 221.5l114 656q11 63 26.5 114.5t46 106t71 91t104 60t143.5 23.5q69 0 123 -12.5t98.5 -41t68 -74.5t32 -113.5t-9.5 -157.5l-17 -93l-176 -39l25 142q24 135 -18 191.5t-124 56.5q-49 0 -87 -17t-60 -40.5
t-39 -62.5t-24.5 -69.5t-14.5 -73.5l-117 -673q-13 -87 -9 -145.5t27.5 -93.5t55 -49.5t72.5 -14.5q98 0 141.5 58t63.5 169l34 194l162 -43l-30 -172q-15 -81 -40 -141t-67.5 -109t-110 -74.5t-157.5 -25.5z" />
    <glyph glyph-name="D" unicode="D" horiz-adv-x="923" 
d="M336 0h-303l256 1454h289q107 0 178.5 -31.5t117 -104t50.5 -190.5t-23 -290l-49 -279q-30 -167 -74.5 -277t-110 -172t-143.5 -86t-188 -24zM430 1321l-209 -1186h123q59 0 100 10t79 35.5t65 72.5t50 120t42 178l51 287q44 266 0 374.5t-182 108.5h-119z" />
    <glyph glyph-name="E" unicode="E" 
d="M852 1454l-25 -143h-399l-86 -490h365l-27 -143h-365l-94 -535h414l-25 -143h-577l256 1454h563z" />
    <glyph glyph-name="F" unicode="F" horiz-adv-x="716" 
d="M852 1454l-25 -143h-399l-86 -490h365l-27 -143h-365l-118 -678h-164l256 1454h563z" />
    <glyph glyph-name="G" unicode="G" horiz-adv-x="886" 
d="M313 -35q-53 0 -96.5 14.5t-80.5 47.5t-57 87t-25.5 132.5t14.5 183.5l116 670q32 184 135.5 286.5t276.5 102.5q77 0 136.5 -21t103.5 -68t56.5 -121.5t-3.5 -182.5l-15 -80l-176 -35l21 131q19 121 -21.5 178.5t-124.5 57.5q-92 0 -145.5 -62t-69.5 -160l-120 -696
q-14 -97 -13 -159t22.5 -98t50.5 -50t71 -14q104 0 162 80.5t85 228.5l37 207h-227l25 139h380l-135 -764h-118l16 178q-34 -104 -106 -158.5t-175 -54.5z" />
    <glyph glyph-name="H" unicode="H" horiz-adv-x="946" 
d="M825 1454h164l-256 -1454h-164l121 682h-373l-120 -682h-164l256 1454h164l-113 -639h373z" />
    <glyph glyph-name="I" unicode="I" horiz-adv-x="409" 
d="M453 1454l-256 -1454h-164l256 1454h164z" />
    <glyph glyph-name="J" unicode="J" horiz-adv-x="534" 
d="M586 1454l-209 -1202q-25 -146 -102 -211.5t-205 -65.5q-83 0 -144 25l27 154q61 -21 113 -21q71 0 105 38.5t48 123.5l205 1159h162z" />
    <glyph glyph-name="K" unicode="K" horiz-adv-x="876" 
d="M823 1454h178l-389 -561l144 -893h-170l-107 752l-200 -283l-82 -469h-164l256 1454h164l-134 -754z" />
    <glyph glyph-name="L" unicode="L" horiz-adv-x="694" 
d="M573 0h-540l256 1454h164l-230 -1300h377z" />
    <glyph glyph-name="M" unicode="M" horiz-adv-x="1202" 
d="M184 0h-151l256 1454h258v-1057q0 -157 -6 -211h8q13 68 65 211l373 1057h258l-256 -1454h-151l159 913q40 232 76 396h-10q-50 -168 -84 -262l-377 -1047h-182l-6 1047q-1 39 0 79.5t2 71t2.5 55t2.5 39.5t1 17h-8q-8 -55 -38 -220.5t-32 -175.5z" />
    <glyph glyph-name="N" unicode="N" horiz-adv-x="974" 
d="M188 0h-155l256 1454h186l166 -954q23 -138 23 -254h4q16 192 47 372l147 836h156l-256 -1454h-176l-168 983q-24 139 -27 248h-6q-11 -179 -29 -281z" />
    <glyph glyph-name="O" unicode="O" horiz-adv-x="907" 
d="M383 -35q-87 0 -152.5 23.5t-113.5 75.5t-61 136t5 206l117 667q18 99 47.5 172t78.5 129.5t123 85.5t173 29q87 0 152.5 -23t113.5 -75.5t61 -136.5t-5 -205l-117 -668q-36 -202 -134 -309t-288 -107zM399 106q57 0 99 21t68 61.5t41.5 84t25.5 102.5l125 704
q25 139 -25.5 204t-148.5 65q-57 0 -99 -21t-68 -61.5t-41.5 -84t-25.5 -102.5l-125 -704q-25 -139 25.5 -204t148.5 -65z" />
    <glyph glyph-name="P" unicode="P" horiz-adv-x="804" 
d="M289 1454h280q43 0 81 -5.5t78.5 -20t69 -39.5t52 -63.5t28 -92t-3.5 -125.5l-22 -152q-12 -78 -35.5 -136.5t-66.5 -108t-114 -75.5t-167 -26h-164l-108 -610h-164zM684 977l21 115q13 59 6.5 100t-19 66.5t-39 40t-53.5 19.5t-63 5h-107l-102 -582h151q53 0 90 17.5
t59.5 53.5t34 72.5t21.5 92.5z" />
    <glyph glyph-name="Q" unicode="Q" horiz-adv-x="907" 
d="M600 1489q87 0 152.5 -23t113.5 -75.5t61 -136.5t-5 -205l-117 -668q-54 -299 -236 -381q20 -31 55 -42t89 -11q47 0 88 10l-27 -152q-42 -10 -78 -10q-89 0 -155.5 46t-87.5 128q-46 -4 -70 -4q-87 0 -152.5 23.5t-113.5 75.5t-61 136t5 206l117 667q18 99 47.5 172
t78.5 129.5t123 85.5t173 29zM633 375l125 704q25 139 -25.5 204t-148.5 65q-57 0 -99 -21t-68 -61.5t-41.5 -84t-25.5 -102.5l-125 -704q-25 -139 25.5 -204t148.5 -65q57 0 99 21t68 61.5t41.5 84t25.5 102.5z" />
    <glyph glyph-name="R" unicode="R" horiz-adv-x="854" 
d="M289 1454h258q80 0 144.5 -20.5t111.5 -62.5t66.5 -112.5t4.5 -164.5l-18 -115q-41 -259 -244 -328l111 -651h-176l-101 623h-139l-110 -623h-164zM688 975l17 106q37 242 -164 242h-111l-100 -573h135q55 0 96.5 19t66.5 53t39 71.5t21 81.5z" />
    <glyph glyph-name="S" unicode="S" horiz-adv-x="774" 
d="M336 -35q-168 0 -255.5 100t-55.5 310l14 94l172 31l-23 -133q-23 -135 22 -198t126 -63q142 0 172 181l12 71q9 52 10.5 90.5t-3.5 66t-20 51t-32.5 40.5t-46.5 39l-133 98q-95 69 -122 166.5t1 225.5l12 65q11 59 31 105.5t56.5 90.5t98 68.5t144.5 24.5q51 0 93 -7
t83 -23.5t68 -44.5t47 -70.5t21.5 -100.5t-9.5 -135l-12 -72l-172 -35l16 93q45 254 -135 254q-43 0 -73 -13t-47 -38.5t-26 -50t-16 -60.5l-16 -84q-17 -84 5 -138.5t85 -101.5l139 -104q99 -75 126 -162t1 -246l-14 -86q-22 -133 -108.5 -216t-235.5 -83z" />
    <glyph glyph-name="T" unicode="T" horiz-adv-x="761" 
d="M178 1454h737l-26 -149h-287l-229 -1305h-162l229 1305h-288z" />
    <glyph glyph-name="U" unicode="U" horiz-adv-x="921" 
d="M84 344l195 1110h163l-198 -1122q-20 -111 23.5 -167t138.5 -56q44 0 78.5 13t56 33t37 51t23 58t13.5 64l199 1126h162l-201 -1139q-63 -350 -385 -350q-174 0 -255.5 99t-49.5 280z" />
    <glyph glyph-name="V" unicode="V" horiz-adv-x="813" 
d="M422 0h-209l-35 1454h174v-1089q0 -67 -4 -177h8q26 89 58 177l383 1089h170z" />
    <glyph glyph-name="W" unicode="W" horiz-adv-x="1226" 
d="M369 0h-236l84 1454h160l-74 -1055q-9 -131 -27 -256h9q9 31 32.5 119.5t38.5 136.5l318 1055h209l-56 -1055q-2 -51 -11 -152t-9 -104h8q35 150 66 256l297 1055h163l-430 -1454h-233l57 1030q4 91 25 283h-10q-28 -131 -76 -283z" />
    <glyph glyph-name="X" unicode="X" horiz-adv-x="835" 
d="M123 0h-197l441 788l-162 666h174l92 -430q7 -32 14 -125h4q20 58 56 125l229 430h184l-389 -688l160 -766h-174l-90 537q-8 49 -8 125h-4q-22 -63 -54 -125z" />
    <glyph glyph-name="Y" unicode="Y" horiz-adv-x="794" 
d="M389 0h-164l111 627l-160 827h174l80 -534q8 -63 8 -134h4q20 62 58 134l270 534h180l-450 -827z" />
    <glyph glyph-name="Z" unicode="Z" horiz-adv-x="747" 
d="M-49 0l24 141l697 1166h-469l26 147h641l-24 -141l-696 -1166h503l-26 -147h-676z" />
    <glyph glyph-name="a" unicode="a" 
d="M199 -25q-102 0 -153 70t-30 203l9 53q11 74 44.5 131.5t75.5 89.5q80 62 205 72l146 12l22 148q23 161 -92 161q-65 0 -93.5 -32t-39.5 -109l-12 -82h-160l12 86q20 137 93 204t206 67q293 0 238 -320l-82 -471q-27 -167 -27 -258h-147q-1 31 12 164q-56 -189 -227 -189
zM272 109q62 0 103.5 43.5t60.5 144.5l39 207l-92 -8q-163 -15 -190 -185l-11 -63q-22 -139 90 -139z" />
    <glyph glyph-name="b" unicode="b" horiz-adv-x="792" 
d="M391 -25q-79 0 -127.5 46.5t-62.5 134.5l-47 -156h-129l262 1485h159l-104 -594q84 158 217 158q19 0 36.5 -2.5t42 -12.5t43.5 -27t37 -48.5t26.5 -73.5t7.5 -106.5t-15 -143.5l-41 -232q-10 -54 -20 -96.5t-27 -95.5t-40 -92t-53 -73.5t-72.5 -52.5t-92.5 -18zM344 117
q41 0 73 21t53 59.5t33.5 79.5t22.5 94l52 288q44 248 -95 248q-140 0 -186 -254l-51 -288q-44 -248 98 -248z" />
    <glyph glyph-name="c" unicode="c" horiz-adv-x="706" 
d="M299 -25q-144 0 -218 85.5t-42 265.5l63 362q62 361 324 361q320 0 256 -326l-12 -64l-160 -14l12 68q11 51 8.5 86.5t-8.5 57t-23 33t-33.5 15.5t-39.5 4q-65 0 -104 -54t-58 -163l-63 -368q-20 -113 11 -161t87 -48q65 0 96 40t47 126l21 104l155 -25l-20 -102
q-27 -134 -102.5 -208.5t-196.5 -74.5z" />
    <glyph glyph-name="d" unicode="d" horiz-adv-x="792" 
d="M236 -25q-68 0 -116 41t-70.5 132.5t5.5 238.5l45 250q73 412 310 412q154 0 174 -168l106 604h160l-262 -1485h-152l25 143q-38 -76 -95.5 -122t-129.5 -46zM319 117q68 0 112 66t69 202l47 260q26 140 -5.5 201t-95.5 61q-37 0 -66 -16.5t-47 -40.5t-32.5 -61.5
t-22 -68t-14.5 -71.5l-49 -276q-14 -66 -10 -111.5t13 -74t28 -44t36 -21t37 -5.5z" />
    <glyph glyph-name="e" unicode="e" horiz-adv-x="714" 
d="M436 1049q142 0 206.5 -87.5t35.5 -246.5q-7 -37 -20.5 -111.5t-20.5 -111.5h-414l-28 -170q-35 -205 106 -205q60 0 93 35.5t46 103.5l17 82l149 -29l-16 -73q-11 -50 -30.5 -92.5t-53 -82.5t-87 -63t-122.5 -23q-61 0 -112 18.5t-92.5 60t-54.5 109t1 165.5l70 387
q61 334 327 334zM522 739q34 185 -96 185q-40 0 -69.5 -17t-47 -48t-27 -61t-16.5 -69l-22 -127h254z" />
    <glyph glyph-name="f" unicode="f" horiz-adv-x="512" 
d="M406 1024h169l-20 -123h-170l-160 -901h-157l159 901h-123l21 123h123l37 209q23 130 88 197t184 67q60 0 100 -14l-24 -135q-36 8 -64 8q-64 0 -91 -31.5t-38 -101.5z" />
    <glyph glyph-name="g" unicode="g" horiz-adv-x="692" 
d="M745 1188q42 0 64 -12l-25 -142q-37 13 -75 13q-46 0 -70.5 -14t-40.5 -46q89 -79 57 -239l-22 -121q-13 -67 -33 -118t-53.5 -94t-86.5 -66t-124 -23q-50 0 -96 12q-66 -18 -66 -70q0 -27 19 -42.5t63 -32.5l129 -50q115 -43 154 -111t26 -163l-6 -43q-15 -110 -99 -180
t-245 -70q-56 0 -104 9t-91 30t-69 54t-37.5 81.5t2.5 112.5l4 20q30 145 189 191q-82 44 -82 129q0 110 149 162q-120 77 -86 262l23 121q13 67 32.5 117t53.5 94t87.5 67t125.5 23q77 0 141 -31q45 170 192 170zM479 608l27 158q9 51 0.5 85.5t-29 49.5t-38 20t-36.5 5
q-111 0 -137 -160l-26 -158q-9 -41 -3 -69.5t15 -46t26.5 -27t32 -13t31.5 -3.5q111 0 137 159zM297 0l-125 45q-38 -17 -58.5 -55t-31.5 -109l-4 -26q-12 -75 26.5 -111.5t118.5 -36.5q84 0 128.5 35t51.5 86l5 31q12 95 -111 141z" />
    <glyph glyph-name="h" unicode="h" horiz-adv-x="788" 
d="M184 0h-159l262 1485h159l-112 -635q66 199 227 199q76 0 127 -44t51 -141q0 -67 -14 -139l-129 -725h-160l125 707q14 86 14 112q0 94 -92 94q-81 0 -123 -77t-71 -240z" />
    <glyph glyph-name="i" unicode="i" horiz-adv-x="389" 
d="M393 1196h-174l39 223h174zM184 0h-159l180 1024h160z" />
    <glyph glyph-name="j" unicode="j" horiz-adv-x="387" 
d="M393 1196h-174l39 223h174zM-72 -414q-55 0 -98 15l27 143q27 -8 51 -8q40 0 59 19.5t27 62.5l211 1206h157l-219 -1247q-15 -85 -66.5 -138t-148.5 -53z" />
    <glyph glyph-name="k" unicode="k" horiz-adv-x="759" 
d="M653 1024h174l-319 -389l141 -635h-162l-98 514l-4 -2l-143 -184l-58 -328h-159l262 1485h159l-165 -934z" />
    <glyph glyph-name="l" unicode="l" horiz-adv-x="389" 
d="M287 1485h159l-262 -1485h-159z" />
    <glyph glyph-name="m" unicode="m" horiz-adv-x="1142" 
d="M184 0h-159l180 1024h149l-28 -152q38 89 86.5 133t128.5 44q60 0 107.5 -37.5t58.5 -126.5q67 164 208 164q33 0 60.5 -9.5t54 -31.5t42 -67.5t15.5 -109.5q0 -72 -12 -133l-127 -698h-160l125 713q9 47 9 82q0 118 -88 118q-30 0 -54 -15.5t-38.5 -37.5t-27 -59
t-19 -65.5t-13.5 -71.5l-117 -664h-157l124 705q9 49 9 83q0 125 -90 125q-60 0 -94 -63.5t-60 -208.5z" />
    <glyph glyph-name="n" unicode="n" horiz-adv-x="786" 
d="M184 0h-159l180 1024h149l-30 -168q41 92 92.5 142.5t132.5 50.5q32 0 61.5 -9t59.5 -30t48.5 -64.5t18.5 -105.5q0 -39 -10 -101l-131 -739h-160l131 748q6 34 6 57q0 108 -96 108q-35 0 -63 -16.5t-46 -41.5t-33.5 -69t-25 -85t-20.5 -105z" />
    <glyph glyph-name="o" unicode="o" horiz-adv-x="733" 
d="M291 -25q-52 0 -94.5 11t-79.5 37t-56.5 69t-27 107t9.5 151l57 324q15 86 37 148t60 116.5t99.5 82.5t145.5 28q52 0 94.5 -11t79.5 -37t56.5 -69t27 -107t-9.5 -151l-57 -324q-15 -86 -37 -148t-60 -116.5t-99.5 -82.5t-145.5 -28zM305 115q73 0 109.5 57.5t56.5 165.5
l61 348q40 223 -104 223q-73 0 -109.5 -57.5t-56.5 -165.5l-61 -348q-40 -223 104 -223z" />
    <glyph glyph-name="p" unicode="p" horiz-adv-x="792" 
d="M115 -399h-160l252 1423h147l-30 -156q42 92 95.5 136.5t133.5 44.5q19 0 37 -2.5t43 -12.5t44.5 -27t38 -48.5t27.5 -73.5t8.5 -106.5t-14.5 -143.5l-41 -232q-10 -54 -20 -96.5t-27 -95.5t-40 -92t-53 -73.5t-72.5 -52.5t-92.5 -18q-75 0 -121.5 42t-60.5 120zM338 117
q81 0 124 67t64 187l52 288q25 138 -5 193t-88 55q-56 0 -95.5 -37t-59 -89t-33.5 -128l-51 -288q-11 -74 -9.5 -122t18 -76t36.5 -39t47 -11z" />
    <glyph glyph-name="q" unicode="q" horiz-adv-x="794" 
d="M518 -399h-158l99 563q-81 -189 -223 -189q-68 0 -116 41t-70.5 132.5t5.5 238.5l45 250q73 412 310 412q169 0 192 -185l47 160h121zM319 117q68 0 112 66t69 202l47 260q26 140 -5.5 201t-95.5 61q-37 0 -66 -16.5t-47 -40.5t-32.5 -61.5t-22 -68t-14.5 -71.5l-49 -276
q-14 -66 -10 -111.5t13 -74t28 -44t36 -21t37 -5.5z" />
    <glyph glyph-name="r" unicode="r" horiz-adv-x="530" 
d="M354 1024l-41 -233q32 120 93 189t149 69q18 0 43 -5l-33 -182q-21 6 -45 6q-110 0 -170 -102q-49 -91 -78 -264l-88 -502h-159l180 1024h149z" />
    <glyph glyph-name="s" unicode="s" horiz-adv-x="690" 
d="M285 -25q-139 0 -216 72.5t-51 216.5l11 55l166 31l-11 -63q-18 -104 12 -144.5t99 -40.5q18 0 32.5 3.5t32.5 14t31.5 35.5t20.5 64l10 53q12 64 -5 101.5t-85 66.5l-90 37q-76 32 -107 109t-12 174l12 63q20 104 89 165t196 61q59 0 105.5 -12.5t86 -42.5t55 -88
t1.5 -140l-9 -47l-163 -27l10 76q11 85 -13.5 120.5t-80.5 35.5q-97 0 -119 -109l-12 -61q-23 -117 71 -160l99 -43q57 -25 90 -55.5t44.5 -69.5t10.5 -75.5t-12 -88.5l-11 -53q-44 -234 -288 -234z" />
    <glyph glyph-name="t" unicode="t" horiz-adv-x="512" 
d="M209 901h-121l23 123h120l43 246l168 55l-51 -301h170l-22 -123h-170l-107 -606q-14 -83 7 -121.5t89 -38.5q38 0 54 2l-25 -147q-33 -8 -78 -8q-263 0 -209 305z" />
    <glyph glyph-name="u" unicode="u" horiz-adv-x="784" 
d="M238 -25q-187 0 -187 209q0 39 10 101l129 739h162l-131 -745q-6 -35 -6 -58q0 -104 92 -104q73 0 117.5 80.5t71.5 228.5l106 598h158l-180 -1024h-150l31 168q-42 -94 -91 -143.5t-132 -49.5z" />
    <glyph glyph-name="v" unicode="v" horiz-adv-x="667" 
d="M330 0h-170l-56 1024h164l4 -690q0 -80 -6 -154h8q11 29 30 87t22 67l245 690h172z" />
    <glyph glyph-name="w" unicode="w" horiz-adv-x="1056" 
d="M309 0h-174l-8 1024h160l-33 -778l-6 -84h4q2 9 24 84l256 778h173l-19 -778q0 -22 -4 -84h4q4 31 21 84l243 778h160l-367 -1024h-170l15 772q0 18 10 105h-4q-2 -9 -12 -47t-17 -58z" />
    <glyph glyph-name="x" unicode="x" horiz-adv-x="663" 
d="M102 0h-182l330 537l-125 487h168l49 -297q10 -52 12 -86h4q5 15 21 45.5t22 42.5l146 295h172l-293 -498l137 -526h-164l-61 317q-12 66 -12 91h-4q-8 -21 -46 -91z" />
    <glyph glyph-name="y" unicode="y" horiz-adv-x="694" 
d="M-25 -410q-41 0 -75 11l24 153q30 -10 68 -10q94 0 141 113l60 143l-89 1024h170l27 -709q3 -75 -6 -139h4q13 53 45 135l256 713h170l-504 -1219q-52 -124 -122.5 -169.5t-168.5 -45.5z" />
    <glyph glyph-name="z" unicode="z" horiz-adv-x="608" 
d="M-47 0l22 125l488 764h-338l22 135h498l-22 -125l-482 -762h369l-25 -137h-532z" />
    <glyph glyph-name="ordfeminine" unicode="&#xaa;" 
d="M199 -25q-102 0 -153 70t-30 203l9 53q11 74 44.5 131.5t75.5 89.5q80 62 205 72l146 12l22 148q23 161 -92 161q-65 0 -93.5 -32t-39.5 -109l-12 -82h-160l12 86q20 137 93 204t206 67q293 0 238 -320l-82 -471q-27 -167 -27 -258h-147q-1 31 12 164q-56 -189 -227 -189
zM272 109q62 0 103.5 43.5t60.5 144.5l39 207l-92 -8q-163 -15 -190 -185l-11 -63q-22 -139 90 -139z" />
    <glyph glyph-name="ordmasculine" unicode="&#xba;" horiz-adv-x="733" 
d="M291 -25q-52 0 -94.5 11t-79.5 37t-56.5 69t-27 107t9.5 151l57 324q15 86 37 148t60 116.5t99.5 82.5t145.5 28q52 0 94.5 -11t79.5 -37t56.5 -69t27 -107t-9.5 -151l-57 -324q-15 -86 -37 -148t-60 -116.5t-99.5 -82.5t-145.5 -28zM305 115q73 0 109.5 57.5t56.5 165.5
l61 348q40 223 -104 223q-73 0 -109.5 -57.5t-56.5 -165.5l-61 -348q-40 -223 104 -223z" />
    <glyph glyph-name="Agrave" unicode="&#xc0;" horiz-adv-x="858" 
d="M739 0h-161l-5 422h-307l-151 -422h-176l553 1454h206zM500 1075l-187 -518h258l-6 518q0 120 8 221h-6q-27 -113 -67 -221z" />
    <glyph glyph-name="Aacute" unicode="&#xc1;" horiz-adv-x="858" 
d="M739 0h-161l-5 422h-307l-151 -422h-176l553 1454h206zM500 1075l-187 -518h258l-6 518q0 120 8 221h-6q-27 -113 -67 -221z" />
    <glyph glyph-name="Acircumflex" unicode="&#xc2;" horiz-adv-x="858" 
d="M739 0h-161l-5 422h-307l-151 -422h-176l553 1454h206zM500 1075l-187 -518h258l-6 518q0 120 8 221h-6q-27 -113 -67 -221z" />
    <glyph glyph-name="Atilde" unicode="&#xc3;" horiz-adv-x="858" 
d="M739 0h-161l-5 422h-307l-151 -422h-176l553 1454h206zM500 1075l-187 -518h258l-6 518q0 120 8 221h-6q-27 -113 -67 -221z" />
    <glyph glyph-name="Adieresis" unicode="&#xc4;" horiz-adv-x="858" 
d="M739 0h-161l-5 422h-307l-151 -422h-176l553 1454h206zM500 1075l-187 -518h258l-6 518q0 120 8 221h-6q-27 -113 -67 -221z" />
    <glyph glyph-name="Aring" unicode="&#xc5;" horiz-adv-x="858" 
d="M739 0h-161l-5 422h-307l-151 -422h-176l553 1454h206zM500 1075l-187 -518h258l-6 518q0 120 8 221h-6q-27 -113 -67 -221z" />
    <glyph glyph-name="AE" unicode="&#xc6;" horiz-adv-x="1597" 
d="M-61 0l553 1454h206l41 -1454h-161l-5 422h-307l-151 -422h-176zM1710 1454l-24 -143h-400l-86 -490h365l-27 -143h-364l-95 -535h414l-25 -143h-577l256 1454h563zM500 1075l-187 -518h258l-6 518q0 120 8 221h-6q-27 -113 -67 -221z" />
    <glyph glyph-name="Ccedilla" unicode="&#xc7;" horiz-adv-x="866" 
d="M375 -35q-86 0 -150 24.5t-109.5 80.5t-56.5 146.5t9 221.5l114 656q11 63 26.5 114.5t46 106t71 91t104 60t143.5 23.5q69 0 123 -12.5t98.5 -41t68 -74.5t32 -113.5t-9.5 -157.5l-17 -93l-176 -39l25 142q24 135 -18 191.5t-124 56.5q-49 0 -87 -17t-60 -40.5
t-39 -62.5t-24.5 -69.5t-14.5 -73.5l-117 -673q-13 -87 -9 -145.5t27.5 -93.5t55 -49.5t72.5 -14.5q98 0 141.5 58t63.5 169l34 194l162 -43l-30 -172q-15 -81 -40 -141t-67.5 -109t-110 -74.5t-157.5 -25.5z" />
    <glyph glyph-name="Egrave" unicode="&#xc8;" 
d="M852 1454l-25 -143h-399l-86 -490h365l-27 -143h-365l-94 -535h414l-25 -143h-577l256 1454h563z" />
    <glyph glyph-name="Eacute" unicode="&#xc9;" 
d="M852 1454l-25 -143h-399l-86 -490h365l-27 -143h-365l-94 -535h414l-25 -143h-577l256 1454h563z" />
    <glyph glyph-name="Ecircumflex" unicode="&#xca;" 
d="M852 1454l-25 -143h-399l-86 -490h365l-27 -143h-365l-94 -535h414l-25 -143h-577l256 1454h563z" />
    <glyph glyph-name="Edieresis" unicode="&#xcb;" 
d="M852 1454l-25 -143h-399l-86 -490h365l-27 -143h-365l-94 -535h414l-25 -143h-577l256 1454h563z" />
    <glyph glyph-name="Igrave" unicode="&#xcc;" horiz-adv-x="409" 
d="M453 1454l-256 -1454h-164l256 1454h164z" />
    <glyph glyph-name="Iacute" unicode="&#xcd;" horiz-adv-x="409" 
d="M453 1454l-256 -1454h-164l256 1454h164z" />
    <glyph glyph-name="Icircumflex" unicode="&#xce;" horiz-adv-x="409" 
d="M453 1454l-256 -1454h-164l256 1454h164z" />
    <glyph glyph-name="Idieresis" unicode="&#xcf;" horiz-adv-x="409" 
d="M453 1454l-256 -1454h-164l256 1454h164z" />
    <glyph glyph-name="Eth" unicode="&#xd0;" horiz-adv-x="923" 
d="M336 0h-303l256 1454h289q107 0 178.5 -31.5t117 -104t50.5 -190.5t-23 -290l-49 -279q-30 -167 -74.5 -277t-110 -172t-143.5 -86t-188 -24zM430 1321l-209 -1186h123q59 0 100 10t79 35.5t65 72.5t50 120t42 178l51 287q44 266 0 374.5t-182 108.5h-119z" />
    <glyph glyph-name="Ntilde" unicode="&#xd1;" horiz-adv-x="974" 
d="M188 0h-155l256 1454h186l166 -954q23 -138 23 -254h4q16 192 47 372l147 836h156l-256 -1454h-176l-168 983q-24 139 -27 248h-6q-11 -179 -29 -281z" />
    <glyph glyph-name="Ograve" unicode="&#xd2;" horiz-adv-x="907" 
d="M383 -35q-87 0 -152.5 23.5t-113.5 75.5t-61 136t5 206l117 667q18 99 47.5 172t78.5 129.5t123 85.5t173 29q87 0 152.5 -23t113.5 -75.5t61 -136.5t-5 -205l-117 -668q-36 -202 -134 -309t-288 -107zM399 106q57 0 99 21t68 61.5t41.5 84t25.5 102.5l125 704
q25 139 -25.5 204t-148.5 65q-57 0 -99 -21t-68 -61.5t-41.5 -84t-25.5 -102.5l-125 -704q-25 -139 25.5 -204t148.5 -65z" />
    <glyph glyph-name="Oacute" unicode="&#xd3;" horiz-adv-x="907" 
d="M383 -35q-87 0 -152.5 23.5t-113.5 75.5t-61 136t5 206l117 667q18 99 47.5 172t78.5 129.5t123 85.5t173 29q87 0 152.5 -23t113.5 -75.5t61 -136.5t-5 -205l-117 -668q-36 -202 -134 -309t-288 -107zM399 106q57 0 99 21t68 61.5t41.5 84t25.5 102.5l125 704
q25 139 -25.5 204t-148.5 65q-57 0 -99 -21t-68 -61.5t-41.5 -84t-25.5 -102.5l-125 -704q-25 -139 25.5 -204t148.5 -65z" />
    <glyph glyph-name="Ocircumflex" unicode="&#xd4;" horiz-adv-x="907" 
d="M383 -35q-87 0 -152.5 23.5t-113.5 75.5t-61 136t5 206l117 667q18 99 47.5 172t78.5 129.5t123 85.5t173 29q87 0 152.5 -23t113.5 -75.5t61 -136.5t-5 -205l-117 -668q-36 -202 -134 -309t-288 -107zM399 106q57 0 99 21t68 61.5t41.5 84t25.5 102.5l125 704
q25 139 -25.5 204t-148.5 65q-57 0 -99 -21t-68 -61.5t-41.5 -84t-25.5 -102.5l-125 -704q-25 -139 25.5 -204t148.5 -65z" />
    <glyph glyph-name="Otilde" unicode="&#xd5;" horiz-adv-x="907" 
d="M383 -35q-87 0 -152.5 23.5t-113.5 75.5t-61 136t5 206l117 667q18 99 47.5 172t78.5 129.5t123 85.5t173 29q87 0 152.5 -23t113.5 -75.5t61 -136.5t-5 -205l-117 -668q-36 -202 -134 -309t-288 -107zM399 106q57 0 99 21t68 61.5t41.5 84t25.5 102.5l125 704
q25 139 -25.5 204t-148.5 65q-57 0 -99 -21t-68 -61.5t-41.5 -84t-25.5 -102.5l-125 -704q-25 -139 25.5 -204t148.5 -65z" />
    <glyph glyph-name="Odieresis" unicode="&#xd6;" horiz-adv-x="907" 
d="M383 -35q-87 0 -152.5 23.5t-113.5 75.5t-61 136t5 206l117 667q18 99 47.5 172t78.5 129.5t123 85.5t173 29q87 0 152.5 -23t113.5 -75.5t61 -136.5t-5 -205l-117 -668q-36 -202 -134 -309t-288 -107zM399 106q57 0 99 21t68 61.5t41.5 84t25.5 102.5l125 704
q25 139 -25.5 204t-148.5 65q-57 0 -99 -21t-68 -61.5t-41.5 -84t-25.5 -102.5l-125 -704q-25 -139 25.5 -204t148.5 -65z" />
    <glyph glyph-name="Oslash" unicode="&#xd8;" horiz-adv-x="907" 
d="M383 -35q-87 0 -152.5 23.5t-113.5 75.5t-61 136t5 206l117 667q18 99 47.5 172t78.5 129.5t123 85.5t173 29q87 0 152.5 -23t113.5 -75.5t61 -136.5t-5 -205l-117 -668q-36 -202 -134 -309t-288 -107zM399 106q57 0 99 21t68 61.5t41.5 84t25.5 102.5l125 704
q25 139 -25.5 204t-148.5 65q-57 0 -99 -21t-68 -61.5t-41.5 -84t-25.5 -102.5l-125 -704q-25 -139 25.5 -204t148.5 -65z" />
    <glyph glyph-name="Ugrave" unicode="&#xd9;" horiz-adv-x="921" 
d="M84 344l195 1110h163l-198 -1122q-20 -111 23.5 -167t138.5 -56q44 0 78.5 13t56 33t37 51t23 58t13.5 64l199 1126h162l-201 -1139q-63 -350 -385 -350q-174 0 -255.5 99t-49.5 280z" />
    <glyph glyph-name="Uacute" unicode="&#xda;" horiz-adv-x="921" 
d="M84 344l195 1110h163l-198 -1122q-20 -111 23.5 -167t138.5 -56q44 0 78.5 13t56 33t37 51t23 58t13.5 64l199 1126h162l-201 -1139q-63 -350 -385 -350q-174 0 -255.5 99t-49.5 280z" />
    <glyph glyph-name="Ucircumflex" unicode="&#xdb;" horiz-adv-x="921" 
d="M84 344l195 1110h163l-198 -1122q-20 -111 23.5 -167t138.5 -56q44 0 78.5 13t56 33t37 51t23 58t13.5 64l199 1126h162l-201 -1139q-63 -350 -385 -350q-174 0 -255.5 99t-49.5 280z" />
    <glyph glyph-name="Udieresis" unicode="&#xdc;" horiz-adv-x="921" 
d="M84 344l195 1110h163l-198 -1122q-20 -111 23.5 -167t138.5 -56q44 0 78.5 13t56 33t37 51t23 58t13.5 64l199 1126h162l-201 -1139q-63 -350 -385 -350q-174 0 -255.5 99t-49.5 280z" />
    <glyph glyph-name="Yacute" unicode="&#xdd;" horiz-adv-x="794" 
d="M389 0h-164l111 627l-160 827h174l80 -534q8 -63 8 -134h4q20 62 58 134l270 534h180l-450 -827z" />
    <glyph glyph-name="Thorn" unicode="&#xde;" horiz-adv-x="804" 
d="M289 1454h280q43 0 81 -5.5t78.5 -20t69 -39.5t52 -63.5t28 -92t-3.5 -125.5l-22 -152q-12 -78 -35.5 -136.5t-66.5 -108t-114 -75.5t-167 -26h-164l-108 -610h-164zM684 977l21 115q13 59 6.5 100t-19 66.5t-39 40t-53.5 19.5t-63 5h-107l-102 -582h151q53 0 90 17.5
t59.5 53.5t34 72.5t21.5 92.5z" />
    <glyph glyph-name="agrave" unicode="&#xe0;" 
d="M199 -25q-102 0 -153 70t-30 203l9 53q11 74 44.5 131.5t75.5 89.5q80 62 205 72l146 12l22 148q23 161 -92 161q-65 0 -93.5 -32t-39.5 -109l-12 -82h-160l12 86q20 137 93 204t206 67q293 0 238 -320l-82 -471q-27 -167 -27 -258h-147q-1 31 12 164q-56 -189 -227 -189
zM272 109q62 0 103.5 43.5t60.5 144.5l39 207l-92 -8q-163 -15 -190 -185l-11 -63q-22 -139 90 -139z" />
    <glyph glyph-name="aacute" unicode="&#xe1;" 
d="M199 -25q-102 0 -153 70t-30 203l9 53q11 74 44.5 131.5t75.5 89.5q80 62 205 72l146 12l22 148q23 161 -92 161q-65 0 -93.5 -32t-39.5 -109l-12 -82h-160l12 86q20 137 93 204t206 67q293 0 238 -320l-82 -471q-27 -167 -27 -258h-147q-1 31 12 164q-56 -189 -227 -189
zM272 109q62 0 103.5 43.5t60.5 144.5l39 207l-92 -8q-163 -15 -190 -185l-11 -63q-22 -139 90 -139z" />
    <glyph glyph-name="acircumflex" unicode="&#xe2;" 
d="M199 -25q-102 0 -153 70t-30 203l9 53q11 74 44.5 131.5t75.5 89.5q80 62 205 72l146 12l22 148q23 161 -92 161q-65 0 -93.5 -32t-39.5 -109l-12 -82h-160l12 86q20 137 93 204t206 67q293 0 238 -320l-82 -471q-27 -167 -27 -258h-147q-1 31 12 164q-56 -189 -227 -189
zM272 109q62 0 103.5 43.5t60.5 144.5l39 207l-92 -8q-163 -15 -190 -185l-11 -63q-22 -139 90 -139z" />
    <glyph glyph-name="atilde" unicode="&#xe3;" 
d="M199 -25q-102 0 -153 70t-30 203l9 53q11 74 44.5 131.5t75.5 89.5q80 62 205 72l146 12l22 148q23 161 -92 161q-65 0 -93.5 -32t-39.5 -109l-12 -82h-160l12 86q20 137 93 204t206 67q293 0 238 -320l-82 -471q-27 -167 -27 -258h-147q-1 31 12 164q-56 -189 -227 -189
zM272 109q62 0 103.5 43.5t60.5 144.5l39 207l-92 -8q-163 -15 -190 -185l-11 -63q-22 -139 90 -139z" />
    <glyph glyph-name="adieresis" unicode="&#xe4;" 
d="M199 -25q-102 0 -153 70t-30 203l9 53q11 74 44.5 131.5t75.5 89.5q80 62 205 72l146 12l22 148q23 161 -92 161q-65 0 -93.5 -32t-39.5 -109l-12 -82h-160l12 86q20 137 93 204t206 67q293 0 238 -320l-82 -471q-27 -167 -27 -258h-147q-1 31 12 164q-56 -189 -227 -189
zM272 109q62 0 103.5 43.5t60.5 144.5l39 207l-92 -8q-163 -15 -190 -185l-11 -63q-22 -139 90 -139z" />
    <glyph glyph-name="aring" unicode="&#xe5;" 
d="M199 -25q-102 0 -153 70t-30 203l9 53q11 74 44.5 131.5t75.5 89.5q80 62 205 72l146 12l22 148q23 161 -92 161q-65 0 -93.5 -32t-39.5 -109l-12 -82h-160l12 86q20 137 93 204t206 67q293 0 238 -320l-82 -471q-27 -167 -27 -258h-147q-1 31 12 164q-56 -189 -227 -189
zM272 109q62 0 103.5 43.5t60.5 144.5l39 207l-92 -8q-163 -15 -190 -185l-11 -63q-22 -139 90 -139z" />
    <glyph glyph-name="ae" unicode="&#xe6;" horiz-adv-x="1454" 
d="M199 -25q-102 0 -153 70t-30 203l9 53q11 74 44.5 131.5t75.5 89.5q80 62 205 72l146 12l22 148q23 161 -92 161q-65 0 -93.5 -32t-39.5 -109l-12 -82h-160l12 86q20 137 93 204t206 67q293 0 238 -320l-82 -471q-27 -167 -27 -258h-147q-1 31 12 164q-56 -189 -227 -189
zM1178 1049q142 0 206 -87.5t35 -246.5q-7 -37 -20.5 -111.5t-20.5 -111.5h-413l-29 -170q-35 -205 106 -205q114 0 140 139l16 82l150 -29l-17 -73q-11 -50 -30.5 -92.5t-53 -82.5t-87 -63t-122.5 -23q-61 0 -112 18.5t-92.5 60t-54.5 109t1 165.5l70 387q61 334 328 334z
M1264 739q34 185 -97 185q-40 0 -69 -17t-46.5 -48t-27 -60.5t-16.5 -69.5l-23 -127h254zM272 109q62 0 103.5 43.5t60.5 144.5l39 207l-92 -8q-163 -15 -190 -185l-11 -63q-22 -139 90 -139z" />
    <glyph glyph-name="ccedilla" unicode="&#xe7;" horiz-adv-x="706" 
d="M299 -25q-144 0 -218 85.5t-42 265.5l63 362q62 361 324 361q320 0 256 -326l-12 -64l-160 -14l12 68q11 51 8.5 86.5t-8.5 57t-23 33t-33.5 15.5t-39.5 4q-65 0 -104 -54t-58 -163l-63 -368q-20 -113 11 -161t87 -48q65 0 96 40t47 126l21 104l155 -25l-20 -102
q-27 -134 -102.5 -208.5t-196.5 -74.5z" />
    <glyph glyph-name="egrave" unicode="&#xe8;" horiz-adv-x="714" 
d="M436 1049q142 0 206.5 -87.5t35.5 -246.5q-7 -37 -20.5 -111.5t-20.5 -111.5h-414l-28 -170q-35 -205 106 -205q60 0 93 35.5t46 103.5l17 82l149 -29l-16 -73q-11 -50 -30.5 -92.5t-53 -82.5t-87 -63t-122.5 -23q-61 0 -112 18.5t-92.5 60t-54.5 109t1 165.5l70 387
q61 334 327 334zM522 739q34 185 -96 185q-40 0 -69.5 -17t-47 -48t-27 -61t-16.5 -69l-22 -127h254z" />
    <glyph glyph-name="eacute" unicode="&#xe9;" horiz-adv-x="714" 
d="M436 1049q142 0 206.5 -87.5t35.5 -246.5q-7 -37 -20.5 -111.5t-20.5 -111.5h-414l-28 -170q-35 -205 106 -205q60 0 93 35.5t46 103.5l17 82l149 -29l-16 -73q-11 -50 -30.5 -92.5t-53 -82.5t-87 -63t-122.5 -23q-61 0 -112 18.5t-92.5 60t-54.5 109t1 165.5l70 387
q61 334 327 334zM522 739q34 185 -96 185q-40 0 -69.5 -17t-47 -48t-27 -61t-16.5 -69l-22 -127h254z" />
    <glyph glyph-name="ecircumflex" unicode="&#xea;" horiz-adv-x="714" 
d="M436 1049q142 0 206.5 -87.5t35.5 -246.5q-7 -37 -20.5 -111.5t-20.5 -111.5h-414l-28 -170q-35 -205 106 -205q60 0 93 35.5t46 103.5l17 82l149 -29l-16 -73q-11 -50 -30.5 -92.5t-53 -82.5t-87 -63t-122.5 -23q-61 0 -112 18.5t-92.5 60t-54.5 109t1 165.5l70 387
q61 334 327 334zM522 739q34 185 -96 185q-40 0 -69.5 -17t-47 -48t-27 -61t-16.5 -69l-22 -127h254z" />
    <glyph glyph-name="edieresis" unicode="&#xeb;" horiz-adv-x="714" 
d="M436 1049q142 0 206.5 -87.5t35.5 -246.5q-7 -37 -20.5 -111.5t-20.5 -111.5h-414l-28 -170q-35 -205 106 -205q60 0 93 35.5t46 103.5l17 82l149 -29l-16 -73q-11 -50 -30.5 -92.5t-53 -82.5t-87 -63t-122.5 -23q-61 0 -112 18.5t-92.5 60t-54.5 109t1 165.5l70 387
q61 334 327 334zM522 739q34 185 -96 185q-40 0 -69.5 -17t-47 -48t-27 -61t-16.5 -69l-22 -127h254z" />
    <glyph glyph-name="igrave" unicode="&#xec;" horiz-adv-x="389" 
d="M393 1196h-174l39 223h174zM184 0h-159l180 1024h160z" />
    <glyph glyph-name="iacute" unicode="&#xed;" horiz-adv-x="389" 
d="M393 1196h-174l39 223h174zM184 0h-159l180 1024h160z" />
    <glyph glyph-name="icircumflex" unicode="&#xee;" horiz-adv-x="389" 
d="M393 1196h-174l39 223h174zM184 0h-159l180 1024h160z" />
    <glyph glyph-name="idieresis" unicode="&#xef;" horiz-adv-x="389" 
d="M393 1196h-174l39 223h174zM184 0h-159l180 1024h160z" />
    <glyph glyph-name="ntilde" unicode="&#xf1;" horiz-adv-x="786" 
d="M184 0h-159l180 1024h149l-30 -168q41 92 92.5 142.5t132.5 50.5q32 0 61.5 -9t59.5 -30t48.5 -64.5t18.5 -105.5q0 -39 -10 -101l-131 -739h-160l131 748q6 34 6 57q0 108 -96 108q-35 0 -63 -16.5t-46 -41.5t-33.5 -69t-25 -85t-20.5 -105z" />
    <glyph glyph-name="ograve" unicode="&#xf2;" horiz-adv-x="733" 
d="M291 -25q-52 0 -94.5 11t-79.5 37t-56.5 69t-27 107t9.5 151l57 324q15 86 37 148t60 116.5t99.5 82.5t145.5 28q52 0 94.5 -11t79.5 -37t56.5 -69t27 -107t-9.5 -151l-57 -324q-15 -86 -37 -148t-60 -116.5t-99.5 -82.5t-145.5 -28zM305 115q73 0 109.5 57.5t56.5 165.5
l61 348q40 223 -104 223q-73 0 -109.5 -57.5t-56.5 -165.5l-61 -348q-40 -223 104 -223z" />
    <glyph glyph-name="oacute" unicode="&#xf3;" horiz-adv-x="733" 
d="M291 -25q-52 0 -94.5 11t-79.5 37t-56.5 69t-27 107t9.5 151l57 324q15 86 37 148t60 116.5t99.5 82.5t145.5 28q52 0 94.5 -11t79.5 -37t56.5 -69t27 -107t-9.5 -151l-57 -324q-15 -86 -37 -148t-60 -116.5t-99.5 -82.5t-145.5 -28zM305 115q73 0 109.5 57.5t56.5 165.5
l61 348q40 223 -104 223q-73 0 -109.5 -57.5t-56.5 -165.5l-61 -348q-40 -223 104 -223z" />
    <glyph glyph-name="ocircumflex" unicode="&#xf4;" horiz-adv-x="733" 
d="M291 -25q-52 0 -94.5 11t-79.5 37t-56.5 69t-27 107t9.5 151l57 324q15 86 37 148t60 116.5t99.5 82.5t145.5 28q52 0 94.5 -11t79.5 -37t56.5 -69t27 -107t-9.5 -151l-57 -324q-15 -86 -37 -148t-60 -116.5t-99.5 -82.5t-145.5 -28zM305 115q73 0 109.5 57.5t56.5 165.5
l61 348q40 223 -104 223q-73 0 -109.5 -57.5t-56.5 -165.5l-61 -348q-40 -223 104 -223z" />
    <glyph glyph-name="otilde" unicode="&#xf5;" horiz-adv-x="733" 
d="M291 -25q-52 0 -94.5 11t-79.5 37t-56.5 69t-27 107t9.5 151l57 324q15 86 37 148t60 116.5t99.5 82.5t145.5 28q52 0 94.5 -11t79.5 -37t56.5 -69t27 -107t-9.5 -151l-57 -324q-15 -86 -37 -148t-60 -116.5t-99.5 -82.5t-145.5 -28zM305 115q73 0 109.5 57.5t56.5 165.5
l61 348q40 223 -104 223q-73 0 -109.5 -57.5t-56.5 -165.5l-61 -348q-40 -223 104 -223z" />
    <glyph glyph-name="odieresis" unicode="&#xf6;" horiz-adv-x="733" 
d="M291 -25q-52 0 -94.5 11t-79.5 37t-56.5 69t-27 107t9.5 151l57 324q15 86 37 148t60 116.5t99.5 82.5t145.5 28q52 0 94.5 -11t79.5 -37t56.5 -69t27 -107t-9.5 -151l-57 -324q-15 -86 -37 -148t-60 -116.5t-99.5 -82.5t-145.5 -28zM305 115q73 0 109.5 57.5t56.5 165.5
l61 348q40 223 -104 223q-73 0 -109.5 -57.5t-56.5 -165.5l-61 -348q-40 -223 104 -223z" />
    <glyph glyph-name="oslash" unicode="&#xf8;" horiz-adv-x="733" 
d="M291 -25q-52 0 -94.5 11t-79.5 37t-56.5 69t-27 107t9.5 151l57 324q15 86 37 148t60 116.5t99.5 82.5t145.5 28q52 0 94.5 -11t79.5 -37t56.5 -69t27 -107t-9.5 -151l-57 -324q-15 -86 -37 -148t-60 -116.5t-99.5 -82.5t-145.5 -28zM305 115q73 0 109.5 57.5t56.5 165.5
l61 348q40 223 -104 223q-73 0 -109.5 -57.5t-56.5 -165.5l-61 -348q-40 -223 104 -223z" />
    <glyph glyph-name="ugrave" unicode="&#xf9;" horiz-adv-x="784" 
d="M238 -25q-187 0 -187 209q0 39 10 101l129 739h162l-131 -745q-6 -35 -6 -58q0 -104 92 -104q73 0 117.5 80.5t71.5 228.5l106 598h158l-180 -1024h-150l31 168q-42 -94 -91 -143.5t-132 -49.5z" />
    <glyph glyph-name="uacute" unicode="&#xfa;" horiz-adv-x="784" 
d="M238 -25q-187 0 -187 209q0 39 10 101l129 739h162l-131 -745q-6 -35 -6 -58q0 -104 92 -104q73 0 117.5 80.5t71.5 228.5l106 598h158l-180 -1024h-150l31 168q-42 -94 -91 -143.5t-132 -49.5z" />
    <glyph glyph-name="ucircumflex" unicode="&#xfb;" horiz-adv-x="784" 
d="M238 -25q-187 0 -187 209q0 39 10 101l129 739h162l-131 -745q-6 -35 -6 -58q0 -104 92 -104q73 0 117.5 80.5t71.5 228.5l106 598h158l-180 -1024h-150l31 168q-42 -94 -91 -143.5t-132 -49.5z" />
    <glyph glyph-name="udieresis" unicode="&#xfc;" horiz-adv-x="784" 
d="M238 -25q-187 0 -187 209q0 39 10 101l129 739h162l-131 -745q-6 -35 -6 -58q0 -104 92 -104q73 0 117.5 80.5t71.5 228.5l106 598h158l-180 -1024h-150l31 168q-42 -94 -91 -143.5t-132 -49.5z" />
    <glyph glyph-name="yacute" unicode="&#xfd;" horiz-adv-x="694" 
d="M-25 -410q-41 0 -75 11l24 153q30 -10 68 -10q94 0 141 113l60 143l-89 1024h170l27 -709q3 -75 -6 -139h4q13 53 45 135l256 713h170l-504 -1219q-52 -124 -122.5 -169.5t-168.5 -45.5z" />
    <glyph glyph-name="thorn" unicode="&#xfe;" horiz-adv-x="792" 
d="M115 -399h-160l252 1423h147l-30 -156q42 92 95.5 136.5t133.5 44.5q19 0 37 -2.5t43 -12.5t44.5 -27t38 -48.5t27.5 -73.5t8.5 -106.5t-14.5 -143.5l-41 -232q-10 -54 -20 -96.5t-27 -95.5t-40 -92t-53 -73.5t-72.5 -52.5t-92.5 -18q-75 0 -121.5 42t-60.5 120zM338 117
q81 0 124 67t64 187l52 288q25 138 -5 193t-88 55q-56 0 -95.5 -37t-59 -89t-33.5 -128l-51 -288q-11 -74 -9.5 -122t18 -76t36.5 -39t47 -11z" />
    <glyph glyph-name="ydieresis" unicode="&#xff;" horiz-adv-x="694" 
d="M-25 -410q-41 0 -75 11l24 153q30 -10 68 -10q94 0 141 113l60 143l-89 1024h170l27 -709q3 -75 -6 -139h4q13 53 45 135l256 713h170l-504 -1219q-52 -124 -122.5 -169.5t-168.5 -45.5z" />
    <glyph glyph-name="Amacron" unicode="&#x100;" horiz-adv-x="858" 
d="M739 0h-161l-5 422h-307l-151 -422h-176l553 1454h206zM500 1075l-187 -518h258l-6 518q0 120 8 221h-6q-27 -113 -67 -221z" />
    <glyph glyph-name="amacron" unicode="&#x101;" 
d="M199 -25q-102 0 -153 70t-30 203l9 53q11 74 44.5 131.5t75.5 89.5q80 62 205 72l146 12l22 148q23 161 -92 161q-65 0 -93.5 -32t-39.5 -109l-12 -82h-160l12 86q20 137 93 204t206 67q293 0 238 -320l-82 -471q-27 -167 -27 -258h-147q-1 31 12 164q-56 -189 -227 -189
zM272 109q62 0 103.5 43.5t60.5 144.5l39 207l-92 -8q-163 -15 -190 -185l-11 -63q-22 -139 90 -139z" />
    <glyph glyph-name="Abreve" unicode="&#x102;" horiz-adv-x="858" 
d="M739 0h-161l-5 422h-307l-151 -422h-176l553 1454h206zM500 1075l-187 -518h258l-6 518q0 120 8 221h-6q-27 -113 -67 -221z" />
    <glyph glyph-name="abreve" unicode="&#x103;" 
d="M199 -25q-102 0 -153 70t-30 203l9 53q11 74 44.5 131.5t75.5 89.5q80 62 205 72l146 12l22 148q23 161 -92 161q-65 0 -93.5 -32t-39.5 -109l-12 -82h-160l12 86q20 137 93 204t206 67q293 0 238 -320l-82 -471q-27 -167 -27 -258h-147q-1 31 12 164q-56 -189 -227 -189
zM272 109q62 0 103.5 43.5t60.5 144.5l39 207l-92 -8q-163 -15 -190 -185l-11 -63q-22 -139 90 -139z" />
    <glyph glyph-name="Aogonek" unicode="&#x104;" horiz-adv-x="858" 
d="M739 0h-161l-5 422h-307l-151 -422h-176l553 1454h206zM500 1075l-187 -518h258l-6 518q0 120 8 221h-6q-27 -113 -67 -221z" />
    <glyph glyph-name="aogonek" unicode="&#x105;" 
d="M199 -25q-102 0 -153 70t-30 203l9 53q11 74 44.5 131.5t75.5 89.5q80 62 205 72l146 12l22 148q23 161 -92 161q-65 0 -93.5 -32t-39.5 -109l-12 -82h-160l12 86q20 137 93 204t206 67q293 0 238 -320l-82 -471q-27 -167 -27 -258h-147q-1 31 12 164q-56 -189 -227 -189
zM272 109q62 0 103.5 43.5t60.5 144.5l39 207l-92 -8q-163 -15 -190 -185l-11 -63q-22 -139 90 -139z" />
    <glyph glyph-name="Cacute" unicode="&#x106;" horiz-adv-x="866" 
d="M375 -35q-86 0 -150 24.5t-109.5 80.5t-56.5 146.5t9 221.5l114 656q11 63 26.5 114.5t46 106t71 91t104 60t143.5 23.5q69 0 123 -12.5t98.5 -41t68 -74.5t32 -113.5t-9.5 -157.5l-17 -93l-176 -39l25 142q24 135 -18 191.5t-124 56.5q-49 0 -87 -17t-60 -40.5
t-39 -62.5t-24.5 -69.5t-14.5 -73.5l-117 -673q-13 -87 -9 -145.5t27.5 -93.5t55 -49.5t72.5 -14.5q98 0 141.5 58t63.5 169l34 194l162 -43l-30 -172q-15 -81 -40 -141t-67.5 -109t-110 -74.5t-157.5 -25.5z" />
    <glyph glyph-name="cacute" unicode="&#x107;" horiz-adv-x="706" 
d="M299 -25q-144 0 -218 85.5t-42 265.5l63 362q62 361 324 361q320 0 256 -326l-12 -64l-160 -14l12 68q11 51 8.5 86.5t-8.5 57t-23 33t-33.5 15.5t-39.5 4q-65 0 -104 -54t-58 -163l-63 -368q-20 -113 11 -161t87 -48q65 0 96 40t47 126l21 104l155 -25l-20 -102
q-27 -134 -102.5 -208.5t-196.5 -74.5z" />
    <glyph glyph-name="Ccircumflex" unicode="&#x108;" horiz-adv-x="866" 
d="M375 -35q-86 0 -150 24.5t-109.5 80.5t-56.5 146.5t9 221.5l114 656q11 63 26.5 114.5t46 106t71 91t104 60t143.5 23.5q69 0 123 -12.5t98.5 -41t68 -74.5t32 -113.5t-9.5 -157.5l-17 -93l-176 -39l25 142q24 135 -18 191.5t-124 56.5q-49 0 -87 -17t-60 -40.5
t-39 -62.5t-24.5 -69.5t-14.5 -73.5l-117 -673q-13 -87 -9 -145.5t27.5 -93.5t55 -49.5t72.5 -14.5q98 0 141.5 58t63.5 169l34 194l162 -43l-30 -172q-15 -81 -40 -141t-67.5 -109t-110 -74.5t-157.5 -25.5z" />
    <glyph glyph-name="ccircumflex" unicode="&#x109;" horiz-adv-x="706" 
d="M299 -25q-144 0 -218 85.5t-42 265.5l63 362q62 361 324 361q320 0 256 -326l-12 -64l-160 -14l12 68q11 51 8.5 86.5t-8.5 57t-23 33t-33.5 15.5t-39.5 4q-65 0 -104 -54t-58 -163l-63 -368q-20 -113 11 -161t87 -48q65 0 96 40t47 126l21 104l155 -25l-20 -102
q-27 -134 -102.5 -208.5t-196.5 -74.5z" />
    <glyph glyph-name="Cdotaccent" unicode="&#x10a;" horiz-adv-x="866" 
d="M375 -35q-86 0 -150 24.5t-109.5 80.5t-56.5 146.5t9 221.5l114 656q11 63 26.5 114.5t46 106t71 91t104 60t143.5 23.5q69 0 123 -12.5t98.5 -41t68 -74.5t32 -113.5t-9.5 -157.5l-17 -93l-176 -39l25 142q24 135 -18 191.5t-124 56.5q-49 0 -87 -17t-60 -40.5
t-39 -62.5t-24.5 -69.5t-14.5 -73.5l-117 -673q-13 -87 -9 -145.5t27.5 -93.5t55 -49.5t72.5 -14.5q98 0 141.5 58t63.5 169l34 194l162 -43l-30 -172q-15 -81 -40 -141t-67.5 -109t-110 -74.5t-157.5 -25.5z" />
    <glyph glyph-name="cdotaccent" unicode="&#x10b;" horiz-adv-x="706" 
d="M299 -25q-144 0 -218 85.5t-42 265.5l63 362q62 361 324 361q320 0 256 -326l-12 -64l-160 -14l12 68q11 51 8.5 86.5t-8.5 57t-23 33t-33.5 15.5t-39.5 4q-65 0 -104 -54t-58 -163l-63 -368q-20 -113 11 -161t87 -48q65 0 96 40t47 126l21 104l155 -25l-20 -102
q-27 -134 -102.5 -208.5t-196.5 -74.5z" />
    <glyph glyph-name="Ccaron" unicode="&#x10c;" horiz-adv-x="866" 
d="M375 -35q-86 0 -150 24.5t-109.5 80.5t-56.5 146.5t9 221.5l114 656q11 63 26.5 114.5t46 106t71 91t104 60t143.5 23.5q69 0 123 -12.5t98.5 -41t68 -74.5t32 -113.5t-9.5 -157.5l-17 -93l-176 -39l25 142q24 135 -18 191.5t-124 56.5q-49 0 -87 -17t-60 -40.5
t-39 -62.5t-24.5 -69.5t-14.5 -73.5l-117 -673q-13 -87 -9 -145.5t27.5 -93.5t55 -49.5t72.5 -14.5q98 0 141.5 58t63.5 169l34 194l162 -43l-30 -172q-15 -81 -40 -141t-67.5 -109t-110 -74.5t-157.5 -25.5z" />
    <glyph glyph-name="ccaron" unicode="&#x10d;" horiz-adv-x="706" 
d="M299 -25q-144 0 -218 85.5t-42 265.5l63 362q62 361 324 361q320 0 256 -326l-12 -64l-160 -14l12 68q11 51 8.5 86.5t-8.5 57t-23 33t-33.5 15.5t-39.5 4q-65 0 -104 -54t-58 -163l-63 -368q-20 -113 11 -161t87 -48q65 0 96 40t47 126l21 104l155 -25l-20 -102
q-27 -134 -102.5 -208.5t-196.5 -74.5z" />
    <glyph glyph-name="Dcaron" unicode="&#x10e;" horiz-adv-x="923" 
d="M336 0h-303l256 1454h289q107 0 178.5 -31.5t117 -104t50.5 -190.5t-23 -290l-49 -279q-30 -167 -74.5 -277t-110 -172t-143.5 -86t-188 -24zM430 1321l-209 -1186h123q59 0 100 10t79 35.5t65 72.5t50 120t42 178l51 287q44 266 0 374.5t-182 108.5h-119z" />
    <glyph glyph-name="dcaron" unicode="&#x10f;" horiz-adv-x="792" 
d="M236 -25q-68 0 -116 41t-70.5 132.5t5.5 238.5l45 250q73 412 310 412q154 0 174 -168l106 604h160l-262 -1485h-152l25 143q-38 -76 -95.5 -122t-129.5 -46zM319 117q68 0 112 66t69 202l47 260q26 140 -5.5 201t-95.5 61q-37 0 -66 -16.5t-47 -40.5t-32.5 -61.5
t-22 -68t-14.5 -71.5l-49 -276q-14 -66 -10 -111.5t13 -74t28 -44t36 -21t37 -5.5z" />
    <glyph glyph-name="Dcroat" unicode="&#x110;" horiz-adv-x="923" 
d="M336 0h-303l256 1454h289q107 0 178.5 -31.5t117 -104t50.5 -190.5t-23 -290l-49 -279q-30 -167 -74.5 -277t-110 -172t-143.5 -86t-188 -24zM430 1321l-209 -1186h123q59 0 100 10t79 35.5t65 72.5t50 120t42 178l51 287q44 266 0 374.5t-182 108.5h-119z" />
    <glyph glyph-name="dcroat" unicode="&#x111;" horiz-adv-x="792" 
d="M236 -25q-68 0 -116 41t-70.5 132.5t5.5 238.5l45 250q73 412 310 412q154 0 174 -168l106 604h160l-262 -1485h-152l25 143q-38 -76 -95.5 -122t-129.5 -46zM319 117q68 0 112 66t69 202l47 260q26 140 -5.5 201t-95.5 61q-37 0 -66 -16.5t-47 -40.5t-32.5 -61.5
t-22 -68t-14.5 -71.5l-49 -276q-14 -66 -10 -111.5t13 -74t28 -44t36 -21t37 -5.5z" />
    <glyph glyph-name="Emacron" unicode="&#x112;" 
d="M852 1454l-25 -143h-399l-86 -490h365l-27 -143h-365l-94 -535h414l-25 -143h-577l256 1454h563z" />
    <glyph glyph-name="emacron" unicode="&#x113;" horiz-adv-x="714" 
d="M436 1049q142 0 206.5 -87.5t35.5 -246.5q-7 -37 -20.5 -111.5t-20.5 -111.5h-414l-28 -170q-35 -205 106 -205q60 0 93 35.5t46 103.5l17 82l149 -29l-16 -73q-11 -50 -30.5 -92.5t-53 -82.5t-87 -63t-122.5 -23q-61 0 -112 18.5t-92.5 60t-54.5 109t1 165.5l70 387
q61 334 327 334zM522 739q34 185 -96 185q-40 0 -69.5 -17t-47 -48t-27 -61t-16.5 -69l-22 -127h254z" />
    <glyph glyph-name="Ebreve" unicode="&#x114;" 
d="M852 1454l-25 -143h-399l-86 -490h365l-27 -143h-365l-94 -535h414l-25 -143h-577l256 1454h563z" />
    <glyph glyph-name="ebreve" unicode="&#x115;" horiz-adv-x="714" 
d="M436 1049q142 0 206.5 -87.5t35.5 -246.5q-7 -37 -20.5 -111.5t-20.5 -111.5h-414l-28 -170q-35 -205 106 -205q60 0 93 35.5t46 103.5l17 82l149 -29l-16 -73q-11 -50 -30.5 -92.5t-53 -82.5t-87 -63t-122.5 -23q-61 0 -112 18.5t-92.5 60t-54.5 109t1 165.5l70 387
q61 334 327 334zM522 739q34 185 -96 185q-40 0 -69.5 -17t-47 -48t-27 -61t-16.5 -69l-22 -127h254z" />
    <glyph glyph-name="Edotaccent" unicode="&#x116;" 
d="M852 1454l-25 -143h-399l-86 -490h365l-27 -143h-365l-94 -535h414l-25 -143h-577l256 1454h563z" />
    <glyph glyph-name="edotaccent" unicode="&#x117;" horiz-adv-x="714" 
d="M436 1049q142 0 206.5 -87.5t35.5 -246.5q-7 -37 -20.5 -111.5t-20.5 -111.5h-414l-28 -170q-35 -205 106 -205q60 0 93 35.5t46 103.5l17 82l149 -29l-16 -73q-11 -50 -30.5 -92.5t-53 -82.5t-87 -63t-122.5 -23q-61 0 -112 18.5t-92.5 60t-54.5 109t1 165.5l70 387
q61 334 327 334zM522 739q34 185 -96 185q-40 0 -69.5 -17t-47 -48t-27 -61t-16.5 -69l-22 -127h254z" />
    <glyph glyph-name="Eogonek" unicode="&#x118;" 
d="M852 1454l-25 -143h-399l-86 -490h365l-27 -143h-365l-94 -535h414l-25 -143h-577l256 1454h563z" />
    <glyph glyph-name="eogonek" unicode="&#x119;" horiz-adv-x="714" 
d="M436 1049q142 0 206.5 -87.5t35.5 -246.5q-7 -37 -20.5 -111.5t-20.5 -111.5h-414l-28 -170q-35 -205 106 -205q60 0 93 35.5t46 103.5l17 82l149 -29l-16 -73q-11 -50 -30.5 -92.5t-53 -82.5t-87 -63t-122.5 -23q-61 0 -112 18.5t-92.5 60t-54.5 109t1 165.5l70 387
q61 334 327 334zM522 739q34 185 -96 185q-40 0 -69.5 -17t-47 -48t-27 -61t-16.5 -69l-22 -127h254z" />
    <glyph glyph-name="Ecaron" unicode="&#x11a;" 
d="M852 1454l-25 -143h-399l-86 -490h365l-27 -143h-365l-94 -535h414l-25 -143h-577l256 1454h563z" />
    <glyph glyph-name="ecaron" unicode="&#x11b;" horiz-adv-x="714" 
d="M436 1049q142 0 206.5 -87.5t35.5 -246.5q-7 -37 -20.5 -111.5t-20.5 -111.5h-414l-28 -170q-35 -205 106 -205q60 0 93 35.5t46 103.5l17 82l149 -29l-16 -73q-11 -50 -30.5 -92.5t-53 -82.5t-87 -63t-122.5 -23q-61 0 -112 18.5t-92.5 60t-54.5 109t1 165.5l70 387
q61 334 327 334zM522 739q34 185 -96 185q-40 0 -69.5 -17t-47 -48t-27 -61t-16.5 -69l-22 -127h254z" />
    <glyph glyph-name="Gcircumflex" unicode="&#x11c;" horiz-adv-x="886" 
d="M313 -35q-53 0 -96.5 14.5t-80.5 47.5t-57 87t-25.5 132.5t14.5 183.5l116 670q32 184 135.5 286.5t276.5 102.5q77 0 136.5 -21t103.5 -68t56.5 -121.5t-3.5 -182.5l-15 -80l-176 -35l21 131q19 121 -21.5 178.5t-124.5 57.5q-92 0 -145.5 -62t-69.5 -160l-120 -696
q-14 -97 -13 -159t22.5 -98t50.5 -50t71 -14q104 0 162 80.5t85 228.5l37 207h-227l25 139h380l-135 -764h-118l16 178q-34 -104 -106 -158.5t-175 -54.5z" />
    <glyph glyph-name="gcircumflex" unicode="&#x11d;" horiz-adv-x="692" 
d="M745 1188q42 0 64 -12l-25 -142q-37 13 -75 13q-46 0 -70.5 -14t-40.5 -46q89 -79 57 -239l-22 -121q-13 -67 -33 -118t-53.5 -94t-86.5 -66t-124 -23q-50 0 -96 12q-66 -18 -66 -70q0 -27 19 -42.5t63 -32.5l129 -50q115 -43 154 -111t26 -163l-6 -43q-15 -110 -99 -180
t-245 -70q-56 0 -104 9t-91 30t-69 54t-37.5 81.5t2.5 112.5l4 20q30 145 189 191q-82 44 -82 129q0 110 149 162q-120 77 -86 262l23 121q13 67 32.5 117t53.5 94t87.5 67t125.5 23q77 0 141 -31q45 170 192 170zM479 608l27 158q9 51 0.5 85.5t-29 49.5t-38 20t-36.5 5
q-111 0 -137 -160l-26 -158q-9 -41 -3 -69.5t15 -46t26.5 -27t32 -13t31.5 -3.5q111 0 137 159zM297 0l-125 45q-38 -17 -58.5 -55t-31.5 -109l-4 -26q-12 -75 26.5 -111.5t118.5 -36.5q84 0 128.5 35t51.5 86l5 31q12 95 -111 141z" />
    <glyph glyph-name="Gbreve" unicode="&#x11e;" horiz-adv-x="886" 
d="M313 -35q-53 0 -96.5 14.5t-80.5 47.5t-57 87t-25.5 132.5t14.5 183.5l116 670q32 184 135.5 286.5t276.5 102.5q77 0 136.5 -21t103.5 -68t56.5 -121.5t-3.5 -182.5l-15 -80l-176 -35l21 131q19 121 -21.5 178.5t-124.5 57.5q-92 0 -145.5 -62t-69.5 -160l-120 -696
q-14 -97 -13 -159t22.5 -98t50.5 -50t71 -14q104 0 162 80.5t85 228.5l37 207h-227l25 139h380l-135 -764h-118l16 178q-34 -104 -106 -158.5t-175 -54.5z" />
    <glyph glyph-name="gbreve" unicode="&#x11f;" horiz-adv-x="692" 
d="M745 1188q42 0 64 -12l-25 -142q-37 13 -75 13q-46 0 -70.5 -14t-40.5 -46q89 -79 57 -239l-22 -121q-13 -67 -33 -118t-53.5 -94t-86.5 -66t-124 -23q-50 0 -96 12q-66 -18 -66 -70q0 -27 19 -42.5t63 -32.5l129 -50q115 -43 154 -111t26 -163l-6 -43q-15 -110 -99 -180
t-245 -70q-56 0 -104 9t-91 30t-69 54t-37.5 81.5t2.5 112.5l4 20q30 145 189 191q-82 44 -82 129q0 110 149 162q-120 77 -86 262l23 121q13 67 32.5 117t53.5 94t87.5 67t125.5 23q77 0 141 -31q45 170 192 170zM479 608l27 158q9 51 0.5 85.5t-29 49.5t-38 20t-36.5 5
q-111 0 -137 -160l-26 -158q-9 -41 -3 -69.5t15 -46t26.5 -27t32 -13t31.5 -3.5q111 0 137 159zM297 0l-125 45q-38 -17 -58.5 -55t-31.5 -109l-4 -26q-12 -75 26.5 -111.5t118.5 -36.5q84 0 128.5 35t51.5 86l5 31q12 95 -111 141z" />
    <glyph glyph-name="Gdotaccent" unicode="&#x120;" horiz-adv-x="886" 
d="M313 -35q-53 0 -96.5 14.5t-80.5 47.5t-57 87t-25.5 132.5t14.5 183.5l116 670q32 184 135.5 286.5t276.5 102.5q77 0 136.5 -21t103.5 -68t56.5 -121.5t-3.5 -182.5l-15 -80l-176 -35l21 131q19 121 -21.5 178.5t-124.5 57.5q-92 0 -145.5 -62t-69.5 -160l-120 -696
q-14 -97 -13 -159t22.5 -98t50.5 -50t71 -14q104 0 162 80.5t85 228.5l37 207h-227l25 139h380l-135 -764h-118l16 178q-34 -104 -106 -158.5t-175 -54.5z" />
    <glyph glyph-name="gdotaccent" unicode="&#x121;" horiz-adv-x="692" 
d="M745 1188q42 0 64 -12l-25 -142q-37 13 -75 13q-46 0 -70.5 -14t-40.5 -46q89 -79 57 -239l-22 -121q-13 -67 -33 -118t-53.5 -94t-86.5 -66t-124 -23q-50 0 -96 12q-66 -18 -66 -70q0 -27 19 -42.5t63 -32.5l129 -50q115 -43 154 -111t26 -163l-6 -43q-15 -110 -99 -180
t-245 -70q-56 0 -104 9t-91 30t-69 54t-37.5 81.5t2.5 112.5l4 20q30 145 189 191q-82 44 -82 129q0 110 149 162q-120 77 -86 262l23 121q13 67 32.5 117t53.5 94t87.5 67t125.5 23q77 0 141 -31q45 170 192 170zM479 608l27 158q9 51 0.5 85.5t-29 49.5t-38 20t-36.5 5
q-111 0 -137 -160l-26 -158q-9 -41 -3 -69.5t15 -46t26.5 -27t32 -13t31.5 -3.5q111 0 137 159zM297 0l-125 45q-38 -17 -58.5 -55t-31.5 -109l-4 -26q-12 -75 26.5 -111.5t118.5 -36.5q84 0 128.5 35t51.5 86l5 31q12 95 -111 141z" />
    <glyph glyph-name="uni0122" unicode="&#x122;" horiz-adv-x="886" 
d="M313 -35q-53 0 -96.5 14.5t-80.5 47.5t-57 87t-25.5 132.5t14.5 183.5l116 670q32 184 135.5 286.5t276.5 102.5q77 0 136.5 -21t103.5 -68t56.5 -121.5t-3.5 -182.5l-15 -80l-176 -35l21 131q19 121 -21.5 178.5t-124.5 57.5q-92 0 -145.5 -62t-69.5 -160l-120 -696
q-14 -97 -13 -159t22.5 -98t50.5 -50t71 -14q104 0 162 80.5t85 228.5l37 207h-227l25 139h380l-135 -764h-118l16 178q-34 -104 -106 -158.5t-175 -54.5z" />
    <glyph glyph-name="uni0123" unicode="&#x123;" horiz-adv-x="692" 
d="M745 1188q42 0 64 -12l-25 -142q-37 13 -75 13q-46 0 -70.5 -14t-40.5 -46q89 -79 57 -239l-22 -121q-13 -67 -33 -118t-53.5 -94t-86.5 -66t-124 -23q-50 0 -96 12q-66 -18 -66 -70q0 -27 19 -42.5t63 -32.5l129 -50q115 -43 154 -111t26 -163l-6 -43q-15 -110 -99 -180
t-245 -70q-56 0 -104 9t-91 30t-69 54t-37.5 81.5t2.5 112.5l4 20q30 145 189 191q-82 44 -82 129q0 110 149 162q-120 77 -86 262l23 121q13 67 32.5 117t53.5 94t87.5 67t125.5 23q77 0 141 -31q45 170 192 170zM479 608l27 158q9 51 0.5 85.5t-29 49.5t-38 20t-36.5 5
q-111 0 -137 -160l-26 -158q-9 -41 -3 -69.5t15 -46t26.5 -27t32 -13t31.5 -3.5q111 0 137 159zM297 0l-125 45q-38 -17 -58.5 -55t-31.5 -109l-4 -26q-12 -75 26.5 -111.5t118.5 -36.5q84 0 128.5 35t51.5 86l5 31q12 95 -111 141z" />
    <glyph glyph-name="Hcircumflex" unicode="&#x124;" horiz-adv-x="946" 
d="M825 1454h164l-256 -1454h-164l121 682h-373l-120 -682h-164l256 1454h164l-113 -639h373z" />
    <glyph glyph-name="hcircumflex" unicode="&#x125;" horiz-adv-x="788" 
d="M184 0h-159l262 1485h159l-112 -635q66 199 227 199q76 0 127 -44t51 -141q0 -67 -14 -139l-129 -725h-160l125 707q14 86 14 112q0 94 -92 94q-81 0 -123 -77t-71 -240z" />
    <glyph glyph-name="Hbar" unicode="&#x126;" horiz-adv-x="946" 
d="M825 1454h164l-256 -1454h-164l121 682h-373l-120 -682h-164l256 1454h164l-113 -639h373z" />
    <glyph glyph-name="hbar" unicode="&#x127;" horiz-adv-x="788" 
d="M184 0h-159l262 1485h159l-112 -635q66 199 227 199q76 0 127 -44t51 -141q0 -67 -14 -139l-129 -725h-160l125 707q14 86 14 112q0 94 -92 94q-81 0 -123 -77t-71 -240z" />
    <glyph glyph-name="Itilde" unicode="&#x128;" horiz-adv-x="409" 
d="M453 1454l-256 -1454h-164l256 1454h164z" />
    <glyph glyph-name="itilde" unicode="&#x129;" horiz-adv-x="389" 
d="M393 1196h-174l39 223h174zM184 0h-159l180 1024h160z" />
    <glyph glyph-name="Imacron" unicode="&#x12a;" horiz-adv-x="409" 
d="M453 1454l-256 -1454h-164l256 1454h164z" />
    <glyph glyph-name="imacron" unicode="&#x12b;" horiz-adv-x="389" 
d="M393 1196h-174l39 223h174zM184 0h-159l180 1024h160z" />
    <glyph glyph-name="Ibreve" unicode="&#x12c;" horiz-adv-x="409" 
d="M453 1454l-256 -1454h-164l256 1454h164z" />
    <glyph glyph-name="ibreve" unicode="&#x12d;" horiz-adv-x="389" 
d="M393 1196h-174l39 223h174zM184 0h-159l180 1024h160z" />
    <glyph glyph-name="Iogonek" unicode="&#x12e;" horiz-adv-x="409" 
d="M453 1454l-256 -1454h-164l256 1454h164z" />
    <glyph glyph-name="iogonek" unicode="&#x12f;" horiz-adv-x="389" 
d="M393 1196h-174l39 223h174zM184 0h-159l180 1024h160z" />
    <glyph glyph-name="Idotaccent" unicode="&#x130;" horiz-adv-x="409" 
d="M453 1454l-256 -1454h-164l256 1454h164z" />
    <glyph glyph-name="dotlessi" unicode="&#x131;" horiz-adv-x="389" 
d="M393 1196h-174l39 223h174zM184 0h-159l180 1024h160z" />
    <glyph glyph-name="IJ" unicode="&#x132;" horiz-adv-x="944" 
d="M453 1454l-256 -1454h-164l256 1454h164zM995 1454l-209 -1202q-25 -146 -102 -211.5t-205 -65.5q-82 0 -143 25l26 154q61 -21 113 -21q71 0 105.5 38.5t48.5 123.5l205 1159h161z" />
    <glyph glyph-name="ij" unicode="&#x133;" horiz-adv-x="774" 
d="M393 1196h-174l39 223h174zM782 1196h-174l39 223h174zM184 0h-159l180 1024h160zM317 -414q-55 0 -98 15l27 143q27 -8 51 -8q40 0 59 19.5t27 62.5l211 1206h158l-220 -1247q-15 -85 -66.5 -138t-148.5 -53z" />
    <glyph glyph-name="Jcircumflex" unicode="&#x134;" horiz-adv-x="534" 
d="M586 1454l-209 -1202q-25 -146 -102 -211.5t-205 -65.5q-83 0 -144 25l27 154q61 -21 113 -21q71 0 105 38.5t48 123.5l205 1159h162z" />
    <glyph glyph-name="jcircumflex" unicode="&#x135;" horiz-adv-x="387" 
d="M393 1196h-174l39 223h174zM-72 -414q-55 0 -98 15l27 143q27 -8 51 -8q40 0 59 19.5t27 62.5l211 1206h157l-219 -1247q-15 -85 -66.5 -138t-148.5 -53z" />
    <glyph glyph-name="uni0136" unicode="&#x136;" horiz-adv-x="876" 
d="M823 1454h178l-389 -561l144 -893h-170l-107 752l-200 -283l-82 -469h-164l256 1454h164l-134 -754z" />
    <glyph glyph-name="uni0137" unicode="&#x137;" horiz-adv-x="759" 
d="M653 1024h174l-319 -389l141 -635h-162l-98 514l-4 -2l-143 -184l-58 -328h-159l262 1485h159l-165 -934z" />
    <glyph glyph-name="kgreenlandic" unicode="&#x138;" horiz-adv-x="759" 
d="M653 1024h174l-319 -389l141 -635h-162l-98 514l-4 -2l-143 -184l-58 -328h-159l262 1485h159l-165 -934z" />
    <glyph glyph-name="Lacute" unicode="&#x139;" horiz-adv-x="694" 
d="M573 0h-540l256 1454h164l-230 -1300h377z" />
    <glyph glyph-name="lacute" unicode="&#x13a;" horiz-adv-x="389" 
d="M287 1485h159l-262 -1485h-159z" />
    <glyph glyph-name="uni013B" unicode="&#x13b;" horiz-adv-x="694" 
d="M573 0h-540l256 1454h164l-230 -1300h377z" />
    <glyph glyph-name="uni013C" unicode="&#x13c;" horiz-adv-x="389" 
d="M287 1485h159l-262 -1485h-159z" />
    <glyph glyph-name="Lcaron" unicode="&#x13d;" horiz-adv-x="694" 
d="M573 0h-540l256 1454h164l-230 -1300h377z" />
    <glyph glyph-name="lcaron" unicode="&#x13e;" horiz-adv-x="389" 
d="M287 1485h159l-262 -1485h-159z" />
    <glyph glyph-name="Ldot" unicode="&#x13f;" horiz-adv-x="694" 
d="M573 0h-540l256 1454h164l-230 -1300h377z" />
    <glyph glyph-name="ldot" unicode="&#x140;" horiz-adv-x="389" 
d="M287 1485h159l-262 -1485h-159z" />
    <glyph glyph-name="Lslash" unicode="&#x141;" horiz-adv-x="694" 
d="M573 0h-540l256 1454h164l-230 -1300h377z" />
    <glyph glyph-name="lslash" unicode="&#x142;" horiz-adv-x="389" 
d="M287 1485h159l-262 -1485h-159z" />
    <glyph glyph-name="Nacute" unicode="&#x143;" horiz-adv-x="974" 
d="M188 0h-155l256 1454h186l166 -954q23 -138 23 -254h4q16 192 47 372l147 836h156l-256 -1454h-176l-168 983q-24 139 -27 248h-6q-11 -179 -29 -281z" />
    <glyph glyph-name="nacute" unicode="&#x144;" horiz-adv-x="786" 
d="M184 0h-159l180 1024h149l-30 -168q41 92 92.5 142.5t132.5 50.5q32 0 61.5 -9t59.5 -30t48.5 -64.5t18.5 -105.5q0 -39 -10 -101l-131 -739h-160l131 748q6 34 6 57q0 108 -96 108q-35 0 -63 -16.5t-46 -41.5t-33.5 -69t-25 -85t-20.5 -105z" />
    <glyph glyph-name="uni0145" unicode="&#x145;" horiz-adv-x="974" 
d="M188 0h-155l256 1454h186l166 -954q23 -138 23 -254h4q16 192 47 372l147 836h156l-256 -1454h-176l-168 983q-24 139 -27 248h-6q-11 -179 -29 -281z" />
    <glyph glyph-name="uni0146" unicode="&#x146;" horiz-adv-x="786" 
d="M184 0h-159l180 1024h149l-30 -168q41 92 92.5 142.5t132.5 50.5q32 0 61.5 -9t59.5 -30t48.5 -64.5t18.5 -105.5q0 -39 -10 -101l-131 -739h-160l131 748q6 34 6 57q0 108 -96 108q-35 0 -63 -16.5t-46 -41.5t-33.5 -69t-25 -85t-20.5 -105z" />
    <glyph glyph-name="Ncaron" unicode="&#x147;" horiz-adv-x="974" 
d="M188 0h-155l256 1454h186l166 -954q23 -138 23 -254h4q16 192 47 372l147 836h156l-256 -1454h-176l-168 983q-24 139 -27 248h-6q-11 -179 -29 -281z" />
    <glyph glyph-name="ncaron" unicode="&#x148;" horiz-adv-x="786" 
d="M184 0h-159l180 1024h149l-30 -168q41 92 92.5 142.5t132.5 50.5q32 0 61.5 -9t59.5 -30t48.5 -64.5t18.5 -105.5q0 -39 -10 -101l-131 -739h-160l131 748q6 34 6 57q0 108 -96 108q-35 0 -63 -16.5t-46 -41.5t-33.5 -69t-25 -85t-20.5 -105z" />
    <glyph glyph-name="napostrophe" unicode="&#x149;" horiz-adv-x="786" 
d="M184 0h-159l180 1024h149l-30 -168q41 92 92.5 142.5t132.5 50.5q32 0 61.5 -9t59.5 -30t48.5 -64.5t18.5 -105.5q0 -39 -10 -101l-131 -739h-160l131 748q6 34 6 57q0 108 -96 108q-35 0 -63 -16.5t-46 -41.5t-33.5 -69t-25 -85t-20.5 -105z" />
    <glyph glyph-name="Eng" unicode="&#x14a;" horiz-adv-x="974" 
d="M188 0h-155l256 1454h186l166 -954q23 -138 23 -254h4q16 192 47 372l147 836h156l-256 -1454h-176l-168 983q-24 139 -27 248h-6q-11 -179 -29 -281z" />
    <glyph glyph-name="eng" unicode="&#x14b;" horiz-adv-x="786" 
d="M184 0h-159l180 1024h149l-30 -168q41 92 92.5 142.5t132.5 50.5q32 0 61.5 -9t59.5 -30t48.5 -64.5t18.5 -105.5q0 -39 -10 -101l-131 -739h-160l131 748q6 34 6 57q0 108 -96 108q-35 0 -63 -16.5t-46 -41.5t-33.5 -69t-25 -85t-20.5 -105z" />
    <glyph glyph-name="Omacron" unicode="&#x14c;" horiz-adv-x="907" 
d="M383 -35q-87 0 -152.5 23.5t-113.5 75.5t-61 136t5 206l117 667q18 99 47.5 172t78.5 129.5t123 85.5t173 29q87 0 152.5 -23t113.5 -75.5t61 -136.5t-5 -205l-117 -668q-36 -202 -134 -309t-288 -107zM399 106q57 0 99 21t68 61.5t41.5 84t25.5 102.5l125 704
q25 139 -25.5 204t-148.5 65q-57 0 -99 -21t-68 -61.5t-41.5 -84t-25.5 -102.5l-125 -704q-25 -139 25.5 -204t148.5 -65z" />
    <glyph glyph-name="omacron" unicode="&#x14d;" horiz-adv-x="733" 
d="M291 -25q-52 0 -94.5 11t-79.5 37t-56.5 69t-27 107t9.5 151l57 324q15 86 37 148t60 116.5t99.5 82.5t145.5 28q52 0 94.5 -11t79.5 -37t56.5 -69t27 -107t-9.5 -151l-57 -324q-15 -86 -37 -148t-60 -116.5t-99.5 -82.5t-145.5 -28zM305 115q73 0 109.5 57.5t56.5 165.5
l61 348q40 223 -104 223q-73 0 -109.5 -57.5t-56.5 -165.5l-61 -348q-40 -223 104 -223z" />
    <glyph glyph-name="Obreve" unicode="&#x14e;" horiz-adv-x="907" 
d="M383 -35q-87 0 -152.5 23.5t-113.5 75.5t-61 136t5 206l117 667q18 99 47.5 172t78.5 129.5t123 85.5t173 29q87 0 152.5 -23t113.5 -75.5t61 -136.5t-5 -205l-117 -668q-36 -202 -134 -309t-288 -107zM399 106q57 0 99 21t68 61.5t41.5 84t25.5 102.5l125 704
q25 139 -25.5 204t-148.5 65q-57 0 -99 -21t-68 -61.5t-41.5 -84t-25.5 -102.5l-125 -704q-25 -139 25.5 -204t148.5 -65z" />
    <glyph glyph-name="obreve" unicode="&#x14f;" horiz-adv-x="733" 
d="M291 -25q-52 0 -94.5 11t-79.5 37t-56.5 69t-27 107t9.5 151l57 324q15 86 37 148t60 116.5t99.5 82.5t145.5 28q52 0 94.5 -11t79.5 -37t56.5 -69t27 -107t-9.5 -151l-57 -324q-15 -86 -37 -148t-60 -116.5t-99.5 -82.5t-145.5 -28zM305 115q73 0 109.5 57.5t56.5 165.5
l61 348q40 223 -104 223q-73 0 -109.5 -57.5t-56.5 -165.5l-61 -348q-40 -223 104 -223z" />
    <glyph glyph-name="Ohungarumlaut" unicode="&#x150;" horiz-adv-x="907" 
d="M383 -35q-87 0 -152.5 23.5t-113.5 75.5t-61 136t5 206l117 667q18 99 47.5 172t78.5 129.5t123 85.5t173 29q87 0 152.5 -23t113.5 -75.5t61 -136.5t-5 -205l-117 -668q-36 -202 -134 -309t-288 -107zM399 106q57 0 99 21t68 61.5t41.5 84t25.5 102.5l125 704
q25 139 -25.5 204t-148.5 65q-57 0 -99 -21t-68 -61.5t-41.5 -84t-25.5 -102.5l-125 -704q-25 -139 25.5 -204t148.5 -65z" />
    <glyph glyph-name="ohungarumlaut" unicode="&#x151;" horiz-adv-x="733" 
d="M291 -25q-52 0 -94.5 11t-79.5 37t-56.5 69t-27 107t9.5 151l57 324q15 86 37 148t60 116.5t99.5 82.5t145.5 28q52 0 94.5 -11t79.5 -37t56.5 -69t27 -107t-9.5 -151l-57 -324q-15 -86 -37 -148t-60 -116.5t-99.5 -82.5t-145.5 -28zM305 115q73 0 109.5 57.5t56.5 165.5
l61 348q40 223 -104 223q-73 0 -109.5 -57.5t-56.5 -165.5l-61 -348q-40 -223 104 -223z" />
    <glyph glyph-name="OE" unicode="&#x152;" horiz-adv-x="1648" 
d="M600 1489q87 0 152.5 -23t113.5 -75.5t61 -136.5t-5 -205l-117 -668q-36 -202 -134 -309t-288 -107q-87 0 -152.5 23.5t-113.5 75.5t-61 136t5 206l117 667q18 99 47.5 172t78.5 129.5t123 85.5t173 29zM1759 1454l-24 -143h-400l-86 -490h365l-27 -143h-364l-95 -535
h414l-24 -143h-578l256 1454h563zM633 375l125 704q25 139 -25.5 204t-148.5 65q-57 0 -99 -21t-68 -61.5t-41.5 -84t-25.5 -102.5l-125 -704q-25 -139 25.5 -204t148.5 -65q57 0 99 21t68 61.5t41.5 84t25.5 102.5z" />
    <glyph glyph-name="oe" unicode="&#x153;" horiz-adv-x="1447" 
d="M291 -25q-52 0 -94.5 11t-79.5 37t-56.5 69t-27 107t9.5 151l57 324q15 86 37 148t60 116.5t99.5 82.5t145.5 28q52 0 94.5 -11t79.5 -37t56.5 -69t27 -107t-9.5 -151l-57 -324q-15 -86 -37 -148t-60 -116.5t-99.5 -82.5t-145.5 -28zM1169 1049q142 0 206.5 -87.5
t35.5 -246.5q-7 -37 -20.5 -111.5t-20.5 -111.5h-414l-28 -170q-35 -205 106 -205q114 0 140 139l16 82l149 -29l-16 -73q-11 -50 -30.5 -92.5t-53 -82.5t-87 -63t-122.5 -23q-61 0 -112 18.5t-92.5 60t-54.5 109t1 165.5l70 387q61 334 327 334zM1255 739q34 185 -96 185
q-40 0 -69.5 -17t-47 -48t-27 -61t-16.5 -69l-22 -127h254zM305 115q73 0 109.5 57.5t56.5 165.5l61 348q40 223 -104 223q-73 0 -109.5 -57.5t-56.5 -165.5l-61 -348q-40 -223 104 -223z" />
    <glyph glyph-name="Racute" unicode="&#x154;" horiz-adv-x="854" 
d="M289 1454h258q80 0 144.5 -20.5t111.5 -62.5t66.5 -112.5t4.5 -164.5l-18 -115q-41 -259 -244 -328l111 -651h-176l-101 623h-139l-110 -623h-164zM688 975l17 106q37 242 -164 242h-111l-100 -573h135q55 0 96.5 19t66.5 53t39 71.5t21 81.5z" />
    <glyph glyph-name="racute" unicode="&#x155;" horiz-adv-x="530" 
d="M354 1024l-41 -233q32 120 93 189t149 69q18 0 43 -5l-33 -182q-21 6 -45 6q-110 0 -170 -102q-49 -91 -78 -264l-88 -502h-159l180 1024h149z" />
    <glyph glyph-name="uni0156" unicode="&#x156;" horiz-adv-x="854" 
d="M289 1454h258q80 0 144.5 -20.5t111.5 -62.5t66.5 -112.5t4.5 -164.5l-18 -115q-41 -259 -244 -328l111 -651h-176l-101 623h-139l-110 -623h-164zM688 975l17 106q37 242 -164 242h-111l-100 -573h135q55 0 96.5 19t66.5 53t39 71.5t21 81.5z" />
    <glyph glyph-name="uni0157" unicode="&#x157;" horiz-adv-x="530" 
d="M354 1024l-41 -233q32 120 93 189t149 69q18 0 43 -5l-33 -182q-21 6 -45 6q-110 0 -170 -102q-49 -91 -78 -264l-88 -502h-159l180 1024h149z" />
    <glyph glyph-name="Rcaron" unicode="&#x158;" horiz-adv-x="854" 
d="M289 1454h258q80 0 144.5 -20.5t111.5 -62.5t66.5 -112.5t4.5 -164.5l-18 -115q-41 -259 -244 -328l111 -651h-176l-101 623h-139l-110 -623h-164zM688 975l17 106q37 242 -164 242h-111l-100 -573h135q55 0 96.5 19t66.5 53t39 71.5t21 81.5z" />
    <glyph glyph-name="rcaron" unicode="&#x159;" horiz-adv-x="530" 
d="M354 1024l-41 -233q32 120 93 189t149 69q18 0 43 -5l-33 -182q-21 6 -45 6q-110 0 -170 -102q-49 -91 -78 -264l-88 -502h-159l180 1024h149z" />
    <glyph glyph-name="Sacute" unicode="&#x15a;" horiz-adv-x="774" 
d="M336 -35q-168 0 -255.5 100t-55.5 310l14 94l172 31l-23 -133q-23 -135 22 -198t126 -63q142 0 172 181l12 71q9 52 10.5 90.5t-3.5 66t-20 51t-32.5 40.5t-46.5 39l-133 98q-95 69 -122 166.5t1 225.5l12 65q11 59 31 105.5t56.5 90.5t98 68.5t144.5 24.5q51 0 93 -7
t83 -23.5t68 -44.5t47 -70.5t21.5 -100.5t-9.5 -135l-12 -72l-172 -35l16 93q45 254 -135 254q-43 0 -73 -13t-47 -38.5t-26 -50t-16 -60.5l-16 -84q-17 -84 5 -138.5t85 -101.5l139 -104q99 -75 126 -162t1 -246l-14 -86q-22 -133 -108.5 -216t-235.5 -83z" />
    <glyph glyph-name="sacute" unicode="&#x15b;" horiz-adv-x="690" 
d="M285 -25q-139 0 -216 72.5t-51 216.5l11 55l166 31l-11 -63q-18 -104 12 -144.5t99 -40.5q18 0 32.5 3.5t32.5 14t31.5 35.5t20.5 64l10 53q12 64 -5 101.5t-85 66.5l-90 37q-76 32 -107 109t-12 174l12 63q20 104 89 165t196 61q59 0 105.5 -12.5t86 -42.5t55 -88
t1.5 -140l-9 -47l-163 -27l10 76q11 85 -13.5 120.5t-80.5 35.5q-97 0 -119 -109l-12 -61q-23 -117 71 -160l99 -43q57 -25 90 -55.5t44.5 -69.5t10.5 -75.5t-12 -88.5l-11 -53q-44 -234 -288 -234z" />
    <glyph glyph-name="Scircumflex" unicode="&#x15c;" horiz-adv-x="774" 
d="M336 -35q-168 0 -255.5 100t-55.5 310l14 94l172 31l-23 -133q-23 -135 22 -198t126 -63q142 0 172 181l12 71q9 52 10.5 90.5t-3.5 66t-20 51t-32.5 40.5t-46.5 39l-133 98q-95 69 -122 166.5t1 225.5l12 65q11 59 31 105.5t56.5 90.5t98 68.5t144.5 24.5q51 0 93 -7
t83 -23.5t68 -44.5t47 -70.5t21.5 -100.5t-9.5 -135l-12 -72l-172 -35l16 93q45 254 -135 254q-43 0 -73 -13t-47 -38.5t-26 -50t-16 -60.5l-16 -84q-17 -84 5 -138.5t85 -101.5l139 -104q99 -75 126 -162t1 -246l-14 -86q-22 -133 -108.5 -216t-235.5 -83z" />
    <glyph glyph-name="scircumflex" unicode="&#x15d;" horiz-adv-x="690" 
d="M285 -25q-139 0 -216 72.5t-51 216.5l11 55l166 31l-11 -63q-18 -104 12 -144.5t99 -40.5q18 0 32.5 3.5t32.5 14t31.5 35.5t20.5 64l10 53q12 64 -5 101.5t-85 66.5l-90 37q-76 32 -107 109t-12 174l12 63q20 104 89 165t196 61q59 0 105.5 -12.5t86 -42.5t55 -88
t1.5 -140l-9 -47l-163 -27l10 76q11 85 -13.5 120.5t-80.5 35.5q-97 0 -119 -109l-12 -61q-23 -117 71 -160l99 -43q57 -25 90 -55.5t44.5 -69.5t10.5 -75.5t-12 -88.5l-11 -53q-44 -234 -288 -234z" />
    <glyph glyph-name="Scedilla" unicode="&#x15e;" horiz-adv-x="774" 
d="M336 -35q-168 0 -255.5 100t-55.5 310l14 94l172 31l-23 -133q-23 -135 22 -198t126 -63q142 0 172 181l12 71q9 52 10.5 90.5t-3.5 66t-20 51t-32.5 40.5t-46.5 39l-133 98q-95 69 -122 166.5t1 225.5l12 65q11 59 31 105.5t56.5 90.5t98 68.5t144.5 24.5q51 0 93 -7
t83 -23.5t68 -44.5t47 -70.5t21.5 -100.5t-9.5 -135l-12 -72l-172 -35l16 93q45 254 -135 254q-43 0 -73 -13t-47 -38.5t-26 -50t-16 -60.5l-16 -84q-17 -84 5 -138.5t85 -101.5l139 -104q99 -75 126 -162t1 -246l-14 -86q-22 -133 -108.5 -216t-235.5 -83z" />
    <glyph glyph-name="scedilla" unicode="&#x15f;" horiz-adv-x="690" 
d="M285 -25q-139 0 -216 72.5t-51 216.5l11 55l166 31l-11 -63q-18 -104 12 -144.5t99 -40.5q18 0 32.5 3.5t32.5 14t31.5 35.5t20.5 64l10 53q12 64 -5 101.5t-85 66.5l-90 37q-76 32 -107 109t-12 174l12 63q20 104 89 165t196 61q59 0 105.5 -12.5t86 -42.5t55 -88
t1.5 -140l-9 -47l-163 -27l10 76q11 85 -13.5 120.5t-80.5 35.5q-97 0 -119 -109l-12 -61q-23 -117 71 -160l99 -43q57 -25 90 -55.5t44.5 -69.5t10.5 -75.5t-12 -88.5l-11 -53q-44 -234 -288 -234z" />
    <glyph glyph-name="Scaron" unicode="&#x160;" horiz-adv-x="774" 
d="M336 -35q-168 0 -255.5 100t-55.5 310l14 94l172 31l-23 -133q-23 -135 22 -198t126 -63q142 0 172 181l12 71q9 52 10.5 90.5t-3.5 66t-20 51t-32.5 40.5t-46.5 39l-133 98q-95 69 -122 166.5t1 225.5l12 65q11 59 31 105.5t56.5 90.5t98 68.5t144.5 24.5q51 0 93 -7
t83 -23.5t68 -44.5t47 -70.5t21.5 -100.5t-9.5 -135l-12 -72l-172 -35l16 93q45 254 -135 254q-43 0 -73 -13t-47 -38.5t-26 -50t-16 -60.5l-16 -84q-17 -84 5 -138.5t85 -101.5l139 -104q99 -75 126 -162t1 -246l-14 -86q-22 -133 -108.5 -216t-235.5 -83z" />
    <glyph glyph-name="scaron" unicode="&#x161;" horiz-adv-x="690" 
d="M285 -25q-139 0 -216 72.5t-51 216.5l11 55l166 31l-11 -63q-18 -104 12 -144.5t99 -40.5q18 0 32.5 3.5t32.5 14t31.5 35.5t20.5 64l10 53q12 64 -5 101.5t-85 66.5l-90 37q-76 32 -107 109t-12 174l12 63q20 104 89 165t196 61q59 0 105.5 -12.5t86 -42.5t55 -88
t1.5 -140l-9 -47l-163 -27l10 76q11 85 -13.5 120.5t-80.5 35.5q-97 0 -119 -109l-12 -61q-23 -117 71 -160l99 -43q57 -25 90 -55.5t44.5 -69.5t10.5 -75.5t-12 -88.5l-11 -53q-44 -234 -288 -234z" />
    <glyph glyph-name="uni0162" unicode="&#x162;" horiz-adv-x="761" 
d="M178 1454h737l-26 -149h-287l-229 -1305h-162l229 1305h-288z" />
    <glyph glyph-name="uni0163" unicode="&#x163;" horiz-adv-x="512" 
d="M209 901h-121l23 123h120l43 246l168 55l-51 -301h170l-22 -123h-170l-107 -606q-14 -83 7 -121.5t89 -38.5q38 0 54 2l-25 -147q-33 -8 -78 -8q-263 0 -209 305z" />
    <glyph glyph-name="Tcaron" unicode="&#x164;" horiz-adv-x="761" 
d="M178 1454h737l-26 -149h-287l-229 -1305h-162l229 1305h-288z" />
    <glyph glyph-name="tcaron" unicode="&#x165;" horiz-adv-x="512" 
d="M209 901h-121l23 123h120l43 246l168 55l-51 -301h170l-22 -123h-170l-107 -606q-14 -83 7 -121.5t89 -38.5q38 0 54 2l-25 -147q-33 -8 -78 -8q-263 0 -209 305z" />
    <glyph glyph-name="Tbar" unicode="&#x166;" horiz-adv-x="761" 
d="M178 1454h737l-26 -149h-287l-229 -1305h-162l229 1305h-288z" />
    <glyph glyph-name="tbar" unicode="&#x167;" horiz-adv-x="512" 
d="M209 901h-121l23 123h120l43 246l168 55l-51 -301h170l-22 -123h-170l-107 -606q-14 -83 7 -121.5t89 -38.5q38 0 54 2l-25 -147q-33 -8 -78 -8q-263 0 -209 305z" />
    <glyph glyph-name="Utilde" unicode="&#x168;" horiz-adv-x="921" 
d="M84 344l195 1110h163l-198 -1122q-20 -111 23.5 -167t138.5 -56q44 0 78.5 13t56 33t37 51t23 58t13.5 64l199 1126h162l-201 -1139q-63 -350 -385 -350q-174 0 -255.5 99t-49.5 280z" />
    <glyph glyph-name="utilde" unicode="&#x169;" horiz-adv-x="784" 
d="M238 -25q-187 0 -187 209q0 39 10 101l129 739h162l-131 -745q-6 -35 -6 -58q0 -104 92 -104q73 0 117.5 80.5t71.5 228.5l106 598h158l-180 -1024h-150l31 168q-42 -94 -91 -143.5t-132 -49.5z" />
    <glyph glyph-name="Umacron" unicode="&#x16a;" horiz-adv-x="921" 
d="M84 344l195 1110h163l-198 -1122q-20 -111 23.5 -167t138.5 -56q44 0 78.5 13t56 33t37 51t23 58t13.5 64l199 1126h162l-201 -1139q-63 -350 -385 -350q-174 0 -255.5 99t-49.5 280z" />
    <glyph glyph-name="umacron" unicode="&#x16b;" horiz-adv-x="784" 
d="M238 -25q-187 0 -187 209q0 39 10 101l129 739h162l-131 -745q-6 -35 -6 -58q0 -104 92 -104q73 0 117.5 80.5t71.5 228.5l106 598h158l-180 -1024h-150l31 168q-42 -94 -91 -143.5t-132 -49.5z" />
    <glyph glyph-name="Ubreve" unicode="&#x16c;" horiz-adv-x="921" 
d="M84 344l195 1110h163l-198 -1122q-20 -111 23.5 -167t138.5 -56q44 0 78.5 13t56 33t37 51t23 58t13.5 64l199 1126h162l-201 -1139q-63 -350 -385 -350q-174 0 -255.5 99t-49.5 280z" />
    <glyph glyph-name="ubreve" unicode="&#x16d;" horiz-adv-x="784" 
d="M238 -25q-187 0 -187 209q0 39 10 101l129 739h162l-131 -745q-6 -35 -6 -58q0 -104 92 -104q73 0 117.5 80.5t71.5 228.5l106 598h158l-180 -1024h-150l31 168q-42 -94 -91 -143.5t-132 -49.5z" />
    <glyph glyph-name="Uring" unicode="&#x16e;" horiz-adv-x="921" 
d="M84 344l195 1110h163l-198 -1122q-20 -111 23.5 -167t138.5 -56q44 0 78.5 13t56 33t37 51t23 58t13.5 64l199 1126h162l-201 -1139q-63 -350 -385 -350q-174 0 -255.5 99t-49.5 280z" />
    <glyph glyph-name="uring" unicode="&#x16f;" horiz-adv-x="784" 
d="M238 -25q-187 0 -187 209q0 39 10 101l129 739h162l-131 -745q-6 -35 -6 -58q0 -104 92 -104q73 0 117.5 80.5t71.5 228.5l106 598h158l-180 -1024h-150l31 168q-42 -94 -91 -143.5t-132 -49.5z" />
    <glyph glyph-name="Uhungarumlaut" unicode="&#x170;" horiz-adv-x="921" 
d="M84 344l195 1110h163l-198 -1122q-20 -111 23.5 -167t138.5 -56q44 0 78.5 13t56 33t37 51t23 58t13.5 64l199 1126h162l-201 -1139q-63 -350 -385 -350q-174 0 -255.5 99t-49.5 280z" />
    <glyph glyph-name="uhungarumlaut" unicode="&#x171;" horiz-adv-x="784" 
d="M238 -25q-187 0 -187 209q0 39 10 101l129 739h162l-131 -745q-6 -35 -6 -58q0 -104 92 -104q73 0 117.5 80.5t71.5 228.5l106 598h158l-180 -1024h-150l31 168q-42 -94 -91 -143.5t-132 -49.5z" />
    <glyph glyph-name="Uogonek" unicode="&#x172;" horiz-adv-x="921" 
d="M84 344l195 1110h163l-198 -1122q-20 -111 23.5 -167t138.5 -56q44 0 78.5 13t56 33t37 51t23 58t13.5 64l199 1126h162l-201 -1139q-63 -350 -385 -350q-174 0 -255.5 99t-49.5 280z" />
    <glyph glyph-name="uogonek" unicode="&#x173;" horiz-adv-x="784" 
d="M238 -25q-187 0 -187 209q0 39 10 101l129 739h162l-131 -745q-6 -35 -6 -58q0 -104 92 -104q73 0 117.5 80.5t71.5 228.5l106 598h158l-180 -1024h-150l31 168q-42 -94 -91 -143.5t-132 -49.5z" />
    <glyph glyph-name="Wcircumflex" unicode="&#x174;" horiz-adv-x="1226" 
d="M369 0h-236l84 1454h160l-74 -1055q-9 -131 -27 -256h9q9 31 32.5 119.5t38.5 136.5l318 1055h209l-56 -1055q-2 -51 -11 -152t-9 -104h8q35 150 66 256l297 1055h163l-430 -1454h-233l57 1030q4 91 25 283h-10q-28 -131 -76 -283z" />
    <glyph glyph-name="wcircumflex" unicode="&#x175;" horiz-adv-x="1056" 
d="M309 0h-174l-8 1024h160l-33 -778l-6 -84h4q2 9 24 84l256 778h173l-19 -778q0 -22 -4 -84h4q4 31 21 84l243 778h160l-367 -1024h-170l15 772q0 18 10 105h-4q-2 -9 -12 -47t-17 -58z" />
    <glyph glyph-name="Ycircumflex" unicode="&#x176;" horiz-adv-x="794" 
d="M389 0h-164l111 627l-160 827h174l80 -534q8 -63 8 -134h4q20 62 58 134l270 534h180l-450 -827z" />
    <glyph glyph-name="ycircumflex" unicode="&#x177;" horiz-adv-x="694" 
d="M-25 -410q-41 0 -75 11l24 153q30 -10 68 -10q94 0 141 113l60 143l-89 1024h170l27 -709q3 -75 -6 -139h4q13 53 45 135l256 713h170l-504 -1219q-52 -124 -122.5 -169.5t-168.5 -45.5z" />
    <glyph glyph-name="Ydieresis" unicode="&#x178;" horiz-adv-x="794" 
d="M389 0h-164l111 627l-160 827h174l80 -534q8 -63 8 -134h4q20 62 58 134l270 534h180l-450 -827z" />
    <glyph glyph-name="Zacute" unicode="&#x179;" horiz-adv-x="747" 
d="M-49 0l24 141l697 1166h-469l26 147h641l-24 -141l-696 -1166h503l-26 -147h-676z" />
    <glyph glyph-name="zacute" unicode="&#x17a;" horiz-adv-x="608" 
d="M-47 0l22 125l488 764h-338l22 135h498l-22 -125l-482 -762h369l-25 -137h-532z" />
    <glyph glyph-name="Zdotaccent" unicode="&#x17b;" horiz-adv-x="747" 
d="M-49 0l24 141l697 1166h-469l26 147h641l-24 -141l-696 -1166h503l-26 -147h-676z" />
    <glyph glyph-name="zdotaccent" unicode="&#x17c;" horiz-adv-x="608" 
d="M-47 0l22 125l488 764h-338l22 135h498l-22 -125l-482 -762h369l-25 -137h-532z" />
    <glyph glyph-name="Zcaron" unicode="&#x17d;" horiz-adv-x="747" 
d="M-49 0l24 141l697 1166h-469l26 147h641l-24 -141l-696 -1166h503l-26 -147h-676z" />
    <glyph glyph-name="zcaron" unicode="&#x17e;" horiz-adv-x="608" 
d="M-47 0l22 125l488 764h-338l22 135h498l-22 -125l-482 -762h369l-25 -137h-532z" />
    <glyph glyph-name="AEacute" unicode="&#x1fc;" horiz-adv-x="1597" 
d="M-61 0l553 1454h206l41 -1454h-161l-5 422h-307l-151 -422h-176zM1710 1454l-24 -143h-400l-86 -490h365l-27 -143h-364l-95 -535h414l-25 -143h-577l256 1454h563zM500 1075l-187 -518h258l-6 518q0 120 8 221h-6q-27 -113 -67 -221z" />
    <glyph glyph-name="aeacute" unicode="&#x1fd;" horiz-adv-x="1454" 
d="M199 -25q-102 0 -153 70t-30 203l9 53q11 74 44.5 131.5t75.5 89.5q80 62 205 72l146 12l22 148q23 161 -92 161q-65 0 -93.5 -32t-39.5 -109l-12 -82h-160l12 86q20 137 93 204t206 67q293 0 238 -320l-82 -471q-27 -167 -27 -258h-147q-1 31 12 164q-56 -189 -227 -189
zM1178 1049q142 0 206 -87.5t35 -246.5q-7 -37 -20.5 -111.5t-20.5 -111.5h-413l-29 -170q-35 -205 106 -205q114 0 140 139l16 82l150 -29l-17 -73q-11 -50 -30.5 -92.5t-53 -82.5t-87 -63t-122.5 -23q-61 0 -112 18.5t-92.5 60t-54.5 109t1 165.5l70 387q61 334 328 334z
M1264 739q34 185 -97 185q-40 0 -69 -17t-46.5 -48t-27 -60.5t-16.5 -69.5l-23 -127h254zM272 109q62 0 103.5 43.5t60.5 144.5l39 207l-92 -8q-163 -15 -190 -185l-11 -63q-22 -139 90 -139z" />
    <glyph glyph-name="Oslashacute" unicode="&#x1fe;" horiz-adv-x="907" 
d="M383 -35q-87 0 -152.5 23.5t-113.5 75.5t-61 136t5 206l117 667q18 99 47.5 172t78.5 129.5t123 85.5t173 29q87 0 152.5 -23t113.5 -75.5t61 -136.5t-5 -205l-117 -668q-36 -202 -134 -309t-288 -107zM399 106q57 0 99 21t68 61.5t41.5 84t25.5 102.5l125 704
q25 139 -25.5 204t-148.5 65q-57 0 -99 -21t-68 -61.5t-41.5 -84t-25.5 -102.5l-125 -704q-25 -139 25.5 -204t148.5 -65z" />
    <glyph glyph-name="oslashacute" unicode="&#x1ff;" horiz-adv-x="733" 
d="M291 -25q-52 0 -94.5 11t-79.5 37t-56.5 69t-27 107t9.5 151l57 324q15 86 37 148t60 116.5t99.5 82.5t145.5 28q52 0 94.5 -11t79.5 -37t56.5 -69t27 -107t-9.5 -151l-57 -324q-15 -86 -37 -148t-60 -116.5t-99.5 -82.5t-145.5 -28zM305 115q73 0 109.5 57.5t56.5 165.5
l61 348q40 223 -104 223q-73 0 -109.5 -57.5t-56.5 -165.5l-61 -348q-40 -223 104 -223z" />
    <glyph glyph-name="uni0218" unicode="&#x218;" horiz-adv-x="774" 
d="M336 -35q-168 0 -255.5 100t-55.5 310l14 94l172 31l-23 -133q-23 -135 22 -198t126 -63q142 0 172 181l12 71q9 52 10.5 90.5t-3.5 66t-20 51t-32.5 40.5t-46.5 39l-133 98q-95 69 -122 166.5t1 225.5l12 65q11 59 31 105.5t56.5 90.5t98 68.5t144.5 24.5q51 0 93 -7
t83 -23.5t68 -44.5t47 -70.5t21.5 -100.5t-9.5 -135l-12 -72l-172 -35l16 93q45 254 -135 254q-43 0 -73 -13t-47 -38.5t-26 -50t-16 -60.5l-16 -84q-17 -84 5 -138.5t85 -101.5l139 -104q99 -75 126 -162t1 -246l-14 -86q-22 -133 -108.5 -216t-235.5 -83z" />
    <glyph glyph-name="uni0219" unicode="&#x219;" horiz-adv-x="690" 
d="M285 -25q-139 0 -216 72.5t-51 216.5l11 55l166 31l-11 -63q-18 -104 12 -144.5t99 -40.5q18 0 32.5 3.5t32.5 14t31.5 35.5t20.5 64l10 53q12 64 -5 101.5t-85 66.5l-90 37q-76 32 -107 109t-12 174l12 63q20 104 89 165t196 61q59 0 105.5 -12.5t86 -42.5t55 -88
t1.5 -140l-9 -47l-163 -27l10 76q11 85 -13.5 120.5t-80.5 35.5q-97 0 -119 -109l-12 -61q-23 -117 71 -160l99 -43q57 -25 90 -55.5t44.5 -69.5t10.5 -75.5t-12 -88.5l-11 -53q-44 -234 -288 -234z" />
    <glyph glyph-name="uni021A" unicode="&#x21a;" horiz-adv-x="761" 
d="M178 1454h737l-26 -149h-287l-229 -1305h-162l229 1305h-288z" />
    <glyph glyph-name="uni021B" unicode="&#x21b;" horiz-adv-x="512" 
d="M209 901h-121l23 123h120l43 246l168 55l-51 -301h170l-22 -123h-170l-107 -606q-14 -83 7 -121.5t89 -38.5q38 0 54 2l-25 -147q-33 -8 -78 -8q-263 0 -209 305z" />
    <glyph glyph-name="uni0237" unicode="&#x237;" horiz-adv-x="387" 
d="M393 1196h-174l39 223h174zM-72 -414q-55 0 -98 15l27 143q27 -8 51 -8q40 0 59 19.5t27 62.5l211 1206h157l-219 -1247q-15 -85 -66.5 -138t-148.5 -53z" />
    <glyph glyph-name="Alphatonos" unicode="&#x386;" horiz-adv-x="858" 
d="M739 0h-161l-5 422h-307l-151 -422h-176l553 1454h206zM500 1075l-187 -518h258l-6 518q0 120 8 221h-6q-27 -113 -67 -221z" />
    <glyph glyph-name="Epsilontonos" unicode="&#x388;" 
d="M852 1454l-25 -143h-399l-86 -490h365l-27 -143h-365l-94 -535h414l-25 -143h-577l256 1454h563z" />
    <glyph glyph-name="Etatonos" unicode="&#x389;" horiz-adv-x="946" 
d="M825 1454h164l-256 -1454h-164l121 682h-373l-120 -682h-164l256 1454h164l-113 -639h373z" />
    <glyph glyph-name="Iotatonos" unicode="&#x38a;" horiz-adv-x="409" 
d="M453 1454l-256 -1454h-164l256 1454h164z" />
    <glyph glyph-name="Omicrontonos" unicode="&#x38c;" horiz-adv-x="907" 
d="M383 -35q-87 0 -152.5 23.5t-113.5 75.5t-61 136t5 206l117 667q18 99 47.5 172t78.5 129.5t123 85.5t173 29q87 0 152.5 -23t113.5 -75.5t61 -136.5t-5 -205l-117 -668q-36 -202 -134 -309t-288 -107zM399 106q57 0 99 21t68 61.5t41.5 84t25.5 102.5l125 704
q25 139 -25.5 204t-148.5 65q-57 0 -99 -21t-68 -61.5t-41.5 -84t-25.5 -102.5l-125 -704q-25 -139 25.5 -204t148.5 -65z" />
    <glyph glyph-name="Upsilontonos" unicode="&#x38e;" horiz-adv-x="794" 
d="M389 0h-164l111 627l-160 827h174l80 -534q8 -63 8 -134h4q20 62 58 134l270 534h180l-450 -827z" />
    <glyph glyph-name="Omegatonos" unicode="&#x38f;" horiz-adv-x="907" 
d="M584 1348q-57 0 -99 -21t-68 -61.5t-41.5 -84t-25.5 -102.5l-108 -612q-27 -154 -5.5 -230.5t93.5 -93.5l-25 -143h-315l24 143h160l2 7q-70 26 -98 108.5t-8 198.5l108 616q18 99 47.5 172t78.5 129.5t123 85.5t173 29q87 0 152.5 -23t113.5 -75.5t61 -136.5t-5 -205
l-107 -592q-21 -114 -78 -197.5t-135 -109.5l-2 -7h160l-25 -143h-315l24 143q78 19 127 95t76 229l111 612q25 139 -25.5 204t-148.5 65z" />
    <glyph glyph-name="iotadieresistonos" unicode="&#x390;" horiz-adv-x="417" 
d="M190 1024h160l-139 -795q-9 -52 2 -71t47 -19q23 0 41 6l-29 -155q-39 -8 -69 -8q-197 0 -152 247z" />
    <glyph glyph-name="Alpha" unicode="&#x391;" horiz-adv-x="858" 
d="M739 0h-161l-5 422h-307l-151 -422h-176l553 1454h206zM500 1075l-187 -518h258l-6 518q0 120 8 221h-6q-27 -113 -67 -221z" />
    <glyph glyph-name="Beta" unicode="&#x392;" horiz-adv-x="854" 
d="M289 1454h262q170 0 257 -86t60 -258l-8 -53q-20 -125 -75 -202.5t-158 -102.5q83 -23 125 -99t18 -217l-12 -71q-16 -94 -42.5 -159t-72.5 -113t-116.5 -70.5t-170.5 -22.5h-323zM690 1059l8 49q11 53 4 90.5t-20 62t-38.5 38t-52.5 19t-61 5.5h-100l-88 -506h125
q56 0 96.5 18.5t65 54.5t38 75t23.5 94zM590 367l12 69q24 139 -11 195.5t-138 56.5h-136l-96 -553h152q104 0 150 58t67 174z" />
    <glyph glyph-name="Gamma" unicode="&#x393;" horiz-adv-x="675" 
d="M829 1454l-26 -149h-377l-229 -1305h-164l256 1454h540z" />
    <glyph glyph-name="uni0394" unicode="&#x394;" horiz-adv-x="792" 
d="M674 0h-735l524 1454h203zM512 127l20 1141l-389 -1141h369z" />
    <glyph glyph-name="Epsilon" unicode="&#x395;" 
d="M852 1454l-25 -143h-399l-86 -490h365l-27 -143h-365l-94 -535h414l-25 -143h-577l256 1454h563z" />
    <glyph glyph-name="Zeta" unicode="&#x396;" horiz-adv-x="747" 
d="M-49 0l24 141l697 1166h-469l26 147h641l-24 -141l-696 -1166h503l-26 -147h-676z" />
    <glyph glyph-name="Eta" unicode="&#x397;" horiz-adv-x="946" 
d="M825 1454h164l-256 -1454h-164l121 682h-373l-120 -682h-164l256 1454h164l-113 -639h373z" />
    <glyph glyph-name="Theta" unicode="&#x398;" horiz-adv-x="907" 
d="M383 -35q-87 0 -152.5 23.5t-113.5 75.5t-61 136t5 206l117 667q18 99 47.5 172t78.5 129.5t123 85.5t173 29q87 0 152.5 -23t113.5 -75.5t61 -136.5t-5 -205l-117 -668q-36 -202 -134 -309t-288 -107zM399 106q57 0 99 21t68 61.5t41.5 84t25.5 102.5l125 704
q25 139 -25.5 204t-148.5 65q-57 0 -99 -21t-68 -61.5t-41.5 -84t-25.5 -102.5l-125 -704q-25 -139 25.5 -204t148.5 -65z" />
    <glyph glyph-name="Iota" unicode="&#x399;" horiz-adv-x="409" 
d="M453 1454l-256 -1454h-164l256 1454h164z" />
    <glyph glyph-name="Kappa" unicode="&#x39a;" horiz-adv-x="876" 
d="M823 1454h178l-389 -561l144 -893h-170l-107 752l-200 -283l-82 -469h-164l256 1454h164l-134 -754z" />
    <glyph glyph-name="Lambda" unicode="&#x39b;" horiz-adv-x="858" 
d="M-61 0l553 1454h206l41 -1454h-166l-8 1067q0 98 8 229h-6q-23 -100 -71 -233l-381 -1063h-176z" />
    <glyph glyph-name="Mu" unicode="&#x39c;" horiz-adv-x="1202" 
d="M184 0h-151l256 1454h258v-1057q0 -157 -6 -211h8q13 68 65 211l373 1057h258l-256 -1454h-151l159 913q40 232 76 396h-10q-50 -168 -84 -262l-377 -1047h-182l-6 1047q-1 39 0 79.5t2 71t2.5 55t2.5 39.5t1 17h-8q-8 -55 -38 -220.5t-32 -175.5z" />
    <glyph glyph-name="Nu" unicode="&#x39d;" horiz-adv-x="974" 
d="M188 0h-155l256 1454h186l166 -954q23 -138 23 -254h4q16 192 47 372l147 836h156l-256 -1454h-176l-168 983q-24 139 -27 248h-6q-11 -179 -29 -281z" />
    <glyph glyph-name="Xi" unicode="&#x39e;" horiz-adv-x="700" 
d="M190 1311l25 143h604l-24 -143h-605zM143 678l27 143h471l-27 -143h-471zM-49 0l24 143h619l-25 -143h-618z" />
    <glyph glyph-name="Omicron" unicode="&#x39f;" horiz-adv-x="907" 
d="M383 -35q-87 0 -152.5 23.5t-113.5 75.5t-61 136t5 206l117 667q18 99 47.5 172t78.5 129.5t123 85.5t173 29q87 0 152.5 -23t113.5 -75.5t61 -136.5t-5 -205l-117 -668q-36 -202 -134 -309t-288 -107zM399 106q57 0 99 21t68 61.5t41.5 84t25.5 102.5l125 704
q25 139 -25.5 204t-148.5 65q-57 0 -99 -21t-68 -61.5t-41.5 -84t-25.5 -102.5l-125 -704q-25 -139 25.5 -204t148.5 -65z" />
    <glyph glyph-name="Pi" unicode="&#x3a0;" horiz-adv-x="942" 
d="M33 0l256 1454h696l-256 -1454h-164l232 1311h-369l-231 -1311h-164z" />
    <glyph glyph-name="Rho" unicode="&#x3a1;" horiz-adv-x="804" 
d="M289 1454h280q43 0 81 -5.5t78.5 -20t69 -39.5t52 -63.5t28 -92t-3.5 -125.5l-22 -152q-12 -78 -35.5 -136.5t-66.5 -108t-114 -75.5t-167 -26h-164l-108 -610h-164zM684 977l21 115q13 59 6.5 100t-19 66.5t-39 40t-53.5 19.5t-63 5h-107l-102 -582h151q53 0 90 17.5
t59.5 53.5t34 72.5t21.5 92.5z" />
    <glyph glyph-name="Sigma" unicode="&#x3a3;" horiz-adv-x="745" 
d="M844 1307h-465l213 -541l-432 -623h479l-25 -143h-663l22 123l457 651l-219 557l20 123h639z" />
    <glyph glyph-name="Tau" unicode="&#x3a4;" horiz-adv-x="761" 
d="M178 1454h737l-26 -149h-287l-229 -1305h-162l229 1305h-288z" />
    <glyph glyph-name="Upsilon" unicode="&#x3a5;" horiz-adv-x="794" 
d="M389 0h-164l111 627l-160 827h174l80 -534q8 -63 8 -134h4q20 62 58 134l270 534h180l-450 -827z" />
    <glyph glyph-name="Phi" unicode="&#x3a6;" horiz-adv-x="1071" 
d="M803 1567l-21 -119q170 -24 250 -135.5t47 -296.5l-106 -598q-37 -203 -149.5 -302.5t-297.5 -113.5l-18 -104h-164l18 108q-164 23 -247.5 127.5t-51.5 284.5l107 598q38 210 147.5 315.5t300.5 120.5l21 115h164zM330 995l-99 -557q-23 -137 13.5 -207.5t142.5 -87.5
l207 1170q-120 -17 -178.5 -90.5t-85.5 -227.5zM813 438l98 557q26 148 -10 223.5t-143 92.5l-207 -1170q120 15 178 84t84 213z" />
    <glyph glyph-name="Chi" unicode="&#x3a7;" horiz-adv-x="835" 
d="M123 0h-197l441 788l-162 666h174l92 -430q7 -32 14 -125h4q20 58 56 125l229 430h184l-389 -688l160 -766h-174l-90 537q-8 49 -8 125h-4q-22 -63 -54 -125z" />
    <glyph glyph-name="Psi" unicode="&#x3a8;" horiz-adv-x="1136" 
d="M907 780l119 674h164l-121 -688q-38 -217 -148 -330t-305 -114l-57 -322h-164l58 322q-194 1 -263.5 114t-31.5 330l121 688h163l-118 -674q-31 -167 5 -241.5t148 -75.5l174 991h164l-174 -991q52 1 92 16t74.5 50t59 97.5t40.5 153.5z" />
    <glyph glyph-name="uni03A9" unicode="&#x3a9;" horiz-adv-x="907" 
d="M584 1348q-57 0 -99 -21t-68 -61.5t-41.5 -84t-25.5 -102.5l-108 -612q-27 -154 -5.5 -230.5t93.5 -93.5l-25 -143h-315l24 143h160l2 7q-70 26 -98 108.5t-8 198.5l108 616q18 99 47.5 172t78.5 129.5t123 85.5t173 29q87 0 152.5 -23t113.5 -75.5t61 -136.5t-5 -205
l-107 -592q-21 -114 -78 -197.5t-135 -109.5l-2 -7h160l-25 -143h-315l24 143q78 19 127 95t76 229l111 612q25 139 -25.5 204t-148.5 65z" />
    <glyph glyph-name="Iotadieresis" unicode="&#x3aa;" horiz-adv-x="409" 
d="M453 1454l-256 -1454h-164l256 1454h164z" />
    <glyph glyph-name="Upsilondieresis" unicode="&#x3ab;" horiz-adv-x="794" 
d="M389 0h-164l111 627l-160 827h174l80 -534q8 -63 8 -134h4q20 62 58 134l270 534h180l-450 -827z" />
    <glyph glyph-name="alphatonos" unicode="&#x3ac;" horiz-adv-x="784" 
d="M643 1024h121l-137 -774q-27 -168 -23 -250h-158q4 63 13 141q-50 -83 -101 -124.5t-127 -41.5q-117 0 -167 108t-15 304l45 252q74 410 312 410q78 0 127.5 -46t62.5 -139zM494 383l47 262q23 127 -3.5 194.5t-101.5 67.5q-69 0 -112 -62t-66 -196l-45 -256
q-26 -145 0 -210.5t104 -65.5q129 0 177 266z" />
    <glyph glyph-name="epsilontonos" unicode="&#x3ad;" horiz-adv-x="688" 
d="M283 -25q-137 0 -208 65.5t-48 205.5l8 49q19 116 86 172.5t174 69.5q-103 0 -147.5 63.5t-30.5 159.5l6 39q17 106 89.5 178t199.5 72q87 0 146 -24t87.5 -67.5t38.5 -103.5t-2 -131l-166 -21q7 61 5.5 107t-28.5 73t-81 27q-115 0 -136 -135l-6 -39q-10 -68 26.5 -99.5
t102.5 -31.5h84l-24 -135h-74q-47 0 -82 -12.5t-53 -28.5t-31 -45.5t-17 -46.5t-9 -49l-5 -25q-14 -84 14.5 -115.5t88.5 -31.5q79 0 115.5 53t50.5 166l153 -27q-22 -166 -99.5 -249t-227.5 -83z" />
    <glyph glyph-name="etatonos" unicode="&#x3ae;" horiz-adv-x="792" 
d="M555 1049q104 0 154.5 -77.5t23.5 -223.5l-80 -449l-123 -698h-159l69 399l131 748q28 165 -92 165q-76 0 -116.5 -74t-69.5 -243l-105 -596h-159l118 678q40 236 25 346h166q7 -69 0 -143q44 85 93.5 126.5t123.5 41.5z" />
    <glyph glyph-name="iotatonos" unicode="&#x3af;" horiz-adv-x="417" 
d="M190 1024h160l-139 -795q-9 -52 2 -71t47 -19q23 0 41 6l-29 -155q-39 -8 -69 -8q-197 0 -152 247z" />
    <glyph glyph-name="upsilondieresistonos" unicode="&#x3b0;" horiz-adv-x="790" 
d="M324 -25q-145 0 -215 90.5t-37 284.5l118 674h160l-121 -686q-22 -104 -0.5 -163.5t97.5 -59.5q70 0 111 52t63 171l121 686h159l-118 -674q-7 -38 -13 -66t-19.5 -69.5t-29 -72t-42 -64t-58 -54.5t-77 -35t-99.5 -14z" />
    <glyph glyph-name="alpha" unicode="&#x3b1;" horiz-adv-x="784" 
d="M643 1024h121l-137 -774q-27 -168 -23 -250h-158q4 63 13 141q-50 -83 -101 -124.5t-127 -41.5q-117 0 -167 108t-15 304l45 252q74 410 312 410q78 0 127.5 -46t62.5 -139zM494 383l47 262q23 127 -3.5 194.5t-101.5 67.5q-69 0 -112 -62t-66 -196l-45 -256
q-26 -145 0 -210.5t104 -65.5q129 0 177 266z" />
    <glyph glyph-name="beta" unicode="&#x3b2;" horiz-adv-x="784" 
d="M549 1489q54 0 97 -11t71.5 -29t48.5 -43.5t30 -52t14 -56.5t3 -56t-6 -51l-14 -80q-20 -110 -75.5 -179t-137.5 -93q91 -19 130 -108t15 -234l-20 -123q-10 -63 -21.5 -110t-34.5 -105t-53 -95t-78.5 -62.5t-109.5 -25.5q-80 0 -134.5 40t-74.5 116l-95 -530h-159
l276 1562q9 54 23 98t39.5 88t60 73.5t87 48t118.5 18.5zM631 1104l14 80q15 83 -11.5 127.5t-92.5 44.5q-68 0 -106 -50t-54 -143l-168 -954q22 -44 63.5 -66t88.5 -22q31 0 56 8.5t42.5 28.5t29 37.5t21 50t13 49.5t10.5 53q3 14 4 21l22 120q22 119 -12.5 190t-138.5 71
h-35l24 141h35q83 0 131 58.5t64 154.5z" />
    <glyph glyph-name="gamma" unicode="&#x3b3;" horiz-adv-x="663" 
d="M559 1024h164q-12 -72 -37 -141t-88 -221l-268 -644l-76 -417h-160l72 399l-62 1024h164l4 -690q0 -28 -2 -80.5t-2 -75.5h6q13 43 52 154l135 364q79 215 98 328z" />
    <glyph glyph-name="delta" unicode="&#x3b4;" horiz-adv-x="733" 
d="M514 1356q-152 0 -152 -119q0 -62 82 -131l129 -105q77 -63 106.5 -140.5t8.5 -192.5l-55 -318q-7 -39 -13.5 -68.5t-20 -71t-29.5 -71.5t-42 -63t-57.5 -53.5t-76 -34t-97.5 -13.5q-321 0 -254 375l51 293q54 296 328 301l-57 47q-38 31 -59 51t-45.5 51.5t-35 69
t-10.5 84.5q0 32 9 64.5t31.5 65t56 57t86.5 40t118 15.5q137 0 254 -66l-25 -139q-110 72 -231 72zM471 338l57 324q38 215 -96 215q-72 0 -114 -52t-62 -170l-55 -317q-38 -223 102 -223q35 0 62 13.5t43.5 32.5t29.5 51.5t19.5 59t13.5 66.5z" />
    <glyph glyph-name="epsilon" unicode="&#x3b5;" horiz-adv-x="688" 
d="M283 -25q-137 0 -208 65.5t-48 205.5l8 49q19 116 86 172.5t174 69.5q-103 0 -147.5 63.5t-30.5 159.5l6 39q17 106 89.5 178t199.5 72q87 0 146 -24t87.5 -67.5t38.5 -103.5t-2 -131l-166 -21q7 61 5.5 107t-28.5 73t-81 27q-115 0 -136 -135l-6 -39q-10 -68 26.5 -99.5
t102.5 -31.5h84l-24 -135h-74q-47 0 -82 -12.5t-53 -28.5t-31 -45.5t-17 -46.5t-9 -49l-5 -25q-14 -84 14.5 -115.5t88.5 -31.5q79 0 115.5 53t50.5 166l153 -27q-22 -166 -99.5 -249t-227.5 -83z" />
    <glyph glyph-name="zeta" unicode="&#x3b6;" horiz-adv-x="595" 
d="M225 1311l25 143h522l-18 -108l-187 -252q-199 -269 -267 -388.5t-91 -244.5l-8 -45q-12 -64 -11.5 -109.5t28 -80t91.5 -64.5l31 -15q70 -33 108.5 -72.5t38.5 -103.5q0 -68 -37.5 -155t-95.5 -154h-143q121 149 121 258q0 22 -8 39t-25.5 30.5t-33.5 22.5t-44 21l-18 8
q-113 51 -149 131t-9 244l10 63q20 119 93 246.5t249 357.5l174 228h-346z" />
    <glyph glyph-name="eta" unicode="&#x3b7;" horiz-adv-x="792" 
d="M555 1049q104 0 154.5 -77.5t23.5 -223.5l-80 -449l-123 -698h-159l69 399l131 748q28 165 -92 165q-76 0 -116.5 -74t-69.5 -243l-105 -596h-159l118 678q40 236 25 346h166q7 -69 0 -143q44 85 93.5 126.5t123.5 41.5z" />
    <glyph glyph-name="theta" unicode="&#x3b8;" horiz-adv-x="772" 
d="M541 1489q53 0 95.5 -12t79 -40t55.5 -73.5t25 -113t-12 -158.5l-133 -746q-11 -61 -25.5 -110.5t-41 -100t-61.5 -84t-88.5 -55t-119.5 -21.5q-41 0 -75.5 6.5t-69.5 22.5t-58.5 43t-42 68t-19 98t10.5 133l132 746q9 50 15.5 79t20.5 76.5t29.5 76.5t42 64t58.5 54.5
t78.5 33t103.5 13.5zM356 1104l-51 -285h270l52 283q24 122 1 185t-102 63q-74 0 -111.5 -62.5t-58.5 -183.5zM489 340l62 336h-270l-60 -334q-9 -51 -10.5 -86t5 -70t31 -53t66.5 -18q35 0 63 13t45.5 33t31.5 51.5t21.5 60.5t14.5 67z" />
    <glyph glyph-name="iota" unicode="&#x3b9;" horiz-adv-x="417" 
d="M190 1024h160l-139 -795q-9 -52 2 -71t47 -19q23 0 41 6l-29 -155q-39 -8 -69 -8q-197 0 -152 247z" />
    <glyph glyph-name="kappa" unicode="&#x3ba;" horiz-adv-x="778" 
d="M772 1028q23 0 51 -4l-22 -133q-8 2 -27 2q-41 0 -67 -21t-76 -84l-129 -159l145 -629h-172l-108 487l-125 -159l-58 -328h-159l180 1024h160l-82 -465l260 332q58 74 112.5 105.5t116.5 31.5z" />
    <glyph glyph-name="lambda" unicode="&#x3bb;" horiz-adv-x="747" 
d="M-49 0l428 1034l-12 211q-4 65 -22.5 92t-55.5 27q-21 0 -45 -4l22 125q40 12 80 12q73 0 117 -46.5t51 -164.5l66 -1059q3 -65 11.5 -87.5t37.5 -22.5q12 0 28 4l-24 -137q-35 -9 -60 -9q-70 0 -108 42t-41 149l-10 491q-1 30 0.5 89.5t1.5 66.5h-8q-21 -68 -52 -156
l-237 -657h-168z" />
    <glyph glyph-name="uni03BC" unicode="&#x3bc;" horiz-adv-x="813" 
d="M614 1024h160l-121 -680q-42 -225 -24 -344h-166q-8 60 6 166q-77 -191 -219 -191q-47 0 -86 25l-70 -401h-141l252 1425h160l-134 -743l2 2q-14 -81 11 -123.5t73 -42.5q64 0 103 36.5t63 133.5z" />
    <glyph glyph-name="nu" unicode="&#x3bd;" horiz-adv-x="663" 
d="M276 178l181 518q6 18 27 75.5t30.5 85.5t22 76t18.5 91h168q-3 -19 -7.5 -38.5t-8 -34t-12.5 -40t-13 -38t-17.5 -46.5t-18.5 -46.5t-23 -57t-25 -61.5l-268 -662h-166l-60 1024h166v-846h6z" />
    <glyph glyph-name="xi" unicode="&#x3be;" horiz-adv-x="628" 
d="M358 1085l-4 -20q-19 -96 21 -146.5t135 -50.5h98l-24 -143h-117q-120 0 -174.5 -64.5t-75.5 -185.5l-16 -92q-17 -90 7.5 -139t92.5 -74l78 -29q139 -52 139 -172q0 -68 -35 -149.5t-96 -157.5h-141q116 153 116 254q0 70 -79 96l-90 31q-62 21 -100.5 56.5t-51.5 77
t-15 90.5t9 98l18 106q9 46 17.5 80.5t28.5 81t46.5 79t71.5 61t102 40.5q-71 22 -106.5 93t-17.5 161l6 31q32 160 205 213h2l-2 2h-175l27 141h506l-27 -143h-155q-26 0 -56.5 -11t-64.5 -34.5t-62.5 -70.5t-40.5 -110z" />
    <glyph glyph-name="omicron" unicode="&#x3bf;" horiz-adv-x="733" 
d="M291 -25q-52 0 -94.5 11t-79.5 37t-56.5 69t-27 107t9.5 151l57 324q15 86 37 148t60 116.5t99.5 82.5t145.5 28q52 0 94.5 -11t79.5 -37t56.5 -69t27 -107t-9.5 -151l-57 -324q-15 -86 -37 -148t-60 -116.5t-99.5 -82.5t-145.5 -28zM305 115q73 0 109.5 57.5t56.5 165.5
l61 348q40 223 -104 223q-73 0 -109.5 -57.5t-56.5 -165.5l-61 -348q-40 -223 104 -223z" />
    <glyph glyph-name="pi" unicode="&#x3c0;" horiz-adv-x="901" 
d="M911 870h-139l-110 -626q-10 -63 5.5 -90t59.5 -27q23 0 53 6l-22 -135q-36 -12 -78 -12q-56 0 -94.5 14.5t-58.5 37.5t-28 58t-6.5 69.5t9.5 78.5l110 626h-217l-153 -870h-160l154 870h-37q-44 0 -109 -16l27 150q54 20 125 20h698z" />
    <glyph glyph-name="rho" unicode="&#x3c1;" horiz-adv-x="759" 
d="M100 -399h-159l184 1044q8 47 15 79.5t20.5 78t29.5 77t42 65.5t57.5 54.5t76.5 34t99 13.5q153 0 219 -91t31 -294l-60 -334q-29 -167 -101.5 -260t-172.5 -93q-87 0 -134 42.5t-52 115.5zM330 113q74 0 110.5 55.5t57.5 169.5l61 348q39 221 -104 221q-34 0 -61 -13.5
t-43 -32.5t-29 -52t-19.5 -58.5t-13.5 -64.5l-62 -348q-20 -106 4.5 -165.5t98.5 -59.5z" />
    <glyph glyph-name="uni03C2" unicode="&#x3c2;" horiz-adv-x="692" 
d="M293 172l69 -31q61 -27 92 -72.5t31 -101.5q0 -77 -36 -159t-93 -146h-143q117 160 117 254q0 75 -76 104l-61 25q-193 77 -130 422l37 205q11 60 23.5 106t38.5 99.5t60 88t88.5 58t123.5 23.5q71 0 121.5 -18t78.5 -49t41 -77t12 -97t-13 -114l-162 -16q22 114 2 172.5
t-90 58.5q-34 0 -60.5 -14.5t-42.5 -35.5t-29.5 -57.5t-20.5 -67t-15 -77.5l-33 -184q-26 -120 -12.5 -194.5t82.5 -104.5z" />
    <glyph glyph-name="sigma" unicode="&#x3c3;" horiz-adv-x="722" 
d="M508 1024h274l-28 -154h-70q-38 0 -86 13q56 -49 76 -117t2 -174l-41 -240q-12 -68 -28 -121.5t-43.5 -103t-63.5 -81.5t-89.5 -51.5t-121.5 -19.5q-52 0 -93 11t-77 37t-55.5 68t-27 105t8.5 148l51 305q7 44 14.5 76.5t22 74.5t33.5 71t50.5 60t70.5 50t95.5 31
t125.5 12zM305 115q74 0 110.5 57t55.5 166l45 254q18 99 18.5 169.5t-12.5 131.5h-100q-67 0 -104 -47t-58 -170l-59 -338q-12 -56 -9 -95.5t11 -64.5t25.5 -39t35.5 -19t41 -5z" />
    <glyph glyph-name="tau" unicode="&#x3c4;" horiz-adv-x="643" 
d="M666 870h-211l-107 -596q-12 -69 4 -102t76 -33q30 0 76 6l-25 -149q-63 -14 -119 -14q-112 0 -156 60t-22 185l115 643h-98q-44 0 -109 -16l27 150q54 20 125 20h450z" />
    <glyph glyph-name="upsilon" unicode="&#x3c5;" horiz-adv-x="790" 
d="M324 -25q-145 0 -215 90.5t-37 284.5l118 674h160l-121 -686q-22 -104 -0.5 -163.5t97.5 -59.5q70 0 111 52t63 171l121 686h159l-118 -674q-7 -38 -13 -66t-19.5 -69.5t-29 -72t-42 -64t-58 -54.5t-77 -35t-99.5 -14z" />
    <glyph glyph-name="phi" unicode="&#x3c6;" horiz-adv-x="966" 
d="M727 1454l-72 -412q63 -10 115 -36t93 -70t57.5 -113.5t1.5 -156.5l-54 -308q-11 -60 -27 -107.5t-46.5 -97t-72.5 -84t-107 -59.5t-148 -33l-66 -376h-155l65 379q-153 18 -224 114t-42 264l53 308q61 345 402 378l71 410h156zM256 645l-47 -266q-24 -130 3.5 -192.5
t123.5 -77.5l141 806q-96 -17 -147.5 -81.5t-73.5 -188.5zM713 379l47 266q23 122 -4.5 187.5t-122.5 82.5l-141 -806q100 18 150 83.5t71 186.5z" />
    <glyph glyph-name="chi" unicode="&#x3c7;" horiz-adv-x="653" 
d="M571 1028h168l-346 -692l76 -520q6 -47 16 -65.5t29 -18.5q21 0 31 2l-23 -135q-44 -9 -69 -9q-108 0 -129 164l-43 326q-13 96 -13 147h-2q-4 -12 -14.5 -39t-24.5 -61.5t-20 -48.5l-199 -477h-168l357 749l-50 463q-5 48 -16 66t-37 18q-16 0 -24 -2l24 135q36 8 68 8
q66 0 94 -43.5t35 -120.5l22 -247q12 -134 9 -168h2q17 54 69 170z" />
    <glyph glyph-name="psi" unicode="&#x3c8;" horiz-adv-x="1044" 
d="M756 338l121 686h157l-119 -674q-8 -46 -15 -78t-21.5 -74.5t-33 -71.5t-48.5 -59.5t-68 -49t-92 -30.5t-121 -12h-10l-66 -374h-155l65 374q-179 3 -245.5 93.5t-32.5 281.5l118 674h160l-121 -686q-20 -117 7 -170t131 -53h8l237 1339h154l-236 -1339h11q60 0 99.5 15
t62 49t33 67.5t20.5 91.5z" />
    <glyph glyph-name="omega" unicode="&#x3c9;" horiz-adv-x="1081" 
d="M793 1024h165q82 -228 21 -567l-16 -92q-10 -59 -21.5 -104.5t-35.5 -102.5t-54 -94t-78.5 -63t-109.5 -26q-95 0 -137 59.5t-44 155.5q-27 -93 -85.5 -154t-143.5 -61q-257 0 -188 390l14 79q71 375 223 580h166q-89 -114 -146.5 -272.5t-82.5 -302.5l-13 -70
q-10 -56 -13 -98.5t1.5 -82.5t24 -61.5t53.5 -21.5q28 0 49.5 13t35 31.5t25 53.5t17 62t14.5 75l66 379h157l-65 -379q-10 -57 -12.5 -94.5t2.5 -72.5t24.5 -51.5t55.5 -16.5q27 0 48 15t34.5 36t26 60t19 70.5t15.5 82.5l12 70q64 372 -24 575z" />
    <glyph glyph-name="iotadieresis" unicode="&#x3ca;" horiz-adv-x="417" 
d="M190 1024h160l-139 -795q-9 -52 2 -71t47 -19q23 0 41 6l-29 -155q-39 -8 -69 -8q-197 0 -152 247z" />
    <glyph glyph-name="upsilondieresis" unicode="&#x3cb;" horiz-adv-x="790" 
d="M324 -25q-145 0 -215 90.5t-37 284.5l118 674h160l-121 -686q-22 -104 -0.5 -163.5t97.5 -59.5q70 0 111 52t63 171l121 686h159l-118 -674q-7 -38 -13 -66t-19.5 -69.5t-29 -72t-42 -64t-58 -54.5t-77 -35t-99.5 -14z" />
    <glyph glyph-name="omicrontonos" unicode="&#x3cc;" horiz-adv-x="733" 
d="M291 -25q-52 0 -94.5 11t-79.5 37t-56.5 69t-27 107t9.5 151l57 324q15 86 37 148t60 116.5t99.5 82.5t145.5 28q52 0 94.5 -11t79.5 -37t56.5 -69t27 -107t-9.5 -151l-57 -324q-15 -86 -37 -148t-60 -116.5t-99.5 -82.5t-145.5 -28zM305 115q73 0 109.5 57.5t56.5 165.5
l61 348q40 223 -104 223q-73 0 -109.5 -57.5t-56.5 -165.5l-61 -348q-40 -223 104 -223z" />
    <glyph glyph-name="upsilontonos" unicode="&#x3cd;" horiz-adv-x="790" 
d="M324 -25q-145 0 -215 90.5t-37 284.5l118 674h160l-121 -686q-22 -104 -0.5 -163.5t97.5 -59.5q70 0 111 52t63 171l121 686h159l-118 -674q-7 -38 -13 -66t-19.5 -69.5t-29 -72t-42 -64t-58 -54.5t-77 -35t-99.5 -14z" />
    <glyph glyph-name="omegatonos" unicode="&#x3ce;" horiz-adv-x="1081" 
d="M793 1024h165q82 -228 21 -567l-16 -92q-10 -59 -21.5 -104.5t-35.5 -102.5t-54 -94t-78.5 -63t-109.5 -26q-95 0 -137 59.5t-44 155.5q-27 -93 -85.5 -154t-143.5 -61q-257 0 -188 390l14 79q71 375 223 580h166q-89 -114 -146.5 -272.5t-82.5 -302.5l-13 -70
q-10 -56 -13 -98.5t1.5 -82.5t24 -61.5t53.5 -21.5q28 0 49.5 13t35 31.5t25 53.5t17 62t14.5 75l66 379h157l-65 -379q-10 -57 -12.5 -94.5t2.5 -72.5t24.5 -51.5t55.5 -16.5q27 0 48 15t34.5 36t26 60t19 70.5t15.5 82.5l12 70q64 372 -24 575z" />
    <glyph glyph-name="uni0401" unicode="&#x401;" 
d="M852 1454l-25 -143h-399l-86 -490h365l-27 -143h-365l-94 -535h414l-25 -143h-577l256 1454h563z" />
    <glyph glyph-name="uni0404" unicode="&#x404;" horiz-adv-x="866" 
d="M377 -35q-103 0 -174 34.5t-104.5 95.5t-43 145t10.5 184l112 647q38 219 130 318.5t276 99.5q183 0 259 -99.5t46 -281.5l-19 -111l-178 -39l25 142q43 246 -146 246q-96 0 -145 -57t-74 -195l-119 -678q-54 -307 150 -307q92 0 135.5 55t65.5 172l34 194l162 -43
l-26 -149q-35 -193 -121 -283t-256 -90zM688 676h-407l22 133h408z" />
    <glyph glyph-name="uni0405" unicode="&#x405;" horiz-adv-x="774" 
d="M336 -35q-168 0 -255.5 100t-55.5 310l14 94l172 31l-23 -133q-23 -135 22 -198t126 -63q142 0 172 181l12 71q9 52 10.5 90.5t-3.5 66t-20 51t-32.5 40.5t-46.5 39l-133 98q-95 69 -122 166.5t1 225.5l12 65q11 59 31 105.5t56.5 90.5t98 68.5t144.5 24.5q51 0 93 -7
t83 -23.5t68 -44.5t47 -70.5t21.5 -100.5t-9.5 -135l-12 -72l-172 -35l16 93q45 254 -135 254q-43 0 -73 -13t-47 -38.5t-26 -50t-16 -60.5l-16 -84q-17 -84 5 -138.5t85 -101.5l139 -104q99 -75 126 -162t1 -246l-14 -86q-22 -133 -108.5 -216t-235.5 -83z" />
    <glyph glyph-name="uni0406" unicode="&#x406;" horiz-adv-x="409" 
d="M453 1454l-256 -1454h-164l256 1454h164z" />
    <glyph glyph-name="uni0408" unicode="&#x408;" horiz-adv-x="534" 
d="M586 1454l-209 -1202q-25 -146 -102 -211.5t-205 -65.5q-83 0 -144 25l27 154q61 -21 113 -21q71 0 105 38.5t48 123.5l205 1159h162z" />
    <glyph glyph-name="uni040F" unicode="&#x40f;" horiz-adv-x="942" 
d="M821 1454h164l-256 -1454h-272l-51 -287h-152l51 287h-272l256 1454h164l-232 -1311h369z" />
    <glyph glyph-name="uni0410" unicode="&#x410;" horiz-adv-x="858" 
d="M739 0h-161l-5 422h-307l-151 -422h-176l553 1454h206zM500 1075l-187 -518h258l-6 518q0 120 8 221h-6q-27 -113 -67 -221z" />
    <glyph glyph-name="uni0411" unicode="&#x411;" horiz-adv-x="841" 
d="M881 1454l-27 -149h-428l-78 -445h127q166 0 246.5 -85t48.5 -271l-18 -107q-38 -226 -125.5 -311.5t-284.5 -85.5h-309l256 1454h592zM446 729h-120l-107 -596h135q50 0 86 10.5t59.5 28.5t40 52t26.5 70.5t20 94.5l18 109q21 123 -17 177t-141 54z" />
    <glyph glyph-name="uni0412" unicode="&#x412;" horiz-adv-x="854" 
d="M289 1454h262q170 0 257 -86t60 -258l-8 -53q-20 -125 -75 -202.5t-158 -102.5q83 -23 125 -99t18 -217l-12 -71q-16 -94 -42.5 -159t-72.5 -113t-116.5 -70.5t-170.5 -22.5h-323zM690 1059l8 49q11 53 4 90.5t-20 62t-38.5 38t-52.5 19t-61 5.5h-100l-88 -506h125
q56 0 96.5 18.5t65 54.5t38 75t23.5 94zM590 367l12 69q24 139 -11 195.5t-138 56.5h-136l-96 -553h152q104 0 150 58t67 174z" />
    <glyph glyph-name="uni0413" unicode="&#x413;" horiz-adv-x="675" 
d="M829 1454l-26 -149h-377l-229 -1305h-164l256 1454h540z" />
    <glyph glyph-name="uni0414" unicode="&#x414;" horiz-adv-x="1024" 
d="M1030 1454l-231 -1311h119l-76 -430h-152l51 287h-669l-52 -287h-151l76 430h108q171 241 258 662q72 348 129 649h590zM459 780q-41 -197 -93.5 -348t-140.5 -289h410l205 1168h-277q-33 -192 -104 -531z" />
    <glyph glyph-name="uni0415" unicode="&#x415;" 
d="M852 1454l-25 -143h-399l-86 -490h365l-27 -143h-365l-94 -535h414l-25 -143h-577l256 1454h563z" />
    <glyph glyph-name="uni0416" unicode="&#x416;" horiz-adv-x="1318" 
d="M1276 1454h170l-383 -645l149 -809h-172l-112 698h-154l-123 -698h-164l123 698h-141l-363 -698h-180l430 819l-151 635h170l121 -623h137l110 623h164l-110 -623h139z" />
    <glyph glyph-name="uni0417" unicode="&#x417;" horiz-adv-x="802" 
d="M322 -31q-44 0 -83.5 6.5t-80 22.5t-69 43.5t-51 69t-25.5 99t7 134.5l9 49l164 25l-11 -66q-11 -76 -6.5 -130t42 -83.5t112.5 -29.5q60 0 99 15.5t61 55.5t29 65.5t19 88.5q2 9 3 14l14 82q22 122 -6.5 185t-128.5 63h-144l25 143h141q89 0 140 56t73 178l17 92
q37 203 -144 203q-33 0 -60.5 -8t-46 -18.5t-34.5 -32t-24.5 -37t-17.5 -46.5t-12.5 -47.5t-10.5 -50.5l-19 -98l-153 26l16 90q7 36 10.5 54.5t13 54t18.5 56t25.5 50.5t35.5 48t47 39t61 32t77.5 19t96.5 8q41 0 77.5 -6t75 -20t65.5 -38t48.5 -60.5t25 -87t-6.5 -116.5
l-21 -112q-25 -141 -82 -206.5t-158 -90.5q98 -32 131 -109t11 -213l-15 -88q-11 -65 -23 -110t-39.5 -99t-65.5 -86.5t-102.5 -55t-149.5 -22.5z" />
    <glyph glyph-name="uni0418" unicode="&#x418;" horiz-adv-x="946" 
d="M989 1454l-256 -1454h-147l168 948q51 288 69 371h-8q-49 -141 -137 -352l-402 -967h-243l256 1454h147l-166 -948q-57 -311 -69 -371h8q40 124 94 254l440 1065h246z" />
    <glyph glyph-name="uni0419" unicode="&#x419;" horiz-adv-x="946" 
d="M989 1454l-256 -1454h-147l168 948q51 288 69 371h-8q-49 -141 -137 -352l-402 -967h-243l256 1454h147l-166 -948q-57 -311 -69 -371h8q40 124 94 254l440 1065h246z" />
    <glyph glyph-name="uni041A" unicode="&#x41a;" horiz-adv-x="878" 
d="M823 1454h170l-379 -666l144 -788h-172l-111 698h-153l-125 -698h-164l258 1454h164l-111 -623h139z" />
    <glyph glyph-name="uni041B" unicode="&#x41b;" horiz-adv-x="919" 
d="M356 1454h607l-256 -1454h-164l229 1311h-291q-110 -551 -211 -1002q-14 -64 -28.5 -109t-38 -88t-54 -69t-76 -41.5t-104.5 -15.5q-36 0 -51 6l27 151q16 -4 35 -4q58 0 88 40t51 134q88 396 237 1141z" />
    <glyph glyph-name="uni041C" unicode="&#x41c;" horiz-adv-x="1202" 
d="M184 0h-151l256 1454h258v-1057q0 -157 -6 -211h8q13 68 65 211l373 1057h258l-256 -1454h-151l159 913q40 232 76 396h-10q-50 -168 -84 -262l-377 -1047h-182l-6 1047q-1 39 0 79.5t2 71t2.5 55t2.5 39.5t1 17h-8q-8 -55 -38 -220.5t-32 -175.5z" />
    <glyph glyph-name="uni041D" unicode="&#x41d;" horiz-adv-x="946" 
d="M825 1454h164l-256 -1454h-164l121 682h-373l-120 -682h-164l256 1454h164l-113 -639h373z" />
    <glyph glyph-name="uni041E" unicode="&#x41e;" horiz-adv-x="907" 
d="M383 -35q-87 0 -152.5 23.5t-113.5 75.5t-61 136t5 206l117 667q18 99 47.5 172t78.5 129.5t123 85.5t173 29q87 0 152.5 -23t113.5 -75.5t61 -136.5t-5 -205l-117 -668q-36 -202 -134 -309t-288 -107zM399 106q57 0 99 21t68 61.5t41.5 84t25.5 102.5l125 704
q25 139 -25.5 204t-148.5 65q-57 0 -99 -21t-68 -61.5t-41.5 -84t-25.5 -102.5l-125 -704q-25 -139 25.5 -204t148.5 -65z" />
    <glyph glyph-name="uni041F" unicode="&#x41f;" horiz-adv-x="942" 
d="M33 0l256 1454h696l-256 -1454h-164l232 1311h-369l-231 -1311h-164z" />
    <glyph glyph-name="uni0420" unicode="&#x420;" horiz-adv-x="804" 
d="M289 1454h280q43 0 81 -5.5t78.5 -20t69 -39.5t52 -63.5t28 -92t-3.5 -125.5l-22 -152q-12 -78 -35.5 -136.5t-66.5 -108t-114 -75.5t-167 -26h-164l-108 -610h-164zM684 977l21 115q13 59 6.5 100t-19 66.5t-39 40t-53.5 19.5t-63 5h-107l-102 -582h151q53 0 90 17.5
t59.5 53.5t34 72.5t21.5 92.5z" />
    <glyph glyph-name="uni0421" unicode="&#x421;" horiz-adv-x="866" 
d="M375 -35q-86 0 -150 24.5t-109.5 80.5t-56.5 146.5t9 221.5l114 656q11 63 26.5 114.5t46 106t71 91t104 60t143.5 23.5q69 0 123 -12.5t98.5 -41t68 -74.5t32 -113.5t-9.5 -157.5l-17 -93l-176 -39l25 142q24 135 -18 191.5t-124 56.5q-49 0 -87 -17t-60 -40.5
t-39 -62.5t-24.5 -69.5t-14.5 -73.5l-117 -673q-13 -87 -9 -145.5t27.5 -93.5t55 -49.5t72.5 -14.5q98 0 141.5 58t63.5 169l34 194l162 -43l-30 -172q-15 -81 -40 -141t-67.5 -109t-110 -74.5t-157.5 -25.5z" />
    <glyph glyph-name="uni0422" unicode="&#x422;" horiz-adv-x="761" 
d="M178 1454h737l-26 -149h-287l-229 -1305h-162l229 1305h-288z" />
    <glyph glyph-name="uni0423" unicode="&#x423;" horiz-adv-x="792" 
d="M309 246l8 20l-139 1188h166l64 -817q7 -99 10 -176h4q28 109 53 176l305 817h166l-448 -1118q-22 -55 -36.5 -88t-36.5 -76t-41 -68.5t-46.5 -53t-57 -42t-68.5 -24t-85 -9.5q-55 0 -94 17l24 143q50 -12 86 -12q66 0 103 29.5t63 93.5z" />
    <glyph glyph-name="uni0424" unicode="&#x424;" horiz-adv-x="1048" 
d="M776 1489l-14 -88q174 -4 245 -134t33 -345l-67 -387q-43 -239 -147.5 -358t-301.5 -122l-16 -90h-160l17 90q-175 3 -248.5 124.5t-32.5 355.5l68 387q42 236 151.5 356t298.5 123l14 88h160zM305 918l-67 -379q-60 -337 153 -342l191 1063q-67 -1 -114.5 -24t-78.5 -71
t-50 -105.5t-34 -141.5zM819 539l68 379q59 337 -154 342l-190 -1063q67 1 115 24t78.5 70.5t49 105t33.5 142.5z" />
    <glyph glyph-name="uni0425" unicode="&#x425;" horiz-adv-x="835" 
d="M123 0h-197l441 788l-162 666h174l92 -430q7 -32 14 -125h4q20 58 56 125l229 430h184l-389 -688l160 -766h-174l-90 537q-8 49 -8 125h-4q-22 -63 -54 -125z" />
    <glyph glyph-name="uni0426" unicode="&#x426;" horiz-adv-x="978" 
d="M821 1454h164l-231 -1311h118l-75 -430h-154l51 287h-661l256 1454h164l-232 -1311h369z" />
    <glyph glyph-name="uni0427" unicode="&#x427;" horiz-adv-x="897" 
d="M657 776l119 678h164l-256 -1454h-164l111 631q-104 -33 -191 -33q-293 0 -293 285q0 56 13 129l78 442h163l-75 -430q-11 -56 -11 -109q0 -89 42 -128t132 -39q85 0 168 28z" />
    <glyph glyph-name="uni0428" unicode="&#x428;" horiz-adv-x="1339" 
d="M989 143l230 1311h161l-256 -1454h-1091l256 1454h164l-230 -1311h299l232 1311h164l-232 -1311h303z" />
    <glyph glyph-name="uni0429" unicode="&#x429;" horiz-adv-x="1376" 
d="M1219 1454h161l-231 -1311h119l-76 -430h-150l52 287h-1061l256 1454h164l-230 -1311h299l232 1311h164l-232 -1311h303z" />
    <glyph glyph-name="uni042A" unicode="&#x42a;" horiz-adv-x="1013" 
d="M532 899h113q362 0 299 -369l-24 -143q-37 -218 -125 -302.5t-285 -84.5h-299l229 1305h-286l24 149h453zM754 379l26 145q24 131 -14 187.5t-143 56.5h-113l-113 -635h125q62 0 102.5 14t65.5 48t38 74t26 110z" />
    <glyph glyph-name="uni042B" unicode="&#x42b;" horiz-adv-x="1169" 
d="M354 899h113q362 0 299 -369l-25 -143q-37 -218 -125 -302.5t-284 -84.5h-299l256 1454h164zM795 0l256 1454h161l-256 -1454h-161zM575 379l27 145q24 131 -14.5 187.5t-143.5 56.5h-112l-113 -635h125q62 0 102 14t65 48t38 74t26 110z" />
    <glyph glyph-name="uni042C" unicode="&#x42c;" horiz-adv-x="835" 
d="M354 899h113q362 0 299 -369l-25 -143q-37 -218 -125 -302.5t-284 -84.5h-299l256 1454h164zM575 379l27 145q24 131 -14.5 187.5t-143.5 56.5h-112l-113 -635h125q62 0 102 14t65 48t38 74t26 110z" />
    <glyph glyph-name="uni042D" unicode="&#x42d;" horiz-adv-x="866" 
d="M573 1489q386 0 312 -418l-115 -653q-21 -118 -50 -198t-77 -139.5t-119.5 -87.5t-171.5 -28q-172 0 -251.5 96t-49.5 277l19 108l178 43l-27 -153q-39 -225 150 -225q93 0 146 69.5t79 210.5l49 287h-317l22 133h320l49 283q24 133 -13.5 192.5t-130.5 59.5
q-98 0 -146 -63.5t-71 -182.5l-22 -121l-164 39l16 90q12 65 30 118.5t48.5 103.5t71.5 84t101 54.5t134 20.5z" />
    <glyph glyph-name="uni042E" unicode="&#x42e;" horiz-adv-x="1284" 
d="M977 1489q87 0 152.5 -23t113 -75.5t60.5 -136.5t-5 -205l-116 -668q-36 -202 -134 -309t-288 -107q-68 0 -123.5 15t-100.5 47t-70.5 83.5t-33.5 125t10 170.5l45 256h-174l-116 -662h-164l256 1454h164l-117 -659h174l49 278q36 203 133 309.5t285 106.5zM1010 375
l125 704q25 139 -25.5 204t-148.5 65q-57 0 -99 -21t-68 -61.5t-41.5 -84t-25.5 -102.5l-125 -704q-25 -139 25.5 -204t148.5 -65q57 0 99 21t68 61.5t41.5 84t25.5 102.5z" />
    <glyph glyph-name="uni042F" unicode="&#x42f;" horiz-adv-x="854" 
d="M590 1454h307l-256 -1454h-164l111 623h-133h-6l-322 -623h-176l338 651q-172 74 -121 353l16 90q33 179 131.5 269.5t274.5 90.5zM475 750h135l101 573h-133q-93 0 -148 -54.5t-80 -189.5l-14 -75q-25 -128 9 -191t130 -63z" />
    <glyph glyph-name="uni0430" unicode="&#x430;" 
d="M199 -25q-102 0 -153 70t-30 203l9 53q11 74 44.5 131.5t75.5 89.5q80 62 205 72l146 12l22 148q23 161 -92 161q-65 0 -93.5 -32t-39.5 -109l-12 -82h-160l12 86q20 137 93 204t206 67q293 0 238 -320l-82 -471q-27 -167 -27 -258h-147q-1 31 12 164q-56 -189 -227 -189
zM272 109q62 0 103.5 43.5t60.5 144.5l39 207l-92 -8q-163 -15 -190 -185l-11 -63q-22 -139 90 -139z" />
    <glyph glyph-name="uni0431" unicode="&#x431;" horiz-adv-x="735" 
d="M621 1274l-129 -35q-75 -21 -117.5 -72.5t-67.5 -146.5l-33 -123q76 152 230 152q109 0 167.5 -81.5t33.5 -226.5l-68 -379q-13 -70 -26.5 -120.5t-39 -104t-59.5 -86.5t-87 -54.5t-122 -21.5q-152 0 -221.5 91.5t-40.5 271.5q20 119 55 316.5t49 277.5q11 66 23.5 115.5
t35.5 106.5t53.5 96.5t78.5 72t110 47.5l111 27q60 14 82.5 34.5t30.5 59.5h137q-11 -92 -52.5 -142.5t-133.5 -74.5zM424 913q-38 0 -66 -17.5t-46.5 -50t-30 -69.5t-19.5 -86l-57 -334q-11 -72 -11.5 -126t28 -85.5t87.5 -31.5q36 0 63 14t42.5 32.5t28.5 55.5t19 64
t15 77l58 334q40 223 -111 223z" />
    <glyph glyph-name="uni0432" unicode="&#x432;" horiz-adv-x="739" 
d="M205 1024h239q88 0 150.5 -23.5t95 -81.5t17.5 -145l-9 -49q-11 -74 -58.5 -128t-129.5 -67q166 -43 131 -227l-8 -51q-11 -60 -30 -102.5t-54.5 -78t-95 -53.5t-142.5 -18h-286zM535 727l8 45q12 73 -18 106t-99 33h-84l-57 -333h88q44 0 75 12.5t48 36.5t25.5 46.5
t13.5 53.5zM467 246l12 69q13 79 -18.5 115.5t-110.5 36.5h-86l-61 -354h125q38 0 65.5 12.5t42 36t20.5 41t11 43.5z" />
    <glyph glyph-name="uni0433" unicode="&#x433;" horiz-adv-x="557" 
d="M205 1024h416l-23 -135h-258l-158 -889h-157z" />
    <glyph glyph-name="uni0434" unicode="&#x434;" horiz-adv-x="874" 
d="M326 1024h499l-155 -889h88l-70 -391h-147l45 256h-477l-46 -256h-147l70 391h84q42 64 78.5 154t49 133.5t33.5 122.5q36 144 95 479zM217 135h295l131 754h-201q-8 -39 -22.5 -115t-27 -136.5t-25.5 -115.5q-55 -233 -150 -387z" />
    <glyph glyph-name="uni0435" unicode="&#x435;" horiz-adv-x="714" 
d="M436 1049q142 0 206.5 -87.5t35.5 -246.5q-7 -37 -20.5 -111.5t-20.5 -111.5h-414l-28 -170q-35 -205 106 -205q60 0 93 35.5t46 103.5l17 82l149 -29l-16 -73q-11 -50 -30.5 -92.5t-53 -82.5t-87 -63t-122.5 -23q-61 0 -112 18.5t-92.5 60t-54.5 109t1 165.5l70 387
q61 334 327 334zM522 739q34 185 -96 185q-40 0 -69.5 -17t-47 -48t-27 -61t-16.5 -69l-22 -127h254z" />
    <glyph glyph-name="uni0436" unicode="&#x436;" horiz-adv-x="1060" 
d="M965 1024h168l-322 -473l150 -551h-175l-116 459h-76l-80 -459h-147l79 459h-67l-285 -459h-174l344 549l-155 475h167l119 -442h74l78 442h147l-78 -442h74z" />
    <glyph glyph-name="uni0437" unicode="&#x437;" horiz-adv-x="698" 
d="M279 -25q-61 0 -110.5 14t-90 44.5t-57.5 86t-5 130.5l11 63l161 15l-10 -58q-14 -82 11.5 -125t101.5 -43q68 0 101.5 38.5t45.5 127.5l4 29q12 85 -13 120.5t-91 35.5h-84l20 122h80q63 0 96.5 30.5t47.5 115.5l10 59q23 144 -102 144q-32 0 -55.5 -10t-37.5 -23.5
t-25 -38.5t-15.5 -43.5t-10.5 -50.5l-12 -66l-154 15l10 55q14 71 32 118.5t52 88.5t89.5 60.5t136.5 19.5q142 0 209 -69t43 -198l-11 -55q-12 -72 -55 -127.5t-123 -71.5q78 -22 108 -77t13 -148l-16 -94q-8 -47 -27.5 -86.5t-54 -74t-92 -54t-131.5 -19.5z" />
    <glyph glyph-name="uni0438" unicode="&#x438;" horiz-adv-x="798" 
d="M215 0h-190l180 1024h131l-119 -670q-18 -105 -37 -213h8q36 122 66 185l332 698h188l-180 -1024h-131l123 698q11 64 32 185h-8q-38 -127 -65 -185z" />
    <glyph glyph-name="uni0439" unicode="&#x439;" horiz-adv-x="798" 
d="M215 0h-190l180 1024h131l-119 -670q-18 -105 -37 -213h8q36 122 66 185l332 698h188l-180 -1024h-131l123 698q11 64 32 185h-8q-38 -127 -65 -185z" />
    <glyph glyph-name="uni043A" unicode="&#x43a;" horiz-adv-x="733" 
d="M627 1024h168l-322 -473l150 -551h-174l-117 459h-68l-80 -459h-159l180 1024h160l-78 -442h65z" />
    <glyph glyph-name="uni043B" unicode="&#x43b;" horiz-adv-x="768" 
d="M242 1024h501l-180 -1024h-157l155 889h-203q-75 -385 -92 -465q-36 -177 -75.5 -271.5t-87.5 -129.5t-123 -35q-31 0 -52 6l25 137h20q47 0 77 51t61 195q72 332 131 647z" />
    <glyph glyph-name="uni043C" unicode="&#x43c;" horiz-adv-x="1040" 
d="M797 776l-314 -776h-131l-20 776q0 66 2 107h-8l-21 -121l-135 -762h-145l180 1024h239l17 -688q2 -59 -8 -137h6q19 70 45 137l276 688h236l-180 -1024h-146l135 762l21 121h-8q-21 -63 -41 -107z" />
    <glyph glyph-name="uni043D" unicode="&#x43d;" horiz-adv-x="778" 
d="M518 582l78 442h158l-181 -1024h-157l80 459h-234l-80 -459h-157l180 1024h157l-77 -442h233z" />
    <glyph glyph-name="uni043E" unicode="&#x43e;" horiz-adv-x="733" 
d="M291 -25q-52 0 -94.5 11t-79.5 37t-56.5 69t-27 107t9.5 151l57 324q15 86 37 148t60 116.5t99.5 82.5t145.5 28q52 0 94.5 -11t79.5 -37t56.5 -69t27 -107t-9.5 -151l-57 -324q-15 -86 -37 -148t-60 -116.5t-99.5 -82.5t-145.5 -28zM305 115q73 0 109.5 57.5t56.5 165.5
l61 348q40 223 -104 223q-73 0 -109.5 -57.5t-56.5 -165.5l-61 -348q-40 -223 104 -223z" />
    <glyph glyph-name="uni043F" unicode="&#x43f;" horiz-adv-x="774" 
d="M182 0h-157l180 1024h545l-181 -1024h-157l157 889h-229z" />
    <glyph glyph-name="uni0440" unicode="&#x440;" horiz-adv-x="792" 
d="M115 -399h-160l252 1423h147l-30 -156q42 92 95.5 136.5t133.5 44.5q19 0 37 -2.5t43 -12.5t44.5 -27t38 -48.5t27.5 -73.5t8.5 -106.5t-14.5 -143.5l-41 -232q-10 -54 -20 -96.5t-27 -95.5t-40 -92t-53 -73.5t-72.5 -52.5t-92.5 -18q-75 0 -121.5 42t-60.5 120zM338 117
q81 0 124 67t64 187l52 288q25 138 -5 193t-88 55q-56 0 -95.5 -37t-59 -89t-33.5 -128l-51 -288q-11 -74 -9.5 -122t18 -76t36.5 -39t47 -11z" />
    <glyph glyph-name="uni0441" unicode="&#x441;" horiz-adv-x="706" 
d="M299 -25q-144 0 -218 85.5t-42 265.5l63 362q62 361 324 361q320 0 256 -326l-12 -64l-160 -14l12 68q11 51 8.5 86.5t-8.5 57t-23 33t-33.5 15.5t-39.5 4q-65 0 -104 -54t-58 -163l-63 -368q-20 -113 11 -161t87 -48q65 0 96 40t47 126l21 104l155 -25l-20 -102
q-27 -134 -102.5 -208.5t-196.5 -74.5z" />
    <glyph glyph-name="uni0442" unicode="&#x442;" horiz-adv-x="567" 
d="M115 1024h518l-25 -135h-178l-158 -889h-157l157 889h-182z" />
    <glyph glyph-name="uni0443" unicode="&#x443;" horiz-adv-x="694" 
d="M-25 -410q-41 0 -75 11l24 153q30 -10 68 -10q94 0 141 113l60 143l-89 1024h170l27 -709q3 -75 -6 -139h4q13 53 45 135l256 713h170l-504 -1219q-52 -124 -122.5 -169.5t-168.5 -45.5z" />
    <glyph glyph-name="uni0444" unicode="&#x444;" horiz-adv-x="1142" 
d="M930 1049q237 0 176 -338l-68 -379q-10 -56 -20 -97.5t-30 -93.5t-45.5 -85.5t-67 -57t-93.5 -23.5q-80 0 -130 37.5t-66 134.5l-97 -548h-157l98 551q-86 -175 -219 -175q-35 0 -63.5 8t-57.5 30t-43.5 59.5t-20.5 96.5t11 142l72 400q58 338 266 338q73 0 118 -35.5
t70 -112.5l103 584h157l-102 -582q75 146 209 146zM295 117q39 0 69 21t50 61t32 79t23 93l57 327q29 209 -106 209q-113 0 -150 -196l-63 -355q-23 -124 -2 -181.5t90 -57.5zM877 336l67 375q18 103 -5.5 149.5t-88.5 46.5q-66 0 -106.5 -62t-65.5 -179l-43 -240l-6 -41
q-48 -268 96 -268q30 0 53.5 11.5t38.5 29t27 49t18.5 59t14.5 70.5z" />
    <glyph glyph-name="uni0445" unicode="&#x445;" horiz-adv-x="663" 
d="M102 0h-182l330 537l-125 487h168l49 -297q10 -52 12 -86h4q5 15 21 45.5t22 42.5l146 295h172l-293 -498l137 -526h-164l-61 317q-12 66 -12 91h-4q-8 -21 -46 -91z" />
    <glyph glyph-name="uni0446" unicode="&#x446;" horiz-adv-x="790" 
d="M584 1024h157l-155 -889h88l-70 -391h-147l45 256h-477l180 1024h157l-157 -889h221z" />
    <glyph glyph-name="uni0447" unicode="&#x447;" horiz-adv-x="757" 
d="M487 526l88 498h156l-182 -1024h-156l70 393q-61 -22 -129 -22q-34 0 -64 5.5t-61.5 21t-54 39.5t-36.5 65t-14 94q0 40 9 90l59 338h158l-58 -311q-10 -48 -10 -103q0 -110 115 -110q59 0 110 26z" />
    <glyph glyph-name="uni0448" unicode="&#x448;" horiz-adv-x="1148" 
d="M809 135l158 889h157l-180 -1024h-919l180 1024h157l-155 -889h223l156 889h157l-155 -889h221z" />
    <glyph glyph-name="uni0449" unicode="&#x449;" horiz-adv-x="1173" 
d="M967 1024h157l-155 -889h88l-70 -391h-147l45 256h-860l180 1024h157l-155 -889h223l156 889h157l-155 -889h221z" />
    <glyph glyph-name="uni044A" unicode="&#x44a;" horiz-adv-x="804" 
d="M387 674h76q137 0 205.5 -66t48.5 -223l-12 -92q-7 -48 -19.5 -87.5t-38.5 -79t-63.5 -66t-96.5 -43.5t-135 -17h-241l155 889h-176l25 135h334zM545 303l12 82q14 89 -16.5 127.5t-118.5 38.5h-57l-74 -428h61q98 0 138.5 45t54.5 135z" />
    <glyph glyph-name="uni044B" unicode="&#x44b;" horiz-adv-x="718" 
d="M301 674h76q137 0 205.5 -66t48.5 -223l-13 -92q-7 -48 -19 -87.5t-38 -79t-63.5 -66t-96.5 -43.5t-135 -17h-241l180 1024h157zM459 303l12 82q14 89 -16.5 127.5t-118.5 38.5h-57l-74 -428h61q98 0 138.5 45t54.5 135z" />
    <glyph glyph-name="uni044C" unicode="&#x44c;" horiz-adv-x="718" 
d="M301 674h76q137 0 205.5 -66t48.5 -223l-13 -92q-7 -48 -19 -87.5t-38 -79t-63.5 -66t-96.5 -43.5t-135 -17h-241l180 1024h157zM459 303l12 82q14 89 -16.5 127.5t-118.5 38.5h-57l-74 -428h61q98 0 138.5 45t54.5 135z" />
    <glyph glyph-name="uni044D" unicode="&#x44d;" horiz-adv-x="704" 
d="M416 1049q55 0 98.5 -11.5t79 -38t55 -69t25.5 -104.5t-10 -144l-64 -360q-11 -61 -22.5 -103t-36 -92t-57.5 -80.5t-88.5 -51t-127.5 -20.5q-59 0 -108 15t-87.5 47t-54 89t-2.5 134l11 59l163 15l-10 -62q-13 -83 8.5 -126.5t90.5 -43.5q35 0 60.5 10.5t40.5 26.5
t26 44.5t16.5 53t12.5 64.5q3 19 5 29l25 133h-229l22 123h229l15 84q28 132 9 193t-101 61q-65 0 -97.5 -42.5t-48.5 -129.5l-10 -56l-158 15l8 47q24 139 102 215t210 76z" />
    <glyph glyph-name="uni044E" unicode="&#x44e;" horiz-adv-x="1081" 
d="M258 1419h174l-39 -223h-174zM793 1049q43 0 79 -7.5t69 -25t55 -46t37.5 -70t15.5 -97.5t-11 -129l-57 -324q-12 -68 -27.5 -120t-42 -102t-62 -82t-88.5 -51.5t-120 -19.5q-52 0 -93.5 11t-78 37t-56 69t-26.5 107t10 151l21 111h-152l-82 -461h-159l180 1024h160
l-78 -440h151l17 90q15 86 36.5 148t59 116.5t98 82.5t144.5 28zM821 338l62 348q40 223 -105 223q-75 0 -111.5 -57t-56.5 -166l-61 -348q-40 -223 106 -223q73 0 109.5 57.5t56.5 165.5z" />
    <glyph glyph-name="uni044F" unicode="&#x44f;" horiz-adv-x="724" 
d="M700 1024l-180 -1024h-158l70 401h-92l-203 -401h-166l226 426q-130 57 -95 266l7 37q26 149 114 222t226 73h251zM377 524h78l65 377h-90q-69 0 -110.5 -39t-57.5 -135l-6 -35q-13 -84 10.5 -126t110.5 -42z" />
    <glyph glyph-name="uni0451" unicode="&#x451;" horiz-adv-x="714" 
d="M436 1049q142 0 206.5 -87.5t35.5 -246.5q-7 -37 -20.5 -111.5t-20.5 -111.5h-414l-28 -170q-35 -205 106 -205q60 0 93 35.5t46 103.5l17 82l149 -29l-16 -73q-11 -50 -30.5 -92.5t-53 -82.5t-87 -63t-122.5 -23q-61 0 -112 18.5t-92.5 60t-54.5 109t1 165.5l70 387
q61 334 327 334zM522 739q34 185 -96 185q-40 0 -69.5 -17t-47 -48t-27 -61t-16.5 -69l-22 -127h254z" />
    <glyph glyph-name="uni0454" unicode="&#x454;" horiz-adv-x="704" 
d="M436 1049q141 0 206.5 -86t37.5 -236v-4l-166 -27l8 43q34 185 -96 185q-40 0 -69.5 -17t-47 -48t-27 -61t-16.5 -69l-24 -143h227l-20 -123h-230l-24 -141q-35 -205 106 -205q60 0 93 35.5t46 103.5l17 78l149 -29l-16 -69q-11 -50 -30.5 -92.5t-53 -82.5t-87 -63
t-122.5 -23q-61 0 -112 18.5t-92.5 60t-54.5 109t1 165.5l70 387q61 334 327 334z" />
    <glyph glyph-name="uni0455" unicode="&#x455;" horiz-adv-x="690" 
d="M285 -25q-139 0 -216 72.5t-51 216.5l11 55l166 31l-11 -63q-18 -104 12 -144.5t99 -40.5q18 0 32.5 3.5t32.5 14t31.5 35.5t20.5 64l10 53q12 64 -5 101.5t-85 66.5l-90 37q-76 32 -107 109t-12 174l12 63q20 104 89 165t196 61q59 0 105.5 -12.5t86 -42.5t55 -88
t1.5 -140l-9 -47l-163 -27l10 76q11 85 -13.5 120.5t-80.5 35.5q-97 0 -119 -109l-12 -61q-23 -117 71 -160l99 -43q57 -25 90 -55.5t44.5 -69.5t10.5 -75.5t-12 -88.5l-11 -53q-44 -234 -288 -234z" />
    <glyph glyph-name="uni0458" unicode="&#x458;" horiz-adv-x="387" 
d="M393 1196h-174l39 223h174zM-72 -414q-55 0 -98 15l27 143q27 -8 51 -8q40 0 59 19.5t27 62.5l211 1206h157l-219 -1247q-15 -85 -66.5 -138t-148.5 -53z" />
    <glyph glyph-name="Wgrave" unicode="&#x1e80;" horiz-adv-x="1226" 
d="M369 0h-236l84 1454h160l-74 -1055q-9 -131 -27 -256h9q9 31 32.5 119.5t38.5 136.5l318 1055h209l-56 -1055q-2 -51 -11 -152t-9 -104h8q35 150 66 256l297 1055h163l-430 -1454h-233l57 1030q4 91 25 283h-10q-28 -131 -76 -283z" />
    <glyph glyph-name="wgrave" unicode="&#x1e81;" horiz-adv-x="1056" 
d="M309 0h-174l-8 1024h160l-33 -778l-6 -84h4q2 9 24 84l256 778h173l-19 -778q0 -22 -4 -84h4q4 31 21 84l243 778h160l-367 -1024h-170l15 772q0 18 10 105h-4q-2 -9 -12 -47t-17 -58z" />
    <glyph glyph-name="Wacute" unicode="&#x1e82;" horiz-adv-x="1226" 
d="M369 0h-236l84 1454h160l-74 -1055q-9 -131 -27 -256h9q9 31 32.5 119.5t38.5 136.5l318 1055h209l-56 -1055q-2 -51 -11 -152t-9 -104h8q35 150 66 256l297 1055h163l-430 -1454h-233l57 1030q4 91 25 283h-10q-28 -131 -76 -283z" />
    <glyph glyph-name="wacute" unicode="&#x1e83;" horiz-adv-x="1056" 
d="M309 0h-174l-8 1024h160l-33 -778l-6 -84h4q2 9 24 84l256 778h173l-19 -778q0 -22 -4 -84h4q4 31 21 84l243 778h160l-367 -1024h-170l15 772q0 18 10 105h-4q-2 -9 -12 -47t-17 -58z" />
    <glyph glyph-name="Wdieresis" unicode="&#x1e84;" horiz-adv-x="1226" 
d="M369 0h-236l84 1454h160l-74 -1055q-9 -131 -27 -256h9q9 31 32.5 119.5t38.5 136.5l318 1055h209l-56 -1055q-2 -51 -11 -152t-9 -104h8q35 150 66 256l297 1055h163l-430 -1454h-233l57 1030q4 91 25 283h-10q-28 -131 -76 -283z" />
    <glyph glyph-name="wdieresis" unicode="&#x1e85;" horiz-adv-x="1056" 
d="M309 0h-174l-8 1024h160l-33 -778l-6 -84h4q2 9 24 84l256 778h173l-19 -778q0 -22 -4 -84h4q4 31 21 84l243 778h160l-367 -1024h-170l15 772q0 18 10 105h-4q-2 -9 -12 -47t-17 -58z" />
    <glyph glyph-name="Ygrave" unicode="&#x1ef2;" horiz-adv-x="794" 
d="M389 0h-164l111 627l-160 827h174l80 -534q8 -63 8 -134h4q20 62 58 134l270 534h180l-450 -827z" />
    <glyph glyph-name="ygrave" unicode="&#x1ef3;" horiz-adv-x="694" 
d="M-25 -410q-41 0 -75 11l24 153q30 -10 68 -10q94 0 141 113l60 143l-89 1024h170l27 -709q3 -75 -6 -139h4q13 53 45 135l256 713h170l-504 -1219q-52 -124 -122.5 -169.5t-168.5 -45.5z" />
    </font>
</defs>
</svg>
